<svg xmlns="http://www.w3.org/2000/svg" version="1.1" viewBox="0 0 64 64">
    <title>Playing Card Six Of Spades</title>
    <path d="M13 62.5c-3 0-5.5-2.5-5.5-5.5V7c0-3 2.5-5.5 5.5-5.5h38c3 0 5.5 2.5 5.5 5.5v50c0 3-2.5 5.5-5.5 5.5H13z" fill="#efeded"/>
    <path d="M51 3c2.2 0 4 1.8 4 4v50c0 2.2-1.8 4-4 4H13c-2.2 0-4-1.8-4-4V7c0-2.2 1.8-4 4-4h38m0-3H13C9.1 0 6 3.1 6 7v50c0 3.9 3.1 7 7 7h38c3.9 0 7-3.1 7-7V7c0-3.9-3.1-7-7-7z" fill="#262626"/>
    <path d="m51.809817 44.516645c0-6.815999-14.2-14.625999-14.2-14.625999s-14.199998 7.81-14.199998 14.625999c0 4.070665 3.408 7.525998 7.526 7.525998 1.987999 0 3.739332-0.757333 5.064665-1.987999l-0.189333 1.562c-0.236667 1.703999-1.419999 3.265999-3.123999 3.549999l-2.177334 0.473333v2.650666h14.2v-2.650666l-2.224667-0.425999c-1.704-0.284-2.887334-1.845999-3.124001-3.55l-0.189333-1.561999c1.325334 1.230666 3.076668 1.987999 5.064668 1.987999 4.165332 0 7.573332-3.502667 7.573332-7.573332" fill="#4d5357" stroke-width=".473333"/>
    <path d="m25.997482 12.340077-3.733333 0.4c-0.06667-0.8-0.333334-1.4-0.733334-1.733334-0.4-0.4-0.866666-0.6-1.466666-0.6-0.8 0-1.466667 0.4-2.066667 1.133334-0.533333 0.733333-0.933333 2.333333-1.066667 4.733333 0.933334-1.2 2.133334-1.8 3.533334-1.8 1.6 0 3 0.666667 4.133333 1.933333 1.133333 1.266667 1.733333 2.933334 1.733333 4.933334 0 2.133333-0.6 3.866666-1.8 5.133333s-2.666666 2-4.533333 2c-2 0-3.666667-0.8-5-2.466667-1.266667-1.6-1.933333-4.333333-1.933333-8.066666 0-3.8 0.666666-6.6 2-8.266667 1.333333-1.666667 3.133333-2.533333 5.266666-2.533333 1.533334 0 2.8 0.466666 3.733334 1.333333 1.066666 0.866667 1.666666 2.2 1.933333 3.866667m-8.666667 8.733333c0 1.333333 0.266667 2.333333 0.866667 3 0.6 0.733333 1.2 1.066667 1.933333 1.066667 0.733334 0 1.266667-0.266667 1.8-0.866667 0.466667-0.6 0.733334-1.533333 0.733334-2.866667 0-1.333333-0.266667-2.333333-0.733334-3-0.533333-0.6-1.133333-0.933333-1.933333-0.933333-0.733333 0-1.333333 0.333333-1.866667 0.933333-0.533333 0.6-0.8 1.466667-0.8 2.666667" fill="#4d5357" stroke-width=".666667"/>
</svg>