<svg xmlns="http://www.w3.org/2000/svg" version="1.1" viewBox="0 0 64 64">
    <title>Playing Card Six Of Spades</title>
    <path d="M13 62.5c-3 0-5.5-2.5-5.5-5.5V7c0-3 2.5-5.5 5.5-5.5h38c3 0 5.5 2.5 5.5 5.5v50c0 3-2.5 5.5-5.5 5.5H13z" fill="#efeded"/>
    <path d="M51 3c2.2 0 4 1.8 4 4v50c0 2.2-1.8 4-4 4H13c-2.2 0-4-1.8-4-4V7c0-2.2 1.8-4 4-4h38m0-3H13C9.1 0 6 3.1 6 7v50c0 3.9 3.1 7 7 7h38c3.9 0 7-3.1 7-7V7c0-3.9-3.1-7-7-7z" fill="#262626"/>
    <path d="m51.809817 44.516645c0-6.815999-14.2-14.625999-14.2-14.625999s-14.199998 7.81-14.199998 14.625999c0 4.070665 3.408 7.525998 7.526 7.525998 1.987999 0 3.739332-0.757333 5.064665-1.987999l-0.189333 1.562c-0.236667 1.703999-1.419999 3.265999-3.123999 3.549999l-2.177334 0.473333v2.650666h14.2v-2.650666l-2.224667-0.425999c-1.704-0.284-2.887334-1.845999-3.124001-3.55l-0.189333-1.561999c1.325334 1.230666 3.076668 1.987999 5.064668 1.987999 4.165332 0 7.573332-3.502667 7.573332-7.573332" fill="#4d5357" stroke-width=".473333"/>
    <path d="m20.330294 7.1407285c-2.13333 0-3.932293 0.866538-5.265624 2.533203-1.333334 1.6666655-2 4.4656295-2 8.2656255 0 3.733329 0.666927 6.466408 1.933594 8.066406 1.333331 1.666666 3.000002 2.466797 4.999999 2.466797 1.866665 0 3.333205-0.733334 4.533203-2 1.199999-1.266665 1.798828-2.999481 1.798828-5.132813 0-1.999998-0.599089-3.666927-1.732422-4.933593-1.133332-1.266665-2.532814-1.933594-4.132812-1.933594-1.399999 0-2.59987 0.600783-3.533203 1.800782 0.133333-2.399998 0.533073-3.99909 1.066406-4.732422 0.599999-0.733334 1.266407-1.134766 2.066406-1.134766 0.600001 0 1.066798 0.19961 1.466797 0.599609l2.533203-2.5332035c-0.933332-0.866666-2.201042-1.332031-3.734375-1.332031zm-0.332031 10.3320315c0.799999 0 1.400261 0.333594 1.933594 0.933594 0.466667 0.666665 0.732422 1.666668 0.732422 3s-0.265755 2.267188-0.732422 2.867187c-0.533333 0.599999-1.067448 0.867188-1.800781 0.867188-0.733332 0-1.333594-0.333074-1.933594-1.066407-0.6-0.666667-0.867188-1.666668-0.867188-3 0-1.199998 0.267449-2.067969 0.800782-2.667968 0.533333-0.6 1.133856-0.933594 1.867187-0.933594z" fill="#4d5357"/>
</svg>