<svg xmlns="http://www.w3.org/2000/svg" version="1.1" viewBox="0 0 64 64">
    <title>Playing Card Nine Of Spades</title>
    <path d="M13 62.5c-3 0-5.5-2.5-5.5-5.5V7c0-3 2.5-5.5 5.5-5.5h38c3 0 5.5 2.5 5.5 5.5v50c0 3-2.5 5.5-5.5 5.5H13z" fill="#efeded"/>
    <path d="M51 3c2.2 0 4 1.8 4 4v50c0 2.2-1.8 4-4 4H13c-2.2 0-4-1.8-4-4V7c0-2.2 1.8-4 4-4h38m0-3H13C9.1 0 6 3.1 6 7v50c0 3.9 3.1 7 7 7h38c3.9 0 7-3.1 7-7V7c0-3.9-3.1-7-7-7z" fill="#262626"/>
    <path d="m51.809817 44.516645c0-6.815999-14.2-14.625999-14.2-14.625999s-14.199998 7.81-14.199998 14.625999c0 4.070665 3.408 7.525998 7.526 7.525998 1.987999 0 3.739332-0.757333 5.064665-1.987999l-0.189333 1.562c-0.236667 1.703999-1.419999 3.265999-3.123999 3.549999l-2.177334 0.473333v2.650666h14.2v-2.650666l-2.224667-0.425999c-1.704-0.284-2.887334-1.845999-3.124001-3.55l-0.189333-1.561999c1.325334 1.230666 3.076668 1.987999 5.064668 1.987999 4.165332 0 7.573332-3.502667 7.573332-7.573332" fill="#4d5357" stroke-width=".473333"/>
    <path d="m19.498394 7.1073953c-1.866664 0-3.399611 0.6669283-4.599609 1.9335937-1.199999 1.333332-1.800782 2.999481-1.800782 5.132813 0 1.999998 0.599089 3.666929 1.732422 4.933594 1.133333 1.266666 2.468361 1.933594 4.06836 1.933594 1.466665 0 2.666277-0.534377 3.599609-1.734375-0.133333 2.399997-0.533074 4.001042-1.066406 4.734375-0.533334 0.733332-1.200001 1.132812-2 1.132812-0.666667 0-1.133204-0.266276-1.533203-0.599609l-2.601563 2.533203c0.999999 0.866665 2.26745 1.332031 3.800781 1.332031 2.133332 0 3.932294-0.866539 5.265625-2.533203 1.333332-1.666665 2-4.46563 2-8.265625 0-3.73333-0.665235-6.466409-1.865234-8.0664068-1.333332-1.6666651-3.000002-2.4667969-5-2.4667969zm-0.267578 3.3320307c0.799999 0 1.4 0.333074 2 1.066406 0.599999 0.733334 0.867187 1.733336 0.867187 3.000001 0 1.199999-0.267448 2.06797-0.800781 2.667969-0.533332 0.6-1.131902 0.933594-1.865234 0.933594-0.8 0-1.400261-0.333594-1.933594-0.933594-0.466666-0.666666-0.734375-1.666668-0.734375-3 0-1.333333 0.267709-2.267189 0.734375-2.867188 0.466666-0.6 0.999088-0.867188 1.732422-0.867188z" fill="#4d5357"/>
</svg>