<svg xmlns="http://www.w3.org/2000/svg" version="1.1" viewBox="0 0 64 64">
    <title>Playing Card Back</title>
    <path d="M51.3 2H12.7C10.4 2 9 3.7 9 5.8V34l46 24.3V6c0-2.1-1.4-4-3.7-4z" fill="#b70000"/>
    <circle cx="27" cy="21" r="13" fill="#efeded"/>
    <path d="m8.5996094 34v24.199219 3.521484h46.4003906v-3.521484h0.400391c0-13.999986-22.800806-24.199219-46.8007816-24.199219z" fill="#333"/>
    <path d="m13 1.4296875c-3.0565311 0-5.5703125 2.5137817-5.5703125 5.5703125v50c0 3.056531 2.5137815 5.570312 5.5703125 5.570312h38c3.056531 0 5.570312-2.513781 5.570312-5.570312v-50c0-3.0565308-2.513781-5.5703125-5.570312-5.5703125zm0 4.5117187h38c0.603031 0 1.058594 0.4555631 1.058594 1.0585938v50c0 0.603032-0.455562 1.058594-1.058594 1.058594h-38c-0.603032 0-1.058594-0.455562-1.058594-1.058594v-50c0-0.6030307 0.455563-1.0585938 1.058594-1.0585938z" fill="#efeded"/>
    <path d="m51 3.0000001c2.2 0 4 1.8 4 4v49.9999999c0 2.2-1.8 4-4 4h-38c-2.2 0-3.9999995-1.8-3.9999995-4v-49.9999999c0-2.2 1.7999995-4 3.9999995-4h38m0-3h-38c-3.8999995 0-6.9999995 3.1-6.9999995 7v49.9999999c0 3.9 3.1 7 6.9999995 7h38c3.9 0 7-3.1 7-7v-49.9999999c0-3.9-3.1-7-7-7z" fill="#262626"/>
</svg>