<svg xmlns="http://www.w3.org/2000/svg" version="1.1" viewBox="0 0 64 64">
    <title>Playing Card Ten Of Spades</title>
    <path d="M13 62.5c-3 0-5.5-2.5-5.5-5.5V7c0-3 2.5-5.5 5.5-5.5h38c3 0 5.5 2.5 5.5 5.5v50c0 3-2.5 5.5-5.5 5.5H13z" fill="#efeded"/>
    <path d="M13 62.5c-3 0-5.5-2.5-5.5-5.5V7c0-3 2.5-5.5 5.5-5.5h38c3 0 5.5 2.5 5.5 5.5v50c0 3-2.5 5.5-5.5 5.5H13z" fill="#efeded"/>
    <path d="M 20.466797,3 C 17.124164,6.344989 13.526239,9.1822342 9,10.166016 v 14.134765 c 2.406004,4.78633 4.811124,9.574002 7.220703,14.390625 C 34.689822,42.177347 39.43952,18.294791 55,15.978516 V 4.1289062 C 54.811236,3.7534035 54.622364,3.3754852 54.433594,3 Z" fill="#d0d0d0"/>
    <path d="M51 3c2.2 0 4 1.8 4 4v50c0 2.2-1.8 4-4 4H13c-2.2 0-4-1.8-4-4V7c0-2.2 1.8-4 4-4h38m0-3H13C9.1 0 6 3.1 6 7v50c0 3.9 3.1 7 7 7h38c3.9 0 7-3.1 7-7V7c0-3.9-3.1-7-7-7z" fill="#262626"/>
    <path d="m9 29.333984v7.314454l12.263672 24.351562h3.68164l-15.945312-31.666016z" fill="#3e4347" stroke-width="1.20857"/>
    <g transform="matrix(.66666667 0 0 .66666667 4.1566203 -1.544951)" fill="#4d5357">
        <path d="m26 45h-6.1v-23c-2.2 2.1-4.9 3.6-7.9 4.6v-5.5c1.6-0.5 3.3-1.5 5.2-3s3.2-3.2 3.9-5.1h5v32zm15-32c3.3 0 5.8 1.1 7.7 3.2 2.2 2.6 3.3 6.9 3.3 12.8s-1.1 10.2-3.3 12.8c-1.9 2.1-4.4 3.2-7.7 3.2s-6-1.2-8-3.5-3-6.5-3-12.5c0-5.9 1.1-10.1 3.3-12.7 1.9-2.2 4.4-3.3 7.7-3.3m0 5c-0.8 0-1.5 0.2-2.1 0.7s-1.1 1.3-1.4 2.5c-0.4 1.6-0.7 4.2-0.7 7.8 0 3.7 0.2 6.2 0.6 7.6s0.9 2.3 1.5 2.7c0.6 0.5 1.3 0.7 2.1 0.7s1.5-0.2 2.1-0.7 1.1-1.3 1.4-2.5c0.4-1.5 0.7-4.1 0.7-7.8s-0.2-6.2-0.6-7.6-0.9-2.3-1.5-2.8c-0.6-0.4-1.3-0.6-2.1-0.6" fill="#4d5357"/>
    </g>
    <path d="m53.436933 46.143761c0-6.815999-14.2-14.625999-14.2-14.625999s-14.199998 7.81-14.199998 14.625999c0 4.070665 3.408 7.525998 7.526 7.525998 1.987999 0 3.739332-0.757333 5.064665-1.987999l-0.189333 1.562c-0.236667 1.703999-1.419999 3.265999-3.123999 3.549999l-2.177334 0.473333v2.650666h14.2v-2.650666l-2.224667-0.425999c-1.704-0.284-2.887334-1.845999-3.124001-3.55l-0.189333-1.561999c1.325334 1.230666 3.076668 1.987999 5.064668 1.987999 4.165332 0 7.573332-3.502667 7.573332-7.573332" fill="#4d5357" stroke-width=".473333"/>
</svg>