<svg xmlns="http://www.w3.org/2000/svg" version="1.1" viewBox="0 0 64 64">
    <title>Playing Card Knight Of Spades: light skin tone</title>
    <path d="M13 62.5c-3 0-5.5-2.5-5.5-5.5V7c0-3 2.5-5.5 5.5-5.5h38c3 0 5.5 2.5 5.5 5.5v50c0 3-2.5 5.5-5.5 5.5H13z" fill="#efeded"/>
    <path d="M51 3c2.2 0 4 1.8 4 4v50c0 2.2-1.8 4-4 4H13c-2.2 0-4-1.8-4-4V7c0-2.2 1.8-4 4-4h38m0-3H13C9.1 0 6 3.1 6 7v50c0 3.9 3.1 7 7 7h38c3.9 0 7-3.1 7-7V7c0-3.9-3.1-7-7-7z" fill="#262626"/>
    <g transform="matrix(.66666667 0 0 .66666667 9.0961404 2.9453346)">
        <path d="m38.9 15 2.2-1-0.6 7-4.5-0.4z" fill="#ffe1bd"/>
        <path d="m35.6 17.9c1.3 0.9 0.3 2.7 0.3 2.7 1.9 0.2 3.5-3.4 3.7-5.6l-4 2.9" fill="#e6b796"/>
        <path d="m41.1 5.9-8.4 2.1c-1.2 1.8-0.6 2.8-0.7 3.7 0 0.4-0.8 1-1.2 1.3-0.9 0.7 0.5 1.4 1 1.4 0.3 0.8-0.8 1.2 1.7 1 0 0-2.6 0.8-0.8 1.5-0.3 1-0.6 2.8 4.6 1.3 1.6-0.4 2.3-3 2.3-3l2.6-0.2-1.1-9.1" fill="#ffe1bd"/>
        <path d="m35.4 4.7c5.5-1.3 8.1 1.7 8.5 3 1.1 3.4-0.4 6.9-3.1 9.4 0 0-1.1-0.6-1.2-2.1 0 0 1.3 0.7 2.1-2 0.7-2.3-1.7-3.8-3.2-0.6h-0.3c-0.6-1.7 0.9-3.6-0.9-4.4-1.6-0.7-4.7 0.5-4.7 0.5-0.5-1.1 0.6-3.2 2.8-3.8" fill="#594640"/>
        <path d="m34.1 11.9c0 0.5-0.4 0.9-0.7 0.9-0.4 0-0.4-0.5-0.4-1s0.2-0.9 0.5-0.9c0.4 0 0.6 0.5 0.6 1" fill="#91774f"/>
        <path d="m39.1 13c0.1-1 1-1.8 1.8-1.7 0 0-1.5 1-1.3 2.7 0-0.1-0.5-0.4-0.5-1" fill="#e6b796"/>
        <path d="m34.3 15.2s-1.1 0.7-1.4 0.8c-0.8 0.3-0.9 0.1-0.4-0.2l1-0.5 0.8-0.1" fill="#91774f"/>
        <g fill="#3e4347">
            <path d="m39.6 17h-1l-1-6.7 1-0.1z"/>
            <path d="m39.4 17.1-0.8-0.5 3.5-3.4 0.8 0.5z"/>
            <path d="m37.703 19.427 0.9-3.59 1.26 0.317-0.899 3.589z"/>
        </g>
        <path d="m44.5 14.7c-0.6 1.2-4-2.5-6.4-3.8-2.6-1.4-7.2-2.2-6.7-3.2 1.9-3.5 6.3-4.8 10-2.9 3.6 1.9 5 6.4 3.1 9.9" fill="#f15744"/>
        <path d="m36.1 21-4.8 3.2-1.2-0.2 0.1 1.2 2.5 1 5-3.8z" fill="#3b946f"/>
        <path d="m43.1 29.2s-9 1.9-9.7 2.2-1.2 0.6-2.1 1.7l2 2.4s9.3-4.8 9.8-6.3" fill="#94989b"/>
        <g fill="#89664c">
            <path d="m59.3 35.3c2.1-4.3-8.5-5.2-12 0.9l0.1 1.3s8.3-3.4 6.8 1.6c-1.6 5.7 7.7 9.2 7.7 9.2s-5.6-6.9-2.6-13m-39.3-29.4s0-1.7 1.5-3.9c0 0 1.2 2.1 1.1 5.5z"/>
        </g>
        <path d="m5.9 48.4 2.4-3.7s-0.8-0.4-1.5-1c-0.6 0.6-1.6 1.7-2.5 3.1 0.8 1.1 1.6 1.6 1.6 1.6" fill="#574137"/>
        <path d="m20.6 45.9c-0.9 0.2-1.9 0.4-2.7 0.7l-2.7-2.4s4.9-3 13.1-2.6c0 0-6.3-6.5-10.6-4.1 0 0-5.9 3.4-7.6 4.1-1.8 0.7-1.1 2.4-0.6 2.8 0.5 0.5 8.3 5.1 8.3 5.1s1.6-0.4 3.2-0.3c0-1.5-0.2-2.7-0.4-3.3" fill="#89664c"/>
        <path d="m22.2 45.6s-0.7 0.1-1.6 0.3c0.2 0.6 0.5 1.8 0.5 3.3 0.8 0.1 1.6 0.2 2.3 0.7-0.1 0-0.1-2.8-1.2-4.3" fill="#574137"/>
        <path d="m44 40.7-3.2 4.1s4.1 3.3 8 2.9c0 0 2 3.2 7.2 6.6 0.3-0.7 0.6-1.7 0.7-3.2-2-1-4.9-3.5-6.3-6.4 0 0-3.7-1.4-6.4-4" fill="#89664c"/>
        <path d="m56 54.3c0.7 0.5 1.4 0.9 2.2 1.2 0 0 0.5-1.8 0.3-3.8 0 0-0.7-0.1-1.8-0.6-0.1 1.5-0.4 2.5-0.7 3.2" fill="#574137"/>
        <g fill="#b7805c">
            <path d="m45.3 32.8c-8.9 2.3-15.6-1.4-15-6 2.5-18.6-8.5-20.8-8.5-20.8-0.7-2.8-2.3-4-2.3-4-1.1 2-1.2 4.1-1.2 4.1-1.8 2.3-10.1 8.5-11 9.4-1 0.9 1.1 4.3 1.1 4.3 0.7 0.2 1.3-0.8 2.7 0 0.4 0.2-1.3 1-0.9 1.3 0.6 0.6 2.5-1.1 4.3-1.2 6.9-0.3 6.1-3.2 6.1-3.2 1.5 2.7-1.4 5.4-3.3 6.7-4.3 3.1-4.9 10.4-4.9 10.4-3 0.6-7.6-1.1-7.6-1.1-5 5.1-2 11.9-0.4 14.1 1-1.4 1.9-2.5 2.5-3.1-3.2-3-0.6-6.7-0.6-6.7 5.5 3.5 9.6 2.9 14.2 3.9 4.7 1 8.9 4.3 13.2 5.8 16.4 5.9 20-16.1 11.6-13.9"/>
            <path d="m38.7 47.2c3.8 6.8 9.9 5.2 9.9 5.2 2 4.5 6.4 6.4 8.2 8.2 1-0.8 1.5-2.3 1.6-3.2-6.2-2.7-7.7-8.5-7.7-8.5-5.1 0.3-4.4-6-4.4-6l-7.6 4.3"/>
        </g>
        <g fill="#574137">
            <path d="m58.6 62c1.5-0.4 1.2-3.8 1.2-3.8-0.5-0.2-0.9-0.5-1.3-0.7-0.2 0.9-0.6 2.4-1.6 3.2 0.9 0.9 1.7 1.3 1.7 1.3m-27.5-22s-0.7 2.2-3.3 4.1c0 0 1.1 0.5 2 1.1 0 0 1.2-0.5 3.3-4l-2-1.2"/>
        </g>
        <path d="m30.3 27.9s1 3.3-1.2 4.7c-3.1 1.9 0 9.5 7.5 9.7 5.4 0.2 3.5-6.8 6.3-7.7 0 0-8.2-1.9-12.6-6.7" fill="#89664c"/>
        <g fill="#333">
            <path d="m10.8 16.1-0.2-0.7c7.4-2.3 9.5-3.7 9.5-3.7l0.4 0.6s-2.2 1.5-9.7 3.8"/>
            <path d="m20.8 13.1c-0.2-1.5-0.6-2.8-1.1-4.1s-1.2-2.3-1.4-2.9c0 0-0.3 0.4-0.5 0.6 0.2 0.6 0.9 1.5 1.3 2.6 0.7 1.8 1.2 4.9 1.1 8.9 0.2 0 0.7-0.3 0.8-0.3 0-1.7 0.1-3.2-0.2-4.8m-10.2 6.5c0.2 0 0.6 0.3 0.6 0.3 0.3-3.3-0.5-6.1-0.9-6.8l-0.6 0.4c0.1 0.2 0.3 0.5 0.5 1.1 0.3 0.9 0.6 3 0.4 5"/>
        </g>
        <g fill="#89664c">
            <path d="m15.3 11.1s0.7 0.8 1.7 0.4c1-0.5 1.5-2.5 1.5-2.5s-1.7 0.3-3.2 2.1m-7 4.4s1.3 0.4 0.2 1.6c-1.2 1.3-0.5-1.1-0.2-1.6"/>
        </g>
        <path d="m24.9 23.7c-2.8-1.4-5.4-3.8-7.2-5.6-1.9-2-3.1-3.6-3.1-3.6l-0.5 0.4s1.3 1.7 3.2 3.7c1.1 1.2 2.2 2.2 3.3 3.1 1.3 1 2.5 1.9 3.7 2.5 0.3-0.2 0.6-0.5 0.6-0.5" fill="#333"/>
        <path d="m32.3 25.2s-5.8-1.8-6.5-1.9c0 0-0.1 0.4-0.9 1l7.4 4.3 5.7-3.4 5.1 4s2.6 1.4 6.5 0.2c0 0-2.5-8.1-9-10.7 0 0-2 1.6-4.5 1.6l-3.8 4.9" fill="#47b892"/>
        <path d="m43.1 29.2s-7.4 1.9-9.7 4c-1.6 1.4-1 5-1 6 0 0 1.9 1.2 3.6 0.5 0 0 0.5-0.9 0.3-4 0 0 6.1 0.6 9.1-0.2 2.9-0.8 4.4-2.4 4.3-6.2l-6.6-0.1" fill="#d0d0d0"/>
        <path d="m30.6 45s-4.2 0.2-4.6 0.6c-0.4 0.5 0.2 1.1 0.2 1.1s2.8 1.8 6.4 2.5l3.7-9.7s-1.3 0.7-4-0.4l-1.7 5.9" fill="#333"/>
        <path d="m25.6 23.9 0.5-1c0.2-0.3 0-0.8-0.3-0.9l-0.5-0.2c-0.2-0.1-0.5-0.1-0.7 0.1-0.6-0.3-1.6-0.4-2.1 0.7-0.1 0.2-0.6 1.2 0.6 1.8 1.8 0.9 1.8 0.9 2.5-0.5" fill="#ffe1bd"/>
        <path d="m39.5 11.8s-9.4-1.6-10.5-2.4c-1.2-0.8 1.6-1.6 2.4-1.7s7.9 3.2 8.1 4.1" fill="#c9150d"/>
    </g>
    <path d="m52.385091 45.091919c0-6.815999-14.2-14.625999-14.2-14.625999s-14.199998 7.81-14.199998 14.625999c0 4.070665 3.408 7.525998 7.526 7.525998 1.987999 0 3.739332-0.757333 5.064665-1.987999l-0.189333 1.562c-0.236667 1.703999-1.419999 3.265999-3.123999 3.549999l-2.177334 0.473333v2.650666h14.2v-2.650666l-2.224667-0.425999c-1.704-0.284-2.887334-1.845999-3.124001-3.55l-0.189333-1.561999c1.325334 1.230666 3.076668 1.987999 5.064668 1.987999 4.165332 0 7.573332-3.502667 7.573332-7.573332" fill="#4d5357" stroke-width=".473333"/>
</svg>