<svg xmlns="http://www.w3.org/2000/svg" version="1.1" viewBox="0 0 64 64">
    <title>Playing Card Red Joker: medium-dark skin tone</title>
    <path d="M13 62.5c-3 0-5.5-2.5-5.5-5.5V7c0-3 2.5-5.5 5.5-5.5h38c3 0 5.5 2.5 5.5 5.5v50c0 3-2.5 5.5-5.5 5.5H13z" fill="#efeded"/>
    <path d="M51 3c2.2 0 4 1.8 4 4v50c0 2.2-1.8 4-4 4H13c-2.2 0-4-1.8-4-4V7c0-2.2 1.8-4 4-4h38m0-3H13C9.1 0 6 3.1 6 7v50c0 3.9 3.1 7 7 7h38c3.9 0 7-3.1 7-7V7c0-3.9-3.1-7-7-7z" fill="#262626"/>
    <path d="m43.6 55.2-7.3-12.8c-1.2 1.3-2.7 4.2-4.4 4.2s-3.2-2.9-4.3-4.2l-7.3 12.8 8.7-7.3-0.9 7.3 3.9-7.7 3.9 7.7-0.8-7.3 8.5 7.3" fill="#ff5a79"/>
    <path d="M39.3 26.9H24.7s-3 5.8 2.6 15.3c1.8 3 3.3 4.5 4.8 4.5 1.4 0 3-1.5 4.8-4.5 5.5-9.6 2.4-15.3 2.4-15.3" fill="#b47d56"/>
    <path d="m46.4 14.9c-7.5-4-12.6 5.1-14.4 9.2-1.8-4.1-6.9-13.2-14.4-9.2-2.4 1.3-4.7 3.8-4.7 3.8s10.5-1.3 11.2 10c2.2-1.4 4.8-4.1 7.7-4.1 3 0 5.9 2.6 8.1 4.1 0.7-11.5 11.2-10 11.2-10s-2.2-2.5-4.7-3.8" fill="#ff5a79"/>
    <path d="m37.6 33.5s0-0.1-0.1-0.1c0-0.1-0.1-0.1-0.1-0.2l-0.4-0.4c-0.1 0-0.1-0.1-0.2-0.1s-0.1-0.1-0.2-0.1c-0.1-0.1-0.3-0.1-0.5-0.2h-0.5c-0.2 0-0.3 0-0.5 0.1-0.2 0-0.3 0.1-0.4 0.2s-0.3 0.1-0.4 0.2-0.2 0.2-0.3 0.2c-0.2 0.2-0.2 0.3-0.3 0.4 0 0.1 0 0.1-0.1 0.1s0.1 0 0.2-0.1 0.3-0.1 0.5-0.2c0.1 0 0.2-0.1 0.3-0.1-0.1 0.1-0.1 0.3-0.1 0.4 0 0.5 0.5 1 1.1 1s1.1-0.4 1.1-1c0-0.2 0-0.3-0.1-0.4 0.1 0 0.1 0 0.2 0.1 0 0 0.1 0 0.1 0.1 0.1 0 0.2 0.1 0.3 0.1s0.2 0.1 0.2 0.1c0.1-0.1 0.1-0.1 0.2-0.1" fill="#333"/>
    <path d="m30.3 33.4c0-0.1-0.1-0.1-0.1-0.2 0 0 0-0.1-0.1-0.1l-0.3-0.3c-0.1 0-0.1-0.1-0.2-0.1s-0.1-0.1-0.2-0.1c-0.1-0.1-0.3-0.1-0.5-0.2h-0.5c-0.2 0-0.3 0-0.5 0.1-0.2 0-0.3 0.1-0.4 0.2s-0.3 0.1-0.4 0.2-0.2 0.2-0.3 0.2c-0.2 0.2-0.2 0.3-0.3 0.4 0 0.1 0 0.1-0.1 0.1s0.1 0 0.2-0.1 0.3-0.1 0.5-0.2c0.1 0 0.2-0.1 0.3-0.1-0.1 0.1-0.1 0.3-0.1 0.4 0 0.5 0.5 1 1.1 1s1.1-0.4 1.1-1c0-0.2 0-0.3-0.1-0.4 0.1 0 0.1 0 0.1 0.1 0.1 0 0.1 0 0.1 0.1 0.1 0 0.2 0.1 0.3 0.1s0.2 0.1 0.2 0.1c0.1 0 0.1 0 0.1 0.1 0.1-0.2 0.1-0.2 0.1-0.3" fill="#333"/>
    <path d="m35.6 39.6s-0.1 0.1-0.3 0.2c-0.1 0.1-0.2 0.2-0.4 0.2-0.1 0.1-0.3 0.2-0.5 0.3-0.3 0.2-0.7 0.4-1.2 0.5-0.2 0.1-0.4 0.1-0.6 0.1h-0.7c-0.5 0-0.9-0.1-1.3-0.2s-0.8-0.3-1.1-0.5-0.6-0.4-0.8-0.5-0.3-0.2-0.3-0.2v0.4c0.1 0.2 0.2 0.6 0.4 1 0.1 0.2 0.3 0.4 0.5 0.6s0.4 0.4 0.7 0.5 0.6 0.3 0.9 0.3c0.3 0.1 0.7 0.1 1 0.1h0.4c0.2 0 0.3 0 0.5-0.1 0.3-0.1 0.6-0.2 0.9-0.4s0.5-0.3 0.7-0.5 0.4-0.4 0.5-0.6 0.2-0.4 0.3-0.5c0.1-0.2 0.1-0.3 0.1-0.4 0.3-0.1 0.3-0.3 0.3-0.3" fill="#333"/>
    <path d="M39.3 26.5c-.5-1.8-2.5-9.3-7.3-15.8v-.1h-.1v.1c-5.4 7.5-7.4 16.2-7.4 16.2-.4 1-.7 2.2-.7 3.6 0 0 1.2-3.6 4.4-3.6s3.8 3.6 3.8 3.6.5-3.6 3.8-3.6 4.4 3.6 4.4 3.6c-.1-1.6-.5-2.9-.9-4" fill="#b70000"/>
    <ellipse cx="32" cy="10.6" rx="1.9" ry="1.7" fill="#ff5a79"/>
    <g fill="#b70000">
        <ellipse cx="12.9" cy="18.7" rx="1.9" ry="1.7"/>
        <ellipse cx="51.1" cy="18.7" rx="1.9" ry="1.7"/>
    </g>
</svg>