<svg xmlns="http://www.w3.org/2000/svg" version="1.1" viewBox="0 0 64 64">
    <title>Playing Card Four Of Hearts</title>
    <path d="M13 62.5c-3 0-5.5-2.5-5.5-5.5V7c0-3 2.5-5.5 5.5-5.5h38c3 0 5.5 2.5 5.5 5.5v50c0 3-2.5 5.5-5.5 5.5H13z" fill="#efeded"/>
    <path d="M51 3c2.2 0 4 1.8 4 4v50c0 2.2-1.8 4-4 4H13c-2.2 0-4-1.8-4-4V7c0-2.2 1.8-4 4-4h38m0-3H13C9.1 0 6 3.1 6 7v50c0 3.9 3.1 7 7 7h38c3.9 0 7-3.1 7-7V7c0-3.9-3.1-7-7-7z" fill="#262626"/>
    <path d="m22.197482 28.47341v-4.266666h-9.133333v-3.533334l9.666666-13.5333328h3.600001v13.4666668h2.733333v3.6h-2.733333v4.266666zm0-7.866666v-7.266667l-5.133333 7.266667z" fill="#ff5a79" stroke-width=".666667"/>
    <path d="m44.282408 29.893644c-2.98137 0-5.489507 1.70364-6.672591 4.164453-1.183083-2.460813-3.69122-4.164453-6.67259-4.164453-4.11713 0-7.52441 3.501927-7.52441 7.52441 0 6.861883 14.197 20.86959 14.197 20.86959s14.197002-14.007707 14.197002-20.86959c0-4.022483-3.40728-7.52441-7.524411-7.52441z" fill="#ff5a79" stroke-width=".473233"/>
</svg>