<svg xmlns="http://www.w3.org/2000/svg" version="1.1" viewBox="0 0 64 64">
    <title>Playing Card Nine Of Hearts</title>
    <path d="M13 62.5c-3 0-5.5-2.5-5.5-5.5V7c0-3 2.5-5.5 5.5-5.5h38c3 0 5.5 2.5 5.5 5.5v50c0 3-2.5 5.5-5.5 5.5H13z" fill="#efeded"/>
    <path d="M51 3c2.2 0 4 1.8 4 4v50c0 2.2-1.8 4-4 4H13c-2.2 0-4-1.8-4-4V7c0-2.2 1.8-4 4-4h38m0-3H13C9.1 0 6 3.1 6 7v50c0 3.9 3.1 7 7 7h38c3.9 0 7-3.1 7-7V7c0-3.9-3.1-7-7-7z" fill="#262626"/>
    <path d="m13.430816 23.240077 3.733333-0.4c0.06667 0.8 0.333333 1.4 0.733333 1.733333 0.4 0.333334 0.866667 0.6 1.533334 0.6 0.8 0 1.466666-0.4 2-1.133333 0.533333-0.733333 0.933333-2.333333 1.066666-4.733333-0.933333 1.2-2.133333 1.733333-3.6 1.733333-1.6 0-2.933333-0.666666-4.066666-1.933333-1.133334-1.266666-1.733334-2.933333-1.733334-4.933333 0-2.133333 0.6-3.8 1.8-5.1333333 1.2-1.2666667 2.733334-1.9333334 4.6-1.9333334 2 0 3.666667 0.8 5 2.4666667 1.2 1.6 1.866667 4.333333 1.866667 8.066667 0 3.799999-0.666667 6.599999-2 8.266666-1.333333 1.666666-3.133333 2.533333-5.266667 2.533333-1.533333 0-2.8-0.466667-3.8-1.333333-1-0.866667-1.6-2.133334-1.866666-3.866667m8.666666-8.733333c0-1.266666-0.266666-2.266666-0.866666-3-0.6-0.733333-1.2-1.066666-2-1.066666-0.733334 0-1.266667 0.266666-1.733334 0.866666-0.466666 0.6-0.733333 1.533334-0.733333 2.866667s0.266667 2.333333 0.733333 3c0.533334 0.6 1.133334 0.933333 1.933334 0.933333 0.733333 0 1.333333-0.333333 1.866666-0.933333 0.533334-0.6 0.8-1.466667 0.8-2.666667" fill="#ff5a79" stroke-width=".666667"/>
    <path d="m44.282408 29.893644c-2.98137 0-5.489507 1.70364-6.672591 4.164453-1.183083-2.460813-3.69122-4.164453-6.67259-4.164453-4.11713 0-7.52441 3.501927-7.52441 7.52441 0 6.861883 14.197 20.86959 14.197 20.86959s14.197001-14.007707 14.197001-20.86959c0-4.022483-3.40728-7.52441-7.52441-7.52441z" fill="#ff5a79" stroke-width=".473233"/>
</svg>