<svg xmlns="http://www.w3.org/2000/svg" version="1.1" viewBox="0 0 64 64">
    <title>Playing Card Nine Of Hearts</title>
    <path d="M13 62.5c-3 0-5.5-2.5-5.5-5.5V7c0-3 2.5-5.5 5.5-5.5h38c3 0 5.5 2.5 5.5 5.5v50c0 3-2.5 5.5-5.5 5.5H13z" fill="#efeded"/>
    <path d="M51 3c2.2 0 4 1.8 4 4v50c0 2.2-1.8 4-4 4H13c-2.2 0-4-1.8-4-4V7c0-2.2 1.8-4 4-4h38m0-3H13C9.1 0 6 3.1 6 7v50c0 3.9 3.1 7 7 7h38c3.9 0 7-3.1 7-7V7c0-3.9-3.1-7-7-7z" fill="#262626"/>
    <path d="m19.498047 7.1074219c-1.866664 0-3.399611 0.6669283-4.599609 1.9335937-1.199999 1.3333324-1.800782 2.9994814-1.800782 5.1328124 0 1.999998 0.599089 3.666929 1.732422 4.933594 1.133332 1.266666 2.468361 1.933594 4.06836 1.933594 1.466665 0 2.666277-0.534377 3.599609-1.734375-0.133333 2.399997-0.533074 4.001042-1.066406 4.734375-0.533334 0.733332-1.200001 1.132812-2 1.132812-0.666667 0-1.133204-0.266276-1.533203-0.599609l-2.601563 2.533203c0.999999 0.866665 2.26745 1.332031 3.800781 1.332031 2.133332 0 3.932294-0.866539 5.265625-2.533203 1.333332-1.666665 2-4.46563 2-8.265625 0-3.73333-0.665235-6.466408-1.865234-8.0664062-1.333332-1.6666651-3.000002-2.4667969-5-2.4667969zm-0.267578 3.3320311c0.799999 0 1.4 0.333074 2 1.066406 0.599999 0.733334 0.867187 1.733336 0.867187 3 0 1.199999-0.267448 2.06797-0.800781 2.667969-0.533332 0.6-1.131902 0.933594-1.865234 0.933594-0.8 0-1.400261-0.333594-1.933594-0.933594-0.466666-0.666666-0.734375-1.666668-0.734375-3s0.267709-2.267188 0.734375-2.867187c0.466666-0.6 0.999088-0.867188 1.732422-0.867188z" fill="#ff5a79"/>
    <path d="m44.282408 29.893644c-2.98137 0-5.489507 1.70364-6.672591 4.164453-1.183083-2.460813-3.69122-4.164453-6.67259-4.164453-4.11713 0-7.52441 3.501927-7.52441 7.52441 0 6.861883 14.197 20.86959 14.197 20.86959s14.197001-14.007707 14.197001-20.86959c0-4.022483-3.40728-7.52441-7.52441-7.52441z" fill="#ff5a79" stroke-width=".473233"/>
</svg>