<svg xmlns="http://www.w3.org/2000/svg" version="1.1" viewBox="0 0 64 64">
    <title>Playing Card Ten Of Hearts</title>
    <path d="M13 62.5c-3 0-5.5-2.5-5.5-5.5V7c0-3 2.5-5.5 5.5-5.5h38c3 0 5.5 2.5 5.5 5.5v50c0 3-2.5 5.5-5.5 5.5H13z" fill="#efeded"/>
    <path d="M13 62.5c-3 0-5.5-2.5-5.5-5.5V7c0-3 2.5-5.5 5.5-5.5h38c3 0 5.5 2.5 5.5 5.5v50c0 3-2.5 5.5-5.5 5.5H13z" fill="#efeded"/>
    <path d="M 20.466797,3 C 17.124164,6.344989 13.526239,9.1822342 9,10.166016 v 14.134765 c 2.406004,4.78633 4.811124,9.574002 7.220703,14.390625 C 34.689822,42.177347 39.43952,18.294791 55,15.978516 V 4.1289062 C 54.811236,3.7534035 54.622364,3.3754852 54.433594,3 Z" fill="#d0d0d0"/>
    <path d="M51 3c2.2 0 4 1.8 4 4v50c0 2.2-1.8 4-4 4H13c-2.2 0-4-1.8-4-4V7c0-2.2 1.8-4 4-4h38m0-3H13C9.1 0 6 3.1 6 7v50c0 3.9 3.1 7 7 7h38c3.9 0 7-3.1 7-7V7c0-3.9-3.1-7-7-7z" fill="#262626"/>
    <path d="m9 29.333984v7.314454l12.263672 24.351562h3.68164l-15.945312-31.666016z" fill="#3e4347" stroke-width="1.20857"/>
    <path transform="matrix(.66666667 0 0 .66666667 4.1566201 -1.5449511)" d="m21.099609 10.628906a2.3718984 2.3718984 0 0 0-2.224609 1.550782c-0.52922 1.436453-1.515318 2.772372-3.144531 4.058593-1.762597 1.391524-3.240504 2.223595-4.4375 2.597657a2.3718984 2.3718984 0 0 0-1.6640628 2.263671v5.5a2.3718984 2.3718984 0 0 0 3.1210938 2.25c1.672359-0.557453 3.273398-1.27747 4.779297-2.154297v18.304688a2.3718984 2.3718984 0 0 0 2.371094 2.371094h6.199218a2.3718984 2.3718984 0 0 0 2.371094-2.371094v-7.615234c0.562782 2.266115 1.433801 4.169477 2.740235 5.671875 2.425493 2.789317 5.914114 4.314453 9.789062 4.314453 3.826662 0 7.139086-1.416577 9.457031-3.978516a2.3718984 2.3718984 0 0 0 0.05273-0.06055c2.781064-3.286703 3.861333-8.137036 3.861333-14.332028s-1.080269-11.045325-3.861328-14.332031a2.3718984 2.3718984 0 0 0-0.05273-0.06055c-2.31795-2.561936-5.630374-3.978513-9.457036-3.978513-3.82741 0-7.177486 1.438652-9.494141 4.121094a2.3718984 2.3718984 0 0 0-0.01563 0.01953c-1.434125 1.694876-2.402852 3.81564-3.019531 6.3125v-8.08203a2.3718984 2.3718984 0 0 0-2.371089-2.371094zm19.900391 9.742188c0.327579 0 0.471871 0.07569 0.632812 0.162109 0.06472 0.07372 0.377739 0.442202 0.685547 1.519531 0.252401 0.883402 0.509766 3.332565 0.509766 6.947266 0 3.572136-0.319127 6.0644-0.619141 7.189453a2.3718984 2.3718984 0 0 0-0.0098 0.03516c-0.209653 0.838612-0.474778 1.135232-0.617188 1.253907-0.141477 0.117897-0.175764 0.15039-0.582031 0.15039s-0.440554-0.03249-0.582031-0.15039a2.3718984 2.3718984 0 0 0-0.201137-0.150395c0.261953 0.174636-0.204722-0.224341-0.535156-1.380859-0.252401-0.883402-0.509766-3.332565-0.509766-6.947266 0-3.468584 0.308077-5.941293 0.628906-7.224609 0.209653-0.838612 0.474778-1.135232 0.617188-1.253907 0.141477-0.117897 0.175764-0.15039 0.582031-0.15039z" fill="#efeded"/>
    <path d="m21.489954 28.455049h-4.066667v-15.333333c-1.466667 1.4-3.266667 2.4-5.266667 3.066666v-3.666666c1.066667-0.333334 2.2-1 3.466667-2 1.266667-1.0000003 2.133333-2.1333336 2.6-3.4000003h3.333333v21.3333333zm10-21.3333333c2.2 0 3.866666 0.7333333 5.133333 2.1333334 1.466667 1.7333329 2.2 4.5999999 2.2 8.5333329 0 3.933334-0.733333 6.8-2.2 8.533334-1.266667 1.4-2.933333 2.133333-5.133333 2.133333s-4-0.8-5.333334-2.333333c-1.333333-1.533334-2-4.333334-2-8.333334 0-3.933333 0.733334-6.733333 2.2-8.4666663 1.266667-1.4666667 2.933334-2.2 5.133334-2.2m0 3.3333333c-0.533334 0-1 0.133333-1.4 0.466667-0.4 0.333333-0.733334 0.866666-0.933334 1.666666-0.266666 1.066667-0.466666 2.8-0.466666 5.2 0 2.466667 0.133333 4.133334 0.4 5.066667 0.266666 0.933333 0.6 1.533333 1 1.8 0.4 0.333333 0.866666 0.466667 1.4 0.466667 0.533333 0 1-0.133334 1.4-0.466667s0.733333-0.866667 0.933333-1.666667c0.266667-1 0.466667-2.733333 0.466667-5.2 0-2.466666-0.133334-4.133333-0.4-5.066666-0.266667-0.933334-0.6-1.533334-1-1.866667-0.4-0.266667-0.866667-0.4-1.4-0.4" fill="#ff5a79" stroke-width=".666667"/>
    <path d="m32.564453 30.009766c-4.974286 0-9.037108 4.158578-9.037109 9.035156 0 2.236869 1.03029 4.532785 2.423828 6.917969 1.393538 2.385183 3.20836 4.827496 5.013672 7.044921 3.610623 4.434852 7.208984 7.982422 7.208984 7.982422a1.512177 1.512177 0 0 0 2.125 0s3.598361-3.54757 7.208984-7.982422c1.805312-2.217425 3.620135-4.659738 5.013672-7.044921 1.393538-2.385184 2.423828-4.6811 2.423828-6.917969 0-4.876089-4.06087-9.035156-9.035156-9.035156-2.664935 0-5.046766 1.152613-6.673828 2.978515-1.626472-1.825817-4.006943-2.978515-6.671875-2.978515z" fill="#efeded"/>
    <path d="m45.909524 31.52076c-2.98137 0-5.489507 1.70364-6.672591 4.164453-1.183083-2.460813-3.69122-4.164453-6.67259-4.164453-4.11713 0-7.52441 3.501927-7.52441 7.52441 0 6.861883 14.197 20.86959 14.197 20.86959s14.197001-14.007707 14.197001-20.86959c0-4.022483-3.40728-7.52441-7.52441-7.52441z" fill="#ff5a79" stroke-width=".473233"/>
</svg>