<svg xmlns="http://www.w3.org/2000/svg" version="1.1" viewBox="0 0 64 64">
    <title>Playing Card Six Of Hearts</title>
    <path d="M13 62.5c-3 0-5.5-2.5-5.5-5.5V7c0-3 2.5-5.5 5.5-5.5h38c3 0 5.5 2.5 5.5 5.5v50c0 3-2.5 5.5-5.5 5.5H13z" fill="#efeded"/>
    <path d="M51 3c2.2 0 4 1.8 4 4v50c0 2.2-1.8 4-4 4H13c-2.2 0-4-1.8-4-4V7c0-2.2 1.8-4 4-4h38m0-3H13C9.1 0 6 3.1 6 7v50c0 3.9 3.1 7 7 7h38c3.9 0 7-3.1 7-7V7c0-3.9-3.1-7-7-7z" fill="#262626"/>
    <path d="m20.330078 7.140625c-2.133331 0-3.932293 0.8665378-5.265625 2.5332031-1.333333 1.6666649-2 4.4656289-2 8.2656249 0 3.733329 0.666928 6.466408 1.933594 8.066406 1.333332 1.666666 3.000002 2.466797 5 2.466797 1.866665 0 3.333204-0.733334 4.533203-2 1.199999-1.266665 1.798828-2.999481 1.798828-5.132812 0-1.999998-0.59909-3.666928-1.732422-4.933594-1.133332-1.266665-2.532814-1.933594-4.132812-1.933594-1.399999 0-2.59987 0.600783-3.533203 1.800782 0.133333-2.399998 0.533073-3.99909 1.066406-4.732422 0.599999-0.733334 1.266407-1.134766 2.066406-1.134766 0.6 0 1.066797 0.19961 1.466797 0.599609l2.533203-2.5332028c-0.933333-0.8666661-2.201042-1.3320312-3.734375-1.3320312zm-0.332031 10.332031c0.799999 0 1.400261 0.333595 1.933594 0.933594 0.466666 0.666666 0.732421 1.666668 0.732421 3 0 1.333333-0.265755 2.267188-0.732421 2.867188-0.533333 0.599999-1.067448 0.867187-1.800782 0.867187-0.733332 0-1.333594-0.333074-1.933593-1.066406-0.6-0.666667-0.867188-1.666669-0.867188-3 0-1.199999 0.267449-2.06797 0.800781-2.667969 0.533334-0.599999 1.133856-0.933594 1.867188-0.933594z" fill="#ff5a79"/>
    <path d="m44.282409 29.893644c-2.981369 0-5.489506 1.70364-6.67259 4.164453-1.183084-2.460813-3.69122-4.164453-6.67259-4.164453-4.11713 0-7.52441 3.501927-7.52441 7.52441 0 6.861883 14.197 20.86959 14.197 20.86959s14.197001-14.007707 14.197001-20.86959c0-4.022483-3.40728-7.52441-7.524411-7.52441z" fill="#ff5a79" stroke-width=".473233"/>
</svg>