<svg xmlns="http://www.w3.org/2000/svg" version="1.1" viewBox="0 0 64 64">
    <title>Playing Card Four Of Diamonds</title>
    <path d="M13 62.5c-3 0-5.5-2.5-5.5-5.5V7c0-3 2.5-5.5 5.5-5.5h38c3 0 5.5 2.5 5.5 5.5v50c0 3-2.5 5.5-5.5 5.5H13z" fill="#efeded"/>
    <path d="M51 3c2.2 0 4 1.8 4 4v50c0 2.2-1.8 4-4 4H13c-2.2 0-4-1.8-4-4V7c0-2.2 1.8-4 4-4h38m0-3H13C9.1 0 6 3.1 6 7v50c0 3.9 3.1 7 7 7h38c3.9 0 7-3.1 7-7V7c0-3.9-3.1-7-7-7z" fill="#262626"/>
    <path d="m22.197482 28.47341v-4.266666h-9.133333v-3.533334l9.666666-13.5333328h3.600001v13.4666668h2.733333v3.6h-2.733333v4.266666zm0-7.866666v-7.266667l-5.133333 7.266667z" fill="#ff5a79" stroke-width=".666667"/>
    <path d="m23.412584 44.090407 14.197705-14.196763 14.196764 14.196763-14.196764 14.197237z" fill="#ff5a79" stroke-width=".473541"/>
</svg>