<svg xmlns="http://www.w3.org/2000/svg" version="1.1" viewBox="0 0 64 64">
    <title>Playing Card Three Of Diamonds</title>
    <path d="M13 62.5c-3 0-5.5-2.5-5.5-5.5V7c0-3 2.5-5.5 5.5-5.5h38c3 0 5.5 2.5 5.5 5.5v50c0 3-2.5 5.5-5.5 5.5H13z" fill="#efeded"/>
    <path d="M51 3c2.2 0 4 1.8 4 4v50c0 2.2-1.8 4-4 4H13c-2.2 0-4-1.8-4-4V7c0-2.2 1.8-4 4-4h38m0-3H13C9.1 0 6 3.1 6 7v50c0 3.9 3.1 7 7 7h38c3.9 0 7-3.1 7-7V7c0-3.9-3.1-7-7-7z" fill="#262626"/>
    <path d="m13.064149 22.540077 3.733333-0.466666c0.133333 1 0.466667 1.733333 0.933333 2.266666 0.466667 0.533334 1.133334 0.8 1.866667 0.8 0.8 0 1.466667-0.333333 2-0.933333 0.533333-0.600001 0.8-1.466668 0.8-2.533333 0-1-0.266667-1.8-0.8-2.4s-1.133333-0.866667-1.933333-0.866667c-0.466667 0-1.066667 0.06667-1.733334 0.266667l0.4-3.266667c1.066667 0 1.866667-0.2 2.4-0.733333 0.533334-0.533334 0.8-1.133334 0.8-2 0-0.733334-0.2-1.266667-0.6-1.666667s-0.933333-0.6-1.6-0.6c-0.666666 0-1.2 0.266666-1.666666 0.733333-0.466667 0.466667-0.733334 1.2-0.866667 2.066667l-3.533333-0.6c0.266666-1.266667 0.6-2.266667 1.133333-3.0000005 0.466667-0.7333334 1.2-1.3333334 2.066667-1.8000004 0.866666-0.4 1.866666-0.666666 3-0.666666 1.866666 0 3.4 0.6 4.533331 1.866666 0.93334 1.0000009 1.4 2.2000009 1.4 3.4666679 0 1.866666-0.93333 3.266666-2.866665 4.4 1.133334 0.266666 2.066665 0.8 2.733335 1.733332 0.66667 0.866667 1 2 1 3.266667 0 1.866666-0.66667 3.4-1.933331 4.666666-1.133337 1.266667-2.733338 1.933334-4.666671 1.933334-1.8 0-3.333334-0.533334-4.533333-1.6-1.2-1.133334-1.866667-2.533334-2.066666-4.333334" fill="#ff5a79" stroke-width=".666667"/>
    <path d="m23.412583 44.090407 14.19771-14.196763 14.19676 14.196763-14.19676 14.197237z" fill="#ff5a79" stroke-width=".473541"/>
</svg>