<svg xmlns="http://www.w3.org/2000/svg" version="1.1" viewBox="0 0 64 64">
    <title>Playing Card Five Of Diamonds</title>
    <path d="M13 62.5c-3 0-5.5-2.5-5.5-5.5V7c0-3 2.5-5.5 5.5-5.5h38c3 0 5.5 2.5 5.5 5.5v50c0 3-2.5 5.5-5.5 5.5H13z" fill="#efeded"/>
    <path d="M51 3c2.2 0 4 1.8 4 4v50c0 2.2-1.8 4-4 4H13c-2.2 0-4-1.8-4-4V7c0-2.2 1.8-4 4-4h38m0-3H13C9.1 0 6 3.1 6 7v50c0 3.9 3.1 7 7 7h38c3.9 0 7-3.1 7-7V7c0-3.9-3.1-7-7-7z" fill="#262626"/>
    <path d="m13.064149 22.67341 3.8-0.4c0.133333 0.933334 0.4 1.666667 0.933333 2.2 0.533333 0.533334 1.133333 0.8 1.866667 0.8 0.8 0 1.466666-0.333333 2-1.066666 0.533333-0.666667 0.8-1.733334 0.8-3.133334 0-1.333333-0.266667-2.266666-0.8-2.933333-0.533334-0.666667-1.266667-1-2.133334-1-1.066666 0-2.066666 0.533333-2.933333 1.533333l-3.066667-0.466666 1.933334-11.0666668h10.066666v3.7999998h-7.2l-0.6 3.6c0.866667-0.466667 1.733334-0.666667 2.6-0.666667 1.666667 0 3.133334 0.666667 4.266667 2 1.2 1.333334 1.733333 3 1.733333 5.133334 0 1.733333-0.466666 3.333333-1.4 4.666666-1.266666 1.866667-3.066666 2.8-5.4 2.8-1.8 0-3.333333-0.533333-4.466666-1.6-1.066667-1.066666-1.8-2.466666-2-4.2" fill="#ff5a79" stroke-width=".666667"/>
    <path d="m23.412581 44.090407 14.19771-14.196763 14.196764 14.196763-14.196764 14.197237z" fill="#ff5a79" stroke-width=".473541"/>
</svg>