<svg xmlns="http://www.w3.org/2000/svg" version="1.1" viewBox="0 0 64 64">
    <title>Playing Card Eight Of Diamonds</title>
    <path d="M13 62.5c-3 0-5.5-2.5-5.5-5.5V7c0-3 2.5-5.5 5.5-5.5h38c3 0 5.5 2.5 5.5 5.5v50c0 3-2.5 5.5-5.5 5.5H13z" fill="#efeded"/>
    <path d="M51 3c2.2 0 4 1.8 4 4v50c0 2.2-1.8 4-4 4H13c-2.2 0-4-1.8-4-4V7c0-2.2 1.8-4 4-4h38m0-3H13C9.1 0 6 3.1 6 7v50c0 3.9 3.1 7 7 7h38c3.9 0 7-3.1 7-7V7c0-3.9-3.1-7-7-7z" fill="#262626"/>
    <path d="m16.430816 16.806744c-1-0.466666-1.733334-1.066666-2.2-1.8-0.466667-0.733333-0.666667-1.6-0.666667-2.533333 0-1.533333 0.533333-2.8666674 1.6-3.8666674s2.533333-1.533333 4.533333-1.533333c1.933334 0 3.4 0.533333 4.466667 1.533333s1.6 2.3333344 1.6 3.8666674c0 1-0.266667 1.8-0.733333 2.6-0.466667 0.733333-1.2 1.333333-2.066667 1.733333 1.133333 0.466667 2 1.133334 2.533333 2.066667 0.6 0.866667 0.866667 1.933333 0.866667 3.066667 0 1.933333-0.6 3.466666-1.8 4.733333-1.2 1.2-2.8 1.8-4.733333 1.8-1.866667 0-3.4-0.466667-4.6-1.466667-1.466667-1.2-2.2-2.8-2.2-4.866666 0-1.133334 0.266666-2.133334 0.8-3.133334 0.533333-0.933333 1.4-1.666666 2.6-2.2m0.4 4.933334c0 1.133333 0.266666 1.933333 0.8 2.6 0.533333 0.6 1.266666 0.933333 2.066666 0.933333s1.466667-0.266667 2-0.866667c0.533334-0.6 0.8-1.466666 0.8-2.6 0-1-0.266666-1.733333-0.8-2.333333-0.533333-0.6-1.2-0.866667-2-0.866667-0.933333 0-1.666666 0.333334-2.133333 1-0.466667 0.6-0.733333 1.333334-0.733333 2.133334m0.4-8.933334c0 0.8 0.2 1.4 0.666666 1.866667 0.466667 0.466667 1 0.666667 1.733334 0.666667 0.733333 0 1.333333-0.2 1.8-0.666667 0.466666-0.466667 0.666666-1.066667 0.666666-1.866667 0-0.733333-0.2-1.333333-0.666666-1.8-0.466667-0.466666-1-0.666666-1.733334-0.666666-0.733333 0-1.333333 0.2-1.8 0.666666-0.466666 0.466667-0.666666 1.066667-0.666666 1.8" fill="#ff5a79" stroke-width=".666667"/>
    <path d="m23.412581 44.090407 14.19771-14.196763 14.196764 14.196763-14.196764 14.197237z" fill="#ff5a79" stroke-width=".473541"/>
</svg>