<svg xmlns="http://www.w3.org/2000/svg" version="1.1" viewBox="0 0 64 64">
    <title>Playing Card Jack Of Diamonds: medium-light skin tone</title>
    <path d="M13 62.5c-3 0-5.5-2.5-5.5-5.5V7c0-3 2.5-5.5 5.5-5.5h38c3 0 5.5 2.5 5.5 5.5v50c0 3-2.5 5.5-5.5 5.5H13z" fill="#efeded"/>
    <path d="M51 3c2.2 0 4 1.8 4 4v50c0 2.2-1.8 4-4 4H13c-2.2 0-4-1.8-4-4V7c0-2.2 1.8-4 4-4h38m0-3H13C9.1 0 6 3.1 6 7v50c0 3.9 3.1 7 7 7h38c3.9 0 7-3.1 7-7V7c0-3.9-3.1-7-7-7z" fill="#262626"/>
    <g transform="matrix(.5 0 0 .5 16 28.576851)">
        <path d="m6 36h52c0-28-4-34-26-34s-26 6-26 34z" fill="#dbb471"/>
        <path d="m55.8 29.9c-0.2 1.1-0.4 2.1-0.7 2.7-0.6 1-1.7 1.6-1.7 1.6s0.3-2.1 0.2-5c-1.2-17.4-2.2-12.6-21.6-12.6s-20.4-4.8-21.6 12.5c-0.1 2.9 0.2 5.1 0.2 5.1s-1.1-0.6-1.7-1.6c-0.3-0.6-0.5-1.6-0.7-2.7-1.8-0.5-4.2-0.1-4.2 5.1 0 3.2 1.2 5.9 5.3 6.2 1.3 10.2 7.3 15.4 17.2 19.9 2.7 1.2 8.3 1.2 11 0 10-4.5 15.9-9.7 17.2-19.9 4.1-0.3 5.3-2.9 5.3-6.2 0-5.2-2.4-5.6-4.2-5.1" fill="#fed0ac"/>
        <path d="m41 48.9c0 3.4-4.5 5.1-9 5.1s-9-1.7-9-5.1c0 0 0-0.9 0.9-0.9h16.2c0.9 0 0.9 0.9 0.9 0.9" fill="#947151"/>
        <path d="m20 28.6c-5 0-7 1.8-7 3.6s0 4.4 6.6 4.4c6.4 0 7.4-0.8 7.4-3.5 0-1.8-2-4.5-7-4.5" fill="#f5f5f5"/>
        <circle cx="20.5" cy="31.6" r="4.5" fill="#604e37"/>
        <path d="m22 31.6c0 0.8-0.7 1.5-1.5 1.5s-1.5-0.7-1.5-1.5 0.7-1.5 1.5-1.5 1.5 0.7 1.5 1.5" fill="#231f20"/>
        <path d="m13 32.1c0-7 14-7 14 1-2-6-12-6-14-1" fill="#604e37"/>
        <path d="m44 28.6c5 0 7 1.8 7 3.6s0 4.4-6.6 4.4c-6.4 0-7.4-0.8-7.4-3.5 0-1.8 2-4.5 7-4.5" fill="#f5f5f5"/>
        <circle cx="43.5" cy="31.6" r="4.5" fill="#604e37"/>
        <path d="m42 31.6c0 0.8 0.7 1.5 1.5 1.5s1.5-0.7 1.5-1.5-0.7-1.5-1.5-1.5-1.5 0.7-1.5 1.5" fill="#231f20"/>
        <path d="m51 32.1c0-7-14-7-14 1 2-6 12-6 14-1" fill="#604e37"/>
        <path d="m32 45c-4.2 0-6.3-3-4.2-3h8.4c2.1 0 0 3-4.2 3" fill="#e0a372"/>
    </g>
    <path d="m16.300756 17.569423v0.466667c0 1.466666 0.2 2.533333 0.466666 3.133333 0.266667 0.6 0.866667 0.933333 1.8 0.933333 0.866667 0 1.466667-0.333333 1.8-1 0.2-0.4 0.266667-1.066666 0.266667-2v-13.6000001h4.066667v13.4666671c0 1.666667-0.266667 2.933333-0.866667 3.933333-0.933333 1.6-2.666667 2.466667-5.066667 2.466667s-4.133333-0.666667-4.933333-2c-0.866667-1.333333-1.266667-3.133333-1.266667-5.4v-0.466667h3.733334z" fill="#ff5a79" stroke-width=".666667"/>
    <path d="m31.875934 15.435923 9.93383-9.9331671 9.933168 9.9331671-9.933168 9.9335z" fill="#ff5a79" stroke-width=".331326"/>
</svg>