<svg xmlns="http://www.w3.org/2000/svg" version="1.1" viewBox="0 0 64 64">
    <title>Playing Card Six Of Diamonds</title>
    <path d="M13 62.5c-3 0-5.5-2.5-5.5-5.5V7c0-3 2.5-5.5 5.5-5.5h38c3 0 5.5 2.5 5.5 5.5v50c0 3-2.5 5.5-5.5 5.5H13z" fill="#efeded"/>
    <path d="M51 3c2.2 0 4 1.8 4 4v50c0 2.2-1.8 4-4 4H13c-2.2 0-4-1.8-4-4V7c0-2.2 1.8-4 4-4h38m0-3H13C9.1 0 6 3.1 6 7v50c0 3.9 3.1 7 7 7h38c3.9 0 7-3.1 7-7V7c0-3.9-3.1-7-7-7z" fill="#262626"/>
    <path d="m23.412579 44.090407 14.19771-14.196763 14.196769 14.196763-14.196769 14.197237z" fill="#ff5a79" stroke-width=".473541"/>
    <path d="m20.330294 7.1407284c-2.13333 0-3.932293 0.8665378-5.265624 2.5332031-1.333334 1.6666645-2 4.4656295-2 8.2656255 0 3.733329 0.666927 6.466408 1.933594 8.066406 1.333331 1.666666 3.000002 2.466797 4.999999 2.466797 1.866665 0 3.333205-0.733334 4.533203-2 1.199999-1.266665 1.798828-2.999481 1.798828-5.132812 0-1.999998-0.599089-3.666928-1.732422-4.933594-1.133332-1.266665-2.532814-1.933594-4.132812-1.933594-1.399999 0-2.59987 0.600783-3.533203 1.800782 0.133333-2.399998 0.533073-3.999091 1.066406-4.732423 0.599999-0.733334 1.266407-1.134766 2.066406-1.134766 0.600001 0 1.066798 0.19961 1.466797 0.599609l2.533203-2.5332024c-0.933332-0.8666661-2.201042-1.3320312-3.734375-1.3320312zm-0.332031 10.3320316c0.799999 0 1.400261 0.333595 1.933594 0.933594 0.466666 0.666666 0.732422 1.666668 0.732422 3 0 1.333333-0.265755 2.267188-0.732422 2.867188-0.533333 0.599999-1.067448 0.867187-1.800781 0.867187-0.733332 0-1.333594-0.333074-1.933594-1.066406-0.6-0.666667-0.867188-1.666669-0.867188-3 0-1.199999 0.267449-2.06797 0.800782-2.667969 0.533334-0.599999 1.133856-0.933594 1.867187-0.933594z" fill="#ff5a79"/>
</svg>