<svg xmlns="http://www.w3.org/2000/svg" version="1.1" viewBox="0 0 64 64">
    <title>Playing Card Queen Of Diamonds: medium-light skin tone</title>
    <path d="M13 62.5c-3 0-5.5-2.5-5.5-5.5V7c0-3 2.5-5.5 5.5-5.5h38c3 0 5.5 2.5 5.5 5.5v50c0 3-2.5 5.5-5.5 5.5H13z" fill="#efeded"/>
    <path d="M51 3c2.2 0 4 1.8 4 4v50c0 2.2-1.8 4-4 4H13c-2.2 0-4-1.8-4-4V7c0-2.2 1.8-4 4-4h38m0-3H13C9.1 0 6 3.1 6 7v50c0 3.9 3.1 7 7 7h38c3.9 0 7-3.1 7-7V7c0-3.9-3.1-7-7-7z" fill="#262626"/>
    <g transform="matrix(.5 0 0 .5 16 28.576851)">
        <path d="m32 2c-18.1 0-28 11.4-28 26.5v33.5h56v-33.5c0-22.4-15.2-22-15.2-22s-1.1-4.5-12.8-4.5z" fill="#dbb471"/>
        <path d="m10.4 40.7s-4.4-1.1-4.4-7.5c0-5.1 3.3-5.9 3.3-5.9 30.2-0.1 38.7-6.3 38.7-6.3s1.9 6.2 6.6 6.2c0 0 3.4 0.6 3.4 5.9 0 6.4-4.5 7.5-4.5 7.5-0.1 9.7-13.4 21.4-21.5 21.4s-21.6-11.7-21.6-21.3" fill="#fed0ac"/>
        <path d="m32 47c-4.2 0-6.3-3-4.2-3h8.4c2.1 0 0 3-4.2 3" fill="#e0a372"/>
        <path d="m38.3 38.2c-1.5 0-1.3-1.8-1.3-1.8 2.2-11.5 15-5.4 15-5.4 1 2-2.3 6.9-3.2 7.2-4.2 1-10.5 0-10.5 0" fill="#f5f5f5"/>
        <path d="m48.5 33.5c0 2.5-2 4.5-4.5 4.5s-4.5-2-4.5-4.5 2-4.5 4.5-4.5 4.5 2 4.5 4.5" fill="#604e37"/>
        <circle cx="44" cy="33.5" r="1.5" fill="#2b2925"/>
        <path d="m37 36.3c2.2-13.7 13.5-4.6 18-6.5-4.5 4.3-13.5-4.9-18 6.5" fill="#3b3226"/>
        <path d="m25.7 38.2c1.5 0 1.3-1.8 1.3-1.8-2.2-11.5-15-5.4-15-5.4-1 2 2.3 6.9 3.2 7.2 4.2 1 10.5 0 10.5 0" fill="#f5f5f5"/>
        <path d="m15.5 33.5c0 2.5 2 4.5 4.5 4.5s4.5-2 4.5-4.5-2-4.5-4.5-4.5-4.5 2-4.5 4.5" fill="#604e37"/>
        <path d="m27 36.3c-2.2-13.7-13.5-4.6-18-6.5 4.5 4.3 13.5-4.9 18 6.5" fill="#3b3226"/>
        <path d="m32 52-10-1.5c6 8.5 14 8.5 20 0z" fill="#f085a9"/>
        <path d="m35.9 50.1c-2.9-1.1-3.9 0.7-3.9 0.7s-1-1.8-3.9-0.7c-2.3 0.9-6.1 0.4-6.1 0.4 4 0.9 4.5 2.5 10 2.5s6-1.7 10-2.5c0 0-3.8 0.5-6.1-0.4" fill="#d46c8f"/>
        <circle cx="20" cy="33.5" r="1.5" fill="#2b2925"/>
        <g transform="matrix(1.0012516 0 0 1.0012516 -.0400512 -6.0100128)" fill="#d9a000">
            <path d="m22 8-4-4-4 4h2v4h6zm28 0-4-4-4 4v4h6v-4z"/>
        </g>
        <path d="m54.027535 10.010013h-44.0550702c0-13.316646 44.0550702-13.316646 44.0550702 0" fill="#9450e0" stroke-width="1.00125"/>
        <path d="m48.020026 10.010013h-36.045058c0-10.713392 36.045058-10.713392 36.045058 0" fill="#7e44bf" stroke-width="1.00125"/>
        <path d="m7.9699618 14.015019h48.0600772v6.00751h-48.0600772z" fill="#d9a000" stroke-width="1.00125"/>
        <path d="m50.022529 4.002503 2.002503 2.002503v2.002504h-16.020025v-2.002504l2.002503-2.002503-6.00751-8.010013-6.007509 8.010013 2.002503 2.002503v2.002504h-16.020026v-2.002504l2.002503-2.002503-8.0100122-6.107635 2.002503 20.125158h48.0600772l2.002498-20.125158z" fill="#ffce31" stroke-width="1.00125"/>
        <path d="m32 16.017522v-3.10388h2.002503z" fill="#66caf2" stroke-width="1.00125"/>
        <g transform="matrix(1.0012516 0 0 1.0012516 -.0400512 -6.0100128)" fill="#428bc1">
            <path d="m32 22-2-3.1h2zm2-3.1h-2v-2.9z"/>
        </g>
        <g transform="matrix(1.0012516 0 0 1.0012516 -.0400512 -6.0100128)" fill="#66caf2">
            <path d="m32 16v2.9h-2zm-17.2 6v-3.1h1.9z"/>
        </g>
        <g transform="matrix(1.0012516 0 0 1.0012516 -.0400512 -6.0100128)" fill="#428bc1">
            <path d="m14.8 22-2.1-3.1h2.1zm1.9-3.1h-1.9v-2.9z"/>
        </g>
        <g transform="matrix(1.0012516 0 0 1.0012516 -.0400512 -6.0100128)" fill="#66caf2">
            <path d="m14.8 16v2.9h-2.1zm8.6 6v-3.1h2z"/>
        </g>
        <g transform="matrix(1.0012516 0 0 1.0012516 -.0400512 -6.0100128)" fill="#428bc1">
            <path d="m23.4 22-2-3.1h2zm2-3.1h-2v-2.9z"/>
        </g>
        <g transform="matrix(1.0012516 0 0 1.0012516 -.0400512 -6.0100128)" fill="#66caf2">
            <path d="m23.4 16v2.9h-2zm17.3 6v-3.1h2z"/>
        </g>
        <g transform="matrix(1.0012516 0 0 1.0012516 -.0400512 -6.0100128)" fill="#428bc1">
            <path d="m40.7 22-2-3.1h2zm2-3.1h-2v-2.9z"/>
        </g>
        <g transform="matrix(1.0012516 0 0 1.0012516 -.0400512 -6.0100128)" fill="#66caf2">
            <path d="m40.7 16v2.9h-2zm8.6 6v-3.1h2z"/>
        </g>
        <g transform="matrix(1.0012516 0 0 1.0012516 -.0400512 -6.0100128)" fill="#428bc1">
            <path d="m49.3 22-2-3.1h2zm2-3.1h-2v-2.9z"/>
        </g>
        <path d="m49.321653 10.010013v2.903629h-2.002503z" fill="#66caf2" stroke-width="1.00125"/>
        <path d="m7.9699618 16.017522-2.002503-3.10388h2.002503z" fill="#428bc1" stroke-width="1.00125"/>
        <g transform="matrix(1.0012516 0 0 1.0012516 -.0400512 -6.0100128)" fill="#66caf2">
            <path d="m8 16v2.9h-2zm48 6v-3.1h2z"/>
        </g>
        <path d="m58.032537 12.913642h-2.002498v-2.903629z" fill="#428bc1" stroke-width="1.00125"/>
    </g>
    <path d="m28.84276 19.002756c-0.333333 1.133334-0.866666 2-1.533333 2.733334l2.2 2.066666-2.066667 2.266667-2.333333-2.2c-0.733333 0.4-1.333333 0.733333-1.866667 0.933333-0.866666 0.266667-1.933333 0.466667-3.133333 0.466667-2.533333 0-4.6-0.733333-6.266667-2.266667-1.999999-1.8-2.999999-4.466666-2.999999-8 0-3.533333 1-6.2000001 3.066667-8.0000001 1.666666-1.466666 3.733333-2.2 6.266666-2.2s4.6 0.8 6.266666 2.333334c1.933335 1.8 2.933334 4.3333331 2.933334 7.6000001 0.06667 1.666666-0.133334 3.133333-0.533334 4.266666m-7.333333 2.6c0.266667-0.06667 0.533333-0.2 0.933333-0.333333l-2-1.866667 2.066667-2.2 1.933333 1.866667c0.333334-0.6 0.533334-1.2 0.666667-1.666667 0.2-0.733333 0.266667-1.533333 0.266667-2.466666 0-2.2-0.466667-3.866667-1.333334-5-0.866666-1.2000001-2.2-1.8000001-3.866666-1.8000001-1.6 0-2.866667 0.6-3.8 1.7333331-0.933334 1.133333-1.466667 2.866667-1.466667 5.133333 0 2.666667 0.666667 4.533334 2.066667 5.666667 0.866666 0.733333 1.933333 1.133333 3.2 1.133333 0.466666 0 0.933333-0.06667 1.333333-0.2" fill="#ff5a79" stroke-width=".666667"/>
    <path d="m32.859313 15.435923 9.93383-9.9331671 9.933168 9.9331671-9.933168 9.9335z" fill="#ff5a79" stroke-width=".331326"/>
</svg>