<svg xmlns="http://www.w3.org/2000/svg" version="1.1" viewBox="0 0 64 64">
    <title>Playing Card Eight Of Clubs</title>
    <path d="M13 62.5c-3 0-5.5-2.5-5.5-5.5V7c0-3 2.5-5.5 5.5-5.5h38c3 0 5.5 2.5 5.5 5.5v50c0 3-2.5 5.5-5.5 5.5H13z" fill="#efeded"/>
    <path d="M51 3c2.2 0 4 1.8 4 4v50c0 2.2-1.8 4-4 4H13c-2.2 0-4-1.8-4-4V7c0-2.2 1.8-4 4-4h38m0-3H13C9.1 0 6 3.1 6 7v50c0 3.9 3.1 7 7 7h38c3.9 0 7-3.1 7-7V7c0-3.9-3.1-7-7-7z" fill="#262626"/>
    <path d="m16.430816 16.806744c-1-0.466666-1.733334-1.066666-2.2-1.8-0.466667-0.733333-0.666667-1.6-0.666667-2.533333 0-1.533333 0.533333-2.8666674 1.6-3.8666674s2.533333-1.533333 4.533333-1.533333c1.933334 0 3.4 0.533333 4.466667 1.533333s1.6 2.3333344 1.6 3.8666674c0 1-0.266667 1.8-0.733333 2.6-0.466667 0.733333-1.2 1.333333-2.066667 1.733333 1.133333 0.466667 2 1.133334 2.533333 2.066667 0.6 0.866667 0.866667 1.933333 0.866667 3.066667 0 1.933333-0.6 3.466666-1.8 4.733333-1.2 1.2-2.8 1.8-4.733333 1.8-1.866667 0-3.4-0.466667-4.6-1.466667-1.466667-1.2-2.2-2.8-2.2-4.866666 0-1.133334 0.266666-2.133334 0.8-3.133334 0.533333-0.933333 1.4-1.666666 2.6-2.2m0.4 4.933334c0 1.133333 0.266666 1.933333 0.8 2.6 0.533333 0.6 1.266666 0.933333 2.066666 0.933333s1.466667-0.266667 2-0.866667c0.533334-0.6 0.8-1.466666 0.8-2.6 0-1-0.266666-1.733333-0.8-2.333333-0.533333-0.6-1.2-0.866667-2-0.866667-0.933333 0-1.666666 0.333334-2.133333 1-0.466667 0.6-0.733333 1.333334-0.733333 2.133334m0.4-8.933334c0 0.8 0.2 1.4 0.666666 1.866667 0.466667 0.466667 1 0.666667 1.733334 0.666667 0.733333 0 1.333333-0.2 1.8-0.666667 0.466666-0.466667 0.666666-1.066667 0.666666-1.866667 0-0.733333-0.2-1.333333-0.666666-1.8-0.466667-0.466666-1-0.666666-1.733334-0.666666-0.733333 0-1.333333 0.2-1.8 0.666666-0.466666 0.466667-0.666666 1.066667-0.666666 1.8" fill="#4d5357" stroke-width=".666667"/>
    <path d="m37.609817 29.896177c-4.189876 0.01694-8.741436 5.527975-4.439334 11.484305-4.328954-5.969458-9.736997-1.187423-9.736997 3.611662 0 3.927784 3.170135 7.097921 7.097919 7.097921 2.27149 0 4.306987-1.088683 5.5847-2.744975l-0.284251 2.318598c-0.236616 1.703616-1.420358 3.266417-3.123976 3.550353l-2.176473 0.426376v2.650225h14.156825v-2.650225l-2.176473-0.426376c-1.703618-0.283936-2.88736-1.846737-3.123976-3.550353l-0.284251-2.318598c1.277713 1.656292 3.31321 2.744975 5.5847 2.744975 3.927784 0 7.097919-3.170137 7.097919-7.097921 0-4.799085-5.408043-9.58112-9.736997-3.611662 4.302102-5.95633-0.249458-11.467369-4.439335-11.484305z" fill="#4d5357" stroke-width="1.42683"/>
</svg>