<svg xmlns="http://www.w3.org/2000/svg" version="1.1" viewBox="0 0 64 64">
    <title>Playing Card Four Of Clubs</title>
    <path d="M13 62.5c-3 0-5.5-2.5-5.5-5.5V7c0-3 2.5-5.5 5.5-5.5h38c3 0 5.5 2.5 5.5 5.5v50c0 3-2.5 5.5-5.5 5.5H13z" fill="#efeded"/>
    <path d="M51 3c2.2 0 4 1.8 4 4v50c0 2.2-1.8 4-4 4H13c-2.2 0-4-1.8-4-4V7c0-2.2 1.8-4 4-4h38m0-3H13C9.1 0 6 3.1 6 7v50c0 3.9 3.1 7 7 7h38c3.9 0 7-3.1 7-7V7c0-3.9-3.1-7-7-7z" fill="#262626"/>
    <path d="m22.197482 28.47341v-4.266666h-9.133333v-3.533334l9.666666-13.5333328h3.600001v13.4666668h2.733333v3.6h-2.733333v4.266666zm0-7.866666v-7.266667l-5.133333 7.266667z" fill="#4d5357" stroke-width=".666667"/>
    <path d="m44.73348 37.889978h-0.0473c0.0473-0.284 0.0473-0.568 0.0473-0.899333 0-3.928666-3.17133-7.099999-7.099991-7.099999-3.92867 0-7.099999 3.171333-7.099999 7.099999 0 0.284 0.0473 0.615333 0.0473 0.899333h-0.0473c-3.92867 0-7.100004 3.171333-7.100004 7.099999s3.171334 7.099999 7.100004 7.099999c2.272 0 4.30733-1.088666 5.585329-2.745333l-0.284 2.319333c-0.23667 1.704-1.42 3.266-3.124 3.55l-2.177329 0.426v2.650666h14.19999v-2.650666l-2.22466-0.426c-1.704-0.284-2.887331-1.846-3.124-3.55l-0.284001-2.319333c1.278001 1.656667 3.31333 2.745333 5.58533 2.745333 3.92867 0 7.1-3.171333 7.1-7.099999s-3.124-7.099999-7.05267-7.099999" fill="#4d5357" stroke-width=".473333"/>
</svg>