<svg xmlns="http://www.w3.org/2000/svg" version="1.1" viewBox="0 0 64 64">
    <title>Playing Card Nine Of Clubs</title>
    <path d="M13 62.5c-3 0-5.5-2.5-5.5-5.5V7c0-3 2.5-5.5 5.5-5.5h38c3 0 5.5 2.5 5.5 5.5v50c0 3-2.5 5.5-5.5 5.5H13z" fill="#efeded"/>
    <path d="M51 3c2.2 0 4 1.8 4 4v50c0 2.2-1.8 4-4 4H13c-2.2 0-4-1.8-4-4V7c0-2.2 1.8-4 4-4h38m0-3H13C9.1 0 6 3.1 6 7v50c0 3.9 3.1 7 7 7h38c3.9 0 7-3.1 7-7V7c0-3.9-3.1-7-7-7z" fill="#262626"/>
    <path d="m37.609817 29.893411c-4.189876 0.01694-8.741436 5.527975-4.439334 11.484305-4.328954-5.969458-9.736997-1.187423-9.736997 3.611662 0 3.927785 3.170135 7.097921 7.097919 7.097921 2.27149 0 4.306987-1.088683 5.5847-2.744975l-0.284251 2.318598c-0.236616 1.703616-1.420358 3.266417-3.123976 3.550353l-2.176473 0.426376v2.650225h14.156825v-2.650225l-2.176473-0.426376c-1.703618-0.283935-2.88736-1.846736-3.123976-3.550353l-0.284251-2.318598c1.277713 1.656292 3.31321 2.744975 5.5847 2.744975 3.927784 0 7.097919-3.170137 7.097919-7.097921 0-4.799085-5.408043-9.58112-9.736997-3.611662 4.302102-5.95633-0.249458-11.467369-4.439335-11.484305z" fill="#4d5357" stroke-width="1.42683"/>
    <path d="m19.498394 7.1073955c-1.866664 0-3.399611 0.666928-4.599609 1.933593-1.199998 1.3333325-1.800782 2.9994815-1.800782 5.1328135 0 1.999998 0.599089 3.666929 1.732422 4.933594 1.133333 1.266666 2.468361 1.933594 4.06836 1.933594 1.466665 0 2.666277-0.534377 3.599609-1.734375-0.133333 2.399997-0.533074 4.001042-1.066406 4.734375-0.533334 0.733332-1.200001 1.132812-2 1.132812-0.666667 0-1.133204-0.266276-1.533203-0.599609l-2.601562 2.533203c0.999998 0.866665 2.267449 1.332031 3.80078 1.332031 2.133332 0 3.932294-0.866539 5.265625-2.533203 1.333332-1.666665 2-4.46563 2-8.265625 0-3.73333-0.665234-6.466409-1.865234-8.0664075-1.333332-1.666665-3.000001-2.466797-5-2.466796zm-0.267578 3.3320305c0.799999 0 1.4 0.333074 2 1.066406 0.599999 0.733334 0.867187 1.733336 0.867187 3.000001 0 1.199999-0.267448 2.06797-0.800781 2.667969-0.533332 0.6-1.131902 0.933594-1.865234 0.933594-0.8 0-1.400261-0.333594-1.933594-0.933594-0.466666-0.666666-0.734375-1.666668-0.734375-3 0-1.333333 0.267709-2.267189 0.734375-2.867188 0.466666-0.6 0.999088-0.867188 1.732422-0.867188z" fill="#4d5357"/>
</svg>