<svg xmlns="http://www.w3.org/2000/svg" version="1.1" viewBox="0 0 64 64">
    <title>Playing Card Seven Of Clubs</title>
    <path d="M13 62.5c-3 0-5.5-2.5-5.5-5.5V7c0-3 2.5-5.5 5.5-5.5h38c3 0 5.5 2.5 5.5 5.5v50c0 3-2.5 5.5-5.5 5.5H13z" fill="#efeded"/>
    <path d="M51 3c2.2 0 4 1.8 4 4v50c0 2.2-1.8 4-4 4H13c-2.2 0-4-1.8-4-4V7c0-2.2 1.8-4 4-4h38m0-3H13C9.1 0 6 3.1 6 7v50c0 3.9 3.1 7 7 7h38c3.9 0 7-3.1 7-7V7c0-3.9-3.1-7-7-7z" fill="#262626"/>
    <path d="m13.030815 11.006744v-3.8666669h13.333334v2.9999999c-1.133334 1.133333-2.2 2.8-3.333334 4.933333-1.133333 2.133334-2 4.466667-2.6 6.866667s-0.866666 4.6-0.866666 6.466667h-3.733334c0.06667-3 0.666667-6.066667 1.733334-9.133334 1.066666-3.066666 2.533333-5.866666 4.4-8.333333l-8.933334 0.06667" fill="#4d5357" stroke-width=".666667"/>
    <path d="m44.733488 37.889978h-0.0473c0.0473-0.284 0.0473-0.568 0.0473-0.899333 0-3.928666-3.17133-7.099999-7.1-7.099999s-7.1 3.171333-7.1 7.099999c0 0.284 0.0473 0.615333 0.0473 0.899333h-0.0473c-3.92867 0-7.1 3.171333-7.1 7.099999s3.17133 7.099999 7.1 7.099999c2.272 0 4.30733-1.088666 5.58533-2.745333l-0.284 2.319333c-0.23666 1.704-1.42 3.266-3.124 3.55l-2.17733 0.426v2.650666h14.2v-2.650666l-2.22467-0.426c-1.704-0.284-2.88733-1.846-3.124-3.55l-0.284-2.319333c1.278 1.656667 3.31334 2.745333 5.58533 2.745333 3.92867 0 7.1-3.171333 7.1-7.099999s-3.124-7.099999-7.05266-7.099999" fill="#4d5357" stroke-width=".473333"/>
</svg>