<svg xmlns="http://www.w3.org/2000/svg" version="1.1" viewBox="0 0 64 64">
    <title>Playing Card Two Of Clubs</title>
    <path d="M13 62.5c-3 0-5.5-2.5-5.5-5.5V7c0-3 2.5-5.5 5.5-5.5h38c3 0 5.5 2.5 5.5 5.5v50c0 3-2.5 5.5-5.5 5.5H13z" fill="#efeded"/>
    <path d="M51 3c2.2 0 4 1.8 4 4v50c0 2.2-1.8 4-4 4H13c-2.2 0-4-1.8-4-4V7c0-2.2 1.8-4 4-4h38m0-3H13C9.1 0 6 3.1 6 7v50c0 3.9 3.1 7 7 7h38c3.9 0 7-3.1 7-7V7c0-3.9-3.1-7-7-7z" fill="#262626"/>
    <path d="m26.330816 24.606744v3.8h-13.333334c0.133334-1.4 0.6-2.8 1.266667-4.066667 0.733334-1.266666 2.133334-3 4.266667-5.066666 1.733333-1.733334 2.733333-2.866667 3.133333-3.466667 0.533334-0.866667 0.8-1.666667 0.8-2.466667 0-0.933333-0.2-1.6-0.666666-2.066666-0.466667-0.466667-1.066667-0.733334-1.866667-0.733334s-1.4 0.266667-1.866667 0.8c-0.466666 0.533334-0.733333 1.333334-0.8 2.533334l-3.8-0.4c0.2-2.266667 0.933333-3.8666674 2.133334-4.8000004 1.2-1 2.666666-1.466667 4.466666-1.466667 1.933334 0 3.466667 0.533333 4.6 1.666667 1.133334 1.1333334 1.666667 2.5333334 1.666667 4.2000004 0 0.933333-0.133333 1.866666-0.466667 2.733333-0.333333 0.8-0.866666 1.666667-1.533333 2.6-0.466667 0.6-1.266667 1.533333-2.466667 2.733333s-1.933333 1.933334-2.266666 2.333334c-0.333334 0.4-0.6 0.733333-0.8 1.133333h7.533333" fill="#4d5357" stroke-width=".666667"/>
    <path d="m37.609818 29.896177c-4.189876 0.01694-8.741436 5.527975-4.439334 11.484305-4.328954-5.969458-9.736997-1.187423-9.736997 3.611662 0 3.927784 3.170135 7.097921 7.097919 7.097921 2.27149 0 4.306987-1.088683 5.5847-2.744975l-0.284251 2.318598c-0.236616 1.703616-1.420358 3.266417-3.123976 3.550353l-2.176473 0.426376v2.650225h14.156825v-2.650225l-2.176473-0.426376c-1.703618-0.283936-2.88736-1.846737-3.123976-3.550353l-0.284251-2.318598c1.277713 1.656292 3.31321 2.744975 5.5847 2.744975 3.927784 0 7.097919-3.170137 7.097919-7.097921 0-4.799085-5.408043-9.58112-9.736997-3.611662 4.302102-5.95633-0.249458-11.467369-4.439335-11.484305z" fill="#4d5357" stroke-width="1.42683"/>
</svg>