<svg xmlns="http://www.w3.org/2000/svg" version="1.1" viewBox="0 0 64 64">
    <title>Playing Card Six Of Clubs</title>
    <path d="M13 62.5c-3 0-5.5-2.5-5.5-5.5V7c0-3 2.5-5.5 5.5-5.5h38c3 0 5.5 2.5 5.5 5.5v50c0 3-2.5 5.5-5.5 5.5H13z" fill="#efeded"/>
    <path d="M51 3c2.2 0 4 1.8 4 4v50c0 2.2-1.8 4-4 4H13c-2.2 0-4-1.8-4-4V7c0-2.2 1.8-4 4-4h38m0-3H13C9.1 0 6 3.1 6 7v50c0 3.9 3.1 7 7 7h38c3.9 0 7-3.1 7-7V7c0-3.9-3.1-7-7-7z" fill="#262626"/>
    <path d="m37.609817 29.893411c-4.189876 0.01694-8.741436 5.527976-4.439333 11.484306-4.328955-5.969458-9.736998-1.187423-9.736998 3.611662 0 3.927784 3.170135 7.097921 7.097919 7.097921 2.27149 0 4.306987-1.088683 5.584701-2.744975l-0.284252 2.318598c-0.236616 1.703615-1.420358 3.266417-3.123976 3.550353l-2.176473 0.426376v2.650225h14.156826v-2.650225l-2.176473-0.426376c-1.703619-0.283936-2.887361-1.846737-3.123976-3.550353l-0.284251-2.318598c1.277712 1.656292 3.31321 2.744974 5.5847 2.744974 3.927784 0 7.097918-3.170136 7.097918-7.097921 0-4.799084-5.408043-9.581119-9.736997-3.611662 4.302102-5.95633-0.249458-11.467369-4.439335-11.484305z" fill="#4d5357" stroke-width="1.42683"/>
    <path d="m20.330294 7.140728c-2.13333 0-3.932293 0.866538-5.265624 2.5332035-1.333334 1.6666655-2 4.4656295-2 8.2656255 0 3.733329 0.666927 6.466408 1.933594 8.066406 1.333331 1.666666 3.000002 2.466797 4.999999 2.466797 1.866665 0 3.333205-0.733334 4.533203-2 1.199999-1.266665 1.798828-2.999481 1.798828-5.132813 0-1.999998-0.599089-3.666927-1.732422-4.933593-1.133332-1.266665-2.532814-1.933594-4.132812-1.933594-1.399999 0-2.59987 0.600783-3.533203 1.800782 0.133333-2.399998 0.533073-3.99909 1.066406-4.732422 0.599999-0.733334 1.266407-1.134766 2.066406-1.134766 0.600001 0 1.066798 0.19961 1.466797 0.599609l2.533203-2.533204c-0.933332-0.866666-2.201042-1.332031-3.734375-1.332031zm-0.332031 10.332032c0.799999 0 1.400261 0.333594 1.933594 0.933594 0.466667 0.666665 0.732422 1.666668 0.732422 3s-0.265755 2.267188-0.732422 2.867187c-0.533333 0.599999-1.067448 0.867188-1.800781 0.867188-0.733332 0-1.333594-0.333074-1.933594-1.066407-0.6-0.666667-0.867188-1.666668-0.867188-3 0-1.199998 0.267449-2.067969 0.800782-2.667968 0.533333-0.6 1.133856-0.933594 1.867187-0.933594z" fill="#4d5357"/>
</svg>