<svg xmlns="http://www.w3.org/2000/svg" version="1.1" viewBox="0 0 64 64">
    <title>Playing Card King Of Clubs</title>
    <path d="M13 62.5c-3 0-5.5-2.5-5.5-5.5V7c0-3 2.5-5.5 5.5-5.5h38c3 0 5.5 2.5 5.5 5.5v50c0 3-2.5 5.5-5.5 5.5H13z" fill="#efeded"/>
    <path d="M51 3c2.2 0 4 1.8 4 4v50c0 2.2-1.8 4-4 4H13c-2.2 0-4-1.8-4-4V7c0-2.2 1.8-4 4-4h38m0-3H13C9.1 0 6 3.1 6 7v50c0 3.9 3.1 7 7 7h38c3.9 0 7-3.1 7-7V7c0-3.9-3.1-7-7-7z" fill="#262626"/>
    <g transform="matrix(.50062578 0 0 .50062578 15.979975 28.5756)">
        <path d="m8.3 38.3h47.3c0-25.5-3.6-31-23.7-31-19.9 0.1-23.6 5.5-23.6 31" fill="#ffb300"/>
        <path d="m53.7 32.7c-0.2 1-0.4 1.9-0.6 2.4-0.5 0.9-1.5 1.5-1.5 1.5s0.3-1.9 0.2-4.6c-1.1-15.8-2-11.4-19.7-11.4-17.6 0-18.6-4.3-19.7 11.4-0.1 2.7 0.2 4.6 0.2 4.6s-1-0.5-1.6-1.5c-0.3-0.5-0.5-1.4-0.6-2.4-1.7-0.4-3.8-0.1-3.8 4.7 0 2.9 1.1 5.4 4.8 5.6 1.2 9.3 6.6 14.1 15.7 18.1 2.5 1.1 7.6 1.1 10 0 9.1-4.1 14.5-8.8 15.7-18.1 3.7-0.3 4.8-2.7 4.8-5.6-0.1-4.7-2.3-5.1-3.9-4.7" fill="#ffdd67"/>
        <path d="m40.2 50.9c0 3.4-4.1 5.1-8.2 5.1s-8.2-1.7-8.2-5.1c0 0 0-0.9 0.8-0.9h14.7c0.9 0 0.9 0.9 0.9 0.9" fill="#937237"/>
        <path d="m21.1 31.5c-4.5 0-6.4 1.6-6.4 3.3 0 1.6 0 4 6 4 5.8 0 6.7-0.7 6.7-3.2 0.1-1.6-1.8-4.1-6.3-4.1" fill="#f5f5f5"/>
        <path d="m25.6 34.3c0 2.3-1.8 4.1-4.1 4.1s-4.1-1.8-4.1-4.1 1.8-4.1 4.1-4.1 4.1 1.9 4.1 4.1" fill="#664e27"/>
        <path d="m22.9 34.3c0 0.8-0.6 1.4-1.4 1.4s-1.4-0.6-1.4-1.4 0.6-1.4 1.4-1.4c0.8 0.1 1.4 0.7 1.4 1.4" fill="#231f20"/>
        <path d="m14.7 34.8c0-6.4 12.8-6.4 12.8 0.9-1.9-5.5-11-5.5-12.8-0.9" fill="#664e27"/>
        <path d="m42.9 31.5c4.6 0 6.4 1.6 6.4 3.3 0 1.6 0 4-6 4-5.8 0-6.7-0.7-6.7-3.2 0-1.6 1.8-4.1 6.3-4.1" fill="#f5f5f5"/>
        <path d="m38.4 34.3c0 2.3 1.8 4.1 4.1 4.1s4.1-1.8 4.1-4.1-1.8-4.1-4.1-4.1-4.1 1.9-4.1 4.1" fill="#664e27"/>
        <path d="m41.1 34.3c0 0.8 0.6 1.4 1.4 1.4s1.4-0.6 1.4-1.4-0.6-1.4-1.4-1.4c-0.8 0.1-1.4 0.7-1.4 1.4" fill="#231f20"/>
        <path d="m49.3 34.8c0-6.4-12.8-6.4-12.8 0.9 1.9-5.5 11-5.5 12.8-0.9" fill="#664e27"/>
        <path d="m32 47c-3.3 0-5-3-3.3-3h6.7c1.6 0-0.1 3-3.4 3" fill="#eba352"/>
        <g fill="#d9a000">
            <path d="m22 8-4-4-4 4h2v4h6zm28 0-4-4-4 4v4h6v-4z"/>
        </g>
        <path d="m54 16h-44c0-13.3 44-13.3 44 0" fill="#9450e0"/>
        <path d="m48 16h-36c0-10.7 36-10.7 36 0" fill="#7e44bf"/>
        <path d="m8 20h48v6h-48z" fill="#d9a000"/>
        <path d="m50 10 2 2v2h-16v-2l2-2-6-8-6 8 2 2v2h-16v-2l2-2-8-6.1 2 20.1h48l2-20.1z" fill="#ffce31"/>
        <path d="m32 22v-3.1h2z" fill="#66caf2"/>
        <g fill="#428bc1">
            <path d="m32 22-2-3.1h2zm2-3.1h-2v-2.9z"/>
        </g>
        <g fill="#66caf2">
            <path d="m32 16v2.9h-2zm-17.2 6v-3.1h1.9z"/>
        </g>
        <g fill="#428bc1">
            <path d="m14.8 22-2.1-3.1h2.1zm1.9-3.1h-1.9v-2.9z"/>
        </g>
        <g fill="#66caf2">
            <path d="m14.8 16v2.9h-2.1zm8.6 6v-3.1h2z"/>
        </g>
        <g fill="#428bc1">
            <path d="m23.4 22-2-3.1h2zm2-3.1h-2v-2.9z"/>
        </g>
        <g fill="#66caf2">
            <path d="m23.4 16v2.9h-2zm17.3 6v-3.1h2z"/>
        </g>
        <g fill="#428bc1">
            <path d="m40.7 22-2-3.1h2zm2-3.1h-2v-2.9z"/>
        </g>
        <g fill="#66caf2">
            <path d="m40.7 16v2.9h-2zm8.6 6v-3.1h2z"/>
        </g>
        <g fill="#428bc1">
            <path d="m49.3 22-2-3.1h2zm2-3.1h-2v-2.9z"/>
        </g>
        <path d="m49.3 16v2.9h-2z" fill="#66caf2"/>
        <path d="m8 22-2-3.1h2z" fill="#428bc1"/>
        <g fill="#66caf2">
            <path d="m8 16v2.9h-2zm48 6v-3.1h2z"/>
        </g>
        <path d="m58 18.9h-2v-2.9z" fill="#428bc1"/>
    </g>
    <path d="m12.029003 5.769423h4v8l7.466666-8h5.2l-7.933333 7.933333 8.333333 11.4h-5.2l-5.933333-8.466666-1.933333 2v6.466666h-4v-19.333333" fill="#4d5357" stroke-width=".666667"/>
    <path d="m42.789987 5.4860502c-2.936494 0.01187-6.126476 3.8743068-3.111328 8.0488278-3.033967-4.183722-6.824219-0.832211-6.824219 2.53125 0 2.752805 2.221804 4.97461 4.974609 4.97461 1.591984 0 3.018572-0.763008 3.914063-1.923828l-0.199219 1.625c-0.165833 1.193987-0.995464 2.289283-2.189453 2.488281l-1.525391 0.298828v1.857422h9.921876v-1.857422l-1.525391-0.298828c-1.193989-0.198998-2.02362-1.294294-2.189453-2.488281l-0.199219-1.625c0.895491 1.16082 2.322079 1.923828 3.914063 1.923828 2.752805 0 4.974609-2.221805 4.974609-4.97461 0-3.363461-3.790252-6.714972-6.824219-2.53125 3.015148-4.174521-0.174834-8.0369578-3.111328-8.0488278z" fill="#4d5357"/>
</svg>