<svg xmlns="http://www.w3.org/2000/svg" version="1.1" viewBox="0 0 64 64">
    <title>Playing Card Ace Of Clubs</title>
    <path d="M13 62.5c-3 0-5.5-2.5-5.5-5.5V7c0-3 2.5-5.5 5.5-5.5h38c3 0 5.5 2.5 5.5 5.5v50c0 3-2.5 5.5-5.5 5.5H13z" fill="#efeded"/>
    <path d="M51 3c2.2 0 4 1.8 4 4v50c0 2.2-1.8 4-4 4H13c-2.2 0-4-1.8-4-4V7c0-2.2 1.8-4 4-4h38m0-3H13C9.1 0 6 3.1 6 7v50c0 3.9 3.1 7 7 7h38c3.9 0 7-3.1 7-7V7c0-3.9-3.1-7-7-7z" fill="#262626"/>
    <path d="m39.099998 25.799334h-0.04733c0.04733-0.284 0.04733-0.568 0.04733-0.899333 0-3.928666-3.171333-7.099999-7.099999-7.099999s-7.099999 3.171333-7.099999 7.099999c0 0.284 0.04733 0.615333 0.04733 0.899333h-0.04733c-3.928666 0-7.099999 3.171333-7.099999 7.099999s3.171333 7.099999 7.099999 7.099999c2.272 0 4.307333-1.088666 5.585333-2.745333l-0.284 2.319333c-0.236667 1.704-1.42 3.266-3.124 3.55l-2.177333 0.426v2.650666h14.199998v-2.650666l-2.224666-0.426c-1.704-0.284-2.887333-1.846-3.124-3.55l-0.284-2.319333c1.278 1.656667 3.313333 2.745333 5.585333 2.745333 3.928666 0 7.099999-3.171333 7.099999-7.099999s-3.124-7.099999-7.052666-7.099999" fill="#4d5357" stroke-width=".473333"/>
</svg>