<?xml version="1.0" encoding="UTF-8" standalone="no"?>
<svg
   xmlns:dc="http://purl.org/dc/elements/1.1/"
   xmlns:cc="http://creativecommons.org/ns#"
   xmlns:rdf="http://www.w3.org/1999/02/22-rdf-syntax-ns#"
   xmlns:svg="http://www.w3.org/2000/svg"
   xmlns="http://www.w3.org/2000/svg"
   xmlns:sodipodi="http://sodipodi.sourceforge.net/DTD/sodipodi-0.dtd"
   xmlns:inkscape="http://www.inkscape.org/namespaces/inkscape"
   viewBox="0 0 64 64"
   enable-background="new 0 0 64 64"
   version="1.1"
   id="svg60"
   sodipodi:docname="1f1ef-1f1ea.svg"
   inkscape:version="0.92.1 r">
  <title
     id="title4488">Jersey</title>
  <metadata
     id="metadata66">
    <rdf:RDF>
      <cc:Work
         rdf:about="">
        <dc:format>image/svg+xml</dc:format>
        <dc:type
           rdf:resource="http://purl.org/dc/dcmitype/StillImage" />
        <dc:title>Jersey</dc:title>
        <dc:subject>
          <rdf:Bag>
            <rdf:li>flag</rdf:li>
          </rdf:Bag>
        </dc:subject>
        <cc:license
           rdf:resource="http://creativecommons.org/licenses/by-sa/4.0/" />
        <dc:description>U+1F1EF+1F1EA</dc:description>
      </cc:Work>
      <cc:License
         rdf:about="http://creativecommons.org/licenses/by-sa/4.0/">
        <cc:permits
           rdf:resource="http://creativecommons.org/ns#Reproduction" />
        <cc:permits
           rdf:resource="http://creativecommons.org/ns#Distribution" />
        <cc:requires
           rdf:resource="http://creativecommons.org/ns#Notice" />
        <cc:requires
           rdf:resource="http://creativecommons.org/ns#Attribution" />
        <cc:permits
           rdf:resource="http://creativecommons.org/ns#DerivativeWorks" />
        <cc:requires
           rdf:resource="http://creativecommons.org/ns#ShareAlike" />
      </cc:License>
    </rdf:RDF>
  </metadata>
  <defs
     id="defs64">
    <clipPath
       clipPathUnits="userSpaceOnUse"
       id="clipPath4494">
      <ellipse
         ry="30.101696"
         rx="30.508474"
         cy="32"
         cx="32"
         id="ellipse4496"
         style="opacity:1;fill:#2a5f9e;fill-opacity:1;fill-rule:nonzero;stroke:none;stroke-width:5.07943106;stroke-miterlimit:4;stroke-dasharray:none;stroke-opacity:1"
         transform="matrix(-0.86961419,0.49373187,0.49373187,0.86961419,0,0)" />
    </clipPath>
    <clipPath
       clipPathUnits="userSpaceOnUse"
       id="clipPath4498">
      <ellipse
         ry="30.101696"
         rx="30.508474"
         cy="32"
         cx="32"
         id="ellipse4500"
         style="opacity:1;fill:#2a5f9e;fill-opacity:1;fill-rule:nonzero;stroke:none;stroke-width:5.07943106;stroke-miterlimit:4;stroke-dasharray:none;stroke-opacity:1"
         transform="rotate(-29.586163)" />
    </clipPath>
  </defs>
  <sodipodi:namedview
     pagecolor="#ffffff"
     bordercolor="#666666"
     borderopacity="1"
     objecttolerance="10"
     gridtolerance="10"
     guidetolerance="10"
     inkscape:pageopacity="0"
     inkscape:pageshadow="2"
     inkscape:window-width="1299"
     inkscape:window-height="708"
     id="namedview62"
     showgrid="false"
     inkscape:zoom="6.4"
     inkscape:cx="14.180321"
     inkscape:cy="38.871149"
     inkscape:window-x="67"
     inkscape:window-y="27"
     inkscape:window-maximized="1"
     inkscape:current-layer="svg60"
     inkscape:snap-global="false" />
  <g
     id="g4538">
    <path
       id="rect4495"
       d="M 53.953125,11.054688 32,27.695312 10.066406,11.068359 A 30.354879,30.354879 0 0 0 5.921875,16.533203 L 26.322266,31.998047 5.9199219,47.464844 a 30.354879,30.354879 0 0 0 4.1269531,5.480468 L 32,36.304688 53.935547,52.931641 a 30.354879,30.354879 0 0 0 4.144531,-5.466797 L 37.677734,31.998047 58.078125,16.533203 a 30.354879,30.354879 0 0 0 -4.125,-5.478515 z"
       style="opacity:1;fill:#ed4c5c;fill-opacity:1;fill-rule:nonzero;stroke:none;stroke-width:5;stroke-miterlimit:4;stroke-dasharray:none;stroke-opacity:1"
       inkscape:connector-curvature="0" />
    <path
       inkscape:connector-curvature="0"
       id="circle4515"
       d="M 32.000977,1.645508 A 30.354879,30.354879 0 0 0 10.06543,11.069336 L 32.000977,27.696289 53.954102,11.055664 A 30.354879,30.354879 0 0 0 32.000977,1.645508 Z M 5.9208986,16.532227 A 30.354879,30.354879 0 0 0 1.6455076,31.999023 30.354879,30.354879 0 0 0 5.9208986,47.46582 L 26.323243,31.999023 Z m 52.1582034,0.002 -20.40039,15.464843 20.40039,15.466797 A 30.354879,30.354879 0 0 0 62.354492,31.99902 30.354879,30.354879 0 0 0 58.079102,16.534177 Z M 32.000977,36.303711 10.047852,52.944336 a 30.354879,30.354879 0 0 0 21.953125,9.410156 30.354879,30.354879 0 0 0 21.935547,-9.423828 z"
       style="opacity:1;fill:#f9f9f9;fill-opacity:1;fill-rule:nonzero;stroke:none;stroke-width:5.02096415;stroke-miterlimit:4;stroke-dasharray:none;stroke-opacity:1" />
  </g>
  <g
     id="g5091"
     transform="translate(0,-0.44247788)">
    <path
       d="m 36.853055,10.879735 c 1.27413,4.99851 0.58806,11.17314 -4.99851,14.50548 -5.58657,-3.43035 -6.27264,-9.60498 -4.99851,-14.50548 1.27413,-1.2741291 7.25274,-1.9601991 9.99702,0"
       id="path6"
       inkscape:connector-curvature="0"
       style="fill:#ed4c5c;stroke-width:0.98010004" />
    <path
       d="m 36.837756,13.281288 c 0,-0.1 -0.1,-0.2 -0.2,-0.1 -0.4,0.1 -1.5,0.1 -1.8,-0.2 0.5,0.2 1.2,-0.2 1.2,-0.6 0,-0.4 -0.5,-0.8 -1.6,-0.5 -1,0.2 -2.3,0.1 -2.3,-0.2 0,-0.3 0.9,-0.4 1.4,-0.3 0.5,0.1 0.8,0.1 1.7,-0.2 -0.2,0.1 -0.9,0.1 -1.5,0 -0.5,-0.2 -1.9,-0.2 -1.9,0.6 0,0.7 1.4,0.7 2.7,0.5 0.7,-0.1 1.1,0 1.1,0.2 0,0.2 -0.7,0.3 -1.2,0.3 -0.5,0 -1,-0.1 -1.6,0.1 -1.1,0.4 -2.3,0.1 -2.7,-0.4 0,-0.1 0,-0.1 0,-0.2 0.1,-0.1 0.2,-0.2 0.2,-0.3 0.1,-0.3 0,-0.3 -0.3,-0.1 -0.1,-0.1 -0.3,-0.2 -0.6,-0.2 -0.3,0 -0.5,0.1 -0.6,0.2 -0.3,-0.1 -0.4,-0.1 -0.3,0.1 0,0.1 0.1,0.3 0.2,0.3 0,0.4 0.4,1 0.4,1 -0.6,-0.1 -1.3,-1.1 -1.5,-1.6 -0.1,-0.2 -0.3,-0.3 -0.4,-0.3 -0.1,0 -0.2,0.1 -0.1,0.2 0.1,0.1 0.2,0.1 0.2,0.3 -0.1,-0.2 -0.3,-0.2 -0.4,-0.1 -0.1,0.1 0,0.2 0.1,0.2 0.2,0 0.1,0.2 0.2,0.3 -0.2,-0.2 -0.3,-0.2 -0.4,-0.1 -0.1,0.1 0,0.2 0.1,0.2 0.2,0 0.8,0.9 2.3,1.7 0,0.1 -0.3,0.1 -0.5,0.1 -0.4,0 -0.8,0 -1.1,-0.3 -0.2,-0.2 -0.5,-0.4 -0.7,-0.3 -0.1,0.1 0,0.2 0.1,0.2 0.1,0 0.2,0 0.3,0.1 -0.2,-0.1 -0.3,0 -0.4,0 -0.1,0.1 0,0.2 0.1,0.2 0.1,0 0.3,-0.1 0.4,0 -0.1,0 -0.3,0 -0.3,0.1 0,0.1 0,0.2 0.1,0.2 0.2,0 1.8,1 3.1,-0.2 0.2,0 1.5,0 2,-0.4 0.3,0.4 0.4,0.4 0.7,0.4 0.3,0.1 0.5,0.1 0.3,0.2 -0.1,0.1 -0.4,0 -0.6,0 -0.5,0 -0.8,-0.4 -0.9,-0.2 -0.1,0.1 0,0.2 0.2,0.2 -0.2,0 -0.4,0 -0.3,0.2 0.1,0.3 0.3,-0.1 0.4,0.1 -0.1,0 -0.2,0 -0.2,0.1 0,0.1 0.2,0.2 0.4,0 0.1,-0.1 0.3,-0.1 0.4,-0.1 0.4,0 1.2,0.2 1.5,-0.1 0.1,-0.1 0,-0.2 -0.1,-0.3 -0.1,-0.1 -0.1,-0.2 -0.1,-0.5 0.3,0.1 0.7,0.1 1.3,0 0.7,-0.1 0.9,0.1 0.9,0.4 0,0.2 -0.1,0.2 -0.2,0.2 -0.4,0 -0.5,-0.1 -0.7,-0.1 -0.1,0 -0.2,0.2 0,0.2 -0.1,0.1 -0.1,0.2 0,0.2 0.1,0 0.2,0 0.3,0 -0.1,0.1 -0.3,0.2 -0.2,0.3 0,0.1 0.2,0.1 0.3,0 0.1,-0.1 0.3,-0.2 0.5,-0.3 0.6,0 0.8,-0.9 0.6,-1.4"
       id="path10"
       inkscape:connector-curvature="0"
       style="fill:#ffe62e" />
    <path
       d="m 36.542877,17.681288 c 0,-0.1 -0.1,-0.2 -0.2,-0.1 -0.4,0.1 -1.4,0.1 -1.7,-0.2 0.5,0.2 1.1,-0.2 1.1,-0.6 0,-0.4 -0.5,-0.7 -1.5,-0.5 -1,0.2 -2.2,0.1 -2.2,-0.2 0,-0.3 0.9,-0.4 1.3,-0.3 0.4,0.1 0.8,0.1 1.6,-0.2 -0.2,0.1 -0.9,0.1 -1.4,0 -0.5,-0.1 -1.8,-0.1 -1.8,0.5 0,0.7 1.4,0.6 2.5,0.5 0.7,-0.1 1.1,0 1.1,0.2 0,0.2 -0.6,0.3 -1.1,0.2 -0.5,-0.1 -1,-0.1 -1.6,0.1 -1,0.3 -2.2,0.1 -2.5,-0.4 0,0 0,-0.1 0,-0.2 0.1,-0.1 0.1,-0.2 0.2,-0.3 0.1,-0.2 0,-0.3 -0.3,-0.1 -0.1,-0.1 -0.3,-0.2 -0.5,-0.2 -0.3,0 -0.4,0.1 -0.5,0.2 -0.3,-0.1 -0.4,-0.1 -0.3,0.1 0,0.1 0.1,0.3 0.2,0.3 0,0.4 0.4,0.9 0.4,1 -0.5,-0.1 -1.2,-1.1 -1.4,-1.5 -0.1,-0.2 -0.3,-0.3 -0.4,-0.3 -0.1,0 -0.1,0.1 -0.1,0.2 0,0.1 0.2,0.1 0.2,0.3 -0.1,-0.1 -0.3,-0.2 -0.4,-0.1 -0.1,0.1 0,0.2 0.1,0.2 0.2,0 0.1,0.2 0.2,0.3 -0.2,-0.2 -0.3,-0.2 -0.4,-0.1 -0.1,0.1 0,0.2 0.1,0.2 0.2,0 0.8,0.8 2.2,1.6 0,0.1 -0.2,0.1 -0.4,0.1 -0.3,0 -0.8,0 -1,-0.3 -0.2,-0.2 -0.5,-0.4 -0.7,-0.2 -0.1,0.1 0,0.2 0.1,0.2 0.1,0 0.2,0 0.3,0.1 -0.1,-0.1 -0.3,0 -0.4,0 -0.1,0.1 0,0.2 0.1,0.2 0.1,0 0.3,-0.1 0.4,0 -0.1,0 -0.2,0 -0.3,0 -0.1,0.1 0,0.2 0.1,0.2 0.2,0 1.7,1 3,-0.2 0.2,0 1.4,0 1.9,-0.3 0.3,0.4 0.4,0.3 0.7,0.4 0.3,0.1 0.5,0.1 0.3,0.2 -0.1,0.1 -0.3,0 -0.6,0 -0.5,0 -0.7,-0.3 -0.9,-0.2 -0.1,0.1 0,0.2 0.2,0.2 -0.2,0 -0.3,0 -0.3,0.1 0.1,0.3 0.3,0 0.4,0.1 -0.1,0 -0.2,0 -0.2,0.1 0,0.1 0.2,0.2 0.4,0 0.1,-0.1 0.3,-0.1 0.4,-0.1 0.3,0 1.1,0.2 1.4,-0.1 0.1,-0.1 0,-0.2 -0.1,-0.3 -0.1,-0.1 -0.1,-0.2 -0.1,-0.5 0.3,0.1 0.7,0.1 1.2,0 0.6,-0.1 0.8,0.1 0.8,0.4 0,0.2 -0.1,0.2 -0.2,0.2 -0.3,0 -0.5,-0.1 -0.6,-0.1 -0.1,0 -0.1,0.2 0,0.2 -0.1,0.1 -0.1,0.2 0,0.2 0.1,0 0.2,0 0.3,0 -0.1,0.1 -0.3,0.2 -0.2,0.3 0,0.1 0.2,0.1 0.3,0 0.1,-0.1 0.3,-0.2 0.4,-0.2 0.3,0 0.6,-0.8 0.4,-1.3"
       id="path12"
       inkscape:connector-curvature="0"
       style="fill:#ffe62e" />
    <path
       d="m 35.214292,21.481288 c 0,-0.1 -0.1,-0.1 -0.2,-0.1 -0.3,0.1 -1,0 -1.3,-0.1 0.4,0.1 0.8,-0.2 0.8,-0.4 0,-0.3 -0.4,-0.5 -1.1,-0.4 -0.7,0.2 -1.6,0.1 -1.6,-0.1 0,-0.2 0.6,-0.3 1,-0.2 0.3,0 0.6,0.1 1.2,-0.1 -0.1,0.1 -0.6,0.1 -1,0 -0.4,-0.1 -1.3,-0.1 -1.3,0.4 0,0.5 1,0.5 1.9,0.3 0.5,-0.1 0.8,0 0.8,0.1 0,0.2 -0.5,0.2 -0.8,0.2 -0.4,0 -0.7,0 -1.1,0.1 -0.8,0.2 -1.6,0.1 -1.9,-0.3 0,0 0,-0.1 0,-0.2 0.1,-0.1 0.1,-0.2 0.1,-0.2 0.1,-0.2 0,-0.2 -0.2,-0.1 -0.1,-0.1 -0.2,-0.1 -0.4,-0.1 -0.2,0 -0.3,0 -0.4,0.1 -0.2,-0.1 -0.3,-0.1 -0.2,0.1 0,0.1 0.1,0.2 0.1,0.2 0,0.3 0.3,0.7 0.3,0.7 -0.4,0 -0.9,-0.8 -1,-1.1 0,-0.1 -0.2,-0.2 -0.3,-0.2 -0.1,0 -0.1,0.1 0,0.1 0.1,0.1 0.2,0.1 0.2,0.2 -0.1,-0.1 -0.2,-0.1 -0.3,-0.1 0,0 0,0.1 0.1,0.1 0.1,0 0.1,0.1 0.1,0.2 -0.1,-0.1 -0.2,-0.1 -0.3,0 0,0 0,0.1 0.1,0.1 0.1,0 0.6,0.6 1.6,1.2 0,0.1 -0.2,0.1 -0.3,0.1 -0.2,0 -0.6,0 -0.7,-0.2 -0.1,-0.2 -0.4,-0.3 -0.5,-0.2 -0.1,0.1 0,0.2 0.1,0.1 0.1,-0.1 0.1,0 0.2,0.1 -0.1,0 -0.2,0 -0.3,0 -0.1,0.1 0,0.2 0.1,0.1 0.1,0 0.2,-0.1 0.3,0 -0.1,0 -0.2,0 -0.2,0 0,0 0,0.1 0.1,0.1 0.2,0 1.3,0.7 2.2,-0.1 0.1,0 1.1,0 1.4,-0.3 0,0.5 0.1,0.5 0.3,0.5 0.2,0 0.3,0 0.2,0.2 0,0 -0.3,0 -0.4,0 -0.4,0 -0.5,-0.3 -0.6,-0.1 -0.1,0.1 0,0.2 0.1,0.2 -0.1,0 -0.2,0 -0.2,0.1 0,0.2 0.2,0 0.3,0 -0.1,0 -0.2,0 -0.2,0.1 0,0.1 0.1,0.1 0.3,0 0.1,-0.1 0.2,-0.1 0.3,-0.1 0.3,0 0.8,0.1 1,-0.1 0.1,-0.1 0,-0.1 -0.1,-0.2 -0.1,-0.1 -0.1,-0.2 -0.1,-0.3 0.2,0 0.5,0 0.9,0 0.5,-0.1 0.6,0.1 0.6,0.3 0,0.1 -0.1,0.2 -0.1,0.2 -0.3,0 -0.4,-0.1 -0.5,-0.1 -0.1,0 -0.1,0.1 0,0.2 -0.1,0 -0.1,0.1 0,0.1 0,0 0.1,0 0.2,0 -0.1,0 -0.2,0.1 -0.1,0.2 0,0 0.1,0.1 0.2,0 0.1,-0.1 0.2,-0.2 0.3,-0.2 0.3,-0.1 0.5,-0.7 0.3,-1.1"
       id="path14"
       inkscape:connector-curvature="0"
       style="fill:#ffe62e" />
    <path
       d="m 31.704545,9.6812882 c 2.1,0 4,0.5999998 5.2,1.2999998 0.2,-1.7999998 1,-3.4999998 2,-4.7999998 -1,0 -1.4,0.5 -1.4,1 -0.2,-0.7 -1.2,-0.7 -1.5,-0.3 1.1,0.7 0.2,2 -0.7,1.7 -0.5,-0.1 -0.7,-0.4 -0.8,-0.9 0.3,0 0.5,-0.3 0.5,-0.6 0,-0.3 -0.3,-0.5 -0.6,-0.5 -0.3,0 -0.5,0.3 -0.5,0.6 0,0.2 0.1,0.4 0.3,0.5 -0.3,0.5 -0.9,0.6 -1.2,0.5 -0.5,-0.1 -0.7,-0.6 -0.7,-1 0,-1.1 1,-1.2 1.3,-1 0,-0.7 -1.1,-1.3 -1.5,-0.7 0.4,-0.7 0.4,-1.7 -0.3,-2.3 -0.7,0.7 -0.7,1.6 -0.3,2.3 -0.3,-0.6 -1.5,0 -1.5,0.7 0.3,-0.2 1.3,0 1.3,1 0,0.4 -0.2,0.9 -0.7,1 -0.4,0.1 -0.9,0 -1.2,-0.5 0.3,-0.1 0.4,-0.4 0.3,-0.7 -0.1,-0.3 -0.4,-0.4 -0.7,-0.3 -0.3,0.1 -0.4,0.4 -0.3,0.7 0.1,0.2 0.3,0.3 0.5,0.3 -0.1,0.5 -0.3,0.8 -0.8,0.9 -1,0.3 -1.8,-1 -0.7,-1.7 -0.3,-0.4 -1.3,-0.4 -1.5,0.3 0,-0.5 -0.4,-1.1 -1.4,-1 0.9,1.3 1.7,3.1 2,4.7999998 0.9,-0.7 2.8,-1.2999998 4.9,-1.2999998"
       id="path16"
       inkscape:connector-curvature="0"
       style="fill:#ffe62e" />
  </g>
</svg>
