<svg xmlns="http://www.w3.org/2000/svg" viewBox="0 0 64 64">
	<title>UN flag emoji</title>
	<desc>U+1F1FA+1F1F3, Flag for the United Nations, based upon https://commons.wikimedia.org/wiki/File:Small_Flag_of_the_United_Nations_ZP.svg</desc>
	<circle cx="32" cy="32" r="30" fill="#5B92E5"/>
<!--	<line x1="32" y1="0" x2="32" y2="64" stroke="gray"/>
	<line y1="32" x1="0" y2="32" x2="64" stroke="gray"/>-->
	<g fill="white" transform="scale(0.11) translate(46.5,56)"><!-- slightly atop of center -->
		<g>
			<path d="M396.088,372.924c-13.702,3.674-28.326,4.854-41.632,9.397c22.539-19.344,21.253-49.277,36.289-72.063 c4.793-6.449,8.751-13.211,14.336-19.335c-9.147,18.368-5.181,42.199-15.69,60.021c-4.046,7.082-9.828,13.949-16.229,19.512 c2.092-0.081,3.922-1.89,5.76-3.103c17.066-17.05,39.365-21.816,57.832-35.669c7.396-5.899,14.17-13.631,17.42-21.99 C450.678,337.985,422.564,364.497,396.088,372.924L396.088,372.924z"/>
			<path d="M457.578,258.396c-8.349,11.896-18.455,22.968-26.168,35.057c0.859-9.569,1.992-21.341-1.729-30.407 c-6.457-19.525-12.129-39.35-13.958-60.777l0.252-8.194c4.857,21.881,26.335,36.925,24.98,61.472 c0.491,5.949-1.351,11.006-2.463,16.238l0.372,0.386l0.966-1.085c3.187-12.04,4.793-24.701,9.743-35.936 c7.037-16.165,15.825-32.48,12.243-51.999C472.522,206.163,469.277,236.908,457.578,258.396L457.578,258.396z"/>
			<path d="M444.397,134.415c14.081,19.103,17.17,49.545,6.913,71.458c-3.823,9.284-6.523,19.179-8.026,29.457 c-0.715-1.772-0.881-4.155-1.521-6.13c-5.601-21.448-25.865-36.733-34.2-56.956c-2.643-6.611-4.896-13.445-6.145-20.622 c8.903,16.484,30.851,25,36.831,43.169c2.453,4.594,2.313,10.336,3.836,15.276c0.317,0,0.637-0.237,0.637-0.561 c-2.631-18.714-1.829-38.302,0.709-56.786c-0.146-10.011-1.122-19.723-6.678-27.473 C440.316,127.323,441.92,131.315,444.397,134.415L444.397,134.415z"/>
			<path d="M434.467,130.747c3.701,16.739-1.702,33.043,1.696,49.943l-0.128,0.144 c-9.098-17.906-28.411-26.359-41.702-40.691c-7.703-8.505-11.049-18.87-12.977-29.845c7.613,18.376,28.165,22.426,39.96,37.91 c3.949,3.569,5.233,8.516,7.78,12.563l0.416-0.402c-6.784-14.497-9.058-30.809-13.792-46.27 c-2.367-6.698-7.073-13.281-13.383-17.504C417.826,99.763,431.247,115.945,434.467,130.747L434.467,130.747z"/>
			<path d="M393.067,92.359c11.664,10.448,16.938,23.974,20.344,37.993l1.928,4.451 c-16.929-12.185-32.304-28.567-43.114-45.868l-13.2-13.368C370.627,80.491,383.139,83.431,393.067,92.359L393.067,92.359z"/>
			<path d="M125.725,77.784c-11.701,10.267-19.818,23.254-28.497,35.362c-7.779,9.644-17.734,16.003-26.556,24.294 c4.762-9.88,4.938-21.684,11.689-30.759C91.972,89.897,109.794,83.993,125.725,77.784L125.725,77.784z"/>
			<path d="M61.733,113.539c5.691-7.082,12.905-12.002,21.024-14.081c-15.766,10.841-14.739,30.268-19.737,46.416 c-1.593,5.972-4.359,11.473-5.738,17.595l0.399,0.319c2.623-6.921,7.234-13.459,12.987-19.106 c11.198-10.346,27.761-16.795,33.248-32.099c-0.251,21.267-17.974,37.988-34.936,49.94c-6.992,6.142-13.737,13.141-17.588,21.036 c-0.377-5.366,0.792-10.753,0.411-16.5C49.96,148.495,48.622,127.303,61.733,113.539L61.733,113.539z"/>
			<path d="M29.836,177.025c-0.474-18.814,7.328-34.173,18.32-48.189c0.319-0.159,0.546-0.479,0.958-0.404 c-12.101,18.407-2.091,41.592-2.642,62.521l-1.596,21.428c0.237,0.156,0.237,0.799,0.799,0.553 c0.715-2.389,0.872-4.941,1.348-7.397c2.853-17.285,17.849-29.55,30.947-41.495c2.797-3.124,5.271-6.296,6.706-9.962 c-1.07,8.605-3.766,17.287-7.333,25.246c-10.194,19.9-29.027,36.229-32.467,59.011C43.208,216.503,28.355,200.18,29.836,177.025 L29.836,177.025z"/>
			<path d="M20.682,203.778c1.354-5.884,2.39-11.974,4.95-17.372c-4.847,24.87,11.865,42.792,17.347,64.352 c2.295,8.063,2.857,16.724,6.136,24.29c0.306,0.164,0.571-0.154,0.76-0.399c-8.163-22.899,3.621-44.181,15.46-62.112 c2.879-4.859,4.539-10.269,5.97-15.854c1.26,10.366-1.359,22.3-2.864,33.063c-2.879,13.692-7.176,26.679-10.917,39.966 c-2.463,8.301-1.814,17.669-0.55,26.366l-1.188-0.948c-8.679-16.022-25.868-28.519-30.973-46.025 C20.614,235.149,17.821,218.983,20.682,203.778L20.682,203.778z"/>
			<path d="M19.898,252.354c1.911,26.364,30.231,40.294,43.363,62.119c3.105,4.467,5.8,9.407,9.951,13.145 c-0.647-2.807-3.267-5.171-4.228-8.048c-4.593-9.154-6.268-20.063-5.164-31.125c1.271-13.466,6.916-25.964,4.762-40.127 c11.536,24.9,8.03,55.976,14.482,82.952c1.689,5.899,5.102,11.168,7.337,16.809C66.7,331.921,34.38,316.546,23.867,286.933 C19.433,276.722,18.938,264.079,19.898,252.354L19.898,252.354z"/>
			<path d="M34.056,312.895c13.217,29.924,46.311,32.404,68.503,50.625c4.083,3.625,8.36,6.703,12.972,8.854 l0.238-0.241c-5.095-4.61-10.989-9.86-14.555-15.838c-12.989-18.076-8.42-43.399-18.15-62.839 c8.84,10.585,16.881,21.593,22.222,33.604c7.939,19.607,10.974,41.752,29.346,56.572c-19.884-6.56-43.177-4.729-60.727-16.982 C54.744,354.858,37.641,334.865,34.056,312.895L34.056,312.895z"/>
			<path d="M68.021,368.72c21.189,24.12,55.811,16.072,84.034,22.384c3.988,0.548,7.636,2.146,11.862,1.497 c-3.363-2.132-8.034-1.898-11.705-3.836c-22.125-7.78-25.369-31.757-37.38-47.923c15.341,10.199,28.244,23.954,42.397,37.284 c10.174,8.921,22.424,13.04,35.325,15.665c-3.1,1.133-7.166,0.824-10.494,1.694c-23.184,5.707-48.938,15.036-73.525,6.686 C92.553,397.133,76.062,384.483,68.021,368.72L68.021,368.72z"/>
			<path d="M355.606,424.946c-23.876,8.918-48.796-0.406-67.441-14.562c-7.554-4.805-14.206-11.723-23.973-11.111 c-3.544-0.067-6.959,0.107-9.969,0.979c18.114,8.439,34.946,20.073,50.334,34.951c-2.595,2.965-5.953,5.737-9.119,8.292 c-14.827-15.992-31.246-31.385-49.633-40.376c-3.604,0.469-7.025,2.634-10.275,4.38c-14.968,9.473-29.769,21.66-40.897,36.579 l-9.563-7.906c15.262-15.452,32.143-27.482,50.612-36.074c-18.149-5.756-29.992,9.462-43.769,17.204 c-16.052,11.219-39.136,16.487-58.533,8.746c-10.433-3.961-20.541-9.796-28.095-19.275c15.267,10.529,38.003,11.632,55.364,4.794 c23.297-10.114,47.509-22.938,75.594-16.805c4.384,0.078,8.643,4.444,12.784,0.724c20.875-5.425,44.508-1.694,62.479,7.855 l18.523,7.432c17.217,6.374,39.477,4.612,54.233-5.889C376.674,414.336,366.309,421.108,355.606,424.946L355.606,424.946z"/>
			<path d="M381.194,400.25c-26.809,10.133-53.777-2.306-79.463-6.459l-4.948-0.63v-0.156 c12.283-2.788,24.206-6.448,33.982-15.285c14.396-13.852,27.212-28.11,43.201-39.028c-11.857,15.217-13.114,36.878-32.702,46.662 c-4.848,3.177-10.967,3.738-15.97,6.142c7.135,0.154,13.665-2.405,20.733-3.119c26.263-4.128,56.312,0.106,74.738-22.289 C413.927,381.693,396.795,394.762,381.194,400.25L381.194,400.25z"/>
			<path d="M429.902,324.754c-10.586,6.933-21.319,13.364-31.492,21.251v-0.97 c15.582-25.922,7.963-61.532,17.566-90.06l3.581-9.558c-2.006,17.772,5.708,32.826,5.166,50.659 c-0.541,10.771-4.055,20.325-9.706,28.927h0.959c7.635-10.036,13.596-20.711,22.518-30.272 c13.852-13.368,27.932-27.076,29.75-45.628C472.945,280.073,455.584,307.218,429.902,324.754L429.902,324.754z"/>
		</g>
		<polygon points="241.847,257.258 246.651,257.258 246.651,377.973 241.847,377.973 "/>
		<polygon points="215.772,245.401 219.166,248.803 133.825,334.097 130.432,330.695 "/>
		<polygon points="207.614,220.254 207.608,225.062 87.01,224.918 87.015,220.109 "/>
		<polygon points="219.065,196.974 215.665,200.37 130.405,115 133.801,111.601 "/>
		<polygon points="246.6,187.057 241.795,187.055 241.907,66.338 246.708,66.343 "/>
		<polygon points="270.733,198.573 267.342,195.168 352.731,109.925 356.126,113.33 "/>
		<polygon points="280.048,225.439 280.043,220.632 400.639,220.482 400.648,225.29 "/>
		<polygon points="266.123,250.011 269.517,246.605 354.865,331.894 351.472,335.297 "/>
		<path d="M289.224,101.857c-66.416-24.851-140.47,8.938-165.3,75.424c-24.823,66.486,8.93,140.611,75.35,165.462 c66.419,24.854,140.471-8.938,165.302-75.422C389.405,200.84,355.646,126.71,289.224,101.857z M359.37,265.373 c-23.755,63.609-94.608,95.934-158.152,72.158s-95.836-94.698-72.086-158.303c23.755-63.605,94.607-95.932,158.149-72.157 C350.828,130.847,383.122,201.766,359.37,265.373z"/>
		<path d="M278.922,129.454c-51.199-19.158-108.289,6.891-127.425,58.139c-19.137,51.25,6.885,108.397,58.083,127.555 c51.198,19.157,108.289-6.891,127.429-58.143C356.142,205.754,330.124,148.612,278.922,129.454z M331.771,255.05 c-18.059,48.358-71.928,72.935-120.234,54.856c-48.312-18.073-72.867-71.993-54.808-120.352 c18.062-48.358,71.928-72.934,120.238-54.856C325.276,152.772,349.831,206.692,331.771,255.05z"/>
		<path d="M268.925,156.219c-36.438-13.634-77.068,4.906-90.691,41.381c-13.622,36.475,4.898,77.144,41.338,90.779 c36.438,13.639,77.07-4.901,90.698-41.376C323.889,210.525,305.369,169.856,268.925,156.219z M305.477,245.21 c-12.637,33.826-50.314,51.018-84.112,38.375c-33.796-12.646-50.97-50.364-38.339-84.192c12.634-33.826,50.314-51.02,84.11-38.375 C300.932,173.663,318.11,211.38,305.477,245.21z"/>
		<path d="M257.683,186.329c-19.833-7.423-41.952,2.669-49.366,22.525c-7.415,19.86,2.665,41.999,22.502,49.418 c19.84,7.424,41.952-2.668,49.37-22.524C287.602,215.889,277.521,193.751,257.683,186.329z M275.004,233.809 c-6.347,16.991-25.271,25.626-42.245,19.275c-16.979-6.353-25.606-25.297-19.261-42.29c6.346-16.992,25.275-25.627,42.245-19.274 C272.726,197.871,281.349,216.815,275.004,233.809z"/>
		<path d="M319.177,82.791c-77.689-42.794-174.308-15.027-215.667,61.982c-41.36,77.008-11.873,174.244,65.815,217.039 c77.688,42.793,174.313,15.023,215.668-61.986C426.354,222.819,396.865,125.587,319.177,82.791z M379.883,297.01 c-39.857,74.215-132.97,100.976-207.836,59.734C97.178,315.503,68.761,221.8,108.621,147.587 c39.857-74.21,132.971-100.971,207.839-59.729C391.327,129.099,419.739,222.798,379.883,297.01z"/>
		<path d="M338.029,296.912c0.089,0.824-0.191,2.859,0.191,3.323c0.399,0.633,1.886,0.501,2.531,0.276 c1.76-0.663,3.514-2.992,4.325-4.739c0.571-0.886,0.961-1.924,0.835-3.086l-1.232-3.737c-0.31-1.309-0.724-3.613-2.12-4.158 c0.132-0.343,0.575-0.887,0.521-1.384c-0.323-1.477-2.787-1.089-3.67-0.006c-0.443,0.543-0.317,1.702-0.41,2.377 c-0.029,1.344-0.4,4.052-0.937,5.272c-0.533,1.215-2.029,2.857-2.047,4.197C336.125,296.242,337.188,296.815,338.029,296.912 L338.029,296.912z M256.021,286.545l0.439,0.965c0.019,0.167,0.216,0.482,0.386,0.469c1.117,1.07,2.68-1.412,0.813-1.746 c-0.169,0.015-0.514-0.122-0.663,0.059C256.668,286.322,256.334,286.351,256.021,286.545L256.021,286.545z M257.258,284.094 c-0.754,0.734-1.028,1.264,0.198,1.818L257.258,284.094L257.258,284.094z M237.345,269.49c-1.212,1.112-1.124,0.438-1.741,0.828 c-0.463,0.372-0.081,0.84-0.502,1.548c-0.133,0.345-0.611,0.558-0.574,0.888c-0.109,0.51,0.419,0.799,0.934,0.919 c0.678,0.106,2.663-0.071,3.281-0.459c0.615-0.559,0.374-1.204,0.652-1.732c0.148-0.181,0.444-0.542,0.591-0.724 C240.06,269.916,238.282,268.904,237.345,269.49L237.345,269.49z M285.164,264.362l0.181,1.653l-0.192,1.357 c1.799-0.332,2.904-0.932,4.503-1.577c0.476-0.209,1.433-0.632,1.802-0.328c0.527,0.288,0.247,0.813,0.117,1.159 c-0.257,0.691-1.288,1.957-1.729,2.498c-1.345,1.458-3.324,1.637-5.002,3.126c-0.901,0.917-1.141,1.774-2.048,2.693 c-0.897,0.914-1.544,1.138-2.003,1.515c-0.443,0.542-0.074,0.843-1.012,1.428l0.535-1.216c-0.511-0.123-1.175-0.063-1.562-0.532 c-0.216-0.479-0.27-0.979-0.158-1.49c0.226-1.022,0.434-3.717,1.027-4.439c0.148-0.182,1.435-0.633,1.907-0.841l-0.217,1.024 c0.495-0.044,1.315-0.118,1.627-0.313c0.81-0.241,1.623-1.989,2.048-2.693l-2.243,0.871 C283.133,267.218,284.239,265.112,285.164,264.362L285.164,264.362z M240.832,269.345c-0.335,1.537,0.603,0.948,1.169,1.568 c0.366,0.299,0.419,0.798,0.472,1.296l-1.304,0.284l-0.571,0.886l-0.737,0.903l2.238,0.636c-1.121,0.435-1.799,0.329-2.517,1.398 l2.805-0.255c1.834,0.003,3.212,0.383,4.938-0.609l-0.365-0.3l0.501-1.553l-1.244-0.723l-0.44-0.963l-2.099-2.488l-0.695-0.271 c0.59-0.724,1.783-2.002,0.079-2.352l-0.841-0.09l0.737-0.903c-1.014-0.075-1.854-0.168-2.611,0.571 C239.461,267.462,239.438,268.8,240.832,269.345L240.832,269.345z M239.855,247.858l-0.038,1.172l-0.384-0.467l0.047,2.003 c0.293,1.143,1.58,0.694,1.874,0.332c0.313-0.193,0.405-0.874,0.37-1.202c-0.033-0.33-0.236-0.648-0.417-0.799 c-0.35-0.137-0.515-0.122-0.848-0.095l-0.106-0.989L239.855,247.858L239.855,247.858z M103.728,258.411 c-0.064,2.515,0.599,2.454,1.158,4.579c0.293,1.145-0.169,1.52,0.74,3.779c0.44,0.966,0.708,1.943,1.754,2.352 c-0.301-2.816-0.646-4.456-1.59-7.046c-0.674-1.612-1.188-1.733-1.732-3.694L103.728,258.411L103.728,258.411z M331.937,230.892 c-0.79,0.404-1.069,0.932-0.979,1.758c-0.078,0.846,0.655,1.449,1.462,1.208C333.542,233.423,333.736,230.561,331.937,230.892 L331.937,230.892z M175.785,230.529c-0.405,0.874-0.481,1.717,0.416,2.306C176.11,232.009,176.351,231.149,175.785,230.529 L175.785,230.529z M224.575,231.336l0.55,0.451c1.213-1.112,1.473-1.806,2.357-2.888c0.735-0.903,1.232-0.948,1.692-1.323 c0.294-0.363,0.256-0.694,0.368-1.205c0.262-0.694,0.738-0.902,0.616-2.062c0.057-1.008-0.599-2.454-1.737-2.186l-0.256-0.813 c-0.497,0.042-1.304,0.283-1.764,0.659c-0.459,0.376-0.224,1.024-0.829,1.581c-0.738,0.9-2.021,1.353-2.335,1.547 c-0.479,0.212-0.257,0.693-1.034,1.266c-1.083,0.766-1.798,0.327-2.441,0.553c-0.807,0.24-2.007,1.518-2.613,2.074 c-0.884,1.083-1.143,1.777-1.512,2.98c-0.129,0.345-0.407,0.873-0.207,1.191c0.2,0.316,0.696,0.27,1.009,0.075 c0.643-0.224,2.059-1.019,2.573-0.899c0.495-0.046,0.695,0.272,1.044,0.408c0.514,0.119,0.842,0.091,1.193,0.226 c0.344,0.139,0.729,0.605,1.097,0.905c0.876,0.422,1.763-0.66,2.022-1.351C224.499,232.178,224.625,231.831,224.575,231.336 L224.575,231.336z M225.532,218.538l0.02,0.165l-0.184-0.148L225.532,218.538L225.532,218.538z M226.996,219.744 c0.439,0.964,2.052,1.989,2.965,2.745c0.314-0.195,0.459-0.376,0.589-0.722c0.408-0.874,0.231-2.532-0.651-2.953 c-0.529-0.287-1.174-0.062-1.651,0.149c-0.021-0.166-0.237-0.647-0.418-0.799C226.529,216.942,224.904,220.434,226.996,219.744 L226.996,219.744z M220.087,217.522c1.116,1.071,1.133,1.234,2.621,1.102c-0.226,1.023-1.549,2.649-2.63,1.91 c-0.715-0.439-0.785-1.103-1.132-1.237c-0.533-0.288-0.572,0.886-0.868,1.247c-0.702,1.234-1.875,1.173-1.991,3.19l0.626-0.394 c0.636,1.283,1.816-0.16,2.605-0.566c-0.144,0.18-0.442,0.543-0.569,0.887c-0.114,0.514,0.437,0.967,0.914,0.754 c0.478-0.21,1.051-1.099,1.508-1.474c0.461-0.375,0.626-0.39,1.104-0.602c0.459-0.374,1.067-0.93,1.529-1.307 c1.382-1.126,1.45-0.464,1.936-2.18c-0.04-0.331,0.109-0.511,0.074-0.843c-0.658-1.446-3.026-0.229-3.212-0.38l-1.026-0.243 C221.225,217.251,220.582,217.477,220.087,217.522L220.087,217.522z M227.721,217.171l-0.825,0.074l0.222,0.481 c0.974-0.255,1.631-0.314,1.672-1.488C227.964,216.312,227.799,216.328,227.721,217.171L227.721,217.171z M175.693,220.337 l-0.768,3.75l0.342,1.64l0.688,3.285c0.425-0.706,1.185-2.949,1.262-3.792l0.187-1.356c0.06-1.009,0.188-1.353-0.249-2.317 l-1.071,0.931l-0.065-2.168L175.693,220.337L175.693,220.337z M229.432,216.012c-0.107-0.993,0.077-0.842,0.92-0.751l-0.013-1.67 c-0.479,0.21-1.138,0.27-1.6,0.645C228.001,215.137,228.093,215.967,229.432,216.012L229.432,216.012z M224.521,213.779l0.565,0.617 c1.139-0.27,1.506,0.03,2.533,0.274l-0.403-0.635l0.425-0.707c0.991-0.087,1.068-0.932,0.65-1.729 c-0.184-0.152-0.534-0.286-0.715-0.438c-1.779-1.01-1.948,0.51-2.37,1.217L224.521,213.779L224.521,213.779z M228.799,213.227 c0.33-0.03,0.664-0.058,0.977-0.253c0.606-0.557,0.266-2.199-0.271-2.483c-0.512-0.122-0.787,0.404-0.752,0.734l-0.115,0.514 l0.09,0.827L228.799,213.227L228.799,213.227z M175.701,217.327c0.59-0.723,0.794-1.911,0.874-2.755 C175.47,215.174,175.576,216.167,175.701,217.327L175.701,217.327z M181.553,206.598c0.159,1.491-0.028,2.845-0.55,4.23 c-0.663,1.566-2.265,3.716-2.603,5.251l-0.383-0.467c-0.717,1.069-0.802,3.418-0.343,4.546c0.9-0.915,1.103-2.106,1.66-3.158 c1.09-2.272,2.545-4.242,3.105-6.801c0.095-0.678,0.231-2.53-0.177-3.163C182.065,206.719,181.9,206.735,181.553,206.598 L181.553,206.598z M331.964,210.985c0.869-1.25,1.099-3.778,1.431-5.314c0.785-3.581,2.441-5.234,1.959-9.707 c-0.107-0.994-0.487-2.967-1.675-3.197c-1.853-0.167-1.091,2.272-1.202,2.785c0.053,0.497-0.079,0.844-0.209,1.189 c-0.812,1.745-0.432,3.718-0.403,5.555l-0.351,6.052L331.964,210.985L331.964,210.985z M305.215,182.447 c0.034,0.331,0.218,0.482,0.42,0.799c0.184,0.151,0.363,0.3,0.549,0.452c1.063,0.573,1.616-0.478,1.213-1.114 c-0.196-0.316-0.875-0.423-1.209-0.392C305.86,182.224,305.526,182.251,305.215,182.447L305.215,182.447z M329.924,179.559 c0.158,1.491,0.757,3.948,1.396,5.228l1.457,2.711l1.722,5.198c0.887-1.083,0.415-2.379,0.126-3.524 c-0.746-2.275-1.82-4.519-2.715-6.611C331.289,181.444,330.842,180.312,329.924,179.559L329.924,179.559z M320.795,176.866 l-0.134,1.852l-2.26-0.801c-0.033,1.177,0.49,2.968,1.423,3.887l1.813,1.342c1.464,1.206,2.946,2.58,4.265,3.966 c1.154,1.402,1.202,1.9,1.605,2.531c0.365,0.3,0.729,0.604,1.207,0.395c0.313-0.196,0.39-1.039,0.52-1.387l0.553-1.051 c0.24-0.858-0.395-2.138-0.813-2.937l-1.091-2.411c-0.458-1.13-0.734-2.109-1.498-3.044c-1.301-1.221-2.292-1.133-3.662-1.512 L320.795,176.866L320.795,176.866z M274.841,179.153c-0.099,0.679-0.154,1.688-0.961,1.929c-0.166,0.015-0.841-0.092-1.027-0.243 l-0.631,1.896c-0.277,0.525-0.802,1.911-0.739,2.408c-0.08,0.843,1.076,0.739,1.662,0.018c0.613-0.558,0.688-1.4,1.115-2.107 c0.683-1.399,1.946-2.016,2.099-3.701L274.841,179.153L274.841,179.153z M326.037,172.882c0.491,1.461,0.837,1.599,1.64,2.865 c0.42,0.798,0.31,1.31,1.28,1.057C328.376,176.018,326.754,173.32,326.037,172.882L326.037,172.882z M256.774,181.779 c-1.854-0.166-0.632,1.897-0.874,2.755c-0.402,0.872-2.261,2.211-3.161,1.621c-0.477,0.211-0.972,0.256-1.487,0.134 c-0.51-0.122-0.874-0.422-1.37-0.378l-2.632,1.91c-0.462,0.375-1.085,0.766-1.746,0.825c-0.495,0.045-1.154,0.103-1.45,0.465 c-0.459,0.375-0.026,1.34,0.196,1.82l0.785,1.102c-1.617,0.479-1.492,1.639-1.334,3.13c0.092,0.828,0.41,3.81,0.646,4.458 c0.256,0.815,1.338,1.554,2.196,1.809c0.535,0.289,1.376,0.377,1.87,0.335l0.117-2.018l0.498-0.044l0.508,1.627 c0.163-0.016,0.496-0.044,0.662-0.061l2.055,0.485c0.183,0.151,0.183,0.151,0.364,0.3c0.218,0.482-0.187,1.355-0.134,1.852 c0.289,1.144,1.483,1.373,2.473,1.283c-0.023,1.339,0.107,0.994,0.03,1.837c0.089,0.829-0.405,0.874,0.613,2.622 c0.2,0.315,0.62,1.114,1.114,1.069c0.502-0.044,1.529-1.307,2.63-1.907c0.256,0.812,0.274,0.979,0.986,1.417l-0.239,0.856 l1.876-1.172c-0.559,2.561-1.621,1.986-2.783,3.594c-0.407,0.875-0.151,1.687-0.394,2.545l0.184,0.15l0.626-0.392l0.477-0.208 c1.464-0.301,0.328,1.475,0.36,1.806c0.052,0.498,0.402,0.633,0.749,0.768l-0.773,0.571l0.458,1.131l-2.976,0.267 c-1.468,0.299-2.686,1.413-3.916,2.359l0.036,0.331l0.511,0.121l-2.847,1.426c0.858,0.257,1.982-0.178,2.809-0.252 c0.81-0.241,0.66-0.057,1.637-0.316l0.529,0.289l-0.098,0.678l3.631,1.177c0.86,0.257,1.488-0.133,2.02,0.153 c0.713,0.438,0.474,1.297,1.666,1.522c1.375,0.378,2.462-0.388,3.596-0.657l-1.344,1.458l0.623,1.116l1.616-0.48 c-1.2,1.278-1.141,0.271-3.45,0.478c0.527,0.287,2.102,0.98,2.452,1.118c0.864,0.259,1.321-0.122,2.532,0.275 c1.026,0.24,2.271,0.967,2.604-0.572c0.202,0.318,0.404,0.634,0.585,0.786c0.534,0.287,0.862,0.257,1.379,0.378 c0.68,0.105,2.285,1.132,2.214,1.975c-0.148,0.182-0.298,0.362-0.443,0.542c-0.225-0.482-0.438-0.962-0.823-1.429 c-0.947-1.088-2.403-0.622-3.594-0.851l-2.404-0.619l-1.852-0.168c-1.007-0.078-1.573-0.694-2.565-0.605 c-0.332,0.029-0.812,0.24-0.769,0.571c0.032,0.328,0.396,0.633,0.581,0.782c1.063,0.573,0.678,0.106,2.29,1.131 c0.899,0.588,1.209,0.395,2.069,0.65l0.883,0.425c0.678,0.104,0.808-0.241,1.486-0.135c0.325-0.029,1.007,0.078,1.356,0.213 l-2.868,1.259l-2.2-0.302c0.438,0.964,0.623,1.115-0.115,2.016l-0.402-0.632c-0.445,0.539-0.404,0.873-0.848,1.412l-0.736,0.903 c-0.13,0.346-0.571,0.888-0.904,0.917c-0.498,0.045-1.059-0.574-1.43-0.876c-0.712-0.438-1.046-0.409-1.854-0.169 c0.608,0.951,0.92,0.754,1.794,1.177c0.718,0.438,2.546,1.944,3.115,2.564c-0.168,0.014-0.334,0.029-0.462,0.376 c-0.291,0.361,0.026,1.836,0.414,2.304c0.365,0.303,0.715,0.438,1.209,0.396l-1.971,1.851c0.863,0.254,1.175,0.059,1.908,0.662 l-1.656,0.147l-2.178-1.643l-2.271-0.969c0.847,0.093,2.186,0.14,2.976-0.266c1.412-0.796,0.742-2.407-0.357-3.314 c-0.715-0.439-1.208-0.394-2.05-0.484c-0.679-0.105-1.722-0.516-2.389-0.457l-1.799,0.332l0.115-0.514 c-0.514-0.121-0.698-0.273-1.16,0.105c-0.55-0.455-0.562-0.616-1.242-0.724l0.087,0.825l-0.753-0.768l-0.07,0.842 c-0.404-0.634-0.425-0.798-1.116-1.07l0.558,2.123l-0.273,0.527c-0.92,0.751-0.909,2.425-0.801,3.418 c0.21,1.987-0.23,2.529-0.398,4.05c-0.044,1.173,0.341,1.641,0.021,3.342c-0.087,0.679-0.719,2.574-0.998,3.102l-0.737,0.9 l-0.555,1.054c-0.276,0.526-0.734,0.901-1.014,1.429c-0.26,0.69,0.104,0.995,0.307,1.31c0.277,0.98-0.421,0.707,0.729,2.111 l-0.591,0.719l0.661-0.06c-0.369,1.205,0.38,1.976,1.515,1.705c0.81-0.241,1.694-1.323,1.937-2.182l0.331-0.029l2.225,3.647 c0.386,0.466,0.475,1.296,1.157,1.402c0.675,0.105,0.931-0.584,1.21-1.113c0.292-0.361,0.605-0.557,0.899-0.918 c0.407-0.872-0.396-2.14-0.317-2.984c0.089-0.676,0.553-1.051,0.631-1.895c-0.127-1.158-0.987-1.415-1.557-2.035 c-0.567-0.617-0.633-1.278-0.728-2.106c-0.195-1.825,0.74-2.409,0.917-3.929c0.057-1.009-0.509-1.626-0.583-2.291 c-0.054-0.495,0.058-1.005,0.554-1.051c1.139-0.271,1.282,1.057,1.37,1.885l-0.153,1.683c-0.09,0.683-0.37,1.206-0.278,2.033 c0.235,0.648,0.621,1.116,0.838,1.599c0.385,0.466,0.439,0.967,0.805,1.266c0.346,0.137,0.529,0.284,0.861,0.256 c0.345,0.136,0.692,0.272,1.022,0.242c0.811-0.24,1.644-1.822,2.413-2.389c0.462-0.378,1.141-0.271,1.638-0.316 c-0.279,0.526-1.017,1.43-1.311,1.791c-0.625,0.39-1.765,0.659-1.824,1.667c-0.351,1.372,1.464,1.208,1.425,2.381 c-0.078,0.843-1.356-0.212-1.748,0.825c-0.551,1.054,0.181,1.658,0.435,2.471c0.056,0.498-0.223,1.022-0.338,1.535 c-0.699,1.234-1.285,0.451-2.224,1.036c-0.787,0.407-1.652,1.654-2.466,1.896c-0.637,0.224-1.192-0.232-1.688-0.187 c-0.657,0.06-1.212,1.114-2.309,0.208c-1.117-1.07,0.152-1.685-0.12-2.664l-0.674-1.614c-0.938,0.587-1.857,1.34-1.551,2.65 c0.457,1.128,1.557,2.034,0.982,2.919c-0.462,0.376-1.456,0.465-2.223,1.035c-0.94,0.588-1.916,2.347-2.229,2.544 c-0.461,0.376-0.958,0.42-1.414,0.795l-1.661,1.653c-0.146,0.185-0.146,0.185-0.295,0.363l-2.069-0.65l0.126,1.157 c-0.827,0.075-0.827,0.075-1.507-0.031c-0.509-0.122-1.521-0.196-1.779,0.496c-0.281,0.525,1.096,0.905,1.448,1.037 c2.101,0.984,2.516,3.288,1.617,4.207c-0.609,0.554-1.652,0.147-2.33,0.042c-1.525-0.198-3.928-0.82-5.43-0.852 c-1.982,0.177-1.347,1.459-1.731,2.497c-0.098,0.678-0.724,1.068-0.833,1.579c-0.148,0.181-0.131,0.347-0.111,0.513 c-0.02-0.166,0.544,1.956,0.524,1.791c0.237,0.649,1.396,0.546,2.078,0.652c0.853,0.255,1.077,0.74,1.788,1.179 c0.698,0.267,1.011,0.073,1.657-0.149c1.482-0.136,2.895,0.573,5.101-0.628c0.475-0.209,0.936-0.584,1.068-0.929 c0.442-0.539,0.221-1.026,0.828-1.583c0.754-0.736,2.222-1.034,2.998-1.606c0.607-0.556,0.169-1.519,1.29-1.954 c0.81-0.24,1.704,0.346,2.826-0.087c0.972-0.257,2.019-1.353,2.997-1.606c0.989-0.088,1.608,1.023,2.985,1.404l5.461,1.179 c0.171-0.015,0.516,0.125,0.697,0.276c1.465,1.203-0.644,1.728-1.45,1.97c-0.647,0.225-0.811,0.241-1.475,0.297 c0.187,0.151,0.202,0.315,0.384,0.469c0.699,0.272,2.384,0.456,2.996-0.102c0.293-0.36,0.258-0.694,0.204-1.188 c0.642-0.224,0.953-0.422,1.217-1.115c-0.056-0.494-0.278-0.977,0.184-1.352c0.294-0.364,0.953-0.423,1.455-0.469 c-0.77-0.931-1.397-0.54-2.408-0.617c-0.509-0.123-0.713-0.44-1.229-0.56c-0.493,0.047-0.95,0.423-1.647,0.149 c-0.516-0.123-1.064-0.575-1.576-0.698c-0.533-0.284-1.888-0.495-1.812-1.341c0.128-0.346,0.277-0.527,0.607-0.556 c0.147-0.183,0.312-0.195,0.48-0.213l0.235,0.651c1.763-0.66,1.189,0.227,2.716,0.425c1.37,0.379,2.988-0.103,4.384,0.442 c0.862,0.256,0.584,0.783,1.334,1.552c0.914,0.756,2.219,0.471,3.371,0.365c-0.144,0.183-0.312,0.198-0.292,0.363 c-0.279,0.526,0.087,0.824,0.438,0.963c1.242,0.723,3.086-0.779,1.508-1.473l2.535-1.231c-1.227-0.558-1.834-0.002-3.448-1.028 c0.829-0.076,0.993-0.089,1.6-0.647l0.097-0.679l2.683-1.409c-0.847,1.413,0.107,0.993,0.432,2.472 c0.827-0.076,1.852,0.165,2.679,0.092c0.647-0.227,2.408-0.886,2.869-1.262c0.455-0.374,0.571-0.886,1.028-1.262l1.914-0.84 c0.774-0.571,1.362-1.294,1.951-2.018c0.294-0.36,0.59-0.722,1.104-0.6c0.693,0.273,0.872,1.929,0.944,2.591 c0.223,0.484,0.456,1.13,0.51,1.626c-0.102,2.184-2.394,2.556-3.773,3.684c-0.92,0.753-1.623,1.986-2.582,2.406 c-1.231,0.947-4.76,2.269-6.376,2.747l-3.434,0.643c-0.785,0.408-1.704,1.159-1.968,1.85c-0.26,0.694,0.162,1.492-0.63,1.897 c-0.788,0.405-4.077,0.867-4.916,0.776c-1.358-0.216-0.9-0.592-2.887-0.41c-1.814,0.162-3.777,0.506-5.647,0.173 c0.292-0.362,0.884-1.084,0.995-1.596c0.134-0.346-0.052-0.499-0.088-0.828c-0.021-0.165-0.056-0.494-0.237-0.647 c-0.388-0.469-1.706-0.35-2.202-0.303c-1.14,0.269-0.935,0.583-2.752,0.748l-6.099,0.717c-2.966,0.263-5.339,1.482-6.494,1.586 c-0.83,0.077-2.683-0.092-3.543-0.351c-0.698-0.272-1.431-0.875-2.22-0.469c-0.808,0.24-1.068,0.932-2.02,1.353 c-0.958,0.423-2.771,0.583-3.86,1.351c-1.083,0.768-0.516,1.384-1.786,2.001c-0.643,0.226-2.805,0.249-3.63,0.325 c-1.836-0.002-2.755,0.752-4.355,1.394l-1.764,0.664c-0.643,0.223-1.948,0.506-2.223,1.033c-0.278,0.527,0.125,1.16,0.179,1.661 c0.052,0.494-0.06,1.007-0.172,1.517c-0.864,1.249-3.09,2.284-2.728,4.097c0.288,1.141,0.969,1.246,2.248,2.303 c1.683,1.69,2.942,4.087,4.752,5.428c2.344,1.631,5.731,3.669,8.627,4.245l5.031,0.216c2.695,0.258,4.764,0.912,7.593,0.821 l6.22-1.058c1.321-0.118,3.286-0.464,4.663-0.085c1.375,0.378,1.646,1.356,4.123,1.135l3.454-0.479 c0.807-0.237,1.45-0.463,2.326-0.038c2.128,1.146-1.476,3.309,0.169,4.669c0.912,0.754,3.942,0.979,5.153,1.373 c0.841,0.091,3.502,1.526,4.069,2.145c0.366,0.302,0.397,0.633,0.781,1.102c0.381,0.466,1.249,0.723,1.301,1.222 c0.052,0.495-1.015,1.428-1.312,1.788c-0.902,0.917-2.654,3.25-1.667,4.666c0.385,0.468,1.428,0.875,1.964,1.162l4.818,1.404 c2.085,0.817,2.265,2.475,3.531,3.364c0.893,0.589,2.381,0.453,3.558,0.516l4.964,1.227c1.729,0.519,1.006,1.585,2.361,1.796 c2.865,0.245,7.26-2.326,9.596-3.873l4.742-2.432c1.894-1.007,3.604-2.164,5.312-3.321c3.238-2.464,5.891-5.712,7.498-9.369 c0.556-1.054,2.123-3.536,2.222-4.212c0.221-1.026-0.846-1.598-0.437-2.47c0.535-1.223,2.688-2.919,3.208-4.303 c0.431-0.709,0.305-1.866-0.415-2.304c-0.692-0.274-1.156,0.102-2.533-0.277c1.041-2.768,2.923-5.445,4.486-7.929 c0.722-1.066,2.015-3.022,2.039-4.361c0.003-1.508-1.342-1.557-1.902-2.17c-0.55-0.452-0.424-0.801-0.768-0.939 c-0.693-0.268-1.802,0.332-2.48,0.225c-0.495,0.045-0.861-0.257-1.207-0.391c-0.533-0.288-1.175-0.063-1.67-0.019 c-0.743-2.275,0.807-6.428,1.567-8.672c1.484-4.816,3.469-9.678,2.749-14.798l-0.761-3.946c-0.218-0.483-0.615-1.115-1.261-0.89 c-0.973,0.256-1.829,3.175-2.23,4.046l-2.235,4.052c-0.573,0.885-0.943,2.091-1.701,2.827c-0.606,0.558-1.562,0.977-2.353,1.38 c-0.256-0.811-0.73-0.601-1.376-0.374l-2.993,1.605c-0.625,0.39-1.858,1.336-2.686,1.412c-0.66,0.059-1.044-0.407-2.017-0.155 c-0.662,0.062-1.78,0.497-2.295,0.375c-0.678-0.105-1.411-0.711-2.093-0.814c-0.508-0.127-1.483,0.132-1.961,0.34 c-1.65,0.151-4.237-0.622-5.945-0.97c0.313-0.196,0.646-0.223,0.608-0.557c0.243-0.859-1.078-2.246,0.542-2.727 c0.166-0.013,0.493-0.044,0.66-0.061l2.822-0.085l1.64-0.314c0.844,0.093,1.063,0.574,2.22,0.471l4.056-1.033 c1.657-0.149,2.323,1.465,4.039,0.306c1.396-0.962,2.71-4.259,3.208-5.808l1.444-3.644l0.559-2.557 c0.629-1.899,1.202-2.787,0.972-4.939l-0.338-3.147c-0.144-1.325-0.411-2.307-1.773-1.013c-1.053,1.099-1.426,2.302-3.11,2.119 c-0.447,2.048-0.164,4.697-2.202,5.887c-0.777,0.568-1.636,0.313-2.441,0.553c-0.48,0.211-1.105,0.604-1.454,0.465 c-0.495,0.045-0.861-0.257-0.915-0.755c0.093-0.675,1.215-1.111,1.694-1.322c1.599-0.645,2.407-0.883,3.586-2.329 c0.718-1.068,0.795-1.913,1.366-2.797c0.587-0.723,1.101-0.604,1.69-1.323c0.441-0.542,1.254-2.287,1.68-2.995l2.02-6.035 c0.978-1.761,2.615-2.076,3.043-4.289l0.256,0.815c1.743-0.825,1.729-2.497,1.39-4.137c0.992-0.09,3.009,0.062,3.815-0.177 l3.748-2.342c0.938-0.589,2.485-1.73,2.707-2.755c0.26-0.691-0.813-2.935-1.199-3.401c-0.195-0.315-0.379-0.467-0.729-0.602 c-0.867-0.258-1.998,0.012-2.621-1.104c-0.769-0.935-1.62-4.203-2.255-5.484c-1.367-3.389-1.458-2.713-2.1-3.993 c-0.418-0.799-0.342-1.641-0.435-2.47c-0.235-0.646-0.619-1.114-0.65-1.446c-0.076-0.663,0.386-1.038,0.829-1.579 c0.697-1.234,0.591-2.227,1.349-2.965c0.606-0.557,1.141-0.269,1.414-0.796c1.02-1.428-1.438-2.546-0.609-4.126 c0.421-0.707,1.62-1.983,2.449-2.06c0.642-0.224,1.174,0.062,1.813-0.162c0.626-0.391,0.672-1.564,0.93-2.257 c0.646-1.73,1.655-1.653,1.902-4.017c0.077-0.844,0.113-2.019-0.286-2.651c-0.77-0.935-1.852-0.168-2.111,0.523 c-0.571,0.886-0.448,2.046-0.343,3.042c-0.06,1.009-0.246,2.363-0.818,3.25c-0.699,1.235-2.13,0.359-2.533-0.272 c-0.196-0.317-0.066-0.664-0.102-0.997c0.021-1.341-0.365-1.806-0.031-3.342c0.093-0.677,0.726-2.573,0.528-2.891 c-0.061-0.497-1.576-2.199-1.953-2.667c-0.752-0.77-2.102-2.488-3.354-1.705c-1.104,0.6-0.873,2.755-1.079,3.943 c-0.111,0.512-0.342,1.535-0.835,1.58c-0.308,0.194-0.857-0.259-1.223-0.559c-0.933-0.92-1.5-1.537-1.658-3.029 c0.508,0.122,1.885,0.5,1.981-0.178c-0.069-0.663-0.857-1.764-1.52-1.701c-0.678-0.106-0.771,0.569-1.669-0.018 c-0.732-0.603-2.354-3.301-3.125-4.236c-0.966-1.251-2.412-2.291-3.827-3c-0.854-0.256-3.644-1.346-4.416-0.772 c-0.313,0.194-0.264,0.691-0.391,1.036c-0.181-0.149-0.367-0.299-0.694-0.271c-1.19-0.227-1.544,1.143-1.622,1.986 c0.034,0.331,0.108,0.994-0.369,1.204c-0.481,0.21-0.849-0.09-1.215-0.394c-0.896-0.586-0.915-0.754-2.121-1.146 c0.235,0.647,0.471,1.295,0.871,1.929c0.973,1.251,1.634,1.191,1.478,2.876c-1.392-0.544-2.967-1.237-3.917-2.323l1.284-0.451 l-0.033-0.33c-0.53-0.288-2.342-1.63-2.416-2.291c-0.05-0.498,0.605-0.558,0.556-1.054c0.116-0.512-0.42-0.798-0.162-1.491 c0.445-0.543,1.404-0.962,1.33-1.625c-0.035-0.331-0.401-0.632-0.751-0.768c-0.713-0.438-1.979-1.327-2.73-0.593 c-0.609,0.557-0.149,1.687-0.487,3.223c-0.514-0.121-1.396-0.544-1.908-0.665c-0.675-0.105-1.466,0.297-2.347-0.123 c-1.213-0.394-1.646-1.359-2.691-1.768c-1.926-0.83-3.542-0.348-5.34-0.02c-0.825,0.074-2.147,0.192-2.938,0.597 c-0.626,0.393-0.905,0.918-1.178,1.443c-0.738,0.903-2.189,1.368-2.046,2.692c0.289,1.146,1.298,1.222,1.666,1.521l1.055,2.083 c-1.139,0.269-1.671-0.017-2.656,0.07l-3.914,0.854c-2,0.012-2.623-1.101-3.848-1.662c-0.693-0.271-1.191-0.227-1.724-0.515 c-0.55-0.45-0.602-0.947-0.785-1.101c-0.386-0.465-2.07-0.649-2.563-0.605c0.03,0.332,0.05,0.498-0.241,0.856 c-0.28,0.528-1.694,1.324-2.355,1.382c-0.313,0.195-0.827,0.076-1.176-0.061l0.093-0.677c0.075-0.843-0.418-0.798-1.058-0.575 c-0.978,0.256-1.566,0.977-2.341,1.549c0.281-0.527,0.539-1.22,0.981-1.761c0.608-0.555,1.415-0.795,2.203-1.2l2.499-1.562 c0.625-0.392,1.58-0.813,2.04-1.188c1.382-1.128,1.672-4.665,1.308-6.473c-2.553,1.064-1.875,1.17-3.605,2.163 c-0.625,0.391-0.954,0.422-1.433,0.631C256.999,180.757,256.884,181.269,256.774,181.779L256.774,181.779z M274.303,175.689 l1.627,1.193l1.24,2.23c0.954-0.42,1.082-0.767,1.729-0.991c0.31-0.194,2.363,0.289,1.889-1.006 c-0.182-0.15-0.364-0.302-0.548-0.451l-0.112,0.513c-0.549-0.454-1.278-1.057-1.978-1.328 C277.453,175.574,275.124,175.617,274.303,175.689L274.303,175.689z M279.895,176.526c2.308-0.208,1.912-0.842,3.234-0.958 c0.639-0.226,1.666,0.017,2.344,0.125l-0.093,0.676c1.391,0.545,1.303-0.284,2.33-0.042c1.044,0.409,1.684,1.69,3.407,2.203 c0.694,0.273,1.045,0.407,1.668,0.018c0.399,0.633,0.569,0.619,1.229,0.559c0.078-0.843,0.556-1.054,0.334-1.535 c-0.218-0.483-1.959-1.163-2.109,0.523c-0.588-0.784-0.274-0.979-0.489-1.46c-0.589-0.785-1.763-0.846-2.571-0.606 c-0.342-1.642-0.124-1.16-2.411-2.292c-0.715-0.438-2.292-1.133-3.137-1.224c-1.007-0.077-1.265,0.616-2.056,1.022 c-0.441,0.541-0.961,0.42-1.411,0.795C279.717,174.869,279.825,175.863,279.895,176.526L279.895,176.526z M314.799,169.208 l2.089,2.322c0.785,1.101,1.567,2.202,2.503,3.12c0.73,0.603,1.773,1.011,2.749,0.757c0.644-0.225,2.591-2.241,1-3.103 c-0.529-0.286-1.324,0.121-1.814,0.164c0.039-1.173-0.035-1.837-0.324-2.981c-0.032-0.331-0.104-0.994-0.752-0.769 c-0.786,0.407,0.143,2.829-1.105,2.105l-0.53-0.286l-0.55-0.454c-0.591,0.721,0.106,0.995,0.676,1.614 c0.731,0.605,1.297,1.222,1.404,2.216c-1.796-1.179-1.899-2.17-3.054-3.572C316.342,169.573,315.795,169.121,314.799,169.208 L314.799,169.208z M321.962,167.563c0.451,1.13,2.226,3.648,3.438,4.039C324.579,170.171,323.52,168.09,321.962,167.563 L321.962,167.563z M199.678,179.716c0.498-0.043,1.158-0.104,1.488-0.133l4.307,1.286c1.195,0.227,2.367,0.29,3.155,1.388 c-2.148,0.194-1.688-0.183-3.393-0.53c-1.523-0.197-1.985,0.179-3.158,0.116c-0.68-0.106-1.026-0.242-1.54-0.362l-4.424,0.73 c-1.175-0.061-1.429-0.875-2.129-1.147c-0.712-0.438-1.355-0.211-1.982,0.179c-1.118,0.435-2.206,1.2-3.292,1.967 c-2.021,1.352-4.356,2.9-5.812,4.871c-1.013,1.428-0.76,2.243-1.773,3.671c-1.031,1.263-3.403,2.481-5.005,4.633 c-1.163,1.608-1.059,2.601-1.498,3.144c-0.295,0.359-2.338,1.548-2.814,1.756c-0.476,0.21-0.974,0.254-1.287,0.451 c-0.459,0.375-0.735,0.902-1.016,1.429l-1.634,1.821c-0.425,0.706-2.145,3.369-2.238,4.048c-0.04,1.173,1.851,1.672,0.854,3.267 c-0.146,0.181-0.294,0.36-0.442,0.542c-1.085,0.767-1.376-0.378-2.219-0.47c-1.028-0.244-2.555,1.065-3.47,0.31 c-0.568-0.616-0.326-1.475-0.395-2.138c-0.256-0.813-0.621-1.114-0.857-1.763c-0.422-0.799-0.086-2.334-1.257-3.902 c-0.601-0.947-1.295-1.221-1.833,0l-0.39,1.037c-0.655-1.445-0.285-2.65-1.477-2.878c-1.521-0.196-1.985,1.686-2.87,2.768 c-2.211,2.707-2.578,2.405-4.27,3.728l-2.246,2.375l-1.401,0.964c-0.753,0.737-1.252,2.285-1.642,3.324l-1.617,6.669 c-0.355,1.368-0.949,3.598-2.399,4.061c-0.479,0.209-1.985,0.179-2.497,0.057c-0.532-0.286-0.915-0.753-1.429-0.875 c-0.494,0.046-1.818,0.163-3.045-0.395c-0.73-0.603-1.699-1.855-2.398-2.123c-0.697-0.277-1.355-0.215-2.017-0.154 c-0.827,0.072-1.984,0.177-2.662,0.072c-1.722-0.515-2.834-3.091-3.488-4.538c-0.235-0.647-0.672-1.613-1.204-1.899 c-0.732-0.603-1.617,0.48-2.477,0.224c-0.678-0.107-2.181-1.644-3.057-2.067c-0.184-0.151-0.733-0.603-1.043-0.408 c-0.331,0.03-0.428,0.708-0.557,1.053c-0.022,1.341,0.345,1.642,1.111,2.576c0.184,0.15,0.75,0.769,0.291,1.145 c-0.771,0.571-1.883-2.005-2.75-0.756c-0.13,0.346-0.109,0.512-0.259,0.692l-0.331,0.031l-0.799-2.771l-0.122-1.16l-1.113-2.576 l-1.361,1.293l-0.324-1.477l-0.455-1.129c-0.256-0.813-0.915-0.753-1.541-0.364c-1.231,0.949-2.083,2.361-2.854,2.933 c-0.938,0.587-1.651,0.149-2.295,0.374c-0.79,0.406-1.343,1.459-1.585,2.317l-1.271,6.803c-1.1,5.285-1.801,6.518-1.195,12.149 l0.668,3.118l0.628,4.293l0.559,2.123l0.333-0.03c-0.231-2.151-0.164-6.174,0.447-8.236c0.598-2.226,1.551-2.647,1.6-5.327 l0.395,2.141c0.902-0.92,0.833-1.582,2.097-2.197c0.422,0.797,0.603,0.949,0.877,1.929c0.254,0.812,0.326,1.474,0.746,2.274 c0.419,0.797,0.765,0.935,1.167,1.566c0.384,0.465,0.639,1.282,0.875,1.929c0.457,1.13,0.819,2.939,2.193,3.315 c0.536-1.218,0.377-2.707,0.397-4.051c0.129-0.346,0.188-1.353,0.499-1.548c0.811-0.242,1.138,1.235,1.19,1.73 c0.472,1.297,0.817,2.94,1.6,4.038c0.821,1.433,1.466,1.206,2.538,3.451l0.243-0.858c0.455,1.129-0.116,2.02,1.131,2.741 c-0.072-0.662-0.208-3.492,0.067-4.019c0.132-0.347,0.626-0.391,0.957-0.42l0.77,5.616c0.07,0.663,0.323,1.477,0.708,1.944 c0.934,0.92,2.02,0.152,2.437,0.951l0.653,2.951c0.562,2.124,1.344,4.73,2.213,6.656c0.658,1.447,1.531,3.376,2.648,4.447 c0.386,0.468,0.952,1.086,1.593,0.859c0.646-0.225,0.393-1.036,0.501-1.548c0.097-0.677,0.405-0.872,0.522-1.386 c0.077-0.844-0.199-1.824,0.226-2.529c-0.222,1.026,0.125,1.159,0.233,2.152c0.141,1.325,0.467,2.802,0.939,4.097 c0.708,1.945,1.234,3.737,2.421,5.469c0.789,1.103,2.598,2.444,3.694,3.35c1.506,1.538,2.983,2.909,4.797,4.251l2.161,1.479 l1.794,1.179c1.595,0.86,1.763-0.662,2.753-0.749c0.514,0.12,2.325,1.463,2.874,1.915c2.782,2.592,1.867,1.839,3.788,4.178 l4.332,4.625c1.115,1.071,2.502,3.122,4.027,3.317l1.523,0.199c1.703,0.351,3.608,1.014,5.387,0.519 c0.664-0.063,1.123-0.436,1.418-0.794c0.44-0.542,0.7-1.235,1.361-1.295c0.678,0.105,2.255,0.8,2.948,1.074 c1.762,0.845,4.253,2.294,6.121,2.626c1.873,0.335,3.217-1.127,2.908-2.436c-0.472-1.296-2.452-2.624-3.507-4.701 c-1.023-1.744-1.729-3.688-2.898-5.26l-2.686-3.268l-1.609-2.533l-0.784-1.101c-0.203-0.314-0.491-1.458-0.543-1.959l-1.839-4.684 c-0.839-1.596-2.495-1.447-3.566-3.693c0.767,0.936,2.233,2.142,3.274,2.549c-0.469-1.295-1.528-3.373-2.316-4.476l-1.681-1.688 c0.917,0.753,1.647,1.357,2.84,1.584l0.353-1.369c0.519-1.386,0.996-1.595,0.983-3.266c-0.137-2.833-2.75-6.945-3.122-10.424 c-0.162-1.49,0.174-3.024,0.345-4.545l0.047-2.681c-0.055-0.497,0.239-0.86,0.335-1.536l-0.029-1.838 c0.224-1.022,0.353-1.371,0.246-2.365l-0.797-2.77l-0.05-2.004l-0.286-2.648c-0.213-1.988,0.855-2.918,1.041-4.273 c0.097-0.679-0.76-2.441-1.127-2.742c-0.532-0.287-1.669-0.018-1.264-0.891c0.407-0.871,1.907,0.666,2.292,1.132 c0.479-1.714,0.115-2.018-0.211-3.494l-0.626-4.293c-0.291-1.145-1.021-1.748-1.078-2.244c0.114-0.512,0.611-0.558,1.197-1.278 c0.59-0.722,0.831-1.58,0.909-2.422l0.029-2.846c0.184-1.355,1.328-3.131,2.783-3.596c1.467-0.298,2.966,1.238,3.791,1.164 c0.826-0.074,1.231-0.947,1.51-1.473l1.905-5.524l0.333-0.029c0.821,1.434,1.681,1.69,2.797,2.76l0.951,1.086 c0.184,0.149,0.497-0.044,0.81-0.24c0.587-0.722,1.297-3.461,0.875-4.259c-0.236-0.648-0.966-1.252-1.223-2.065 c-0.052-0.497,0.224-1.024,0.502-1.549c0.39-1.039,0.593-2.228,1.349-2.965c1.493-1.641,4.466-1.907,6.277-0.564 c0.919,0.754,0.803,1.266,1.187,1.733c0.569,0.617,1.395,0.545,1.668,1.523c0.034,0.332-0.04,1.173-0.151,1.686 c0.107,0.995,0.305,1.311-0.083,2.35c-0.553,1.051-1.47,1.803-1.845,3.007c-0.517,1.386,0.328,1.477,0.121,2.667 c-0.369,1.202-1.274,2.12-1.644,3.325c-0.425,0.707-0.353,1.37-1.123,1.94c-0.626,0.39-1.637,0.314-2.298,0.374 c-0.974,0.254-1.746,0.825-2.533,1.23c0.03,0.333,0.069,0.662,0.268,0.979c0.274,0.979,1.098,0.902,1.905,0.665 c1.304-0.283,3.033-1.275,4.315-0.221c1.115,1.072,1.456,4.219,2.405,5.305c0.914,0.752,1.577,0.694,2.603,0.936 c0.695,0.273,1.229,0.56,1.775,1.012c1.282,1.055,0.877,1.929,1.458,2.711c0.549,0.451,1.028,0.245,1.595,0.86l2.425,3.963 l1.674-1.49c0.566,0.618,1.229,0.558,1.304-0.285c-0.055-0.496-0.323-1.473-0.546-1.958c1.118,1.071,1.208,1.901,1.202,3.406 c0.034,0.328-0.095,0.676,0.107,0.995c0.072,0.659,0.875,1.927,1.423,2.38c0.715,0.434,1.189,0.226,1.816-0.165 c0.574-0.887,0.909-2.422,1.791-3.505c0.74-0.902,2.207-1.201,3.533-2.829c-0.346-0.134-1.392-0.541-1.283-1.054 c0.261-0.691,1.252-0.78,1.878-1.171c0.921-0.751,1.622-1.986,1.828-3.173l-2.019-0.155l-1.193-0.227l-1.652,0.149l-1.626-1.193 L208.4,217.4c0.402-0.873,0.681-1.401,1.671-1.49c0.497-0.044,1.192,0.23,1.505,0.034c0.643-0.226,0.569-0.89,1.033-1.265 c0.883-1.082,2.184-1.367,2.375-2.721c1.356,0.213,1.654-0.148,2.329-0.042c1.394,0.543,1.826,3.014,2.464,4.296 c-1.724-0.515-1.397,0.961-1.44,2.135c0.626-0.391,1.365-1.292,2.005-1.517l2.167-0.027c0.497-0.044,0.643-0.224,1.122-0.435 c1.139-0.269,1.889,0.5,2.49,1.449c0.626-0.392,0.592-0.723,0.189-1.355l0.825-0.075l-0.472-1.295 c-0.825,0.075-1.011-0.077-1.25,0.781c-0.715-0.438-0.715-0.438-1.56-0.529l0.611-0.555l-0.04-0.333 c-1.409-0.708,0.209-1.188,0.45-2.046c0.112-0.512-0.087-0.828-0.291-1.145l2.077-0.856c0.884-1.083,1.634-0.313,2.004-1.517 c1.704,0.349,1.146-1.774,2.432-2.226c0.31-0.194,0.819-0.074,1.155-0.104c0.477-0.209,0.952-0.418,1.433-0.629 c0.661-0.06,0.991-0.088,1.633-0.316c0.623-0.389,1.196-1.275,1.641-1.817c0.291-0.363,0.897-0.918,1.028-1.266 c0.112-0.511-0.104-0.991-0.19-1.821c0.677,0.105,1.174,0.061,1.612-0.479c0.462-0.375,0.39-1.04-0.309-1.311 c-0.163,0.015-0.66,0.059-0.822,0.076l2.281-2.045l0.45-2.046l-0.646,0.225l0.228-1.023l-1.82,0.164 c0.294-0.362,1.18-1.444,1.471-1.805c0.775-0.572,1.617-0.48,2.007-1.52c-1.629,0.314-3.636,1.833-4.667,3.096l-1.607,2.151 l0.097-0.678c-1.618,0.48-1.514,1.475-2.14,1.867l-0.313,0.194c0.498-0.045-2.824,0.086-2.311,0.208 c-0.843-0.092-1.759-0.845-2.489-1.45c-0.551-0.453-0.931-0.92-1.557-0.529l-3.096-2.397c0.294-0.36,0.443-0.542,0.078-0.842 c-0.367-0.303-1.229-0.56-1.942-0.998c-1.282-1.056-1.223-2.064-1.384-3.555c-0.139-1.325-0.307-1.31-0.76-2.44 c-0.219-0.482-0.257-0.813-0.641-1.28c-0.383-0.467-1.28-1.055-1.828-1.509c-0.733-0.602-1.648-1.358-2.492-1.449 c-1.191-0.228-2.108,0.526-3.139,0.283c-0.862-0.257-1.978-1.327-3.021-1.736c-0.679-0.104-1.505-0.031-2.167,0.028 c-0.034-0.331-0.106-0.994-0.454-1.129c-0.53-0.286-1.486,0.133-2.147,0.191c-0.66,0.06-0.879-0.422-1.393-0.544 c-0.513-0.121-2.845-0.08-3.14,0.283C199.423,178.903,199.645,179.386,199.678,179.716L199.678,179.716z M317.741,162.423 c1.35,1.72,3.766,4.011,5.801,4.331c-0.602-0.951-1.119-1.072-1.848-1.675C320.617,164.339,318.783,162.831,317.741,162.423 L317.741,162.423z M304.512,155.751l-0.417-0.798c0.699,0.271,1.396,0.544,1.796,1.176c0.215,0.483,0.254,0.814,0.308,1.311 c0.104,0.995,1.844,3.18,2.85,3.255c0.349,0.136,0.33-0.027,0.662-0.057l-0.854-3.269c-0.386-0.467-0.858-0.257-1.428-0.874 l-3.437-4.042c-0.204-0.317-0.967-1.252-0.856-1.761c0.293-0.362,1.12-0.435,1.452-0.465l-3.146-2.895 c-0.365-0.302-0.933-0.919-1.58-0.696c-0.641,0.226-0.879,1.083-1.158,1.61c-0.278,0.528-0.716,1.067-0.666,1.565 c0.238,0.649,0.989,1.417,1.371,1.883l2.93,2.414C303.087,154.875,303.467,155.343,304.512,155.751L304.512,155.751z M347.34,155.415c-0.432-2.469-2.02-4.834-3.881-6.674l-2.931-2.414c-1.134-1.235-2.355-3.299-4.021-4.824 c-1.829-1.509-3.206-1.886-4.829-3.078l-2.77-2.428l-4.94-4.072c-1.278-1.056-2.8-2.759-3.768-4.009 c-0.986-1.417-0.709-1.944-1.274-2.562c-0.388-0.467-1.777-1.012-2.453-1.117l0.258-0.693l-1.229-0.559 c0.684-1.398-0.273-0.979-1.242-2.229c-0.384-0.467-0.451-1.131-1.058-2.081c-0.948-1.085-2.215-1.975-3.458-2.698l-6.022-3.307 c-1.945-0.995-4.604-2.43-6.784-2.568c-1.669-0.018-2.737,0.915-4.374,1.229c-1.465,0.298-4.64,0.251-5.654,1.678 c-1.031,1.263,1.551,3.54,2.483,4.461l2.614,2.607c0.75,0.769,0.965,1.251,1.73,2.186c0.737,0.604,2.16,1.479,2.75,2.263 c0.582,0.783-0.393,1.039,0.393,2.138c0.604,0.949,2.071,2.156,2.511,3.12c0.235,0.647,0.342,1.643,0.891,2.096 c0.528,0.287,1.155-0.106,1.648-0.151c0.81-0.239,3.185-1.457,3.896-1.018c0.712,0.438,3.146,2.895,3.715,3.514 c0.363,0.3,1.112,1.07,1.001,1.583c0.092,0.827-2.512-0.109-1.893,1.004c0.202,0.318,1.796,1.176,2.348,1.63l2.029,1.824 l2.357,1.796c0.552,0.453,1.148,1.402,1.685,1.689c1.045,0.408,1.578-0.811,2.477-0.223c1.759,0.846,3.021,3.242,4.848,4.749 c1.243,0.725,1.555,0.53,2.599,0.938c0.882,0.422,1.451,1.041,2.345,1.629c1.412,0.708,1.526,0.198,3.173,1.555 c2.195,1.811,4.061,3.649,5.944,5.654c0.749,0.769,2.597,2.442,3.46,2.698c0.162-0.013,0.328-0.027,0.495-0.044l1.893-1.005 c0,0,0.168-0.018,0.147-0.182c0.112-0.511,0.04-1.173,0.15-1.686c0.115-0.512,0.429-0.706,0.521-1.385 c0.109-0.512,0.006-1.507,0.479-1.716C346.082,154.525,346.997,155.279,347.34,155.415L347.34,155.415z M307.025,112.375 c-0.074-0.664-0.256-0.813-0.491-1.461c-0.987-1.416-2.084-2.321-3.644-2.85c-0.511-0.121-2.051-0.485-2.328,0.041 c-0.426,0.707,1.368,1.883,1.897,2.172c0.552,0.452,1.247,0.724,1.796,1.178C305.321,112.025,305.831,112.148,307.025,112.375 L307.025,112.375z M242.313,98.451c2.188,0.137,3.009,0.064,5.102,0.878c1.904,0.665,3.022,1.734,5.206,1.874l-2.448-2.623 l1.395-0.963c-0.73-0.603-1.059-0.574-1.776-1.009c-0.364-0.302-0.396-0.634-0.764-0.935c-0.333,0.031-1.162,0.104-1.489,0.135 c-0.976,0.253-1.781,0.495-2.901,0.929C243.658,96.992,242.358,97.275,242.313,98.451L242.313,98.451z M252.329,93.873 c-0.237,0.857-1.045,1.096-1.822,1.668c0.184,0.149,0.201,0.316,0.385,0.466c0.533,0.287,3.251,0.712,3.927,0.819 c1.673,0.017,1.729-0.991,3.691-1.334l2.463-0.39c2.307-0.209,5.466-0.324,7.525-1.345c-0.785-1.101-1.28-1.057-2.489-1.448 c-1.89-0.501-3.907-0.654-5.835,0.021c-1.782,0.495-1.711,1.158-4.021,1.367L252.329,93.873L252.329,93.873z M217.246,377.334 C178.667,369.088,225.093,378.97,217.246,377.334L217.246,377.334z"/>
	</g>
</svg>
