<?xml version="1.0" encoding="UTF-8" standalone="no"?>
<svg
   xmlns:dc="http://purl.org/dc/elements/1.1/"
   xmlns:cc="http://creativecommons.org/ns#"
   xmlns:rdf="http://www.w3.org/1999/02/22-rdf-syntax-ns#"
   xmlns:svg="http://www.w3.org/2000/svg"
   xmlns="http://www.w3.org/2000/svg"
   xmlns:sodipodi="http://sodipodi.sourceforge.net/DTD/sodipodi-0.dtd"
   xmlns:inkscape="http://www.inkscape.org/namespaces/inkscape"
   viewBox="0 0 64 64"
   enable-background="new 0 0 64 64"
   version="1.1"
   id="svg7152"
   sodipodi:docname="1f3f4-e0067-e0062-e0077-e006c-e0073-e007f.svg"
   inkscape:version="0.92.1 r">
  <title
     id="title7722">Wales</title>
  <metadata
     id="metadata7158">
    <rdf:RDF>
      <cc:Work
         rdf:about="">
        <dc:format>image/svg+xml</dc:format>
        <dc:type
           rdf:resource="http://purl.org/dc/dcmitype/StillImage" />
        <dc:title>Wales</dc:title>
        <cc:license
           rdf:resource="http://creativecommons.org/licenses/by-sa/4.0/" />
        <dc:subject>
          <rdf:Bag>
            <rdf:li>flag</rdf:li>
          </rdf:Bag>
        </dc:subject>
        <dc:description>U+1F3F4+E0067+E0062+E0077+E006c+E0073+E007F</dc:description>
      </cc:Work>
      <cc:License
         rdf:about="http://creativecommons.org/licenses/by-sa/4.0/">
        <cc:permits
           rdf:resource="http://creativecommons.org/ns#Reproduction" />
        <cc:permits
           rdf:resource="http://creativecommons.org/ns#Distribution" />
        <cc:requires
           rdf:resource="http://creativecommons.org/ns#Notice" />
        <cc:requires
           rdf:resource="http://creativecommons.org/ns#Attribution" />
        <cc:permits
           rdf:resource="http://creativecommons.org/ns#DerivativeWorks" />
        <cc:requires
           rdf:resource="http://creativecommons.org/ns#ShareAlike" />
      </cc:License>
    </rdf:RDF>
  </metadata>
  <defs
     id="defs7156" />
  <sodipodi:namedview
     pagecolor="#ffffff"
     bordercolor="#666666"
     borderopacity="1"
     objecttolerance="10"
     gridtolerance="10"
     guidetolerance="10"
     inkscape:pageopacity="0"
     inkscape:pageshadow="2"
     inkscape:window-width="1299"
     inkscape:window-height="708"
     id="namedview7154"
     showgrid="false"
     inkscape:zoom="8.45"
     inkscape:cx="34.711378"
     inkscape:cy="31.505499"
     inkscape:window-x="67"
     inkscape:window-y="27"
     inkscape:window-maximized="1"
     inkscape:current-layer="svg7152"
     inkscape:snap-global="false" />
  <g
     id="g5266">
    <path
       style="fill:#f9f9f9"
       inkscape:connector-curvature="0"
       id="path7142"
       d="M 32,2 C 15.4,2 2,15.4 2,32 H 62 C 62,15.4 48.6,2 32,2" />
    <path
       style="fill:#699635"
       inkscape:connector-curvature="0"
       id="path7144"
       d="M 32,62 C 48.6,62 62,48.6 62,32 H 2 c 0,16.6 13.4,30 30,30 z" />
  </g>
  <g
     id="layer2"
     inkscape:label="Layer"
     style="display:inline"
     transform="matrix(0.11934701,0,0,0.11934701,43.773551,-40.478502)" />
  <g
     id="g9172"
     transform="matrix(0.11934701,0,0,0.11934701,225.30802,26.842143)" />
  <g
     transform="matrix(0.13445931,0,0,0.13445931,249.08752,56.557773)"
     id="g11618-9-0-2"
     style="stroke-width:0.88760686;stroke-miterlimit:4;stroke-dasharray:none" />
  <g
     style="fill:#ed4c5c;fill-opacity:1;stroke:none;stroke-width:0.83999097;stroke-miterlimit:4;stroke-dasharray:none"
     id="g5074-2-6"
     transform="matrix(0.21312194,0,0,0.21312194,21.942069,-181.61787)" />
  <path
     id="path4816"
     style="fill:none;stroke:none;stroke-width:0.19095521;stroke-miterlimit:4;stroke-dasharray:none"
     d="m 45.250965,33.155429 c 0,0 0.589697,0.556057 0.961876,0.832476 1.212051,0.900186 2.914363,1.256014 4.013176,2.291381 0.642679,0.605586 1.388389,2.25613 1.388389,2.25613 -0.945888,-0.584573 -1.89016,-1.159425 -2.776775,-1.388382 0,0 0.338348,1.072855 0.289247,2.421512 -0.0454,1.247063 -0.70903,3.42112 -0.692344,4.105048 0.02447,1.003508 0.40702,0.999373 1.517936,0.942256 0.170157,0.03368 0.483076,0.198908 0.483076,0.198908 0,0 -0.258674,0.150078 -0.31258,0.511492 -0.04454,0.298625 0,0.902229 0,0.902229 0,0 -0.272681,0.297113 -0.504387,0.284158 -0.190744,-0.01065 -0.411356,-0.238059 -0.596741,-0.284158 -0.211374,-0.05258 -0.453105,0.05675 -0.653574,-0.02841 -0.234611,-0.0997 -0.483079,-0.504417 -0.483079,-0.504417 -0.173014,0.03457 -0.213212,0.197289 -0.589635,0.02844 -1.085656,0.784268 -1.671512,0.460002 -2.578777,0.390737 0,0 -0.301319,0.601965 -0.589635,0.7104 -0.232302,0.08736 -0.509421,-0.06628 -0.738823,0.02841 -0.205812,0.08499 -0.290035,0.317827 -0.511496,0.340993 -0.352562,0.03685 -0.419137,-0.227314 -0.419137,-0.227314 -0.06931,-0.864359 -0.36368,-0.834991 -0.568324,-1.157977 l 0.52483,-0.393637 c 0,0 -0.388434,-0.07353 -0.553247,-0.03262 -0.176125,0.04375 -0.352717,0.305912 -0.532179,0.278933 -0.25035,-0.01598 -0.32031,-0.3953 -0.32031,-0.3953 0.458329,-0.452841 0.01061,-0.763594 -0.22984,-1.046618 0,0 0.220342,-0.315295 0.400339,-0.338461 0.242638,-0.03122 0.597354,0.08131 0.895113,0.17299 0.303873,0.09343 0.363437,0.06752 0.547011,0.08525 0.624815,0.0608 1.194779,0.192343 1.804432,0.04262 0.530026,-0.130153 1.362108,-0.63455 1.607207,-1.091481 0.187702,-0.349924 0.360264,-0.760014 0.360264,-0.760014 -0.308072,-0.06895 -0.563635,-0.909924 0,-1.361958 -0.407862,-0.371043 -0.610689,-0.779364 -0.17387,-1.303985 -0.360483,-0.29673 -0.498789,-0.688682 -0.318755,-1.217056 -0.384508,-0.08991 -0.672718,-0.262374 -0.521596,-0.811373 -0.641895,0.15464 -1.075915,0.07544 -1.101151,-0.463648 -0.579555,0.482956 -1.15911,0.463648 -1.738665,-0.05797 -1.058287,0.691239 -1.929985,0.326566 -2.202306,-0.202831 -1.144471,0.374842 -1.979801,-0.180876 -2.02844,-0.956276 -1.042391,0.06053 -1.49336,-0.864294 -1.402949,-1.406968 -0.487498,0.209841 -1.060937,0.642563 -1.836778,0.418784 -0.508877,0.333323 -1.318707,0.522384 -1.847059,0.404932 -0.611439,0.445681 -1.215594,1.236874 -2.358549,1.385292 -0.18981,0.356533 -0.806061,1.427406 -2.23778,1.385294 -1.0774,1.098112 -1.8384,1.131721 -2.585879,0.902209 -1.040129,0.9888 -1.898608,0.719372 -2.230674,0.319683 0.110499,1.053612 0.06667,2.107692 -0.333895,3.161303 -0.201314,-0.99722 -0.480953,-1.972188 -0.937735,-2.905555 -0.88467,1.583665 -1.96256,3.293455 -3.800675,5.512739 0,0 0.443672,0.09912 0.959048,0.08525 0.406048,-0.01088 0.852075,-0.145755 1.157964,-0.08525 0.170156,0.03368 0.483075,0.198928 0.483075,0.198928 0,0 -0.258674,0.150081 -0.312577,0.511492 -0.04454,0.298605 0,0.902209 0,0.902209 0,0 -0.272684,0.297133 -0.504389,0.284178 -0.190745,-0.01065 -0.411354,-0.238059 -0.596741,-0.284178 -0.211374,-0.05258 -0.453106,0.05678 -0.653574,-0.02841 -0.234612,-0.09968 -0.483076,-0.504396 -0.483076,-0.504396 -0.173014,0.03455 -0.213215,0.197269 -0.589639,0.02841 -1.085656,0.784268 -1.671512,0.460002 -2.578777,0.390737 0,0 -0.301316,0.601965 -0.589635,0.7104 -0.232298,0.08738 -0.509421,-0.06628 -0.738823,0.02844 -0.205812,0.08497 -0.290034,0.317831 -0.511492,0.340997 -0.352566,0.03685 -0.41914,-0.227338 -0.41914,-0.227338 -0.06931,-0.864359 -0.363677,-0.834992 -0.568325,-1.157977 l 0.524831,-0.393613 c 0,0 -0.388431,-0.07355 -0.553247,-0.03262 -0.17613,0.04377 -0.352717,0.305913 -0.53218,0.278934 -0.250346,-0.01599 -0.320309,-0.3953 -0.320309,-0.3953 0.458328,-0.452842 0.01058,-0.763574 -0.229837,-1.046598 0,0 0.220338,-0.315315 0.400335,-0.338481 0.242642,-0.03118 0.597351,0.08133 0.895114,0.17299 0.303872,0.09343 0.363437,0.06752 0.54701,0.08525 0.624816,0.06083 1.194783,0.192364 1.804432,0.04263 0.53003,-0.130133 1.021892,-0.451582 1.420813,-0.824055 0.471206,-0.439948 1.157964,-1.56291 1.157964,-1.56291 -0.0027,-0.626537 -0.0021,-1.250537 0.596741,-1.676544 -0.199206,-0.759398 -0.124478,-1.022433 0.369413,-1.42082 -0.231031,-0.34724 -0.154784,-0.574322 -0.142082,-0.824079 -1.0922,-0.211949 -1.761348,-1.467005 -1.562895,-2.344344 -1.237309,-0.456014 -1.430689,-2.27143 -0.78855,-2.9979 -0.791994,-1.010665 -0.427167,-2.651598 0.298368,-3.00502 -0.565453,-0.917105 -0.135914,-2.220423 0.561223,-2.394077 -0.108997,-0.77375 0.117242,-1.407827 0.845383,-1.81864 -0.251134,-1.168951 0.173428,-1.785281 0.966154,-2.102804 -0.35221,-0.495616 -0.197227,-1.411445 0.582533,-1.648144 0.04542,-0.170485 0.0877,-0.342993 0.120768,-0.511492 0.169848,-0.865424 0.167788,-1.700754 -0.113665,-2.514839 l 3.793573,-2.770586 c 0.650726,0.31548 1.101798,0.794831 1.406602,1.378189 0.926501,0.433547 2.02466,0.70939 2.89846,1.783121 -0.489288,-0.189293 -1.638828,-0.239356 -2.408279,-0.07814 0.02495,0.203532 0.04692,0.405729 0.05683,0.618051 0.788375,0.512608 1.553774,0.846889 2.401173,2.003347 -0.509483,-0.227437 -1.772131,-0.331591 -2.543255,-0.170498 -0.03482,0.239372 -0.07323,0.487723 -0.113666,0.738823 0.810727,0.592421 1.602868,0.917372 2.450903,2.166739 -0.549766,-0.269576 -2.006872,-0.423306 -2.742169,-0.21312 -0.01978,0.161555 -0.03428,0.322654 -0.04973,0.483076 0.799031,0.577063 1.579089,0.91336 2.415381,2.145428 -0.482593,-0.236641 -1.664154,-0.379812 -2.443798,-0.269956 0.137153,1.378983 0.712447,2.490745 2.251989,2.891351 2.915933,0.758754 7.065396,-1.295038 10.073565,-1.342663 2.024024,-0.03204 3.045296,0.171237 5.029677,0.589638 1.036754,0.2186 1.931559,0.658099 3.07606,0.794369 0.796423,0.09482 1.602286,0.101789 2.390651,-0.04574 0.463052,-0.08668 0.93296,-0.239335 1.317472,-0.511491 0.286009,-0.202468 0.700073,-0.735784 0.700073,-0.735784 -2.189378,0.946069 -4.469269,-0.178275 -4.363165,-2.104197 0.08041,-1.459519 1.599544,-2.646697 3.572681,-2.646697 1.973136,0 3.394603,1.476644 3.4999,3.228946 0.135517,2.25513 -0.970056,3.741868 -2.377336,4.716518 -1.307391,0.90545 -2.986358,1.339045 -4.681071,1.452084 z"
     inkscape:connector-curvature="0"
     sodipodi:nodetypes="csssccccccccccccccscccccccccccccccccccccccccccccccccsccccccccccccccccccccccscccccccccccccccccccccscccsccssssscssssc" />
  <g
     id="g4398"
     style="fill:#ed4c5c;fill-opacity:1;stroke:#550000;stroke-width:0.83999097;stroke-miterlimit:4;stroke-dasharray:none;stroke-opacity:1"
     transform="matrix(0.21312194,0,0,0.21312194,7.8466168,-181.08726)" />
  <g
     id="g5299"
     transform="translate(-4.9999997e-8,-0.73893485)">
    <path
       style="fill:#c94747;fill-opacity:1;stroke:none;stroke-width:0.19095521;stroke-linecap:butt;stroke-linejoin:miter;stroke-miterlimit:4;stroke-dasharray:none;stroke-opacity:1"
       d="m 32.11047,36.65399 c 0,0 0.554033,-3.910165 -0.03868,-5.723722 -0.328297,-1.004608 -1.628098,-1.53908 -1.855146,-2.571295 -0.275314,-1.251461 0.733455,-3.773549 0.733455,-3.773549 L 42.253482,11.476682 c -1.570307,3.222966 -1.117388,5.753185 1.347295,5.929194 -5.027419,5.456264 -2.945733,6.098513 -2.175488,7.728333 -2.333554,2.113363 -3.942188,4.413659 -1.773995,6.753556 -2.325062,0.774304 -5.409271,3.033504 -4.695805,6.576709 z"
       id="path4504"
       inkscape:connector-curvature="0"
       sodipodi:nodetypes="cssccccccc" />
    <path
       sodipodi:nodetypes="cccccccccccccccccccccccccccccccccccccccccccccccccccccccccccccccccccccccccccccccccccccccccscccccccccccccccccccccccccccccccccccccccccccccccccccccccccccccccccccccccccccccccccccccccccccccccccccccccccccscccccccccccccccccccscccccccccccccccccccccccccccccccccccccccccccccccccccccsccccccccccccccsccccccccccccccccccccccc"
       id="path5573"
       d="m 32.162746,34.172791 c -1.582067,0.353692 -3.129898,0.576721 -4.431638,0.237993 -1.539542,-0.400605 -2.115102,-1.512378 -2.252255,-2.891361 0.779644,-0.109856 1.961526,0.03276 2.444119,0.269415 -0.836292,-1.232068 -1.616344,-1.568228 -2.415374,-2.145291 0.01544,-0.160422 0.02968,-0.321121 0.04947,-0.482675 0.735297,-0.210187 2.192516,-0.05698 2.742282,0.212589 -0.848035,-1.249367 -1.640077,-1.57426 -2.450803,-2.166681 0.04044,-0.2511 0.07882,-0.499348 0.113648,-0.738721 0.771125,-0.161092 2.03358,-0.05696 2.543063,0.170475 -0.847399,-1.156458 -1.612961,-1.490287 -2.401337,-2.002895 -0.0099,-0.212322 -0.03187,-0.414851 -0.05683,-0.618384 0.769451,-0.161212 1.919401,-0.111078 2.408689,0.07822 -0.873799,-1.073731 -1.972215,-1.349403 -2.898716,-1.78295 -0.07658,-0.146559 -0.162164,-0.286656 -0.258048,-0.419164 0.134066,-0.05227 0.291623,-0.08886 0.48936,-0.100279 -0.940292,-0.88668 -0.179661,-1.381698 0.682562,-1.853146 -0.471979,-0.0867 -0.838801,-0.144628 -0.980726,-0.395098 -0.363584,-0.641642 0.289617,-1.54827 -0.05816,-2.561779 0,0 -0.38432,0.984754 -1.089024,1.598438 -0.485421,0.422717 -1.387037,0.8046 -1.668634,1.202673 -0.29712,0.420013 -0.253373,0.830305 -0.253373,0.830305 -1.689544,-0.776009 -4.58519,-0.824774 -4.76991,0.397104 -0.429043,-0.115185 -1.153127,-0.09423 -1.44067,0.452588 -0.354592,-0.189146 -1.109102,-0.100101 -1.290249,0.605682 -1.241279,-0.03438 -1.948489,0.374691 -2.80579,0.936602 1.183039,-0.05102 1.794533,-0.0855 2.906069,0.143064 0,0 -0.06563,0.909055 0.776823,1.149191 0.44372,0.126481 0.994763,-0.127018 0.994763,-0.127018 l 0.292813,0.318885 c -0.535612,0.129092 -1.089804,0.225346 -1.643897,0.265404 -1.152623,0.08332 -2.259005,0.09149 -3.175487,-0.07822 0.400842,-0.150481 0.636169,-0.465526 0.909192,-0.681894 -2.215306,0.0411 -3.161855,-0.662131 -4.0565984,-1.292926 -0.015985,-0.02663 0.2531189,1.190436 1.5770454,2.22351 0.704246,0.549527 1.854484,1.837298 1.854484,1.925347 0.01195,-0.865612 -0.208266,-1.277366 -0.483342,-1.619831 1.114572,0.258694 2.417893,0.287754 3.480999,0.199219 1.583785,-0.131895 3.205821,-0.446321 4.539273,-0.784846 2.12e-4,0.129872 -0.02345,0.246331 -0.0829,0.331587 -0.262254,0.376019 -0.869212,0.01071 -1.177268,0.04813 -0.334107,0.04061 -0.630781,0.168979 -0.887131,0.464626 -0.16901,-0.0541 -0.861056,-0.193205 -0.861056,-0.193205 0,0 0.01003,0.462001 0.11231,0.781503 -0.29778,-0.123859 -0.890472,-0.185847 -0.890472,-0.185847 0,0 0.170587,0.357906 0.353651,0.728688 0.0053,0.674892 -0.245698,1.373288 0.443898,2.625961 0.286703,-0.88491 0.301863,-1.847463 0.977381,-2.621282 -0.139915,0.378878 -0.09606,0.757615 0,1.136492 0.309678,-0.47433 0.755338,-1.158839 1.155876,-1.310974 0.417185,-0.158457 0.821265,-0.01568 1.219386,-0.147076 -0.02985,0.14127 -0.06245,0.283883 -0.100279,0.425849 -0.77976,0.236699 -0.935161,1.152962 -0.582951,1.648579 -0.792726,0.317523 -1.217151,0.933556 -0.966017,2.102506 -0.728141,0.410813 -0.95401,1.045301 -0.845013,1.819051 -0.697137,0.173654 -1.127011,1.476876 -0.561558,2.393981 -0.725536,0.353422 -1.090157,1.994348 -0.298164,3.005013 -0.186284,0.210751 -0.299669,0.514117 -0.340278,0.848354 l -0.006,0.0014 C 16.225585,38.016846 15.701289,37.995467 15.17692,38.081038 15.0404,37.57046 14.75446,37.209196 14.172799,37.143769 c -0.01859,-0.664449 -0.350074,-0.964057 -0.903845,-1.004124 0,0 0.04976,-0.518533 0,-0.736044 -0.168653,-0.737232 -0.853033,-1.976823 -0.853033,-1.976823 -0.06394,-0.13243 -0.140973,-0.260389 -0.221283,-0.387075 -0.159206,-2.383426 1.372045,-2.868894 1.282226,-3.561892 -0.0075,0.0053 -0.01633,0.0078 -0.02406,0.0127 0.118704,-0.707456 -0.210029,-1.481333 -0.802228,-1.809693 0.158642,0.601147 0.176704,1.142674 0.0047,1.492813 -0.0031,-0.01492 -0.0094,-0.02776 -0.01136,-0.04345 0,0 -0.256969,-0.063 -0.353647,0.0254 -0.137366,0.125635 0.06757,0.396536 -0.02475,0.558217 -0.0918,0.160846 -0.284206,0.225603 -0.468635,0.298827 0.0088,-0.09237 0.02252,-0.189587 0.09226,-0.385069 0.104869,-0.293371 0.232927,-0.642672 0.212592,-0.88646 -0.01509,-0.18085 -0.320223,-0.415153 -0.320223,-0.415153 -0.02197,0.01701 -0.04579,0.03862 -0.06819,0.05749 -0.146583,-0.709763 -0.74723,-1.315575 -1.425958,-1.399889 0.442925,0.594054 0.669158,1.183364 0.515428,1.593091 -0.0256,-0.02263 -0.05055,-0.03838 -0.07688,-0.06752 0,0 -0.382122,0.05278 -0.409139,0.302175 -0.03496,0.17808 0.218846,0.366278 0.254707,0.544177 0.03351,0.166476 -0.05749,0.550865 -0.05749,0.550865 l -0.369694,-0.541507 c -0.01581,0.0091 -0.02776,0.01924 -0.04212,0.02875 -0.1913878,-0.705954 -0.8403615,-1.27586 -1.5295809,-1.310975 0.5228113,0.604111 0.7996265,1.22295 0.5983293,1.64858 0,0 0.064011,0.06348 0.1210008,0.11766 -0.094405,0.01526 -0.1995926,0.02748 -0.3295817,0.03207 0,0 -0.2671047,0.05461 -0.2460165,0.408467 0.013246,0.222269 0.2418372,0.316729 0.3175504,0.526128 0.08438,0.233397 -0.08094,0.503421 -0.004,0.739385 0.09547,0.292872 0.6832294,0.62106 0.6832294,0.621057 -0.1096643,0.90327 -0.4596291,1.473652 0.2754324,2.593204 -0.1854836,0.36851 -0.024747,0.41593 0.00205,0.590306 0,0 -0.4154128,0.230005 -0.5254605,0.459944 -0.094039,0.196478 0.00445,0.442971 -0.057493,0.651808 -0.054324,0.183139 -0.2917936,0.393541 -0.3108622,0.583622 -0.023275,0.230897 0.2613919,0.51677 0.2613919,0.51677 0,0 0.2257157,-0.0046 0.4679671,0.0034 -6.846e-4,6.85e-4 -0.012699,0.01003 -0.012699,0.01003 0.1625677,0.441872 -0.1688316,1.033971 -0.7433996,1.589081 0.7191727,0.02759 1.4414811,-0.53026 1.6652931,-1.260837 0.01112,0.01677 0.02139,0.03344 0.02139,0.03344 0,0 0.17872,-0.304842 0.219945,-0.473314 0.0741,-0.30289 -0.04067,-0.755099 -0.03344,-1.161225 0.0091,-0.51548 0.161784,-0.619051 0.161784,-0.619051 0.225732,0.767667 0.239547,1.635675 0.627074,2.403339 0.95489,1.891543 2.615367,3.716029 4.180943,5.607572 0.395954,0.914866 0.217412,1.829422 0,2.744288 1.022419,-0.851294 1.378545,-1.850147 1.606461,-2.877991 1.044955,0.001 1.565542,-0.172097 1.918662,-0.413147 -0.01978,0.207848 -0.04342,0.41529 0.151755,0.708634 -0.493891,0.398387 -0.5689,0.661881 -0.369694,1.421279 -0.598832,0.426006 -0.599753,1.05012 -0.596991,1.676657 0,0 -0.686676,1.12239 -1.157881,1.562337 -0.104773,0.09783 -0.216344,0.191176 -0.332926,0.279444 -2.420498,0.253924 -2.950525,-1.287066 -3.645457,-1.1766 0.0091,0.01208 0.0141,0.02608 0.02208,0.03877 -0.7184,-0.09744 -1.489575,0.26791 -1.794318,0.880447 0.580928,-0.181362 1.11191,-0.226866 1.469415,-0.08223 -0.0073,0.0014 -0.01321,0.0049 -0.02071,0.006 0,0 -0.05571,0.258216 0.03543,0.352313 0.129534,0.133696 0.394623,-0.07893 0.558888,0.0087 0.164612,0.08778 0.234307,0.280542 0.313536,0.463955 -0.08957,-0.0048 -0.18625,-0.01537 -0.377714,-0.07421 -0.297763,-0.09166 -0.652513,-0.201656 -0.895154,-0.170474 -0.179997,0.02317 -0.397772,0.333593 -0.397772,0.333593 0.01821,0.02146 0.04074,0.04498 0.06084,0.06685 -0.70401,0.176948 -1.284342,0.804583 -1.338385,1.487467 0.574513,-0.469638 1.154065,-0.720864 1.570361,-0.584289 -0.02177,0.02714 -0.037,0.05338 -0.06551,0.08156 0,0 0.06921,0.374497 0.319552,0.390416 0.179463,0.02697 0.356684,-0.232992 0.532813,-0.276767 0.164817,-0.04092 0.554206,0.03543 0.554206,0.03543 l -0.526128,0.391086 c 0.0096,0.01513 0.02013,0.02639 0.03009,0.04011 -0.696415,0.222874 -1.236446,0.897198 -1.24078,1.587074 0.580185,-0.549235 1.186319,-0.85331 1.620502,-0.671198 0,0 0.06046,-0.06689 0.111643,-0.125683 0.01944,0.09358 0.03641,0.198052 0.0468,0.327576 0,0 0.0666,0.264147 0.419164,0.2273 0.221458,-0.02317 0.306276,-0.255977 0.512088,-0.340949 0.229402,-0.09471 0.506419,0.05865 0.738717,-0.02875 0.288319,-0.108435 0.589639,-0.709972 0.589639,-0.709972 0.907264,0.06927 1.492837,0.393182 2.578493,-0.391086 0.376423,0.168859 0.416624,0.0065 0.589638,-0.02807 0,0 0.248731,0.404392 0.483343,0.504068 0.200469,0.08518 0.441772,-0.02382 0.653146,0.02875 0.185388,0.04612 0.406247,0.273423 0.596991,0.284123 0.231706,0.01301 0.504068,-0.284123 0.504068,-0.284123 0,0 -0.01448,-0.22526 -0.01739,-0.467296 6.84e-4,6.84e-4 0.01068,0.01201 0.01068,0.01201 0.43418,-0.182112 1.040314,0.121963 1.620499,0.671198 -0.0045,-0.71972 -0.593794,-1.415532 -1.333703,-1.606461 0.0167,-0.01225 0.03276,-0.02341 0.03276,-0.02341 0,0 -0.313186,-0.165545 -0.483343,-0.199219 -0.305888,-0.06051 -0.751833,0.07466 -1.157881,0.08557 -0.515377,0.01386 -0.958662,-0.08557 -0.958662,-0.08557 1.838116,-2.219283 2.915882,-3.928977 3.800553,-5.512643 0.456781,0.933367 0.736625,1.908181 0.93794,2.905402 0.400568,-1.053612 0.444092,-2.107165 0.333593,-3.160776 0.332067,0.399688 1.190734,0.668576 2.230862,-0.320224 0.74748,0.229512 1.508445,0.196276 2.585846,-0.901836 0.445458,0.01311 0.811825,-0.08131 1.111087,-0.228635 -0.131368,0.687059 0.0051,1.546195 0.925235,1.984846 0.264527,0.765596 0.809741,1.679936 2.353201,1.258827 0.378132,0.214975 0.756355,0.337975 1.134487,0.363677 -0.41324,0.156239 -0.814858,0.325064 -1.042231,0.667187 -0.425719,0.100638 -0.90099,0.15171 -0.962673,0.616378 -0.366145,0.0699 -0.729996,0.143824 -0.911198,0.583621 -0.08974,0.05745 -0.201714,0.116168 -0.314203,0.174483 -2.770076,0.480833 -3.32311,-1.232144 -4.055263,-1.115764 0.0091,0.01208 0.01414,0.02608 0.02204,0.03877 -0.718218,-0.09714 -1.488994,0.268758 -1.793647,0.881114 0.580452,-0.181212 1.110578,-0.227098 1.468076,-0.0829 -0.0071,0.0014 -0.01277,0.0049 -0.02006,0.006 0,0 -0.05505,0.258215 0.0361,0.352312 0.129531,0.133697 0.393948,-0.07893 0.558214,0.0087 0.155739,0.08305 0.226065,0.26147 0.300169,0.435874 -0.08603,-0.0052 -0.181756,-0.01746 -0.364347,-0.07354 -0.29776,-0.09167 -0.652513,-0.204327 -0.895151,-0.173148 -0.179997,0.02317 -0.400445,0.338272 -0.400445,0.338272 0.02403,0.02831 0.05381,0.0586 0.08089,0.08758 -0.711749,0.171091 -1.301292,0.804463 -1.355766,1.492813 0.565795,-0.462511 1.136755,-0.71436 1.551641,-0.591644 -0.01691,0.01961 -0.02639,0.03801 -0.0468,0.05816 0,0 0.06987,0.379237 0.320224,0.395095 0.179463,0.02697 0.356016,-0.234999 0.532145,-0.278773 0.164813,-0.04092 0.553538,0.03276 0.553538,0.03276 l -0.524793,0.39376 c 0.01523,0.02406 0.03204,0.04284 0.04814,0.06351 -0.704965,0.217066 -1.255128,0.895397 -1.259499,1.591086 0.580185,-0.549239 1.186986,-0.85331 1.621169,-0.671198 0,0 0.06217,-0.0678 0.11699,-0.131701 0.01722,0.08826 0.03194,0.187401 0.04145,0.306187 0,0 0.0666,0.264144 0.419164,0.227297 0.221458,-0.02317 0.305605,-0.255977 0.51142,-0.340949 0.229402,-0.09471 0.506416,0.05865 0.738717,-0.02875 0.288316,-0.108435 0.589639,-0.710639 0.589639,-0.710639 0.907265,0.06926 1.493505,0.393849 2.579161,-0.39042 0.376423,0.168859 0.416624,0.0065 0.589638,-0.02807 0,0 0.248064,0.404391 0.482676,0.504068 0.200468,0.08519 0.442439,-0.02451 0.653813,0.02807 0.185384,0.04612 0.405579,0.274221 0.596324,0.284791 0.231705,0.01301 0.504735,-0.284791 0.504735,-0.284791 0,0 -0.01362,-0.207862 -0.01739,-0.438551 6.84e-4,6.84e-4 0.01003,0.01136 0.01003,0.01136 0.43418,-0.182112 1.040981,0.12263 1.621166,0.671865 -0.0046,-0.727682 -0.607616,-1.430938 -1.359107,-1.612475 0.033,-0.02752 0.05816,-0.04546 0.05816,-0.04546 0,0 -0.313186,-0.165546 -0.483342,-0.19922 -0.305893,-0.0605 -0.751834,0.07468 -1.157882,0.08557 -0.515377,0.01386 -0.7327,-0.08557 -0.7327,-0.08557 2.33236,-0.679666 4.015107,-1.859067 5.24189,-3.845343 0.874422,0.04912 1.414656,0.05406 2.188744,0.905847 0,0 0.0053,-0.998264 -1.056267,-1.849134 -0.90606,-0.726254 -2.44964,-0.479961 -3.208241,-1.35911 -0.229227,-0.265653 -0.342783,-0.676897 -0.264068,-1.018828 0.137892,-0.599004 0.775923,-1.302839 1.329023,-1.824401 0.233044,0.233113 0.56636,0.397303 1.018832,0.371032 0.04864,0.775379 0.887172,1.333525 2.03164,0.958662 0.272321,0.529397 1.143827,0.890459 2.202117,0.19922 0.579555,0.521592 1.153925,0.539781 1.73348,0.05683 0.02523,0.53909 0.45916,0.623275 1.101059,0.468634 -0.151126,0.549024 0.140949,0.72033 0.525457,0.810248 -0.180035,0.52837 -0.04026,0.917978 0.320223,1.214707 -0.436819,0.524622 -0.237384,0.935921 0.170475,1.306963 -0.563636,0.452013 -0.308066,1.288138 0,1.357104 0,0 -0.174637,0.410187 -0.362342,0.76011 -0.122,0.227448 -0.38904,0.467009 -0.69192,0.666516 -2.268274,0.161657 -2.792821,-1.296322 -3.470303,-1.188632 0.0091,0.01208 0.01414,0.02608 0.02208,0.03877 -0.718396,-0.09744 -1.489575,0.267909 -1.794317,0.880443 0.580623,-0.181263 1.111245,-0.226582 1.468747,-0.08223 -0.0073,0.0014 -0.01321,0.0049 -0.02074,0.006 0,0 -0.05505,0.258216 0.0361,0.352313 0.129531,0.133696 0.393952,-0.07893 0.558217,0.0087 0.130886,0.0698 0.199141,0.209936 0.26206,0.355654 -0.07755,-0.0071 -0.169191,-0.02307 -0.326905,-0.07153 -0.29776,-0.09169 -0.652517,-0.201674 -0.895155,-0.170471 -0.179997,0.02317 -0.397771,0.33426 -0.397771,0.33426 0.04312,0.05076 0.0945,0.104335 0.144402,0.157773 -0.740507,0.146922 -1.364484,0.792941 -1.420611,1.502171 0.543721,-0.44447 1.09321,-0.698164 1.503509,-0.608355 3.42e-4,0.0021 0.06987,0.374537 0.319553,0.390416 0.179459,0.02697 0.356684,-0.233664 0.532813,-0.277439 0.164813,-0.04092 0.554205,0.03543 0.554205,0.03543 l -0.52546,0.391086 c 0.03238,0.05109 0.06733,0.09198 0.102955,0.130363 -0.730286,0.198463 -1.308503,0.889352 -1.31298,1.602449 0.580185,-0.549235 1.186315,-0.85331 1.620498,-0.671198 0,0 0.06589,-0.07052 0.127022,-0.143731 0.01195,0.07268 0.02345,0.148931 0.03074,0.239999 0,0 0.0666,0.264144 0.419164,0.227297 0.221461,-0.02317 0.305608,-0.255974 0.51142,-0.340946 0.229402,-0.09471 0.50642,0.05861 0.738717,-0.02875 0.28832,-0.108439 0.589639,-0.709968 0.589639,-0.709968 0.907265,0.06926 1.492837,0.393178 2.578493,-0.391087 0.376423,0.168876 0.416625,0.0065 0.589639,-0.02807 0,0 0.248734,0.404388 0.483342,0.504064 0.200473,0.08519 0.44244,-0.02386 0.653814,0.02875 0.185384,0.0461 0.405579,0.27344 0.596323,0.284123 0.231706,0.01301 0.504736,-0.284123 0.504736,-0.284123 0,0 -0.0114,-0.163369 -0.0167,-0.361671 6.85e-4,6.85e-4 0.01068,0.01201 0.01068,0.01201 0.434181,-0.182112 1.040318,0.121963 1.620502,0.671198 -0.0047,-0.749197 -0.642846,-1.472936 -1.42529,-1.627186 0.06546,-0.07156 0.123006,-0.108299 0.123006,-0.108299 0,0 -0.312519,-0.164878 -0.482675,-0.198552 -1.110913,0.05714 -1.495746,0.05824 -1.520219,-0.945292 -0.0167,-0.683928 0.650531,-2.851677 0.695931,-4.098716 0.0491,-1.348677 -0.291475,-2.422727 -0.291475,-2.422727 0.886614,0.228937 1.831825,0.800606 2.777712,1.385179 0,0 -0.742499,-1.646023 -1.385178,-2.251585 -1.098813,-1.035367 -2.801765,-1.394878 -4.013812,-2.295041 -0.372183,-0.276421 -0.966018,-0.830976 -0.966018,-0.830976 1.694713,-0.113063 3.374276,-0.55057 4.681667,-1.456041 1.407283,-0.974626 2.515461,-2.455295 2.379944,-4.710415 -0.02043,-0.340182 -0.09171,-0.669234 -0.205904,-0.980055 0.427095,-1.435812 0.715065,-2.748669 0.926572,-4.132143 0.515216,1.202943 0.9071,1.856575 1.677992,2.573146 -0.76103,-3.127026 -1.088969,-5.273756 -1.11844,-7.942725 -1.508489,2.961222 -2.682407,4.709988 -4.624173,6.413812 1.031668,0.07172 1.951949,-0.515603 2.983617,-1.23075 -0.296962,0.9823 -0.552494,2.055329 -0.816932,2.91543 -0.603669,-0.523191 -1.403032,-0.849025 -2.325125,-0.849025 -1.973136,0 -3.492853,1.190508 -3.573258,2.650027 -0.106105,1.925925 2.269674,3.071282 4.459051,2.125234 0,0 -0.507528,0.50686 -0.793537,0.709304 -0.384511,0.272178 -0.851239,0.424764 -1.314319,0.51142 -0.788361,0.147545 -1.597558,0.144311 -2.393981,0.04947 -1.144501,-0.136271 -2.039118,-0.576944 -3.075872,-0.795543 -1.984381,-0.418401 -3.005948,-0.621684 -5.029972,-0.589639 -0.238743,0.0038 -0.486785,0.02416 -0.738717,0.05081 -3.119801,0.07186 -3.210028,0.414029 -4.903,1.05424 z M 19.299691,23.313968 c 0.131926,0.07552 0.248847,0.182752 0.353651,0.302843 -0.437295,0.186418 -0.930632,0.376793 -1.464736,0.552867 0.288998,-0.652855 0.940819,-0.806958 1.111085,-0.85571 z m -1.696041,0.648467 0.364344,0.280779 c -0.197148,0.0617 -0.400136,0.11751 -0.605014,0.171813 z m 31.282875,6.419829 c 0.07042,-0.0027 0.1396,-0.0027 0.206571,0 0.633051,0.0266 1.195091,0.296674 1.498831,0.72468 -0.41629,0.481046 -1.515647,0.773739 -2.259608,0.554205 -0.234331,-0.07521 -0.528986,-0.3582 -0.51142,-0.603675 0.03504,-0.489768 0.572682,-0.656648 1.065626,-0.67521 z"
       style="fill:#ed4c5c;fill-opacity:1;stroke:none;stroke-width:0.19095522;stroke-linecap:butt;stroke-linejoin:miter;stroke-miterlimit:4;stroke-dasharray:none;stroke-opacity:1"
       inkscape:connector-curvature="0" />
    <path
       inkscape:connector-curvature="0"
       style="display:inline;fill:#f9f9f9;fill-opacity:1;stroke:none;stroke-width:0.19095521;stroke-miterlimit:4;stroke-dasharray:none"
       d="m 20.399137,21.590531 c -0.04937,0.391926 -0.507867,0.896883 -1.066936,0.820136 -0.659954,-0.09062 -1.17556,-0.7168 -0.960596,-1.075531 0.203033,-0.338813 0.59006,-0.189776 1.149947,-0.119245 0.559891,0.07052 0.926953,-0.01725 0.877585,0.374647 z"
       id="path9485-5"
       sodipodi:nodetypes="csssc" />
    <path
       sodipodi:nodetypes="cssccccccc"
       inkscape:connector-curvature="0"
       id="path5508"
       d="m 31.264368,36.688264 c 0,0 1.841759,-3.49346 1.896202,-5.400643 0.03012,-1.056458 -1.012815,-1.998416 -0.878002,-3.046674 0.163453,-1.270919 1.964515,-3.304285 1.964515,-3.304285 l 15.065716,-8.522315 c -2.566317,2.503474 -2.994324,5.038026 -0.733816,6.035896 -6.574473,3.438325 -4.831893,4.745738 -4.657191,6.539914 -2.910085,1.201325 -5.20094,2.823376 -3.950144,5.757945 -2.449959,-0.05621 -6.115854,1.028918 -6.640648,4.604937 z"
       style="fill:#ed4c5c;fill-opacity:1;stroke:none;stroke-width:0.19095521;stroke-linecap:butt;stroke-linejoin:miter;stroke-miterlimit:4;stroke-dasharray:none;stroke-opacity:1" />
  </g>
</svg>
