<?xml version="1.0" encoding="UTF-8" standalone="no"?>
<svg
   xmlns:dc="http://purl.org/dc/elements/1.1/"
   xmlns:cc="http://creativecommons.org/ns#"
   xmlns:rdf="http://www.w3.org/1999/02/22-rdf-syntax-ns#"
   xmlns:svg="http://www.w3.org/2000/svg"
   xmlns="http://www.w3.org/2000/svg"
   xmlns:sodipodi="http://sodipodi.sourceforge.net/DTD/sodipodi-0.dtd"
   xmlns:inkscape="http://www.inkscape.org/namespaces/inkscape"
   viewBox="0 0 64 64"
   enable-background="new 0 0 64 64"
   version="1.1"
   id="svg60"
   sodipodi:docname="1f3f4-e0067-e0062-e0073-e0063-e0074-e007f.svg"
   inkscape:version="0.92.1 r">
  <title
     id="title4488">Scotland</title>
  <metadata
     id="metadata66">
    <rdf:RDF>
      <cc:Work
         rdf:about="">
        <dc:format>image/svg+xml</dc:format>
        <dc:type
           rdf:resource="http://purl.org/dc/dcmitype/StillImage" />
        <dc:title>Scotland</dc:title>
        <cc:license
           rdf:resource="http://creativecommons.org/licenses/by-sa/4.0/" />
        <dc:subject>
          <rdf:Bag>
            <rdf:li>flag</rdf:li>
          </rdf:Bag>
        </dc:subject>
        <dc:description>U+1F3F4+E0067+E0062+E0073+E0063+E0074+E007F</dc:description>
      </cc:Work>
      <cc:License
         rdf:about="http://creativecommons.org/licenses/by-sa/4.0/">
        <cc:permits
           rdf:resource="http://creativecommons.org/ns#Reproduction" />
        <cc:permits
           rdf:resource="http://creativecommons.org/ns#Distribution" />
        <cc:requires
           rdf:resource="http://creativecommons.org/ns#Notice" />
        <cc:requires
           rdf:resource="http://creativecommons.org/ns#Attribution" />
        <cc:permits
           rdf:resource="http://creativecommons.org/ns#DerivativeWorks" />
        <cc:requires
           rdf:resource="http://creativecommons.org/ns#ShareAlike" />
      </cc:License>
    </rdf:RDF>
  </metadata>
  <defs
     id="defs64">
    <clipPath
       clipPathUnits="userSpaceOnUse"
       id="clipPath4494">
      <ellipse
         ry="30.101696"
         rx="30.508474"
         cy="32"
         cx="32"
         id="ellipse4496"
         style="opacity:1;fill:#2a5f9e;fill-opacity:1;fill-rule:nonzero;stroke:none;stroke-width:5.07943106;stroke-miterlimit:4;stroke-dasharray:none;stroke-opacity:1"
         transform="matrix(-0.86961419,0.49373187,0.49373187,0.86961419,0,0)" />
    </clipPath>
    <clipPath
       clipPathUnits="userSpaceOnUse"
       id="clipPath4498">
      <ellipse
         ry="30.101696"
         rx="30.508474"
         cy="32"
         cx="32"
         id="ellipse4500"
         style="opacity:1;fill:#2a5f9e;fill-opacity:1;fill-rule:nonzero;stroke:none;stroke-width:5.07943106;stroke-miterlimit:4;stroke-dasharray:none;stroke-opacity:1"
         transform="rotate(-29.586163)" />
    </clipPath>
  </defs>
  <sodipodi:namedview
     pagecolor="#ffffff"
     bordercolor="#666666"
     borderopacity="1"
     objecttolerance="10"
     gridtolerance="10"
     guidetolerance="10"
     inkscape:pageopacity="0"
     inkscape:pageshadow="2"
     inkscape:window-width="1299"
     inkscape:window-height="708"
     id="namedview62"
     showgrid="false"
     inkscape:zoom="11.140414"
     inkscape:cx="39.157693"
     inkscape:cy="43.98441"
     inkscape:window-x="67"
     inkscape:window-y="27"
     inkscape:window-maximized="1"
     inkscape:current-layer="svg60" />
  <path
     style="opacity:1;fill:#2a5f9e;fill-opacity:1;fill-rule:nonzero;stroke:none;stroke-width:5;stroke-miterlimit:4;stroke-dasharray:none;stroke-opacity:1"
     d="M 32,1.8984377 A 30.101395,30.101395 0 0 0 10.814453,10.634766 L 32,26.9375 53.177734,10.638672 A 30.101395,30.101395 0 0 0 32,1.8984377 Z M 10.814453,10.634766 A 30.101395,30.101395 0 0 0 5.9316408,17.001953 30.101395,30.101395 0 0 1 10.814453,10.634766 Z M 5.9316408,17.001953 A 30.101395,30.101395 0 0 0 1.8984377,32 30.101395,30.101395 0 0 0 5.9414064,46.992188 L 25.421875,32 Z m 0.00977,29.990235 A 30.101395,30.101395 0 0 0 7.5156252,49.447266 30.101395,30.101395 0 0 1 5.9414064,46.992188 Z M 53.185547,10.646484 a 30.101395,30.101395 0 0 1 1.142578,1.216797 30.101395,30.101395 0 0 0 -1.142578,-1.216797 z m 1.523437,1.650391 A 30.101395,30.101395 0 0 1 56.375,14.400391 30.101395,30.101395 0 0 0 54.708984,12.296875 Z m 1.775391,2.255859 a 30.101395,30.101395 0 0 1 1.574219,2.455078 30.101395,30.101395 0 0 0 -1.574219,-2.455078 z M 58.058594,17.007812 38.578125,32 58.068359,46.998047 A 30.101395,30.101395 0 0 0 62.101562,32 30.101395,30.101395 0 0 0 58.058594,17.007812 Z m 0.0098,29.990235 a 30.101395,30.101395 0 0 1 -4.882812,6.367187 30.101395,30.101395 0 0 0 4.882812,-6.367187 z M 53.185547,53.365234 32,37.0625 10.822266,53.361328 A 30.101395,30.101395 0 0 0 32,62.101562 30.101395,30.101395 0 0 0 53.185547,53.365234 Z M 7.6250002,49.599609 a 30.101395,30.101395 0 0 0 1.6660156,2.103516 30.101395,30.101395 0 0 1 -1.6660156,-2.103516 z m 2.046875,2.53711 a 30.101395,30.101395 0 0 0 1.1425778,1.216797 30.101395,30.101395 0 0 1 -1.1425778,-1.216797 z"
     id="path5816"
     inkscape:connector-curvature="0" />
  <path
     style="opacity:1;fill:#f9f9f9;fill-opacity:1;fill-rule:nonzero;stroke:none;stroke-width:5;stroke-miterlimit:4;stroke-dasharray:none;stroke-opacity:1"
     d="m 32.000002,1.8984376 a 30.101395,30.101395 0 0 0 -2.57617,0.1308594 30.101395,30.101395 0 0 1 2.57617,-0.1308594 z m 2.67187,0.1328125 a 30.101395,30.101395 0 0 1 1.7461,0.2324219 30.101395,30.101395 0 0 0 -1.7461,-0.2324219 z m -6.69336,0.1738282 a 30.101395,30.101395 0 0 0 -1.54687,0.234375 30.101395,30.101395 0 0 1 1.54687,-0.234375 z m 9.66211,0.2441406 a 30.101395,30.101395 0 0 1 1.84961,0.4355468 30.101395,30.101395 0 0 0 -1.84961,-0.4355468 z m -12.53515,0.2871094 a 30.101395,30.101395 0 0 0 -1.65821,0.4257812 30.101395,30.101395 0 0 1 1.65821,-0.4257812 z m 15.41601,0.4121093 a 30.101395,30.101395 0 0 1 2.02539,0.6972657 30.101395,30.101395 0 0 0 -2.02539,-0.6972657 z m -18.19726,0.3867188 a 30.101395,30.101395 0 0 0 -1.73242,0.6328125 30.101395,30.101395 0 0 1 1.73242,-0.6328125 z m 20.99609,0.59375 a 30.101395,30.101395 0 0 1 2.1582,0.9941406 30.101395,30.101395 0 0 0 -2.1582,-0.9941406 z M 19.576172,4.623047 A 30.101395,30.101395 0 0 0 17.84961,5.4589845 30.101395,30.101395 0 0 1 19.576172,4.623047 Z m 26.43359,0.7578125 a 30.101395,30.101395 0 0 1 2.19336,1.2890625 30.101395,30.101395 0 0 0 -2.19336,-1.2890625 z M 16.94336,5.9785157 A 30.101395,30.101395 0 0 0 15.253906,7.0156251 30.101395,30.101395 0 0 1 16.94336,5.9785157 Z m 31.632812,0.9199219 a 30.101395,30.101395 0 0 1 2.18359,1.5996099 30.101395,30.101395 0 0 0 -2.18359,-1.5996099 z M 14.466797,7.5800783 a 30.101395,30.101395 0 0 0 -1.642578,1.2500002 30.101395,30.101395 0 0 1 1.642578,-1.2500002 z m 36.509765,1.0820312 a 30.101395,30.101395 0 0 1 2.11133,1.8964835 30.101395,30.101395 0 0 0 -2.11133,-1.8964835 z m -39.029296,0.9375 a 30.101395,30.101395 0 0 0 -1.13086,1.0332025 30.101395,30.101395 0 0 1 1.13086,-1.0332025 z m -1.132813,1.0351555 a 30.101395,30.101395 0 0 0 -0.0078,0.0078 A 30.101395,30.101395 0 0 0 9.1172,12.50194 30.101395,30.101395 0 0 0 8.189465,13.671862 30.101395,30.101395 0 0 0 7.292981,14.882799 30.101395,30.101395 0 0 0 5.931653,17.00194 L 25.421872,32 5.941406,46.992187 a 30.101395,30.101395 0 0 0 1.683594,2.607422 30.101395,30.101395 0 0 0 0.00195,0.0039 30.101395,30.101395 0 0 0 1.66211,2.095703 30.101395,30.101395 0 0 0 0.00195,0.0039 30.101395,30.101395 0 0 0 0.380859,0.433593 30.101395,30.101395 0 0 0 0.00391,0.0039 30.101395,30.101395 0 0 0 1.134766,1.208984 30.101395,30.101395 0 0 0 0.0039,0.0039 30.101395,30.101395 0 0 0 0.0078,0.0078 l 21.177736,-16.298828 21.18554,16.302734 a 30.101395,30.101395 0 0 0 0.002,-0.002 30.101395,30.101395 0 0 0 1.69531,-1.865234 30.101395,30.101395 0 0 0 0.93359,-1.175782 30.101395,30.101395 0 0 0 0.88868,-1.199218 30.101395,30.101395 0 0 0 1.36328,-2.125 L 38.578122,32 58.058592,17.007812 a 30.101395,30.101395 0 0 0 -1.68359,-2.607422 30.101395,30.101395 0 0 0 -0.002,-0.0039 30.101395,30.101395 0 0 0 -1.65429,-2.087891 30.101395,30.101395 0 0 0 -0.39063,-0.445312 30.101395,30.101395 0 0 0 -0.01953,-0.02148 30.101395,30.101395 0 0 0 -1.10351,-1.175782 30.101395,30.101395 0 0 0 -0.0293,-0.02539 L 31.999962,26.93751 Z m 47.253909,36.363282 a 30.101395,30.101395 0 0 0 1.27734,-2.492188 30.101395,30.101395 0 0 1 -1.27734,2.492188 z m 0,0 a 30.101395,30.101395 0 0 1 -1.36328,2.125 30.101395,30.101395 0 0 1 -0.23438,0.367187 30.101395,30.101395 0 0 0 1.59766,-2.492187 z m -2.25196,3.324218 a 30.101395,30.101395 0 0 1 -0.93359,1.175782 30.101395,30.101395 0 0 1 -0.23633,0.298828 30.101395,30.101395 0 0 0 1.67578,-2.113282 30.101395,30.101395 0 0 1 -0.50586,0.638672 z m -2.63086,3.042969 a 30.101395,30.101395 0 0 1 -1.12109,1.025391 30.101395,30.101395 0 0 0 1.12109,-1.025391 z M 5.941406,46.992187 A 30.101395,30.101395 0 0 1 4.333984,43.777343 30.101395,30.101395 0 0 0 5.941406,46.992187 Z M 5.931641,17.001953 a 30.101395,30.101395 0 0 0 -1.267578,2.470703 30.101395,30.101395 0 0 1 1.267578,-2.470703 z m 0,0 A 30.101395,30.101395 0 0 1 7.292969,14.882812 30.101395,30.101395 0 0 1 7.53125,14.511718 30.101395,30.101395 0 0 0 5.931641,17.001953 Z m 2.257812,-3.330078 a 30.101395,30.101395 0 0 1 0.927735,-1.169922 30.101395,30.101395 0 0 1 0.236328,-0.296875 30.101395,30.101395 0 0 0 -1.673828,2.111328 30.101395,30.101395 0 0 1 0.509765,-0.644531 z m 49.873049,3.341796 a 30.101395,30.101395 0 0 1 1.61914,3.246094 30.101395,30.101395 0 0 0 -1.61914,-3.246094 z M 4.53125,19.748047 A 30.101395,30.101395 0 0 0 3.595703,22.136718 30.101395,30.101395 0 0 1 4.53125,19.748047 Z m 55.167972,0.548828 a 30.101395,30.101395 0 0 1 0.94336,2.5625 30.101395,30.101395 0 0 0 -0.94336,-2.5625 z M 3.431641,22.58789 A 30.101395,30.101395 0 0 0 2.794922,24.853515 30.101395,30.101395 0 0 1 3.431641,22.58789 Z m 57.333981,0.644531 a 30.101395,30.101395 0 0 1 0.59375,2.296876 30.101395,30.101395 0 0 0 -0.59375,-2.296876 z M 2.619141,25.542968 a 30.101395,30.101395 0 0 0 -0.355469,2.035157 30.101395,30.101395 0 0 1 0.355469,-2.035157 z m 58.902341,0.708985 a 30.101395,30.101395 0 0 1 0.31055,2.013672 30.101395,30.101395 0 0 0 -0.31055,-2.013672 z M 2.111328,28.585937 a 30.101395,30.101395 0 0 0 -0.128906,1.71875 30.101395,30.101395 0 0 1 0.128906,-1.71875 z m 59.849614,0.759766 A 30.101395,30.101395 0 0 1 62.101562,32 30.101395,30.101395 0 0 0 61.960942,29.345703 Z M 1.898438,32 A 30.101395,30.101395 0 0 0 2.039063,34.654297 30.101395,30.101395 0 0 1 1.898438,32 Z m 60.119144,1.697265 a 30.101395,30.101395 0 0 1 -0.12891,1.720703 30.101395,30.101395 0 0 0 0.12891,-1.720703 z m -59.84766,2.039063 a 30.101395,30.101395 0 0 0 0.308594,2.017578 30.101395,30.101395 0 0 1 -0.308594,-2.017578 z m 59.56836,0.683593 a 30.101395,30.101395 0 0 1 -0.35742,2.033204 30.101395,30.101395 0 0 0 0.35742,-2.033204 z m -59.09961,2.039063 a 30.101395,30.101395 0 0 0 0.59375,2.304687 30.101395,30.101395 0 0 1 -0.59375,-2.304687 z m 58.5625,0.701172 a 30.101395,30.101395 0 0 1 -0.63281,2.253906 30.101395,30.101395 0 0 0 0.63281,-2.253906 z M 3.365234,41.164062 A 30.101395,30.101395 0 0 0 4.292969,43.6875 30.101395,30.101395 0 0 1 3.365234,41.164062 Z m 57.039068,0.699219 a 30.101395,30.101395 0 0 1 -0.93946,2.396484 30.101395,30.101395 0 0 0 0.93946,-2.396484 z M 10.855469,53.390625 a 30.101395,30.101395 0 0 0 2.166015,1.947265 30.101395,30.101395 0 0 1 -2.166015,-1.947265 z m 40.316403,1.785156 a 30.101395,30.101395 0 0 1 -1.61328,1.228516 30.101395,30.101395 0 0 0 1.61328,-1.228516 z m -37.914059,0.341797 a 30.101395,30.101395 0 0 0 2.152343,1.576172 30.101395,30.101395 0 0 1 -2.152343,-1.576172 z m 35.476559,1.476562 a 30.101395,30.101395 0 0 1 -1.66992,1.025391 30.101395,30.101395 0 0 0 1.66992,-1.025391 z M 15.84961,57.363281 a 30.101395,30.101395 0 0 0 2.140624,1.257812 30.101395,30.101395 0 0 1 -2.140624,-1.257812 z m 30.300782,1.179687 a 30.101395,30.101395 0 0 1 -1.72656,0.835938 30.101395,30.101395 0 0 0 1.72656,-0.835938 z m -27.628908,0.335938 a 30.101395,30.101395 0 0 0 2.156248,0.994141 30.101395,30.101395 0 0 1 -2.156248,-0.994141 z m 24.886718,0.955078 a 30.101395,30.101395 0 0 1 -1.73242,0.632813 30.101395,30.101395 0 0 0 1.73242,-0.632813 z m -21.96094,0.318359 a 30.101395,30.101395 0 0 0 2.04883,0.705078 30.101395,30.101395 0 0 1 -2.04883,-0.705078 z m 19.10743,0.685547 a 30.101395,30.101395 0 0 1 -1.70899,0.4375 30.101395,30.101395 0 0 0 1.70899,-0.4375 z m -16.13477,0.25586 a 30.101395,30.101395 0 0 0 1.96094,0.46289 30.101395,30.101395 0 0 1 -1.96094,-0.46289 z m 13.18164,0.460937 a 30.101395,30.101395 0 0 1 -1.65039,0.251953 30.101395,30.101395 0 0 0 1.65039,-0.251953 z m -10.03516,0.181641 a 30.101395,30.101395 0 0 0 1.73829,0.230469 30.101395,30.101395 0 0 1 -1.73829,-0.230469 z m 7.03711,0.232422 a 30.101395,30.101395 0 0 1 -2.60351,0.132812 30.101395,30.101395 0 0 0 2.60351,-0.132812 z"
     id="circle5875"
     inkscape:connector-curvature="0" />
</svg>
