<?xml version="1.0" encoding="UTF-8" standalone="no"?>
<svg
   viewBox="0 0 64 64"
   version="1.1"
   id="svg12"
   sodipodi:docname="1f46e-200d-2640.svg"
   inkscape:version="1.3.2 (091e20e, 2023-11-25, custom)"
   xmlns:inkscape="http://www.inkscape.org/namespaces/inkscape"
   xmlns:sodipodi="http://sodipodi.sourceforge.net/DTD/sodipodi-0.dtd"
   xmlns="http://www.w3.org/2000/svg"
   xmlns:svg="http://www.w3.org/2000/svg"
   xmlns:rdf="http://www.w3.org/1999/02/22-rdf-syntax-ns#"
   xmlns:cc="http://creativecommons.org/ns#"
   xmlns:dc="http://purl.org/dc/elements/1.1/">
  <defs
     id="defs12" />
  <sodipodi:namedview
     id="namedview12"
     pagecolor="#ffffff"
     bordercolor="#000000"
     borderopacity="0.25"
     inkscape:showpageshadow="2"
     inkscape:pageopacity="0.0"
     inkscape:pagecheckerboard="0"
     inkscape:deskcolor="#d1d1d1"
     inkscape:zoom="12.046875"
     inkscape:cx="31.958495"
     inkscape:cy="32"
     inkscape:window-width="1920"
     inkscape:window-height="991"
     inkscape:window-x="-9"
     inkscape:window-y="-9"
     inkscape:window-maximized="1"
     inkscape:current-layer="svg12" />
  <title
     id="title1">woman police officer</title>
  <path
     fill="#ffbc00"
     d="m 32,17.3 c -15.8,0 -27,0.5 -27,10 0,0.8 0.8,34.669261 0.8,34.669261 L 59.296109,62.716342 59.1,27.3 C 59,19.9 49.4,17.3 32,17.3"
     id="path1"
     sodipodi:nodetypes="cscccc" />
  <path
     fill="#ffdd67"
     d="M56 37c-4-1.7-1.9-7.9-1.9-7.9-1.8 1-5.5 1.2-10.1.9 1.2.8 2 1.3 2 1.3-4.6 1.7-10.1.8-10.1.8 1.6 1.2 2.6 1.8 2.6 1.8-15 .5-23.5-5.4-27.8-9.8-3.6 7.2 0 10.4-2.7 12.9 0 0-4 0-4 5s4 5 4 5c0 8 18 15 24 15s24-7 24-15c0 0 4 0 4-5s-4-5-4-5"
     id="path2" />
  <path
     fill="#f5f5f5"
     d="M20 35.8c-5 0-7 1.8-7 3.6s0 4.4 6.6 4.4c6.4 0 7.4-.8 7.4-3.5 0-1.8-2-4.5-7-4.5"
     id="path3" />
  <circle
     cx="20.5"
     cy="38.8"
     r="4.5"
     fill="#664e27"
     id="circle3" />
  <path
     fill="#231f20"
     d="M22 38.8c0 .8-.7 1.5-1.5 1.5s-1.5-.7-1.5-1.5.7-1.5 1.5-1.5 1.5.7 1.5 1.5"
     id="path4" />
  <path
     fill="#664e27"
     d="M13 39.3c0-7 14-7 14 1-2-6-12-6-14-1"
     id="path5" />
  <path
     fill="#f5f5f5"
     d="M44 35.8c5 0 7 1.8 7 3.6s0 4.4-6.6 4.4c-6.4 0-7.4-.8-7.4-3.5 0-1.8 2-4.5 7-4.5"
     id="path6" />
  <circle
     cx="43.5"
     cy="38.8"
     r="4.5"
     fill="#664e27"
     id="circle6" />
  <path
     fill="#231f20"
     d="M42 38.8c0 .8.7 1.5 1.5 1.5s1.5-.7 1.5-1.5-.7-1.5-1.5-1.5-1.5.7-1.5 1.5"
     id="path7" />
  <path
     fill="#664e27"
     d="M51 39.3c0-7-14-7-14 1 2-6 12-6 14-1"
     id="path8" />
  <path
     fill="#937237"
     d="M41 50.9c0 3.4-4.5 5.1-9 5.1s-9-1.7-9-5.1c0 0 0-.9.9-.9h16.2c.9 0 .9.9.9.9"
     id="path9" />
  <path
     fill="#454749"
     d="M59 23.2c0 3.2-11.9 7-27 7s-27-3.8-27-7h54"
     id="path10" />
  <path
     fill="#428bc1"
     d="M46.7 10.7C42.6 8.9 36.4 2 32 2c-4.4 0-10.6 6.9-14.7 8.7-3.3 1.5-9.5 2-12 4.6-2.7 2.9-.3 8-.3 8S5.3 26 32 26s27-2.6 27-2.6 2.4-5.2-.3-8c-2.5-2.7-8.7-3.2-12-4.7"
     id="path11" />
  <path
     fill="#fbbf67"
     d="M29.4 10.6C30.9 9.9 32 7 32 7s1.1 2.9 2.6 3.6c1.4.6 4.4-2.2 4.4-2.2s-.3 7.1-.8 8.5c-1.4 3.8-6.2 6-6.2 6s-4.8-2.2-6.2-6c-.5-1.4-.8-8.5-.8-8.5s3.1 2.8 4.4 2.2"
     id="path12" />
  <metadata
     id="metadata12">
    <rdf:RDF>
      <cc:Work
         rdf:about="">
        <dc:title>woman police officer</dc:title>
      </cc:Work>
    </rdf:RDF>
  </metadata>
</svg>
