<?xml version="1.0" encoding="UTF-8" standalone="no"?>
<svg
   viewBox="0 0 64 64"
   version="1.1"
   id="svg17"
   sodipodi:docname="1f468-200d-1f469-200d-1f467-200d-1f466.svg"
   inkscape:version="1.3.2 (091e20e, 2023-11-25, custom)"
   xmlns:inkscape="http://www.inkscape.org/namespaces/inkscape"
   xmlns:sodipodi="http://sodipodi.sourceforge.net/DTD/sodipodi-0.dtd"
   xmlns="http://www.w3.org/2000/svg"
   xmlns:svg="http://www.w3.org/2000/svg"
   xmlns:rdf="http://www.w3.org/1999/02/22-rdf-syntax-ns#"
   xmlns:cc="http://creativecommons.org/ns#"
   xmlns:dc="http://purl.org/dc/elements/1.1/">
  <defs
     id="defs17" />
  <sodipodi:namedview
     id="namedview17"
     pagecolor="#ffffff"
     bordercolor="#000000"
     borderopacity="0.25"
     inkscape:showpageshadow="2"
     inkscape:pageopacity="0.0"
     inkscape:pagecheckerboard="0"
     inkscape:deskcolor="#d1d1d1"
     inkscape:zoom="12.046875"
     inkscape:cx="32"
     inkscape:cy="32"
     inkscape:window-width="1920"
     inkscape:window-height="991"
     inkscape:window-x="-9"
     inkscape:window-y="-9"
     inkscape:window-maximized="1"
     inkscape:current-layer="svg17" />
  <title
     id="title1">family: man, woman, girl, boy</title>
  <path
     fill="#ffb300"
     d="M17 2C7.3 2 2 8.3 2 16.7v18.5h30V16.7c0-12.4-8.1-12.2-8.1-12.2S23.3 2 17 2z"
     id="path1" />
  <path
     fill="#01579b"
     d="M32 34.8V62h30V34.8c0-5.8-30-5.8-30 0"
     id="path2" />
  <path
     fill="#c2185b"
     d="M2 34.8V62h30V34.8c0-5.8-30-5.8-30 0z"
     id="path3" />
  <path
     fill="#ffdd67"
     d="M6.4 23.6s-2.2-.6-2.2-3.9c0-2.6 1.7-3.1 1.7-3.1 6 0 15.8-7.8 15.8-7.8s3.7 6.9 7.3 7.8c0 0 1.7.3 1.7 3.1 0 3.3-2.3 3.9-2.3 3.9 0 5-6.8 10-11 10-4 0-11-5-11-10"
     id="path4" />
  <g
     fill="#937237"
     id="g5">
    <circle
       cx="12.1"
       cy="20.3"
       r="2.2"
       id="circle4" />
    <circle
       cx="22.9"
       cy="20.3"
       r="2.2"
       id="circle5" />
    <path
       d="M21.1 27.1c-2.3 1.8-4.9 1.8-7.2 0-.3-.2-.5.2-.3.5.7 1.3 2.1 2.4 3.9 2.4s3.2-1.1 3.9-2.4c.2-.3 0-.7-.3-.5"
       id="path5" />
  </g>
  <path
     fill="#ffb300"
     d="M31.9 17.3l1.5 2.8h26.2l1.1-2.9c0-10.6-2.5-15-14.1-15.1-11.8-.2-14.7 4.5-14.7 15.2"
     id="path6" />
  <path
     fill="#ffdd67"
     d="M59.7 17.1c-.1.6-.2 1.2-.4 1.5-.3.6-.9.9-.9.9s.2-1.2.1-2.8c-.7-9.7-1.2-5.1-11.9-5.1-10.7 0-11.3-4.7-11.9 5-.1 1.7.1 2.8.1 2.8s-.6-.3-.9-.9c-.2-.3-.3-.9-.4-1.5-1-.3-2.3 0-2.3 2.9 0 1.8.7 3.3 2.9 3.5.8 6.1 8.9 10.1 12.6 10.1 3.6 0 11.8-4.1 12.6-10.1 2.2-.2 2.9-1.7 2.9-3.5-.2-2.8-1.5-3-2.5-2.8"
     id="path7" />
  <g
     fill="#937237"
     id="g8">
    <circle
       cx="41"
       cy="20.3"
       r="2.2"
       id="circle7" />
    <circle
       cx="52"
       cy="20.3"
       r="2.2"
       id="circle8" />
    <path
       d="M50.1 27.1c-2.3 1.8-4.9 1.8-7.2 0-.3-.2-.5.2-.3.5.7 1.3 2.1 2.4 3.9 2.4s3.2-1.1 3.9-2.4c.2-.3 0-.7-.3-.5"
       id="path8" />
  </g>
  <path
     fill="#29b6f6"
     d="M57 62H32c0-8.4 25-8.4 25 0"
     id="path9" />
  <path
     fill="#ffb300"
     d="M44.5 36c-6.7 0-10.9 3.8-10.9 8.5v3.2c0 3.7 2.9 3.7 2.9 3.7h16.4s2.5 0 2.5-3.7v-3.2c0-4.7-4.4-8.5-10.9-8.5"
     id="path10" />
  <path
     fill="#ffdd67"
     d="M34.6 48.5L35 44c0-2.9 4.5-.6 9.5-.6s9.5-2.3 9.5.6l.4 4.5c2.2 0 2.2 3.5 0 3.5 0 4.4-5.9 7-9.9 7s-9.9-2.6-9.9-7c-2.1 0-2.1-3.5 0-3.5"
     id="path11" />
  <g
     fill="#937237"
     id="g12">
    <circle
       cx="39.7"
       cy="49.8"
       r="1.8"
       id="circle11" />
    <circle
       cx="49.3"
       cy="49.8"
       r="1.8"
       id="circle12" />
    <path
       d="M41.4 54.4c2 1.5 4.3 1.5 6.3 0 .2-.2.5.1.3.4-.6 1.1-1.9 2-3.4 2-1.6 0-2.8-1-3.4-2-.3-.3-.1-.6.2-.4"
       id="path12" />
  </g>
  <path
     fill="#ffb300"
     d="M30 51.6h.9v-5.7c0-5.5-4.4-9.8-11.6-9.8-6.9 0-11.6 4.4-11.6 9.8v5.7h1.2c-1.5 1.7-2.7 5.4-1.4 7.7.5.9 5.9 4.2 6.4-1.6H25c.5 5.8 5.9 2.5 6.4 1.6 1.3-2.3.1-6-1.4-7.7"
     id="path13" />
  <g
     fill="#ff81ab"
     id="g14">
    <path
       d="M19.3 37.8C13.1 37.8 8.9 41 8.9 45v1.2c0-4 4.2-7.2 10.4-7.2 6.4 0 10.4 3.2 10.4 7.2V45c0-4-3.9-7.2-10.4-7.2M7 62h25c0-8.4-25-8.4-25 0"
       id="path14" />
  </g>
  <path
     fill="#ffdd67"
     d="M29.3 52.8s1.8.3 1.8-1.7c0-1.6-1.8-1.5-1.8-1.5v-1.8s-13.5-.6-16.6-5.7c.8 5.1-3.3 7.4-3.3 7.4s-1.8-.2-1.8 1.5c0 2 1.8 1.7 1.8 1.7 0 3 5.3 6.2 10.2 6.2 4.4.1 9.7-2.6 9.7-6.1"
     id="path15" />
  <g
     fill="#937237"
     id="g17">
    <path
       d="M25.8 49.8c0 1-.8 1.8-1.8 1.8s-1.8-.8-1.8-1.8.9-1.8 1.8-1.8c1 0 1.8.8 1.8 1.8"
       id="path16" />
    <circle
       cx="14.9"
       cy="49.8"
       r="1.8"
       id="circle16" />
    <path
       d="M22.6 54.4c-2 1.5-4.3 1.5-6.3 0-.2-.2-.5.1-.3.4.6 1.1 1.9 2 3.4 2 1.6 0 2.8-1 3.4-2 .3-.3 0-.6-.2-.4"
       id="path17" />
  </g>
  <metadata
     id="metadata17">
    <rdf:RDF>
      <cc:Work
         rdf:about="">
        <dc:title>family: man, woman, girl, boy</dc:title>
      </cc:Work>
    </rdf:RDF>
  </metadata>
</svg>
