<?xml version="1.0" encoding="UTF-8" standalone="no"?>
<svg
   viewBox="0 0 64 64"
   version="1.1"
   id="svg9"
   sodipodi:docname="1f469-2764-1f468.svg"
   inkscape:version="1.3.2 (091e20e, 2023-11-25, custom)"
   xmlns:inkscape="http://www.inkscape.org/namespaces/inkscape"
   xmlns:sodipodi="http://sodipodi.sourceforge.net/DTD/sodipodi-0.dtd"
   xmlns="http://www.w3.org/2000/svg"
   xmlns:svg="http://www.w3.org/2000/svg"
   xmlns:rdf="http://www.w3.org/1999/02/22-rdf-syntax-ns#"
   xmlns:cc="http://creativecommons.org/ns#"
   xmlns:dc="http://purl.org/dc/elements/1.1/">
  <defs
     id="defs9" />
  <sodipodi:namedview
     id="namedview9"
     pagecolor="#ffffff"
     bordercolor="#000000"
     borderopacity="0.25"
     inkscape:showpageshadow="2"
     inkscape:pageopacity="0.0"
     inkscape:pagecheckerboard="0"
     inkscape:deskcolor="#d1d1d1"
     inkscape:zoom="12.046875"
     inkscape:cx="31.958495"
     inkscape:cy="32"
     inkscape:window-width="1920"
     inkscape:window-height="991"
     inkscape:window-x="-9"
     inkscape:window-y="-9"
     inkscape:window-maximized="1"
     inkscape:current-layer="svg9" />
  <title
     id="title1">woman, red heart, man</title>
  <path
     fill="#ffb300"
     d="M17 22C7.3 22 2 28.3 2 36.7v18.5h30V36.7c0-12.4-8.1-12.2-8.1-12.2S23.3 22 17 22z"
     id="path1" />
  <path
     fill="#01579b"
     d="M32 54.8V62h30v-7.2c0-5.8-30-5.8-30 0"
     id="path2" />
  <path
     fill="#c2185b"
     d="M2 54.8V62h30v-7.2c0-5.8-30-5.8-30 0"
     id="path3" />
  <path
     fill="#ffdd67"
     d="M6.4 43.6s-2.2-.6-2.2-3.9c0-2.6 1.7-3.1 1.7-3.1 6 0 15.8-7.8 15.8-7.8s3.7 6.9 7.3 7.8c0 0 1.7.3 1.7 3.1 0 3.3-2.3 3.9-2.3 3.9 0 5-6.8 10-11 10-4 0-11-5-11-10"
     id="path4" />
  <g
     fill="#937237"
     id="g5">
    <circle
       cx="12.1"
       cy="40.3"
       r="2.2"
       id="circle4" />
    <circle
       cx="22.9"
       cy="40.3"
       r="2.2"
       id="circle5" />
    <path
       d="M21.1 47.2c-2.3 1.8-4.9 1.8-7.2 0-.3-.2-.5.2-.3.5.7 1.3 2.1 2.4 3.9 2.4s3.2-1.1 3.9-2.4c.2-.4 0-.8-.3-.5"
       id="path5" />
  </g>
  <path
     fill="#ffb300"
     d="M31.9 37.3l1.5 2.8h26.2l1.1-2.9c0-10.6-2.5-15-14.1-15.1-11.8-.2-14.7 4.5-14.7 15.2"
     id="path6" />
  <path
     fill="#ffdd67"
     d="M59.7 37.1c-.1.6-.2 1.2-.4 1.5-.3.6-.9.9-.9.9s.2-1.2.1-2.8c-.7-9.7-1.2-5.1-11.9-5.1-10.7 0-11.3-4.7-11.9 5-.1 1.7.1 2.8.1 2.8s-.6-.3-.9-.9c-.2-.3-.3-.9-.4-1.5-1-.3-2.3 0-2.3 2.9 0 1.8.7 3.3 2.9 3.5.8 6.1 8.9 10.1 12.6 10.1 3.6 0 11.8-4.1 12.6-10.1 2.2-.2 2.9-1.7 2.9-3.5-.2-2.8-1.5-3-2.5-2.8"
     id="path7" />
  <g
     fill="#937237"
     id="g8">
    <circle
       cx="41"
       cy="40.3"
       r="2.2"
       id="circle7" />
    <circle
       cx="52"
       cy="40.3"
       r="2.2"
       id="circle8" />
    <path
       d="M50.1 47.2c-2.3 1.8-4.9 1.8-7.2 0-.3-.2-.5.2-.3.5.7 1.3 2.1 2.4 3.9 2.4s3.2-1.1 3.9-2.4c.2-.4 0-.8-.3-.5"
       id="path8" />
  </g>
  <path
     fill="#ff5a79"
     d="M46.5 7.1C43.3-1.4 33 2.4 32 6.6c-1.3-4.5-11.4-7.9-14.5.4C14 16.3 30.8 24.6 32 26c1.2-1.1 18-9.8 14.5-18.9"
     id="path9" />
  <metadata
     id="metadata9">
    <rdf:RDF>
      <cc:Work
         rdf:about="">
        <dc:title>woman, red heart, man</dc:title>
      </cc:Work>
    </rdf:RDF>
  </metadata>
</svg>
