<?xml version="1.0" encoding="UTF-8" standalone="no"?>
<svg
   viewBox="0 0 64 64"
   version="1.1"
   id="svg8"
   sodipodi:docname="1f47f.svg"
   inkscape:version="1.3.2 (091e20e, 2023-11-25, custom)"
   xmlns:inkscape="http://www.inkscape.org/namespaces/inkscape"
   xmlns:sodipodi="http://sodipodi.sourceforge.net/DTD/sodipodi-0.dtd"
   xmlns="http://www.w3.org/2000/svg"
   xmlns:svg="http://www.w3.org/2000/svg"
   xmlns:rdf="http://www.w3.org/1999/02/22-rdf-syntax-ns#"
   xmlns:cc="http://creativecommons.org/ns#"
   xmlns:dc="http://purl.org/dc/elements/1.1/">
  <defs
     id="defs8" />
  <sodipodi:namedview
     id="namedview8"
     pagecolor="#ffffff"
     bordercolor="#000000"
     borderopacity="0.25"
     inkscape:showpageshadow="2"
     inkscape:pageopacity="0.0"
     inkscape:pagecheckerboard="0"
     inkscape:deskcolor="#d1d1d1"
     inkscape:zoom="12.046875"
     inkscape:cx="32"
     inkscape:cy="32"
     inkscape:window-width="1920"
     inkscape:window-height="991"
     inkscape:window-x="-9"
     inkscape:window-y="-9"
     inkscape:window-maximized="1"
     inkscape:current-layer="svg8" />
  <title
     id="title1">angry face with horns</title>
  <circle
     cx="32"
     cy="32"
     r="30"
     fill="#c28fef"
     id="circle1" />
  <g
     fill="#3e4347"
     id="g1">
    <path
       d="M16.7 10.3c-5.6-2.7-9.2-8.1-9.2-8.1-1.5 14.4 4.3 17.9 7.7 18 4.4 0 7.9-6.8 1.5-9.9M47.3 10.3c5.6-2.7 9.2-8.1 9.2-8.1 1.5 14.4-4.3 17.9-7.7 18-4.4 0-7.9-6.8-1.5-9.9"
       id="path1" />
  </g>
  <path
     fill="#493b30"
     d="m 17.3,51.5 c 2.5,-1.5 4.9,-2.3 7.3,-2.9 2.4,-0.6 4.9,-0.8 7.4,-0.8 2.5,0 4.9,0.3 7.4,0.8 2.4,0.6 4.8,1.5 7.3,2.9 -1.1,-2.7 -3.4,-4.9 -6,-6.2 -2.7,-1.4 -5.7,-2 -8.6,-2 -3,0 -6,0.7 -8.6,2 -2.8,1.3 -5.1,3.5 -6.2,6.2"
     id="path2" />
  <path
     fill="#fff"
     d="M52.3 26.8c2 4.3.1 9.4-4.2 11.4s-9.4.1-11.4-4.2c-1.5-3.2 14.1-10.5 15.6-7.2"
     id="path3" />
  <g
     fill="#493b30"
     id="g5">
    <path
       d="M49.8 27.9c1.4 2.9.1 6.4-2.8 7.7-2.9 1.4-6.4.1-7.7-2.8-1-1.8 9.6-6.7 10.5-4.9"
       id="path4" />
    <path
       d="M53.9 27.1c-1.9.2-3.5.5-5.2.9-1.6.4-3.1 1-4.6 1.7-1.5.7-2.9 1.5-4.2 2.4-1.4 1-2.6 2.1-4 3.4.2-1.9 1.1-3.7 2.4-5.1 1.2-1.5 2.9-2.6 4.6-3.4 1.8-.8 3.7-1.3 5.6-1.3 1.9-.1 3.8.4 5.4 1.4"
       id="path5" />
  </g>
  <path
     fill="#fff"
     d="M11.7 26.8c-2 4.3-.1 9.4 4.2 11.4s9.4.1 11.4-4.2c1.5-3.2-14.1-10.5-15.6-7.2"
     id="path6" />
  <g
     fill="#493b30"
     id="g8">
    <path
       d="M14.2 27.9c-1.4 2.9-.1 6.4 2.8 7.7 2.9 1.4 6.4.1 7.7-2.8 1-1.8-9.6-6.7-10.5-4.9"
       id="path7" />
    <path
       d="M10.1 27.1c1.6-1 3.5-1.5 5.4-1.4 1.9 0 3.8.5 5.6 1.3 1.7.8 3.3 2 4.6 3.4 1.2 1.5 2.2 3.2 2.4 5.1-1.3-1.3-2.6-2.4-4-3.4s-2.8-1.8-4.2-2.4c-1.5-.7-3-1.2-4.6-1.7-1.7-.5-3.3-.7-5.2-.9"
       id="path8" />
  </g>
  <metadata
     id="metadata8">
    <rdf:RDF>
      <cc:Work
         rdf:about="">
        <dc:title>angry face with horns</dc:title>
      </cc:Work>
    </rdf:RDF>
  </metadata>
</svg>
