<?xml version="1.0" encoding="UTF-8" standalone="no"?><!-- Generator: Gravit.io --><svg xmlns="http://www.w3.org/2000/svg" xmlns:xlink="http://www.w3.org/1999/xlink" style="isolation:isolate" viewBox="0 0 64 64" width="64pt" height="64pt"><defs><clipPath id="_clipPath_xNPTIfYUqm1mhUfDl05KeZuV4hcu0Aw3"><rect width="64" height="64"/></clipPath></defs><g clip-path="url(#_clipPath_xNPTIfYUqm1mhUfDl05KeZuV4hcu0Aw3)"><circle vector-effect="non-scaling-stroke" cx="32" cy="32" r="30" fill="rgb(194,143,239)"/><g><path d=" M 16.7 10.3 C 11.1 7.6 7.5 2.2 7.5 2.2 C 6 16.6 11.8 20.1 15.2 20.2 C 19.6 20.2 23.1 13.4 16.7 10.3 Z  M 47.3 10.3 C 52.9 7.6 56.5 2.2 56.5 2.2 C 58 16.6 52.2 20.1 48.8 20.2 C 44.4 20.2 40.9 13.4 47.3 10.3 Z " fill="rgb(62,67,71)"/></g><path d=" M 17.3 51.5 C 19.8 50 22.2 49.2 24.6 48.6 C 27 48 29.5 47.8 32 47.8 C 34.5 47.8 36.9 48.1 39.4 48.6 C 41.8 49.2 44.2 50.1 46.7 51.5 C 45.6 48.8 43.3 46.6 40.7 45.3 C 38 43.9 35 43.3 32.1 43.3 C 29.1 43.3 26.1 44 23.5 45.3 C 20.7 46.6 18.4 48.8 17.3 51.5 Z " fill="rgb(73,59,48)"/><path d=" M 52.3 26.8 C 54.3 31.1 52.4 36.2 48.1 38.2 C 43.8 40.2 38.7 38.3 36.7 34 C 35.2 30.8 50.8 23.5 52.3 26.8 Z " fill="rgb(255,255,255)"/><g><path d=" M 49.8 27.9 C 51.2 30.8 49.9 34.3 47 35.6 C 44.1 37 40.6 35.7 39.3 32.8 C 38.3 31 48.9 26.1 49.8 27.9 Z " fill="rgb(73,59,48)"/><path d=" M 53.9 27.1 C 52 27.3 50.4 27.6 48.7 28 C 47.1 28.4 45.6 29 44.1 29.7 C 42.6 30.4 41.2 31.2 39.9 32.1 C 38.5 33.1 37.3 34.2 35.9 35.5 C 36.1 33.6 37 31.8 38.3 30.4 C 39.5 28.9 41.2 27.8 42.9 27 C 44.7 26.2 46.6 25.7 48.5 25.7 C 50.4 25.6 52.3 26.1 53.9 27.1 Z " fill="rgb(73,59,48)"/></g><path d=" M 11.7 26.8 C 9.7 31.1 11.6 36.2 15.9 38.2 C 20.2 40.2 25.3 38.3 27.3 34 C 28.8 30.8 13.2 23.5 11.7 26.8 Z " fill="rgb(255,255,255)"/><g><path d=" M 14.2 27.9 C 12.8 30.8 14.1 34.3 17 35.6 C 19.9 37 23.4 35.7 24.7 32.8 C 25.7 31 15.1 26.1 14.2 27.9 Z " fill="rgb(73,59,48)"/><path d=" M 10.1 27.1 C 11.7 26.1 13.6 25.6 15.5 25.7 C 17.4 25.7 19.3 26.2 21.1 27 C 22.8 27.8 24.4 29 25.7 30.4 C 26.9 31.9 27.9 33.6 28.1 35.5 C 26.8 34.2 25.5 33.1 24.1 32.1 C 22.7 31.1 21.3 30.3 19.9 29.7 C 18.4 29 16.9 28.5 15.3 28 C 13.6 27.5 12 27.3 10.1 27.1 Z " fill="rgb(73,59,48)"/></g></g></svg>