<svg version="1.1" viewBox="0 0 64 64" xmlns="http://www.w3.org/2000/svg">
    <title>Pocket Calculator</title>
    <path d="m11.79 2c-0.5 0-1 0.5-1 1v58c0 0.5 0.5 1 1 1h40.43c0.5 0 1-0.5 1-1v-58c0-0.5-0.5-1-1-1z" fill="#d0d0d0"/>
    <path d="m14.65 12.3c-0.4921 0.01643-0.9766 0.5467-0.9766 1.077v13.03c0 0.5383 0.5 1.077 1 1.077h34.66c0.5 0 1-0.5383 1-1.077v-13.03c0-0.5383-0.5-1.077-1-1.077h-34.66c-0.0078 0-0.01563-2.62e-4 -0.02344 0z" fill="#4fd1d9"/>
    <path d="m14.65 30.37c-0.4921 0.01526-0.9766 0.5078-0.9766 1v3.023c0 0.4896 0.4794 0.9779 0.9688 0.998h3.086c0.4894-0.02019 0.9688-0.5085 0.9688-0.998v-3.023c0-0.5-0.5-1-1-1h-3.047zm7.908 0c-0.4921 0.01526-0.9766 0.5078-0.9766 1v3.023c0 0.5 0.5 1 1 1h3.023c0.5 0 1-0.5 1-1v-3.023c0-0.5-0.5-1-1-1h-3.023c-0.0078 0-0.01563-2.43e-4 -0.02344 0zm7.908 0c-0.4921 0.01526-0.9766 0.5078-0.9766 1v3.023c0 0.5 0.5 1 1 1h3.023c0.5 0 1-0.5 1-1v-3.023c0-0.5-0.5-1-1-1h-3.023c-0.0078 0-0.01563-2.43e-4 -0.02344 0zm7.908 0c-0.4921 0.01526-0.9766 0.5078-0.9766 1v3.023c0 0.5 0.5 1 1 1h3.023c0.5 0 1-0.5 1-1v-3.023c0-0.5-0.5-1-1-1h-3.023c-0.007812 0-0.01563-2.43e-4 -0.02344 0zm0 7.908c-0.4921 0.01526-0.9766 0.5078-0.9766 1v3.023c0 0.5 0.5 1 1 1h3.023c0.5 0 1-0.5 1-1v-3.023c0-0.5-0.5-1-1-1h-3.023c-0.0078 0-0.01563-2.43e-4 -0.02344 0zm7.908 0c-0.4921 0.01526-0.9766 0.5078-0.9766 1v3.023c0 0.5 0.5 1 1 1h3.023c0.5 0 1-0.5 1-1v-3.023c0-0.5-0.5-1-1-1h-3.023c-0.0078 0-0.01563-2.43e-4 -0.02344 0zm-7.908 7.908c-0.4921 0.01526-0.9766 0.5078-0.9766 1v3.023c0 0.5 0.5 1 1 1h3.023c0.5 0 1-0.5 1-1v-3.023c0-0.5-0.5-1-1-1h-3.023c-0.0078 0-0.01563-2.43e-4 -0.02344 0zm7.908 0c-0.4921 0.01526-0.9766 0.5078-0.9766 1v3.023c0 0.5 0.5 1 1 1h3.023c0.5 0 1-0.5 1-1v-3.023c0-0.5-0.5-1-1-1h-3.023c-0.0078 0-0.01563-2.43e-4 -0.02344 0zm-7.908 7.908c-0.4921 0.01526-0.9766 0.5078-0.9766 1v3.023c0 0.5 0.5 1 1 1h3.023c0.5 0 1-0.5 1-1v-3.023c0-0.5-0.5-1-1-1h-3.023c-0.0078 0-0.01563-2.43e-4 -0.02344 0zm7.908 0c-0.4921 0.01526-0.9766 0.5078-0.9766 1v3.023c0 0.5 0.5 1 1 1h3.023c0.5 0 1-0.5 1-1v-3.023c0-0.5-0.5-1-1-1h-3.023c-0.0078 0-0.01563-2.43e-4 -0.02344 0z" fill="#898a90"/>
    <path d="m32.12 4.885c-0.4921 0.01526-0.9766 0.5078-0.9766 1v2.531c0 0.5 0.5 1 1 1h17.19c0.5 0 1-0.5 1-1v-2.531c0-0.5-0.5-1-1-1h-17.21zm-17.47 33.39c-0.4921 0.01526-0.9766 0.5078-0.9766 1v3.023c0 0.5 0.5 1 1 1h3.023c0.5 0 1-0.5 1-1v-3.023c0-0.5-0.5-1-1-1h-3.023c-0.0078 0-0.01563-2.43e-4 -0.02344 0zm7.908 0c-0.4921 0.01526-0.9766 0.5078-0.9766 1v3.023c0 0.5 0.5 1 1 1h3.023c0.5 0 1-0.5 1-1v-3.023c0-0.5-0.5-1-1-1h-3.023c-0.0078 0-0.01563-2.43e-4 -0.02344 0zm7.908 0c-0.4921 0.01526-0.9766 0.5078-0.9766 1v3.023c0 0.5 0.5 1 1 1h3.023c0.5 0 1-0.5 1-1v-3.023c0-0.5-0.5-1-1-1h-3.047zm-15.82 7.908c-0.4921 0.01526-0.9766 0.5078-0.9766 1v3.023c0 0.5 0.5 1 1 1h3.023c0.5 0 1-0.5 1-1v-3.023c0-0.5-0.5-1-1-1h-3.023c-0.0078 0-0.01563-2.43e-4 -0.02344 0zm7.908 0c-0.4921 0.01526-0.9766 0.5078-0.9766 1v3.023c0 0.5 0.5 1 1 1h3.023c0.5 0 1-0.5 1-1v-3.023c0-0.5-0.5-1-1-1h-3.023c-0.0078 0-0.01563-2.43e-4 -0.02344 0zm7.908 0c-0.4921 0.01526-0.9766 0.5078-0.9766 1v3.023c0 0.5 0.5 1 1 1h3.023c0.5 0 1-0.5 1-1v-3.023c0-0.5-0.5-1-1-1h-3.023c-0.0078 0-0.01563-2.43e-4 -0.02344 0zm-15.82 7.908c-0.4921 0.01526-0.9766 0.5078-0.9766 1v3.023c0 0.5 0.5 1 1 1h3.023c0.5 0 1-0.5 1-1v-3.023c0-0.5-0.5-1-1-1h-3.023c-0.0078 0-0.01563-2.43e-4 -0.02344 0zm7.908 0c-0.4921 0.01526-0.9766 0.5078-0.9766 1v3.023c0 0.5 0.5 1 1 1h3.023c0.5 0 1-0.5 1-1v-3.023c0-0.5-0.5-1-1-1h-3.023c-0.0078 0-0.01563-2.43e-4 -0.02344 0zm7.908 0c-0.4921 0.01526-0.9766 0.5078-0.9766 1v3.023c0 0.5 0.5 1 1 1h3.023c0.5 0 1-0.5 1-1v-3.023c0-0.5-0.5-1-1-1h-3.023c-0.0078 0-0.01563-2.43e-4 -0.02344 0z" fill="#3e4347"/>
    <path d="m46.28 30.37c-0.4921 0.01526-0.9766 0.5078-0.9766 1v3.023c0 0.5 0.5 1 1 1h3.023c0.5 0 1-0.5 1-1v-3.023c0-0.5-0.5-1-1-1h-3.047z" fill="#ed4c5c"/>
</svg>
