<svg xmlns="http://www.w3.org/2000/svg" viewBox="0 0 64 64">
  <path fill="#b2c1c0" d="M 3 2 C 2.5 2 2 2.5 2 3 L 2 11 L 2 13.806641 L 2 61 C 2 61.5 2.5 62 3 62 L 61 62 C 61.5 62 62 61.5 62 61 L 62 47.390625 L 58 47.390625 L 58 43.390625 L 62 43.390625 L 62 3 C 62 2.5 61.5 2 61 2 L 40.892578 2 L 40.892578 3.7285156 L 38.916016 3.7285156 L 38.916016 2 L 25.083984 2 L 25.083984 3.7285156 L 23.107422 3.7285156 L 23.107422 2 L 15.533203 2 L 11 2 L 3 2 z M 32 25.492188 C 35.594014 25.492553 38.507447 28.405986 38.507812 32 C 38.507447 35.594014 35.594014 38.507447 32 38.507812 C 28.405986 38.507447 25.492553 35.594014 25.492188 32 C 25.492553 28.405986 28.405986 25.492553 32 25.492188 z " />
  <path fill="#62727a" d="M 32 23.371094 A 8.6290998 8.6290998 0 0 0 23.371094 32 A 8.6290998 8.6290998 0 0 0 32 40.628906 A 8.6290998 8.6290998 0 0 0 40.628906 32 A 8.6290998 8.6290998 0 0 0 32 23.371094 z M 32 25.492188 A 6.5084748 6.5084748 0 0 1 38.507812 32 A 6.5084748 6.5084748 0 0 1 32 38.507812 A 6.5084748 6.5084748 0 0 1 25.492188 32 A 6.5084748 6.5084748 0 0 1 32 25.492188 z " />
  <path fill="#62727a" d="M 32 4.609375 A 3.6610169 3.6610169 0 0 0 28.339844 8.2714844 L 28.339844 17.083984 A 3.6610169 3.6610169 0 0 0 32 20.746094 A 3.6610169 3.6610169 0 0 0 35.660156 17.083984 L 35.660156 8.2714844 A 3.6610169 3.6610169 0 0 0 32 4.609375 z " />
  <circle fill="#62727a" cx="21.723061" cy="30.202271" r="1.0605475" />
</svg>
