<svg xmlns="http://www.w3.org/2000/svg" viewBox="0 0 64 64">
  <g id="keyboard" transform="matrix(0.50724583,0,0,0.50724583,27.770598,24.798019)">
    <path id="cable" d="m 8.7074719,35.942861 h -1 c 0,-14.5 -5.8,-14.5 -12,-14.5 -6.3999999,0 -12.9999999,0 -12.9999999,-15.4999996 h 1 c 0,14.4999996 5.8,14.4999996 11.9999999,14.4999996 6.4,0 13,0 13,15.5" fill="#94989b" />
    <g id="actual-keyboard" transform="translate(0.6682816)">
      <path fill="#3e4347" d="m 62,59 c 0,1.7 -1.3,3 -2.8,3 H 4.8 C 3.3,62 2,60.7 2,59 V 35 c 0,-1.7 1.3,-3 2.8,-3 h 54.4 c 1.6,0 2.8,1.3 2.8,3 z" />
      <g fill="#5b636b">
        <path d="m 8,41 c 0,0.5 -0.4,1 -1,1 H 5 C 4.4,42 4,41.6 4,41 v -2 c 0,-0.6 0.4,-1 1,-1 h 2 c 0.6,0 1,0.4 1,1 v 2 m 6,0 c 0,0.5 -0.4,1 -1,1 h -2 c -0.6,0 -1,-0.4 -1,-1 v -2 c 0,-0.6 0.4,-1 1,-1 h 2 c 0.6,0 1,0.4 1,1 v 2 m 6,0 c 0,0.5 -0.4,1 -1,1 h -2 c -0.6,0 -1,-0.4 -1,-1 v -2 c 0,-0.6 0.4,-1 1,-1 h 2 c 0.6,0 1,0.4 1,1 v 2 m 6,0 c 0,0.5 -0.4,1 -1,1 h -2 c -0.6,0 -1,-0.4 -1,-1 v -2 c 0,-0.6 0.4,-1 1,-1 h 2 c 0.6,0 1,0.4 1,1 v 2 m 6,0 c 0,0.5 -0.4,1 -1,1 h -2 c -0.6,0 -1,-0.4 -1,-1 v -2 c 0,-0.6 0.4,-1 1,-1 h 2 c 0.6,0 1,0.4 1,1 v 2 m 6,0 c 0,0.5 -0.4,1 -1,1 h -2 c -0.5,0 -1,-0.4 -1,-1 v -2 c 0,-0.6 0.4,-1 1,-1 h 2 c 0.6,0 1,0.4 1,1 v 2 m 6,0 c 0,0.5 -0.4,1 -1,1 h -2 c -0.6,0 -1,-0.4 -1,-1 v -2 c 0,-0.6 0.4,-1 1,-1 h 2 c 0.6,0 1,0.4 1,1 v 2 m 6,0 c 0,0.5 -0.4,1 -1,1 h -2 c -0.5,0 -1,-0.4 -1,-1 v -2 c 0,-0.6 0.4,-1 1,-1 h 2 c 0.5,0 1,0.4 1,1 v 2 m 2,6 c 0,0.6 -0.4,1 -1,1 h -2 c -0.6,0 -1,-0.4 -1,-1 v -2 c 0,-0.5 0.4,-1 1,-1 h 2 c 0.5,0 1,0.4 1,1 v 2 m -6,0 c 0,0.6 -0.4,1 -1,1 h -2 c -0.5,0 -1,-0.4 -1,-1 v -2 c 0,-0.5 0.4,-1 1,-1 h 2 c 0.6,0 1,0.4 1,1 v 2 m -6,0 c 0,0.6 -0.4,1 -1,1 h -2 c -0.6,0 -1,-0.4 -1,-1 v -2 c 0,-0.5 0.4,-1 1,-1 h 2 c 0.5,0 1,0.4 1,1 v 2 m -6,0 c 0,0.6 -0.4,1 -1,1 h -2 c -0.6,0 -1,-0.4 -1,-1 v -2 c 0,-0.5 0.4,-1 1,-1 h 2 c 0.6,0 1,0.4 1,1 v 2 m -6,0 c 0,0.6 -0.4,1 -1,1 h -2 c -0.5,0 -1,-0.4 -1,-1 v -2 c 0,-0.5 0.4,-1 1,-1 h 2 c 0.6,0 1,0.4 1,1 v 2 m -6,0 c 0,0.6 -0.4,1 -1,1 h -2 c -0.6,0 -1,-0.4 -1,-1 v -2 c 0,-0.5 0.4,-1 1,-1 h 2 c 0.6,0 1,0.4 1,1 v 2 m -6,0 c 0,0.6 -0.4,1 -1,1 h -2 c -0.6,0 -1,-0.4 -1,-1 v -2 c 0,-0.5 0.4,-1 1,-1 h 2 c 0.6,0 1,0.4 1,1 v 2 m 2,6 c 0,0.5 -0.4,1 -1,1 h -2 c -0.5,0 -1,-0.4 -1,-1 v -2 c 0,-0.6 0.4,-1 1,-1 h 2 c 0.6,0 1,0.4 1,1 v 2 m -2,6 c 0,0.5 -0.4,1 -1,1 h -2 c -0.6,0 -1,-0.4 -1,-1 v -2 c 0,-0.6 0.4,-1 1,-1 h 2 c 0.6,0 1,0.4 1,1 v 2 m 6,0 c 0,0.5 -0.4,1 -1,1 h -2 c -0.6,0 -1,-0.4 -1,-1 v -2 c 0,-0.6 0.4,-1 1,-1 h 2 c 0.6,0 1,0.4 1,1 v 2 m 2,-6 c 0,0.5 -0.4,1 -1,1 h -2 c -0.6,0 -1,-0.4 -1,-1 v -2 c 0,-0.6 0.4,-1 1,-1 h 2 c 0.6,0 1,0.4 1,1 v 2 m 6,0 c 0,0.5 -0.4,1 -1,1 h -2 c -0.6,0 -1,-0.4 -1,-1 v -2 c 0,-0.6 0.4,-1 1,-1 h 2 c 0.5,0 1,0.4 1,1 v 2 m 6,0 c 0,0.5 -0.4,1 -1,1 h -2 c -0.6,0 -1,-0.4 -1,-1 v -2 c 0,-0.6 0.4,-1 1,-1 h 2 c 0.6,0 1,0.4 1,1 v 2 m 6,0 c 0,0.5 -0.4,1 -1,1 h -2 c -0.6,0 -1,-0.4 -1,-1 v -2 c 0,-0.6 0.4,-1 1,-1 h 2 c 0.6,0 1,0.4 1,1 v 2 m 6,0 c 0,0.5 -0.4,1 -1,1 h -2 c -0.5,0 -1,-0.4 -1,-1 v -2 c 0,-0.6 0.4,-1 1,-1 h 2 c 0.5,0 1,0.4 1,1 v 2 m 2,6 c 0,0.5 -0.4,1 -1,1 h -2 c -0.5,0 -1,-0.4 -1,-1 v -2 c 0,-0.6 0.4,-1 1,-1 h 2 c 0.5,0 1,0.4 1,1 v 2 M 60,41 c 0,0.5 -0.4,1 -0.9,1 H 52.9 C 52.4,42 52,41.6 52,41 v -2 c 0,-0.6 0.4,-1 0.9,-1 h 6.2 c 0.5,0 0.9,0.4 0.9,1 v 2 m 0,18 c 0,0.5 -0.4,1 -0.9,1 H 52.9 C 52.4,60 52,59.6 52,59 v -2 c 0,-0.6 0.4,-1 0.9,-1 h 6.2 c 0.5,0 0.9,0.4 0.9,1 v 2 m 0,-6 c 0,0.5 -0.4,1 -0.8,1 H 50.8 C 50.4,54 50,53.6 50,53 v -2 c 0,-0.6 0.4,-1 0.8,-1 h 8.4 c 0.5,0 0.8,0.4 0.8,1 v 2 m -48,0 c 0,0.5 -0.4,1 -0.9,1 H 4.9 C 4.4,54 4,53.6 4,53 v -2 c 0,-0.6 0.4,-1 0.9,-1 h 6.2 c 0.5,0 0.9,0.4 0.9,1 v 2 m 48,-6 c 0,0.6 -0.4,1 -0.9,1 H 54.9 C 54.4,48 54,47.6 54,47 v -2 c 0,-0.5 0.4,-1 0.9,-1 h 4.2 c 0.5,0 0.9,0.4 0.9,1 v 2 m -50,0 c 0,0.6 -0.4,1 -0.9,1 H 4.9 C 4.4,48 4,47.6 4,47 v -2 c 0,-0.5 0.4,-1 0.9,-1 h 4.2 c 0.5,0 0.9,0.4 0.9,1 v 2 m 0,12 c 0,0.5 -0.4,1 -0.9,1 H 4.9 C 4.4,60 4,59.5 4,59 v -2 c 0,-0.5 0.4,-1 0.9,-1 h 4.2 c 0.5,0 0.9,0.4 0.9,1 v 2 m 34,0 c 0,0.5 -0.4,1 -0.8,1 H 24.8 C 24.3,60 24,59.6 24,59 v -2 c 0,-0.5 0.4,-1 0.8,-1 h 18.3 c 0.5,0 0.8,0.4 0.8,1 v 2 z M 8.9,36 H 7.1 c -1.4,0 -1.4,-2 0,-2 h 1.8 c 1.5,0 1.5,2 0,2 m 6,0 H 13 c -1.4,0 -1.4,-2 0,-2 h 1.9 c 1.5,0 1.5,2 0,2 m 6,0 H 19 c -1.4,0 -1.4,-2 0,-2 h 1.9 c 1.5,0 1.5,2 0,2 m 6,0 h -1.8 c -1.4,0 -1.4,-2 0,-2 h 1.8 c 1.5,0 1.5,2 0,2 m 6,0 h -1.8 c -1.4,0 -1.4,-2 0,-2 h 1.8 c 1.5,0 1.5,2 0,2 m 6,0 h -1.8 c -1.4,0 -1.4,-2 0,-2 h 1.8 c 1.5,0 1.5,2 0,2 m 6,0 h -1.8 c -1.4,0 -1.4,-2 0,-2 h 1.8 c 1.5,0 1.5,2 0,2 m 6,0 h -1.8 c -1.4,0 -1.4,-2 0,-2 h 1.8 c 1.5,0 1.5,2 0,2 m 6,0 h -1.8 c -1.4,0 -1.4,-2 0,-2 h 1.8 c 1.5,0 1.5,2 0,2" />
      </g>
    </g>
  </g>
  <g id="tower" transform="matrix(0.78571429,0,0,0.78571429,-11.87166,7.5329766)">
    <path d="M 46,58.25 C 46,60.321 44.329,62 42.267,62 H 21.733 C 19.672,62 18,60.321 18,58.25 V 5.75 C 18,3.679 19.672,2 21.733,2 H 42.266 C 44.329,2 46,3.679 46,5.75 Z" fill="#5b636b" />
    <path d="M 20.8,6.489 V 27.114 H 43.2 V 6.489 H 20.8 M 42.267,26.176 H 21.733 v -5.625 h 20.533 v 5.625 m 0.001,-6.562 H 21.733 v -5.625 h 20.533 v 5.625 m 0.001,-6.563 H 21.733 V 7.426 h 20.533 v 5.625" fill="#181e2e" />
    <path d="m 38.533,10.239 h 2.8 v 1.875 h -2.8 z" fill="#3e4347" />
    <circle r="0.93800002" cy="11.176" cx="36.667" fill="#ff435e" />
    <path d="m 21.733,32.27 h 15.866 v 3.75 H 21.733 Z" fill="#181e2e" />
    <path d="M 21.733,41.18 H 42.266 V 59.93 H 21.733 Z" fill="#94989b" />
    <path d="M 22.667,42.12 H 41.334 V 58.995 H 22.667 Z" fill="#181e2e" />
    <g fill="#94989b">
      <path d="m 18,28.99 h 28 v 0.938 H 18 Z" />
      <path d="m 18,38.37 h 28 v 0.938 H 18 Z" />
    </g>
  </g>
  <g id="monitor" transform="matrix(0.58333333,0,0,0.58333333,25.660565,7.9377382)">
    <path d="M 6,2 C 4,2 2,4 2,6 v 34 c 0,2 2,4 4,4 h 52 c 2,0 4,-2 4,-4 V 6 C 62,4 60,2 58,2 Z" fill="#212528" />
    <path d="m 24,46 c 0,4 -4,4 -8,4 h 32 c -4,0 -8,0 -8,-4 V 44 H 24 v 2" fill="#bfbebe" />
    <path d="M 6,6 H 58 V 40 H 6 Z" fill="#3e4347" />
    <path d="m 16,50 h 32 v 4 H 16 Z" fill="#94989b" />
  </g>
</svg>
