<svg xmlns="http://www.w3.org/2000/svg" viewBox="0 0 64 64">
    <title>face with medical mask</title>
    <circle cx="32" cy="32" r="30" fill="#ffdd67"/>
    <g fill="#fff">
        <path d="M18.2 47.4l-9 4.1c.8 1 1.7 1.9 2.6 2.7l7.6-3.6-1.2-3.2M17.1 35.1L2 31.7v.3c0 1.1.1 2.2.2 3.3l14.2 3.2.7-3.4M54.8 51.5l-9-4.1-1.3 3.3 7.6 3.6c1-.9 1.8-1.8 2.7-2.8M47.7 38.5l14.2-3.2c.1-1.1.2-2.2.2-3.3v-.3L47 35.2l.7 3.3"/>
    </g>
    <path d="M49.9 39.9c0 10.6-8 19.1-17.9 19.1s-17.9-8.6-17.9-19.1c0-10.6 10.4-8.5 17.9-8.5 7.5-.1 17.9-2.1 17.9 8.5" opacity=".1"/>
    <path fill="#fff" d="M49.5 39.1c0 10-7.8 18-17.5 18s-17.5-8.1-17.5-18c0-10 10.2-8.1 17.5-8.1s17.5-1.9 17.5 8.1"/>
 <g fill="#664e27">
        <circle cx="20.5" cy="23" r="5"/>
        <circle cx="43.5" cy="23" r="5"/>
    </g>
</svg>
