<?xml version="1.0" encoding="UTF-8" standalone="no"?>
<svg
   viewBox="0 0 64 64"
   version="1.1"
   id="svg11"
   sodipodi:docname="1f645-1f3fe-200d-2642.svg"
   xml:space="preserve"
   inkscape:version="1.3.2 (091e20e, 2023-11-25, custom)"
   xmlns:inkscape="http://www.inkscape.org/namespaces/inkscape"
   xmlns:sodipodi="http://sodipodi.sourceforge.net/DTD/sodipodi-0.dtd"
   xmlns="http://www.w3.org/2000/svg"
   xmlns:svg="http://www.w3.org/2000/svg"
   xmlns:rdf="http://www.w3.org/1999/02/22-rdf-syntax-ns#"
   xmlns:cc="http://creativecommons.org/ns#"
   xmlns:dc="http://purl.org/dc/elements/1.1/"><defs
     id="defs11" /><sodipodi:namedview
     id="namedview11"
     pagecolor="#ffffff"
     bordercolor="#000000"
     borderopacity="0.25"
     inkscape:showpageshadow="2"
     inkscape:pageopacity="0.0"
     inkscape:pagecheckerboard="0"
     inkscape:deskcolor="#d1d1d1"
     inkscape:zoom="12.046875"
     inkscape:cx="30.754864"
     inkscape:cy="31.418936"
     inkscape:window-width="1920"
     inkscape:window-height="991"
     inkscape:window-x="-9"
     inkscape:window-y="-9"
     inkscape:window-maximized="1"
     inkscape:current-layer="svg11" /><title
     id="title1">man gesturing NO: medium-dark skin tone</title><g
     id="g12"
     style="opacity:1"
     transform="matrix(0.76876042,0,0,0.80907912,7.4826756,2.0420233)"><path
       fill="#ffb300"
       d="M 6,36 H 58 C 58,8 54,2 32,2 10,2 6,8 6,36 Z"
       id="path1-3"
       style="fill:#231f20;fill-opacity:1" /><path
       fill="#ffdd67"
       d="m 55.8,29.9 c -0.2,1.1 -0.4,2.1 -0.7,2.7 -0.6,1 -1.7,1.6 -1.7,1.6 0,0 0.3,-2.1 0.2,-5 C 52.4,11.8 51.4,16.6 32,16.6 c -19.4,0 -20.4,-4.8 -21.6,12.5 -0.1,2.9 0.2,5.1 0.2,5.1 0,0 -1.1,-0.6 -1.7,-1.6 C 8.6,32 8.4,31 8.2,29.9 6.4,29.4 4,29.8 4,35 c 0,3.2 1.2,5.9 5.3,6.2 1.3,10.2 7.3,15.4 17.2,19.9 2.7,1.2 8.3,1.2 11,0 10,-4.5 15.9,-9.7 17.2,-19.9 4.1,-0.3 5.3,-2.9 5.3,-6.2 0,-5.2 -2.4,-5.6 -4.2,-5.1"
       id="path2-9"
       style="fill:#b47d56;fill-opacity:1" /><path
       fill="#937237"
       d="m 41,48.9 c 0,3.4 -4.5,5.1 -9,5.1 -4.5,0 -9,-1.7 -9,-5.1 0,0 0,-0.9 0.9,-0.9 h 16.2 c 0.9,0 0.9,0.9 0.9,0.9"
       id="path3-9" /><path
       fill="#f5f5f5"
       d="m 20,28.6 c -5,0 -7,1.8 -7,3.6 0,1.8 0,4.4 6.6,4.4 6.4,0 7.4,-0.8 7.4,-3.5 0,-1.8 -2,-4.5 -7,-4.5"
       id="path4-6" /><circle
       cx="20.5"
       cy="31.6"
       r="4.5"
       fill="#664e27"
       id="circle4-6" /><path
       fill="#231f20"
       d="m 22,31.6 c 0,0.8 -0.7,1.5 -1.5,1.5 -0.8,0 -1.5,-0.7 -1.5,-1.5 0,-0.8 0.7,-1.5 1.5,-1.5 0.8,0 1.5,0.7 1.5,1.5"
       id="path5-6" /><path
       fill="#664e27"
       d="m 13,32.1 c 0,-7 14,-7 14,1 -2,-6 -12,-6 -14,-1"
       id="path6-1" /><path
       fill="#f5f5f5"
       d="m 44,28.6 c 5,0 7,1.8 7,3.6 0,1.8 0,4.4 -6.6,4.4 -6.4,0 -7.4,-0.8 -7.4,-3.5 0,-1.8 2,-4.5 7,-4.5"
       id="path7-4" /><circle
       cx="43.5"
       cy="31.6"
       r="4.5"
       fill="#664e27"
       id="circle7-0" /><path
       fill="#231f20"
       d="m 42,31.6 c 0,0.8 0.7,1.5 1.5,1.5 0.8,0 1.5,-0.7 1.5,-1.5 0,-0.8 -0.7,-1.5 -1.5,-1.5 -0.8,0 -1.5,0.7 -1.5,1.5"
       id="path8-0" /><path
       fill="#664e27"
       d="m 51,32.1 c 0,-7 -14,-7 -14,1 2,-6 12,-6 14,-1"
       id="path9-7" /><path
       fill="#eba352"
       d="m 32,45 c -4.2,0 -6.3,-3 -4.2,-3 h 8.4 c 2.1,0 0,3 -4.2,3"
       id="path10-3"
       style="fill:#935e3e;fill-opacity:1" /></g><path
     fill="#b386e2"
     d="M52.4 62c0-15-1.4-15.2-20.4-15.2S11.6 47 11.6 62h40.8"
     id="path8"
     style="fill:#2e6c93;fill-opacity:1" /><g
     fill="#ffd452"
     id="g9"
     style="fill:#a8734f;fill-opacity:1"><path
       d="M4.2 20.2c.8.6 13.9 11.2 13.9 11.2l-3.2 6.1C10.6 35 8.7 30.3 2.4 23.2c-1.2-1.4.4-4.1 1.8-3M59.8 20.2c-.8.6-13.9 11.2-13.9 11.2l3.2 6.1c4.3-2.6 6.2-7.2 12.5-14.4 1.2-1.3-.4-4-1.8-2.9"
       id="path9"
       style="fill:#a8734f;fill-opacity:1" /></g><path
     fill="#c99ff7"
     d="M42.8 44.4c4.4-3.5 7.4-6.2 7.4-6.2l-3.5-7.9c-3 2.7-8.6 5.7-14.8 8.7-6.1-3-11.8-5.9-14.8-8.7l-3.5 7.9s3 2.7 7.4 6.2C10.9 49.8 3 55.4 9.1 61c3.7 3.4 13.7-2 22.9-8.5 9.2 6.4 19.2 11.8 22.9 8.5 6.1-5.6-1.8-11.2-12.1-16.6"
     id="path10"
     style="fill:#428bc1;fill-opacity:1" /><g
     fill="#b386e2"
     id="g11"
     style="fill:#2e6c93;fill-opacity:1"><path
       d="M23.1 58.1l19.7-13.7L28.4 58zM21.2 44.4L32 39l-11.8 4.6z"
       id="path11"
       style="fill:#2e6c93;fill-opacity:1" /></g><metadata
     id="metadata12"><rdf:RDF><cc:Work
         rdf:about=""><dc:title>man gesturing NO: medium-dark skin tone</dc:title></cc:Work></rdf:RDF></metadata></svg>
