<?xml version="1.0" encoding="UTF-8" standalone="no"?>
<svg
   viewBox="0 0 64 64"
   version="1.1"
   id="svg9"
   sodipodi:docname="1f64d-1f3fb-200d-2642.svg"
   xml:space="preserve"
   inkscape:version="1.3.2 (091e20e, 2023-11-25, custom)"
   xmlns:inkscape="http://www.inkscape.org/namespaces/inkscape"
   xmlns:sodipodi="http://sodipodi.sourceforge.net/DTD/sodipodi-0.dtd"
   xmlns="http://www.w3.org/2000/svg"
   xmlns:svg="http://www.w3.org/2000/svg"
   xmlns:rdf="http://www.w3.org/1999/02/22-rdf-syntax-ns#"
   xmlns:cc="http://creativecommons.org/ns#"
   xmlns:dc="http://purl.org/dc/elements/1.1/"><defs
     id="defs9" /><sodipodi:namedview
     id="namedview9"
     pagecolor="#ffffff"
     bordercolor="#000000"
     borderopacity="0.25"
     inkscape:showpageshadow="2"
     inkscape:pageopacity="0.0"
     inkscape:pagecheckerboard="0"
     inkscape:deskcolor="#d1d1d1"
     inkscape:zoom="12.046875"
     inkscape:cx="33.079118"
     inkscape:cy="34.490272"
     inkscape:window-width="1920"
     inkscape:window-height="991"
     inkscape:window-x="-9"
     inkscape:window-y="-9"
     inkscape:window-maximized="1"
     inkscape:current-layer="svg9" /><title
     id="title1">man frowning: light skin tone</title><path
     fill="#b386e2"
     d="M42 49.1V42H22v7.1C9.5 49.4 7 51.5 7 62h50c0-10.5-2.5-12.6-15-12.9"
     id="path2"
     style="fill:#428bc1;fill-opacity:1" /><g
     fill="#231f20"
     id="g8"><path
       d="M17.2 28.2c-.1-.1-.2-.2-.2-.3 0-.8 2.9-1.8 6.5-1.8s6.5 1 6.5 1.8c0 .1-.1.2-.2.3 0 0-2.8-.7-6.3-.7s-6.3.7-6.3.7M34.2 28.2c-.1-.1-.2-.2-.2-.3 0-.8 2.9-1.8 6.5-1.8s6.5 1 6.5 1.8c0 .1-.1.2-.2.3 0 0-2.8-.7-6.3-.7s-6.3.7-6.3.7"
       id="path8" /></g><path
     fill="#eba352"
     d="M32 39c-3.2 0-4.8-2.3-3.2-2.3h6.4c1.6 0 0 2.3-3.2 2.3"
     id="path9" /><g
     id="g11"
     transform="matrix(0.69909209,0,0,0.76757458,9.5045396,1.4609598)"
     style="opacity:1"><path
       fill="#ffb300"
       d="M 6,36 H 58 C 58,8 54,2 32,2 10,2 6,8 6,36 Z"
       id="path1-9"
       style="fill:#594640;fill-opacity:1" /><path
       fill="#ffdd67"
       d="m 55.8,29.9 c -0.2,1.1 -0.4,2.1 -0.7,2.7 -0.6,1 -1.7,1.6 -1.7,1.6 0,0 0.3,-2.1 0.2,-5 C 52.4,11.8 51.4,16.6 32,16.6 c -19.4,0 -20.4,-4.8 -21.6,12.5 -0.1,2.9 0.2,5.1 0.2,5.1 0,0 -1.1,-0.6 -1.7,-1.6 C 8.6,32 8.4,31 8.2,29.9 6.4,29.4 4,29.8 4,35 c 0,3.2 1.2,5.9 5.3,6.2 1.3,10.2 7.3,15.4 17.2,19.9 2.7,1.2 8.3,1.2 11,0 10,-4.5 15.9,-9.7 17.2,-19.9 4.1,-0.3 5.3,-2.9 5.3,-6.2 0,-5.2 -2.4,-5.6 -4.2,-5.1"
       id="path2-0"
       style="fill:#ffe1bd;fill-opacity:1" /><path
       fill="#eba352"
       d="m 32.118738,49.001352 c -4.2,0 -6.3,-3 -4.2,-3 h 8.4 c 2.1,0 0,3 -4.2,3"
       id="path10"
       style="fill:#e6b796;fill-opacity:1" /><path
       fill="#937237"
       d="M26 43c-.1-.1-.2-.2-.2-.3 0-.8 2.7-1.7 6.1-1.7s6.1.9 6.1 1.7c0 .1-.1.2-.1.3 0 0-2.7-.7-6-.7S26 43 26 43"
       id="path4"
       style="opacity:1;fill:#664e27;fill-opacity:1"
       transform="matrix(1.4304267,0,0,1.302805,-13.595547,-1.9033457)" /><g
       fill="#fff"
       id="g5"
       transform="matrix(1.4304267,0,0,1.302805,-13.595547,-1.9033457)"><path
         d="M45.4 28.4c0 2.8-2.2 4.9-4.9 4.9s-4.9-2.2-4.9-4.9 9.8-2.7 9.8 0M18.6 28.1c0 2.8 2.2 4.9 4.9 4.9s4.9-2.2 4.9-4.9-9.8-2.7-9.8 0"
         id="path5" /></g><circle
       cx="23.5"
       cy="29.9"
       r="3.1"
       fill="#664e27"
       id="circle5"
       transform="matrix(1.4304267,0,0,1.302805,-13.595547,-1.9033457)" /><circle
       cx="40.5"
       cy="30.2"
       r="3.1"
       fill="#664e27"
       id="circle7"
       transform="matrix(1.4304267,0,0,1.302805,-13.595547,-1.9033457)" /><circle
       cx="40.5"
       cy="30.2"
       r="1"
       id="circle8"
       transform="matrix(1.4304267,0,0,1.302805,-13.595547,-1.9033457)" /><circle
       cx="23.5"
       cy="29.9"
       r="1"
       fill="#231f20"
       id="circle6"
       transform="matrix(1.4304267,0,0,1.302805,-13.595547,-1.9033457)" /></g><metadata
     id="metadata11"><rdf:RDF><cc:Work
         rdf:about=""><dc:title>man frowning: light skin tone</dc:title></cc:Work></rdf:RDF></metadata></svg>
