<?xml version="1.0" encoding="UTF-8" standalone="no"?>
<svg
   viewBox="0 0 64 64"
   version="1.1"
   id="svg9"
   sodipodi:docname="1f64e-1f3fd-200d-2642.svg"
   xml:space="preserve"
   inkscape:version="1.3.2 (091e20e, 2023-11-25, custom)"
   xmlns:inkscape="http://www.inkscape.org/namespaces/inkscape"
   xmlns:sodipodi="http://sodipodi.sourceforge.net/DTD/sodipodi-0.dtd"
   xmlns="http://www.w3.org/2000/svg"
   xmlns:svg="http://www.w3.org/2000/svg"
   xmlns:rdf="http://www.w3.org/1999/02/22-rdf-syntax-ns#"
   xmlns:cc="http://creativecommons.org/ns#"
   xmlns:dc="http://purl.org/dc/elements/1.1/"><defs
     id="defs9" /><sodipodi:namedview
     id="namedview9"
     pagecolor="#ffffff"
     bordercolor="#000000"
     borderopacity="0.25"
     inkscape:showpageshadow="2"
     inkscape:pageopacity="0.0"
     inkscape:pagecheckerboard="0"
     inkscape:deskcolor="#d1d1d1"
     inkscape:zoom="12.046875"
     inkscape:cx="32.747082"
     inkscape:cy="31.916991"
     inkscape:window-width="1920"
     inkscape:window-height="991"
     inkscape:window-x="-9"
     inkscape:window-y="-9"
     inkscape:window-maximized="1"
     inkscape:current-layer="svg9" /><title
     id="title1">man pouting: medium skin tone</title><path
     fill="#b386e2"
     d="M42 49.1V42H22v7.1C9.5 49.4 7 51.5 7 62h50c0-10.5-2.5-12.6-15-12.9"
     id="path2"
     style="fill:#428bc1;fill-opacity:1" /><g
     id="g9"
     transform="matrix(0.71391514,0,0,0.76895806,8.8641837,1.7902292)"
     style="opacity:1"><path
       fill="#ffb300"
       d="M 6,36 H 58 C 58,8 54,2 32,2 10,2 6,8 6,36 Z"
       id="path1-6"
       style="fill:#594640;fill-opacity:1" /><path
       fill="#ffdd67"
       d="m 55.8,29.9 c -0.2,1.1 -0.4,2.1 -0.7,2.7 -0.6,1 -1.7,1.6 -1.7,1.6 0,0 0.3,-2.1 0.2,-5 C 52.4,11.8 51.4,16.6 32,16.6 c -19.4,0 -20.4,-4.8 -21.6,12.5 -0.1,2.9 0.2,5.1 0.2,5.1 0,0 -1.1,-0.6 -1.7,-1.6 C 8.6,32 8.4,31 8.2,29.9 6.4,29.4 4,29.8 4,35 c 0,3.2 1.2,5.9 5.3,6.2 1.3,10.2 7.3,15.4 17.2,19.9 2.7,1.2 8.3,1.2 11,0 10,-4.5 15.9,-9.7 17.2,-19.9 4.1,-0.3 5.3,-2.9 5.3,-6.2 0,-5.2 -2.4,-5.6 -4.2,-5.1"
       id="path2-8"
       style="fill:#d6a57c;fill-opacity:1" /><path
       fill="#f5f5f5"
       d="m 20,28.6 c -5,0 -7,1.8 -7,3.6 0,1.8 0,4.4 6.6,4.4 6.4,0 7.4,-0.8 7.4,-3.5 0,-1.8 -2,-4.5 -7,-4.5"
       id="path4-9" /><circle
       cx="20.5"
       cy="31.6"
       r="4.5"
       fill="#664e27"
       id="circle4" /><path
       fill="#231f20"
       d="m 22,31.6 c 0,0.8 -0.7,1.5 -1.5,1.5 -0.8,0 -1.5,-0.7 -1.5,-1.5 0,-0.8 0.7,-1.5 1.5,-1.5 0.8,0 1.5,0.7 1.5,1.5"
       id="path5-4" /><path
       fill="#664e27"
       d="m 13,32.1 c 0,-7 14,-7 14,1 -2,-6 -12,-6 -14,-1"
       id="path6-4" /><path
       fill="#f5f5f5"
       d="m 44,28.6 c 5,0 7,1.8 7,3.6 0,1.8 0,4.4 -6.6,4.4 -6.4,0 -7.4,-0.8 -7.4,-3.5 0,-1.8 2,-4.5 7,-4.5"
       id="path7-7" /><circle
       cx="43.5"
       cy="31.6"
       r="4.5"
       fill="#664e27"
       id="circle7-1" /><path
       fill="#231f20"
       d="m 42,31.6 c 0,0.8 0.7,1.5 1.5,1.5 0.8,0 1.5,-0.7 1.5,-1.5 0,-0.8 -0.7,-1.5 -1.5,-1.5 -0.8,0 -1.5,0.7 -1.5,1.5"
       id="path8-7" /><path
       fill="#664e27"
       d="m 51,32.1 c 0,-7 -14,-7 -14,1 2,-6 12,-6 14,-1"
       id="path9" /><path
       fill="#eba352"
       d="m 32,45 c -4.2,0 -6.3,-3 -4.2,-3 h 8.4 c 2.1,0 0,3 -4.2,3"
       id="path10"
       style="fill:#b58360;fill-opacity:1" /><ellipse
       cx="31.941864"
       cy="51.49139"
       fill="#937237"
       id="circle9"
       rx="4.2021799"
       ry="3.9013829"
       style="stroke-width:1.34966;fill:#664e27;fill-opacity:1" /></g><metadata
     id="metadata10"><rdf:RDF><cc:Work
         rdf:about=""><dc:title>man pouting: medium skin tone</dc:title></cc:Work></rdf:RDF></metadata></svg>
