<?xml version="1.0" encoding="UTF-8" standalone="no"?>
<svg
   viewBox="0 0 64 64"
   version="1.1"
   id="svg11"
   sodipodi:docname="1f646-1f3fc-200d-2642.svg"
   xml:space="preserve"
   inkscape:version="1.3.2 (091e20e, 2023-11-25, custom)"
   xmlns:inkscape="http://www.inkscape.org/namespaces/inkscape"
   xmlns:sodipodi="http://sodipodi.sourceforge.net/DTD/sodipodi-0.dtd"
   xmlns="http://www.w3.org/2000/svg"
   xmlns:svg="http://www.w3.org/2000/svg"
   xmlns:rdf="http://www.w3.org/1999/02/22-rdf-syntax-ns#"
   xmlns:cc="http://creativecommons.org/ns#"
   xmlns:dc="http://purl.org/dc/elements/1.1/"><defs
     id="defs11" /><sodipodi:namedview
     id="namedview11"
     pagecolor="#ffffff"
     bordercolor="#000000"
     borderopacity="0.25"
     inkscape:showpageshadow="2"
     inkscape:pageopacity="0.0"
     inkscape:pagecheckerboard="0"
     inkscape:deskcolor="#d1d1d1"
     inkscape:zoom="12.046875"
     inkscape:cx="30.339818"
     inkscape:cy="31.750973"
     inkscape:window-width="1920"
     inkscape:window-height="991"
     inkscape:window-x="-9"
     inkscape:window-y="-9"
     inkscape:window-maximized="1"
     inkscape:current-layer="svg11"
     showguides="true" /><title
     id="title1">man gesturing OK: medium-light skin tone</title><g
     fill="#ffdd67"
     id="g2" /><path
     fill="#c28fef"
     d="M61.7 25.8c-1.3-5.1-7.2-12.1-12.5-20.4l-5.9 5.7s5.7 5.1 9.9 18C50.8 35 47.8 44 43.6 46.7c-2.4-1.2-6.1-1.2-11.6-1.2s-9.2 0-11.6 1.2C16.2 44 13.2 35 10.8 29.1c4.2-12.9 9.9-18 9.9-18l-5.9-5.7C9.4 13.7 3.6 20.7 2.3 25.8-.1 35.4 13.4 55.1 13.2 62h37.6c-.2-6.9 13.3-26.6 10.9-36.2"
     id="path3"
     style="fill:#428bc1;fill-opacity:1" /><g
     id="g11"
     style="display:inline;opacity:1"
     transform="matrix(0.77172503,0,0,0.80077821,6.9727626,0.39844358)"><path
       fill="#ffb300"
       d="M 6,36 H 58 C 58,8 54,2 32,2 10,2 6,8 6,36 Z"
       id="path1-0"
       style="fill:#dbb471;fill-opacity:1" /><path
       fill="#ffdd67"
       d="m 55.8,29.9 c -0.2,1.1 -0.4,2.1 -0.7,2.7 -0.6,1 -1.7,1.6 -1.7,1.6 0,0 0.3,-2.1 0.2,-5 C 52.4,11.8 51.4,16.6 32,16.6 c -19.4,0 -20.4,-4.8 -21.6,12.5 -0.1,2.9 0.2,5.1 0.2,5.1 0,0 -1.1,-0.6 -1.7,-1.6 C 8.6,32 8.4,31 8.2,29.9 6.4,29.4 4,29.8 4,35 c 0,3.2 1.2,5.9 5.3,6.2 1.3,10.2 7.3,15.4 17.2,19.9 2.7,1.2 8.3,1.2 11,0 10,-4.5 15.9,-9.7 17.2,-19.9 4.1,-0.3 5.3,-2.9 5.3,-6.2 0,-5.2 -2.4,-5.6 -4.2,-5.1"
       id="path2-9"
       style="display:inline;opacity:1;fill:#fed0ac;fill-opacity:1" /><path
       fill="#937237"
       d="m 41,48.9 c 0,3.4 -4.5,5.1 -9,5.1 -4.5,0 -9,-1.7 -9,-5.1 0,0 0,-0.9 0.9,-0.9 h 16.2 c 0.9,0 0.9,0.9 0.9,0.9"
       id="path3-4"
       style="fill:#664e27;fill-opacity:1" /><path
       fill="#f5f5f5"
       d="m 20,28.6 c -5,0 -7,1.8 -7,3.6 0,1.8 0,4.4 6.6,4.4 6.4,0 7.4,-0.8 7.4,-3.5 0,-1.8 -2,-4.5 -7,-4.5"
       id="path4-8" /><circle
       cx="20.5"
       cy="31.6"
       r="4.5"
       fill="#664e27"
       id="circle4" /><path
       fill="#231f20"
       d="m 22,31.6 c 0,0.8 -0.7,1.5 -1.5,1.5 -0.8,0 -1.5,-0.7 -1.5,-1.5 0,-0.8 0.7,-1.5 1.5,-1.5 0.8,0 1.5,0.7 1.5,1.5"
       id="path5-2" /><path
       fill="#664e27"
       d="m 13,32.1 c 0,-7 14,-7 14,1 -2,-6 -12,-6 -14,-1"
       id="path6-7" /><path
       fill="#f5f5f5"
       d="m 44,28.6 c 5,0 7,1.8 7,3.6 0,1.8 0,4.4 -6.6,4.4 -6.4,0 -7.4,-0.8 -7.4,-3.5 0,-1.8 2,-4.5 7,-4.5"
       id="path7-7" /><circle
       cx="43.5"
       cy="31.6"
       r="4.5"
       fill="#664e27"
       id="circle7-2" /><path
       fill="#231f20"
       d="m 42,31.6 c 0,0.8 0.7,1.5 1.5,1.5 0.8,0 1.5,-0.7 1.5,-1.5 0,-0.8 -0.7,-1.5 -1.5,-1.5 -0.8,0 -1.5,0.7 -1.5,1.5"
       id="path8-0" /><path
       fill="#664e27"
       d="m 51,32.1 c 0,-7 -14,-7 -14,1 2,-6 12,-6 14,-1"
       id="path9-0" /><path
       fill="#eba352"
       d="m 32,45 c -4.2,0 -6.3,-3 -4.2,-3 h 8.4 c 2.1,0 0,3 -4.2,3"
       id="path10-9"
       style="fill:#e0a372;fill-opacity:1" /></g><path
     d="M31.2 3.2c0-.7-5-.6-6.5-.6-2.6 0-9.8 3.8-9.8 3.8s3.2 4 4.8 4c2.2 0 4.4-1.5 4.4-3.6 0-1.6 7.1-1.5 7.1-3.6M32.8 3.2c0-.7 5-.6 6.5-.6 2.6 0 9.8 3.8 9.8 3.8s-3.2 4-4.8 4c-2.2 0-4.4-1.5-4.4-3.6 0-1.6-7.1-1.5-7.1-3.6"
     id="path2"
     style="fill:#fed0ac;fill-opacity:1" /><path
     fill="#c28fef"
     d="m 61.70001,25.8 c -1.3,-5.1 -7.200002,-12.1 -12.500004,-20.4 l -5.900002,5.7 c 0,0 5.700002,5.1 9.900003,18 -2.400001,5.9 -5.400001,14.9 -9.600003,17.6 -2.4,-1.2 -5.850975,6.685863 -11.350977,6.685863 C 26.749025,53.385863 22.799998,45.5 20.399996,46.7 16.199995,44 13.199994,35 10.799993,29.1 c 4.200002,-12.9 9.900003,-18 9.900003,-18 L 14.799994,5.4 C 9.3999923,13.7 3.5999904,20.7 2.2999899,25.8 -0.10001094,35.4 13.399994,55.1 13.199994,62 H 50.800006 C 50.600007,55.1 64.100011,35.4 61.70001,25.8"
     id="path3-5"
     style="stroke-width:0.999997;fill:#428bc1;fill-opacity:1"
     sodipodi:nodetypes="cccccscccccccc" /><metadata
     id="metadata13"><rdf:RDF><cc:Work
         rdf:about=""><dc:title>man gesturing OK: medium-light skin tone</dc:title></cc:Work></rdf:RDF></metadata></svg>
