<svg xmlns="http://www.w3.org/2000/svg" viewBox="0 0 64 64">
	<g transform="scale(-1,1) translate(-64,0)">
		<g fill="#3e4347">
			<ellipse cx="2.9" cy="37.4" rx=".5" ry="2.1"/>
			<path d="M2.9 35.3h1.4v4.3H2.9z"/>
		</g>
		<ellipse cx="2.9" cy="37.4" fill="#b2c1c0" rx=".2" ry="1.1"/>
		<g fill="#3e4347">
			<ellipse cx="4.7" cy="39.1" rx=".6" ry="2.7"/>
			<ellipse cx="6.6" cy="39.1" rx=".6" ry="2.7"/>
			<path d="M4.7 36.3h1.8v5.4H4.7z"/>
		</g>
		<g fill="#b2c1c0">
			<ellipse cx="4.7" cy="39.1" rx=".3" ry="1.4"/>
			<path d="M12.1 44.4L2 35.5V25.4l10.1-8.8z"/>
		</g>
		<path fill="#e1e8ed" d="M9.5 44.4l-4.1-4V36l4.1 1.2z"/>
		<path fill="#fff" d="M9.5 37.2L5.4 36H7l5.1 1.2z"/>
		<g fill="#62727a">
			<path d="M12.1 16.6h13.4v27.8H12.1z"/>
			<path d="M9.5 37.2h4.9v7.2H9.5z"/>
		</g>
		<path fill="#c94747" d="M21.3 37.2h12.3V49H21.3z"/>
		<g fill="#3e4347">
			<path d="M29.7 60.2c0 1-.8 1.8-1.7 1.8h-3.4c-.9 0-1.7-.8-1.7-1.8V45c0-1 .8-1.8 1.7-1.8H28c.9 0 1.7.8 1.7 1.8v15.2"/>
			<ellipse cx="56" cy="50.7" rx="3.4" ry="8.4"/>
			<ellipse cx="52.6" cy="50.7" rx="3.4" ry="8.4"/>
			<path d="M52.2 50.7h4.2v8.4h-4.2zM11 38.6h2.5V48H11z"/>
			<ellipse cx="13.6" cy="43.2" rx=".8" ry="4.7"/>
			<ellipse cx="11" cy="43.2" rx=".9" ry="4.7"/>
		</g>
		<g fill="#b2c1c0">
			<ellipse cx="11" cy="43.2" rx=".4" ry="2.8"/>
			<path d="M39.9 2c-.2 0-.4 0-.6.1-.2.4-.3.8-.3 1.3 0 .3.1.7.2 1 .4 0 .7.1.7.5v10.3h1.7V3.9c0-1.1-.8-1.9-1.7-1.9"/>
		</g>
		<path fill="#f15744" d="M59.2 38.3c-.5-.5-2.3-1.4-2.3-1.4s-.5-5-1.4-6.1c-.9-1.1-7.2-2.3-8.5-5.4-1.3-3.1-1.8-5.4-1.8-5.4s1.5 0 1-1.2-2.8-3.4-5.4-4c0 0-1.3-2-3.3-2.6-2.1-.6-19.5-3.3-20.4-.7-1.8 5.4-1.9 10.6-2.7 26 0 0-1.6.5-1.6 1.8v5.9l8.6 4.6c.3-4.9 1.3-8.5 2.5-8.5 1.4 0 2.5 5 2.5 11.2 1.3.5 3.9 1.2 8.4 1 7.2-.4 27.2-3 27.2-3s.5-8.6-2.8-12.2"/>
		<path fill="#b2c1c0" d="M56 43.2c.1.5-.3 1-.8 1l-14.2.9c-.5 0-.9-.4-.9-.9L39 32.9c0-.5.3-.9.8-.9H54c.5 0 .9.4 1 .9l1 10.3"/>
		<path fill="#3e4347" d="M19.1 28.2c0 .5.4 1 .9 1h2.5c.5 0 .9-.4.9-1v-7.8c0-.5-.4-.8-.8-.6l-2.7 1.3c-.4.2-.8.8-.8 1.4v5.7"/>
		<path fill="#fed0ac" d="M51.9 30.8c.9 0 .9-.1 0-.2l-13.7-1.2c-.9-.1-2.5-.4-3.4-.6l-5.3-1.4c-.9-.2-1-.1-.1.3L34 30c.9.4 1.7 1.6 2 2.5l2.7 10.9c.2 1 .3 1 .2 0l-1.4-10.8c-.1-1 .5-1.8 1.5-1.8h12.9"/>
		<g fill="#b2c1c0">
			<path d="M17 34.1c-1 .9-2.4.9-3.4 0V14.9c1-.9 2.4-.9 3.4 0v19.2"/>
			<path d="M14.4 2c-.2 0-.4 0-.6.1-.2.4-.3.8-.3 1.3 0 .3.1.7.2 1 .4 0 .7.1.7.5v10.3h1.7V3.9c0-1.1-.8-1.9-1.7-1.9"/>
		</g>
		<g fill="#3e4347">
			<path d="M41 34.7c.1.5.5.9 1 .9l3.6-.1c.5 0 .9-.4.8-.9-.1-.5-.5-.9-1-.9l-3.6.1c-.5 0-.9.4-.8.9M41.5 38.4c.1.5.5.9 1 .9l3.6-.1c.5 0 .9-.4.8-.9-.1-.5-.5-.9-1-.9l-3.6.1c-.6 0-.9.4-.8.9M41.9 42.1c.1.5.5.9 1 .9l3.6-.1c.5 0 .9-.4.8-.9-.1-.5-.5-.9-1-.9l-3.6.1c-.5-.1-.9.4-.8.9M49 33.7c-.5 0-.9.4-.8.9.1.5.5.9 1 .9l3.6-.1c.5 0 .9-.4.8-.9-.1-.5-.5-.9-1-.9l-3.6.1M48.7 38.3c.1.5.5.9 1 .9l3.6-.1c.5 0 .9-.4.8-.9-.1-.5-.5-.9-1-.9l-3.6.1c-.5-.1-.9.4-.8.9M49.1 41.9c.1.5.5.9 1 .9l3.6-.1c.5 0 .9-.4.8-.9-.1-.5-.5-.9-1-.9l-3.6.1c-.5 0-.8.4-.8.9M34.9 19.4l-8.6-.6c-.4 0-.8.4-.8.9v4.8c0 .5.4 1 .8 1l9 .4-.4-6.5M45.8 25.5l-1.7-4.6c-.1-.5-.6-.9-1.1-.9l-7-.5.4 6.5 8.9.4c.4 0 .7-.4.5-.9"/>
		</g>
		<g fill="#fff">
			<path d="M39.9 50.3c0 .5-.4 1-.8 1l-5.1.3c-.5 0-.8-.4-.8-.9v-1.5c0-.5.4-1 .8-1l5.1-.3c.5 0 .8.4.8.9v1.5M60.3 48.3c0 .5-.4 1-.8 1.1l-3.5.4c-.5.1-.8-.3-.8-.9v-1.3c0-.5.4-1 .8-1.1l3.4-.4c.5-.1.8.3.8.9v1.3z"/>
		</g>
		<path fill="#62727a" d="M21.6 53.6l-8.9-7.5v-3.3l8.9 5.7z"/>
		<path fill="#b2c1c0" d="M22.1 47.9c-.5 0-.9.4-.9.9v7.5c0 .5.4.9.9.9h.9v-9.4l-.9.1"/>
		<g fill="#fed0ac">
			<path d="M22.1 36.4s7.5-4.4 10.7 4.9c3 9.2-4.2-5.1-10.7-4.9M21.3 13.3s3.5-2 4.9 2.3c1.5 4.2-1.9-2.4-4.9-2.3"/>
		</g>
	</g>
</svg>
