<svg xmlns="http://www.w3.org/2000/svg" viewBox="0 0 64 64">
    <path fill="#63686b" d="M2 15.8l11.8-5.3L22.7 2 26 8.7l5 3 2.9 4.1 2.9-2.9 2.9-1.5 1.6 4 2.3 1.4 3.4-4.4 1.7-.4 2.6-4.6 5.1 5.5 1.8 4.5 3.8 4.2v36.6H2z"/>
    <g fill="#c5d0d8">
        <path d="M22.7 2l.1 3.8L21 7.4l-.9 3.1 3-1.7 2-.6.9.5zM27.1 9.3l-.3 2.3-2.3 3.4-3.5 9.1 2.3-.3 1.2 3.2 1.8-2.7 1.6 1.4.9 6.4 2.7-2.5.4-4.2 1.5 4.2.7 4.3 1.6-8.5-1.8-9.6-2.9-4.1zM39.7 11.4l-.3 5-2.6 4-.6 6.9 3.5-5.4 1.2 3.5 3.1 6.3v-5.1l-.6-6.2.2-3.6-2.3-1.4zM51.3 7.4l1.4 4-1.1 1-.3 5.6-3.1 1.5v5.9l-1.4 5.4 2.9.9 1.9 2.6 2-.4 4 6.7-.6-4.2 2.4 1.4.5-4.8 2.1 4V21.6l-3.8-4.2-1.8-4.5zM10.4 30l1.6-8.1 7-5.3-1.7-.6 1-4.9-2.8 5.5-2.9 1.5 1.4-4-1.4.9.4-3.6-2.6 4.9-1 6.5-3.1-8.9L2 15.8v22z"/>
    </g>
    <path fill="#3e4347" d="M2 58.2h60v1.9H2z"/>
    <path fill="#89664c" d="M2 60.1h60V62H2z"/>
    <g fill="#dbb471">
        <path d="M39.5 60.1h3.8V62h-3.8zM32 60.1h3.8V62H32zM54.5 60.1h3.8V62h-3.8zM47 60.1h3.8V62H47zM9.5 60.1h3.8V62H9.5zM2 60.1h3.8V62H2zM24.5 60.1h3.8V62h-3.8zM17 60.1h3.8V62H17z"/>
    </g>
    <circle cx="27.1" cy="55.1" r="4.4" fill="#94989b"/>
    <path fill="#3e4347" d="M27.1 58.1c-1.6 0-2.9-1.3-2.9-2.9 0-1.6 1.3-2.9 2.9-2.9s2.9 1.3 2.9 2.9c0 1.5-1.3 2.9-2.9 2.9m0-4.4c-.8 0-1.5.7-1.5 1.5s.7 1.5 1.5 1.5 1.5-.7 1.5-1.5c0-.9-.7-1.5-1.5-1.5"/>
    <circle cx="36.9" cy="55.1" r="4.4" fill="#94989b"/>
    <path fill="#3e4347" d="M36.9 58.1c-1.6 0-2.9-1.3-2.9-2.9 0-1.6 1.3-2.9 2.9-2.9 1.6 0 2.9 1.3 2.9 2.9 0 1.5-1.3 2.9-2.9 2.9m0-4.4c-.8 0-1.5.7-1.5 1.5s.7 1.5 1.5 1.5 1.5-.7 1.5-1.5c-.1-.9-.7-1.5-1.5-1.5"/>
    <circle cx="57" cy="55.1" r="4.4" fill="#94989b"/>
    <path fill="#3e4347" d="M57 58.1c-1.6 0-2.9-1.3-2.9-2.9 0-1.6 1.3-2.9 2.9-2.9 1.6 0 2.9 1.3 2.9 2.9 0 1.5-1.3 2.9-2.9 2.9m0-4.4c-.8 0-1.5.7-1.5 1.5s.7 1.5 1.5 1.5 1.5-.7 1.5-1.5c-.1-.9-.7-1.5-1.5-1.5"/>
    <path fill="#f2b200" d="M62 20.7H25.9c-2.8 0-5.1 2.3-5.1 5.1v29.4H62V20.7z"/>
    <path fill="#699635" d="M62 20.7H25.9c-2.8 0-5.1 2.3-5.1 5.1v2.6H62v-7.7z"/>
    <path fill="#ffe62e" d="M20.7 28.3H62v14H20.7z"/>
    <g fill="#3e4347">
        <path d="M20.1 52.6h.6v2.6h-.6z"/>
        <path d="M18.6 51.3h1.6v5.1h-1.6z"/>
    </g>
    <path fill="#89664c" d="M41.3 50.3h11.3l2.5-2.5H62v-2.6h-7.9l-2.6 2.6h-9.2l-2.5-2.6H20.7v2.6h18z"/>
    <g fill="#3e4347">
        <path d="M60.5 38.8c0 .5-.4 1-1 1h-5.7c-.5 0-1-.4-1-1v-7c0-.5.4-1 1-1h5.7c.5 0 1 .4 1 1v7M50.8 38.8c0 .5-.4 1-1 1h-5.7c-.5 0-1-.4-1-1v-7c0-.5.4-1 1-1h5.7c.5 0 1 .4 1 1v7M41 38.8c0 .5-.4 1-1 1h-5.7c-.5 0-1-.4-1-1v-7c0-.5.4-1 1-1H40c.5 0 1 .4 1 1v7M31.3 38.8c0 .5-.4 1-1 1h-5.7c-.5 0-1-.4-1-1v-7c0-.5.4-1 1-1h5.7c.5 0 1 .4 1 1v7M20.7 51.3H62v3.8H20.7z"/>
    </g>
    <g fill="#b4d7ee">
        <path d="M30.3 37.8c0 .5-.4.9-.9.9h-3.8c-.5 0-.9-.4-.9-.9v-4.9c0-.5.4-.9.9-.9h3.8c.5 0 .9.4.9.9v4.9M40 37.8c0 .5-.4.9-.9.9h-3.8c-.5 0-.9-.4-.9-.9v-4.9c0-.5.4-.9.9-.9h3.8c.5 0 .9.4.9.9v4.9M49.7 37.8c0 .5-.4.9-.9.9H45c-.5 0-.9-.4-.9-.9v-4.9c0-.5.4-.9.9-.9h3.8c.5 0 .9.4.9.9v4.9M59.4 37.8c0 .5-.4.9-.9.9h-3.8c-.5 0-.9-.4-.9-.9v-4.9c0-.5.4-.9.9-.9h3.8c.5 0 .9.4.9.9v4.9"/>
    </g>
</svg>
