<?xml version="1.0" encoding="UTF-8" standalone="no"?>
<svg
   viewBox="0 0 64 64"
   version="1.1"
   id="svg8"
   sodipodi:docname="1f6f8.svg"
   xml:space="preserve"
   inkscape:version="1.3.2 (091e20e, 2023-11-25, custom)"
   xmlns:inkscape="http://www.inkscape.org/namespaces/inkscape"
   xmlns:sodipodi="http://sodipodi.sourceforge.net/DTD/sodipodi-0.dtd"
   xmlns:xlink="http://www.w3.org/1999/xlink"
   xmlns="http://www.w3.org/2000/svg"
   xmlns:svg="http://www.w3.org/2000/svg"
   xmlns:rdf="http://www.w3.org/1999/02/22-rdf-syntax-ns#"
   xmlns:cc="http://creativecommons.org/ns#"
   xmlns:dc="http://purl.org/dc/elements/1.1/"><defs
     id="defs8"><linearGradient
       id="linearGradient10">
      <stop
   offset="0"
   stop-color="#9292de"
   stop-opacity="0"
   id="stop9" />
      <stop
   offset="1"
   stop-color="#9292de"
   id="stop10" />
    </linearGradient><linearGradient
       id="a">
      <stop
   offset="0"
   stop-color="#9292de"
   stop-opacity="0"
   id="stop1" />
      <stop
   offset="1"
   stop-color="#9292de"
   id="stop2" />
    </linearGradient><linearGradient
       xlink:href="#a"
       id="c"
       x1="15.723547"
       x2="110.59197"
       y1="26.232033"
       y2="53.293892"
       gradientUnits="userSpaceOnUse"
       gradientTransform="matrix(0.52966632,0,0,0.49251675,-1.6508805,8.0825533)" /><linearGradient
       xlink:href="#linearGradient10"
       id="b"
       x1="47.882999"
       x2="100.282"
       y1="18.735594"
       y2="18.735594"
       gradientUnits="userSpaceOnUse"
       gradientTransform="matrix(0.52966632,0,0,0.49251675,-1.6508805,8.0825533)" /></defs><sodipodi:namedview
     id="namedview8"
     pagecolor="#ffffff"
     bordercolor="#000000"
     borderopacity="0.25"
     inkscape:showpageshadow="2"
     inkscape:pageopacity="0.0"
     inkscape:pagecheckerboard="0"
     inkscape:deskcolor="#d1d1d1"
     inkscape:zoom="11.313709"
     inkscape:cx="33.322407"
     inkscape:cy="33.101436"
     inkscape:window-width="1920"
     inkscape:window-height="991"
     inkscape:window-x="-9"
     inkscape:window-y="-9"
     inkscape:window-maximized="1"
     inkscape:current-layer="svg8" /><title
     id="title1">flying saucer / UFO</title><path
     stroke="#000000"
     stroke-width="0.383065"
     d="m 38.824709,9.8842743 c -0.0069,0.0031 13.737117,4.7087507 13.653016,17.6447897 L 19.766588,18.084969 c 0.322889,0.472211 0.975852,-2.735903 2.941158,-4.973637 2.483203,-2.827421 7.037854,-4.3950007 16.116963,-3.2270577 z"
     id="path2-6"
     sodipodi:nodetypes="cccsc" /><path
     fill="#d0cdff"
     d="m 39.236975,8.9863443 c 0,0 10.376693,2.5236557 12.50913,12.4601807 0,0 -11.439204,-5.072922 -29.385888,-8.420066 0,0 6.310974,-6.8646981 16.876758,-4.0401147 z"
     id="path3-0"
     style="stroke-width:0.510754" /><path
     fill="url(#b)"
     d="m 23.357579,12.887569 c 0,0 6.198155,-5.4925461 15.522931,-3.6062067 0,0 10.208788,3.1191077 12.231054,11.5022357 0,-4.93e-4 -13.187102,-6.644051 -27.753985,-7.896029 z"
     id="path4-7"
     style="fill:#9898e0;fill-opacity:1;stroke-width:0.510754" /><path
     fill="#deefff"
     d="m 22.63044,14.260473 -1.478299,2.822121 c 0,0 1.765908,0.04777 5.541899,1.220949 0,0 0.831576,-2.470464 1.093761,-2.9157 0,-4.92e-4 -4.03182,-1.235724 -5.157361,-1.12737 z"
     id="path6-5"
     style="stroke-width:0.510754" /><path
     fill="#a9d5ff"
     d="m 42.48277,19.474661 -5.47516,-1.458835 -0.581044,3.039814 5.69762,1.640573 z m 6.6203,5.52882 -5.380351,-1.308124 0.391953,-3.341234 5.023885,1.603635 z"
     id="path7-0"
     style="stroke-width:0.510754" /><path
     fill="#98cdff"
     d="m 34.89097,20.381384 -6.823161,-1.532219 1.093761,-2.915207 6.405784,1.55783 z"
     id="path8-9"
     style="stroke-width:0.510754" /><path
     fill="#45454a"
     d="m 5.2175664,23.366356 1.1483166,6.133803 4.103325,3.416097 c 0,0 17.606109,-3.22697 37.434697,9.486365 l 6.612355,0.335404 4.482036,-4.255345 c 0,4.92e-4 -25.092942,-12.975354 -53.7807296,-15.116324 z"
     id="path9"
     style="stroke-width:0.510754" /><path
     fill="#929394"
     d="M 44.672411,41.272787 C 39.919715,39.042179 25.358658,34.250976 9.8060656,32.737472 L 8.27533,30.982635 c 0,0 -2.5386906,-1.355406 1.054036,-1.022958 3.593257,0.331957 28.489692,4.046026 43.486665,12.529627 0,0 -1.760082,0.436369 -4.690725,0.131994 -0.479348,-0.04974 -1.666331,-0.510247 -3.452895,-1.348511 z"
     id="path10"
     style="stroke-width:0.510754" /><path
     fill="#7b7b7b"
     d="m 50.454778,35.768913 -3.378212,3.251103 -0.93592,0.408789 -3.799826,0.857471 c 0,0 4.44443,1.717406 5.530246,2.236026 l 6.194447,0.361015 5.908428,-5.435415 z"
     opacity="0.84"
     id="path11"
     style="stroke-width:0.510754" /><path
     fill="#c9c9f3"
     d="m 2.0385091,24.935022 c 0,0 33.4500179,4.863603 59.7304709,16.512609 0,0 -1.976185,-9.444502 -7.165855,-13.451618 0,0 -15.757573,-5.614198 -35.083508,-10.354179 0,0 -2.392503,-1.191891 -8.90475,1.036255 0,0 -4.1213345,2.156238 -8.5763579,6.256933 z"
     id="path12"
     style="stroke-width:0.510754" /><path
     fill="url(#c)"
     d="m 3.6481651,24.489786 c 0,0 7.2606659,-5.615676 9.9079389,-5.954035 1.610185,-0.205872 2.587949,-1.043643 6.725173,0.08225 3.3173,0.902783 29.851464,7.971383 34.013582,10.06458 4.138283,2.08236 7.050918,10.437907 7.241598,11.200815 0.291316,1.171206 -12.101287,-8.320084 -57.8882919,-15.39361 z"
     id="path13"
     style="fill:#9898e0;fill-opacity:1;stroke-width:0.510754" /><path
     fill="#6562cc"
     d="m 52.593041,27.934941 c 0,0 1.763789,4.39522 2.088474,9.206123 0,0 3.710313,1.750405 5.817855,2.979727 2.236781,1.305661 -3.109671,-9.651851 -5.236811,-11.012675 5.3e-4,0 -0.25371,-0.645197 -2.669518,-1.173175 z"
     id="path15"
     style="stroke-width:0.510754" /><path
     fill="none"
     stroke="#ccccf4"
     d="m 35.091807,22.100588 c -1.28656,4.574495 -2.327884,8.276251 -2.327884,8.276251 M 26.186527,20.173862 c -1.28656,4.574496 -5.060432,8.0098 -8.411631,7.194685"
     id="path16"
     style="stroke-width:0.510754" /><path
     fill="none"
     stroke="#bbbcf1"
     d="m 45.513521,25.352676 c -1.390904,4.944868 0.760601,9.743459 4.81043,10.728492 m 8.87244,-1.707555 c 0.260596,-0.925932 -6.347521,1.365749 -2.493139,3.976087"
     id="path17"
     style="stroke-width:0.510754" /><path
     fill="none"
     stroke="#dcddf8"
     d="m 7.9379326,20.754047 c 3.4121104,2.263607 4.4237734,3.46584 4.6785434,5.438862"
     id="path18"
     style="stroke-width:0.510754" /><ellipse
     cx="38.532825"
     cy="29.423262"
     fill="#ff3c00"
     rx="19.327339"
     ry="1.733348"
     transform="matrix(0.96855892,0.24878428,-0.28477055,0.95859571,0,0)"
     id="ellipse18"
     style="stroke-width:0.510932" /><ellipse
     cx="39.178692"
     cy="29.520267"
     fill="#ff8307"
     rx="17.916105"
     ry="1.3656676"
     transform="matrix(0.9673323,0.25351177,-0.29006801,0.95700603,0,0)"
     id="ellipse19"
     style="stroke-width:0.510938" /><ellipse
     cx="35.719559"
     cy="30.029367"
     fill="#ffee2e"
     rx="14.939906"
     ry="1.361449"
     transform="matrix(0.97057202,0.24081104,-0.27582207,0.96120871,0,0)"
     id="ellipse20"
     style="stroke-width:0.510922" /><path
     fill="#b9a956"
     d="M 16.192783,35.114358 4.8351473,46.946088 c 0,0 18.3434047,9.721788 36.5268487,9.307581 l -0.61759,-14.998612 c 0,0 -12.120885,-1.67505 -24.551623,-6.140699 z"
     opacity="0.83"
     id="path20"
     style="stroke-width:0.510754" /><metadata
     id="metadata10"><rdf:RDF><cc:Work
         rdf:about=""><dc:title>flying saucer / UFO</dc:title></cc:Work></rdf:RDF></metadata></svg>
