<?xml version="1.0" encoding="UTF-8" standalone="no"?>
<svg
   viewBox="0 0 64 64"
   version="1.1"
   id="svg11"
   sodipodi:docname="1f91f-1f3fd.svg"
   xml:space="preserve"
   inkscape:version="1.3.2 (091e20e, 2023-11-25, custom)"
   xmlns:inkscape="http://www.inkscape.org/namespaces/inkscape"
   xmlns:sodipodi="http://sodipodi.sourceforge.net/DTD/sodipodi-0.dtd"
   xmlns="http://www.w3.org/2000/svg"
   xmlns:svg="http://www.w3.org/2000/svg"
   xmlns:rdf="http://www.w3.org/1999/02/22-rdf-syntax-ns#"
   xmlns:cc="http://creativecommons.org/ns#"
   xmlns:dc="http://purl.org/dc/elements/1.1/"><defs
     id="defs11" /><sodipodi:namedview
     id="namedview11"
     pagecolor="#ffffff"
     bordercolor="#000000"
     borderopacity="0.25"
     inkscape:showpageshadow="2"
     inkscape:pageopacity="0.0"
     inkscape:pagecheckerboard="0"
     inkscape:deskcolor="#d1d1d1"
     inkscape:zoom="8.518427"
     inkscape:cx="26.824201"
     inkscape:cy="31.872082"
     inkscape:window-width="1920"
     inkscape:window-height="991"
     inkscape:window-x="-9"
     inkscape:window-y="-9"
     inkscape:window-maximized="1"
     inkscape:current-layer="svg11" /><title
     id="title1">love-you gesture: medium skin tone</title><path
     fill="#ffdd67"
     d="m 11.19961,47.3 c 0.4,2.3 2.7,3.8 5.1,3.4 2.4,-0.4 4,-2.6 3.5,-4.9 l -6,-32.7 c -0.4,-2.3 -2.7,-3.8 -5.0999999,-3.4 -2.4,0.4 -4,2.6 -3.5,4.9 L 11.19961,47.3"
     id="path1"
     style="fill:#d6a57c;fill-opacity:1" /><path
     fill="#eba352"
     d="m 14.09961,50.1 c 2.4,-0.4 4,-2.6 3.6,-4.9 l -6,-32.7 c -0.2,-1.2 -1,-2.3 -1.9999999,-2.9 1.9999999,0.1 3.7999999,1.5 4.1999999,3.5 l 6,32.7 c 0.4,2.3 -1.1,4.5 -3.5,4.9 -1.1,0.2 -2.1,0 -3,-0.5 0.1,0 0.4,0 0.7,-0.1"
     id="path2"
     style="fill:#b58360;fill-opacity:1" /><g
     fill="#ffdd67"
     id="g4"
     transform="translate(-6.9003896)"><path
       d="m 48.227832,34.117911 c 0,0 -23.911786,2.021255 -26.292613,-4.749947 l -6.314368,4.547822 c 0,0 -1.96677,11.116899 1.138657,18.59554 3.312455,7.983954 14.181448,7.579703 14.181448,7.579703 11.179536,2.22338 15.734162,0.505314 20.392302,-10.005208 1.656228,-3.739321 -3.105426,-15.96791 -3.105426,-15.96791"
       id="path3"
       style="stroke-width:1.02281;fill:#d6a57c;fill-opacity:1" /><path
       d="m 39.5,39.2 c -0.1,2.3 1.7,4.3 4.1,4.4 2.4,0.1 4.5,-1.7 4.6,-4 L 50,6.4 C 50.1,4.1 48.3,2.1 45.9,2 43.5,1.9 41.4,3.7 41.3,6 l -1.8,33.2"
       id="path4"
       style="fill:#d6a57c;fill-opacity:1" /></g><path
     fill="#eba352"
     d="m 34.89961,42.6 c 2.4,0.1 4.5,-1.7 4.6,-4 l 1.6,-33.3 c 0.1,-1.3 -0.5,-2.4 -1.3,-3.2 2,0.5 3.4,2.3 3.3,4.3 l -1.7,33.2 c -0.1,2.3 -2.2,4.1 -4.6,4 -1.1,-0.1 -2.1,-0.5 -2.8,-1.2 0.3,0.1 0.6,0.1 0.9,0.2"
     id="path5"
     style="fill:#b58360;fill-opacity:1" /><g
     fill="#ffdd67"
     id="g6"
     transform="translate(-6.9003896)"
     style="fill:#d6a57c;fill-opacity:1"><path
       d="m 22.7,26.6 c 0,-2.4 1.95964,-4.831711 4.3,-4.3 l 1.096109,0.249027 C 30.436469,23.080738 31.4,24.2 31.4,26.6 v 6.7 c 0,2.4 -1.9,4.3 -4.3,4.3 H 27 c -2.4,0 -4.3,-1.9 -4.3,-4.3 v -6.7 m 8.8,-0.5 c 0,-2.4 1.9,-4.3 4.3,-4.3 h 0.1 c 2.4,0 4.3,1.9 4.3,4.3 v 6.7 c 0,2.4 -1.9,4.3 -4.3,4.3 h -0.1 c -2.4,0 -4.3,-1.9 -4.3,-4.3 v -6.7"
       id="path6"
       sodipodi:nodetypes="csssssssccsssssssc"
       style="fill:#d6a57c;fill-opacity:1" /></g><g
     fill="#eba352"
     id="g8"
     transform="matrix(0.98768009,0,0,1.0080591,-6.6145677,-0.43277549)"
     style="fill:#b58360;fill-opacity:1"><path
       d="m 25.8,36 c 2.5,0 4.4,-1.9 4.4,-4.2 v -6.7 c 0,-0.6 -0.1,-1.2 -0.4,-1.8 1,0.8 1.7,2 1.7,3.4 v 6.7 c 0,2.4 -1.9,4.2 -4.3,4.2 h -0.1 c -1.8,0 -3.3,-1 -3.9,-2.5 0.7,0.5 1.6,0.9 2.6,0.9 m 8.8,-0.5 c 2.5,0 4.4,-1.9 4.4,-4.2 v -6.7 c 0,-0.6 -0.1,-1.2 -0.4,-1.8 1,0.8 1.7,2 1.7,3.4 v 6.7 c 0,2.4 -1.9,4.2 -4.3,4.2 h -0.1 c -1.8,0 -3.3,-1 -3.9,-2.5 0.7,0.6 1.6,0.9 2.6,0.9 m 8.9,6.2 c -5.9,-2.1 -16.3,1.8 -14.9,12 0,-9.6 8.9,-11.9 13.9,-11.9 0.6,0 1,-0.1 1,-0.1"
       id="path7"
       style="fill:#b58360;fill-opacity:1" /></g><g
     fill="#eba352"
     id="g11"
     transform="translate(-6.9003896)"
     style="fill:#b58360;fill-opacity:1"><path
       d="m 41.4,46.3 c 0.2,0.5 0.1,1.3 -0.2,2.1 0.6,-1.3 1,-2.7 0.7,-3.4 -1,-2 -1.7,-2.5 -3,-4.3 -1.2,-1.7 -2.1,2.2 -7.5,-1.2 -2,-1.3 -2.5,-3.3 -2.1,-5 -1,1.7 -0.9,4.6 1.6,6.2 5.4,3.4 6.3,-0.5 7.5,1.2 1.4,1.9 2,2.4 3,4.4"
       id="path10"
       style="fill:#b58360;fill-opacity:1" /><path
       d="m 46.6,34.9 c 6.9,5.3 3.9,15.7 0.6,20.1 -5.2,6.9 -10,5.9 -16.7,4.5 0,0 -8.8,1 -13.6,-6.8 3,8.2 13.6,7.8 13.6,7.8 7.2,2.2 12.2,2.7 17.7,-4.4 3.4,-4.5 7.2,-16.9 -1.6,-21.2"
       id="path11"
       style="fill:#b58360;fill-opacity:1" /></g><ellipse
     style="fill:#d6a57c;fill-opacity:1;fill-rule:evenodd;stroke-width:3.99586"
     id="path12"
     cx="38.806747"
     cy="40.923477"
     rx="4.4409857"
     ry="4.7315173" /><path
     style="fill:#d6a57c;fill-opacity:1;fill-rule:evenodd;stroke-width:3.22"
     d="m 21.084306,37.603113 c 0.479317,0.101697 0.70419,-0.06156 1.079118,-0.249027 0.07967,-0.03984 0.252319,0.02657 0.332036,0 0.11773,-0.03924 0.118522,-0.201531 0.166019,-0.249028 0.03913,-0.03913 0.126887,0.03913 0.166018,0 0.114085,-0.114085 0.152223,-0.285973 0.249027,-0.415045 0.06758,-0.09011 0.201277,-0.118267 0.249027,-0.166018 0.01295,-0.01295 0.153073,-0.236082 0.166018,-0.249027 0.05548,-0.05548 0.327279,-0.03913 0.415046,-0.08301 0.02475,-0.01237 -0.01957,-0.06344 0,-0.08301 0.152619,-0.152619 1.438435,0.373425 1.577172,0.415046 0.05301,0.0159 0.116521,-0.02475 0.166018,0 0.07,0.035 0.100901,0.122606 0.166019,0.166018 0.09187,0.06125 0.307555,0.112273 0.415045,0.166018 0.0495,0.02475 0.116521,-0.02475 0.166018,0 0.197773,0.09889 0.366166,0.260404 0.581064,0.332036 0.136038,0.04535 0.380662,0.02431 0.498054,0.08301 0.345464,0.172731 -0.08874,-0.0057 0.08301,0.166018 0.323963,0.323962 0.04458,-0.01922 0.249028,0.08301 0.08923,0.04462 0.159795,0.121402 0.249027,0.166018 0.07834,0.205844 0.223805,0.04693 0.332036,0.08301 0.09464,0.03155 0.154382,0.13447 0.249027,0.166018 0.0525,0.0175 0.116521,-0.02475 0.166018,0 0.02475,0.01237 -0.02302,0.06766 0,0.08301 0.0728,0.04854 0.170766,0.04388 0.249028,0.08301 0.07,0.035 0.09602,0.131019 0.166018,0.166018 0.275782,0.137891 0.558484,0.279242 0.830091,0.415046 0.0463,0.02315 0.309576,0.226568 0.332036,0.249027 0.01957,0.01957 -0.01957,0.06344 0,0.08301 0.03913,0.03913 0.116521,-0.02475 0.166018,0 0.180836,-0.03103 0.02767,0.138349 0.08301,0.166018 0.156524,0.07826 0.328281,0.123575 0.498055,0.166019 0.2938,0.07345 1.287548,0.17955 1.577172,0.08301 0.454653,-0.151551 1.504607,-0.689912 1.909209,-0.08301 0.132024,0.198035 -0.226184,0.362119 -0.332036,0.415045 -0.310914,0.155457 -0.197113,0.280122 -0.249028,0.332036 -0.0045,0.0045 -0.244529,0.16152 -0.249027,0.166018 -0.171749,0.171749 0.262455,-0.0067 -0.08301,0.166019 -0.09657,0.04829 -0.343179,-0.07187 -0.415045,0 -0.01957,0.01957 0.01957,0.06344 0,0.08301 -0.01205,0.01205 -0.31034,0.08301 -0.332037,0.08301 -0.04632,0 -0.211879,-0.02477 -0.249027,0 -0.225731,0.150487 -0.258575,0.295305 -0.498054,0.415045 -0.09296,0.04648 -0.24428,0.03913 -0.332037,0.08301 -0.02475,0.01237 0.01957,0.06344 0,0.08301 -0.02764,0.02764 -0.61441,0.07059 -0.664072,0.08301 -0.144557,0.03614 -0.271773,0.125083 -0.415046,0.166018 -0.05321,0.0152 -0.113518,-0.0175 -0.166018,0 -0.05066,0.01689 -0.19837,0.149133 -0.249027,0.166019 -0.326345,0.108781 -1.044825,-0.14166 -1.328145,0 -0.07,0.035 -0.09602,0.131018 -0.166018,0.166018 -0.08816,0.04408 -0.258041,0.009 -0.332037,0.08301 -0.01956,0.01957 0.02475,0.07063 0,0.08301 -0.0495,0.02475 -0.116521,-0.02475 -0.166018,0 -0.02475,0.01237 0.02302,0.06766 0,0.08301 -0.10296,0.06864 -0.221357,0.110679 -0.332036,0.166018 -0.102041,0.05102 -0.229996,0.03199 -0.332037,0.08301 -0.06761,0.0338 -0.177762,0.150182 -0.249027,0.166018 -0.217768,0.04839 -0.448853,0.02431 -0.664072,0.08301 -0.09625,0.02625 -0.155615,0.130988 -0.249028,0.166018 -0.132105,0.04954 -0.281197,0.03839 -0.415045,0.08301 -0.176089,0.0587 -0.324259,0.183854 -0.498055,0.249027 -0.679002,0.254626 -1.095783,0.415045 -1.826199,0.415045 -0.09203,0 -0.252447,0.0398 -0.332037,0 -0.07,-0.035 -0.09602,-0.131018 -0.166018,-0.166018 -0.0495,-0.02475 -0.116521,0.02475 -0.166018,0 -0.123743,-0.06187 -0.225754,-0.160458 -0.332036,-0.249027 -0.150306,-0.125255 -0.247273,-0.314382 -0.415046,-0.415045 -0.07503,-0.04502 -0.187156,-0.02114 -0.249027,-0.08301 -0.06187,-0.06187 -0.0396,-0.173057 -0.08301,-0.249028 -0.182133,-0.318733 -0.460277,-0.607406 -0.664073,-0.9131 -0.185405,-0.278108 -0.219543,-0.603743 -0.332036,-0.913099 -0.09305,-0.255878 -0.206156,-0.323836 -0.249027,-0.581064 -0.02307,-0.138398 -0.05324,-1.61896 0,-1.743191 0.07312,-0.170606 0.166018,-0.332036 0.249027,-0.498054 z"
     id="path13" /><path
     style="fill:#d6a57c;fill-opacity:1;fill-rule:evenodd;stroke-width:3.22"
     d="m 22.910506,37.022049 c -0.126867,0.238614 -0.564644,-0.0082 -0.747082,0.08301 -0.175324,0.08766 -0.252393,0.04319 -0.332036,0.08301 -0.07,0.035 -0.09602,0.131019 -0.166018,0.166019 -0.482283,0.241141 0.247435,-0.247833 -0.415046,0.249027 -0.04427,0.0332 -0.116521,-0.02475 -0.166018,0 -0.06528,0.03264 -0.293873,0.127854 -0.332036,0.166018 -0.110052,0.110052 0.09865,0.1989 0.249027,0.249027 0.210028,0.07001 1.403299,0.66931 1.660182,0.498055 0.421468,-0.280979 0.581063,-0.513949 0.581063,-0.996109 0,-0.05534 0.0307,-0.119973 0,-0.166018 -0.08682,-0.130236 -0.221357,-0.221358 -0.332036,-0.332037 z"
     id="path14" /><path
     style="fill:#d6a57c;fill-opacity:1;fill-rule:evenodd;stroke-width:3.22"
     d="m 33.36965,48.809339 c -0.691852,-0.582357 -0.984416,-1.406941 -1.245136,-2.241246 -0.192377,-0.615604 -0.256038,-1.052192 -0.332037,-1.660181 -0.05747,-0.459728 -0.337021,-0.86 -0.415045,-1.328145 -0.04112,-0.246705 0.125506,-0.334021 0.249027,-0.581064 0.03764,-0.07529 0.01448,-0.425658 0,-0.498054 -0.01716,-0.0858 -0.04388,-0.170766 -0.08301,-0.249028 -0.0175,-0.035 -0.08301,-0.04388 -0.08301,-0.08301 0,-0.147304 0.725283,-0.08301 0.830091,-0.08301 0.368114,0 1.210086,0.09469 1.494163,0 0.03712,-0.01237 0.04589,-0.07063 0.08301,-0.08301 0.144705,-0.04824 1.463581,-0.222814 1.577173,-0.166018 0.253141,0.126571 -0.151819,0.06581 0.249027,0.166018 0.135752,0.03394 0.175958,-0.06313 0.249027,0.08301 0.01237,0.02475 -0.01957,0.06344 0,0.08301 0.01957,0.01957 0.06641,-0.02214 0.08301,0 0.606441,0.808587 0.498055,2.346161 0.498055,3.320363 0,0.221358 0.04341,0.447014 0,0.664073 -0.09475,0.47375 -0.225605,0.55408 -0.415046,0.996109 -0.0109,0.02543 0.01957,0.06344 0,0.08301 -0.04375,0.04375 -0.122268,0.03926 -0.166018,0.08301 -0.12528,0.12528 -0.173568,0.335812 -0.332036,0.415045 -0.801693,0.400847 0.154804,-0.10694 -0.415045,0.08301 -0.09099,0.03033 -0.333164,0.187615 -0.415046,0.249027 -0.578365,0.433774 -0.589895,0.747082 -1.411154,0.747081 z"
     id="path15" /><g
     id="g15"
     transform="translate(0.79291316,-0.01167092)"
     style="fill:#b58360;fill-opacity:1"><path
       fill="#ffdd67"
       d="m 57.617278,29.065555 c -1.597438,-3.122553 -6.589432,-2.921098 -11.681266,2.719643 -3.594236,3.928373 -4.293115,5.237831 -7.88735,5.137104 l 0.166018,-3.216729 c 0,0 1.720407,5.3303 1.720407,7.848488 0,0 -2.410698,-3.760879 0.684338,3.290047 4.592635,10.475662 -5.800446,19.392102 3.284983,2.369151 5.291514,-10.072752 15.410148,-14.823696 13.71287,-18.147704"
       id="path7-9"
       style="stroke-width:1.00283;fill:#d6a57c;fill-opacity:1"
       sodipodi:nodetypes="cccccccc" /><path
       d="m 56.581337,27.900568 c 0.100172,0.1 0.199219,0.200391 0.199219,0.400391 1.702924,3.399996 -3.405527,6.900003 -7.011719,10.5 -2.904988,2.899997 -5.710873,5.898441 -7.113281,9.398437 l 1.001953,1 c 1.50258,-3.499996 4.108121,-6.39844 7.113281,-9.398437 3.606192,-3.699996 8.714643,-7.200003 7.011719,-10.5 -0.300516,-0.6 -0.700312,-1.000391 -1.201172,-1.400391 z"
       style="fill:#b58360;fill-opacity:1"
       id="path17" /></g><metadata
     id="metadata17"><rdf:RDF><cc:Work
         rdf:about=""><dc:title>love-you gesture: medium skin tone</dc:title></cc:Work></rdf:RDF></metadata></svg>
