<?xml version="1.0" encoding="UTF-8" standalone="no"?>
<svg
   viewBox="0 0 64 64"
   version="1.1"
   id="svg8"
   sodipodi:docname="1f91f-1f3ff.svg"
   xml:space="preserve"
   inkscape:version="1.3.2 (091e20e, 2023-11-25, custom)"
   xmlns:inkscape="http://www.inkscape.org/namespaces/inkscape"
   xmlns:sodipodi="http://sodipodi.sourceforge.net/DTD/sodipodi-0.dtd"
   xmlns="http://www.w3.org/2000/svg"
   xmlns:svg="http://www.w3.org/2000/svg"
   xmlns:rdf="http://www.w3.org/1999/02/22-rdf-syntax-ns#"
   xmlns:cc="http://creativecommons.org/ns#"
   xmlns:dc="http://purl.org/dc/elements/1.1/"><defs
     id="defs8" /><sodipodi:namedview
     id="namedview8"
     pagecolor="#ffffff"
     bordercolor="#000000"
     borderopacity="0.25"
     inkscape:showpageshadow="2"
     inkscape:pageopacity="0.0"
     inkscape:pagecheckerboard="0"
     inkscape:deskcolor="#d1d1d1"
     inkscape:zoom="11.313709"
     inkscape:cx="30.096232"
     inkscape:cy="32.924659"
     inkscape:window-width="1920"
     inkscape:window-height="991"
     inkscape:window-x="-9"
     inkscape:window-y="-9"
     inkscape:window-maximized="1"
     inkscape:current-layer="svg8" /><title
     id="title1">love-you gesture: dark skin tone</title><g
     fill="#ffdd67"
     id="g1"
     style="fill:#8a6859;fill-opacity:1"><path
       d="M10.3 9.9c-2.2 0-3.9 1.8-3.9 4v29.4h7.8V13.9c0-2.2-1.7-4-3.9-4M31.3 43.3h8.3V9.8c0-2.2-1.9-4.1-4.1-4.1-2.3 0-4.1 1.9-4.1 4.2-.1 0-.1 33.4-.1 33.4"
       id="path1"
       style="fill:#8a6859;fill-opacity:1" /></g><path
     fill="#eba352"
     d="M35.5 5.7c-.3 0-.5 0-.7.1 1.9.3 3.4 2 3.4 4v33.5h1.5V9.8c-.1-2.3-2-4.1-4.2-4.1"
     id="path2"
     style="fill:#705041;fill-opacity:1" /><g
     fill="#eba352"
     id="g6"
     style="fill:#705041;fill-opacity:1"><path
       d="M 10.286611,9.9 C 9.9923494,9.9 9.7961747,9.9 9.6,10 c 1.765572,0.4 3.138795,2 3.138795,3.9 v 17.5 l 1.47131,2.1 V 13.9 c -0.09809,-2.2 -1.765572,-4 -3.923494,-4"
       id="path6"
       style="stroke-width:0.990391;fill:#705041;fill-opacity:1"
       sodipodi:nodetypes="ccscccc" /></g><path
     fill="#ffdd67"
     d="M57.7 29.3c-1.6-3.1-6.6-2.9-11.7 2.7-3.6 3.9-4.3 5.2-7.9 5.1V33s-31.7.1-31.7 2.6c0 0-1.5 11.1 1.6 18.1 4.6 10.4 26.2 12 35.3-4.9 5.3-10 16.1-16.2 14.4-19.5"
     id="path7"
     style="fill:#8a6859;fill-opacity:1" /><g
     fill="#eba352"
     id="g8"
     style="display:inline;fill:#705041;fill-opacity:1"><path
       d="m 57.7,29.3 c -0.3,-0.6 -0.7,-1 -1.2,-1.4 0.1,0.1 0.2,0.2 0.2,0.4 1.7,3.4 -3.4,6.9 -7,10.5 -2.9,2.9 -5.7,5.9 -7.1,9.4 -6.4,15.3 -25,15.3 -32.8,8.3 7.1,8 27,8.7 33.8,-7.3 1.5,-3.5 4.1,-6.4 7.1,-9.4 3.6,-3.7 8.7,-7.2 7,-10.5 M 39.1,37.1 C 33.2,35 21,39.1 22.6,50.8 c 0,-10.9 9.9,-13.6 15.3,-13.6 0.7,-0.1 1.2,-0.1 1.2,-0.1"
       id="path8"
       style="fill:#705041;fill-opacity:1" /></g><path
     fill="#ffdd67"
     d="m 17.2,10 c 0,-4 3,-7.2 6.8,-7.2 h 0.1 c 3.8,0 6.8,3.2 6.8,7.2 v 11.1 c 0,4 -3,7.2 -6.8,7.2 H 24 c -3.8,0 -6.8,-3.2 -6.8,-7.2 V 10"
     id="path4-1"
     style="display:inline;fill:#8a6859;fill-opacity:1"
     transform="matrix(0.62799299,0,0,0.67061161,3.7231658,20.093742)" /><path
     fill="#eba352"
     d="m 22,25.6 c 3.8,0 6.8,-3.1 6.8,-7.1 V 7.4 c 0,-1.1 -0.3,-2.2 -0.7,-3.2 2,1.6 2.7,3.5 2.7,5.9 v 11.1 c 0,4 -3,7 -6.7,7 H 24 c -2.7,0 -5.1,-1.7 -6.2,-4.2 1.2,1 2.7,1.6 4.2,1.6"
     id="path5-2"
     style="display:inline;fill:#705041;fill-opacity:1"
     transform="matrix(0.62799299,0,0,0.67061161,3.7231658,20.093742)" /><path
     fill="#ffdd67"
     d="m 30.9,9.2 c 0,-4 3,-7.2 6.8,-7.2 h 0.1 c 3.7,0 6.8,3.2 6.8,7.2 v 11.1 c 0,4 -3,7.2 -6.8,7.2 h -0.1 c -3.8,0 -6.8,-3.2 -6.8,-7.2 V 9.2"
     id="path6-0"
     style="display:inline;fill:#8a6859;fill-opacity:1"
     transform="matrix(0.62799299,0,0,0.67061161,3.7231658,20.093742)" /><path
     fill="#eba352"
     d="m 35.7,24.8 c 3.8,0 6.8,-3.1 6.8,-7.1 V 6.6 c 0,-1.1 -0.2,-2.2 -0.6,-3.1 2,1.5 2.7,3.5 2.7,5.8 v 11.1 c 0,4 -3,7 -6.8,7 h -0.1 c -2.7,0 -5.1,-1.7 -6.2,-4.2 1.2,1 2.6,1.6 4.2,1.6"
     id="path7-0"
     style="display:inline;fill:#705041;fill-opacity:1"
     transform="matrix(0.62799299,0,0,0.67061161,3.7231658,20.093742)" /><metadata
     id="metadata9"><rdf:RDF><cc:Work
         rdf:about=""><dc:title>love-you gesture: dark skin tone</dc:title></cc:Work></rdf:RDF></metadata></svg>
