<?xml version="1.0" encoding="UTF-8" standalone="no"?>
<svg
   viewBox="0 0 64 64"
   version="1.1"
   id="svg4"
   sodipodi:docname="1f92f.svg"
   xml:space="preserve"
   inkscape:version="1.3.2 (091e20e, 2023-11-25, custom)"
   xmlns:inkscape="http://www.inkscape.org/namespaces/inkscape"
   xmlns:sodipodi="http://sodipodi.sourceforge.net/DTD/sodipodi-0.dtd"
   xmlns="http://www.w3.org/2000/svg"
   xmlns:svg="http://www.w3.org/2000/svg"
   xmlns:rdf="http://www.w3.org/1999/02/22-rdf-syntax-ns#"
   xmlns:cc="http://creativecommons.org/ns#"
   xmlns:dc="http://purl.org/dc/elements/1.1/"><defs
     id="defs4" /><sodipodi:namedview
     id="namedview4"
     pagecolor="#ffffff"
     bordercolor="#000000"
     borderopacity="0.25"
     inkscape:showpageshadow="2"
     inkscape:pageopacity="0.0"
     inkscape:pagecheckerboard="0"
     inkscape:deskcolor="#d1d1d1"
     inkscape:zoom="11.313709"
     inkscape:cx="33.45499"
     inkscape:cy="31.068504"
     inkscape:window-width="1920"
     inkscape:window-height="991"
     inkscape:window-x="-9"
     inkscape:window-y="-9"
     inkscape:window-maximized="1"
     inkscape:current-layer="svg4" /><title
     id="title1">exploding head</title><path
     style="fill:#ff0000;fill-opacity:1;fill-rule:evenodd;stroke-width:3.34662"
     d="m 21.606903,10.710598 c 1.62199,4.62003 3.136273,9.240059 -0.356578,13.860089 h 20.503242 c -2.334259,-4.493655 -1.82399,-9.342541 -0.624012,-14.277561 z"
     id="path5"
     sodipodi:nodetypes="ccccc" /><path
     style="fill:#ff8232;fill-opacity:1;fill-rule:evenodd;stroke-width:3.71158"
     d="m 23.076524,12.534372 c 1.449181,4.368955 1.247964,8.450412 0.108066,12.368352 l 16.534469,-0.08472 C 38.568535,20.491662 38.81665,16.408962 40.259402,12.534367 Z"
     id="path6"
     sodipodi:nodetypes="ccccc" /><path
     style="fill:#ffff00;fill-opacity:1;fill-rule:evenodd;stroke-width:2.8175"
     d="m 25.068742,14.194553 1.143969,8.383917 2.923476,-0.08301 -1.525292,-8.466926 z"
     id="path7" /><path
     style="fill:#ffff00;fill-opacity:1;fill-rule:evenodd;stroke-width:3.22"
     d="m 30.381323,23.076524 -1.909209,-9.130999 5.312581,0.249028 -0.498054,9.712062 -2.407264,-0.747082 z"
     id="path8" /><path
     style="fill:#ffff00;fill-opacity:1;fill-rule:evenodd;stroke-width:3.22"
     d="m 35.029831,14.028534 -0.83009,9.96109 1.826199,-0.166018 0.08301,-10.791181 z"
     id="path9" /><g
     id="g5"
     transform="matrix(0.92252486,0,0,0.38163505,2.0641589,-4.0721752)"
     style="display:inline"><path
       fill="#ffffff"
       d="M 14,51 C 12.9,51 11.9,50.8 10.9,50.5 6.8,49.1 4,45.3 4,41 4,38.1 5.2,35.4 7.4,33.5 8,33 8.6,32.6 9.3,32.2 L 10,29.9 c 1.7,-5.8 7,-9.8 13,-9.8 0.6,0 1.2,0 1.9,0.2 0.6,0.1 1.1,0.2 1.6,0.3 l 0.3,-0.5 c 2.4,-4.4 7,-7.1 12,-7.1 7.6,0 13.7,6.2 13.7,13.7 0,0.4 0,0.7 -0.1,1.1 v 0.3 c 0.6,0.2 1.2,0.5 1.7,0.8 3.7,2.1 5.9,6 5.9,10.3 0,5.5 -3.8,10.3 -9.2,11.5 -0.9,0.2 -1.815759,0.622341 -2.6,0.3 C 36.195337,46.065811 25.032352,47.999914 14,51"
       id="path1"
       style="fill:#ffffff;fill-opacity:1"
       sodipodi:nodetypes="ccscccscccsscccsssc" /><path
       fill="#75d6ff"
       d="m 38.7,15 c 6.5,0 11.7,5.3 11.7,11.7 v 0.9 c -2.7,0.2 -5.2,1.3 -7.1,3 1.4,-0.8 3.1,-1.3 4.9,-1.3 0.7,0 1.3,0.1 1.9,0.2 1.1,0.2 2.1,0.6 3,1.1 2.9,1.7 4.9,4.9 4.9,8.5 0,4.7 -3.3,8.6 -7.6,9.6 -0.7,0.2 -1.431014,0.750016 -2.2,0.3 C 35.425863,41.524491 24.589937,44.593136 14,49 13.118159,49.366966 12.3,48.9 11.5,48.6 8.3,47.5 6,44.5 6,41 6,38.6 7.1,36.4 8.7,35 9.5,34.3 10.3,33.8 11.3,33.5 12.1,33.2 13,33 13.9,33 c 2.6,0 4.9,1.2 6.3,3.1 h 0.1 C 18.6,33 15.4,30.8 11.7,30.4 13.1,25.6 17.5,22 22.8,22 c 0.6,0 1.1,0.1 1.6,0.1 1.1,0.2 2.1,0.4 3,0.9 3.5,1.6 6.1,4.9 6.7,8.9 v -0.1 c 0,-4.5 -2.3,-8.5 -5.8,-10.8 2.2,-3.6 6,-6 10.4,-6 m 0,-4 c -5.4,0 -10.4,2.8 -13.3,7.3 -0.1,0 -0.2,0 -0.3,-0.1 C 24.3,18.1 23.6,18 22.9,18 16,18 9.9,22.6 8,29.3 L 7.5,30.9 C 7,31.2 6.5,31.6 6.1,32 3.5,34.2 2,37.5 2,41 c 0,5.2 3.3,9.8 8.2,11.4 1.2,0.4 2.513694,0.983921 3.8,0.6 11.308088,-3.375097 22.648834,-5.550963 34.2,0 0.97336,0.467752 2.1,-0.1 3.1,-0.4 6.3,-1.5 10.7,-7 10.7,-13.5 0,-4.9 -2.7,-9.5 -6.9,-12 L 54.5,26.8 V 26.7 C 54.4,18.1 47.4,11 38.7,11 Z"
       id="path2"
       sodipodi:nodetypes="csccsccscsscsscscccscccsccsccscccscsscscccs"
       style="fill:#bababa;fill-opacity:1" /></g><path
     id="circle1"
     style="fill:#ffdd67;stroke-width:0.870715"
     d="m 57.102464,34.858187 c 0,14.531562 -11.610401,26.311722 -25.932555,26.311722 -14.322154,0 -25.9325549,-11.78016 -25.9325549,-26.311722 0,-14.531563 11.4668909,-12.697425 25.7890459,-12.697425 14.322154,0 26.076064,-1.834138 26.076064,12.697425 z"
     sodipodi:nodetypes="sssss" /><g
     fill="#664e27"
     id="g4"
     transform="matrix(0.8644185,0,0,0.87705741,3.5085171,6.7923496)"><circle
       cx="32"
       cy="45.099998"
       r="7"
       id="circle2" /><circle
       cx="20.200001"
       cy="25"
       r="4.5"
       id="circle3" /><circle
       cx="42.700001"
       cy="25"
       r="4.5"
       id="circle4" /></g><metadata
     id="metadata9"><rdf:RDF><cc:Work
         rdf:about=""><dc:title>exploding head</dc:title></cc:Work></rdf:RDF></metadata></svg>
