<?xml version="1.0" encoding="UTF-8" standalone="no"?>
<svg
   viewBox="0 0 64 64"
   version="1.1"
   id="svg7"
   sodipodi:docname="1f92c.svg"
   inkscape:version="1.3.2 (091e20e, 2023-11-25, custom)"
   xmlns:inkscape="http://www.inkscape.org/namespaces/inkscape"
   xmlns:sodipodi="http://sodipodi.sourceforge.net/DTD/sodipodi-0.dtd"
   xmlns="http://www.w3.org/2000/svg"
   xmlns:svg="http://www.w3.org/2000/svg"
   xmlns:rdf="http://www.w3.org/1999/02/22-rdf-syntax-ns#"
   xmlns:cc="http://creativecommons.org/ns#"
   xmlns:dc="http://purl.org/dc/elements/1.1/">
  <defs
     id="defs7" />
  <sodipodi:namedview
     id="namedview7"
     pagecolor="#ffffff"
     bordercolor="#000000"
     borderopacity="0.25"
     inkscape:showpageshadow="2"
     inkscape:pageopacity="0.0"
     inkscape:pagecheckerboard="0"
     inkscape:deskcolor="#d1d1d1"
     inkscape:zoom="12.046875"
     inkscape:cx="32"
     inkscape:cy="32"
     inkscape:window-width="1920"
     inkscape:window-height="991"
     inkscape:window-x="-9"
     inkscape:window-y="-9"
     inkscape:window-maximized="1"
     inkscape:current-layer="svg7" />
  <title
     id="title1">face with symbols over mouth</title>
  <circle
     cx="32"
     cy="32"
     r="30"
     fill="#ef5350"
     id="circle1" />
  <path
     fill="#302424"
     d="M41 49.7c-5.8-4.8-12.2-4.8-18 0-.7.6-1.3-.4-.8-1.3 1.8-3.4 5.3-6.5 9.8-6.5s8.1 3.1 9.8 6.5c.5.8-.1 1.8-.8 1.3"
     id="path1" />
  <path
     fill="#fff"
     d="M10.2 24.9c-1.5 4.7.6 10 5.3 12.1 4.6 2.2 10 .5 12.7-3.7l-6.9-7.7-11.1-.7"
     id="path2" />
  <g
     fill="#302424"
     id="g4">
    <path
       d="M14.2 25.8c-1.4 2.9-.1 6.4 2.8 7.7 2.9 1.4 6.4.1 7.7-2.8 1-1.9-9.6-6.8-10.5-4.9"
       id="path3" />
    <path
       d="M10.2 24.9c1.6-1 3.5-1.5 5.4-1.5 1.9 0 3.8.5 5.6 1.3 1.7.8 3.3 2 4.6 3.4 1.2 1.5 2.2 3.2 2.4 5.1-1.3-1.3-2.6-2.4-4-3.4S21.4 28 20 27.4c-1.5-.7-3-1.2-4.6-1.7-1.8-.3-3.4-.6-5.2-.8"
       id="path4" />
  </g>
  <path
     fill="#fff"
     d="M53.8 24.9c1.5 4.7-.6 10-5.3 12.1-4.6 2.2-10 .5-12.7-3.7l6.9-7.7 11.1-.7"
     id="path5" />
  <g
     fill="#302424"
     id="g7">
    <path
       d="M49.8 25.8c1.4 2.9.1 6.4-2.8 7.7-2.9 1.4-6.4.1-7.7-2.8-1-1.9 9.6-6.8 10.5-4.9"
       id="path6" />
    <path
       d="M53.8 24.9c-1.6-1-3.5-1.5-5.4-1.5-1.9 0-3.8.5-5.6 1.3-1.7.8-3.3 2-4.6 3.4-1.2 1.5-2.2 3.2-2.4 5.1 1.3-1.3 2.6-2.4 4-3.4s2.8-1.8 4.2-2.4c1.5-.7 3-1.2 4.6-1.7 1.8-.3 3.4-.6 5.2-.8"
       id="path7" />
  </g>
  <rect
     style="fill:#000000;fill-rule:evenodd;stroke-width:3.23202"
     id="rect7"
     width="51.997345"
     height="13.559735"
     x="-0.67575574"
     y="43.343971"
     transform="matrix(0.99438154,-0.10585538,0.1468147,0.98916401,0,0)" />
  <path
     id="text7"
     style="font-size:13.3333px;-inkscape-font-specification:sans-serif;text-align:center;text-anchor:middle;fill:#ffffff;fill-rule:evenodd;stroke-width:3.50488"
     d="m 15.630863,47.30144 -0.192404,2.264796 2.059156,-0.242608 0.11454,0.925397 -2.254551,0.265627 -0.258936,2.959286 -1.067153,0.12573 0.258934,-2.959285 -2.149338,0.253231 -0.228874,2.955745 -1.052124,0.123956 0.213845,-2.953974 -1.8938205,0.223128 -0.1145397,-0.925396 2.0892142,-0.246148 0.207434,-2.266568 -2.0140632,0.237294 -0.1128308,-0.911584 2.194427,-0.258544 0.238778,-2.99895 1.082184,-0.127503 -0.238777,2.998953 2.164368,-0.255004 0.238777,-2.998951 1.037094,-0.122189 -0.238777,2.998952 1.908853,-0.224897 0.11283,0.911583 z m -3.408896,2.643759 2.149338,-0.253233 0.192404,-2.264796 -2.149338,0.253231 z m 8.342479,-7.260857 q 1.112244,-0.131042 1.784265,0.616564 0.670309,0.733798 0.851527,2.197855 0.181219,1.464059 -0.272327,2.358294 -0.440226,0.878652 -1.597561,1.015006 -1.067153,0.125731 -1.739173,-0.621878 -0.6587,-0.763191 -0.839918,-2.22725 -0.181218,-1.464057 0.245686,-2.327127 0.425194,-0.876879 1.567501,-1.011464 z m 0.105993,0.856336 q -0.571152,0.0673 -0.771606,0.665455 -0.18713,0.582578 -0.05036,1.687528 0.136768,1.104951 0.462378,1.641134 0.34064,0.534411 0.911794,0.467118 0.586183,-0.06906 0.803376,-0.655185 0.21548,-0.599932 0.07699,-1.718694 -0.136768,-1.10495 -0.490728,-1.623779 -0.355671,-0.53264 -0.941854,-0.463577 z m 6.779963,-1.527497 -4.731352,10.562935 -1.157337,0.136355 4.731355,-10.562934 z m 0.171245,3.847494 q 1.097215,-0.129271 1.769234,0.618336 0.685342,0.732025 0.86656,2.196084 0.181219,1.464059 -0.272327,2.358294 -0.440226,0.878652 -1.597563,1.015006 -1.067152,0.125731 -1.739172,-0.621877 -0.658699,-0.763192 -0.839917,-2.227251 -0.181219,-1.464059 0.245685,-2.327127 0.425195,-0.876881 1.5675,-1.011465 z m 0.107704,0.870148 q -0.571152,0.06728 -0.773314,0.651643 -0.187132,0.582579 -0.05036,1.687529 0.138479,1.118761 0.464088,1.654945 0.338931,0.520599 0.910082,0.453306 0.586186,-0.06906 0.803377,-0.655183 0.217191,-0.586121 0.07699,-1.718696 -0.13677,-1.10495 -0.49073,-1.623777 -0.35396,-0.51883 -0.940145,-0.449767 z m 15.662318,-1.593071 q 0.07865,0.635346 -0.01148,1.262547 -0.07507,0.625433 -0.3442,1.161617 -0.270831,0.522375 -0.714192,0.882906 -0.445068,0.346715 -1.106402,0.424632 -0.691397,0.08146 -1.141665,-0.229838 -0.436949,-0.326876 -0.585258,-0.785855 l -0.07515,0.0088 q -0.207292,0.542914 -0.690613,0.950192 -0.483322,0.407277 -1.279929,0.501131 -1.142305,0.134584 -1.860769,-0.495444 -0.703434,-0.631802 -0.847041,-1.791999 -0.112831,-0.911583 0.192475,-1.648221 0.303597,-0.750447 0.960444,-1.234221 0.671879,-0.485544 1.648851,-0.60065 0.661333,-0.07792 1.306285,-0.04179 0.658272,0.02054 1.034385,0.10234 l 0.196749,2.82152 q 0.01574,0.250384 0.02942,0.360878 0.01199,0.09669 0.01709,0.13812 0.0889,0.718218 0.388509,0.921143 0.31464,0.201156 0.690399,0.156885 0.465941,-0.05489 0.738838,-0.437381 0.286218,-0.398068 0.379747,-0.997645 0.106848,-0.615162 0.01966,-1.319568 -0.158995,-1.284504 -0.839563,-2.10117 -0.667245,-0.832252 -1.717375,-1.184979 -1.035098,-0.354498 -2.282616,-0.207519 -1.27758,0.150524 -2.223421,0.64032 -0.945843,0.489797 -1.538438,1.246269 -0.577564,0.754699 -0.808717,1.720823 -0.232865,0.952315 -0.0961,2.057265 0.167541,1.353562 0.811568,2.244602 0.642313,0.877228 1.710892,1.255808 1.081901,0.362997 2.554871,0.189455 0.91685,-0.108028 1.719586,-0.398786 0.819474,-0.278722 1.438425,-0.575859 l 0.116248,0.939206 q -0.61553,0.324762 -1.408363,0.572318 -0.776094,0.259598 -1.753066,0.374704 -1.773579,0.20896 -3.111348,-0.25001 -1.337772,-0.458971 -2.154325,-1.511857 -0.803232,-1.068468 -1.001547,-2.670645 -0.158993,-1.284504 0.141827,-2.426998 0.299111,-1.156304 1.026623,-2.054789 0.725802,-0.912297 1.843461,-1.492405 1.130979,-0.595687 2.618981,-0.771004 1.172366,-0.138126 2.192079,0.09206 1.033032,0.214609 1.83484,0.778766 0.815129,0.548575 1.318752,1.414116 0.518652,0.863771 0.660551,2.010155 z m -7.480905,1.778241 q 0.109413,0.88396 0.534754,1.240232 0.440365,0.354502 1.08667,0.278357 0.841698,-0.09917 1.130623,-0.721768 0.303956,-0.62437 0.249533,-1.556849 l -0.123516,-1.73711 q -0.202233,-0.03223 -0.50797,-0.03824 -0.305733,-0.006 -0.621371,0.03117 -0.736486,0.08678 -1.146366,0.471381 -0.40988,0.384611 -0.54031,0.932483 -0.132139,0.534062 -0.06203,1.100348 z m 12.681898,1.925082 q -0.828376,0.08359 -1.623631,0.06517 -0.796965,-0.03222 -1.303579,-0.182734 l -0.145318,-1.174007 q 0.538385,0.16078 1.355509,0.232667 0.817123,0.07189 1.585379,-0.0046 l -0.34534,-2.789999 q -1.022774,-0.131737 -1.693371,-0.375034 -0.672303,-0.257108 -1.046066,-0.689524 -0.358734,-0.434188 -0.439086,-1.083346 -0.08377,-0.676782 0.202092,-1.200926 0.300891,-0.525917 0.913002,-0.878302 0.610403,-0.366196 1.477034,-0.51034 l -0.150446,-1.215445 0.961943,-0.113341 0.148736,1.201633 q 0.798316,-0.08004 1.463426,-0.0042 0.67843,0.06021 1.245167,0.203627 l -0.279309,1.069832 q -0.503194,-0.122887 -1.104764,-0.178131 -0.588249,-0.07083 -1.19459,-0.04143 l 0.34363,2.776187 q 1.024485,0.14555 1.72343,0.371492 0.697238,0.212133 1.082612,0.615153 0.398697,0.38744 0.484176,1.078033 0.119681,0.966831 -0.58668,1.666639 -0.708066,0.685995 -2.118852,0.992343 l 0.189767,1.53312 -0.961943,0.113328 z m 0.821755,-1.24591 q 0.876532,-0.187354 1.246448,-0.525212 0.368208,-0.351674 0.310083,-0.821279 -0.04274,-0.345297 -0.220398,-0.548578 -0.179367,-0.217094 -0.57564,-0.338564 -0.381243,-0.123246 -1.061384,-0.197255 z m -1.75349,-6.281562 q -0.537673,0.09138 -0.864565,0.284033 -0.328602,0.17885 -0.479902,0.434902 -0.136271,0.254281 -0.09866,0.558143 0.04445,0.359108 0.212207,0.605596 0.181076,0.230906 0.548997,0.36973 0.366213,0.125014 0.984523,0.192298 z m 7.916506,4.574515 -0.856729,0.100934 -1.252788,-7.04122 1.608247,-0.18948 z m -1.116448,2.191492 q -0.06325,-0.511039 0.181646,-0.750092 0.244902,-0.239053 0.63569,-0.285096 0.37576,-0.04427 0.67195,0.131032 0.311221,0.173532 0.374477,0.68457 0.06154,0.497227 -0.196679,0.751864 -0.243191,0.252866 -0.61895,0.297138 -0.390789,0.04604 -0.688688,-0.143072 -0.297899,-0.189117 -0.359446,-0.686344 z" />
  <metadata
     id="metadata7">
    <rdf:RDF>
      <cc:Work
         rdf:about="">
        <dc:title>face with symbols over mouth</dc:title>
      </cc:Work>
    </rdf:RDF>
  </metadata>
</svg>
