<?xml version="1.0" encoding="UTF-8" standalone="no"?>
<svg
   viewBox="0 0 64 64"
   enable-background="new 0 0 64 64"
   version="1.1"
   id="svg5"
   sodipodi:docname="1f929.svg"
   xml:space="preserve"
   inkscape:version="1.3.2 (091e20e, 2023-11-25, custom)"
   xmlns:inkscape="http://www.inkscape.org/namespaces/inkscape"
   xmlns:sodipodi="http://sodipodi.sourceforge.net/DTD/sodipodi-0.dtd"
   xmlns="http://www.w3.org/2000/svg"
   xmlns:svg="http://www.w3.org/2000/svg"
   xmlns:rdf="http://www.w3.org/1999/02/22-rdf-syntax-ns#"
   xmlns:cc="http://creativecommons.org/ns#"
   xmlns:dc="http://purl.org/dc/elements/1.1/"><defs
     id="defs5" /><sodipodi:namedview
     id="namedview5"
     pagecolor="#ffffff"
     bordercolor="#000000"
     borderopacity="0.25"
     inkscape:showpageshadow="2"
     inkscape:pageopacity="0.0"
     inkscape:pagecheckerboard="0"
     inkscape:deskcolor="#d1d1d1"
     inkscape:zoom="12.046875"
     inkscape:cx="33.162127"
     inkscape:cy="29.011673"
     inkscape:window-width="1920"
     inkscape:window-height="991"
     inkscape:window-x="-9"
     inkscape:window-y="-9"
     inkscape:window-maximized="1"
     inkscape:current-layer="svg5" /><title
     id="title1">star-struck</title><desc
     id="desc1">Unicode 10.0 (2017) U+1F929</desc><path
     d="M62,32c0,16.6-13.4,30-30,30C15.4,62,2,48.6,2,32C2,15.4,15.4,2,32,2C48.6,2,62,15.4,62,32z"
     fill="#ffdd67"
     id="path1" /><g
     fill="#6ADBC6"
     id="stars"
     transform="scale(0.9) translate(3.2,1.2)"
     style="fill:#9a1bf6;fill-opacity:1"><path
       transform="translate(-30,-20)"
       d="m60.6 49.5l-13.9-1.5-9.1 10.6-2.9-13.7-12.9-5.4 12.2-7 1.2-13.9 10.3 9.4 13.6-3.2-5.7 12.7 7.2 12"
       id="path2"
       style="fill:#9a1bf6;fill-opacity:1" /><path
       transform="scale(-1,1) translate(-94,-20)"
       d="m60.6 49.5l-13.9-1.5-9.1 10.6-2.9-13.7-12.9-5.4 12.2-7 1.2-13.9 10.3 9.4 13.6-3.2-5.7 12.7 7.2 12"
       id="path3"
       style="fill:#9a1bf6;fill-opacity:1" /></g><path
     d="m49 38.1c0-.8-.5-1.8-1.8-2.1-3.5-.7-8.6-1.3-15.2-1.3-6.6 0-11.7.7-15.2 1.3-1.4.3-1.8 1.3-1.8 2.1 0 7.3 5.6 14.6 17 14.6 11.4-.1 17-7.4 17-14.6"
     fill="#664e27"
     id="path4" /><path
     d="m44.7 38.3c-2.2-.4-6.8-1-12.7-1-5.9 0-10.5.6-12.7 1-1.3.2-1.4.7-1.3 1.5.1.4.1 1 .3 1.6.1.6.3.9 1.3.8 1.9-.2 23-.2 24.9 0 1 .1 1.1-.2 1.3-.8.1-.6.2-1.1.3-1.6 0-.8-.1-1.3-1.4-1.5"
     fill="#fff"
     id="path5" /><metadata
     id="metadata5"><rdf:RDF><cc:Work
         rdf:about=""><dc:title>star-struck</dc:title></cc:Work></rdf:RDF></metadata></svg>
