<?xml version="1.0" encoding="UTF-8" standalone="no"?>
<svg
   viewBox="0 0 64 64"
   version="1.1"
   id="svg4"
   sodipodi:docname="1f92f.svg"
   xml:space="preserve"
   inkscape:version="1.3.2 (091e20e, 2023-11-25, custom)"
   xmlns:inkscape="http://www.inkscape.org/namespaces/inkscape"
   xmlns:sodipodi="http://sodipodi.sourceforge.net/DTD/sodipodi-0.dtd"
   xmlns="http://www.w3.org/2000/svg"
   xmlns:svg="http://www.w3.org/2000/svg"
   xmlns:rdf="http://www.w3.org/1999/02/22-rdf-syntax-ns#"
   xmlns:cc="http://creativecommons.org/ns#"
   xmlns:dc="http://purl.org/dc/elements/1.1/"><defs
     id="defs4" /><sodipodi:namedview
     id="namedview4"
     pagecolor="#ffffff"
     bordercolor="#000000"
     borderopacity="0.25"
     inkscape:showpageshadow="2"
     inkscape:pageopacity="0.0"
     inkscape:pagecheckerboard="0"
     inkscape:deskcolor="#d1d1d1"
     showguides="false"
     inkscape:zoom="12.046875"
     inkscape:cx="32"
     inkscape:cy="24.446174"
     inkscape:window-width="1920"
     inkscape:window-height="991"
     inkscape:window-x="-9"
     inkscape:window-y="-9"
     inkscape:window-maximized="1"
     inkscape:current-layer="svg4" /><title
     id="title1">exploding head</title><rect
     style="fill:#bababa;fill-opacity:1;fill-rule:evenodd;stroke-width:5.15566"
     id="rect6"
     width="4.150454"
     height="11.70428"
     x="29.468224"
     y="6.3916988" /><path
     d="m 40.350973,20.351914 c 0.309402,-0.271637 -1.085417,-0.588115 -1.284955,-1.763382 -1.018071,-5.99639 -3.080809,-4.834691 -1.315045,-2.12297 0.420611,0.645942 -2.444601,-1.582371 -2.220882,0.305962 -0.5,-3.183998 0.310246,-1.604813 -3.889754,-0.246932 -4.2,1.357883 1.131518,0.638101 -1.268482,2.136453 -2.4,1.404704 2.167964,-0.146909 0.267964,-1.270673 -1.4,-0.842823 -2.492737,-0.966471 -1.988846,-2.469985 -1.194721,0.677624 -2.920253,-1.358912 -2.3,1.545175 l -2.7,3.979998 c -1.1,0.468236 -2,1.498353 -3,3.043529 -0.7,1.07694 1.8,-0.702353 2.8,-1.217412 0.67546,0.173 0.115276,1.680089 1.325214,1.538328 4.486446,-0.52565 1.481557,-1.979889 1.974786,-1.210563 1.959906,3.057009 2.998478,0.794112 5.7,0.983293 2.7,1.545176 4.4,1.123765 5.6,0.374588 1.2,-0.749175 1.7,-0.889646 4.2,-0.09365 2.5,0.796 0.9,-0.327765 0.9,-0.327765 -1,-0.561883 -2.1,-2.66894 -2.8,-3.183998"
     id="path4"
     sodipodi:nodetypes="csscscccccccsscsscc"
     style="fill:#bababa;fill-opacity:1;stroke-width:0.684277" /><path
     style="fill:#ffffff;fill-opacity:1;fill-rule:evenodd;stroke-width:3.22"
     d="m 25.400778,20.75227 c 0.247851,-1.363179 0.04897,-0.46191 0.415046,-1.743191 0.03876,-0.13566 0.01991,-0.288852 0.08301,-0.415045 0.172732,-0.345464 -0.0057,0.08874 0.166018,-0.08301 0.06187,-0.06187 0.02114,-0.187156 0.08301,-0.249028 0.01957,-0.01957 0.06344,0.01957 0.08301,0 0.03913,-0.03913 -0.03913,-0.126887 0,-0.166018 0.03534,-0.03534 0.273756,-0.132466 0.332036,-0.249027 0.04648,-0.09297 0.03913,-0.24428 0.08301,-0.332036 0.01237,-0.02475 0.06344,0.01957 0.08301,0 0.07255,-0.07255 0.04192,-0.332877 0.08301,-0.415046 0.01237,-0.02475 0.06344,0.01957 0.08301,0 0.04307,-0.04307 0.126334,-0.335678 0.166018,-0.415045 0.03411,-0.06821 0.04638,-0.617692 0,-0.664073 -0.0083,-0.0083 -0.185387,-0.06364 -0.08301,-0.166018 0.01957,-0.01957 0.06344,0.01957 0.08301,0 0.03913,-0.03913 -0.03913,-0.126887 0,-0.166018 0.01795,-0.01796 0.305834,-0.0131 0.332036,0 0.367562,0.183781 0.488366,0.478678 0.664073,0.830091 0.06483,0.129658 0.254146,0.09325 0.332036,0.249027 0.02262,0.04524 0.05058,0.144402 0.08301,0.166018 0.0728,0.04854 0.176224,0.03447 0.249027,0.08301 0.02302,0.01535 0,0.05534 0,0.08301 0.05534,0.02767 0.108572,0.06003 0.166019,0.08301 0.08124,0.0325 0.16414,0.06179 0.249027,0.08301 0.05369,0.01342 0.126887,-0.03913 0.166018,0 0.01957,0.01957 -0.01957,0.06344 0,0.08301 0.04564,0.04564 0.543678,0.01246 0.581063,0 0.102993,-0.03433 0.124404,-0.207413 0.166019,-0.249028 0.06917,-0.06917 0.345871,0.06918 0.415045,0 0.01957,-0.01957 -0.01957,-0.06344 0,-0.08301 0.05435,-0.05435 0.19183,-0.05162 0.249027,-0.166018 0.05725,-0.114499 -0.100528,-0.07425 0.08301,-0.166018 0.02475,-0.01237 0.06344,0.01957 0.08301,0 0.0415,-0.04151 0.0415,-0.124514 0.08301,-0.166018 0.01957,-0.01957 0.05534,0 0.08301,0 0.166018,0 0.33286,-0.01652 0.498054,0 0.258782,0.02588 0.345095,0.107026 0.581064,0.166018 0.387938,0.09698 0.920106,0 1.328145,0 0.08301,0 0.190331,0.0587 0.249027,0 0.04375,-0.04375 0.03351,-0.128895 0.08301,-0.166018 0.05201,-0.03901 0.359666,-0.110639 0.415046,-0.166018 0.03913,-0.03913 -0.03913,-0.126888 0,-0.166019 0.07054,-0.07054 0.178483,-0.09547 0.249027,-0.166018 0.0023,-0.0023 0.0906,-0.492991 0.332036,-0.332036 0.549499,0.366332 0.171356,1.255812 0.332036,1.577172 0.0859,0.171792 0.08301,0.288232 0.08301,0.498055 0,0.178647 0.452208,0.377882 0.581063,0.249027 0.04151,-0.0415 0.04151,-0.124513 0.08301,-0.166018 0.01957,-0.01957 0.07064,0.02475 0.08301,0 0.124066,-0.248131 -0.06681,-0.680273 0.166018,-0.9131 0.09783,-0.09783 0.276697,0 0.415046,0 0.05534,0 0.110679,0 0.166018,0 0,-0.02767 -0.02475,-0.07064 0,-0.08301 0.06882,-0.03441 0.606126,-0.02897 0.664073,0 0.146853,0.07343 0.282784,0.273653 0.498054,0.166018 0.146776,-0.07339 0.128092,-0.822935 0.08301,-0.9131 -0.0175,-0.035 -0.07064,-0.04589 -0.08301,-0.08301 -0.02789,-0.08367 -0.02949,-0.195507 -0.08301,-0.249027 -0.01957,-0.01957 -0.06344,0.01957 -0.08301,0 -0.07255,-0.07255 -0.04192,-0.332877 -0.08301,-0.415045 -0.01237,-0.02475 -0.06344,0.01957 -0.08301,0 -0.03913,-0.03913 -0.03913,-0.205149 0,-0.166019 0.04375,0.04375 0.03926,0.122269 0.08301,0.166019 0.04375,0.04375 0.122268,0.03926 0.166018,0.08301 0.171749,0.171748 -0.262455,-0.0067 0.08301,0.166018 0.02475,0.01237 0.06344,-0.01957 0.08301,0 0.01957,0.01957 -0.01237,0.05826 0,0.08301 0.05641,0.112823 0.192616,0.219214 0.249027,0.332036 0.06428,0.128551 -0.04646,0.119558 0.08301,0.249028 0.164409,0.164408 0.112671,0.367674 0.166019,0.581063 0.02514,0.100544 0.118122,0.236245 0.166018,0.332036 0.110161,0.220322 -0.04784,1.408302 0,1.743191 0.01693,0.118494 0.181716,0.599021 0.08301,0.747082 -0.01623,0.200496 -0.249027,0.138348 -0.332036,0.249027 -0.0525,0.07 -0.02114,0.187156 -0.08301,0.249027 -0.03913,0.03913 -0.111753,-0.01085 -0.166018,0 -0.0858,0.01716 -0.168602,0.04854 -0.249027,0.08301 -0.693351,0.297151 -1.3458,0.361287 -2.075227,0.498055 -0.250733,0.04701 -0.49395,0.134376 -0.747082,0.166018 -0.485824,0.06073 -1.010132,0.0066 -1.494163,0.08301 -0.477317,0.07537 -0.932781,0.263697 -1.411154,0.332036 -0.656329,0.09376 -1.33712,0.08413 -1.992218,0.166018 -0.333145,0.04164 -0.659346,0.132342 -0.996109,0.166019 -0.431392,0.04314 -0.894443,0 -1.328145,0 -0.212489,0 -0.465126,0.05684 -0.664073,0 -0.07223,-0.02064 -0.896203,-0.31514 -0.996109,-0.415046 -0.01957,-0.01957 0.01957,-0.06344 0,-0.08301 -0.04734,-0.04734 -0.271174,-0.04243 -0.332036,-0.08301 -0.147417,-0.09828 -0.276697,-0.221357 -0.415046,-0.332036 z"
     id="path8" /><path
     id="circle1"
     d="M 6.1054688 17.193359 A 30 29.584955 0 0 0 2 32 A 30 29.584955 0 0 0 32 61.583984 A 30 29.584955 0 0 0 62 32 A 30 29.584955 0 0 0 57.798828 16.90625 C 57.761703 16.94209 57.722461 16.976015 57.689453 17.015625 C 57.537074 17.19848 57.403178 17.398799 57.275391 17.599609 C 57.232058 17.667704 56.990919 18.214159 56.943359 18.261719 C 56.923789 18.281289 56.874725 18.238699 56.859375 18.261719 C 56.669528 18.546492 56.711981 18.930693 56.611328 19.257812 C 56.574937 19.376083 56.492902 19.47562 56.445312 19.589844 C 56.271576 20.006814 56.316191 20.514251 55.78125 20.335938 C 55.448246 20.224936 55.182638 19.995615 54.867188 19.837891 C 54.842438 19.825521 54.804726 19.857461 54.785156 19.837891 C 54.540186 19.592921 54.348201 19.154841 54.121094 18.927734 C 53.673224 18.479865 53.775351 18.64548 53.373047 18.34375 C 53.341737 18.32027 53.329616 18.270072 53.291016 18.263672 C 53.003724 18.215792 52.035907 18.199072 51.712891 18.263672 C 51.566778 18.292894 51.422808 18.347038 51.298828 18.429688 C 51.275808 18.445037 51.323578 18.497396 51.298828 18.509766 C 51.249331 18.534516 51.185312 18.492266 51.132812 18.509766 C 51.015421 18.548897 50.916644 18.634284 50.800781 18.677734 C 50.693959 18.717794 50.570791 18.708746 50.46875 18.759766 C 50.398754 18.794766 50.370684 18.886951 50.302734 18.925781 C 50.090132 19.047269 49.718093 19.153378 49.472656 19.173828 C 48.985743 19.214408 47.796305 19.254138 47.314453 19.173828 C 47.228145 19.159438 47.147463 19.119467 47.064453 19.091797 L 46.484375 19.009766 C 45.780972 18.939426 44.974342 19.008754 44.326172 18.927734 C 43.883428 18.872391 43.447206 18.712284 42.998047 18.677734 C 42.80493 18.662874 42.609131 18.692594 42.416016 18.677734 C 41.926714 18.640096 41.485977 18.389353 41.005859 18.345703 C 40.40473 18.291053 39.695823 18.299543 39.095703 18.345703 C 38.177544 18.416331 37.268021 18.637547 36.357422 18.761719 C 36.054603 18.803009 35.740378 18.77174 35.443359 18.84375 C 33.856706 19.228394 32.281144 20.137842 30.628906 20.255859 C 30.119024 20.292279 29.567139 20.255859 29.052734 20.255859 C 28.202305 20.255859 27.320552 20.32047 26.478516 20.171875 C 25.679086 20.0308 25.035724 19.577726 24.320312 19.259766 C 24.216062 19.213426 24.094206 19.218151 23.988281 19.175781 C 23.915616 19.146715 23.892266 19.044766 23.822266 19.009766 C 23.482809 18.840037 23.047762 18.714135 22.744141 18.511719 C 22.063666 18.05807 21.341318 17.582526 20.667969 17.101562 C 20.604285 17.056074 20.568323 16.977027 20.501953 16.935547 C 20.344552 16.837172 20.161307 16.783927 20.003906 16.685547 C 19.679163 16.482581 20.008161 16.459848 19.505859 16.271484 C 19.402227 16.232624 19.283829 16.283704 19.173828 16.271484 C 19.131052 16.266734 18.733556 16.15255 18.59375 16.1875 C 17.568943 16.443702 17.01996 17.144127 16.269531 17.847656 C 16.111872 17.995459 15.924295 18.110861 15.771484 18.263672 C 15.259318 18.775839 15.038383 19.474223 14.359375 19.839844 C 14.147938 19.953694 13.487613 19.712088 13.363281 19.673828 C 13.290944 19.651572 12.767424 19.52594 12.617188 19.425781 C 12.113215 19.0898 11.263286 18.225312 10.625 18.097656 C 10.534012 18.079456 9.7868204 18.021776 9.7109375 18.097656 C 9.6913725 18.117226 9.7289445 18.158678 9.7109375 18.179688 C 9.4976508 18.428522 8.9419734 19.06654 8.6328125 19.259766 C 8.6116151 19.273016 8.1885486 19.395577 8.1347656 19.341797 C 8.1152006 19.322227 8.1543306 19.279336 8.1347656 19.259766 C 8.0760695 19.201066 7.9590106 19.296886 7.8847656 19.259766 C 7.8147661 19.224766 7.7887489 19.12875 7.71875 19.09375 C 7.6107569 19.03975 7.5241431 19.170086 7.4707031 19.009766 C 7.4532031 18.957266 7.4954511 18.89325 7.4707031 18.84375 C 7.4357036 18.773755 7.3547894 18.737854 7.3046875 18.677734 C 6.9342447 18.233203 6.5948456 17.560735 6.1054688 17.193359 z "
     style="fill:#ffdd67;fill-opacity:1" /><g
     fill="#664e27"
     id="g4"
     transform="translate(-7.6293946e-7,2.3)"
     style="display:inline"><circle
       cx="32"
       cy="45.099998"
       r="7"
       id="circle2" /><circle
       cx="20.200001"
       cy="25"
       r="4.5"
       id="circle3" /><circle
       cx="42.700001"
       cy="25"
       r="4.5"
       id="circle4" /></g><ellipse
     style="fill:#bababa;fill-opacity:1;fill-rule:evenodd;stroke-width:3.22"
     id="path6"
     cx="31.584955"
     cy="9.8780804"
     rx="5.7691312"
     ry="0.66407263" /><g
     id="g6"
     transform="matrix(0.38296584,0,0,0.20746093,18.915002,-2.2392691)"><path
       fill="#ffffff"
       d="M 14,51 C 12.9,51 11.9,50.8 10.9,50.5 6.8,49.1 4,45.3 4,41 4,38.1 5.2,35.4 7.4,33.5 8,33 8.6,32.6 9.3,32.2 L 10,29.9 c 1.7,-5.8 7,-9.8 13,-9.8 0.6,0 1.2,0 1.9,0.2 0.6,0.1 1.1,0.2 1.6,0.3 l 0.3,-0.5 c 2.4,-4.4 7,-7.1 12,-7.1 7.6,0 13.7,6.2 13.7,13.7 0,0.4 0,0.7 -0.1,1.1 v 0.3 c 0.6,0.2 1.2,0.5 1.7,0.8 3.7,2.1 5.9,6 5.9,10.3 0,5.5 -3.8,10.3 -9.2,11.5 C 49.9,50.9 49,51 48.2,51 H 14"
       id="path1" /><path
       fill="#75d6ff"
       d="m 38.7,15 c 6.5,0 11.7,5.3 11.7,11.7 v 0.9 c -2.7,0.2 -5.2,1.3 -7.1,3 1.4,-0.8 3.1,-1.3 4.9,-1.3 0.7,0 1.3,0.1 1.9,0.2 1.1,0.2 2.1,0.6 3,1.1 2.9,1.7 4.9,4.9 4.9,8.5 0,4.7 -3.3,8.6 -7.6,9.6 C 49.7,48.9 49,49 48.2,49 H 14 C 13.1,49 12.3,48.9 11.5,48.6 8.3,47.5 6,44.5 6,41 6,38.6 7.1,36.4 8.7,35 9.5,34.3 10.3,33.8 11.3,33.5 12.1,33.2 13,33 13.9,33 c 2.6,0 4.9,1.2 6.3,3.1 h 0.1 C 18.6,33 15.4,30.8 11.7,30.4 13.1,25.6 17.5,22 22.8,22 c 0.6,0 1.1,0.1 1.6,0.1 1.1,0.2 2.1,0.4 3,0.9 3.5,1.6 6.1,4.9 6.7,8.9 v -0.1 c 0,-4.5 -2.3,-8.5 -5.8,-10.8 2.2,-3.6 6,-6 10.4,-6 m 0,-4 c -5.4,0 -10.4,2.8 -13.3,7.3 -0.1,0 -0.2,0 -0.3,-0.1 C 24.3,18.1 23.6,18 22.9,18 16,18 9.9,22.6 8,29.3 L 7.5,30.9 C 7,31.2 6.5,31.6 6.1,32 3.5,34.2 2,37.5 2,41 c 0,5.2 3.3,9.8 8.2,11.4 1.2,0.4 2.5,0.6 3.8,0.6 h 34.2 c 1,0 2.1,-0.1 3.1,-0.4 6.3,-1.5 10.7,-7 10.7,-13.5 0,-4.9 -2.7,-9.5 -6.9,-12 L 54.5,26.8 V 26.7 C 54.4,18.1 47.4,11 38.7,11 Z"
       id="path2"
       style="fill:#bababa;fill-opacity:1" /></g><rect
     style="fill:#ffffff;fill-opacity:1;fill-rule:evenodd;stroke-width:3.53063"
     id="rect7"
     width="2.2412453"
     height="8.8819704"
     x="30.464333"
     y="7.3047981" /><ellipse
     style="fill:#ffffff;fill-opacity:1;fill-rule:evenodd;stroke-width:3.22"
     id="path7"
     cx="31.460442"
     cy="9.8365755"
     rx="4.3994813"
     ry="0.37354085" /><metadata
     id="metadata8"><rdf:RDF><cc:Work
         rdf:about=""><dc:title>exploding head</dc:title></cc:Work></rdf:RDF></metadata></svg>
