<svg xmlns="http://www.w3.org/2000/svg" viewBox="0 0 64 64">
	<desc>Sceptic Face: Face with One Eyebrow Raised</desc>
    <circle cx="32" cy="32" r="30" fill="#ffdd67"/>
    <g fill="#664e27">
        <circle cx="20.5" cy="27.6" r="5"/>
        <circle cx="43.5" cy="27.6" r="5"/>
        <path d="M38.9 48H25.1c-1.5 0-1.5-4 0-4h13.7c1.6 0 1.6 4 .1 4"/>
    </g>
    <g fill="#917524" id="eyebrows">
        <path transform="rotate(180 19.5,20.5)" d="M25.6 17.9c-3.2 2.7-7.5 3.9-11.7 3.1-.6-.1-1.1 2-.4 2.2 4.8.9 9.8-.5 13.5-3.6.5-.5-1-2.1-1.4-1.7"/>
        <path d="M52.2 16.7c-3.2-2.7-7.5-3.9-11.7-3.1-.6.1-1.1-2-.4-2.2 4.8-.9 9.8.5 13.5 3.6.6.5-1 2.1-1.4 1.7"/>
    </g>
</svg>
