<?xml version="1.0" encoding="UTF-8" standalone="no"?>
<svg
   viewBox="0 0 64 64"
   version="1.1"
   id="svg4"
   sodipodi:docname="1f92e.svg"
   inkscape:version="1.3.2 (091e20e, 2023-11-25, custom)"
   xmlns:inkscape="http://www.inkscape.org/namespaces/inkscape"
   xmlns:sodipodi="http://sodipodi.sourceforge.net/DTD/sodipodi-0.dtd"
   xmlns="http://www.w3.org/2000/svg"
   xmlns:svg="http://www.w3.org/2000/svg"
   xmlns:rdf="http://www.w3.org/1999/02/22-rdf-syntax-ns#"
   xmlns:cc="http://creativecommons.org/ns#"
   xmlns:dc="http://purl.org/dc/elements/1.1/">
  <defs
     id="defs4" />
  <sodipodi:namedview
     id="namedview4"
     pagecolor="#ffffff"
     bordercolor="#000000"
     borderopacity="0.25"
     inkscape:showpageshadow="2"
     inkscape:pageopacity="0.0"
     inkscape:pagecheckerboard="0"
     inkscape:deskcolor="#d1d1d1"
     inkscape:zoom="12.046875"
     inkscape:cx="32"
     inkscape:cy="32"
     inkscape:window-width="1920"
     inkscape:window-height="991"
     inkscape:window-x="-9"
     inkscape:window-y="-9"
     inkscape:window-maximized="1"
     inkscape:current-layer="svg4" />
  <title
     id="title1">vomiting face</title>
  <circle
     cx="32"
     cy="32"
     r="30"
     fill="#ffdd67"
     id="circle1" />
  <g
     fill="#664e27"
     id="g1">
    <path
       d="m 17.712891,17.945312 c -1.92126,0.02458 -3.808986,0.49883 -5.41211,1.455079 C 11.700782,19.70039 12.000001,20.4 12.5,20.5 c 2.699997,0.4 5.500784,0.900392 8.300781,2.400391 -3.999996,0.699999 -7.200002,2.69883 -9,4.798828 -0.399999,0.499999 0.100001,1.1 0.5,1 4.799995,-1.699999 9.698834,-2.7 15.798828,-2 0.5,0 0.900782,-0.19922 0.800782,-0.699219 -1.149999,-5.24687 -6.277615,-8.117508 -11.1875,-8.054688 z"
       style=""
       id="path7" />
    <path
       d="M 46.287109,17.945312 C 41.377224,17.882492 36.249608,20.75313 35.099609,26 c -0.1,0.499999 0.300782,0.699219 0.800782,0.699219 6.099994,-0.7 10.998833,0.300001 15.798828,2 0.399999,0.1 0.899999,-0.500001 0.5,-1 -1.799998,-2.099998 -5.000004,-4.098829 -9,-4.798828 C 45.999216,21.400392 48.800003,20.9 51.5,20.5 c 0.5,-0.1 0.799218,-0.79961 0.199219,-1.099609 -1.603124,-0.956249 -3.49085,-1.430497 -5.41211,-1.455079 z"
       style=""
       id="path6" />
    <path
       d="m 15.621094,53.99965 c -0.553125,0.0047 -1.020313,-0.0332 -1.320313,-0.408204 C 10.400785,48.591451 15.000017,33.991837 32,33.991837 c 16.999983,0 21.599215,14.599614 17.699219,19.599609 -0.4,0.5 -1.098439,0.400391 -1.898438,0.400391 H 16.199219 c -0.2,0 -0.39375,0.0063 -0.578125,0.0078 z"
       id="path5" />
  </g>
  <path
     fill="#ff717f"
     d="m 11.127043,59.364284 c 24.955033,7.522409 47.456293,0.106786 37.785291,-1.943984 -1.084522,-0.229976 -4.17933,2.649994 -5.83106,-1.154057 -1.528756,-3.520836 0.137269,-11.32664 -2.264522,-15.096689 -3.304594,-5.187164 -12.705101,-6.888355 -18.020942,0.458386 -2.489094,3.440046 -0.832797,9.263221 -2.9336,16.978988"
     id="path3"
     sodipodi:nodetypes="cssssc"
     style="stroke-width:1.56444;fill:#0af500;fill-opacity:1;opacity:1" />
  <ellipse
     style="opacity:1;fill:#069d00;fill-opacity:1;fill-rule:evenodd;stroke-width:3.22"
     id="path8"
     cx="27.226978"
     cy="42.998703"
     rx="1.9092088"
     ry="2.7392995" />
  <ellipse
     style="opacity:1;fill:#069d00;fill-opacity:1;fill-rule:evenodd;stroke-width:3.22"
     id="path9"
     cx="35.237354"
     cy="45.032425"
     rx="1.618677"
     ry="2.3657587" />
  <ellipse
     style="opacity:1;fill:#069d00;fill-opacity:1;fill-rule:evenodd;stroke-width:3.22"
     id="path11"
     cx="35.569389"
     cy="52.58625"
     rx="2.4487679"
     ry="3.1958497" />
  <ellipse
     style="opacity:1;fill:#069d00;fill-opacity:1;fill-rule:evenodd;stroke-width:3.22"
     id="path12"
     cx="31.211414"
     cy="46.443581"
     rx="0.99610895"
     ry="2.2827497" />
  <ellipse
     style="opacity:1;fill:#069d00;fill-opacity:1;fill-rule:evenodd;stroke-width:3.22"
     id="path13"
     cx="26.023346"
     cy="53.997406"
     rx="1.3696498"
     ry="2.3657587" />
  <ellipse
     style="opacity:1;fill:#069d00;fill-opacity:1;fill-rule:evenodd;stroke-width:3.22"
     id="path14"
     cx="30.09079"
     cy="58.562908"
     rx="2.7808042"
     ry="2.4487679" />
  <metadata
     id="metadata14">
    <rdf:RDF>
      <cc:Work
         rdf:about="">
        <dc:title>vomiting face</dc:title>
      </cc:Work>
    </rdf:RDF>
  </metadata>
</svg>
