<svg xmlns="http://www.w3.org/2000/svg" viewBox="0 0 64 64">
	<desc>Shushing Face: Face with Finger over Closed Lips</desc>
	<circle cx="32" cy="32" r="30" fill="#ffdd67"/>
	<g fill="#664e27">
		<circle cx="20" cy="27" r="5"/>
		<circle cx="44" cy="27" r="5"/>
	</g>
	<g fill="#917524">
		<path d="M50.2 17c-3.2-2.7-7.5-3.9-11.7-3.1-.6.1-1.1-2-.4-2.2 4.8-.9 9.8.5 13.5 3.6.6.5-1 2.1-1.4 1.7M25.5 13.8c-4.2-.7-8.5.4-11.7 3.1-.4.4-2-1.2-1.4-1.7 3.7-3.2 8.7-4.5 13.5-3.6.7.1.2 2.3-.4 2.2"/>
	</g>
	<!--circle cx="32" cy="42" r="5" fill="#664e27"/-->
	<path fill="#664e27" d="M41.5 50.4c1.6-1.6-1.8-3-1.8-5.9s3.4-4.2 1.8-5.9c-1.9-2-6-.5-8.6-3.1 0 2.2 1.8 4.5 5.2 4.5 0 0-2.3.9-2.3 4.5s2.3 4.5 2.3 4.5c-3.4 0-5.2 2.3-5.2 4.5 2.6-2.7 6.7-1.2 8.6-3.1"/>
	<g id="hand" transform="translate(-33,0) rotate(-90 50,20)">
		<path fill="#fff" d="M32.6 44c-4.2 1-14.9 2.3-16.8.3-.9-.9-.7-2.2-.4-4.5.3-2.3-1.9-4.7-3.5-4.9-1.9-.2-3 1.2-2.3 3.2C11 42.6 8.2 44 8 47.3c-.1 1.9-.7 5.1 2.2 9.2 3.3 4.6 9 4.7 11 4.6 2.3-.1 3.3-.2 3.8-1.2.6-1.2.3-1.5.6-1.9.5-.9.8-.8 1.1-1.9.3-1.1-.5-1.8-.3-2.3.4-1.2 1.4-1 .4-3.8 3.4-.5 5.6-1 7.6-2.2 3.7-2 .5-4.3-1.8-3.8"/>
		<path fill="#cccfd4" d="M17.5 61.7c-3.4-.6-6.2-2.3-8-4.8-2.8-3.9-2.6-7-2.4-9.1v-.7c.1-1.4.5-2.5 1-3.6.7-1.6 1.3-2.9.5-5.3-.4-1.2-.3-2.4.5-3.2.7-.7 1.7-1.1 2.9-.9h.1c2.1.4 4.5 3.2 4.2 5.9-.3 2.2-.4 3.2.2 3.8.1.1.4.4 1.5.5 3.8.7 11.3-.4 14.4-1.1.5-.1 1.1-.1 1.7 0 1.5.3 2.6 1.2 2.9 2.3.1.7.1 2-2 3.2-2 1.1-4.1 1.7-7 2.1.8 2-1.1 2.7-.7 3.5.5 1.1.4 2-.7 3.1-.8.7.2 1.6-.6 3-.9 1.5-2.4 1.6-4.6 1.7-1.5-.1-2.7-.1-3.9-.4M9.9 37.2c.7 3.3.9 4.5-.3 7.2-1.8 3.6-2.5 13.8 8.2 15.7 6.5 1.2 7.5-.4 7.2-2.1-.2-1.1.7-1.5 1-1.9.7-1.2-.3-1.8-.3-2.3 0-.9.9-.9 1.1-1.8.3-1.6-1.7-2.2 0-2.3 3.3-.2 5.5-.8 7.4-2.1 1.8-1.2.5-3.7-1.9-3.2-5.6 1.2-14 2.6-16.8 0-1.3-1.2-.3-2.6-.4-5.3-.2-3.6-5.9-5-5.2-1.9"/>
	</g>
</svg>
