<?xml version="1.0" encoding="UTF-8" standalone="no"?>
<svg
   viewBox="0 0 64 64"
   version="1.1"
   id="svg5"
   sodipodi:docname="1f92d.svg"
   xml:space="preserve"
   inkscape:version="1.3.2 (091e20e, 2023-11-25, custom)"
   xmlns:inkscape="http://www.inkscape.org/namespaces/inkscape"
   xmlns:sodipodi="http://sodipodi.sourceforge.net/DTD/sodipodi-0.dtd"
   xmlns="http://www.w3.org/2000/svg"
   xmlns:svg="http://www.w3.org/2000/svg"
   xmlns:rdf="http://www.w3.org/1999/02/22-rdf-syntax-ns#"
   xmlns:cc="http://creativecommons.org/ns#"
   xmlns:dc="http://purl.org/dc/elements/1.1/"><defs
     id="defs5" /><sodipodi:namedview
     id="namedview5"
     pagecolor="#ffffff"
     bordercolor="#000000"
     borderopacity="0.25"
     inkscape:showpageshadow="2"
     inkscape:pageopacity="0.0"
     inkscape:pagecheckerboard="0"
     inkscape:deskcolor="#d1d1d1"
     inkscape:zoom="12.046875"
     inkscape:cx="32"
     inkscape:cy="32"
     inkscape:window-width="1920"
     inkscape:window-height="991"
     inkscape:window-x="-9"
     inkscape:window-y="-9"
     inkscape:window-maximized="1"
     inkscape:current-layer="svg5" /><title
     id="title1">face with hand over mouth</title><circle
     cx="32"
     cy="32"
     r="30"
     fill="#ffdd67"
     id="circle1" /><g
     fill="#ff717f"
     id="g3"><circle
       cx="50.8"
       cy="36"
       r="8"
       opacity=".8"
       id="circle2" /><circle
       cx="13.2"
       cy="36"
       r="8"
       opacity=".8"
       id="circle3" /></g><g
     fill="#664e27"
     id="g5"><path
       d="M44.6 40.3c-8.1 5.7-17.1 5.6-25.2 0-1-.7-1.8.5-1.2 1.6 2.5 4 7.4 7.7 13.8 7.7s11.3-3.6 13.8-7.7c.6-1.1-.2-2.3-1.2-1.6"
       id="path3" /><path
       d="M28.5 26.9c-1.9-5.1-4.7-7.7-7.5-7.7s-5.6 2.6-7.5 7.7c-.2.5.8 1.4 1.3.9 1.8-1.9 4-2.7 6.2-2.7s4.4.8 6.2 2.7c.6.5 1.5-.4 1.3-.9"
       id="path4" /><path
       d="M50.4 26.9c-1.9-5.1-4.7-7.7-7.5-7.7s-5.6 2.6-7.5 7.7c-.2.5.8 1.4 1.3.9 1.8-1.9 4-2.7 6.2-2.7s4.4.8 6.2 2.7c.5.5 1.5-.4 1.3-.9"
       id="path5" /></g><g
     id="g6"
     transform="matrix(0.8446601,-0.93580646,0.90504173,0.83683967,-28.957611,19.353133)"><path
       fill="#ffffff"
       d="m 27.2,46.8 c 0,0 1.8,-0.6 1.1,-3 -0.7,-2.5 -6.9,0 -10,-1.2 0,0 2.5,-0.8 1.7,-2.9 -0.8,-1.9 -7.6,-2.6 -14.3,2.6 -6.7,5.2 -2.4,17.2 5.9,18.7 5.8,1 14.6,0.9 15.7,-1.6 0.9,-2 -1.9,-2.7 -1.9,-2.7 0,0 3.5,0 3.5,-2.7 0,-1.6 -1.3,-1.6 -1.3,-1.6 0,0 2.9,-0.4 2.9,-3.1 0.1,-2.3 -3.3,-2.5 -3.3,-2.5"
       id="path3-5"
       style="fill:#ffffff;fill-opacity:1" /><path
       fill="#cccfd4"
       d="m 28.4,46.9 c 2.2,-1.5 0.3,-5.1 -2.4,-4.7 -2.3,0.4 -6.3,0.4 -6.3,0.4 0,0 1.3,-0.5 1,-2.2 -0.3,-1.7 -2.7,-4.2 -12.3,-0.3 -3.6,1.5 -5.9,4.5 -6.3,8.2 -0.4,4 1.4,8.7 4.3,10.8 3.2,2.4 10.7,3.8 17.9,2.4 4.8,-0.9 4.3,-4 2.3,-4.5 3.3,-0.6 3.6,-3.4 2,-4.2 3.7,-1.2 2.7,-5.8 -0.2,-5.9 M 25.8,52 c -1.9,0.2 -7,0.6 -7,0.6 0,0 3.5,0.7 7.2,0.1 3.3,-0.5 3.1,2.8 -1.5,3.4 -2.2,0.3 -5.7,0.4 -5.7,0.4 0,0 3.2,0.5 4.9,0.3 4.4,-0.6 3.9,2.7 -0.2,3.3 -7.3,1 -13.2,0 -16.1,-2.1 -4.1,-3 -6.5,-13 1.5,-16.7 3.6,-1.7 9.5,-3.2 10.4,-1.2 1.2,2.9 -4.2,3.2 -4.2,3.2 0,0 4.4,0.6 10.7,-0.1 1.7,-0.2 3,1.9 0.9,3.1 -1.8,1.1 -7.9,1.5 -7.9,1.5 0,0 3.3,0.1 7.9,-0.3 3.7,-0.3 4,3.9 -0.9,4.5"
       id="path4-2" /></g><metadata
     id="metadata6"><rdf:RDF><cc:Work
         rdf:about=""><dc:title>face with hand over mouth</dc:title></cc:Work></rdf:RDF></metadata></svg>
