<?xml version="1.0" encoding="UTF-8" standalone="no"?>
<svg
   viewBox="0 0 64 64"
   version="1.1"
   id="svg5"
   sodipodi:docname="1f92e.svg"
   inkscape:version="1.3.2 (091e20e, 2023-11-25, custom)"
   xmlns:inkscape="http://www.inkscape.org/namespaces/inkscape"
   xmlns:sodipodi="http://sodipodi.sourceforge.net/DTD/sodipodi-0.dtd"
   xmlns="http://www.w3.org/2000/svg"
   xmlns:svg="http://www.w3.org/2000/svg"
   xmlns:rdf="http://www.w3.org/1999/02/22-rdf-syntax-ns#"
   xmlns:cc="http://creativecommons.org/ns#"
   xmlns:dc="http://purl.org/dc/elements/1.1/">
  <title
     id="title5">face vomiting</title>
  <defs
     id="defs5" />
  <sodipodi:namedview
     id="namedview5"
     pagecolor="#ffffff"
     bordercolor="#000000"
     borderopacity="0.25"
     inkscape:showpageshadow="2"
     inkscape:pageopacity="0.0"
     inkscape:pagecheckerboard="0"
     inkscape:deskcolor="#d1d1d1"
     inkscape:zoom="12.046875"
     inkscape:cx="32"
     inkscape:cy="32"
     inkscape:window-width="1920"
     inkscape:window-height="991"
     inkscape:window-x="-9"
     inkscape:window-y="-9"
     inkscape:window-maximized="1"
     inkscape:current-layer="svg5" />
  <desc
     id="desc1">Puking Face: Face with Open Mouth Vomiting</desc>
  <path
     fill="#699635"
     d="M53 60.1c0 1.1-6.1 1.9-13.7 1.9-7.5 0-13.7-.9-13.7-1.9 0-1.1 6.1-1.9 13.7-1.9S53 59 53 60.1"
     id="path1" />
  <circle
     cx="32"
     cy="32"
     r="30"
     fill="#ffdd67"
     id="circle1" />
  <path
     fill="#699635"
     d="m 46.741451,61.5 h -8.151769 c 0.130045,-2.852231 -2.118549,-6.213787 -6.06439,-9.066018 h 8.151769 c 3.945839,2.852231 6.194433,6.213787 6.06439,9.066018"
     id="path2"
     style="stroke-width:1.26368" />
  <g
     fill="#917524"
     id="g3">
    <path
       d="M22.6 18.2c-3.2 2.7-7.5 3.9-11.7 3.1-.6-.1-1.1 2-.4 2.2 4.8.9 9.8-.5 13.5-3.6.5-.5-1-2.1-1.4-1.7M53.1 21.2c-4.2.7-8.5-.4-11.7-3.1-.4-.4-2 1.2-1.4 1.7 3.7 3.2 8.7 4.5 13.5 3.6.7-.2.2-2.3-.4-2.2"
       id="path3" />
  </g>
  <path
     fill="#664e27"
     d="m 22.009821,50.834051 c 0.269513,2.560666 2.425616,6.025097 5.525014,5.723842 2.560371,-0.301255 5.120743,-3.313803 8.354897,-3.765686 3.368911,-0.451882 6.468308,1.656902 9.02868,1.20502 3.503667,-0.451882 4.312206,-4.368196 4.042693,-6.928862 C 48.422079,42.549542 41.953771,39.68762 34.542168,40.742012 27.130565,41.645777 21.470796,46.1646 22.009821,50.834051"
     id="path4"
     style="stroke-width:1.42471" />
  <path
     fill="#664e27"
     d="M51.7 28.1c.6.3.3 1-.2 1.1-2.7.4-5.5.9-8.3 2.4 4 .7 7.2 2.7 9 4.8.4.5-.1 1.1-.5 1-4.8-1.7-9.7-2.7-15.8-2-.5 0-.9-.2-.8-.7 1.6-7.3 10.9-10 16.6-6.6M12.3 28.1c-.6.3-.3 1 .2 1.1 2.7.4 5.5.9 8.3 2.4-4 .7-7.2 2.7-9 4.8-.4.5.1 1.1.5 1 4.8-1.7 9.7-2.7 15.8-2 .5 0 .9-.2.8-.7-1.6-7.3-10.9-10-16.6-6.6"
     id="path5" />
  <metadata
     id="metadata5">
    <rdf:RDF>
      <cc:Work
         rdf:about="">
        <dc:title>face vomiting</dc:title>
      </cc:Work>
    </rdf:RDF>
  </metadata>
</svg>
