<svg xmlns="http://www.w3.org/2000/svg" viewBox="0 0 64 64" enable-background="new 0 0 64 64">
	<title>Star-struck</title><desc>Unicode 10.0 (2017) U+1F929</desc>
	<path d="M62,32c0,16.6-13.4,30-30,30C15.4,62,2,48.6,2,32C2,15.4,15.4,2,32,2C48.6,2,62,15.4,62,32z" fill="#ffdd67"/>
	<g fill="#6ADBC6" id="stars" transform="scale(0.82) translate(7.1,1.6)">
		<path transform="translate(-29,-20)" d="m60.6 49.5l-13.9-1.5-9.1 10.6-2.9-13.7-12.9-5.4 12.2-7 1.2-13.9 10.3 9.4 13.6-3.2-5.7 12.7 7.2 12"/>
		<path transform="scale(-1,1) translate(-93,-20)" d="m60.6 49.5l-13.9-1.5-9.1 10.6-2.9-13.7-12.9-5.4 12.2-7 1.2-13.9 10.3 9.4 13.6-3.2-5.7 12.7 7.2 12"/>
	</g>
	<path d="m49 38.1c0-.8-.5-1.8-1.8-2.1-3.5-.7-8.6-1.3-15.2-1.3-6.6 0-11.7.7-15.2 1.3-1.4.3-1.8 1.3-1.8 2.1 0 7.3 5.6 14.6 17 14.6 11.4-.1 17-7.4 17-14.6" fill="#664e27"/>
	<path d="m44.7 38.3c-2.2-.4-6.8-1-12.7-1-5.9 0-10.5.6-12.7 1-1.3.2-1.4.7-1.3 1.5.1.4.1 1 .3 1.6.1.6.3.9 1.3.8 1.9-.2 23-.2 24.9 0 1 .1 1.1-.2 1.3-.8.1-.6.2-1.1.3-1.6 0-.8-.1-1.3-1.4-1.5" fill="#fff"/>
</svg>