<?xml version="1.0" encoding="UTF-8" standalone="no"?>
<svg
   viewBox="0 0 64 64"
   version="1.1"
   id="svg6"
   sodipodi:docname="1f923.svg"
   xml:space="preserve"
   inkscape:version="1.3.2 (091e20e, 2023-11-25, custom)"
   xmlns:inkscape="http://www.inkscape.org/namespaces/inkscape"
   xmlns:sodipodi="http://sodipodi.sourceforge.net/DTD/sodipodi-0.dtd"
   xmlns="http://www.w3.org/2000/svg"
   xmlns:svg="http://www.w3.org/2000/svg"
   xmlns:rdf="http://www.w3.org/1999/02/22-rdf-syntax-ns#"
   xmlns:cc="http://creativecommons.org/ns#"
   xmlns:dc="http://purl.org/dc/elements/1.1/"><defs
     id="defs6" /><sodipodi:namedview
     id="namedview6"
     pagecolor="#ffffff"
     bordercolor="#000000"
     borderopacity="0.25"
     inkscape:showpageshadow="2"
     inkscape:pageopacity="0.0"
     inkscape:pagecheckerboard="0"
     inkscape:deskcolor="#d1d1d1"
     inkscape:zoom="12.046875"
     inkscape:cx="32"
     inkscape:cy="32"
     inkscape:window-width="1920"
     inkscape:window-height="991"
     inkscape:window-x="-9"
     inkscape:window-y="-9"
     inkscape:window-maximized="1"
     inkscape:current-layer="svg6" /><title
     id="title1">rolling on the floor laughing</title><circle
     cx="-4.208241"
     cy="45.07436"
     r="30"
     fill="#ffdd67"
     id="circle1"
     transform="rotate(-50.214622)" /><path
     fill="#664e27"
     d="m 45.115084,20.011791 c -0.64019,-0.01258 -1.011284,0.589326 -1.523216,1.204083 l -20.221269,24.28292 c -0.511932,0.614757 -1.036716,1.08868 -0.908458,1.716014 1.346572,6.196512 15.509498,12.004394 26.388029,-1.059202 10.878532,-13.063597 2.602812,-25.941191 -3.735089,-26.143815"
     id="path1" /><path
     fill="#4c3526"
     d="m 40.550119,36.901465 c -0.383949,0.461067 -0.575647,1.472626 0.832989,2.125118 0.665896,0.29425 1.997411,0.101726 2.919547,0.869622 1.844272,1.535793 -0.5874,4.455891 -2.431672,2.920098 -0.922136,-0.767896 -0.896979,-2.048274 -1.383755,-2.713894 -0.883851,-1.126413 -1.920841,-0.818759 -2.240798,-0.434536 -1.023862,1.229515 -1.317286,4.238486 0.911206,6.094236 2.459029,2.047723 6.184757,1.636693 8.296473,-0.899183 2.111715,-2.535874 1.841519,-6.274457 -0.617512,-8.322179 -2.215644,-1.714913 -5.185778,-0.804805 -6.286485,0.360716"
     id="path2" /><path
     fill="#ff717f"
     d="m 41.386961,49.960932 c 2.176258,-1.05067 4.224255,-2.728675 6.080006,-4.957171 1.855749,-2.228494 3.058455,-4.610406 3.774664,-6.876911 -2.189109,0.909834 -4.313954,2.523847 -6.233695,4.829188 -1.919741,2.305341 -3.122448,4.68725 -3.620975,7.004894"
     id="path3" /><path
     fill="#ffffff"
     d="m 44.616831,23.110459 -19.133417,22.97656 c -1.343819,1.613739 1.72997,4.173393 3.009796,2.6365 L 47.690619,25.670113 c 1.279827,-1.536893 -1.793961,-4.096548 -3.073788,-2.559654"
     id="path4" /><g
     fill="#65b1ef"
     id="g5"
     transform="rotate(-50.214622,32.054872,32.098144)"><path
       d="M 59.4,36.9 C 66.7,44.6 56.8,55 49.5,47.3 44.2,41.7 43.9,31 43.9,31 c 0,0 10.2,0.3 15.5,5.9 M 14.5,47.3 C 7.2,55 -2.7,44.6 4.6,36.9 9.9,31.3 20.1,31 20.1,31 c 0,0 -0.3,10.7 -5.6,16.3"
       id="path5" /></g><g
     fill="#664e27"
     id="g1"
     transform="rotate(-50.214622,32.010585,32.118896)"><path
       d="m 46.287109,17.945801 c -4.909885,-0.06282 -10.037501,2.807818 -11.1875,8.054688 -0.1,0.499999 0.300782,0.699219 0.800782,0.699219 6.099994,-0.7 10.998833,0.300001 15.798828,2 0.399999,0.1 0.899999,-0.500001 0.5,-1 -1.799998,-2.099998 -5.000004,-4.098829 -9,-4.798828 2.799997,-1.499999 5.600784,-2.000391 8.300781,-2.400391 0.5,-0.1 0.799218,-0.79961 0.199219,-1.099609 -1.603124,-0.95625 -3.49085,-1.430497 -5.41211,-1.455079 z"
       id="path8" /><path
       d="m 17.712891,17.945801 c -1.92126,0.02458 -3.808986,0.498829 -5.41211,1.455079 -0.599999,0.299999 -0.30078,0.999609 0.199219,1.099609 2.699997,0.4 5.500784,0.900392 8.300781,2.400391 -3.999996,0.699999 -7.200002,2.69883 -9,4.798828 -0.399999,0.499999 0.100001,1.1 0.5,1 4.799995,-1.699999 9.698834,-2.7 15.798828,-2 0.5,0 0.900782,-0.19922 0.800782,-0.699219 -1.149999,-5.24687 -6.277615,-8.117508 -11.1875,-8.054688 z"
       id="path7" /></g><metadata
     id="metadata8"><rdf:RDF><cc:Work
         rdf:about=""><dc:title>rolling on the floor laughing</dc:title></cc:Work></rdf:RDF></metadata></svg>
