<svg xmlns="http://www.w3.org/2000/svg" viewBox="0 0 64 64">
	<title>face vomiting</title>
	<desc>Puking Face: Face with Open Mouth Vomiting</desc>
	<path fill="#699635" d="M53 60.1c0 1.1-6.1 1.9-13.7 1.9-7.5 0-13.7-.9-13.7-1.9 0-1.1 6.1-1.9 13.7-1.9S53 59 53 60.1"/>
	<circle cx="32" cy="32" r="30" fill="#ffdd67"/>
	<path fill="#699635" d="M44.2 61.5H39c1.3-2.8 1.3-6.1 0-8.9h5.2c1.3 2.8 1.3 6.1 0 8.9"/>
	<g fill="#917524">
		<path d="M22.6 18.2c-3.2 2.7-7.5 3.9-11.7 3.1-.6-.1-1.1 2-.4 2.2 4.8.9 9.8-.5 13.5-3.6.5-.5-1-2.1-1.4-1.7M53.1 21.2c-4.2.7-8.5-.4-11.7-3.1-.4-.4-2 1.2-1.4 1.7 3.7 3.2 8.7 4.5 13.5 3.6.7-.2.2-2.3-.4-2.2"/>
	</g>
	<path fill="#664e27" d="M44.5 52.1c-.2 1.7-1.8 4-4.1 3.8-1.9-.2-3.8-2.2-6.2-2.5-2.5-.3-4.8 1.1-6.7.8-2.6-.3-3.2-2.9-3-4.6.4-3 5.2-4.9 10.7-4.2 5.5.6 9.7 3.6 9.3 6.7"/>
	<path fill="#664e27" d="M51.7 28.1c.6.3.3 1-.2 1.1-2.7.4-5.5.9-8.3 2.4 4 .7 7.2 2.7 9 4.8.4.5-.1 1.1-.5 1-4.8-1.7-9.7-2.7-15.8-2-.5 0-.9-.2-.8-.7 1.6-7.3 10.9-10 16.6-6.6M12.3 28.1c-.6.3-.3 1 .2 1.1 2.7.4 5.5.9 8.3 2.4-4 .7-7.2 2.7-9 4.8-.4.5.1 1.1.5 1 4.8-1.7 9.7-2.7 15.8-2 .5 0 .9-.2.8-.7-1.6-7.3-10.9-10-16.6-6.6"/>
</svg>
