<?xml version="1.0" encoding="UTF-8" standalone="no"?>
<svg
   viewBox="0 0 64 64"
   version="1.1"
   id="svg3"
   sodipodi:docname="1f928.svg"
   xml:space="preserve"
   inkscape:version="1.3.2 (091e20e, 2023-11-25, custom)"
   xmlns:inkscape="http://www.inkscape.org/namespaces/inkscape"
   xmlns:sodipodi="http://sodipodi.sourceforge.net/DTD/sodipodi-0.dtd"
   xmlns="http://www.w3.org/2000/svg"
   xmlns:svg="http://www.w3.org/2000/svg"
   xmlns:rdf="http://www.w3.org/1999/02/22-rdf-syntax-ns#"
   xmlns:cc="http://creativecommons.org/ns#"
   xmlns:dc="http://purl.org/dc/elements/1.1/"><defs
     id="defs3" /><sodipodi:namedview
     id="namedview3"
     pagecolor="#ffffff"
     bordercolor="#000000"
     borderopacity="0.25"
     inkscape:showpageshadow="2"
     inkscape:pageopacity="0.0"
     inkscape:pagecheckerboard="0"
     inkscape:deskcolor="#d1d1d1"
     inkscape:zoom="12.046875"
     inkscape:cx="32"
     inkscape:cy="32"
     inkscape:window-width="1920"
     inkscape:window-height="991"
     inkscape:window-x="-9"
     inkscape:window-y="-9"
     inkscape:window-maximized="1"
     inkscape:current-layer="g4" /><title
     id="title1">face with raised eyebrow</title><circle
     cx="32"
     cy="32"
     r="30"
     fill="#ffdd67"
     id="circle1" /><g
     fill="#664e27"
     id="g3"><circle
       cx="20.5"
       cy="27.6"
       r="5"
       id="circle2" /><circle
       cx="43.5"
       cy="27.6"
       r="5"
       id="circle3" /><path
       d="M38.9 48H25.1c-1.5 0-1.5-4 0-4h13.7c1.6 0 1.6 4 .1 4"
       id="path3" /></g><g
     fill="#917524"
     id="g4"
     transform="translate(0.1481414,1.5749977)"><path
       d="m 50.449027,15.837873 c -3.2,-2.7 -8.247081,-4.896109 -12.447081,-4.096109 -0.6,0.1 -1.1,-1.8339819 -0.4,-2.0339819 4.8,-0.9 9.966018,0.6660179 13.666018,3.7660179 0.6,0.5 -0.16991,2.681064 -0.56991,2.281064 M 25.5,15.792218 c -0.855615,-0.142603 -1.933402,0.87206 -2.737795,0.882656 -1.619516,0.02133 -3.489233,-0.520472 -4.86742,-0.193605 -1.297462,0.307721 -2.112091,1.45141 -3.347703,2.493958 -0.4,0.4 -2.249028,-1.449027 -1.649028,-1.949027 1.957758,-2.403396 4.003087,-4.321743 6.53536,-3.629126 0.974227,0.266467 2.406631,0.563461 3.477374,0.4022 0.977029,-0.147147 1.583461,-0.745316 2.657176,-0.705111 0.533982,0.598055 0.864072,1.552919 0.264072,1.452919"
       id="path3-9"
       sodipodi:nodetypes="ccccccssccsscc" /></g><metadata
     id="metadata5"><rdf:RDF><cc:Work
         rdf:about=""><dc:title>face with raised eyebrow</dc:title></cc:Work></rdf:RDF></metadata></svg>
