<?xml version="1.0" encoding="UTF-8" standalone="no"?>
<svg
   viewBox="0 0 64 64"
   version="1.1"
   id="svg4"
   sodipodi:docname="1f92b.svg"
   xml:space="preserve"
   inkscape:version="1.3.2 (091e20e, 2023-11-25, custom)"
   xmlns:inkscape="http://www.inkscape.org/namespaces/inkscape"
   xmlns:sodipodi="http://sodipodi.sourceforge.net/DTD/sodipodi-0.dtd"
   xmlns="http://www.w3.org/2000/svg"
   xmlns:svg="http://www.w3.org/2000/svg"
   xmlns:rdf="http://www.w3.org/1999/02/22-rdf-syntax-ns#"
   xmlns:cc="http://creativecommons.org/ns#"
   xmlns:dc="http://purl.org/dc/elements/1.1/"><defs
     id="defs4" /><sodipodi:namedview
     id="namedview4"
     pagecolor="#ffffff"
     bordercolor="#000000"
     borderopacity="0.25"
     inkscape:showpageshadow="2"
     inkscape:pageopacity="0.0"
     inkscape:pagecheckerboard="0"
     inkscape:deskcolor="#d1d1d1"
     inkscape:zoom="12.046875"
     inkscape:cx="32"
     inkscape:cy="32.249027"
     inkscape:window-width="1920"
     inkscape:window-height="991"
     inkscape:window-x="-9"
     inkscape:window-y="-9"
     inkscape:window-maximized="1"
     inkscape:current-layer="svg4" /><title
     id="title1">shushing face</title><ellipse
     cx="31.750973"
     cy="25.40078"
     fill="#ffdd67"
     id="circle1"
     rx="24.272373"
     ry="24.230869"
     style="stroke-width:0.808387" /><g
     fill="#664e27"
     id="g3"
     transform="matrix(0.80907912,0,0,0.80769563,5.7774319,0.21859057)"><circle
       cx="20"
       cy="27"
       r="5"
       id="circle2" /><circle
       cx="44"
       cy="27"
       r="5"
       id="circle3" /></g><g
     fill="#917524"
     id="g4"
     transform="matrix(0.80907912,0,0,0.80769563,5.7774319,0.21859057)"><path
       d="M 50.2,17 C 47,14.3 42.7,13.1 38.5,13.9 c -0.6,0.1 -1.1,-2 -0.4,-2.2 4.8,-0.9 9.8,0.5 13.5,3.6 0.6,0.5 -1,2.1 -1.4,1.7 M 25.5,13.8 c -4.2,-0.7 -8.5,0.4 -11.7,3.1 -0.4,0.4 -2,-1.2 -1.4,-1.7 3.7,-3.2 8.7,-4.5 13.5,-3.6 0.7,0.1 0.2,2.3 -0.4,2.2"
       id="path3" /></g><ellipse
     cx="31.667963"
     cy="38.98798"
     fill="#664e27"
     id="circle4"
     rx="4.0453954"
     ry="4.0384784"
     style="stroke-width:0.808387" /><g
     transform="matrix(-0.0410704,-1.079234,-1.0275644,0.01166912,81.615775,69.934744)"
     id="g2"><path
       fill="#ffffff"
       d="m 32.6,44 c -4.2,1 -14.9,2.3 -16.8,0.3 -0.9,-0.9 -0.7,-2.2 -0.4,-4.5 0.3,-2.3 -1.9,-4.7 -3.5,-4.9 -1.9,-0.2 -3,1.2 -2.3,3.2 1.4,4.5 -1.4,5.9 -1.6,9.2 -0.1,1.9 -0.7,5.1 2.2,9.2 3.3,4.6 9,4.7 11,4.6 2.3,-0.1 3.3,-0.2 3.8,-1.2 0.6,-1.2 0.3,-1.5 0.6,-1.9 0.5,-0.9 0.8,-0.8 1.1,-1.9 0.3,-1.1 -0.5,-1.8 -0.3,-2.3 0.4,-1.2 1.4,-1 0.4,-3.8 3.4,-0.5 5.6,-1 7.6,-2.2 3.7,-2 0.5,-4.3 -1.8,-3.8"
       id="path1" /><path
       fill="#cccfd4"
       d="M 17.5,61.7 C 14.1,61.1 11.3,59.4 9.5,56.9 6.7,53 6.9,49.9 7.1,47.8 V 47.1 C 7.2,45.7 7.6,44.6 8.1,43.5 8.8,41.9 9.4,40.6 8.6,38.2 8.2,37 8.3,35.8 9.1,35 9.8,34.3 10.8,33.9 12,34.1 l 0.1,0 c 2.1,0.4 4.5,3.2 4.2,5.9 -0.3,2.2 -0.171974,2.948539 0.428026,3.548539 C 16.828026,43.648539 16.9,44.2 18,44.3 c 3.8,0.7 11.3,-0.4 14.4,-1.1 0.5,-0.1 1.1,-0.1 1.7,0 1.5,0.3 2.6,1.2 2.9,2.3 0.1,0.7 0.1,2 -2,3.2 -2,1.1 -4.1,1.7 -7,2.1 0.8,2 -1.1,2.7 -0.7,3.5 0.5,1.1 0.4,2 -0.7,3.1 -0.8,0.7 0.2,1.6 -0.6,3 -0.9,1.5 -2.4,1.6 -4.6,1.7 C 19.9,62 18.7,62 17.5,61.7 M 9.9,37.2 c 0.7,3.3 0.9,4.5 -0.3,7.2 -1.8,3.6 -2.5,13.8 8.2,15.7 6.5,1.2 7.5,-0.4 7.2,-2.1 -0.2,-1.1 0.7,-1.5 1,-1.9 0.7,-1.2 -0.3,-1.8 -0.3,-2.3 0,-0.9 0.9,-0.9 1.1,-1.8 0.3,-1.6 -1.7,-2.2 0,-2.3 3.3,-0.2 5.5,-0.8 7.4,-2.1 1.8,-1.2 0.5,-3.7 -1.9,-3.2 -5.6,1.2 -14,2.6 -16.8,0 -1.3,-1.2 -0.3,-2.6 -0.4,-5.3 -0.2,-3.6 -5.9,-5 -5.2,-1.9"
       id="path2"
       sodipodi:nodetypes="cccccsscccsccccccccccccccccsccccccc" /></g><metadata
     id="metadata4"><rdf:RDF><cc:Work
         rdf:about=""><dc:title>shushing face</dc:title></cc:Work></rdf:RDF></metadata></svg>
