<?xml version="1.0" encoding="UTF-8" standalone="no"?>
<svg
   viewBox="0 0 64 64"
   version="1.1"
   id="svg9"
   sodipodi:docname="1f931-1f3fd.svg"
   xml:space="preserve"
   inkscape:version="1.3.2 (091e20e, 2023-11-25, custom)"
   xmlns:inkscape="http://www.inkscape.org/namespaces/inkscape"
   xmlns:sodipodi="http://sodipodi.sourceforge.net/DTD/sodipodi-0.dtd"
   xmlns="http://www.w3.org/2000/svg"
   xmlns:svg="http://www.w3.org/2000/svg"
   xmlns:rdf="http://www.w3.org/1999/02/22-rdf-syntax-ns#"
   xmlns:cc="http://creativecommons.org/ns#"
   xmlns:dc="http://purl.org/dc/elements/1.1/"><defs
     id="defs9" /><sodipodi:namedview
     id="namedview9"
     pagecolor="#ffffff"
     bordercolor="#000000"
     borderopacity="0.25"
     inkscape:showpageshadow="2"
     inkscape:pageopacity="0.0"
     inkscape:pagecheckerboard="0"
     inkscape:deskcolor="#d1d1d1"
     inkscape:zoom="11.313709"
     inkscape:cx="36.902134"
     inkscape:cy="33.985318"
     inkscape:window-width="1920"
     inkscape:window-height="991"
     inkscape:window-x="-9"
     inkscape:window-y="-9"
     inkscape:window-maximized="1"
     inkscape:current-layer="svg9" /><title
     id="title1">breast-feeding: medium skin tone</title><path
     fill="#ffb300"
     d="m 32.528266,2.4695703 c -12.219062,0 -18.876344,7.2038937 -18.876344,16.7290417 V 48.894663 H 51.404611 V 19.198612 c 0,-14.1676573 -10.196597,-13.9275275 -10.196597,-13.9275275 0,0 -0.758425,-2.8015142 -8.679748,-2.8015142 z"
     id="path1"
     style="stroke-width:0.821292;fill:#594640;fill-opacity:1" /><path
     fill="#b386e2"
     d="m 40.955206,40.169947 v -5.683071 h -16.85388 v 5.683071 c -9.864307,0.224871 -12.338634,1.713229 -12.613266,8.803465 -0.01864,0.481126 -0.02714,12.36029 -0.02714,12.89436 h 42.715762 c 0,-0.659558 -0.594038,-12.649952 -0.623042,-13.229248 -0.340577,-6.802488 -2.891401,-8.247292 -12.598431,-8.468577"
     id="path2"
     style="stroke-width:0.821292"
     sodipodi:nodetypes="ccccsccsc" /><path
     fill="#b386e2"
     d="M 40.955286,40.170071 V 34.487 h -16.85388 v 5.683071 c -0.05691,3.443088 -0.978114,16.12304 -0.788906,21.697825 h 20.25 c 5.581372,-6.645162 5.987223,-13.797727 -0.446914,-21.62088 -0.677423,-0.03456 -1.396719,-0.05954 -2.160297,-0.07695"
     id="path2-9"
     style="fill:#d6a57c;fill-opacity:1;stroke-width:0.821292"
     sodipodi:nodetypes="cccccccc" /><g
     id="g9"
     transform="matrix(0.67531061,0,0,0.66311675,10.918327,1.1765584)"
     style="display:inline"><path
       fill="#ffdd67"
       d="M 10.4,40.7 C 10.4,40.7 6,39.6 6,33.2 6,28.1 9.3,27.3 9.3,27.3 21.1,27.2 43,12 43,12 c 0,0 4.6,13.4 11.6,15.2 0,0 3.4,0.6 3.4,5.9 0,6.4 -4.5,7.5 -4.5,7.5 C 53.4,50.3 40.1,62 32,62 23.9,62 10.4,50.3 10.4,40.7 Z"
       id="path2-1"
       style="fill:#d6a57c;fill-opacity:1" /><path
       fill="#eba352"
       d="m 32,47 c -4.2,0 -6.3,-3 -4.2,-3 h 8.4 c 2.1,0 0,3 -4.2,3"
       id="path3-9"
       style="fill:#b58360;fill-opacity:1" /><path
       fill="#f5f5f5"
       d="M 38.3,38.2 C 36.8,38.2 37,36.4 37,36.4 39.2,24.9 52,31 52,31 c 1,2 -2.3,6.9 -3.2,7.2 -4.2,1 -10.5,0 -10.5,0"
       id="path4-0" /><path
       fill="#664e27"
       d="m 48.5,33.5 c 0,2.5 -2,4.5 -4.5,4.5 -2.5,0 -4.5,-2 -4.5,-4.5 0,-2.5 2,-4.5 4.5,-4.5 2.5,0 4.5,2 4.5,4.5"
       id="path5-4" /><circle
       cx="44"
       cy="33.5"
       r="1.5"
       fill="#2b2925"
       id="circle5-1" /><path
       fill="#3b3226"
       d="M 37,36.3 C 39.2,22.6 50.5,31.7 55,29.8 50.5,34.1 41.5,24.9 37,36.3"
       id="path6" /><path
       fill="#f5f5f5"
       d="M 25.7,38.2 C 27.2,38.2 27,36.4 27,36.4 24.8,24.9 12,31 12,31 c -1,2 2.3,6.9 3.2,7.2 4.2,1 10.5,0 10.5,0"
       id="path7" /><path
       fill="#664e27"
       d="m 15.5,33.5 c 0,2.5 2,4.5 4.5,4.5 2.5,0 4.5,-2 4.5,-4.5 0,-2.5 -2,-4.5 -4.5,-4.5 -2.5,0 -4.5,2 -4.5,4.5"
       id="path8-6" /><path
       fill="#3b3226"
       d="M 27,36.3 C 24.8,22.6 13.5,31.7 9,29.8 c 4.5,4.3 13.5,-4.9 18,6.5"
       id="path9-1" /><path
       fill="#f09985"
       d="M 32,52 22,50.5 c 6,8.5 14,8.5 20,0 z"
       id="path10" /><path
       fill="#d47f6c"
       d="M 35.9,50.1 C 33,49 32,50.8 32,50.8 32,50.8 31,49 28.1,50.1 25.8,51 22,50.5 22,50.5 c 4,0.9 4.5,2.5 10,2.5 5.5,0 6,-1.7 10,-2.5 0,0 -3.8,0.5 -6.1,-0.4"
       id="path11" /><circle
       cx="20"
       cy="33.5"
       r="1.5"
       fill="#2b2925"
       id="circle11" /></g><g
     id="g10"
     transform="matrix(0.12034952,0.23094679,-0.24895224,0.13932087,52.666975,43.733332)"><path
       fill="#ffdd67"
       d="M 36.712577,15.296399 C 36.852415,0.50904145 26.302711,-6.3626345 14.802573,-6.2682973 3.3024371,-6.1739601 -7.3788792,0.87187671 -7.5187169,15.659235 c 0.8800712,17.426143 9.3714234,23.059359 21.9017789,22.43454 15.923265,-0.13062 22.192146,-8.270972 22.247258,-14.09893 0.792365,-1.944188 -0.24046,-7.070464 0.08226,-8.698446"
       id="path1-9"
       style="fill:#ff00ff;stroke-width:0.87717"
       sodipodi:nodetypes="cscccc" /></g><path
     id="rect10"
     style="fill:#4fd1d9;fill-rule:evenodd;stroke-width:4.51645"
     transform="matrix(0.86796146,-0.49663156,0.66673369,0.74529604,0,0)"
     d="m -23.175659,64.953011 h 22.98145848 l 0,11.505956 -7.69670368,1.280856 -15.3912548,-10.233335 z"
     sodipodi:nodetypes="cccccc" /><g
     id="g11"
     transform="matrix(-0.05142231,0.79399266,-0.69789897,-0.0832602,46.435244,19.553481)"
     style="opacity:1;fill:#d6a57c;fill-opacity:1"><path
       fill="#c28fef"
       d="M 54.860158,16.401257 52,16.7 c 0,0 5.396383,22.195348 -5.443128,29.993954 l 11.33014,-0.739248 C 57.622192,36.275805 55.871246,26.966595 55.047896,16.483343"
       id="path2-4"
       sodipodi:nodetypes="ccccc"
       style="fill:#d6a57c;fill-opacity:1" /><g
       fill="#ffdd67"
       id="g3"
       style="fill:#d6a57c;fill-opacity:1"><path
         d="M 53.547938,2.5148552 C 53.274807,2.8266648 53.101287,3.250009 53.101287,3.6986126 v 1.0005669 c -0.1,-0.7999992 -0.700352,-1.3988189 -1.400352,-1.3988189 -0.699999,0 -1.302296,0.6988196 -1.302296,1.3988189 l 0.300294,9.1005505 c -0.799999,-0.1 -1.200116,-0.499591 -2.200115,-1.59959 -1.699999,-1.799998 -3.397698,-1.799794 -3.897698,-0.799795 -0.499999,1.099998 1.398172,2.099182 2.298171,3.199181 0.899999,1.099998 2.00041,1.900442 2.500409,3.10044 9.45858,13.400722 4.079869,-12.5383341 4.148238,-15.1851108 z"
         id="path12"
         sodipodi:nodetypes="cscsccccscc"
         style="fill:#d6a57c;fill-opacity:1" /></g></g><metadata
     id="metadata12"><rdf:RDF><cc:Work
         rdf:about=""><dc:title>breast-feeding: medium skin tone</dc:title></cc:Work></rdf:RDF></metadata></svg>
