<?xml version="1.0" encoding="UTF-8" standalone="no"?>
<svg
   viewBox="0 0 36 36"
   version="1.1"
   id="svg3"
   sodipodi:docname="1f94c.svg"
   xml:space="preserve"
   inkscape:version="1.3.2 (091e20e, 2023-11-25, custom)"
   xmlns:inkscape="http://www.inkscape.org/namespaces/inkscape"
   xmlns:sodipodi="http://sodipodi.sourceforge.net/DTD/sodipodi-0.dtd"
   xmlns="http://www.w3.org/2000/svg"
   xmlns:svg="http://www.w3.org/2000/svg"
   xmlns:rdf="http://www.w3.org/1999/02/22-rdf-syntax-ns#"
   xmlns:cc="http://creativecommons.org/ns#"
   xmlns:dc="http://purl.org/dc/elements/1.1/"><title
     id="title3">curling stone</title><defs
     id="defs3" /><sodipodi:namedview
     id="namedview3"
     pagecolor="#ffffff"
     bordercolor="#000000"
     borderopacity="0.25"
     inkscape:showpageshadow="2"
     inkscape:pageopacity="0.0"
     inkscape:pagecheckerboard="0"
     inkscape:deskcolor="#d1d1d1"
     inkscape:zoom="15.14387"
     inkscape:cx="26.809527"
     inkscape:cy="17.267713"
     inkscape:window-width="1920"
     inkscape:window-height="991"
     inkscape:window-x="-9"
     inkscape:window-y="-9"
     inkscape:window-maximized="1"
     inkscape:current-layer="svg3" /><path
     fill="#BE1931"
     d="M28 12H13V8c0-.552.448-1 1-1h11c1.104 0 2-.896 2-2s-.896-2-2-2H14c-2.761 0-5 2.239-5 5v4H8c-1.104 0-2 .896-2 2s.896 2 2 2h20c1.104 0 2-.896 2-2s-.896-2-2-2z"
     id="path1"
     style="fill:#f5ce3e;fill-opacity:1" /><path
     fill="#66757F"
     d="M36 25c0 3.313-2.687 6-6 6H6c-3.313 0-6-2.687-6-6v-5c0-3.313 2.687-6 6-6h24c3.313 0 6 2.687 6 6v5z"
     id="path2"
     style="fill:#333333;fill-opacity:1" /><path
     fill="#99AAB5"
     d="M0 20h36v5H0z"
     id="path3"
     style="fill:#808080" /><metadata
     id="metadata3"><rdf:RDF><cc:Work
         rdf:about=""><dc:title>curling stone</dc:title></cc:Work></rdf:RDF></metadata></svg>
