<?xml version="1.0" encoding="UTF-8" standalone="no"?>
<svg
   viewBox="0 0 64 64"
   version="1.1"
   id="svg3"
   sodipodi:docname="1f961.svg"
   xml:space="preserve"
   inkscape:version="1.3.2 (091e20e, 2023-11-25, custom)"
   xmlns:inkscape="http://www.inkscape.org/namespaces/inkscape"
   xmlns:sodipodi="http://sodipodi.sourceforge.net/DTD/sodipodi-0.dtd"
   xmlns="http://www.w3.org/2000/svg"
   xmlns:svg="http://www.w3.org/2000/svg"
   xmlns:rdf="http://www.w3.org/1999/02/22-rdf-syntax-ns#"
   xmlns:cc="http://creativecommons.org/ns#"
   xmlns:dc="http://purl.org/dc/elements/1.1/"><defs
     id="defs3" /><sodipodi:namedview
     id="namedview3"
     pagecolor="#ffffff"
     bordercolor="#000000"
     borderopacity="0.25"
     inkscape:showpageshadow="2"
     inkscape:pageopacity="0.0"
     inkscape:pagecheckerboard="0"
     inkscape:deskcolor="#d1d1d1"
     inkscape:zoom="12.046875"
     inkscape:cx="34.241245"
     inkscape:cy="30.754864"
     inkscape:window-width="1920"
     inkscape:window-height="991"
     inkscape:window-x="-9"
     inkscape:window-y="-9"
     inkscape:window-maximized="1"
     inkscape:current-layer="svg3" /><title
     id="title1">takeout box</title><path
     style="fill:#b0bdc6;fill-opacity:1;fill-rule:evenodd;stroke-width:2.86882"
     d="M 9.7247598,20.252465 9.8622509,56.611872 30.210928,62.022024 31.860821,30.515843 Z"
     id="path5" /><path
     style="fill:#cad5dd;fill-opacity:1;fill-rule:evenodd;stroke-width:2.69932"
     d="M 53.515664,19.336774 54.890575,57.443573 30.142183,61.951586 29.454727,29.057178 Z"
     id="path6" /><g
     fill="#b0bdc6"
     id="g1"
     transform="matrix(0.43940404,0.13966122,-0.38199637,0.20940525,28.05474,9.5483859)"
     style="stroke:#b0bdc6;stroke-opacity:1;fill:#cad5dd;fill-opacity:1"><path
       d="M 0.6,48.7 19.1,29.4 4.9,8.9 C 4.2,9.8 3.7,11 3.6,12.4 L 0,45.1 c -0.1,1.4 0.1,2.6 0.6,3.6 M 62.7,5.5 35.9,30.4 57,58.9 c 1.2,-1 2,-2.5 2.2,-4.3 L 64,10 C 64.2,8.2 63.6,6.5 62.7,5.5"
       id="path1"
       style="stroke:#b0bdc6;stroke-opacity:1;fill:#cad5dd;fill-opacity:1" /></g><path
     fill="#cad5dd"
     d="m 24.462783,21.637275 0.919898,-3.015819 -15.5015043,1.457789 c -0.1680354,0.244329 -0.089658,0.467734 0.1854723,0.621346 l 18.654562,9.105081 c 0.500565,0.258346 1.26279,0.335204 2.04599,0.286399 l 1.615472,-8.9149 -7.91989,0.460104"
     id="path2"
     style="stroke:#b0bdc6;stroke-width:0.381266;stroke-opacity:1" /><path
     fill="#dfe9ef"
     d="M 52.583413,18.667917 28.309536,12.11052 c -0.433667,-0.104754 -0.932246,-0.09781 -1.501485,-0.01409 l -1.547472,6.289956 -0.919898,3.015817 7.919915,-0.460096 21.243796,-1.485237 c -0.01347,-0.335102 -0.311553,-0.628337 -0.920979,-0.788956"
     id="path3"
     style="stroke-width:0.381266;stroke:#b0bdc6;stroke-opacity:1;fill:#cad5dd;fill-opacity:1" /><path
     style="fill:#b0bdc6;fill-opacity:1;fill-rule:evenodd;stroke-width:2.69932"
     d="M 29.523473,29.62068 41.141468,34.410443 43.203834,59.486266 39.904048,35.326134 29.454727,31.311185 Z"
     id="path7" /><path
     style="fill:#b0bdc6;fill-opacity:1;fill-rule:evenodd;stroke-width:2.69932"
     d="M 38.047919,33.635629 53.378173,19.900276 39.560321,34.340006 Z"
     id="path8" /><metadata
     id="metadata8"><rdf:RDF><cc:Work
         rdf:about=""><dc:title>takeout box</dc:title></cc:Work></rdf:RDF></metadata><g
     id="g2"
     transform="matrix(0.29995677,0.07505996,0,0.29093823,9.9500216,30.290651)"><path
       fill="#ffdd67"
       d="M 62,32 C 62,48.6 48.6,62 32,62 15.4,62 2,48.6 2,32 2,15.4 15.4,2 32,2 48.6,2 62,15.4 62,32 Z"
       id="path1-4" /><path
       fill="#ff717f"
       d="m 42,47.9 c -5,-5 -2.8,-2.8 2.5,-8.1 5.3,-5.3 3.1,-7.6 8.1,-2.5 5,5 5.2,9.9 2.2,12.9 C 51.9,53.1 47,52.9 42,47.9"
       id="path2-0" /><path
       fill="#e2596c"
       d="m 45.6,38.7 6.8,9 -8.9,-6.8 z"
       id="path3-8" /><g
       fill="#664e27"
       id="g4"><path
         d="m 28.5,24.9 c -1.9,-5.1 -4.7,-7.7 -7.5,-7.7 -2.8,0 -5.6,2.6 -7.5,7.7 -0.2,0.5 0.8,1.4 1.3,0.9 1.8,-1.9 4,-2.7 6.2,-2.7 2.2,0 4.4,0.8 6.2,2.7 0.6,0.5 1.5,-0.4 1.3,-0.9 m 21.9,0 c -1.9,-5.1 -4.7,-7.7 -7.5,-7.7 -2.8,0 -5.6,2.6 -7.5,7.7 -0.2,0.5 0.8,1.4 1.3,0.9 1.8,-1.9 4,-2.7 6.2,-2.7 2.2,0 4.4,0.8 6.2,2.7 0.5,0.5 1.5,-0.4 1.3,-0.9 M 48.1,33 c -4.3,6.1 -9.5,7.6 -16.1,7.6 -6.6,0 -11.8,-1.5 -16.1,-7.6 -0.6,-0.8 -2.2,-0.3 -1.8,0.9 2.3,8 10,12.7 18,12.7 8,0 15.7,-4.7 18,-12.7 0.2,-1.2 -1.4,-1.7 -2,-0.9"
         id="path4" /></g></g><path
     style="fill:#000000;fill-opacity:1;fill-rule:evenodd;stroke:none;stroke-width:2.9483;stroke-opacity:1"
     d="M 15.605707,19.158698 19.30407,6.2038883 43.05893,8.612323 45.405967,22.41643 43.98352,22.938044 41.920972,9.8743326 20.22866,7.4527441 16.957032,20.340414 Z"
     id="path9" /><g
     fill="#a6aeb0"
     opacity="0.6"
     id="g10"
     transform="translate(5.4926817,-1.0930997)"
     style="display:inline"><path
       d="M 27.9,11.4 C 24.2,7.6 26.6,2 26.6,2 c 0,0 -7.8,7.4 -2.9,12.5 5.7,5.9 2.9,9.5 2.9,9.5 0,0 7.1,-6.6 1.3,-12.6 M 16.8,14.8 C 14.1,12.1 15.9,8 15.9,8 c 0,0 -5.8,5.4 -2.1,9.1 4.2,4.3 2.1,6.9 2.1,6.9 0,0 5.3,-4.8 0.9,-9.2 m 22,0 C 36.1,12.1 37.9,8 37.9,8 c 0,0 -5.8,5.4 -2.1,9.1 4.2,4.3 2.1,6.9 2.1,6.9 0,0 5.3,-4.8 0.9,-9.2"
       id="path10" /></g></svg>
