<?xml version="1.0" encoding="UTF-8" standalone="no"?>
<svg
   viewBox="0 0 36 36"
   version="1.1"
   id="svg17"
   sodipodi:docname="1f96b.svg"
   inkscape:version="1.3.2 (091e20e, 2023-11-25, custom)"
   xmlns:inkscape="http://www.inkscape.org/namespaces/inkscape"
   xmlns:sodipodi="http://sodipodi.sourceforge.net/DTD/sodipodi-0.dtd"
   xmlns="http://www.w3.org/2000/svg"
   xmlns:svg="http://www.w3.org/2000/svg"
   xmlns:rdf="http://www.w3.org/1999/02/22-rdf-syntax-ns#"
   xmlns:cc="http://creativecommons.org/ns#"
   xmlns:dc="http://purl.org/dc/elements/1.1/">
  <title
     id="title17">canned food</title>
  <defs
     id="defs17" />
  <sodipodi:namedview
     id="namedview17"
     pagecolor="#ffffff"
     bordercolor="#000000"
     borderopacity="0.25"
     inkscape:showpageshadow="2"
     inkscape:pageopacity="0.0"
     inkscape:pagecheckerboard="0"
     inkscape:deskcolor="#d1d1d1"
     inkscape:zoom="21.416667"
     inkscape:cx="17.976654"
     inkscape:cy="18"
     inkscape:window-width="1920"
     inkscape:window-height="991"
     inkscape:window-x="-9"
     inkscape:window-y="-9"
     inkscape:window-maximized="1"
     inkscape:current-layer="svg17" />
  <path
     fill="#99AAB5"
     d="M30 32.5c0 1.933-5.373 3.5-12 3.5S6 34.433 6 32.5c0-1.932 5.372-3.5 12-3.5 6.627 0 12 1.567 12 3.5z"
     id="path1" />
  <path
     fill="#99AAB5"
     d="M6 31.5h24v1H6z"
     id="path2" />
  <path
     fill="#E6E7E8"
     d="M30 31.5c0 1.933-5.373 3.5-12 3.5S6 33.433 6 31.5 11.372 28 18 28c6.627 0 12 1.567 12 3.5z"
     id="path3" />
  <path
     fill="#5C913B"
     d="M29 31c0 1.656-4.926 3-11 3-6.075 0-11-1.343-11-3s4.924-3 11-3c6.075 0 11 1.343 11 3z"
     id="path4" />
  <path
     fill="#5C913B"
     d="M7 8h22v23H7z"
     id="path5" />
  <path
     fill="#A6D388"
     d="M29 23c0 1.932-4.926 3.5-11 3.5-6.075 0-11-1.567-11-3.5s4.924-3.5 11-3.5c6.074 0 11 1.567 11 3.5z"
     id="path6" />
  <path
     fill="#A6D388"
     d="M7 10h22v13H7z"
     id="path7" />
  <path
     fill="#5C913B"
     d="M29 14c0 1.932-4.926 3.5-11 3.5-6.075 0-10.999-1.567-10.999-3.5S11.925 10.5 18 10.5c6.074 0 11 1.567 11 3.5z"
     id="path8" />
  <path
     fill="#5C913B"
     d="M7 4h22v10H7z"
     id="path9" />
  <path
     fill="#99AAB5"
     d="M30 4.5C30 6.433 24.627 8 18 8S6 6.433 6 4.5 11.373 1 18 1s12 1.567 12 3.5z"
     id="path10" />
  <path
     fill="#99AAB5"
     d="M6 3.5h24v1H6z"
     id="path11" />
  <path
     fill="#E6E7E8"
     d="M30 3.5C30 5.433 24.627 7 18 7S6 5.433 6 3.5 11.373 0 18 0s12 1.567 12 3.5z"
     id="path12" />
  <path
     fill="#CCD6DD"
     d="M28.25 3.5C28.25 4.881 23.662 6 18 6S7.75 4.881 7.75 3.5 12.338 1 18 1s10.25 1.119 10.25 2.5z"
     id="path13" />
  <path
     fill="#E6E7E8"
     d="M27.25 3.5c0 1.105-4.14 2-9.25 2s-9.25-.895-9.25-2 4.141-2 9.25-2c5.11 0 9.25.895 9.25 2z"
     id="path14" />
  <path
     fill="#CCD6DD"
     d="M24 3.5c0 .69-2.686 1.25-6 1.25s-6-.56-6-1.25 2.686-1.25 6-1.25 6 .56 6 1.25z"
     id="path15" />
  <ellipse
     fill="#E6E7E8"
     cx="18"
     cy="3.5"
     rx="4.75"
     ry=".75"
     id="ellipse15" />
  <path
     fill="#FFCC4D"
     d="M25 21c0 4.142-3.134 7.5-7 7.5s-7-3.358-7-7.5 3.134-7.5 7-7.5 7 3.358 7 7.5z"
     id="path16" />
  <path
     fill="#FFAC33"
     d="M23 21c0 3.156-2.239 5.715-5 5.715s-5-2.56-5-5.715 2.238-5.714 5-5.714 5 2.558 5 5.714z"
     id="path17" />
  <metadata
     id="metadata17">
    <rdf:RDF>
      <cc:Work
         rdf:about="">
        <dc:title>canned food</dc:title>
      </cc:Work>
    </rdf:RDF>
  </metadata>
</svg>
