<?xml version="1.0" encoding="UTF-8" standalone="no"?>
<svg
   viewBox="0 0 64 64"
   version="1.1"
   id="svg3"
   sodipodi:docname="1f960.svg"
   xml:space="preserve"
   inkscape:version="1.3.2 (091e20e, 2023-11-25, custom)"
   xmlns:inkscape="http://www.inkscape.org/namespaces/inkscape"
   xmlns:sodipodi="http://sodipodi.sourceforge.net/DTD/sodipodi-0.dtd"
   xmlns="http://www.w3.org/2000/svg"
   xmlns:svg="http://www.w3.org/2000/svg"
   xmlns:rdf="http://www.w3.org/1999/02/22-rdf-syntax-ns#"
   xmlns:cc="http://creativecommons.org/ns#"
   xmlns:dc="http://purl.org/dc/elements/1.1/"><defs
     id="defs3" /><sodipodi:namedview
     id="namedview3"
     pagecolor="#ffffff"
     bordercolor="#000000"
     borderopacity="0.25"
     inkscape:showpageshadow="2"
     inkscape:pageopacity="0.0"
     inkscape:pagecheckerboard="0"
     inkscape:deskcolor="#d1d1d1"
     inkscape:zoom="11.313709"
     inkscape:cx="35.487921"
     inkscape:cy="31.201087"
     inkscape:window-width="1920"
     inkscape:window-height="991"
     inkscape:window-x="-9"
     inkscape:window-y="-9"
     inkscape:window-maximized="1"
     inkscape:current-layer="svg3" /><title
     id="title1">fortune cookie</title><path
     fill="#f2b200"
     d="m 42.236604,27.619935 -2.144391,3.333231 0.665748,3.249022 3.2467,2.046304 C 49.141142,33.044306 55.185514,32.32475 61.784014,33.121679 L 59.579401,22.362614 c -7.426803,0.07356 -13.266671,1.765892 -17.342797,5.257321 m 1.791441,4.097669 c 0.09822,0.479362 -0.220295,0.974387 -0.721876,1.122074 -0.480394,0.114677 -0.962566,-0.18928 -1.092949,-0.688853 -0.09822,-0.479365 0.220295,-0.974388 0.721875,-1.122077 0.512541,-0.09441 0.994723,0.209486 1.09295,0.688856"
     id="path1"
     style="display:inline;fill:#d0d0d0;fill-opacity:1;stroke-width:0.38614"
     sodipodi:nodetypes="cccccccccccc" /><path
     id="path3"
     style="fill:#ffbf4f;fill-opacity:1;fill-rule:evenodd;stroke-width:3.05084"
     d="m 43.112296,20.74781 c -4.066371,3.943053 -0.887403,0.965707 -3.601514,3.309555 -0.370586,0.32003 -0.700543,0.702006 -1.085185,0.998231 -0.225639,0.17377 -0.491372,0.251252 -0.728919,0.399538 -0.343043,0.214139 -0.666703,0.474729 -1.010779,0.686232 -0.317683,0.19528 -0.656696,0.329568 -0.971746,0.531424 -0.324746,0.208066 -0.619849,0.479876 -0.941126,0.696033 -1.685276,1.13386 1.216721,-1.047882 -1.253826,0.82006 -0.849452,0.642259 -0.306005,0.289784 -1.348827,1.210323 -0.253778,0.224021 -0.5292,0.409343 -0.784449,0.63111 -0.07232,0.06282 -0.115364,0.168635 -0.193771,0.219952 -0.475438,0.311138 -0.94295,0.379315 -1.420306,0.640166 -0.09535,0.05211 -0.169326,0.154431 -0.263424,0.210151 -0.799772,0.473657 -1.620133,0.88636 -2.429364,1.328558 -0.112368,0.0614 -0.215468,0.157818 -0.331573,0.204451 -1.781068,0.715392 0.727599,-0.4253 -0.827469,0.227286 -0.01979,0.0083 -1.509108,0.780822 -2.025326,0.811891 -0.01084,6.92e-4 -1.139918,-0.175022 -1.214023,-0.215188 -0.01967,-0.01066 0.03626,-0.06457 0.01869,-0.07848 -0.07038,-0.05568 -0.20558,0.02801 -0.273665,-0.03079 -0.184092,-0.158985 -0.333983,-0.358922 -0.501602,-0.537959 -0.02283,-0.0026 -0.05227,0.0061 -0.06987,-0.0079 -0.143167,-0.113244 -0.183024,-0.330183 -0.314742,-0.43439 -0.49415,-0.39088 -0.878327,-0.930924 -1.010852,-1.63693 -0.158293,-0.843278 0.207153,-1.126494 0.501529,-1.785203 0.391992,-0.877127 0.833622,-1.687843 1.376667,-2.488661 0.204896,-0.302158 0.447977,-0.576409 0.636624,-0.889488 0.535678,-0.889009 1.008645,-1.864142 1.450853,-2.798718 0.38662,-0.817093 0.842909,-1.604109 1.220209,-2.425677 0.2295,-0.499739 0.385038,-1.025031 0.581642,-1.536408 0.305267,-0.793994 0.654352,-1.577327 0.928105,-2.379918 0.130778,-0.383395 0.188508,-0.779231 0.282847,-1.169068 l 0.992221,-4.539606 C 15.627609,7.8874626 3.0988128,16.894644 2.1293133,29.846618 0.76859039,41.942283 9.5605473,52.860833 21.766526,54.233668 33.972457,55.606923 44.970442,46.914538 46.330998,34.818854 48.05446,31.10877 47.030113,21.684755 43.112296,20.74781 Z"
     sodipodi:nodetypes="cssssssssscscscssscccccsssssscscccccc" /><metadata
     id="metadata4"><rdf:RDF><cc:Work
         rdf:about=""><dc:title>fortune cookie</dc:title></cc:Work></rdf:RDF></metadata></svg>
