<?xml version="1.0" encoding="UTF-8" standalone="no"?>
<svg
   viewBox="0 0 64 64"
   version="1.1"
   id="svg12"
   sodipodi:docname="1f968.svg"
   inkscape:version="1.3.2 (091e20e, 2023-11-25, custom)"
   xmlns:inkscape="http://www.inkscape.org/namespaces/inkscape"
   xmlns:sodipodi="http://sodipodi.sourceforge.net/DTD/sodipodi-0.dtd"
   xmlns="http://www.w3.org/2000/svg"
   xmlns:svg="http://www.w3.org/2000/svg"
   xmlns:rdf="http://www.w3.org/1999/02/22-rdf-syntax-ns#"
   xmlns:cc="http://creativecommons.org/ns#"
   xmlns:dc="http://purl.org/dc/elements/1.1/">
  <title
     id="title12">pretzel</title>
  <defs
     id="defs12" />
  <sodipodi:namedview
     id="namedview12"
     pagecolor="#ffffff"
     bordercolor="#000000"
     borderopacity="0.25"
     inkscape:showpageshadow="2"
     inkscape:pageopacity="0.0"
     inkscape:pagecheckerboard="0"
     inkscape:deskcolor="#d1d1d1"
     inkscape:zoom="7.5719352"
     inkscape:cx="33.941125"
     inkscape:cy="34.007158"
     inkscape:window-width="1920"
     inkscape:window-height="991"
     inkscape:window-x="-9"
     inkscape:window-y="-9"
     inkscape:window-maximized="1"
     inkscape:current-layer="svg12" />
  <path
     fill="#f4900c"
     d="m 62.86606,28.408981 c 0,-14.71955 -10.731093,-20.2393818 -21.462186,-20.2393818 -3.10844,0 -6.209726,0.6826192 -8.942577,2.0184188 -2.732853,-1.3357996 -5.834138,-2.0184188 -8.942578,-2.0184188 -10.731093,0 -21.4621859,5.5198318 -21.4621859,20.2393818 0,5.519831 2.3501094,10.417762 5.3655465,14.719551 0.7762156,1.107645 1.6150294,2.108575 2.5039217,3.030387 -0.6385001,1.109486 -1.1017256,2.007378 -1.3932536,2.489444 -1.1106681,1.839943 0.6778474,3.679888 2.4663633,3.679888 1.234075,0 2.155161,-1.135246 3.12096,-2.726797 5.020362,3.229101 11.228299,4.56674 18.341226,4.56674 7.112925,0 13.320863,-1.337639 18.341226,-4.56674 0.965798,1.591551 1.886884,2.726797 3.12096,2.726797 1.788515,0 3.577031,-1.839945 2.466362,-3.679888 -0.291528,-0.482066 -0.754754,-1.379958 -1.393253,-2.489444 0.888892,-0.921812 1.729494,-1.924582 2.503922,-3.030387 3.015437,-4.301789 5.365546,-9.19972 5.365546,-14.719551 z m -30.404763,2.220813 c -2.54327,-2.706558 -1.788516,-5.9007 -1.788516,-5.9007 0,-1.302681 0.681425,-2.601681 1.788516,-3.742446 1.10709,1.140765 1.788515,2.439765 1.788515,3.742446 0,0 0.754754,3.194142 -1.788515,5.9007 z m -17.500624,5.028565 c -2.906338,-4.145392 -3.596706,-8.375424 -2.173047,-12.769209 1.883307,-5.810542 8.6743,-5.519832 10.731093,-5.519832 0.515093,0 1.030185,0.04416 1.539912,0.108558 -0.978318,2.071775 -1.539912,4.487622 -1.539912,7.251218 0,2.715757 1.033762,6.022136 3.489394,8.82989 -0.532978,0.137996 -1.090995,0.264952 -1.700878,0.369828 -3.410699,0.585103 -6.207938,2.064418 -8.486507,3.876762 -0.670693,-0.65318 -1.305616,-1.354199 -1.860055,-2.147215 z m 17.500624,7.470173 c -4.106432,0 -8.005396,-0.724939 -11.310572,-2.32937 1.175054,-0.684458 2.530749,-1.181243 4.15651,-1.350518 2.799026,-0.288871 5.159867,-0.96413 7.154062,-1.884103 1.994194,0.919973 4.355035,1.595232 7.154062,1.884103 1.62576,0.169275 2.981454,0.66606 4.156509,1.350518 -3.305176,1.604431 -7.20414,2.32937 -11.310571,2.32937 z m 17.500624,-7.470173 c -0.556229,0.793016 -1.189363,1.494035 -1.860057,2.147215 -2.278568,-1.812344 -5.077595,-3.291659 -8.486505,-3.876762 -0.609884,-0.104876 -1.167901,-0.231832 -1.699091,-0.369828 2.453844,-2.807754 3.487606,-6.114133 3.487606,-8.82989 0,-2.763596 -0.559806,-5.179443 -1.539912,-7.251218 0.509727,-0.0644 1.024819,-0.108558 1.539912,-0.108558 2.056792,0 8.847786,-0.29071 10.731093,5.519832 1.423658,4.393785 0.733291,8.623817 -2.173046,12.769209 z"
     id="path1"
     style="stroke-width:1.81405" />
  <path
     fill="#ad5810"
     d="m 21.284863,40.854361 c -1.420081,0.824295 -3.183557,2.156414 -4.249513,4.114114 -1.230499,2.261292 -2.178411,3.740606 -2.833008,4.680817 0.599152,0.380869 1.214402,0.739657 1.845748,1.069008 0.631346,-1.273242 1.570317,-3.041427 2.775776,-4.945769 1.373579,-2.169294 3.401756,-3.517973 4.451615,-4.117794 -0.681424,-0.241033 -1.352118,-0.494945 -1.990618,-0.800376 z m 20.911323,-0.798536 -0.0089,0.0037 c 0.561595,0.209754 1.092784,0.454467 1.584625,0.739658 -0.339817,0.165595 -0.713617,0.281512 -1.067743,0.428707 1.008723,0.763577 2.410918,2.009219 3.50549,3.738766 1.323502,2.090176 2.462786,4.080995 3.213962,5.431514 0.465015,-0.257593 0.931817,-0.511505 1.378946,-0.800376 0.336241,0.551984 0.665328,1.043249 1.005146,1.457235 0,0 -1.005146,-1.457235 -3.584185,-6.090213 -2.57904,-4.632979 -6.027298,-4.908971 -6.027298,-4.908971 z m -4.279918,-6.496841 c 0.08943,-0.101197 0.160967,-0.206074 0.246816,-0.309111 -1.015877,0.816935 -2.396611,1.941141 -3.618167,2.98439 -0.640289,0.546463 -1.364637,0.977009 -2.076467,1.332119 0.717195,0.331189 1.500565,0.61638 2.317917,0.877653 0.937182,-0.539104 2.069312,-1.284281 3.042264,-2.215293 1.001569,-0.95861 1.595356,-1.692748 1.933385,-2.26313 -0.05187,-0.0092 -0.09658,-0.0276 -0.146657,-0.0368 -0.609884,-0.104876 -1.167901,-0.231832 -1.699091,-0.369828 z M 33.504001,22.357406 c 1.309194,-1.126045 3.804173,-2.804074 7.066425,-3.070866 -0.194948,-0.596142 -0.416725,-1.172045 -0.672482,-1.720348 -1.042705,0.167435 -2.477094,0.458147 -3.859616,0.953092 -1.568529,0.561183 -2.825855,1.681708 -3.573455,2.472884 0.420302,0.434226 0.756543,0.894212 1.039128,1.365238 z"
     id="path2"
     style="stroke-width:1.81405" />
  <g
     fill="#ffe8b6"
     id="g12"
     transform="matrix(1.7885155,0,0,1.8399438,0.26801758,-1.0301198)">
    <circle
       cx="7"
       cy="22"
       r="1"
       id="circle2" />
    <circle
       cx="3"
       cy="14"
       r="1"
       id="circle3" />
    <circle
       cx="6"
       cy="11"
       r="1"
       id="circle4" />
    <circle
       cx="12"
       cy="7"
       r="1"
       id="circle5" />
    <circle
       cx="14"
       cy="27"
       r="1"
       id="circle6" />
    <circle
       cx="21"
       cy="26"
       r="1"
       id="circle7" />
    <circle
       cx="25"
       cy="27"
       r="1"
       id="circle8" />
    <circle
       cx="31"
       cy="17"
       r="1"
       id="circle9" />
    <circle
       cx="31"
       cy="9"
       r="1"
       id="circle10" />
    <circle
       cx="22"
       cy="8"
       r="1"
       id="circle11" />
    <circle
       cx="19"
       cy="9"
       r="1"
       id="circle12" />
  </g>
  <metadata
     id="metadata12">
    <rdf:RDF>
      <cc:Work
         rdf:about="">
        <dc:title>pretzel</dc:title>
      </cc:Work>
    </rdf:RDF>
  </metadata>
</svg>
