<?xml version="1.0" encoding="UTF-8" standalone="no"?>
<svg
   viewBox="0 0 64 64"
   version="1.1"
   id="svg3"
   sodipodi:docname="1f962.svg"
   xml:space="preserve"
   inkscape:version="1.3.2 (091e20e, 2023-11-25, custom)"
   xmlns:inkscape="http://www.inkscape.org/namespaces/inkscape"
   xmlns:sodipodi="http://sodipodi.sourceforge.net/DTD/sodipodi-0.dtd"
   xmlns="http://www.w3.org/2000/svg"
   xmlns:svg="http://www.w3.org/2000/svg"
   xmlns:rdf="http://www.w3.org/1999/02/22-rdf-syntax-ns#"
   xmlns:cc="http://creativecommons.org/ns#"
   xmlns:dc="http://purl.org/dc/elements/1.1/"><defs
     id="defs3"><inkscape:perspective
       sodipodi:type="inkscape:persp3d"
       inkscape:vp_x="0 : 32 : 1"
       inkscape:vp_y="0 : 1000 : 0"
       inkscape:vp_z="64 : 32 : 1"
       inkscape:persp3d-origin="32 : 21.333333 : 1"
       id="perspective1" /></defs><sodipodi:namedview
     id="namedview3"
     pagecolor="#ffffff"
     bordercolor="#000000"
     borderopacity="0.25"
     inkscape:showpageshadow="2"
     inkscape:pageopacity="0.0"
     inkscape:pagecheckerboard="0"
     inkscape:deskcolor="#d1d1d1"
     inkscape:zoom="8.518427"
     inkscape:cx="22.715461"
     inkscape:cy="35.511251"
     inkscape:window-width="1920"
     inkscape:window-height="991"
     inkscape:window-x="-9"
     inkscape:window-y="-9"
     inkscape:window-maximized="1"
     inkscape:current-layer="svg3" /><title
     id="title1">chopsticks</title><metadata
     id="metadata8"><rdf:RDF><cc:Work
         rdf:about=""><dc:title>chopsticks</dc:title></cc:Work></rdf:RDF></metadata><path
     id="path9"
     style="display:inline;fill:#ff5a79;fill-opacity:1;fill-rule:evenodd;stroke-width:3.39929"
     d="m 31.25108,11.024679 5.195777,-7.4316321 4.01899,3.1113044 -4.692894,7.1476477 z m 4.521873,2.82732 -4.521873,-2.82732 -27.3898038,39.169025 c 0,0 -0.2902113,0.113431 0.2056322,0.682816 0.4958437,0.569385 4.813016,3.931938 4.813016,3.931938 z m 12.895788,8.206326 6.653525,-6.136995 3.273827,3.923584 -6.116031,5.984563 z m 3.811321,3.771152 -3.811321,-3.771152 -34.916759,32.213484 c 0,0 -0.308257,0.04686 0.05701,0.712051 0.365265,0.665189 3.878509,4.898738 3.878509,4.898738 z"
     sodipodi:nodetypes="ccccccccsccccccccccscc" /><path
     id="path9-4"
     style="fill:#000000;fill-opacity:1;fill-rule:evenodd;stroke-width:3.39929"
     d="m 31.251553,11.024528 5.195777,-7.4316314 4.01899,3.1113044 -4.692893,7.147648 z m 4.521874,2.827321 -4.521874,-2.827321 z m 12.895787,8.206325 6.653525,-6.136995 3.273828,3.923584 -6.116031,5.984563 z m 3.811322,3.771152 -3.811322,-3.771152 z"
     sodipodi:nodetypes="cccccccccccccccc" /></svg>
