<?xml version="1.0" encoding="UTF-8" standalone="no"?>
<svg
   viewBox="0 0 64 64"
   version="1.1"
   id="svg3"
   sodipodi:docname="1f963.svg"
   inkscape:version="1.3.2 (091e20e, 2023-11-25, custom)"
   xmlns:inkscape="http://www.inkscape.org/namespaces/inkscape"
   xmlns:sodipodi="http://sodipodi.sourceforge.net/DTD/sodipodi-0.dtd"
   xmlns="http://www.w3.org/2000/svg"
   xmlns:svg="http://www.w3.org/2000/svg"
   xmlns:rdf="http://www.w3.org/1999/02/22-rdf-syntax-ns#"
   xmlns:cc="http://creativecommons.org/ns#"
   xmlns:dc="http://purl.org/dc/elements/1.1/">
  <defs
     id="defs3" />
  <sodipodi:namedview
     id="namedview3"
     pagecolor="#ffffff"
     bordercolor="#000000"
     borderopacity="0.25"
     inkscape:showpageshadow="2"
     inkscape:pageopacity="0.0"
     inkscape:pagecheckerboard="0"
     inkscape:deskcolor="#d1d1d1"
     inkscape:zoom="12.046875"
     inkscape:cx="31.958495"
     inkscape:cy="32"
     inkscape:window-width="1920"
     inkscape:window-height="991"
     inkscape:window-x="-9"
     inkscape:window-y="-9"
     inkscape:window-maximized="1"
     inkscape:current-layer="svg3" />
  <title
     id="title1">bowl with spoon</title>
  <path
     id="path4"
     style="fill:#009eff;fill-rule:evenodd;stroke-width:3.22"
     d="m 59.019454,34.407265 c -1e-6,12.03422 -11.678184,26.5214 -27.517509,26.5214 -15.839325,0 -26.853435,-12.577971 -26.8534358,-24.612191 0,-12.03422 11.0971198,-16.228274 26.9364448,-16.228274 15.839326,0 27.4345,2.284845 27.4345,14.319065 z"
     sodipodi:nodetypes="sssss" />
  <ellipse
     style="fill:#0074ba;fill-opacity:1;fill-rule:evenodd;stroke-width:4.81324"
     id="path5"
     cx="31.709467"
     cy="33.494164"
     rx="24.238649"
     ry="11.911803" />
  <path
     fill="#d0d0d0"
     d="m 49.267189,18.741139 -6.501508,7.362393 c -1.937948,2.194559 -0.250058,7.787144 -5.376246,13.592107 -3.62584,4.10595 -9.564716,6.371302 -12.002781,3.610405 -2.438065,-2.760898 -0.437601,-9.48616 3.188239,-13.592109 5.126188,-5.804963 10.002318,-3.893573 12.002782,-6.088131 l 6.501506,-7.362393 c 2.688123,-3.044065 2.875667,-4.105949 7.064138,-10.4772502 2.062978,-3.1856504 4.063441,-5.1678329 6.501506,-2.4069359 2.50058,2.8316893 0.68766,5.0262486 -2.125493,7.3623921 -5.626303,4.743079 -6.501506,4.955457 -9.252143,7.999522"
     id="path1"
     style="stroke-width:0.665248" />
  <path
     fill="#ffffff"
     d="m 32.991897,41.665605 c 3.375781,-4.884663 4.501043,-10.548042 2.750636,-14.229238 0.12503,0 0.250059,-0.07079 0.312573,-0.07079 1.187775,0 2.250522,0.353961 3.000695,1.203468 0.750174,0.849507 1.25029,2.052975 1.062747,3.398027 -0.250058,1.982183 -1.187775,4.247534 -3.250753,6.583678 -1.125262,1.345052 -2.50058,2.406936 -3.875898,3.114857"
     id="path2"
     style="stroke-width:0.665248" />
  <path
     fill="#94989b"
     d="m 31.491549,29.064588 c -4.3135,4.884665 -5.751333,11.185173 -3.438297,14.441616 -0.812688,-0.07079 -1.437833,-0.353961 -1.93795,-0.920299 -1.937948,-2.19456 -0.375086,-8.282691 3.18824,-12.317849 1.437833,-1.628221 2.875666,-2.619312 4.18847,-3.256442 0,0 0,0.07079 -0.06251,0.07079 -0.687659,0.566339 -1.312804,1.274261 -1.937949,1.982183"
     id="path3"
     style="stroke-width:0.665248" />
  <ellipse
     style="fill:#ffffff;fill-opacity:1;fill-rule:evenodd;stroke-width:3.12859"
     id="path6"
     cx="31.626459"
     cy="33.909206"
     rx="22.57847"
     ry="10.500648" />
  <metadata
     id="metadata6">
    <rdf:RDF>
      <cc:Work
         rdf:about="">
        <dc:title>bowl with spoon</dc:title>
      </cc:Work>
    </rdf:RDF>
  </metadata>
</svg>
