<?xml version="1.0" encoding="UTF-8" standalone="no"?>
<svg
   viewBox="0 0 64 64"
   version="1.1"
   id="svg3"
   sodipodi:docname="1f961.svg"
   xml:space="preserve"
   inkscape:version="1.3.2 (091e20e, 2023-11-25, custom)"
   xmlns:inkscape="http://www.inkscape.org/namespaces/inkscape"
   xmlns:sodipodi="http://sodipodi.sourceforge.net/DTD/sodipodi-0.dtd"
   xmlns="http://www.w3.org/2000/svg"
   xmlns:svg="http://www.w3.org/2000/svg"
   xmlns:rdf="http://www.w3.org/1999/02/22-rdf-syntax-ns#"
   xmlns:cc="http://creativecommons.org/ns#"
   xmlns:dc="http://purl.org/dc/elements/1.1/"><defs
     id="defs3" /><sodipodi:namedview
     id="namedview3"
     pagecolor="#ffffff"
     bordercolor="#000000"
     borderopacity="0.25"
     inkscape:showpageshadow="2"
     inkscape:pageopacity="0.0"
     inkscape:pagecheckerboard="0"
     inkscape:deskcolor="#d1d1d1"
     inkscape:zoom="12.046875"
     inkscape:cx="31.335927"
     inkscape:cy="30.007782"
     inkscape:window-width="1920"
     inkscape:window-height="991"
     inkscape:window-x="-9"
     inkscape:window-y="-9"
     inkscape:window-maximized="1"
     inkscape:current-layer="svg3" /><title
     id="title1">takeout box</title><path
     style="fill:#b0bdc6;fill-opacity:1;fill-rule:evenodd;stroke-width:2.86882"
     d="M 9.7247598,20.252465 9.8622509,56.611872 30.210928,62.022024 31.860821,30.515843 Z"
     id="path5" /><path
     style="fill:#cad5dd;fill-opacity:1;fill-rule:evenodd;stroke-width:2.69932"
     d="M 53.515664,19.336774 54.890575,57.443573 30.142183,61.951586 29.454727,29.057178 Z"
     id="path6" /><g
     fill="#b0bdc6"
     id="g1"
     transform="matrix(0.43940404,0.13966122,-0.38199637,0.20940525,28.05474,9.5483859)"><path
       d="M 0.6,48.7 19.1,29.4 4.9,8.9 C 4.2,9.8 3.7,11 3.6,12.4 L 0,45.1 c -0.1,1.4 0.1,2.6 0.6,3.6 M 62.7,5.5 35.9,30.4 57,58.9 c 1.2,-1 2,-2.5 2.2,-4.3 L 64,10 C 64.2,8.2 63.6,6.5 62.7,5.5"
       id="path1" /></g><path
     fill="#cad5dd"
     d="m 24.296765,21.388248 0.919898,-3.015819 -15.5015045,1.457789 c -0.1680354,0.244329 -0.089658,0.467734 0.1854726,0.621346 l 18.6545619,9.105081 c 0.500565,0.258346 1.26279,0.335204 2.04599,0.286399 l 1.615472,-8.9149 -7.91989,0.460104"
     id="path2"
     style="stroke-width:0.381266" /><path
     fill="#dfe9ef"
     d="M 52.583413,18.667917 28.309536,12.11052 c -0.433667,-0.104754 -0.932246,-0.09781 -1.501485,-0.01409 l -1.547472,6.289956 -0.919898,3.015817 7.919915,-0.460096 21.243796,-1.485237 c -0.01347,-0.335102 -0.311553,-0.628337 -0.920979,-0.788956"
     id="path3"
     style="stroke-width:0.381266" /><path
     style="fill:#b0bdc6;fill-opacity:1;fill-rule:evenodd;stroke-width:2.69932"
     d="M 29.523473,29.62068 41.141468,34.410443 43.203834,59.486266 39.904048,35.326134 29.454727,31.311185 Z"
     id="path7" /><path
     style="fill:#b0bdc6;fill-opacity:1;fill-rule:evenodd;stroke-width:2.69932"
     d="M 38.047919,33.635629 53.378173,19.900276 39.560321,34.340006 Z"
     id="path8" /><path
     fill="#000000"
     d="m 20.035461,33.631783 c 0.675834,0.757273 1.707834,1.310824 2.830383,1.854738 0.734662,0.355971 1.504508,0.699669 2.235055,1.045715 -0.249702,-0.01603 -0.502178,-0.0319 -0.741178,-0.04883 -0.728862,-0.05157 -1.406276,-0.130645 -1.576638,-0.185359 l -5.497306,-1.69659 -0.0058,-0.0016 c -0.158122,-0.0426 -0.838279,-0.379612 -1.566182,-0.779506 -0.241292,-0.132569 -0.496655,-0.275061 -0.749166,-0.415475 0.732153,0.104977 1.503959,0.236853 2.240439,0.334581 1.122513,0.148998 2.154513,0.232407 2.830382,-0.107701 z m 1.886466,3.01591 v 0.579212 l -3.772936,-1.164411 v -0.579212 z m 0.116409,1.266753 a 1.0246237,0.7559972 54.360931 0 0 0.156509,0.203238 c 0.130305,0.14024 0.285269,0.266221 0.469936,0.401188 0.369336,0.269903 0.85704,0.566127 1.411694,0.883666 0.638382,0.365461 1.352563,0.752975 2.060331,1.137786 l -1.721209,-0.226969 -8.744978,-2.698893 -1.73349,-0.83995 c 0.706774,0.05197 1.419855,0.10515 2.057279,0.133722 0.554689,0.02483 1.042358,0.02962 1.411728,-0.0123 0.184667,-0.02098 0.339631,-0.05131 0.469902,-0.111135 a 1.0246237,0.7559972 54.360931 0 0 0.156509,-0.106634 z m 0.981169,2.547257 v 1.086023 L 21.441733,41.06079 v -1.086023 z m -2.19516,-0.677476 v 1.086023 l -1.577772,-0.486935 v -1.086023 z m -2.195161,-0.677475 v 1.086023 L 17.051413,39.70584 v -1.086023 z m 4.49744,3.125642 c 0.04272,0.07292 0.09192,0.141065 0.142548,0.204074 0.123203,0.153286 0.275766,0.303253 0.45903,0.466209 0.366523,0.325866 0.855664,0.69682 1.41238,1.088988 0.688802,0.485205 1.475697,0.994608 2.240778,1.466972 l -1.883514,-0.249985 -10.940138,-3.376369 -1.870451,-0.90788 c 0.765806,-4.7e-5 1.553556,-0.02373 2.243078,-0.08384 0.556682,-0.04855 1.045857,-0.117573 1.412381,-0.217204 0.183263,-0.04984 0.335792,-0.105647 0.458996,-0.182886 0.05066,-0.03175 0.09981,-0.06955 0.142581,-0.116078 z m 0.990463,3.201739 v 1.086022 l -8.163256,-2.519361 v -1.086022 z m 0.107119,1.770695 c 0.04272,0.07292 0.09192,0.141062 0.142548,0.204075 0.123203,0.153286 0.275766,0.303253 0.459026,0.466202 0.366523,0.325871 0.855669,0.696827 1.412384,1.088994 0.689483,0.485707 1.477273,0.995638 2.243044,1.468394 L 26.610757,50.185818 13.475459,46.131974 11.591975,45.219382 c 0.765046,-1.39e-4 1.551946,-0.02383 2.240782,-0.08386 0.556677,-0.04855 1.045857,-0.117572 1.412381,-0.217209 0.183259,-0.04984 0.335787,-0.105642 0.458991,-0.182883 0.05066,-0.03175 0.09981,-0.06954 0.142582,-0.116077 z m 2.088041,3.540475 v 1.665235 l -4.870514,-1.503147 v -1.665235 z m -5.487902,-1.693688 v 1.665236 L 19.246573,50.229915 V 48.56468 Z m -2.195161,-0.677474 v 1.665235 L 13.75867,48.536227 v -1.665235 z"
     id="path1-5"
     style="fill:#ff5a79;fill-opacity:1;stroke-width:0.0352373" /><g
     fill="#a6aeb0"
     opacity="0.6"
     id="g10"
     transform="translate(5.4926817,-1.0930997)"><path
       d="M 27.9,11.4 C 24.2,7.6 26.6,2 26.6,2 c 0,0 -7.8,7.4 -2.9,12.5 5.7,5.9 2.9,9.5 2.9,9.5 0,0 7.1,-6.6 1.3,-12.6 M 16.8,14.8 C 14.1,12.1 15.9,8 15.9,8 c 0,0 -5.8,5.4 -2.1,9.1 4.2,4.3 2.1,6.9 2.1,6.9 0,0 5.3,-4.8 0.9,-9.2 m 22,0 C 36.1,12.1 37.9,8 37.9,8 c 0,0 -5.8,5.4 -2.1,9.1 4.2,4.3 2.1,6.9 2.1,6.9 0,0 5.3,-4.8 0.9,-9.2"
       id="path10" /></g><metadata
     id="metadata8"><rdf:RDF><cc:Work
         rdf:about=""><dc:title>takeout box</dc:title></cc:Work></rdf:RDF></metadata></svg>
