<?xml version="1.0" encoding="UTF-8" standalone="no"?>
<svg
   viewBox="0 0 64 64"
   version="1.1"
   id="svg9"
   sodipodi:docname="1f964.svg"
   xml:space="preserve"
   inkscape:version="1.3.2 (091e20e, 2023-11-25, custom)"
   xmlns:inkscape="http://www.inkscape.org/namespaces/inkscape"
   xmlns:sodipodi="http://sodipodi.sourceforge.net/DTD/sodipodi-0.dtd"
   xmlns="http://www.w3.org/2000/svg"
   xmlns:svg="http://www.w3.org/2000/svg"
   xmlns:rdf="http://www.w3.org/1999/02/22-rdf-syntax-ns#"
   xmlns:cc="http://creativecommons.org/ns#"
   xmlns:dc="http://purl.org/dc/elements/1.1/"><defs
     id="defs9"><inkscape:perspective
       sodipodi:type="inkscape:persp3d"
       inkscape:vp_x="0 : 32 : 1"
       inkscape:vp_y="0 : 1000 : 0"
       inkscape:vp_z="64 : 32 : 1"
       inkscape:persp3d-origin="32 : 21.333333 : 1"
       id="perspective1" /></defs><sodipodi:namedview
     id="namedview9"
     pagecolor="#ffffff"
     bordercolor="#000000"
     borderopacity="0.25"
     inkscape:showpageshadow="2"
     inkscape:pageopacity="0.0"
     inkscape:pagecheckerboard="0"
     inkscape:deskcolor="#d1d1d1"
     inkscape:zoom="11.313709"
     inkscape:cx="34.471456"
     inkscape:cy="31.952388"
     inkscape:window-width="1920"
     inkscape:window-height="991"
     inkscape:window-x="-9"
     inkscape:window-y="-9"
     inkscape:window-maximized="1"
     inkscape:current-layer="svg9" /><title
     id="title1">cup with straw</title><path
     fill="#a1b8c7"
     d="m 32.459709,10.558505 c -8.587433,0 -15.613515,3.273794 -15.613515,7.236809 0,0 0,24.122698 6.679115,37.648639 1.111217,4.019891 4.337087,6.806047 8.9344,6.806047 4.510571,0 8.240466,-2.929185 8.9344,-6.806047 6.679114,-13.525941 6.679114,-37.648639 6.679114,-37.648639 0,-3.963015 -7.026081,-7.236809 -15.613514,-7.236809"
     opacity=".8"
     id="path1"
     style="opacity:1;fill:#69c4ff;fill-opacity:1;stroke-width:0.864466"
     sodipodi:nodetypes="cccsccc" /><path
     fill="#555e63"
     d="m 32.459709,10.558505 c -8.587433,0 -15.613515,3.273794 -15.613515,7.236809 0,3.963015 7.026082,7.236809 15.613515,7.236809 8.587433,0 15.613514,-3.273794 15.613514,-7.236809 0,-3.963015 -7.026081,-7.236809 -15.613514,-7.236809 m 0,12.578264 c -7.893499,0 -14.312389,-2.584575 -14.312389,-5.772217 0,-3.187643 6.41889,-6.20298 14.312389,-6.20298 7.893499,0 14.312388,3.015337 14.312388,6.20298 0,3.187642 -6.418889,5.772217 -14.312388,5.772217"
     opacity=".3"
     id="path9"
     style="opacity:1;fill:#b2e1ff;fill-opacity:1;stroke-width:0.864466" /><path
     fill="#555e63"
     d="m 32.459709,23.136769 c -7.893499,0 -14.312389,-2.584575 -14.312389,-5.772217 0,-3.187643 6.41889,-6.20298 14.312389,-6.20298 7.893499,0 14.312388,3.015337 14.312388,6.20298 0,3.187642 -6.418889,5.772217 -14.312388,5.772217"
     opacity="0.3"
     id="path9-1"
     style="opacity:1;fill:#006aad;fill-opacity:1;stroke-width:0.864466"
     sodipodi:nodetypes="csssc" /><path
     style="opacity:1;fill:#ff5a79;fill-opacity:1;fill-rule:evenodd;stroke-width:3.22"
     d="M 27.056788,22.713815 26.799436,9.4423881 12.480524,2.3713203 11.773417,4.6694174 24.236174,10.679825 24.980888,22.288953 c 0.681814,0.158541 1.363588,0.31715 2.0759,0.424862 z"
     id="path10"
     sodipodi:nodetypes="ccccccc" /><metadata
     id="metadata10"><rdf:RDF><cc:Work
         rdf:about=""><dc:title>cup with straw</dc:title></cc:Work></rdf:RDF></metadata></svg>
