<?xml version="1.0" encoding="UTF-8" standalone="no"?>
<svg
   viewBox="0 0 64 64"
   version="1.1"
   id="svg11"
   sodipodi:docname="1f967.svg"
   inkscape:version="1.3.2 (091e20e, 2023-11-25, custom)"
   xmlns:inkscape="http://www.inkscape.org/namespaces/inkscape"
   xmlns:sodipodi="http://sodipodi.sourceforge.net/DTD/sodipodi-0.dtd"
   xmlns="http://www.w3.org/2000/svg"
   xmlns:svg="http://www.w3.org/2000/svg"
   xmlns:rdf="http://www.w3.org/1999/02/22-rdf-syntax-ns#"
   xmlns:cc="http://creativecommons.org/ns#"
   xmlns:dc="http://purl.org/dc/elements/1.1/">
  <title
     id="title11">pie</title>
  <defs
     id="defs11" />
  <sodipodi:namedview
     id="namedview11"
     pagecolor="#ffffff"
     bordercolor="#000000"
     borderopacity="0.25"
     inkscape:showpageshadow="2"
     inkscape:pageopacity="0.0"
     inkscape:pagecheckerboard="0"
     inkscape:deskcolor="#d1d1d1"
     inkscape:zoom="10.708334"
     inkscape:cx="27.642023"
     inkscape:cy="33.478599"
     inkscape:window-width="1920"
     inkscape:window-height="991"
     inkscape:window-x="-9"
     inkscape:window-y="-9"
     inkscape:window-maximized="1"
     inkscape:current-layer="svg11" />
  <path
     fill="#f4900c"
     d="m 13.268061,3.8328291 c 0,0 0.760509,-1.8238616 3.02202,-1.5238245 2.261511,0.300037 17.588118,2.8967214 24.882083,6.2807756 7.295785,3.3822358 15.517643,7.3809118 20.66472,13.4271128 1.364548,1.605653 0.809632,2.780343 0.809632,2.780343 l -1.884897,13.525307 c 0,0 -0.545819,2.707607 -3.160293,3.429514 L 3.7689858,56.579343 c 0,0 -2.7418324,0.625532 -2.7418324,-2.194816 V 40.262783 c 0,0 0.2765485,-1.696573 0.9479062,-3.682273 C 2.644598,34.589355 13.268061,3.8328291 13.268061,3.8328291 Z"
     id="path1"
     style="stroke-width:1.8189" />
  <path
     fill="#a0041e"
     d="M 54.897701,35.500376 C 46.80502,27.757602 27.59036,18.736488 13.353573,17.379957 c -0.402087,-0.03273 -0.791438,0.207298 -0.922435,0.598255 0,0 -11.4221786,33.840543 -11.4221786,34.400612 0,0.272761 0.1273579,0.532793 0.3402274,0.701905 0.1564682,0.120015 0.3511438,0.185478 0.5458193,0.185478 0.070956,0 0.1437325,-0.0091 0.2165084,-0.02546 L 55.636376,38.484381 c 0.338408,-0.08728 0.507612,-0.280034 0.567652,-0.625532 0.110983,-0.60371 -0.138274,-1.24379 -1.306327,-2.358473 z"
     id="path2"
     style="stroke-width:1.8189" />
  <path
     fill="#a0041e"
     d="M 56.196751,37.922494 1.0271534,52.742506 V 39.809999 c 0,0 9.6992096,-21.775416 11.6386876,-35.0134145 C 43.133475,9.1934912 57.699573,25.00999 57.699573,25.00999 Z"
     id="path3"
     style="stroke-width:1.8189" />
  <path
     fill="#be1931"
     d="m 14.104984,44.565132 c 0,2.583956 -2.094127,4.676941 -4.6813101,4.676941 -2.5871836,0 -4.6813103,-2.092985 -4.6813103,-4.676941 0,-2.585774 2.0941267,-4.678759 4.6813103,-4.678759 2.5853641,0 4.6813101,2.092985 4.6813101,4.678759 z m 9.096989,-7.273625 c 0,2.583955 -2.094127,4.676941 -4.68131,4.676941 -2.587184,0 -4.681311,-2.092986 -4.681311,-4.676941 0,-2.585774 2.094127,-4.67876 4.681311,-4.67876 2.585364,0 4.68131,2.092986 4.68131,4.67876 z m 10.916386,1.818406 c 0,2.583955 -2.094127,4.676941 -4.68131,4.676941 -2.587184,0 -4.68131,-2.092986 -4.68131,-4.676941 0,-2.585774 2.094126,-4.67876 4.68131,-4.67876 2.585364,0 4.68131,2.092986 4.68131,4.67876 z m 9.096989,-7.273626 c 0,2.583956 -2.094127,4.676942 -4.681311,4.676942 -2.587183,0 -4.68131,-2.092986 -4.68131,-4.676942 0,-2.585773 2.094127,-4.678759 4.68131,-4.678759 2.585365,0 4.681311,2.092986 4.681311,4.678759 z m 10.916386,1.818407 c 0,2.583955 -2.094127,4.676941 -4.68131,4.676941 -2.587184,0 -4.681311,-2.092986 -4.681311,-4.676941 0,-2.585774 2.094127,-4.67876 4.681311,-4.67876 2.585364,0 4.68131,2.092986 4.68131,4.67876 z"
     id="path4"
     style="stroke-width:1.8189" />
  <path
     fill="#f4900c"
     d="M 57.603145,22.68243 C 49.508645,14.939655 27.59218,6.0076432 13.353573,4.651112 c -0.402087,-0.03455 -0.791438,0.2072983 -0.922435,0.5982557 0,0 -9.0642391,25.1431053 -11.2675298,32.0421393 -0.31839455,0.996486 -0.1546488,2.287555 -0.1546488,2.358473 0,0.272761 0.1273579,0.532793 0.3402274,0.701905 0.1564682,0.120014 0.3511438,0.185477 0.5458193,0.185477 0.070956,0 0.1437325,-0.0091 0.2165084,-0.02546 L 58.143506,26.42471 c 0.338408,-0.08547 0.593124,-0.361863 0.653164,-0.70736 0.109164,-0.601893 -0.02729,-1.918419 -1.193525,-3.03492 z"
     id="path5"
     style="stroke-width:1.8189" />
  <path
     fill="#f4900c"
     d="M 57.603145,22.68243 C 49.508645,14.939655 27.59218,6.0076432 13.353573,4.651112 c -0.402087,-0.03455 -0.791438,0.2072983 -0.922435,0.5982557 0,0 -11.4221786,32.0221363 -11.4221786,32.5822053 0,0.272761 0.1273579,0.532793 0.3402274,0.701905 0.1564682,0.120015 0.3511438,0.185478 0.5458193,0.185478 0.070956,0 0.1437325,-0.0091 0.2165084,-0.02546 L 57.046409,24.620851 c 0.336589,-0.08546 0.593124,-0.361863 0.653164,-0.70736 0.109164,-0.601893 1.069806,-0.11456 -0.09643,-1.231061 z"
     id="path6"
     style="stroke-width:1.8189" />
  <path
     fill="#ffcc4d"
     d="m 16.764944,34.940307 -3.334956,-4.466006 8.110875,-0.9583 2.612655,3.531345 10.159517,-2.602139 -1.677485,-2.240277 7.67422,-0.907385 1.038876,1.40381 10.135864,-2.6476 -0.05276,-0.07092 0.591304,-0.0691 6.573484,-1.716576 C 58.416416,23.704374 58.119854,23.177036 57.603145,22.684248 56.489674,21.618662 55.092376,20.531255 53.51132,19.44203 l -6.493431,0.645534 -3.531451,-4.718765 2.576267,-0.303674 C 39.813074,11.862912 32.360821,8.9534615 25.29428,7.0004931 l 2.614475,3.5349819 -7.910742,0.785552 -3.038394,-4.0623202 6.417016,-0.7582755 C 19.82699,5.5985017 16.408342,4.942057 13.353573,4.651112 c -0.402087,-0.03455 -0.791438,0.2072983 -0.922435,0.5982557 0,0 -2.5034909,6.5208053 -5.0360925,14.0762843 l 6.2823805,-0.436418 3.10935,4.202337 -8.2582458,0.820101 -1.8594244,-2.434846 C 5.35732,25.393674 3.8162901,29.408715 2.7574007,32.612747 l 3.8644007,4.926063 z m 15.683208,-18.269529 3.351331,4.529651 -7.82523,0.778277 -3.285832,-4.391451 z"
     id="path7"
     style="stroke-width:1.8189" />
  <path
     fill="#f4900c"
     d="m 18.970054,29.936053 c 1.468254,-0.396413 4.402942,-2.249369 7.301243,-2.6476 2.90012,-0.398231 6.424293,1.121957 7.474086,0.998305 l 4.208267,-0.496425 c 0.938809,-0.110923 5.147076,-2.433027 7.592346,-2.774888 2.445271,-0.34186 5.722006,1.385626 6.897337,1.061949 0,0 1.306328,0.369137 0,0.534612 -1.306327,0.165475 -4.732253,-1.172872 -6.633524,-0.858288 -2.732735,0.454602 -4.68131,2.022068 -7.856159,2.53304 -1.914007,0.307311 -3.260361,0.558251 -4.404762,0.649171 -2.117779,0.17093 -4.730434,-1.416538 -7.40313,-0.961937 -2.672695,0.454602 -4.139129,2.260279 -7.177524,2.553043 -1.799384,0.174567 -1.120749,-0.287308 0.0018,-0.590982 z m -7.859798,5.384301 c 2.17236,-0.505517 4.675852,-1.349257 5.654688,-0.381865 l -4.896,1.876595 -5.2471426,0.721907 c -0.00182,0.0018 0.1673846,-1.211058 4.4884546,-2.216637 z m 17.928345,-4.640573 c 2.709083,-0.647353 4.482996,-0.772823 5.272614,-0.234574 l -4.948761,1.863866 -5.210756,0.738273 c 0.0018,0 0.451211,-1.307434 4.886903,-2.367565 z"
     id="path8"
     style="stroke-width:1.8189" />
  <path
     fill="#f4900c"
     d="m 45.980832,26.473807 c 1.968589,-0.540067 4.510287,-0.796462 5.154354,-0.643716 0,0 5.198019,-1.347439 7.261216,-1.583832 0,0 -4.737711,1.6202 -6.207785,2.000247 -1.470073,0.378229 -10.736266,2.938545 -10.841791,2.454849 -0.103705,-0.483696 1.60289,-1.392899 4.634006,-2.227548 z"
     id="path9"
     style="stroke-width:1.8189" />
  <path
     fill="#ffcc4d"
     d="m 2.7555813,32.612747 c 0,0 -0.1364549,-2.176632 1.3791034,-6.108027 1.5155583,-3.931395 2.1832773,-5.486132 2.5326017,-5.027894 0.3493243,0.458239 -1.0170434,5.453401 -1.5483075,6.66446 -0.5312641,1.211058 -1.3772841,3.709549 -1.7811904,4.204155 -0.4020869,0.496425 -0.5822072,0.267306 -0.5822072,0.267306 z M 7.3950455,19.323833 c 0,0 0.1128026,-2.774888 0.7950768,-4.707854 0.6822741,-1.932966 1.9067287,-3.05856 2.0704747,-3.511343 0.163746,-0.452783 0.127358,-2.7403381 0.582207,-3.8004691 0.45485,-1.0601309 1.379104,-3.1112933 2.50895,-2.6548733 1.129846,0.45642 -2.53806,7.8464234 -2.976535,9.3229694 -0.4402943,1.478365 -2.9801735,5.35157 -2.9801735,5.35157 z"
     id="path10"
     style="stroke-width:1.8189" />
  <path
     fill="#f4900c"
     d="m 11.692463,19.025614 c 1.468254,-0.396412 4.401123,-2.249368 7.301243,-2.647599 2.90012,-0.398231 6.424293,1.121957 7.474086,0.998305 l 4.208267,-0.496425 c 0.938809,-0.110923 5.147076,-2.433028 7.592346,-2.774888 2.445271,-0.341861 5.722006,1.385625 6.897337,1.061949 0,0 1.306328,0.369137 0,0.534612 -1.306327,0.165475 -4.732253,-1.172873 -6.633524,-0.858288 -2.732735,0.454601 -4.68131,2.023886 -7.856159,2.53304 -1.914007,0.307311 -3.260361,0.558251 -4.404762,0.649171 -2.117779,0.17093 -4.730434,-1.416539 -7.40313,-0.961937 -2.672695,0.454602 -4.139129,2.260279 -7.177524,2.553043 -1.7993839,0.174567 -1.120749,-0.287309 0.0018,-0.590983 z m 3.613324,11.225023 c -1.380923,0.163657 -3.291291,-1.409265 -6.73723,-0.794643 -3.4477587,0.616439 -5.8129757,3.156753 -5.8129757,3.156753 l 0.2219665,1.041947 c 0,0 -0.8733109,-0.612803 0.3402274,-0.989213 1.2135382,-0.37641 2.4852972,-2.240277 5.4418185,-2.558498 2.9565213,-0.318221 3.9226213,0.705542 5.9130423,0.761912 1.990421,0.05637 0.633151,-0.618258 0.633151,-0.618258 z m 34.845105,-4.409635 2.872829,0.167293 0.765966,-0.594619 -0.51125,1.618382 -2.38887,0.736454 z M 12.170964,6.7186401 c 2.672696,-0.738273 4.413859,0.5855268 6.347879,0.3564076 1.93402,-0.2291192 1.961311,0.3036739 0.474863,0.6091662 -1.486448,0.3054922 -5.203478,-0.9910315 -6.742688,-0.4891514 -1.539211,0.5018802 -1.792107,2.0911674 -1.792107,2.0911674 l 0.254716,-1.5892872 c -0.0018,0 -0.296562,-0.4946065 1.457337,-0.9783026 z m 3.586033,16.4729439 c 3.74796,-0.600075 4.009953,-1.540191 6.819103,-2.098441 2.558073,-0.509154 4.150046,0.696449 5.58737,0.696449 2.336107,0 1.622903,-1.42563 0.836923,-1.091044 -1.648374,0.701905 -4.974233,-1.294705 -8.243691,0 -1.668387,0.660082 -2.436173,1.572922 -4.999705,1.89478 -2.561712,0.320039 -1.342715,0.814646 0,0.598256 z m 18.870794,-1.874777 c 1.564682,-0.154565 3.980842,-1.603835 6.367892,-1.991155 2.387049,-0.389139 4.524842,0.909203 6.020387,0.761912 1.495545,-0.14911 1.801203,-0.952845 0.63315,-0.834649 -1.168053,0.118197 -4.150046,-1.167417 -7.050166,-0.600074 -2.90012,0.567343 -4.037244,1.762036 -5.971263,2.045707 -1.932201,0.281853 -1.171693,0.734637 0,0.618259 z M 5.1426311,23.944404 c 1.3008693,-0.341861 2.6545012,0.429144 4.0736315,-0.101831 1.4191304,-0.530975 1.5137384,-1.156506 0.2074113,-0.814646 -1.3063276,0.34186 -2.8218859,-0.245485 -3.9881198,0.218209 z m 9.5864069,-13.13435 c 2.465284,-0.110922 3.828012,0.65099 5.580092,0.476423 1.750261,-0.174567 1.017044,-0.620077 -0.261993,-0.549159 -1.280856,0.07274 -3.133003,-0.7800962 -5.789323,-0.269124 -2.656321,0.510972 -2.523505,1.040128 -4.5794244,1.485638 l -0.4639464,0.654626 c 0,0 0.9278928,-0.190932 1.9704078,-0.654626 1.042515,-0.461875 2.183277,-1.08377 3.544187,-1.143778 z M 27.521223,10.570025 C 29.135029,10.473649 30.4923,9.2862299 32.218908,9.1680335 L 31.21642,8.8225363 c 0,0 -2.048642,1.0692229 -3.697016,1.1874197 -1.646555,0.118196 -1.704776,0.6619 0.0018,0.560069 z"
     id="path11"
     style="stroke-width:1.8189" />
  <metadata
     id="metadata11">
    <rdf:RDF>
      <cc:Work
         rdf:about="">
        <dc:title>pie</dc:title>
      </cc:Work>
    </rdf:RDF>
  </metadata>
</svg>
