<?xml version="1.0" encoding="UTF-8" standalone="no"?>
<svg
   viewBox="0 0 64 64"
   version="1.1"
   id="svg22"
   sodipodi:docname="1f966.svg"
   xml:space="preserve"
   inkscape:version="1.3.2 (091e20e, 2023-11-25, custom)"
   xmlns:inkscape="http://www.inkscape.org/namespaces/inkscape"
   xmlns:sodipodi="http://sodipodi.sourceforge.net/DTD/sodipodi-0.dtd"
   xmlns="http://www.w3.org/2000/svg"
   xmlns:svg="http://www.w3.org/2000/svg"
   xmlns:rdf="http://www.w3.org/1999/02/22-rdf-syntax-ns#"
   xmlns:cc="http://creativecommons.org/ns#"
   xmlns:dc="http://purl.org/dc/elements/1.1/"><title
     id="title22">broccoli</title><defs
     id="defs22" /><sodipodi:namedview
     id="namedview22"
     pagecolor="#ffffff"
     bordercolor="#000000"
     borderopacity="0.25"
     inkscape:showpageshadow="2"
     inkscape:pageopacity="0.0"
     inkscape:pagecheckerboard="0"
     inkscape:deskcolor="#d1d1d1"
     inkscape:zoom="7.571935"
     inkscape:cx="26.413328"
     inkscape:cy="32.290293"
     inkscape:window-width="1920"
     inkscape:window-height="991"
     inkscape:window-x="-9"
     inkscape:window-y="-9"
     inkscape:window-maximized="1"
     inkscape:current-layer="svg22" /><path
     fill="#77B255"
     d="M 41.247799,43.465895 31.161927,33.463706 21.074236,23.461517 c 0,0 0.827456,20.168496 -20.337236,25.416669 0,0 1.8767797,4.485295 6.1177199,8.691047 4.2409401,4.205753 8.7637611,6.066961 8.7637611,6.066961 5.292082,-20.99089 25.629318,-20.170299 25.629318,-20.170299 z"
     id="path1"
     style="fill:#85e845;fill-opacity:1;stroke-width:1.81102" /><path
     fill="#5C913B"
     d="m 24.547733,29.528478 c -1.322111,6.559315 -9.260235,17.053858 -9.260235,17.053858 l 15.87261,-15.740913 c 5.290264,-5.24637 -6.612375,-1.312945 -6.612375,-1.312945 z m 22.486804,11.805684 c 0,0 -19.840763,1.311142 -31.747039,10.494544 C 29.837997,37.398934 36.452191,36.087793 36.452191,36.087793 Z"
     id="path2"
     style="fill:#669f40;fill-opacity:1;stroke-width:1.81102" /><path
     fill="#3e721d"
     d="m 54.237952,50.445424 c 1.212996,0.08116 2.451452,-0.321022 3.378931,-1.240805 1.704014,-1.689876 1.704014,-4.43119 0,-6.121065 -0.15458,-0.153298 -0.327346,-0.277739 -0.498293,-0.403984 0.747439,-0.182153 1.458505,-0.548262 2.042271,-1.127185 0.56558,-0.560887 0.92566,-1.240805 1.114793,-1.954989 0.720159,-0.189367 1.405766,-0.544656 1.971346,-1.105543 1.704014,-1.689876 1.704014,-4.43119 0,-6.121066 1.704014,-1.689875 1.704014,-4.431189 0,-6.121065 -0.640142,-0.634831 -1.429408,-1.0316 -2.256864,-1.188504 0.781992,-1.610522 0.516478,-3.596171 -0.829275,-4.932561 -0.583766,-0.578923 -1.294832,-0.945032 -2.042271,-1.127185 0.170947,-0.126245 0.343713,-0.250686 0.498293,-0.403984 1.704014,-1.689875 1.704014,-4.431189 0,-6.121065 -1.347572,-1.336391 -3.349834,-1.599701 -4.97383,-0.822394 C 52.483017,10.833438 52.084747,10.050721 51.444605,9.4158903 50.517127,8.4961074 49.27867,8.0957312 48.065674,8.1750851 48.147511,6.9721532 47.741966,5.7439725 46.814488,4.8241895 c -1.704014,-1.6898757 -4.468264,-1.6898757 -6.172278,0 C 39.294639,3.487799 37.292377,3.2244886 35.66838,4.0017953 35.508345,3.1812047 35.110075,2.3984874 34.469933,1.7636568 c -1.704014,-1.68987574 -4.468263,-1.68987574 -6.172278,0 -0.640141,0.6348306 -1.04023,1.4175479 -1.198447,2.2381385 -1.623996,-0.7755032 -3.626259,-0.5121928 -4.97383,0.8223942 -0.583766,0.5789222 -0.952939,1.2840892 -1.136616,2.025326 -0.127301,-0.1695286 -0.252783,-0.3408607 -0.407363,-0.4941579 -1.704014,-1.6898757 -4.468263,-1.6898757 -6.172277,0 -1.34939,1.3327836 -1.614904,3.3184326 -0.832912,4.9307584 -0.827456,0.156904 -1.616722,0.553673 -2.256864,1.188504 -1.7040141,1.689875 -1.7040141,4.431189 0,6.121065 0.583766,0.578922 1.294833,0.945032 2.042271,1.127185 -0.170947,0.126245 -0.343713,0.250686 -0.498292,0.403983 -1.704014,1.689876 -1.704014,4.43119 0,6.121065 0.640142,0.634831 1.429407,1.0316 2.256864,1.188504 -0.781992,1.610522 -0.516478,3.596171 0.829274,4.932562 1.347572,1.33639 3.349834,1.599701 4.97383,0.822394 0.160036,0.820591 0.558306,1.603308 1.198448,2.238139 0.583766,0.578922 1.294832,0.945031 2.042271,1.127185 -0.170947,0.126244 -0.343713,0.250685 -0.498293,0.403983 -1.704014,1.689875 -1.704014,4.431189 0,6.121065 1.347572,1.336391 3.349834,1.599701 4.97383,0.822394 0.160036,0.820591 0.558306,1.603308 1.198448,2.238139 1.15662,1.147023 2.795165,1.496901 4.264582,1.087508 0.116389,0.151494 0.225504,0.304791 0.365535,0.44366 0.927479,0.919783 2.165935,1.320159 3.378931,1.240805 -0.08184,1.202932 0.323708,2.431113 1.251187,3.350896 1.704014,1.689875 4.468263,1.689875 6.172277,0 0.15458,-0.153297 0.280062,-0.32463 0.407363,-0.494158 0.183677,0.741237 0.55285,1.446404 1.136616,2.025326 1.704014,1.689876 4.468263,1.689876 6.172277,0 0.927479,-0.919783 1.331204,-2.147964 1.251187,-3.350896 z"
     id="path3"
     style="stroke-width:1.81102" /><ellipse
     fill="#5c913b"
     cx="19.255651"
     cy="9.8505335"
     id="circle3"
     rx="2.8060765"
     ry="2.7827942"
     style="stroke-width:1.81102" /><ellipse
     fill="#5c913b"
     cx="27.193773"
     cy="9.8505335"
     id="circle4"
     rx="2.8060765"
     ry="2.7827942"
     style="stroke-width:1.81102" /><ellipse
     fill="#5c913b"
     cx="32.484039"
     cy="4.6041627"
     id="circle5"
     rx="2.8060765"
     ry="2.7827942"
     style="stroke-width:1.81102" /><ellipse
     fill="#5c913b"
     cx="39.098232"
     cy="8.5393906"
     id="circle6"
     rx="2.8060765"
     ry="2.7827942"
     style="stroke-width:1.81102" /><ellipse
     fill="#5c913b"
     cx="44.388496"
     cy="8.5393906"
     id="circle7"
     rx="2.8060765"
     ry="2.7827942"
     style="stroke-width:1.81102" /><ellipse
     fill="#5c913b"
     cx="45.712425"
     cy="12.47462"
     id="circle8"
     rx="2.8060765"
     ry="2.7827942"
     style="stroke-width:1.81102" /><ellipse
     fill="#5c913b"
     cx="49.680576"
     cy="13.785761"
     id="circle9"
     rx="2.8060765"
     ry="2.7827942"
     style="stroke-width:1.81102" /><ellipse
     fill="#5c913b"
     cx="54.97084"
     cy="16.409847"
     id="circle10"
     rx="2.8060765"
     ry="2.7827942"
     style="stroke-width:1.81102" /><ellipse
     fill="#5c913b"
     cx="53.648731"
     cy="20.345076"
     id="circle11"
     rx="2.8060765"
     ry="2.7827942"
     style="stroke-width:1.81102" /><ellipse
     fill="#5c913b"
     cx="57.616882"
     cy="26.90439"
     id="circle12"
     rx="2.8060765"
     ry="2.7827942"
     style="stroke-width:1.81102" /><ellipse
     fill="#5c913b"
     cx="58.938995"
     cy="33.463703"
     id="circle13"
     rx="2.8060765"
     ry="2.7827942"
     style="stroke-width:1.81102" /><ellipse
     fill="#5c913b"
     cx="48.356651"
     cy="20.345076"
     id="circle14"
     rx="2.8060765"
     ry="2.7827942"
     style="stroke-width:1.81102" /><ellipse
     fill="#5c913b"
     cx="43.066383"
     cy="15.098707"
     id="circle15"
     rx="2.8060765"
     ry="2.7827942"
     style="stroke-width:1.81102" /><ellipse
     fill="#5c913b"
     cx="36.45219"
     cy="11.163478"
     id="circle16"
     rx="2.8060765"
     ry="2.7827942"
     style="stroke-width:1.81102" /><ellipse
     fill="#5c913b"
     cx="28.515884"
     cy="13.785761"
     id="circle17"
     rx="2.8060765"
     ry="2.7827942"
     style="stroke-width:1.81102" /><ellipse
     fill="#5c913b"
     cx="31.161924"
     cy="11.163478"
     id="circle18"
     rx="2.8060765"
     ry="2.7827942"
     style="stroke-width:1.81102" /><ellipse
     fill="#5c913b"
     cx="23.223804"
     cy="16.409847"
     id="circle19"
     rx="2.8060765"
     ry="2.7827942"
     style="stroke-width:1.81102" /><ellipse
     fill="#5c913b"
     cx="36.45219"
     cy="19.033934"
     id="circle20"
     rx="2.8060765"
     ry="2.7827942"
     style="stroke-width:1.81102" /><ellipse
     fill="#5c913b"
     cx="45.712425"
     cy="28.215532"
     id="circle21"
     rx="2.8060765"
     ry="2.7827942"
     style="stroke-width:1.81102" /><ellipse
     fill="#5c913b"
     cx="48.356651"
     cy="36.087795"
     id="circle22"
     rx="2.8060765"
     ry="2.7827942"
     style="stroke-width:1.81102" /><metadata
     id="metadata22"><rdf:RDF><cc:Work
         rdf:about=""><dc:title>broccoli</dc:title></cc:Work></rdf:RDF></metadata></svg>
