<svg xmlns="http://www.w3.org/2000/svg" viewBox="0 0 64 64">
    <path fill="#b2c1c0" d="M44.8 7c-16.1 4.3-20.2 18.5-20.2 18.5L41 28.9C39.6 22.3 44.8 7 44.8 7z"/>
    <path fill="#879191" d="M28.5 21.3l13.1-1.8s.2-1.1.4-1.9c-8.8.1-13.5 3.7-13.5 3.7"/>
    <path fill="#b2c1c0" d="M53.1 9.4s3 3 3.8 5.9c4.7 3.2 5.1 7.9 5.1 11 0 10.9-17.2 21.4-17.2 21.4L2 38.5c0-4.3 19.2-19 39-19 6.9 0 16 4.9 18.1 2.6 1.2-1.3-1.3-5.3-2.5-5.3 0 0 .1 2.6-1.2 4.2.5-5.9-2.3-11.6-2.3-11.6"/>
    <path fill="#ff717f" d="M19.7 55.2s0-17 16.6-23.8c0 0 9.5 19.2-16.6 23.8"/>
    <path fill="#ed4c5c" d="M25.5 38.3S22 48.4 21.9 52.8c0 0 16.5-5.1 12.5-20.6l-8.9 6.1"/>
    <path fill="#3e4347" d="M29.6 35.5s-3.5 6-4.1 11.5c-.6 5.5 8.5-2.8 9.3-13.6l-5.2 2.1" opacity=".5"/>
    <path fill="#fff" d="M15.9 48.2l3.3 2.1-.6-3.9 3 2.2-.6-4 3.5 2.6-1.2-4.9 3.8 3.2-1-5.3 3.9 3.2-1.3-5.2 3.7 2.6-1.2-4.8 3.4 3.3-1.1-5.4s-8.4 5.3-17.6 14.3"/>
    <g fill="#b2c1c0">
        <path d="M19.2 50.3l-3.3-2.1 1.2-1.1zM18.5 46.4l3 2.2-2-3.8zM20.9 44.6l3.5 2.6-2.5-4.5zM23.3 42.3l3.8 3.2-2.5-4.6zM26 40.2l3.9 3.2-2.8-5zM28.6 38.2l3.7 2.6-2.7-4.2zM31.2 36l3.4 3.3-2.3-4.6z"/>
    </g>
    <g fill="#fff">
        <path d="M35.4 40.9l-2.2-1 1.3 3.8c.5-1.1.8-2.1.9-2.8M34.3 44.1l-3.2-1.3 1.4 4c.8-1 1.3-1.9 1.8-2.7M32.1 47.2l-3.2-1.8.9 3.9c.8-.7 1.6-1.4 2.3-2.1M29.4 49.6l-3.3-2.3.8 3.9c1-.5 1.8-1 2.5-1.6M26.6 51.5l-3.4-2.6s.5 3.2.6 4c1.1-.4 2-.9 2.8-1.4"/>
        <path d="M24 52.9l-3.5-2.8c.2 1.6.7 4 .7 4 1-.4 1.9-.8 2.8-1.2"/>
    </g>
    <g fill="#b2c1c0">
        <path d="M35 42.4l-1.9-2.6 1.3 3.8c.3-.3.5-.8.6-1.2M33.3 45.6l-2.2-2.9 1.4 4c.3-.3.6-.7.8-1.1M30.8 48.5l-2-3.1.9 3.9c.4-.2.8-.5 1.1-.8M28.1 50.5l-2-3.2.8 3.9c.5-.2.9-.4 1.2-.7M25.1 52.4L23.3 49l.6 4.1c.4-.3.8-.5 1.2-.7M22.3 53.7l-1.7-3.6.7 4c.3-.1.6-.3 1-.4M15.7 48.6s23.6-15.7 21.8-18.3L24 35.7l-8.3 12.9"/>
    </g>
    <circle cx="24.7" cy="29.6" r="3.3" fill="#3e4347"/>
    <path fill="#76807f" d="M15.9 32.1s4 .8 6-2.5 4.8-3.5 8.6-3.7c0 0-6.1-1.5-9.1.8s-2.8 4.7-5.5 5.4"/>
    <g fill="#3e4347">
        <path d="M44 28.6s1.4-.9 1.6-1.9c.3-1.1 1.2-3.2-.1-4.4 0 0 1.8 1 1.1 3.6-.6 2.5-1.5 2.5-2.6 2.7M45.7 29.4s1.4-.7 1.8-1.8c.4-1 1.4-3.1.3-4.4 0 0 1.7 1.1.8 3.6-.9 2.6-1.8 2.5-2.9 2.6M47.9 30.2s1.4-.8 1.7-1.8c.3-1 1.4-3.1.1-4.4 0 0 1.7 1.1.9 3.6-.7 2.5-1.6 2.5-2.7 2.6" opacity=".5"/>
    </g>
    <path fill="#879191" d="M51.3 38.3s3.9-.8 4.8 0l-1.5 1.5-3.3-1.5"/>
    <path fill="#b2c1c0" d="M51.3 38.3C59.8 38.3 62 57 62 57s-8.1-11-18.4-11l7.7-7.7z"/>
    <path fill="#e8e8e8" d="M2 38.5c0-1.1 11.9-3 20.3-.2s10.6-12.4 14.8-11.2c4.6 1.3 1 15.6 10.4 19.4-8.7 7.8-21.6 12.6-27.7 8.7 23.9-7.9 16.9-22.4 16.9-22.4S26.6 45 15.9 48.7C12 50.1 2 42 2 38.5z"/>
    <path fill="#3e4347" d="M14.9 39.5s1.6-1 3 0c.6.4-.1 1.3-1.3 1.3-1.1-.1-.7-1-1.7-1.3"/>
</svg>
