<svg xmlns="http://www.w3.org/2000/svg" viewBox="0 0 64 64">
    <path fill="#b2c1c0" d="m49.3 4.23c-3.3-0.02-7.5 0.71-11.2 3.12-0.9-0.23-1.7-0.43-2.6-0.58-12.7-2.22-31.9 1.41-34 7.83l26.5 10.8c-1.2 4.1-1.5 7.8-1 8.1 0.8 0.6 4.2-5.4 7.1-6.6 0.3-0.1 0.5-0.3 0.6-0.6 3 0.8 13.5 3.8 14.1 9.4-1.3 0.9-2.6 2.9-2.3 3.4 0.2 0.3 1 0.3 1.7 0.4-0.4 2.7-1.9 5.1-3.5 6.8-3.1-1.6-17.2-2.3-19-1.5-1.9 0.8-3.5 0.7-3.5 1.5s17.8 4.2 18.4 5c0.6 0.7 3.4 10.8 4 10.8 1-0.1 1.9-9.1 1.3-13.4 4.1-1.3 9.7-3.9 12.3-8.9 0.6 0.1 1.9 0.5 2.3 0.1 0.4-0.3-0.2-2.3-1.1-3.6 0.1-0.8 0.2-1.6 0.2-2.5 0.1-9.1-4.9-17-12-22 3.9-4.82 7.6-5.51 7.8-6.26 0.1-0.45-2.5-1.29-6.1-1.31z"/>
    <path d="m41.8 8.77c1.99 0.858 3.88 1.98 5.79 3.06 0 0 0.0857-0.0913 0.379-0.429-2.4-1.74-6.2-2.63-6.2-2.63z" fill="#879191"/>
    <ellipse rx="2.75" transform="matrix(.930 -.367 .495 .869 0 0)" ry="2.26" cy="18.3" cx="10.9" fill="#fff"/>
    <ellipse rx="1.93" transform="matrix(.424 -.906 .853 .521 0 0)" ry="1.93" cy="22.7" cx="-.0498" fill="#3e4347"/>
    <path opacity=".5" d="m35.3 14.3s1.25-0.397 1.41-0.943c0.253-0.595 1.03-1.71-0.159-2.48 0 0 1.64 0.702 1.05 2.11-0.502 1.36-1.31 1.29-2.3 1.32m1.55 0.582s1.25-0.284 1.6-0.872c0.345-0.531 1.21-1.63 0.202-2.45 0 0 1.55 0.751 0.778 2.09-0.771 1.39-1.58 1.26-2.57 1.24m2 0.621s1.25-0.341 1.5-0.879c0.255-0.539 1.21-1.63 0.0213-2.47 0 0 1.55 0.751 0.868 2.09-0.592 1.35-1.4 1.28-2.39 1.25" fill="#3e4347"/>
    <path d="m49.1 20.3 0.814-1.53s0.0678 1.02-0.203 1.63-0.61-0.102-0.61-0.102z" fill="#879191"/>
    <path d="m57.7 39.6s0.185 0.31 0.398 0.334c0.127 0.0144 0.186-0.217 0.186-0.217z" fill="#879191"/>
    <path fill="#3e4347" d="m11.8 22.1 2.57 0.954 10.5-2.4-3.64-3.01s-7.12 1.01-9.45 4.46z"/>
    <path fill="#fff" d="m12 22.2 2.73 0.246-0.582-2.2 2.48 0.861 0.228-2.25 2.1 1.42 0.683-1.87 1.16 1.77 1.95-1.62-4.28-0.835-5.26 2.38z"/>
    <path d="m28.2 13.6c-5.1 0.4-6 2.1-11.6 0.8-7.67-1.8-15-0.7-15.1 0.2-0.388 2.61 7.99 6.96 10.5 7.62 4.17-4.58 10.8-3.98 10.8-2.35-0.000686 1.63-3.41-1.77-8.41 3.23 7.1 2.42 12.9 1.92 19.4 3.35 6.45 1.43 14 6.58 14.3 9.33 0.339 2.98-0.121 5.61-4.2 10.5-0.961 1.15-2.91 3.76-2.86 4.08 0.0558 0.324 3.06-0.288 5.43-1.31 6.3-2.7 14.5-8.11 10.7-19.1-3.27-9.54-12.1-11.8-17.3-13.7-5.18-1.86-6.61-3.01-11.6-2.67z" fill="#e8e8e8"/>
    <path d="m5.86 15.7s1.18-0.792 2.26-0.073c0.461 0.287-0.0436 0.981-0.947 1.01-0.831-0.0485-0.551-0.736-1.31-0.937" fill="#3e4347"/>
    <path d="m46.7 48.1c1.77-1.15 3.54-3.5 3.54-3.5s-0.528 3.44-1.12 3.9c-0.588 0.46-2.43-0.397-2.43-0.397z" fill="#b2c1c0"/>
    <path d="m41.6 14.7c0.567 7.03 4.27 15.1 5.36 15.2 1.09 0.0615 0.712-7.67 2.77-10.6 2.05-2.91-8.13-4.62-8.13-4.62z" fill="#b2c1c0"/>
</svg>
