<?xml version="1.0" encoding="UTF-8" standalone="no"?>
<svg
   viewBox="0 0 36 36"
   version="1.1"
   id="svg4"
   sodipodi:docname="1f995-1f464.svg"
   xml:space="preserve"
   inkscape:version="1.3.2 (091e20e, 2023-11-25, custom)"
   xmlns:inkscape="http://www.inkscape.org/namespaces/inkscape"
   xmlns:sodipodi="http://sodipodi.sourceforge.net/DTD/sodipodi-0.dtd"
   xmlns="http://www.w3.org/2000/svg"
   xmlns:svg="http://www.w3.org/2000/svg"
   xmlns:rdf="http://www.w3.org/1999/02/22-rdf-syntax-ns#"
   xmlns:cc="http://creativecommons.org/ns#"
   xmlns:dc="http://purl.org/dc/elements/1.1/"><title
     id="title4">sauropod, bust in silhouette</title><defs
     id="defs4" /><sodipodi:namedview
     id="namedview4"
     pagecolor="#ffffff"
     bordercolor="#000000"
     borderopacity="0.25"
     inkscape:showpageshadow="2"
     inkscape:pageopacity="0.0"
     inkscape:pagecheckerboard="0"
     inkscape:deskcolor="#d1d1d1"
     inkscape:zoom="15.14387"
     inkscape:cx="16.50833"
     inkscape:cy="17.663913"
     inkscape:window-width="1920"
     inkscape:window-height="991"
     inkscape:window-x="-9"
     inkscape:window-y="-9"
     inkscape:window-maximized="1"
     inkscape:current-layer="svg4" /><path
     fill="#77B255"
     d="m 9.9625712,16.931965 c 5.0558018,0.03986 10.2900728,-1.020138 13.5025118,4.922457 1.548806,2.866613 2.727776,7.242522 2.917237,11.415787 l 9.410426,0.0103 C 35.786401,30.217352 35.560208,27.466761 35.075295,25.367448 33.165964,17.098469 27.442737,9.8121074 23.645996,7.7554164 19.932378,5.7409373 16.646596,4.2376999 8.5103732,5.492352 c -4.339482,0.6683661 -8.77919942,6.852511 -7.0654096,10.023145 1.0292517,1.899567 4.7428696,1.385981 8.5176076,1.416468 z"
     id="path2"
     style="fill:#85e845;fill-opacity:1;stroke-width:2.39444"
     sodipodi:nodetypes="ccccccccc" /><path
     d="m 8.512818,9.7323724 c 0,0.7692076 0.6478657,1.3906696 1.4497532,1.3906696 0.8018878,0 1.4497538,-0.621462 1.4497538,-1.3906696 0,-0.769207 -0.647866,-1.39067 -1.4497538,-1.39067 -0.8018875,0 -1.4497532,0.623808 -1.4497532,1.39067 z"
     id="path3"
     style="stroke-width:2.39444"
     sodipodi:nodetypes="sssss" /><metadata
     id="metadata4"><rdf:RDF><cc:Work
         rdf:about=""><dc:title>sauropod, bust in silhouette</dc:title></cc:Work></rdf:RDF></metadata></svg>
