<?xml version="1.0" encoding="UTF-8" standalone="no"?>
<svg
   viewBox="0 0 64 64"
   version="1.1"
   id="svg14"
   sodipodi:docname="1f994.svg"
   xml:space="preserve"
   inkscape:version="1.3.2 (091e20e, 2023-11-25, custom)"
   xmlns:inkscape="http://www.inkscape.org/namespaces/inkscape"
   xmlns:sodipodi="http://sodipodi.sourceforge.net/DTD/sodipodi-0.dtd"
   xmlns="http://www.w3.org/2000/svg"
   xmlns:svg="http://www.w3.org/2000/svg"
   xmlns:rdf="http://www.w3.org/1999/02/22-rdf-syntax-ns#"
   xmlns:cc="http://creativecommons.org/ns#"
   xmlns:dc="http://purl.org/dc/elements/1.1/"><defs
     id="defs14" /><sodipodi:namedview
     id="namedview14"
     pagecolor="#ffffff"
     bordercolor="#000000"
     borderopacity="0.25"
     inkscape:showpageshadow="2"
     inkscape:pageopacity="0.0"
     inkscape:pagecheckerboard="0"
     inkscape:deskcolor="#d1d1d1"
     inkscape:zoom="12.046875"
     inkscape:cx="25.981842"
     inkscape:cy="31.418936"
     inkscape:window-width="1920"
     inkscape:window-height="991"
     inkscape:window-x="-9"
     inkscape:window-y="-9"
     inkscape:window-maximized="1"
     inkscape:current-layer="svg14" /><title
     id="title1">giraffe</title><path
     fill="#c1875d"
     d="m 57.585627,9.6763255 c 0.195534,4.9416805 -0.586601,9.0112995 -2.248636,11.5305875 -2.44417,1.550331 -6.745908,2.325496 -12.123083,2.228601 -0.195533,-4.941681 0.586602,-9.108195 2.248637,-11.530588 2.541936,-1.550331 6.745908,-2.3254963 12.123082,-2.2286005"
     id="path4"
     style="fill:#ffce31;fill-opacity:1;stroke-width:0.973303" /><path
     fill="#3e4347"
     d="m 54.359323,12.680092 c 0.09776,2.809975 -0.293301,5.038576 -1.270969,6.395116 -1.368735,0.872061 -3.812904,1.259644 -6.745908,1.259644 -0.09776,-2.809975 0.2933,-5.038577 1.270968,-6.395116 1.466502,-0.872061 3.812905,-1.259644 6.745909,-1.259644"
     id="path5"
     style="stroke-width:0.973303" /><path
     fill="#c1875d"
     d="M 21.21638,23.435514 C 15.936974,23.532409 11.635235,22.85414 9.0932985,21.303809 7.4312631,18.881416 6.6491288,14.811798 6.7468956,9.7732211 12.026302,9.5794297 16.328041,10.354595 18.869977,11.904926 c 1.662036,2.422393 2.444171,6.492012 2.346403,11.530588"
     id="path6"
     style="fill:#ffce31;fill-opacity:1;stroke-width:0.973303" /><path
     fill="#3e4347"
     d="M 18.087843,20.431747 C 15.15484,20.528642 12.710669,20.14106 11.244168,19.269 10.364267,17.912459 9.8754329,15.683859 9.9731997,12.776987 c 2.9330033,-0.09689 5.3771733,0.290688 6.8436753,1.162749 0.879901,1.356539 1.368735,3.682036 1.270968,6.492011"
     id="path7"
     style="stroke-width:0.973303" /><path
     fill="#c1875d"
     d="m 48.395549,30.024421 c 0,3.585141 -4.008439,15.890894 -4.008439,21.123261 0,0 -4.986106,0.484479 -12.220849,0.484479 -7.039209,0 -12.025315,-0.193791 -12.025315,-0.193791 0,-5.329264 -4.203972,-17.731913 -4.203972,-21.317054 0,-4.747888 -0.488834,-9.786464 4.497272,-16.278476 1.173202,-1.55033 1.466502,-3.488245 11.732015,-3.488245 10.167746,0 10.852114,1.647227 11.927549,2.906871 4.888339,5.813742 4.301739,10.464735 4.301739,16.762955"
     id="path8"
     style="fill:#ffce31;fill-opacity:1;stroke-width:0.973303" /><path
     fill="#ffe2b3"
     d="M 44.680411,55.120405 C 44.680411,59.868295 41.747407,62 32.166261,62 22.585115,62 19.652112,59.868295 19.652112,55.120405 c 0,-4.747888 0.2933,-10.270943 12.514149,-10.270943 12.220849,0 12.51415,5.523055 12.51415,10.270943"
     id="path9"
     style="fill:#ffc50c;fill-opacity:1;stroke-width:0.973303" /><g
     fill="#3e4347"
     id="g10"
     transform="matrix(0.97766791,0,0,0.96895694,0.88088817,1.9246699)"><path
       d="m 49,26.7 c 0,2.2 -1.5,4 -3.2,4 -1.8,0 -3.2,-1.8 -3.2,-4 0,-2.2 1.5,-4 3.2,-4 1.7,0 3.2,1.8 3.2,4"
       id="path10" /><ellipse
       cx="18.200001"
       cy="26.700001"
       rx="3.2"
       ry="4"
       id="ellipse10" /></g><g
     fill="#ffe2b3"
     id="g11"
     style="fill:#ffc50c;fill-opacity:1"
     transform="matrix(0.97766791,0,0,0.96895694,0.88088817,1.9246699)"><path
       d="m 40.5,43.3 c -2.1,-1.4 -5.2,1.1 -6.8,5.6 -1.6,4.5 -1.2,9.2 1,10.6 2.1,1.4 5.2,-1.1 6.8,-5.6 1.6,-4.4 1.2,-9.2 -1,-10.6 m -17.1,0 c -2.1,1.4 -2.6,6.1 -1,10.6 1.6,4.5 4.6,7 6.8,5.6 2.1,-1.4 2.6,-6.1 1,-10.6 -1.6,-4.4 -4.6,-6.9 -6.8,-5.6"
       id="path11"
       style="fill:#ffc50c;fill-opacity:1" /></g><path
     fill="#fff"
     d="m 27.864522,20.528643 c 0,-8.139238 1.955336,-9.786465 4.301739,-9.786465 2.346403,0 4.301739,1.647227 4.301739,9.786465 0,8.139238 -4.301739,19.766721 -4.301739,19.766721 0,0 -4.301739,-11.627483 -4.301739,-19.766721"
     id="path12"
     style="fill:#ffc50c;fill-opacity:1;stroke-width:0.973303" /><g
     fill="#3e4347"
     id="g13"
     transform="matrix(0.97766791,0,0,0.96895694,0.88088817,1.9246699)"><path
       d="m 39.8,46 c -1.6,-1 -3.8,0.8 -5,4.1 -1.2,3.3 -0.8,6.8 0.7,7.8 1.6,1 3.8,-0.8 5,-4.1 1.2,-3.3 0.8,-6.8 -0.7,-7.8 m -15.6,0 c -1.6,1 -1.9,4.5 -0.7,7.8 1.2,3.3 3.4,5.1 5,4.1 1.6,-1 1.9,-4.5 0.7,-7.8 C 28,46.8 25.8,45 24.2,46"
       id="path13" /></g><rect
     style="fill:#ffce31;fill-opacity:1;fill-rule:evenodd;stroke-width:3.13403"
     id="rect14"
     width="3.7331443"
     height="13.432181"
     x="22.224737"
     y="5.8658485" /><rect
     style="fill:#ffce31;fill-opacity:1;fill-rule:evenodd;stroke-width:3.13403"
     id="rect15"
     width="3.8954551"
     height="14.397368"
     x="38.618107"
     y="5.7854166" /><ellipse
     style="fill:#3e4347;fill-opacity:1;fill-rule:evenodd;stroke-width:3.13403"
     id="path15"
     cx="24.091307"
     cy="5.4636879"
     rx="2.7592807"
     ry="3.0564246" /><ellipse
     style="fill:#3e4347;fill-opacity:1;fill-rule:evenodd;stroke-width:3.13403"
     id="path16"
     cx="40.565834"
     cy="5.3430395"
     rx="2.921591"
     ry="2.8553441" /><ellipse
     style="fill:#d5a200;fill-opacity:1;fill-rule:evenodd;stroke-width:3.22"
     id="path17"
     cx="22.910505"
     cy="18.220493"
     rx="2.6562905"
     ry="3.0298314" /><ellipse
     style="fill:#d5a200;fill-opacity:1;fill-rule:evenodd;stroke-width:3.22"
     id="path18"
     cx="40.881973"
     cy="19.092089"
     rx="2.1997406"
     ry="2.4902723" /><ellipse
     style="fill:#d5a200;fill-opacity:1;fill-rule:evenodd;stroke-width:3.22"
     id="path19"
     cx="25.193256"
     cy="27.683527"
     rx="2.1167314"
     ry="3.4448767" /><ellipse
     style="fill:#d5a200;fill-opacity:1;fill-rule:evenodd;stroke-width:3.22"
     id="path20"
     cx="39.138783"
     cy="26.977951"
     rx="1.7846951"
     ry="3.154345" /><ellipse
     style="fill:#d5a200;fill-opacity:1;fill-rule:evenodd;stroke-width:3.22"
     id="path21"
     cx="19.673151"
     cy="36.440987"
     rx="2.7392995"
     ry="3.154345" /><ellipse
     style="fill:#d5a200;fill-opacity:1;fill-rule:evenodd;stroke-width:3.22"
     id="path22"
     cx="26.14786"
     cy="37.271076"
     rx="2.6562905"
     ry="3.237354" /><ellipse
     style="fill:#d5a200;fill-opacity:1;fill-rule:evenodd;stroke-width:3.22"
     id="path23"
     cx="39.138783"
     cy="35.112839"
     rx="1.4526589"
     ry="2.6562905" /><ellipse
     style="fill:#d5a200;fill-opacity:1;fill-rule:evenodd;stroke-width:3.22"
     id="path24"
     cx="44.53437"
     cy="34.448769"
     rx="2.4487679"
     ry="1.8261998" /><ellipse
     style="fill:#d5a200;fill-opacity:1;fill-rule:evenodd;stroke-width:3.22"
     id="path25"
     cx="42.915695"
     cy="40.425423"
     rx="1.8261998"
     ry="2.6562905" /><ellipse
     style="fill:#d5a200;fill-opacity:1;fill-rule:evenodd;stroke-width:3.22"
     id="path26"
     cx="36.980545"
     cy="41.33852"
     rx="2.6977952"
     ry="2.4072633" /><ellipse
     style="fill:#d5a200;fill-opacity:1;fill-rule:evenodd;stroke-width:3.22"
     id="path27"
     cx="30.215305"
     cy="42.376137"
     rx="1.4941634"
     ry="1.8677043" /><ellipse
     style="fill:#d5a200;fill-opacity:1;fill-rule:evenodd;stroke-width:3.22"
     id="path28"
     cx="21.955902"
     cy="43.455254"
     rx="2.2827497"
     ry="1.2866408" /><metadata
     id="metadata28"><rdf:RDF><cc:Work
         rdf:about=""><dc:title>giraffe</dc:title></cc:Work></rdf:RDF></metadata></svg>
