<?xml version="1.0" encoding="UTF-8" standalone="no"?>
<svg
   viewBox="0 0 64 64"
   version="1.1"
   id="svg14"
   sodipodi:docname="1f993.svg"
   inkscape:version="1.3.2 (091e20e, 2023-11-25, custom)"
   xmlns:inkscape="http://www.inkscape.org/namespaces/inkscape"
   xmlns:sodipodi="http://sodipodi.sourceforge.net/DTD/sodipodi-0.dtd"
   xmlns="http://www.w3.org/2000/svg"
   xmlns:svg="http://www.w3.org/2000/svg"
   xmlns:rdf="http://www.w3.org/1999/02/22-rdf-syntax-ns#"
   xmlns:cc="http://creativecommons.org/ns#"
   xmlns:dc="http://purl.org/dc/elements/1.1/">
  <defs
     id="defs14" />
  <sodipodi:namedview
     id="namedview14"
     pagecolor="#ffffff"
     bordercolor="#000000"
     borderopacity="0.25"
     inkscape:showpageshadow="2"
     inkscape:pageopacity="0.0"
     inkscape:pagecheckerboard="0"
     inkscape:deskcolor="#d1d1d1"
     inkscape:zoom="12.046875"
     inkscape:cx="31.958495"
     inkscape:cy="31.916991"
     inkscape:window-width="1920"
     inkscape:window-height="991"
     inkscape:window-x="-9"
     inkscape:window-y="-9"
     inkscape:window-maximized="1"
     inkscape:current-layer="svg14" />
  <title
     id="title1">zebra</title>
  <path
     fill="#c1875d"
     d="M58 2c.2 5.1-.6 9.3-2.3 11.9-2.5 1.6-6.9 2.4-12.4 2.3-.2-5.1.6-9.4 2.3-11.9C48.2 2.7 52.5 1.9 58 2"
     id="path4"
     style="fill:#3e4347;fill-opacity:1" />
  <path
     fill="#3e4347"
     d="M54.7 5.1c.1 2.9-.3 5.2-1.3 6.6-1.4.9-3.9 1.3-6.9 1.3-.1-2.9.3-5.2 1.3-6.6 1.5-.9 3.9-1.3 6.9-1.3"
     id="path5"
     style="fill:#ffffff" />
  <path
     fill="#c1875d"
     d="M20.8 16.2c-5.4.1-9.8-.6-12.4-2.2C6.7 11.5 5.9 7.3 6 2.1c5.4-.2 9.8.6 12.4 2.2 1.7 2.5 2.5 6.7 2.4 11.9"
     id="path6"
     style="fill:#3e4347;fill-opacity:1" />
  <path
     fill="#3e4347"
     d="M17.6 13.1c-3 .1-5.5-.3-7-1.2-.9-1.4-1.4-3.7-1.3-6.7 3-.1 5.5.3 7 1.2.9 1.4 1.4 3.8 1.3 6.7"
     id="path7"
     style="fill:#ffffff" />
  <path
     fill="#c1875d"
     d="M48.6 29c0 3.7-4.1 16.4-4.1 21.8 0 0-5.1.5-12.5.5-7.2 0-12.3-.2-12.3-.2 0-5.5-4.3-18.3-4.3-22 0-4.9-.5-10.1 4.6-16.8 1.2-1.6 1.5-3.6 12-3.6 10.4 0 11.1 1.7 12.2 3 5 6 4.4 10.8 4.4 17.3"
     id="path8"
     style="fill:#f9f9f9" />
  <path
     fill="#ffe2b3"
     d="M44.8 54.9c0 4.9-3 7.1-12.8 7.1s-12.8-2.2-12.8-7.1c0-4.9.3-10.6 12.8-10.6S44.8 50 44.8 54.9"
     id="path9"
     style="fill:#3e4347;fill-opacity:1" />
  <g
     fill="#3e4347"
     id="g10">
    <path
       d="M49 26.7c0 2.2-1.5 4-3.2 4-1.8 0-3.2-1.8-3.2-4s1.5-4 3.2-4c1.7 0 3.2 1.8 3.2 4"
       id="path10" />
    <ellipse
       cx="18.2"
       cy="26.7"
       rx="3.2"
       ry="4"
       id="ellipse10" />
  </g>
  <path
     fill="#ffffff"
     d="m 27.683009,26.836836 c 0,-8.4 -3.792104,-14.409842 -1.90869,-12.922309 0.991059,0.782745 3.917075,1.968292 4.4,10.1 0.497981,8.385226 -3.984955,13.012192 -3.984955,13.012192"
     id="path12"
     style="fill:#3e4347;fill-opacity:1"
     sodipodi:nodetypes="cssc" />
  <g
     fill="#3e4347"
     id="g13"
     style="fill:#000000">
    <path
       d="M39.8 46c-1.6-1-3.8.8-5 4.1-1.2 3.3-.8 6.8.7 7.8 1.6 1 3.8-.8 5-4.1 1.2-3.3.8-6.8-.7-7.8M24.2 46c-1.6 1-1.9 4.5-.7 7.8s3.4 5.1 5 4.1 1.9-4.5.7-7.8-3.4-5.1-5-4.1"
       id="path13"
       style="fill:#000000" />
  </g>
  <path
     fill="#e5be7a"
     d="m 24.126588,0.92281858 c 1.358189,0.19462532 5.137672,9.15169242 5.665205,14.55482742 0.03421,0.350378 5.105454,1.382095 5.941901,-0.156308 0.926609,-1.704233 0.159802,-10.2925349 3.846336,-14.97626742"
     id="path14"
     style="stroke-width:0.52817;fill:#3e4347;fill-opacity:1"
     sodipodi:nodetypes="cssc" />
  <path
     fill="#ffffff"
     d="m 37.257552,26.674211 c 0,-8.4 3.792104,-14.409842 1.90869,-12.922309 -0.991059,0.782745 -3.917075,1.968292 -4.4,10.1 -0.497981,8.385226 3.984955,13.012192 3.984955,13.012192"
     id="path12-3"
     style="fill:#3e4347;fill-opacity:1"
     sodipodi:nodetypes="cssc" />
  <metadata
     id="metadata14">
    <rdf:RDF>
      <cc:Work
         rdf:about="">
        <dc:title>zebra</dc:title>
      </cc:Work>
    </rdf:RDF>
  </metadata>
</svg>
