<?xml version="1.0" encoding="UTF-8" standalone="no"?>
<svg
   viewBox="0 0 64 64"
   version="1.1"
   id="svg13"
   sodipodi:docname="1f994.svg"
   inkscape:version="1.3.2 (091e20e, 2023-11-25, custom)"
   xmlns:inkscape="http://www.inkscape.org/namespaces/inkscape"
   xmlns:sodipodi="http://sodipodi.sourceforge.net/DTD/sodipodi-0.dtd"
   xmlns="http://www.w3.org/2000/svg"
   xmlns:svg="http://www.w3.org/2000/svg"
   xmlns:rdf="http://www.w3.org/1999/02/22-rdf-syntax-ns#"
   xmlns:cc="http://creativecommons.org/ns#"
   xmlns:dc="http://purl.org/dc/elements/1.1/">
  <defs
     id="defs13" />
  <sodipodi:namedview
     id="namedview13"
     pagecolor="#ffffff"
     bordercolor="#000000"
     borderopacity="0.25"
     inkscape:showpageshadow="2"
     inkscape:pageopacity="0.0"
     inkscape:pagecheckerboard="0"
     inkscape:deskcolor="#d1d1d1"
     inkscape:zoom="11.313709"
     inkscape:cx="21.831922"
     inkscape:cy="34.780815"
     inkscape:window-width="1920"
     inkscape:window-height="991"
     inkscape:window-x="-9"
     inkscape:window-y="-9"
     inkscape:window-maximized="1"
     inkscape:current-layer="svg13" />
  <title
     id="title1">hedgehog</title>
  <path
     style="fill:#928574;fill-opacity:1;fill-rule:evenodd;stroke-width:3.40491"
     d="m 22.757673,56.929278 -9.303106,0.758704 2.671189,-4.172869 -9.8557657,0.758704 2.302749,-5.405762 L 2.2171519,44.315836 7.8358596,43.272619 2.032932,37.108154 8.3885194,37.202994 3.2303615,31.417881 10.691269,28.857257 3.0461416,25.537931 8.8490692,22.313441 2.1250419,16.43349 10.138609,17.476708 8.2964094,9.5103233 l 6.2634776,4.9315717 0.46055,-7.6818711 5.066047,5.1212471 3.684399,-6.9231674 1.75009,6.7334914 4.605497,-8.0612222 1.8422,7.0180052 2.947518,-7.1128431 1.56587,7.7767091 3.592288,-7.0180058 -0.184219,7.5870328 5.895037,-6.5438158 -1.197429,8.7250878 6.079257,-7.2076816 -1.013209,8.6302506 6.816136,-6.0696263 -1.473759,6.6386533 5.526598,-0.948378 -4.144948,5.500598 6.908247,3.698678 -5.895038,1.991597 5.710817,3.414164 -5.802927,2.845138 5.802927,3.603841 -4.973937,0.948378 4.513388,4.172868 -4.789718,0.379353 4.513389,5.121247 -5.802928,-1.517407 2.210639,7.018006 -5.618708,-2.845138 -1.289539,5.310923 -4.052839,-2.465785 -3.315959,7.397357 -3.039628,-5.974789 -4.697608,6.733492 -2.855409,-5.595437 -3.500179,5.879951 -2.579079,-5.405761 -2.947519,3.983191 z"
     id="path14" />
  <path
     fill="#f29a2e"
     d="M12.6 7.3c-5-.8-9.8 2.2-10.4 6.8C.3 27.7 16.6 24.7 16.6 24.7c.7-4.6 1-16.5-4-17.4"
     id="path1"
     style="fill:#a28765;fill-opacity:1" />
  <path
     fill="#f29a2e"
     d="M51.4 7.3c5-.8 9.8 2.2 10.4 6.8 1.9 13.5-14.4 10.5-14.4 10.5-.7-4.5-1-16.4 4-17.3"
     id="path3"
     style="fill:#a28765;fill-opacity:1" />
  <g
     fill="#f29a2e"
     id="g6"
     style="fill:#d8c5ae;fill-opacity:1">
    <path
       d="M5.6 42.2C5.6 50.8 17.4 57 32 57c14.6 0 26.4-6.2 26.4-14.8 0-11.3.8-19.8-6.2-24.8C47.5 14.1 35.3 11 32 11c-3.3 0-15.5 3-20.2 6.4-7 5.1-6.2 13.6-6.2 24.8"
       id="path5"
       style="fill:#d8c5ae;fill-opacity:1" />
  </g>
  <path
     fill="#fff"
     d="m 38.7,32.9 c 0,0 0.4,-4.6 4.1,-6.1 4.1,-1.7 6.9,2.4 7.6,4.7 7.048054,15.736704 0.624263,8.521187 0.183883,9.237437 C 50.232534,41.308885 46.4,42.8 39.6,40.2 c 0,0.1 -1.7,-3.7 -0.9,-7.3"
     id="path7"
     style="fill:#a28765;fill-opacity:1"
     sodipodi:nodetypes="cccscc" />
  <path
     fill="#db8823"
     d="M38.7 32.9c.1-1.6.6-3.3 1.5-4.6.5-.7 1.1-1.2 1.8-1.6.3-.2.7-.4 1.1-.5l1.2-.3c1.6-.2 3.3.6 4.4 1.7 1.2 1.2 2.1 2.7 2.5 4.4.4 1.7.3 3.5-.1 5.2-.2.8-.5 1.6-.8 2.4l-.1.3v.1l-.1.1c-.1.1-.1.1-.1.2-.2.2-.3.3-.5.4-.4.2-.7.4-1.1.6-1.5.6-3 .6-4.5.4-1.5-.3-2.9-.7-4.2-1.4 1.4.3 2.9.7 4.3.7s2.8-.2 4.1-.8c.3-.1.6-.3.8-.5l.3-.3v-.1l.1-.2c.3-.7.5-1.4.6-2.2.3-1.5.4-3 0-4.5-.3-1.4-1.1-2.7-2.1-3.7s-2.2-1.7-3.5-1.6c-.3 0-.7.1-1 .1-.3.1-.7.2-1 .3-.6.3-1.2.7-1.7 1.3-.9 1-1.5 2.5-1.9 4.1"
     id="path8"
     style="fill:#a28765;fill-opacity:1" />
  <ellipse
     cx="43.7"
     cy="34.6"
     fill="#4c5359"
     rx="3"
     ry="4"
     id="ellipse8" />
  <path
     fill="#fff"
     d="M25.3 32.9s-.4-4.6-4.1-6.1c-4.1-1.7-6.9 2.4-7.6 4.7-1.1 3.4.3 7.2.7 8 .3.6 3.3 3.3 10.1.7 0 .1 1.7-3.7.9-7.3"
     id="path9"
     style="fill:#a28765;fill-opacity:1" />
  <path
     fill="#db8823"
     d="m 25.3,32.9 c -0.4,-1.6 -1,-3.1 -2,-4.1 -0.5,-0.5 -1.1,-1 -1.7,-1.3 -0.3,-0.1 -0.6,-0.3 -1,-0.3 -0.3,-0.1 -0.6,-0.1 -1,-0.1 -1.3,0 -2.6,0.6 -3.5,1.6 -1,1 -1.7,2.3 -2.1,3.7 -0.3,1.4 -0.3,3 0,4.5 0.1,0.7 0.4,1.5 0.6,2.2 l 0.1,0.2 c 0,-0.1 0,0 0,0 v 0.1 l 0.3,0.3 c 0.3,0.2 0.5,0.4 0.8,0.5 1.2,0.6 2.7,0.8 4.1,0.8 1.4,0 2.9,-0.3 4.3,-0.7 -1.3,0.7 -2.8,1.1 -4.2,1.4 -1.5,0.2 -3,0.2 -4.5,-0.4 -0.4,-0.1 -0.7,-0.3 -1.1,-0.6 -0.2,-0.1 -0.3,-0.3 -0.5,-0.4 0,0 -0.1,-0.1 -0.1,-0.2 V 40 L 13.7,39.9 13.6,39.6 C 17.150024,57.61653 2.6617771,37.878954 12.773146,35.431183 12.527031,34.319045 12.403968,33.332144 12.7,32 c 0.4,-1.8 1.3,-3.2 2.5,-4.4 1.2,-1.2 2.8,-1.9 4.4,-1.7 0.4,0.1 0.8,0.1 1.2,0.3 0.4,0.1 0.7,0.3 1.1,0.5 0.7,0.4 1.3,1 1.8,1.6 1,1.3 1.5,3 1.6,4.6"
     id="path10"
     style="fill:#a28765;fill-opacity:1"
     sodipodi:nodetypes="csccscccccccccscccccsccccssccccc" />
  <ellipse
     cx="20.3"
     cy="34.6"
     fill="#4c5359"
     rx="3"
     ry="4"
     id="ellipse10" />
  <path
     fill="#ffffff"
     d="M 41.9,40 C 41.112442,33.033011 32.522242,32.977452 25.56875,33.75 22.856069,43.352841 10.582824,38.226776 9.2,40.2 8,42.9 10.5,55.6 32,55.6 53.5,55.6 56,42.9 54.8,40.2 53.6,37.3 46.1,43.6 41.9,40"
     id="path11"
     sodipodi:nodetypes="cccscc"
     style="fill:#a28765;fill-opacity:1" />
  <path
     fill="#4c5359"
     d="M38.5 48c-.7.4-1.6.6-2.4.6-.8-.1-1.6-.3-2.2-.8-.6-.5-1.1-1.2-1.2-1.9l-.7-3.4-.6 3.4c-.1.8-.6 1.4-1.2 1.9s-1.4.8-2.2.8c-.9 0-1.7-.1-2.4-.6-.7-.4-1.4-1.1-1.7-2 0 1 .6 1.9 1.3 2.5.7.6 1.8 1 2.7 1.1 1 .1 2-.2 2.9-.8.5-.3.8-.7 1.2-1.2.3.5.7.9 1.2 1.2.9.6 1.9.9 2.9.8 1 0 2-.4 2.7-1.1.8-.6 1.3-1.6 1.3-2.5-.3.9-.9 1.6-1.6 2"
     id="path12" />
  <path
     fill="#f15a61"
     d="M37.6 40.5c-1.1-.8-4.6-.9-5.6-.9s-4.5.1-5.6.9c-.8.6-.2 2.1 2 3.4 1.3.8 2.6 1.1 3.6 1.1s2.3-.3 3.7-1.1c2.1-1.3 2.7-2.8 1.9-3.4"
     id="path13"
     style="fill:#4c5359;fill-opacity:1" />
  <metadata
     id="metadata14">
    <rdf:RDF>
      <cc:Work
         rdf:about="">
        <dc:title>hedgehog</dc:title>
      </cc:Work>
    </rdf:RDF>
  </metadata>
</svg>
