<?xml version="1.0" encoding="UTF-8" standalone="no"?>
<svg
   viewBox="0 0 36 36"
   version="1.1"
   id="svg9"
   sodipodi:docname="1f996-1f464.svg"
   inkscape:version="1.3.2 (091e20e, 2023-11-25, custom)"
   xmlns:inkscape="http://www.inkscape.org/namespaces/inkscape"
   xmlns:sodipodi="http://sodipodi.sourceforge.net/DTD/sodipodi-0.dtd"
   xmlns="http://www.w3.org/2000/svg"
   xmlns:svg="http://www.w3.org/2000/svg"
   xmlns:rdf="http://www.w3.org/1999/02/22-rdf-syntax-ns#"
   xmlns:cc="http://creativecommons.org/ns#"
   xmlns:dc="http://purl.org/dc/elements/1.1/">
  <title
     id="title9">T-Rex, bust in silhouette</title>
  <defs
     id="defs9" />
  <sodipodi:namedview
     id="namedview9"
     pagecolor="#ffffff"
     bordercolor="#000000"
     borderopacity="0.25"
     inkscape:showpageshadow="2"
     inkscape:pageopacity="0.0"
     inkscape:pagecheckerboard="0"
     inkscape:deskcolor="#d1d1d1"
     inkscape:zoom="10.708334"
     inkscape:cx="29.042801"
     inkscape:cy="21.338521"
     inkscape:window-width="1920"
     inkscape:window-height="991"
     inkscape:window-x="-9"
     inkscape:window-y="-9"
     inkscape:window-maximized="1"
     inkscape:current-layer="svg9" />
  <path
     d="m 17.518112,14.115116 c 2.01402,0.07734 4.251714,1.620969 4.869359,3.053693 0.704004,1.637401 -5.710411,4.413605 -7.685375,4.27147 -1.974963,-0.142136 -4.162538,-2.348582 -1.93601,-2.505879 2.226528,-0.157297 1.104757,-2.085988 0.667336,-3.260974 0,0 1.056126,-1.067083 3.241352,-1.495384 0.273153,-0.05331 0.555621,-0.07397 0.843338,-0.06292 z"
     style="fill:#662113;stroke-width:1.88622"
     id="path8"
     sodipodi:nodetypes="ccsscccc" />
  <path
     fill="#f4900c"
     d="m 1.4222949,13.315367 c 0.1464326,1.095392 0.4392987,1.895141 0.6458063,1.864819 0.2046303,-0.03032 0.7040036,-2.012639 0.7040036,-2.012639 0,0 0.3811009,2.190782 0.6458062,2.162355 0.2647054,-0.03031 0.5275334,-2.01264 0.5275334,-2.01264 0,0 0.4392986,2.014535 0.734042,2.014535 0.2928651,0 0.6739659,-2.014535 0.6739659,-2.014535 0,0 0.3191485,1.993688 0.5538168,2.022116 0.2346683,0.03032 0.9424269,-1.81744 0.9424269,-1.81744 0,0 0.4111379,1.868608 0.6157682,1.868608 0.2046303,0 0.7922397,-1.868608 0.7922397,-1.868608 0,0 0.35294,1.838286 0.5275332,1.838286 0.1764705,0 0.8222767,-1.838286 0.8222767,-1.838286 0,0 0.2590735,1.972841 0.4392982,2.016429 0.4806,0.117499 1.351687,-1.68857 1.351687,-1.68857 0,0 -0.409261,2.008849 -0.14831,2.044857 0.439298,0.05874 1.847306,-1.392928 1.847306,-1.392928 0,0 -1.789109,-1.806069 -3.2271531,-2.101711 C 8.4322962,12.104373 2.3309292,10.91991 1.6269252,11.185231 0.9229213,11.45055 1.4222949,13.315367 1.4222949,13.315367 Z m 1.1939911,5.196476 c 0.2571958,-1.074545 0.6307874,-1.838287 0.8335404,-1.789013 0.2008756,0.05117 0.2478095,1.900826 0.2478095,1.900826 0,0 0.8504365,-1.965261 1.1095099,-1.908407 0.2590734,0.05685 0.1145182,2.037277 0.1145182,2.037277 0,0 0.8485591,-1.936834 1.1395469,-1.904617 0.2909887,0.03032 0.1727159,2.042962 0.1727159,2.042962 0,0 0.9799732,-2.071389 1.2165189,-2.075179 0.2365456,-0.0057 0.2647053,2.022115 0.2647053,2.022115 0,0 0.72841,-1.919777 0.9330401,-1.897036 0.2046303,0.02085 0.4336657,2.099816 0.4336657,2.099816 0,0 0.5444302,-1.847762 0.7190234,-1.830706 0.1745923,0.01895 0.4805998,1.925462 0.4805998,1.925462 0,0 0.550061,-1.639295 0.730287,-1.679093 0.180224,-0.0398 0.413015,1.711312 0.413015,1.711312 0,0 0.544429,-1.292487 0.790361,-1.387243 0.245932,-0.09286 0.40363,1.665828 0.40363,1.665828 0,0 -0.234668,0.714468 -1.695242,0.858499 -1.4605733,0.14403 -7.6501752,0.687936 -8.3222635,0.348706 -0.6720896,-0.339231 0.015022,-2.141509 0.015022,-2.141509 z"
     id="path2"
     style="stroke-width:1.88622"
     sodipodi:nodetypes="cccccscccscscccccssccccccccccccccscccsscc" />
  <path
     fill="#ab7e59"
     d="M 19.777084,17.168188 C 19.563067,15.873807 15.757692,17.808746 14.982348,17.594595 14.207005,17.380444 11.103756,14.247777 10.257075,14.177657 9.4103928,14.107538 1.8653482,13.963506 1.0186663,13.537099 0.17198435,13.110692 0.66572511,9.7638756 1.4410681,8.8390456 2.216412,7.9142176 4.9667195,5.8485143 8.21077,5.4922277 c 3.244049,-0.3562866 5.500617,-0.4264071 6.559438,-0.9968436 1.058823,-0.5704375 3.384851,-0.7826937 5.006876,0 1.623902,0.7845874 7.406122,1.7094158 9.80349,4.1295115 2.397367,2.4200944 5.147676,5.6247754 5.782219,10.8212514 0.634542,5.196476 -3.209955,10.720954 -4.216211,12.63315 L 13.66057,32.2304 c 2.568016,-1.782397 6.444919,-7.120909 2.592741,-8.370471 C 15.59193,23.645391 12.093119,22.792966 9.6244125,22.72095 7.1557051,22.650836 2.7833716,22.008377 2.2201694,21.155563 1.6550888,20.300855 1.7977667,18.521318 2.432309,18.451199 c 0.634542,-0.07202 4.5844728,0.356286 5.7127569,0.356286 1.1282828,0 1.7628251,-0.924828 2.9624481,-0.570437 1.199622,0.356286 3.384851,1.709416 4.302871,1.565385 0.912389,-0.142135 4.438041,-2.205943 4.366702,-2.634245 z"
     id="path3"
     style="stroke-width:1.88622"
     sodipodi:nodetypes="sssscsscssccscccsccss" />
  <path
     d="m 16.931442,5.9164132 c 1.169814,2.56e-5 2.332012,0.6002565 2.332012,1.4028484 0.0019,1.019585 -0.505769,2.243077 -2.940683,2.243077 -1.41176,0 -4.92436,-1.895141 -4.92436,-1.895141 4.653932,0.0095 2.526232,-1.3195808 5.034362,-1.7137693 0.164024,-0.025825 0.331552,-0.037023 0.498669,-0.037013 z"
     style="fill:#8b5e3c;stroke-width:1.88622"
     id="path7"
     sodipodi:nodetypes="scsccss" />
  <ellipse
     fill="#292f33"
     cx="-17.026773"
     cy="7.719018"
     id="circle4"
     transform="scale(-1,1)"
     rx="0.93867195"
     ry="0.9475702"
     style="stroke-width:1.88622" />
  <metadata
     id="metadata9">
    <rdf:RDF>
      <cc:Work
         rdf:about="">
        <dc:title>T-Rex, bust in silhouette</dc:title>
      </cc:Work>
    </rdf:RDF>
  </metadata>
</svg>
