<?xml version="1.0" encoding="UTF-8" standalone="no"?>
<svg
   viewBox="0 0 36 36"
   version="1.1"
   id="svg4"
   sodipodi:docname="1f995.svg"
   xml:space="preserve"
   inkscape:version="1.3.2 (091e20e, 2023-11-25, custom)"
   xmlns:inkscape="http://www.inkscape.org/namespaces/inkscape"
   xmlns:sodipodi="http://sodipodi.sourceforge.net/DTD/sodipodi-0.dtd"
   xmlns="http://www.w3.org/2000/svg"
   xmlns:svg="http://www.w3.org/2000/svg"
   xmlns:rdf="http://www.w3.org/1999/02/22-rdf-syntax-ns#"
   xmlns:cc="http://creativecommons.org/ns#"
   xmlns:dc="http://purl.org/dc/elements/1.1/"><title
     id="title4">sauropod</title><defs
     id="defs4" /><sodipodi:namedview
     id="namedview4"
     pagecolor="#ffffff"
     bordercolor="#000000"
     borderopacity="0.25"
     inkscape:showpageshadow="2"
     inkscape:pageopacity="0.0"
     inkscape:pagecheckerboard="0"
     inkscape:deskcolor="#d1d1d1"
     inkscape:zoom="15.14387"
     inkscape:cx="10.433264"
     inkscape:cy="16.937546"
     inkscape:window-width="1920"
     inkscape:window-height="991"
     inkscape:window-x="-9"
     inkscape:window-y="-9"
     inkscape:window-maximized="1"
     inkscape:current-layer="svg4" /><path
     fill="#3E721D"
     d="M17.68 22s1.937 7.873 1.187 9.373c-2.373 4.746-1.187 4.627 0 4.627h2.373c2.373 0-1.187-14-1.187-14H17.68zM5.255 19.387s-.436 7.993-1.187 9.493C1.695 33.626 1.695 36 2.882 36h2.373c1.186 0 1.187-4.154 1.187-5.34 0-1.187 1.187-8.603 1.187-8.603l-2.374-2.67z"
     id="path1"
     style="fill:#3b7f10;fill-opacity:1" /><path
     fill="#77B255"
     d="M12.374 5.251c-2.068.017-4.209-.435-5.523 2.099-1.404 2.709-2.065 8.579.776 9.664 2.479.947 7.933-1.187 13.866 1.187 5.933 2.373 8.306 16.612 13.015 16.63 1.224.005 1.206 1.123.001 1.132-5.914.045-8.509-5.897-9.509-5.897 0 0 1 5.934 0 5.934h-4c-1 0 0-3.081 0-4.268v-1.667s-1.593 1.218-5.936 1.218C11.781 31.284 9 30.066 9 30.066S10 36 9 36H5.255c-1.678 0 .166-4.013 0-5.934-.102-1.182-.51-4.757-1.224-5.933-1.726-2.847-2.763-11.521-1.929-15.285.781-3.526 3.122-6.633 4.675-7.51C8.296.479 9.64-.162 12.968.373c1.775.285 3.591 2.922 2.89 4.274-.421.81-1.94.591-3.484.604z"
     id="path2"
     style="fill:#85e845;fill-opacity:1" /><path
     d="M12.967 2.181c0 .328-.265.593-.593.593-.328 0-.593-.265-.593-.593s.265-.593.593-.593c.328 0 .593.266.593.593z"
     id="path3" /><path
     d="M10.218 18.485c.094.304-.076.626-.38.72-.304.094-.626-.076-.72-.38-.094-.304.076-.626.38-.72.304-.094.626.076.72.38zm3.874 1.248c.134.433-.108.892-.54 1.025-.432.134-.892-.108-1.026-.541-.134-.432.108-.892.541-1.025.432-.133.891.109 1.025.541zm-1.625-1.426c.071.23-.057.474-.288.545-.23.071-.474-.058-.545-.288-.071-.23.058-.474.288-.545.23-.071.474.058.545.288zm2.458-.331c.067.218-.054.448-.272.516-.217.067-.448-.054-.516-.272-.067-.218.054-.448.272-.516.218-.067.449.055.516.272zm2.843.35c.125.402-.101.829-.503.954s-.829-.1-.954-.503c-.125-.402.101-.829.503-.954.403-.125.83.101.954.503zm4.753 1.979c.08.258-.064.531-.322.61-.257.08-.531-.064-.61-.322-.08-.257.064-.531.322-.61.258-.08.531.065.61.322zm-5.854 0c.08.258-.064.531-.322.61-.257.08-.531-.064-.61-.322-.08-.257.064-.531.322-.61.257-.08.531.065.61.322zm4.218-1.306c.08.257-.064.531-.322.61-.257.08-.531-.064-.61-.322s.064-.531.322-.61c.257-.08.531.065.61.322zm-1.501.199c.118.381-.095.785-.476.903s-.785-.095-.903-.476.095-.785.476-.903.785.095.903.476z"
     fill="#5C913B"
     id="path4"
     style="fill:#52cc00;fill-opacity:1" /><metadata
     id="metadata4"><rdf:RDF><cc:Work
         rdf:about=""><dc:title>sauropod</dc:title></cc:Work></rdf:RDF></metadata></svg>
