<?xml version="1.0" encoding="UTF-8" standalone="no"?>
<svg
   viewBox="0 0 64 64"
   version="1.1"
   id="svg7"
   sodipodi:docname="1f9d2-1f3fc.svg"
   xml:space="preserve"
   inkscape:version="1.3.2 (091e20e, 2023-11-25, custom)"
   xmlns:inkscape="http://www.inkscape.org/namespaces/inkscape"
   xmlns:sodipodi="http://sodipodi.sourceforge.net/DTD/sodipodi-0.dtd"
   xmlns="http://www.w3.org/2000/svg"
   xmlns:svg="http://www.w3.org/2000/svg"
   xmlns:rdf="http://www.w3.org/1999/02/22-rdf-syntax-ns#"
   xmlns:cc="http://creativecommons.org/ns#"
   xmlns:dc="http://purl.org/dc/elements/1.1/"><defs
     id="defs7" /><sodipodi:namedview
     id="namedview7"
     pagecolor="#ffffff"
     bordercolor="#000000"
     borderopacity="0.25"
     inkscape:showpageshadow="2"
     inkscape:pageopacity="0.0"
     inkscape:pagecheckerboard="0"
     inkscape:deskcolor="#d1d1d1"
     inkscape:zoom="12.046875"
     inkscape:cx="25.608301"
     inkscape:cy="29.011673"
     inkscape:window-width="1920"
     inkscape:window-height="991"
     inkscape:window-x="-9"
     inkscape:window-y="-9"
     inkscape:window-maximized="1"
     inkscape:current-layer="svg7" /><title
     id="title1">child: medium-light skin tone</title><g
     id="g7"
     transform="matrix(1.1012884,0,0,1.0399684,-3.0751135,-0.20521557)"
     style="fill:#dbb471;fill-opacity:1"><path
       style="fill:#dbb471;fill-opacity:1;fill-rule:evenodd;stroke-width:3.22"
       d="M 6.9727626,26.396887 0.4150454,34.863813 10.708171,33.618677 4.6485084,45.738003 13.447471,43.330739 10.459144,54.702983 18.511025,47.398184 Z"
       id="path11" /><path
       style="fill:#dbb471;fill-opacity:1;fill-rule:evenodd;stroke-width:3.22"
       d="m 57.780804,26.383917 6.557718,8.466926 -10.293126,-1.245136 6.059663,12.119326 -8.798963,-2.407264 2.988327,11.372244 -8.051881,-7.304799 z"
       id="path11-0" /><path
       fill="#ffb300"
       d="M 6,36 C 21.482981,34.065541 37.703106,32.901732 58,36 57.815587,10.766196 53.741148,5.4722664 32,2 23.433713,0.63188313 18.637459,5.7179385 14.263966,8.5487123 7.4074728,12.986626 5.7625463,20.038672 6,36 Z"
       id="path1-3"
       sodipodi:nodetypes="ccssc"
       style="fill:#dbb471;fill-opacity:1" /></g><path
     fill="#ffdd67"
     d="m 57.2,33 c 0,0 -6.776654,-8.114527 -7.176654,-15.014527 -7.419314,-2.369585 -5.612943,-1.554088 -11.601442,-1.73712 -2.256541,-0.06897 -8.425622,10.988245 -10.442653,9.80407 C 25.608285,24.660458 27.569429,16.82292 23.994571,17.556391 18.011498,18.783967 20.350948,27.252768 6.8,33 0.3,33 0.3,43.6 7.2,43.6 7.2,55 21.5,62 32,62 42.5,62 56.8,55 56.8,43.6 63.7,43.6 63.7,33 57.2,33"
     id="path2"
     sodipodi:nodetypes="ccsssccscc"
     style="fill:#fed0ac;fill-opacity:1" /><circle
     cx="44.5"
     cy="35.5"
     r="6.5"
     fill="#fff"
     id="circle2" /><circle
     cx="44.5"
     cy="35.5"
     r="4.5"
     fill="#664e27"
     id="circle3" /><circle
     cx="44.5"
     cy="35.5"
     r="1.5"
     fill="#231f20"
     id="circle4" /><circle
     cx="19.5"
     cy="35.5"
     r="6.5"
     fill="#fff"
     id="circle5" /><circle
     cx="19.5"
     cy="35.5"
     r="4.5"
     fill="#664e27"
     id="circle6" /><circle
     cx="19.5"
     cy="35.5"
     r="1.5"
     fill="#231f20"
     id="circle7" /><path
     fill="#937237"
     d="M40.1 48.1c-5.2 3.6-11 3.6-16.2 0-.6-.4-1.2.3-.8 1 1.6 2.6 4.8 4.9 8.9 4.9s7.3-2.3 8.9-4.9c.4-.7-.2-1.4-.8-1"
     id="path7"
     style="fill:#664e27;fill-opacity:1" /><metadata
     id="metadata7"><rdf:RDF><cc:Work
         rdf:about=""><dc:title>child: medium-light skin tone</dc:title></cc:Work></rdf:RDF></metadata></svg>
