<?xml version="1.0" encoding="UTF-8" standalone="no"?>
<svg
   viewBox="0 0 64 64"
   version="1.1"
   id="svg15"
   sodipodi:docname="1f9d8-1f3fc.svg"
   xml:space="preserve"
   inkscape:version="1.3.2 (091e20e, 2023-11-25, custom)"
   xmlns:inkscape="http://www.inkscape.org/namespaces/inkscape"
   xmlns:sodipodi="http://sodipodi.sourceforge.net/DTD/sodipodi-0.dtd"
   xmlns="http://www.w3.org/2000/svg"
   xmlns:svg="http://www.w3.org/2000/svg"
   xmlns:rdf="http://www.w3.org/1999/02/22-rdf-syntax-ns#"
   xmlns:cc="http://creativecommons.org/ns#"
   xmlns:dc="http://purl.org/dc/elements/1.1/"><defs
     id="defs15" /><sodipodi:namedview
     id="namedview15"
     pagecolor="#ffffff"
     bordercolor="#000000"
     borderopacity="0.25"
     inkscape:showpageshadow="2"
     inkscape:pageopacity="0.0"
     inkscape:pagecheckerboard="0"
     inkscape:deskcolor="#d1d1d1"
     inkscape:zoom="11.313709"
     inkscape:cx="23.201941"
     inkscape:cy="28.151689"
     inkscape:window-width="1920"
     inkscape:window-height="991"
     inkscape:window-x="-9"
     inkscape:window-y="-9"
     inkscape:window-maximized="1"
     inkscape:current-layer="svg15" /><title
     id="title1">person in lotus position: medium-light skin tone</title><path
     id="rect16"
     style="fill:#fed0ac;fill-rule:evenodd;stroke-width:4.04648;fill-opacity:1"
     d="M 16.001483,35.866078 23.031349,22.430482 26.174621,24.699743 19.144755,38.13534 8.7568902,42.372397 9.0468296,38.450854 Z"
     sodipodi:nodetypes="ccccccc" /><path
     id="rect16-1"
     style="fill:#fed0ac;fill-rule:evenodd;stroke-width:4.04648;fill-opacity:1"
     d="m 48.570031,35.700761 -7.029866,-13.435596 -3.143272,2.269261 7.029866,13.435597 10.387865,4.237057 -0.28994,-3.921543 z"
     sodipodi:nodetypes="ccccccc" /><ellipse
     style="fill:#fed0ac;fill-opacity:1;fill-rule:evenodd;stroke-width:3.22"
     id="path17"
     cx="57.982758"
     cy="40.835415"
     rx="3.2703688"
     ry="2.032932" /><ellipse
     style="fill:#fed0ac;fill-opacity:1;fill-rule:evenodd;stroke-width:3.22"
     id="path16"
     cx="7.115262"
     cy="40.835415"
     rx="3.2261746"
     ry="1.9445436" /><path
     fill="#ffb300"
     d="m 32.344572,2.8946822 c -5.53036,0 -8.557928,3.6538649 -8.557928,8.4253828 V 23.571261 H 40.902498 V 11.320065 c 0,-7.1357834 -4.642271,-7.0068234 -4.642271,-7.0068234 0,0 -0.322941,-1.4185594 -3.915655,-1.4185594"
     id="path1"
     style="stroke-width:0.416565;fill:#dbb471;fill-opacity:1" /><path
     fill="#b386e2"
     d="m 36.219859,21.851794 v -2.880105 h -7.750576 v 2.880105 c -4.168194,0.215182 -5.363744,1.461293 -5.775994,4.043747 -0.104552,0.654944 -0.778127,4.828311 0.19869,8.709518 1.186338,4.713701 -0.246278,9.920236 -0.48238,9.880026 l 19.331523,-0.249028 c -0.680574,-0.236271 -1.447781,-4.058366 -0.773992,-8.086183 0.780354,-4.664847 1.215922,-10.052519 1.06858,-10.508759 -0.934734,-2.894382 -1.528713,-3.676132 -5.815851,-3.789321"
     id="path2"
     style="stroke-width:0.416565;fill:#fed0ac;fill-opacity:1"
     sodipodi:nodetypes="ccccssccssc" /><g
     fill="#ffdd67"
     id="g4"
     transform="matrix(0.40367581,0,0,0.42986647,19.426945,0.40145673)"
     style="fill:#fed0ac;fill-opacity:1"><path
       d="m 16.9,34.7 c 0,0 -3,-0.8 -3,-5.2 0,-3.5 2.3,-4.1 2.3,-4.1 8.2,0 21.7,-10.5 21.7,-10.5 0,0 5.1,9.3 10,10.5 0,0 2.4,0.4 2.4,4.1 0,4.4 -3.2,5.2 -3.2,5.2 0,6.7 -9.3,14.7 -15,14.7 -5.8,0 -15.2,-8 -15.2,-14.7"
       id="path3"
       style="fill:#fed0ac;fill-opacity:1" /></g><path
     fill="#f09985"
     d="m 32.344572,18.799742 -2.825731,-0.472854 c 1.695438,2.5792 3.956022,2.5792 5.651461,0 l -2.82573,0.472854"
     id="path12"
     style="stroke-width:0.416565" /><path
     fill="#d47f6c"
     d="m 33.474863,18.240916 c -0.847719,-0.343894 -1.130291,0.214933 -1.130291,0.214933 0,0 -0.282574,-0.51584 -1.130293,-0.214933 -0.645881,0.257919 -1.695438,0.08597 -1.695438,0.12896 1.130291,0.25792 1.251395,0.77376 2.825731,0.77376 1.533967,0 1.695438,-0.51584 2.82573,-0.77376 0,0 -1.049557,0.128959 -1.695439,-0.12896"
     id="path13"
     style="stroke-width:0.416565" /><path
     fill="#eba352"
     d="m 32.344572,17.424169 c -1.170661,0 -1.776174,-0.902719 -1.170661,-0.902719 h 2.381688 c 0.565146,0 -0.04037,0.902719 -1.211027,0.902719"
     id="path14"
     style="stroke-width:0.416565;fill:#e0a372;fill-opacity:1" /><g
     fill="#937237"
     id="g15"
     transform="matrix(0.40367581,0,0,0.42986647,19.426945,0.40145673)"
     style="fill:#664e27;fill-opacity:1"><path
       d="m 19.4,30.2 c 2.5,4.7 7.5,4.7 9.9,0 0.1,-0.2 -0.2,-0.3 -0.6,-0.6 -2.5,2 -6.5,1.8 -8.8,0 -0.3,0.3 -0.6,0.4 -0.5,0.6 m 15.3,0 c 2.5,4.7 7.5,4.7 9.9,0 0.1,-0.2 -0.2,-0.3 -0.6,-0.6 -2.5,2 -6.5,1.8 -8.8,0 -0.3,0.3 -0.6,0.4 -0.5,0.6"
       id="path15"
       style="fill:#664e27;fill-opacity:1" /></g><path
     fill="#b386e2"
     d="m 37.651688,21.866002 c 0.344669,1.334475 -7.934742,14.047123 -9.325344,-0.127706 -0.09578,-0.97634 -1.748228,0.104556 -2.100921,0.19216 -2.309752,0.573707 -3.829038,2.218657 -3.531945,3.965396 0.111209,0.653847 -0.778127,4.828311 0.19869,8.709518 1.186338,4.713701 -0.246278,9.920236 -0.48238,9.880026 5.994061,2.975497 12.172118,4.699815 19.331523,-0.249028 -0.680574,-0.236271 -1.447781,-4.058366 -0.773992,-8.086183 0.780354,-4.664847 1.215922,-10.052519 1.06858,-10.508759 -0.755103,-2.338158 -1.287834,-3.297647 -3.724769,-3.639745"
     id="path2-2"
     style="fill:#b386e2;fill-opacity:1;stroke-width:0.416565"
     sodipodi:nodetypes="cssssccssc" /><path
     id="path18"
     style="fill:#fed0ac;fill-rule:evenodd;stroke-width:3.22;fill-opacity:1"
     d="m 57.540814,49.851027 c -0.144248,2.925378 -11.199106,5.303301 -25.013903,5.303301 -13.814797,0 -24.8350503,-2.379835 -25.0139019,-5.303301 C 7.0379056,42.085096 18.200498,38.509678 31.1226,46.604005 c 0.427974,0.26808 0.905868,-0.477657 1.404311,-0.642065 13.867736,-4.574201 25.591605,-7.826787 25.013903,3.889087 z"
     sodipodi:nodetypes="ssssss" /><rect
     style="fill:#e0a372;fill-opacity:1;fill-rule:evenodd;stroke-width:2.44342"
     id="rect19"
     width="24.169903"
     height="8.7105532"
     x="37.181591"
     y="37.212444"
     transform="matrix(0.93246683,0.36125561,-0.59165209,0.8061934,0,0)" /><rect
     style="fill:#fed0ac;fill-opacity:1;fill-rule:evenodd;stroke-width:2.44342"
     id="rect19-8"
     width="24.169903"
     height="8.7105532"
     x="37.32674"
     y="38.040562"
     transform="matrix(0.93246683,0.36125561,-0.59165209,0.8061934,0,0)" /><ellipse
     style="fill:#eba352;fill-opacity:1;fill-rule:evenodd;stroke-width:3.22"
     id="path19"
     cx="42.293823"
     cy="55.507881"
     rx="5.8778253"
     ry="3.1819806" /><ellipse
     style="fill:#fed0ac;fill-opacity:1;fill-rule:evenodd;stroke-width:3.22"
     id="path20"
     cx="42.647377"
     cy="56.214989"
     rx="5.7010484"
     ry="3.0052037" /><rect
     style="fill:#e0a372;fill-opacity:1;fill-rule:evenodd;stroke-width:4.48783"
     id="rect20"
     width="30.452797"
     height="10.714247"
     x="-6.1532326"
     y="58.622532"
     transform="matrix(0.96532425,-0.26105381,0.51310326,0.85832689,0,0)" /><rect
     style="fill:#fed0ac;fill-opacity:1;fill-rule:evenodd;stroke-width:4.48783"
     id="rect20-4"
     width="30.452797"
     height="10.714247"
     x="-6.5737157"
     y="58.979515"
     transform="matrix(0.96532425,-0.26105381,0.51310326,0.85832689,0,0)" /><path
     id="path21"
     style="fill:#fed0ac;fill-rule:evenodd;stroke-width:3.22;fill-opacity:1"
     d="m 30.317203,59.971493 c -10e-7,1.342427 -3.106467,2.430679 -6.938486,2.430679 -3.832019,0 -6.769708,-1.098904 -6.938485,-2.430679 -0.206028,-1.625715 -0.03016,-6.743534 6.938485,-2.43068 3.258457,2.016641 6.938487,1.088252 6.938486,2.43068 z"
     sodipodi:nodetypes="sssss" /><metadata
     id="metadata21"><rdf:RDF><cc:Work
         rdf:about=""><dc:title>person in lotus position: medium-light skin tone</dc:title></cc:Work></rdf:RDF></metadata></svg>
