<?xml version="1.0" encoding="UTF-8" standalone="no"?>
<svg
   viewBox="0 0 64 64"
   version="1.1"
   id="svg8"
   sodipodi:docname="1f9d7-1f3fc-200d-2640.svg"
   xml:space="preserve"
   inkscape:version="1.3.2 (091e20e, 2023-11-25, custom)"
   xmlns:inkscape="http://www.inkscape.org/namespaces/inkscape"
   xmlns:sodipodi="http://sodipodi.sourceforge.net/DTD/sodipodi-0.dtd"
   xmlns="http://www.w3.org/2000/svg"
   xmlns:svg="http://www.w3.org/2000/svg"
   xmlns:rdf="http://www.w3.org/1999/02/22-rdf-syntax-ns#"
   xmlns:cc="http://creativecommons.org/ns#"
   xmlns:dc="http://purl.org/dc/elements/1.1/"><defs
     id="defs8" /><sodipodi:namedview
     id="namedview8"
     pagecolor="#ffffff"
     bordercolor="#000000"
     borderopacity="0.25"
     inkscape:showpageshadow="2"
     inkscape:pageopacity="0.0"
     inkscape:pagecheckerboard="0"
     inkscape:deskcolor="#d1d1d1"
     showguides="false"
     inkscape:zoom="11.313709"
     inkscape:cx="30.096232"
     inkscape:cy="34.869203"
     inkscape:window-width="1920"
     inkscape:window-height="991"
     inkscape:window-x="-9"
     inkscape:window-y="-9"
     inkscape:window-maximized="1"
     inkscape:current-layer="svg8" /><title
     id="title1">woman climbing: medium-light skin tone</title><path
     fill="#77994f"
     d="M -0.36464798,-0.23133985 C -5.1362293,-0.00531518 59.784944,-0.02981635 43.91133,0.00795599 41.862845,0.0128305 41.616058,3.5606575 41.616058,3.5606575 c 0,0 0.208003,2.5413273 0,3.2344152 -0.624009,2.5413255 -3.848053,5.3136803 -4.576063,7.6239783 -0.624008,2.079266 -0.312004,6.930887 -1.144016,8.779124 -0.832011,2.079266 -4.888067,6.00677 -4.888067,6.00677 0,0 -0.104001,5.54471 -0.416006,7.392946 -0.312004,1.848238 -1.976027,6.46883 -1.976027,6.46883 0,0 1.040014,6.00677 0.936013,8.086037 -0.104002,3.234415 -2.184031,12.937659 -2.184031,12.937659 l -27.8943725,0.75"
     id="path3"
     style="fill:#747474;fill-opacity:1;stroke-width:1.55008"
     sodipodi:nodetypes="cscccccscccc" /><g
     fill="#8bce4a"
     id="g5"
     style="fill:#8c8c8c;fill-opacity:1"
     transform="matrix(0,2.3102961,-1.0400143,0,49.10416,-83.306476)"><path
       d="M 56.3,32.4 48.9,17.3 c 2.1,5.3 1,13.9 7.4,15.1 M 54.9,19.6 c 0,0 0.9,5.9 5.6,7.5 L 54.9,19.6 M 36.091209,33.13449 36.186277,34.339785 37.3,35.8 l 7.354106,6.399047 7.337683,3.82305 L 56.3,47 Z"
       id="path4"
       style="fill:#8c8c8c;fill-opacity:1"
       sodipodi:nodetypes="ccccccccccccc" /><path
       d="m 37.7,7.2 0.9,7.8 2.5,5 h -1.7 l 5.6,7.8 -3.7,-1.6 2.9,8.4 5.6,4.2 -2.1,1.6 6.3,3.3 3.9,3.3 H 64 V 44.2 L 57.3,40.8 55.7,39.2 54.5,40.4 48.9,30.7 43.3,17.8 41,14.3 Z"
       id="path5"
       style="fill:#8c8c8c;fill-opacity:1" /></g><path
     style="fill:#ffb300;fill-opacity:1;fill-rule:evenodd;stroke-width:3.22"
     d="M 39.75,35 34.125,0.375 36,-0.5 42,33.875 Z"
     id="path18" /><g
     id="g9"
     transform="matrix(0.71793768,0.40407811,-0.40000289,0.72525201,38.894323,-3.5735507)"><path
       fill="#ffdd67"
       d="m 32.6,16.1 2.7,-1.5 v 9.5 h -6.1 z"
       id="path1"
       style="fill:#fed0ac;fill-opacity:1" /><path
       fill="#eba352"
       d="m 28.4,20.5 c 1.8,1.1 0.8,3.6 0.8,3.6 2.5,0 4.3,-4.9 4.3,-8 l -5.1,4.4"
       id="path2"
       style="fill:#e0a372;fill-opacity:1" /><path
       fill="#ffdd67"
       d="m 34.4,3.7 -11,3.8 c -1.4,2.6 -0.4,3.9 -0.5,5 0,0.5 -1,1.4 -1.5,1.9 -1.2,1 0.8,1.9 1.5,1.7 0.5,1.1 -0.9,1.7 2.4,1.1 0,0 -3.4,1.4 -1,2.1 -0.2,1.3 -0.5,3.8 6.4,1.2 2,-0.8 2.8,-4.4 2.8,-4.4 L 36.9,15.5 34.4,3.7"
       id="path3-9"
       style="fill:#fed0ac;fill-opacity:1" /><path
       fill="#ffb300"
       d="m 26.6,2.8 c 7.2,-2.4 11.2,1.3 11.8,3 1.8,4.4 0.3,9.4 -3.1,13.1 0,0 -1.6,-0.7 -1.9,-2.7 0,0 1.8,0.8 2.6,-3 0.7,-3.2 -2.7,-4.9 -4.4,-0.5 h -0.5 c -1,-2.2 0.8,-5 -1.8,-5.8 -2.2,-0.8 -6.2,1.2 -6.2,1.2 -0.7,-1.4 0.6,-4.3 3.5,-5.3"
       id="path4-7"
       style="fill:#dbb471;fill-opacity:1" /><path
       fill="#937237"
       d="m 25.7,12.5 c 0,0.7 -0.4,1.2 -0.9,1.2 -0.5,0 -0.6,-0.6 -0.6,-1.2 0,-0.7 0.1,-1.2 0.6,-1.2 0.5,0 0.9,0.6 0.9,1.2"
       id="path5-3"
       style="fill:#664e27;fill-opacity:1" /><path
       fill="#eba352"
       d="m 32.6,13.4 c 0,-1.3 1.1,-2.5 2.2,-2.5 0,0 -1.9,1.6 -1.4,3.8 0,0 -0.8,-0.3 -0.8,-1.3"
       id="path6"
       style="fill:#e0a372;fill-opacity:1" /><path
       fill="#937237"
       d="m 26.4,16.9 c 0,0 -1.4,1 -1.8,1.2 -1,0.5 -1.1,0.2 -0.6,-0.3 0.4,-0.4 1.3,-0.7 1.3,-0.7 l 1.1,-0.2"
       id="path7"
       style="fill:#664e27;fill-opacity:1" /><g
       fill="#d3976e"
       id="g8"
       transform="translate(-1.9153996,0.10449579)"
       style="display:inline"><path
         d="M 21.6,58.8 C 19.7,58.8 18,60.2 18,62 h 8.1 C 27,62 28,61.3 28,60.4 V 58.8 H 21.6 M 39.7,56.7 C 38.3,57.9 38,60 39.2,61.3 l 6.1,-5 c 0.7,-0.6 1,-1.7 0.4,-2.4 l -1.1,-1.2 -4.9,4"
         id="path8" /></g><path
       fill="#3e4347"
       d="m 36.6,46.9 2.080218,-8.324758 -10.868696,0.0048 L 22.2,47.8 21.6,58.8 H 28 l 1,-9.7 1,-2 0.3,3.2 9.6,6.2 4.7,-3.7 z"
       id="path13"
       sodipodi:nodetypes="cccccccccccc"
       transform="translate(-1.9153996,0.10449579)"
       style="display:inline" /><path
       fill="#47b892"
       d="M 36.6,38.7 H 25 c 0,0 -0.8,-8.5 2.2,-13.9 2.2,-4.1 8.3,-2.4 8.3,-2.4 l 1.1,16.3"
       id="path12"
       style="fill:#c28fef;fill-opacity:1" /><path
       fill="#3b946f"
       d="m 29.319026,30.194661 c 1.038907,-0.09833 1.871683,-1.061973 1.818365,-2.177691 -0.05332,-1.115717 -0.977521,-1.873726 -2.016428,-1.775392 l -6.210536,0.686158 -5.056369,-4.279732 -2.528928,3.208412 5.713244,4.807432 c 0.26733,0.230309 0.733281,0.402494 1.054114,0.411448 0.221522,0.03802 0.320833,0.009 0.519453,-0.04917 l 6.707086,-0.83147"
       id="path14"
       style="stroke-width:1.01063;fill:#a278c5;fill-opacity:1" /><path
       fill="#ffdd67"
       d="m 17.765961,25.37762 1.101356,-1.578357 c 0.403434,-0.61448 0.320876,-1.3315 -0.280017,-1.705199 L 17.909807,21.53959 c -0.338747,-0.277237 -0.917511,-0.33762 -1.250301,-0.07861 -1.032412,-0.608782 -2.512516,-1.229715 -3.908362,0.698038 -0.201717,0.30724 -1.450318,2.060294 0.505562,3.542941 2.857219,2.043197 2.857219,2.043197 4.509255,-0.324338"
       id="path15"
       style="fill:#e0a372;fill-opacity:1" /><path
       fill="#3b946f"
       d="m 32.311367,26.801376 -9.500744,0.436027 -3.715623,-2.30516 -1.816668,2.957961 4.000384,2.197916 c 0.944604,0.902275 1.748696,0.884333 2.519261,0.646817 l 9.770793,-0.379619 z"
       id="path9"
       style="fill:#c28fef;fill-opacity:1"
       sodipodi:nodetypes="cccccccc" /><path
       fill="#ffdd67"
       d="m 18.396008,25.980103 0.737589,-1.549821 c 0.265247,-0.54378 -0.0042,-1.197904 -0.564321,-1.444442 L 17.78362,22.711467 c -0.392828,-0.137186 -0.818292,-0.05666 -1.134571,0.214731 -1.011146,-0.302207 -2.589578,-0.497049 -3.476108,1.433517 -0.09079,0.299228 -1.002836,2.093601 1.128641,2.888884 3.000801,1.124332 3.000801,1.124332 4.094426,-1.268496"
       id="path10"
       style="fill:#fed0ac;fill-opacity:1" /><path
       style="fill:#f15744;fill-opacity:1;fill-rule:evenodd;stroke-width:3.87724"
       d="M 22.392669,8.8062654 C 27.992529,7.8620205 33.709457,8.3546571 39.313031,11.005147 41.123765,5.0096997 33.071395,0.02496874 28.80077,1.8447723 27.454608,2.4184005 26.246906,2.427476 25.321486,3.1399822 23.030296,4.9040323 22.622757,7.6339841 22.392669,8.8062654 Z"
       id="path11"
       sodipodi:nodetypes="ccssc" /><ellipse
       style="fill:#94989b;fill-opacity:1;fill-rule:evenodd;stroke-width:3.87778"
       id="path16"
       cx="30.117279"
       cy="43.719738"
       transform="matrix(0.99312975,0.11701836,-0.14049877,0.99008085,0,0)"
       rx="4.0595155"
       ry="2.6515212" /><ellipse
       style="fill:#94989b;fill-opacity:1;fill-rule:evenodd;stroke-width:3.87726"
       id="path16-3"
       cx="10.198593"
       cy="56.639763"
       transform="matrix(0.9197998,-0.39238799,0.38751464,0.92186355,0,0)"
       rx="4.0935502"
       ry="2.6287754" /><path
       id="path17"
       style="fill:#94989b;fill-opacity:1;fill-rule:evenodd;stroke-width:2.27304"
       d="M 51.453125,38.5 A 3.140625,3.8125 0 0 0 48.3125,42.3125 3.140625,3.8125 0 0 0 51.453125,46.125 3.140625,3.8125 0 0 0 54.59375,42.3125 3.140625,3.8125 0 0 0 51.453125,38.5 Z m -0.02361,0.824324 a 2.1724624,2.9263514 0 0 1 2.172463,2.926352 2.1724624,2.9263514 0 0 1 -2.172463,2.926351 2.1724624,2.9263514 0 0 1 -2.172462,-2.926351 2.1724624,2.9263514 0 0 1 2.172462,-2.926352 z"
       transform="matrix(1.0629235,-0.59221363,0.58624102,1.0522037,-39.246728,26.793851)" /><rect
       style="fill:#f15744;fill-opacity:1;fill-rule:evenodd;stroke-width:2.15331"
       id="rect18"
       width="10.205001"
       height="2.9207191"
       x="57.335167"
       y="11.770632"
       transform="matrix(1.213608,-0.03557962,-0.47303381,1.1159778,-39.246728,26.793851)" /><path
       id="text18"
       style="font-size:13.3333px;-inkscape-font-specification:sans-serif;text-align:center;text-anchor:middle;fill:#3e4347;fill-opacity:1;fill-rule:evenodd;stroke-width:4.49981"
       d="m 33.541755,15.789079 4.073104,-5.8275379 1.743162,0.4080439 -5.186577,7.228329 -0.576522,5.216423 -1.617368,-0.378599 0.568198,-5.141095 -3.359186,-9.3060333 1.761135,0.4122509 z" /></g><metadata
     id="metadata18"><rdf:RDF><cc:Work
         rdf:about=""><dc:title>woman climbing: medium-light skin tone</dc:title></cc:Work></rdf:RDF></metadata><path
     style="fill:#dbb471;fill-opacity:1;fill-rule:evenodd;stroke-width:3.04139"
     d="m 59.39697,21.522563 4.110058,3.153227 c -0.0086,5.160646 -0.783061,8.434077 -1.194634,7.848103 -0.284253,-0.404705 -1.394476,-2.007171 -2.525846,-5.432864 z"
     id="path19"
     sodipodi:nodetypes="ccscc" /></svg>
