<?xml version="1.0" encoding="UTF-8" standalone="no"?>
<svg
   viewBox="0 0 64 64"
   version="1.1"
   id="svg19"
   sodipodi:docname="1f9dc-1f3fe.svg"
   xml:space="preserve"
   inkscape:version="1.3.2 (091e20e, 2023-11-25, custom)"
   xmlns:inkscape="http://www.inkscape.org/namespaces/inkscape"
   xmlns:sodipodi="http://sodipodi.sourceforge.net/DTD/sodipodi-0.dtd"
   xmlns="http://www.w3.org/2000/svg"
   xmlns:svg="http://www.w3.org/2000/svg"
   xmlns:rdf="http://www.w3.org/1999/02/22-rdf-syntax-ns#"
   xmlns:cc="http://creativecommons.org/ns#"
   xmlns:dc="http://purl.org/dc/elements/1.1/"><defs
     id="defs19" /><sodipodi:namedview
     id="namedview19"
     pagecolor="#ffffff"
     bordercolor="#000000"
     borderopacity="0.25"
     inkscape:showpageshadow="2"
     inkscape:pageopacity="0.0"
     inkscape:pagecheckerboard="0"
     inkscape:deskcolor="#d1d1d1"
     inkscape:zoom="11.313709"
     inkscape:cx="51.442018"
     inkscape:cy="30.184621"
     inkscape:window-width="1920"
     inkscape:window-height="991"
     inkscape:window-x="-9"
     inkscape:window-y="-9"
     inkscape:window-maximized="1"
     inkscape:current-layer="svg19" /><title
     id="title1">merperson: medium-dark skin tone</title><path
     fill="#ffb300"
     d="m 28.117769,14.520882 v 19.4 h 26.4 v -19.4 c 0.1,-18.1000001 -26.4,-18.1000001 -26.4,0"
     id="path8"
     style="fill:#231f20;fill-opacity:1" /><g
     fill="#ffdd67"
     id="g11"
     transform="translate(25.317769,-1.0791181)"
     style="fill:#b47d56;fill-opacity:1"><path
       d="m 3.6,19.4 c 0,-3.7 2.8,-1.8 2.8,-1.8 4.5,-2.8 4.5,-7.8 4.5,-7.8 0.5,4.5 14.8,7.8 14.8,7.8 0,0 2.8,-1.9 2.8,1.8 0,1.4 -0.5,2.6 -2.3,2.7 C 25.4,27.8 21.6,29 16,29 10.4,29 6.6,27.8 5.9,22.1 4.1,22 3.6,20.8 3.6,19.4 m 2,25 7.4,-12.6 c 1.2,-2 -1.6,-3.1 -2.7,-1.1 l -7.4,12.6 2.7,1.1"
       id="path9"
       style="fill:#b47d56;fill-opacity:1" /><path
       d="M 5.6,44.4 C 4.2,46.8 3.5,46.7 2.8,46.3 2,46 1.5,45.6 2.9,43.2 l 2.7,1.2 M 29.6,42 18.7,32.2 C 17,30.7 19.2,28.8 21,30.3 l 10.9,9.8 -2.3,1.9"
       id="path10"
       style="fill:#b47d56;fill-opacity:1" /><path
       d="m 29.6,42 c 2.1,1.9 2.7,1.5 3.3,1 0.6,-0.5 1,-1.1 -1.1,-2.9 L 29.6,42"
       id="path11"
       style="fill:#b47d56;fill-opacity:1" /></g><path
     d="m 37.767578,44.021484 c -0.774999,0 -1.550781,0.59883 -1.550781,1.798828 v 15.09961 h 3.101562 v -15.09961 c 0,-1.199998 -0.775782,-1.798828 -1.550781,-1.798828 z"
     style="fill:#ffe1bd"
     id="path2" /><path
     d="m 38.417969,26.320312 v 4.400391 h 5.90039 v -4.400391 z"
     style="fill:#b47d56;fill-opacity:1"
     id="path1" /><path
     fill="#ffdd67"
     d="m 46.417769,60.920882 v -15.1 c 0,-2.4 -3.1,-2.4 -3.1,0 v 15.1 h 3.1"
     id="path15" /><path
     d="m 37.417378,28.620101 c -1.399998,0.999999 -2.90039,19 -2.90039,19 h 13.800781 c 0,0 -1.500392,-17.900001 -2.900391,-19 h -1 c 0,0.899999 -1.400001,1.601562 -3,1.601562 -1.699998,0 -3,-0.701563 -3,-1.601562 z"
     style="fill:#b47d56;fill-opacity:1"
     id="path20" /><g
     fill="#937237"
     id="g19"
     transform="translate(25.317769,-1.0791181)"
     style="fill:#664e27;fill-opacity:1"><circle
       cx="11.3"
       cy="18.700001"
       r="1.9"
       id="circle18"
       style="fill:#664e27;fill-opacity:1" /><circle
       cx="20.5"
       cy="18.700001"
       r="1.9"
       id="circle19"
       style="fill:#664e27;fill-opacity:1" /><path
       d="m 18.9,24.4 c -1.9,1.5 -4.1,1.5 -6,0 -0.2,-0.2 -0.4,0.1 -0.3,0.4 0.6,1.1 1.8,2 3.3,2 1.5,0 2.7,-1 3.3,-2 0.1,-0.2 -0.1,-0.5 -0.3,-0.4"
       id="path19"
       style="fill:#664e27;fill-opacity:1" /></g><path
     style="fill:#83bf4f;fill-opacity:1;fill-rule:evenodd;stroke-width:3.22;opacity:1"
     d="m 34.863813,47.564202 -0.08301,5.229572 c -0.200051,0.281481 -1.178103,0.518223 -1.361955,0.610844 -7.478209,3.767398 -15.648431,3.091747 -15.87962,2.600469 l -3.536794,-4.74291 C 10.219661,50.03559 6.1351791,50.518686 2.7702274,46.924443 l 0.00284,0.736883 c -0.3959836,0.241483 1.5771385,6.340019 5.5387425,7.158546 6.8009716,1.405182 -5.4193363,1.760758 -5.4895027,5.610738 4.7038478,-1.171235 9.4076953,0.491386 14.1115433,0.996109 5.121281,2.656338 11.415717,2.314611 17.929961,1.411154 5.253689,-0.727178 12.427734,4.59e-4 12.890721,-4.356039 L 47.647211,46.983139 Z"
     id="path21"
     sodipodi:nodetypes="ccsccccscccccc" /><ellipse
     style="fill:#fe6f7d;fill-opacity:1;fill-rule:evenodd;stroke-width:3.64427"
     id="path22"
     cx="37.852139"
     cy="35.942932"
     rx="3.6523995"
     ry="3.071336" /><ellipse
     style="fill:#fe6f7d;fill-opacity:1;fill-rule:evenodd;stroke-width:3.64427"
     id="path22-8"
     cx="45.023346"
     cy="35.843063"
     rx="3.6523995"
     ry="3.071336" /><metadata
     id="metadata22"><rdf:RDF><cc:Work
         rdf:about=""><dc:title>merperson: medium-dark skin tone</dc:title></cc:Work></rdf:RDF></metadata></svg>
