<?xml version="1.0" encoding="UTF-8" standalone="no"?>
<svg
   viewBox="0 0 64 64"
   version="1.1"
   id="svg9"
   sodipodi:docname="1f9d9-1f3fb-200d-2640.svg"
   xml:space="preserve"
   inkscape:version="1.3.2 (091e20e, 2023-11-25, custom)"
   xmlns:inkscape="http://www.inkscape.org/namespaces/inkscape"
   xmlns:sodipodi="http://sodipodi.sourceforge.net/DTD/sodipodi-0.dtd"
   xmlns="http://www.w3.org/2000/svg"
   xmlns:svg="http://www.w3.org/2000/svg"
   xmlns:rdf="http://www.w3.org/1999/02/22-rdf-syntax-ns#"
   xmlns:cc="http://creativecommons.org/ns#"
   xmlns:dc="http://purl.org/dc/elements/1.1/"><defs
     id="defs9" /><sodipodi:namedview
     id="namedview9"
     pagecolor="#ffffff"
     bordercolor="#000000"
     borderopacity="0.25"
     inkscape:showpageshadow="2"
     inkscape:pageopacity="0.0"
     inkscape:pagecheckerboard="0"
     inkscape:deskcolor="#d1d1d1"
     inkscape:zoom="12.046875"
     inkscape:cx="34.946822"
     inkscape:cy="32.581064"
     inkscape:window-width="1920"
     inkscape:window-height="991"
     inkscape:window-x="-9"
     inkscape:window-y="-9"
     inkscape:window-maximized="1"
     inkscape:current-layer="svg9" /><title
     id="title1">woman mage: light skin tone</title><path
     fill="#ffb300"
     d="M 32,2 C 13.9,2 4,13.4 4,28.5 V 62 H 60 V 28.5 C 60,6.1 44.8,6.5 44.8,6.5 44.8,6.5 43.7,2 32,2 Z"
     id="path1-1"
     style="display:inline;opacity:1;fill:#f9f9f9"
     transform="matrix(0.69168056,0,0,0.69009944,8.0815267,8.0906182)" /><path
     fill="#b386e2"
     d="M 39.850065,50.403729 V 44.021286 H 21.078599 v 6.382443 C 9.3464332,50.67341 7,52.561175 7,62 h 46.928664 c 0,-9.438825 -2.346433,-11.32659 -14.078599,-11.596271"
     id="path2"
     style="fill:#800080;stroke-width:0.918541" /><g
     id="g1"
     transform="matrix(0.69168056,0,0,0.69009944,8.0815267,8.0906182)"
     style="display:inline;opacity:1"><path
       fill="#ffdd67"
       d="M 10.4,40.7 C 10.4,40.7 6,39.6 6,33.2 6,28.1 9.3,27.3 9.3,27.3 21.1,27.2 43,12 43,12 c 0,0 4.6,13.4 11.6,15.2 0,0 3.4,0.6 3.4,5.9 0,6.4 -4.5,7.5 -4.5,7.5 C 53.4,50.3 40.1,62 32,62 23.9,62 10.4,50.3 10.4,40.7 Z"
       id="path2-7"
       style="fill:#ffe1bd;fill-opacity:1" /><path
       fill="#eba352"
       d="m 32,47 c -4.2,0 -6.3,-3 -4.2,-3 h 8.4 c 2.1,0 0,3 -4.2,3"
       id="path3"
       style="fill:#e6b796;fill-opacity:1" /><path
       fill="#f5f5f5"
       d="M 38.3,38.2 C 36.8,38.2 37,36.4 37,36.4 39.2,24.9 52,31 52,31 c 1,2 -2.3,6.9 -3.2,7.2 -4.2,1 -10.5,0 -10.5,0"
       id="path4" /><path
       fill="#664e27"
       d="m 48.5,33.5 c 0,2.5 -2,4.5 -4.5,4.5 -2.5,0 -4.5,-2 -4.5,-4.5 0,-2.5 2,-4.5 4.5,-4.5 2.5,0 4.5,2 4.5,4.5"
       id="path5" /><circle
       cx="44"
       cy="33.5"
       r="1.5"
       fill="#2b2925"
       id="circle5" /><path
       fill="#3b3226"
       d="M 37,36.3 C 39.2,22.6 50.5,31.7 55,29.8 50.5,34.1 41.5,24.9 37,36.3"
       id="path6-0" /><path
       fill="#f5f5f5"
       d="M 25.7,38.2 C 27.2,38.2 27,36.4 27,36.4 24.8,24.9 12,31 12,31 c -1,2 2.3,6.9 3.2,7.2 4.2,1 10.5,0 10.5,0"
       id="path7-6" /><path
       fill="#664e27"
       d="m 15.5,33.5 c 0,2.5 2,4.5 4.5,4.5 2.5,0 4.5,-2 4.5,-4.5 0,-2.5 -2,-4.5 -4.5,-4.5 -2.5,0 -4.5,2 -4.5,4.5"
       id="path8" /><path
       fill="#3b3226"
       d="M 27,36.3 C 24.8,22.6 13.5,31.7 9,29.8 c 4.5,4.3 13.5,-4.9 18,6.5"
       id="path9-5" /><path
       fill="#f09985"
       d="M 32,52 22,50.5 c 6,8.5 14,8.5 20,0 z"
       id="path10-0" /><path
       fill="#d47f6c"
       d="M 35.9,50.1 C 33,49 32,50.8 32,50.8 32,50.8 31,49 28.1,50.1 25.8,51 22,50.5 22,50.5 c 4,0.9 4.5,2.5 10,2.5 5.5,0 6,-1.7 10,-2.5 0,0 -3.8,0.5 -6.1,-0.4"
       id="path11-1" /><circle
       cx="20"
       cy="33.5"
       r="1.5"
       fill="#2b2925"
       id="circle11" /></g><path
     style="opacity:1;fill:#800080;fill-rule:evenodd;stroke-width:3.22"
     d="M 3.8184176,15.854734 21.914397,10.376135 C 25.181317,3.4525573 34.982461,2.0177275 43.496757,-0.49805447 41.494951,1.5068042 40.470307,3.4228299 40.901256,5.2065291 l 0.105229,5.6676599 16.103761,5.4786 z"
     id="path12"
     sodipodi:nodetypes="ccccccc" /><path
     fill="#ffce31"
     d="m 28.301971,5.9844358 c 0.357769,0.5432945 0.570195,1.1997753 0.570195,1.9015306 0.01118,1.8902118 -1.520519,3.4182276 -3.409987,3.4182276 -0.637276,0 -1.241012,-0.181098 -1.755305,-0.486701 0.581375,1.165819 1.777665,1.958123 3.164021,1.958123 1.95655,0 3.54415,-1.584608 3.54415,-3.5427322 0,-1.4487851 -0.872062,-2.6938349 -2.113074,-3.248448 z"
     id="path1"
     style="stroke-width:0.112492" /><path
     sodipodi:type="star"
     style="opacity:1;fill:#ffce31;fill-opacity:1;fill-rule:evenodd;stroke-width:3.22"
     id="path13"
     inkscape:flatsided="false"
     sodipodi:sides="5"
     sodipodi:cx="33.535667"
     sodipodi:cy="4.3164721"
     sodipodi:r1="4.7482352"
     sodipodi:r2="2.2603643"
     sodipodi:arg1="0.93428811"
     sodipodi:arg2="1.5626066"
     inkscape:rounded="0"
     inkscape:randomized="0"
     d="M 36.357976,8.1348895 33.554179,6.5767605 30.776278,8.1806029 31.391726,5.0325451 29.007962,2.8862188 32.192127,2.4987411 33.496781,-0.43160394 34.849255,2.4769794 38.03934,2.812253 35.69105,4.9973341 Z"
     inkscape:transform-center-x="0.010580512"
     inkscape:transform-center-y="-0.382333"
     transform="matrix(0.88051457,0,0,0.86506047,6.4543558,2.3490229)" /><path
     style="opacity:1;fill:#aa4400;fill-opacity:1;fill-rule:evenodd;stroke-width:3.22"
     d="m 45.322957,59.932555 3.154345,-16.850843 -1.328145,-2.7393 2.324254,-4.814526 2.324254,1.245136 5.063554,-5.229572 4.399481,3.56939 -3.56939,3.818418 -1.909209,1.660182 3.735409,-0.830091 1.74319,4.48249 -4.316472,0.9131 -5.644617,17.016861 -6.640726,-0.415045 z"
     id="path14" /><metadata
     id="metadata14"><rdf:RDF><cc:Work
         rdf:about=""><dc:title>woman mage: light skin tone</dc:title></cc:Work></rdf:RDF></metadata></svg>
