<svg xmlns="http://www.w3.org/2000/svg" viewBox="0 0 64 64">
	<desc>Vampire: Emoticon with Fangs</desc>
	<path id="blood-pool" fill="#f46767" d="M53 60.1c0 1.1-6.1 1.9-13.7 1.9-7.5 0-13.7-.9-13.7-1.9 0-1.1 6.1-1.9 13.7-1.9S53 59 53 60.1"/>
	<circle cx="32" cy="32" r="30" fill="#B6C4A7"/>
	<g id="eyes">
		<path fill="#fff" d="M52.3 26.8c2 4.3.1 9.4-4.2 11.4s-9.4.1-11.4-4.2c-1.5-3.2 14.1-10.5 15.6-7.2"/>
		<path fill="#fff" d="M11.7 26.8c-2 4.3-.1 9.4 4.2 11.4s9.4.1 11.4-4.2c1.5-3.2-14.1-10.5-15.6-7.2"/>
		<g fill="#493b30">
			<path d="M49.8 27.9c1.4 2.9.1 6.4-2.8 7.7-2.9 1.4-6.4.1-7.7-2.8-1-1.8 9.6-6.7 10.5-4.9"/>
			<path d="M53.9 27.1c-1.9.2-3.5.5-5.2.9-1.6.4-3.1 1-4.6 1.7-1.5.7-2.9 1.5-4.2 2.4-1.4 1-2.6 2.1-4 3.4.2-1.9 1.1-3.7 2.4-5.1 1.2-1.5 2.9-2.6 4.6-3.4 1.8-.8 3.7-1.3 5.6-1.3 1.9-.1 3.8.4 5.4 1.4"/>
		</g>
		<g fill="#493b30">
			<path d="M14.2 27.9c-1.4 2.9-.1 6.4 2.8 7.7 2.9 1.4 6.4.1 7.7-2.8 1-1.8-9.6-6.7-10.5-4.9"/>
			<path d="M10.1 27.1c1.6-1 3.5-1.5 5.4-1.4 1.9 0 3.8.5 5.6 1.3 1.7.8 3.3 2 4.6 3.4 1.2 1.5 2.2 3.2 2.4 5.1-1.3-1.3-2.6-2.4-4-3.4s-2.8-1.8-4.2-2.4c-1.5-.7-3-1.2-4.6-1.7-1.7-.5-3.3-.7-5.2-.9"/>
		</g>
	</g>
	<path id="blood-drool" fill="#f46767" d="M44.2 61.5H39c1.3-2.8 1.3-6.1 0-8.9h5.2c1.3 2.8 1.3 6.1 0 8.9"/>
	<path id="mouth" fill="#493b30" d="M45.7 48c-1.4-3.6-4.8-6-12.7-6-8 0-11.3 2.4-12.7 6-.7 1.9.3 4 .3 4 .4 1.2 2.1 2 12.4 2s12-.8 12.4-2c0 0 1.1-2.1.3-4"/>
	<!-- need to become fangs: -->
	<path id="teeth" fill="#fff" d="M42 47.1c.1-.2 0-.5-.2-.7 0 0-2-1.9-8.8-1.9-6.8 0-8.8 1.9-8.8 1.9-.2.2-.2.5-.2.7l.2.5c.1.2.3.4.5.4h16.6c.2 0 .5-.2.5-.4l.2-.5"/>
</svg>
