<?xml version="1.0" encoding="UTF-8" standalone="no"?>
<svg
   viewBox="0 0 64 64"
   version="1.1"
   id="svg9"
   sodipodi:docname="1f9d5-1f3fe.svg"
   xml:space="preserve"
   inkscape:version="1.3.2 (091e20e, 2023-11-25, custom)"
   xmlns:inkscape="http://www.inkscape.org/namespaces/inkscape"
   xmlns:sodipodi="http://sodipodi.sourceforge.net/DTD/sodipodi-0.dtd"
   xmlns="http://www.w3.org/2000/svg"
   xmlns:svg="http://www.w3.org/2000/svg"
   xmlns:rdf="http://www.w3.org/1999/02/22-rdf-syntax-ns#"
   xmlns:cc="http://creativecommons.org/ns#"
   xmlns:dc="http://purl.org/dc/elements/1.1/"><defs
     id="defs9" /><sodipodi:namedview
     id="namedview9"
     pagecolor="#ffffff"
     bordercolor="#000000"
     borderopacity="0.25"
     inkscape:showpageshadow="2"
     inkscape:pageopacity="0.0"
     inkscape:pagecheckerboard="0"
     inkscape:deskcolor="#d1d1d1"
     inkscape:zoom="11.313709"
     inkscape:cx="34.162096"
     inkscape:cy="29.565902"
     inkscape:window-width="1920"
     inkscape:window-height="991"
     inkscape:window-x="-9"
     inkscape:window-y="-9"
     inkscape:window-maximized="1"
     inkscape:current-layer="svg9" /><title
     id="title1">woman with headscarf: medium-dark skin tone</title><path
     fill="#ffb300"
     d="M 32,2 C 17.5,2 9.6,11 9.6,22.9 V 60 H 54.4 V 22.9 C 54.4,9.6898972 47.655494,6.6167729 44.267016,5.7670292 43.197247,5.4987585 43.03016,5.25248 42.8,5.28125 c 0,0 -0.480517,-0.2061125 -1.178278,-0.8458438 C 40.498736,3.4058146 37.797657,2 32,2 Z"
     id="path1"
     style="fill:#3e4347;fill-opacity:1"
     sodipodi:nodetypes="ssccsscss" /><path
     fill="#b386e2"
     d="M42 49.1V42H22v7.1C9.5 49.4 7 51.5 7 62h50c0-10.5-2.5-12.6-15-12.9"
     id="path2"
     style="fill:#3e4347;fill-opacity:1" /><g
     id="g9"
     style="display:inline;opacity:1"
     transform="matrix(0.79544191,0,0,0.82429745,6.5458588,0.3514051)"><path
       fill="#ffdd67"
       d="m 10.4,40.7 c 0,0 -0.7886473,-1.260843 -0.7886473,-7.660843 C 9.6113527,27.939157 9.3,27.3 9.3,27.3 9.3110952,16.352907 35.934688,5.4991332 43,12 46.596868,12.79085 55.368446,27.108064 54.6,27.2 54.198233,38.896828 57.161071,60.354305 32,62 23.918542,62.528579 10.4,50.3 10.4,40.7 Z"
       id="path2-3"
       sodipodi:nodetypes="cscccsc"
       style="fill:#b47d56;fill-opacity:1" /><path
       fill="#eba352"
       d="m 32,47 c -4.2,0 -6.3,-3 -4.2,-3 h 8.4 c 2.1,0 0,3 -4.2,3"
       id="path3-5"
       style="fill:#935e3e;fill-opacity:1" /><path
       fill="#f5f5f5"
       d="M 38.3,38.2 C 36.8,38.2 37,36.4 37,36.4 39.2,24.9 52,31 52,31 c 1,2 -2.3,6.9 -3.2,7.2 -4.2,1 -10.5,0 -10.5,0"
       id="path4-8" /><path
       fill="#664e27"
       d="m 48.5,33.5 c 0,2.5 -2,4.5 -4.5,4.5 -2.5,0 -4.5,-2 -4.5,-4.5 0,-2.5 2,-4.5 4.5,-4.5 2.5,0 4.5,2 4.5,4.5"
       id="path5-2" /><circle
       cx="44"
       cy="33.5"
       r="1.5"
       fill="#2b2925"
       id="circle5-5" /><path
       fill="#3b3226"
       d="M 37,36.3 C 39.2,22.6 50.5,31.7 55,29.8 50.5,34.1 41.5,24.9 37,36.3"
       id="path6" /><path
       fill="#f5f5f5"
       d="M 25.7,38.2 C 27.2,38.2 27,36.4 27,36.4 24.8,24.9 12,31 12,31 c -1,2 2.3,6.9 3.2,7.2 4.2,1 10.5,0 10.5,0"
       id="path7" /><path
       fill="#664e27"
       d="m 15.5,33.5 c 0,2.5 2,4.5 4.5,4.5 2.5,0 4.5,-2 4.5,-4.5 0,-2.5 -2,-4.5 -4.5,-4.5 -2.5,0 -4.5,2 -4.5,4.5"
       id="path8-5" /><path
       fill="#3b3226"
       d="M 27,36.3 C 24.8,22.6 13.5,31.7 9,29.8 c 4.5,4.3 13.5,-4.9 18,6.5"
       id="path9-6" /><path
       fill="#f09985"
       d="M 32,52 22,50.5 c 6,8.5 14,8.5 20,0 z"
       id="path10" /><path
       fill="#d47f6c"
       d="M 35.9,50.1 C 33,49 32,50.8 32,50.8 32,50.8 31,49 28.1,50.1 25.8,51 22,50.5 22,50.5 c 4,0.9 4.5,2.5 10,2.5 5.5,0 6,-1.7 10,-2.5 0,0 -3.8,0.5 -6.1,-0.4"
       id="path11" /><circle
       cx="20"
       cy="33.5"
       r="1.5"
       fill="#2b2925"
       id="circle11" /></g><metadata
     id="metadata9"><rdf:RDF><cc:Work
         rdf:about=""><dc:title>woman with headscarf: medium-dark skin tone</dc:title></cc:Work></rdf:RDF></metadata></svg>
