<?xml version="1.0" encoding="UTF-8" standalone="no"?>
<svg
   viewBox="0 0 64 64"
   version="1.1"
   id="svg4"
   sodipodi:docname="1f9d0.svg"
   xml:space="preserve"
   inkscape:version="1.3.2 (091e20e, 2023-11-25, custom)"
   xmlns:inkscape="http://www.inkscape.org/namespaces/inkscape"
   xmlns:sodipodi="http://sodipodi.sourceforge.net/DTD/sodipodi-0.dtd"
   xmlns="http://www.w3.org/2000/svg"
   xmlns:svg="http://www.w3.org/2000/svg"
   xmlns:rdf="http://www.w3.org/1999/02/22-rdf-syntax-ns#"
   xmlns:cc="http://creativecommons.org/ns#"
   xmlns:dc="http://purl.org/dc/elements/1.1/"><defs
     id="defs4" /><sodipodi:namedview
     id="namedview4"
     pagecolor="#ffffff"
     bordercolor="#000000"
     borderopacity="0.25"
     inkscape:showpageshadow="2"
     inkscape:pageopacity="0.0"
     inkscape:pagecheckerboard="0"
     inkscape:deskcolor="#d1d1d1"
     inkscape:zoom="12.046875"
     inkscape:cx="32"
     inkscape:cy="32"
     inkscape:window-width="1920"
     inkscape:window-height="991"
     inkscape:window-x="-9"
     inkscape:window-y="-9"
     inkscape:window-maximized="1"
     inkscape:current-layer="svg4" /><title
     id="title1">face with monocle</title><circle
     cx="32"
     cy="32"
     r="30"
     fill="#ffdd67"
     id="circle1" /><path
     d="m 26.105771,38.472444 c -2.927582,-0.362974 -5.931686,-0.105648 -8.76497,0.80264 -1.475489,0.522423 -0.219441,4.204951 1.156809,3.670224 3.781812,-1.24413 9.115762,-1.187399 13.794768,1.71033 1.315536,0.7677 3.420185,-2.397391 2.116954,-3.264331 -2.525679,-1.572713 -5.375981,-2.555891 -8.303561,-2.918863 z"
     id="path5"
     style="fill:#664e27;fill-opacity:1" /><path
     style="fill:#000000;fill-opacity:1;fill-rule:evenodd;stroke-width:3.53865"
     d="M 54.204929,29.471425 53.457847,62.754864 54.702983,62.45411 55.450065,29.671928 55.201038,28.970169 Z"
     id="path7" /><g
     id="g5"
     transform="matrix(0.89095687,0.13674286,-0.13510521,0.89939783,3.0759825,-4.3791704)"><g
       fill="#664e27"
       id="g3"><circle
         cx="20.5"
         cy="27.6"
         r="5"
         id="circle2" /><circle
         cx="43.5"
         cy="27.6"
         r="5"
         id="circle3" /></g><g
       fill="#917524"
       id="g4"
       transform="translate(0.1481414,1.5749977)"><path
         d="m 50.449027,15.837873 c -3.2,-2.7 -8.247081,-4.896109 -12.447081,-4.096109 -0.6,0.1 -1.1,-1.8339819 -0.4,-2.0339819 4.8,-0.9 9.966018,0.6660179 13.666018,3.7660179 0.6,0.5 -0.16991,2.681064 -0.56991,2.281064 M 25.5,15.792218 c -0.855615,-0.142603 -1.933402,0.87206 -2.737795,0.882656 -1.619516,0.02133 -3.489233,-0.520472 -4.86742,-0.193605 -1.297462,0.307721 -2.112091,1.45141 -3.347703,2.493958 -0.4,0.4 -2.249028,-1.449027 -1.649028,-1.949027 1.957758,-2.403396 4.003087,-4.321743 6.53536,-3.629126 0.974227,0.266467 2.406631,0.563461 3.477374,0.4022 0.977029,-0.147147 1.583461,-0.745316 2.657176,-0.705111 0.533982,0.598055 0.864072,1.552919 0.264072,1.452919"
         id="path3-9"
         sodipodi:nodetypes="ccccccssccsscc" /></g></g><g
     id="g6"
     transform="matrix(0.50262101,0,0,0.48900866,28.806062,14.888552)"><path
       fill="#dfe9ef"
       d="m 41.5,8.8 c -9,-9 -23.7,-9 -32.8,0 -9.1,9 -9,23.7 0,32.8 9,9 23.7,9 32.8,0 9.1,-9.1 9.1,-23.8 0,-32.8 M 39.4,39.4 C 31.5,47.3 18.8,47.3 11,39.4 3.1,31.5 3.1,18.8 11,11 c 7.9,-7.9 20.6,-7.9 28.4,0 7.8,7.8 7.8,20.5 0,28.4"
       id="path4" /><path
       fill="#b0bdc6"
       d="m 39.9,10.4 c -8.1,-8.1 -21.3,-8.1 -29.5,0 -8.1,8.1 -8.1,21.3 0,29.5 8.1,8.1 21.3,8.1 29.5,0 8.1,-8.1 8.1,-21.3 0,-29.5 M 38.8,38.8 C 31.3,46.3 19,46.3 11.5,38.8 4,31.3 4,19 11.5,11.5 19,4 31.3,4 38.8,11.5 c 7.5,7.5 7.5,19.8 0,27.3"
       id="path5-5" /><path
       fill="#a6aeb0"
       d="m 36.1,29.8 c -6.5,6.5 -17.1,6.5 -23.6,0 -1.7,-1.7 -3,-3.7 -3.8,-5.9 -0.4,4.8 1.2,9.7 4.8,13.3 6.5,6.5 17.1,6.5 23.6,0 4.8,-4.8 6,-11.8 3.8,-17.7 -0.4,3.8 -2,7.4 -4.8,10.3"
       opacity="0.6"
       id="path6" /></g><rect
     style="fill:#dfe9ef;fill-opacity:1;fill-rule:evenodd;stroke-width:3.22"
     id="rect6"
     width="3.237354"
     height="3.5693903"
     x="52.710766"
     y="25.732815" /><metadata
     id="metadata7"><rdf:RDF><cc:Work
         rdf:about=""><dc:title>face with monocle</dc:title></cc:Work></rdf:RDF></metadata></svg>
