<?xml version="1.0" encoding="UTF-8" standalone="no"?>
<svg
   viewBox="0 0 64 64"
   version="1.1"
   id="svg19"
   sodipodi:docname="1f9dd-1f3fd-200d-2642.svg"
   xml:space="preserve"
   inkscape:version="1.3.2 (091e20e, 2023-11-25, custom)"
   xmlns:inkscape="http://www.inkscape.org/namespaces/inkscape"
   xmlns:sodipodi="http://sodipodi.sourceforge.net/DTD/sodipodi-0.dtd"
   xmlns="http://www.w3.org/2000/svg"
   xmlns:svg="http://www.w3.org/2000/svg"
   xmlns:rdf="http://www.w3.org/1999/02/22-rdf-syntax-ns#"
   xmlns:cc="http://creativecommons.org/ns#"
   xmlns:dc="http://purl.org/dc/elements/1.1/"><defs
     id="defs19" /><sodipodi:namedview
     id="namedview19"
     pagecolor="#ffffff"
     bordercolor="#000000"
     borderopacity="0.25"
     inkscape:showpageshadow="2"
     inkscape:pageopacity="0.0"
     inkscape:pagecheckerboard="0"
     inkscape:deskcolor="#d1d1d1"
     inkscape:zoom="11.313709"
     inkscape:cx="33.852736"
     inkscape:cy="31.156891"
     inkscape:window-width="1920"
     inkscape:window-height="991"
     inkscape:window-x="-9"
     inkscape:window-y="-9"
     inkscape:window-maximized="1"
     inkscape:current-layer="svg19" /><title
     id="title1">merman: medium skin tone</title><metadata
     id="metadata22"><rdf:RDF><cc:Work
         rdf:about=""><dc:title>merman: medium skin tone</dc:title></cc:Work></rdf:RDF></metadata><path
     fill="#ffdd67"
     d="m 38.573437,26.243368 h 5.8 v 4.4 h -5.8 z"
     id="path1-3"
     style="fill:#d6a57c;fill-opacity:1" /><path
     fill="#231f20"
     d="m 34.673437,43.043368 v 17.1 h 5.3 c 0,-11.5 0.9,-13 0.9,-13 h 1.1 c 0,0 0.9,1.5 0.9,13 h 5.3 v -17.1 h -13.5"
     id="path2-4"
     style="fill:#d6a57c;fill-opacity:1" /><g
     fill="#428bc1"
     id="g4"
     transform="translate(25.473437,-0.25663221)"
     style="fill:#d6a57c;fill-opacity:1"><path
       d="m 17.4,59.9 c 0.9,-1.1 4.4,-1.1 5.3,0 V 62 h -5.3 v -2.1 m -2.8,0 c -0.9,-1.1 -4.4,-1.1 -5.3,0 V 62 h 5.3 v -2.1 m 8.7,-31.1 h -4.5 c 0,0.9 -1.3,1.7 -2.9,1.7 -1.6,0 -2.9,-0.7 -2.9,-1.7 H 8.6 l 0.7,14.5 h 13.5 l 0.5,-14.5"
       id="path3"
       style="fill:#d6a57c;fill-opacity:1" /><path
       d="M 29.7,43.7 22,31.1 c -1.2,-2 1.4,-3.2 2.6,-1.3 l 7.7,12.6 -2.6,1.3"
       id="path4"
       style="fill:#d6a57c;fill-opacity:1" /></g><path
     fill="#ffdd67"
     d="m 55.173437,43.443368 c 1.5,2.4 2.1,2.2 2.8,1.9 0.7,-0.3 1.2,-0.8 -0.2,-3.2 l -2.6,1.3"
     id="path5"
     style="fill:#d6a57c;fill-opacity:1" /><path
     fill="#428bc1"
     d="m 29.773437,44.143368 2.7,-14.2 c 0.4,-2.2 3.4,-1.7 2.9,0.5 l -2.7,14.2 -2.9,-0.5"
     id="path6"
     style="fill:#d6a57c;fill-opacity:1" /><g
     fill="#ffdd67"
     id="g7"
     transform="translate(25.473437,-0.25663221)"
     style="fill:#d6a57c;fill-opacity:1"><path
       d="m 4.3,44.4 c -0.5,2.7 0.1,2.9 0.9,3.1 0.8,0.1 1.5,0.1 2,-2.6 L 4.3,44.4"
       id="path7"
       sodipodi:nodetypes="cccc"
       style="fill:#d6a57c;fill-opacity:1" /></g><path
     fill="#ffb300"
     d="m 29.173437,14.643368 1.3,2.3 h 22 l 1,-2.5 c 0,-8.9000002 -2.1,-12.6000002 -11.8,-12.7000002 -10,-0.1 -12.5,3.8 -12.5,12.9000002"
     id="path15-5"
     style="fill:#594640;fill-opacity:1" /><path
     fill="#ffdd67"
     d="m 52.473437,14.443368 c -0.1,0.5 -0.2,1 -0.3,1.3 -0.3,0.5 -0.8,0.8 -0.8,0.8 0,0 0.1,-1 0.1,-2.4 -0.6,-8.2000002 -1,-4.2000002 -10,-4.2000002 -9,0 -9.4,-3.9 -10,4.2000002 -0.1,1.4 0.1,2.4 0.1,2.4 0,0 -0.6,-0.3 -0.8,-0.8 -0.1,-0.3 -0.2,-0.8 -0.3,-1.3 -0.8,-0.2 -1.9,0 -1.9,2.4 0,1.5 0.6,2.8 2.4,2.9 0.7,5.1 7.5,8.5 10.5,8.5 3.1,0 9.9,-3.4 10.5,-8.5 1.9,-0.1 2.4,-1.4 2.4,-2.9 0,-2.4 -1.1,-2.6 -1.9,-2.4"
     id="path16"
     style="fill:#d6a57c;fill-opacity:1" /><g
     fill="#937237"
     id="g17"
     transform="translate(25.473437,-0.25663221)"
     style="fill:#664e27;fill-opacity:1"><circle
       cx="11.4"
       cy="17.4"
       r="1.9"
       id="circle16"
       style="fill:#664e27;fill-opacity:1" /><circle
       cx="20.6"
       cy="17.4"
       r="1.9"
       id="circle17"
       style="fill:#664e27;fill-opacity:1" /><path
       d="m 19,23.1 c -1.9,1.5 -4.1,1.5 -6,0 -0.2,-0.2 -0.4,0.1 -0.3,0.4 0.6,1.1 1.8,2 3.3,2 1.5,0 2.7,-1 3.3,-2 0.1,-0.3 -0.1,-0.6 -0.3,-0.4"
       id="path17"
       style="fill:#664e27;fill-opacity:1" /></g><path
     style="display:inline;fill:#83bf4f;fill-opacity:1;fill-rule:evenodd;stroke-width:3.25096"
     d="m 35.772999,47.224296 -0.789957,-0.05056 c -0.199659,0.287485 -0.468684,5.920967 -0.652175,6.015563 -7.463531,3.847764 -15.617716,3.1577 -15.848451,2.655942 L 14.952567,51.001155 C 11.177219,49.748403 7.1007539,50.241804 3.742407,46.57089 l 0.00284,0.752602 c -0.3952064,0.246634 1.5740428,6.475263 5.5278709,7.31125 6.7876221,1.435157 -5.408699,1.798318 -5.4787278,5.730425 4.694615,-1.196219 9.3892289,0.501868 14.0838439,1.017358 5.111229,2.713003 11.39331,2.363986 17.894768,1.441257 5.34196,-0.634247 14.398267,2.194888 12.865418,-4.448962 L 48.531305,46.630838 Z"
     id="path21"
     sodipodi:nodetypes="ccsccccscccccc" /><path
     fill="#eda454"
     d="m 59.596671,23.564204 c -0.485351,-1.281516 -1.973763,-2.830015 -1.973763,-2.830015 0,0 0.485352,1.317114 0.129427,3.079199 l 0.566244,-0.533965 c 0,0 0.533886,0.249184 0.5986,0.889942 0.08089,0.783149 -0.323568,1.886677 -0.323568,1.886677 0,0 -0.889811,-0.302581 -2.248796,-0.284782 l -0.485351,-3.488572 1.164844,0.836545 -1.472234,-3.577566 -1.456055,3.541969 1.164844,-0.836546 -0.485351,3.488573 c -1.358985,-0.0178 -2.248796,0.284781 -2.248796,0.284781 0,0 -0.40446,-1.103528 -0.323568,-1.886677 0.06471,-0.622959 0.5986,-0.889942 0.5986,-0.889942 l 0.566244,0.533966 c -0.355925,-1.744287 0.129427,-3.0792 0.129427,-3.0792 0,0 -1.50459,1.584097 -1.989942,2.865613 -0.50153,1.317115 -0.808919,2.883412 -0.808919,2.883412 l 1.035417,1.050132 c 0,0 0.905989,-0.302581 1.617838,-0.355977 0.663314,-0.0534 1.439877,-0.07119 1.439877,-0.07119 L 54.69462,56.61908 h 1.714909 l -0.09707,-29.548499 c 0,0 0.776563,0.0178 1.439877,0.07119 0.69567,0.0534 1.617838,0.355977 1.617838,0.355977 l 1.035417,-1.050132 c 0,0 -0.307389,-1.566297 -0.808919,-2.883412"
     id="path1"
     style="stroke-width:0.169693"
     sodipodi:nodetypes="cccccccccccccccccccccccccccccc" /></svg>
