<?xml version="1.0" encoding="UTF-8" standalone="no"?>
<svg
   viewBox="0 0 64 64"
   version="1.1"
   id="svg9"
   sodipodi:docname="1f9db-1f3ff-200d-2642.svg"
   xml:space="preserve"
   inkscape:version="1.3.2 (091e20e, 2023-11-25, custom)"
   xmlns:inkscape="http://www.inkscape.org/namespaces/inkscape"
   xmlns:sodipodi="http://sodipodi.sourceforge.net/DTD/sodipodi-0.dtd"
   xmlns="http://www.w3.org/2000/svg"
   xmlns:svg="http://www.w3.org/2000/svg"
   xmlns:rdf="http://www.w3.org/1999/02/22-rdf-syntax-ns#"
   xmlns:cc="http://creativecommons.org/ns#"
   xmlns:dc="http://purl.org/dc/elements/1.1/"><defs
     id="defs9" /><sodipodi:namedview
     id="namedview9"
     pagecolor="#ffffff"
     bordercolor="#000000"
     borderopacity="0.25"
     inkscape:showpageshadow="2"
     inkscape:pageopacity="0.0"
     inkscape:pagecheckerboard="0"
     inkscape:deskcolor="#d1d1d1"
     inkscape:zoom="12.046875"
     inkscape:cx="40.093385"
     inkscape:cy="31.667964"
     inkscape:window-width="1920"
     inkscape:window-height="991"
     inkscape:window-x="-9"
     inkscape:window-y="-9"
     inkscape:window-maximized="1"
     inkscape:current-layer="svg9" /><title
     id="title1">man vampire: dark skin tone</title><path
     style="opacity:1;fill:#ff0000;fill-opacity:1;fill-rule:evenodd;stroke-width:3.22"
     d="M 32.290532,53.457847 C 21.631211,49.215008 3.4639825,44.287008 3.5693904,19.175097 c 18.6493736,8.020883 37.2987466,9.227397 55.9481196,0 2.25421,13.340546 -6.242858,26.253822 -27.226978,34.28275 z"
     id="path9"
     sodipodi:nodetypes="cccc" /><path
     fill="#b386e2"
     d="M42 49.1V42H22v7.1C9.5 49.4 7 51.5 7 62h50c0-10.5-2.5-12.6-15-12.9"
     id="path2"
     style="fill:#b3b3b3;fill-opacity:1" /><g
     id="g9"
     transform="matrix(0.75393737,0,0,0.76895807,7.9155087,1.541202)"
     style="display:inline;opacity:1"><path
       fill="#ffb300"
       d="M 6,36 H 58 C 58,8 54,2 32,2 10,2 6,8 6,36 Z"
       id="path1-1"
       style="fill:#000000" /><path
       fill="#ffdd67"
       d="m 55.8,29.9 c -0.2,1.1 -0.4,2.1 -0.7,2.7 -0.6,1 -1.7,1.6 -1.7,1.6 0,0 0.3,-2.1 0.2,-5 C 52.665336,12.294361 44.189555,4.5677045 32.154223,16.786121 31.628045,17.320303 32.697079,17.070403 32,16.6 15.332089,5.3521581 12.850701,12.709646 11.404257,20.41871 11.031962,22.402919 10.672479,25.171759 10.4,29.1 c -0.1,2.9 0.2,5.1 0.2,5.1 0,0 -1.1,-0.6 -1.7,-1.6 C 8.6,32 8.4,31 8.2,29.9 6.4,29.4 4,29.8 4,35 c 0,3.2 1.2,5.9 5.3,6.2 1.3,10.2 7.3,15.4 17.2,19.9 2.7,1.2 8.3,1.2 11,0 10,-4.5 15.9,-9.7 17.2,-19.9 4.1,-0.3 5.3,-2.9 5.3,-6.2 0,-5.2 -2.4,-5.6 -4.2,-5.1"
       id="path2-0"
       style="fill:#b3b3b3;fill-opacity:1"
       sodipodi:nodetypes="ccccsssccccsccccsc" /><path
       fill="#937237"
       d="m 41,48.9 c 0,3.4 -4.5,5.1 -9,5.1 -4.5,0 -9,-1.7 -9,-5.1 0,0 0,-0.9 0.9,-0.9 h 16.2 c 0.9,0 0.9,0.9 0.9,0.9"
       id="path3-9"
       style="fill:#656565;fill-opacity:1" /><path
       fill="#f5f5f5"
       d="m 20,28.6 c -5,0 -7,1.8 -7,3.6 0,1.8 0,4.4 6.6,4.4 6.4,0 7.4,-0.8 7.4,-3.5 0,-1.8 -2,-4.5 -7,-4.5"
       id="path4-5" /><circle
       cx="20.5"
       cy="31.6"
       r="4.5"
       fill="#664e27"
       id="circle4"
       style="fill:#662727;fill-opacity:1" /><path
       fill="#231f20"
       d="m 22,31.6 c 0,0.8 -0.7,1.5 -1.5,1.5 -0.8,0 -1.5,-0.7 -1.5,-1.5 0,-0.8 0.7,-1.5 1.5,-1.5 0.8,0 1.5,0.7 1.5,1.5"
       id="path5-3" /><path
       fill="#664e27"
       d="m 13,32.1 c 0,-7 14,-7 14,1 -2,-6 -12,-6 -14,-1"
       id="path6"
       style="fill:#662727;fill-opacity:1" /><path
       fill="#f5f5f5"
       d="m 44,28.6 c 5,0 7,1.8 7,3.6 0,1.8 0,4.4 -6.6,4.4 -6.4,0 -7.4,-0.8 -7.4,-3.5 0,-1.8 2,-4.5 7,-4.5"
       id="path7" /><circle
       cx="43.5"
       cy="31.6"
       r="4.5"
       fill="#664e27"
       id="circle7-8"
       style="fill:#662727;fill-opacity:1" /><path
       fill="#231f20"
       d="m 42,31.6 c 0,0.8 0.7,1.5 1.5,1.5 0.8,0 1.5,-0.7 1.5,-1.5 0,-0.8 -0.7,-1.5 -1.5,-1.5 -0.8,0 -1.5,0.7 -1.5,1.5"
       id="path8-8" /><path
       fill="#664e27"
       d="m 51,32.1 c 0,-7 -14,-7 -14,1 2,-6 12,-6 14,-1"
       id="path9-7"
       style="fill:#662727;fill-opacity:1" /><path
       fill="#eba352"
       d="m 32,45 c -4.2,0 -6.3,-3 -4.2,-3 h 8.4 c 2.1,0 0,3 -4.2,3"
       id="path10"
       style="fill:#9e9e9e;fill-opacity:1" /></g><path
     fill="#b386e2"
     d="M 42,49.1 H 22 C 9.5,49.4 7,51.5 7,62 H 57 C 57,51.5 54.5,49.4 42,49.1"
     id="path2-8"
     style="fill:#4d4d4d"
     sodipodi:nodetypes="ccccc" /><path
     style="opacity:1;fill:#000000;fill-opacity:1;fill-rule:evenodd;stroke-width:3.22"
     d="m 3.0713359,16.18677 2.2412452,0.166019 C 4.5022578,27.890768 7.6484271,38.580927 22.246433,46.817121 l -0.498054,2.407263 C 8.6335193,43.176107 1.1557317,33.065822 3.0713359,16.18677 Z"
     id="path11"
     sodipodi:nodetypes="ccccc" /><path
     style="opacity:1;fill:#000000;fill-opacity:1;fill-rule:evenodd;stroke-width:3.22"
     d="m 42.085603,46.153048 -0.166019,2.656291 C 55.550887,42.404123 60.745955,30.325394 61.343708,17.514916 l -2.739299,-0.166018 c 1.332056,11.002863 -5.954383,21.105864 -16.518806,28.80415 z"
     id="path12"
     sodipodi:nodetypes="ccccc" /><path
     style="opacity:1;fill:#000000;fill-opacity:1;fill-rule:evenodd;stroke-width:3.22"
     d="m 21.831388,46.817121 10.127107,2.905317 12.368353,-4.731517 -0.332036,2.739299 -11.621271,4.5655 -11.206226,-3.6524 z"
     id="path13" /><ellipse
     style="opacity:1;fill:#8a6859;fill-opacity:1;fill-rule:evenodd;stroke-width:3.22"
     id="path14"
     cx="32.290531"
     cy="50.801556"
     rx="3.8184175"
     ry="3.9844358" /><metadata
     id="metadata14"><rdf:RDF><cc:Work
         rdf:about=""><dc:title>man vampire: dark skin tone</dc:title></cc:Work></rdf:RDF></metadata></svg>
