<?xml version="1.0" encoding="UTF-8" standalone="no"?>
<svg
   viewBox="0 0 64 64"
   version="1.1"
   id="svg10"
   sodipodi:docname="1f9d3-1f3fc.svg"
   inkscape:version="1.3.2 (091e20e, 2023-11-25, custom)"
   xml:space="preserve"
   xmlns:inkscape="http://www.inkscape.org/namespaces/inkscape"
   xmlns:sodipodi="http://sodipodi.sourceforge.net/DTD/sodipodi-0.dtd"
   xmlns="http://www.w3.org/2000/svg"
   xmlns:svg="http://www.w3.org/2000/svg"
   xmlns:rdf="http://www.w3.org/1999/02/22-rdf-syntax-ns#"
   xmlns:cc="http://creativecommons.org/ns#"
   xmlns:dc="http://purl.org/dc/elements/1.1/"><defs
     id="defs10" /><sodipodi:namedview
     id="namedview10"
     pagecolor="#ffffff"
     bordercolor="#000000"
     borderopacity="0.25"
     inkscape:showpageshadow="2"
     inkscape:pageopacity="0.0"
     inkscape:pagecheckerboard="0"
     inkscape:deskcolor="#d1d1d1"
     inkscape:zoom="12.046875"
     inkscape:cx="22.702983"
     inkscape:cy="32.664073"
     inkscape:window-width="1920"
     inkscape:window-height="991"
     inkscape:window-x="-9"
     inkscape:window-y="-9"
     inkscape:window-maximized="1"
     inkscape:current-layer="svg10" /><title
     id="title1">older person: medium-light skin tone</title><path
     style="fill:#748a93;fill-opacity:1;fill-rule:evenodd;stroke-width:3.22"
     d="M 6.9727626,26.396887 0.4150454,34.863813 10.708171,33.618677 4.6485084,45.738003 13.447471,43.330739 10.459144,54.702983 18.511025,47.398184 Z"
     id="path11" /><path
     style="fill:#748a93;fill-opacity:1;fill-rule:evenodd;stroke-width:3.22"
     d="m 57.780804,26.383917 6.557718,8.466926 -10.293126,-1.245136 6.059663,12.119326 -8.798963,-2.407264 2.988327,11.372244 -8.051881,-7.304799 z"
     id="path11-0" /><path
     fill="#ffb300"
     d="M 6,36 C 21.482981,34.065541 37.703106,32.901732 58,36 57.815587,10.766196 53.741148,5.4722664 32,2 23.433713,0.63188313 18.637459,5.7179385 14.263966,8.5487123 7.4074728,12.986626 5.7625463,20.038672 6,36 Z"
     id="path1"
     sodipodi:nodetypes="ccssc"
     style="fill:#748a93;fill-opacity:1" /><path
     fill="#ffdd67"
     d="m 56.049028,29.9 c -0.2,1.1 -1.645136,-2.963554 -1.945136,-2.363554 -0.6,1 -0.03982,0.603891 -0.03982,0.603891 0,0 -0.53009,1.635409 -0.63009,-1.264591 -1.274548,-15.089069 -2.185945,-6.3461 -17.653764,-10.328466 -2.016646,-0.519209 -1.104716,0.646741 -2.025911,1.218444 -2.289561,1.420924 -5.494955,4.713832 -5.776561,3.938731 -0.16019,-0.440911 2.008724,-5.815934 -0.169635,-5.187533 -3.219369,0.928705 -5.889464,2.042116 -8.463823,0.775908 -2.338847,-1.150369 -2.266335,-3.396727 -3.126174,-3.474215 -0.957134,-0.08625 -0.369419,3.093127 -3.041331,6.233291 -1.401522,1.647139 -2.212921,4.509222 -2.527756,9.048094 -0.1,2.9 0.2,5.1 0.2,5.1 0,0 -1.1000005,-0.6 -1.7000008,-1.6 -0.3,-0.6 -0.5,-1.6 -0.7,-2.7 -1.8,-0.5 -4.2,-0.1 -4.2,5.1 0,3.2 1.2,5.9 5.3000003,6.2 1.3000005,10.2 7.3000005,15.4 17.2000005,19.9 2.7,1.2 8.3,1.2 11,0 10,-4.5 15.9,-9.7 17.2,-19.9 4.1,-0.3 5.3,-2.9 5.3,-6.2 0,-5.2 -2.4,-5.6 -4.2,-5.1"
     id="path2"
     sodipodi:nodetypes="ccccsssssssccccsccccsc"
     style="fill:#fed0ac;fill-opacity:1" /><path
     fill="#937237"
     d="M41 48.9c0 3.4-4.5 5.1-9 5.1s-9-1.7-9-5.1c0 0 0-.9.9-.9h16.2c.9 0 .9.9.9.9"
     id="path3"
     style="fill:#664e27;fill-opacity:1" /><path
     fill="#f5f5f5"
     d="M20 28.6c-5 0-7 1.8-7 3.6s0 4.4 6.6 4.4c6.4 0 7.4-.8 7.4-3.5 0-1.8-2-4.5-7-4.5"
     id="path4" /><circle
     cx="20.5"
     cy="31.6"
     r="4.5"
     fill="#664e27"
     id="circle4" /><path
     fill="#231f20"
     d="M22 31.6c0 .8-.7 1.5-1.5 1.5s-1.5-.7-1.5-1.5.7-1.5 1.5-1.5 1.5.7 1.5 1.5"
     id="path5" /><path
     fill="#664e27"
     d="M13 32.1c0-7 14-7 14 1-2-6-12-6-14-1"
     id="path6" /><path
     fill="#f5f5f5"
     d="M44 28.6c5 0 7 1.8 7 3.6s0 4.4-6.6 4.4c-6.4 0-7.4-.8-7.4-3.5 0-1.8 2-4.5 7-4.5"
     id="path7" /><circle
     cx="43.5"
     cy="31.6"
     r="4.5"
     fill="#664e27"
     id="circle7" /><path
     fill="#231f20"
     d="M42 31.6c0 .8.7 1.5 1.5 1.5s1.5-.7 1.5-1.5-.7-1.5-1.5-1.5-1.5.7-1.5 1.5"
     id="path8" /><path
     fill="#664e27"
     d="M51 32.1c0-7-14-7-14 1 2-6 12-6 14-1"
     id="path9" /><path
     fill="#eba352"
     d="M32 45c-4.2 0-6.3-3-4.2-3h8.4c2.1 0 0 3-4.2 3"
     id="path10"
     style="fill:#e0a372;fill-opacity:1" /><metadata
     id="metadata11"><rdf:RDF><cc:Work
         rdf:about=""><dc:title>older person: medium-light skin tone</dc:title></cc:Work></rdf:RDF></metadata><g
     id="g1"
     transform="translate(0.78009068,-5.8106355)"><g
       fill="#454749"
       id="g4"><path
         d="m 17.8,39.3 -0.3,-3 c 0.8,-0.1 1.9,-0.3 3.1,-0.5 5.9,-1.1 15.7,-3 26.4,0.6 l -1,2.8 C 36.1,35.8 26.8,37.6 21.2,38.7 19.8,39 18.6,39.2 17.8,39.3"
         id="path4-4" /><circle
         cx="19.700001"
         cy="37.900002"
         id="ellipse4"
         r="9" /></g><circle
       cx="19.700001"
       cy="37.900002"
       fill="#b4d7ee"
       id="ellipse5"
       r="6" /><circle
       cx="44.299999"
       cy="37.900002"
       fill="#454749"
       id="ellipse6"
       r="9" /><circle
       cx="44.299999"
       cy="37.900002"
       fill="#b4d7ee"
       id="ellipse7"
       r="6" /></g></svg>
