<?xml version="1.0" encoding="UTF-8" standalone="no"?>
<svg
   viewBox="0 0 64 64"
   version="1.1"
   id="svg9"
   sodipodi:docname="1f9d9.svg"
   xml:space="preserve"
   inkscape:version="1.3.2 (091e20e, 2023-11-25, custom)"
   xmlns:inkscape="http://www.inkscape.org/namespaces/inkscape"
   xmlns:sodipodi="http://sodipodi.sourceforge.net/DTD/sodipodi-0.dtd"
   xmlns="http://www.w3.org/2000/svg"
   xmlns:svg="http://www.w3.org/2000/svg"
   xmlns:rdf="http://www.w3.org/1999/02/22-rdf-syntax-ns#"
   xmlns:cc="http://creativecommons.org/ns#"
   xmlns:dc="http://purl.org/dc/elements/1.1/"><defs
     id="defs9" /><sodipodi:namedview
     id="namedview9"
     pagecolor="#ffffff"
     bordercolor="#000000"
     borderopacity="0.25"
     inkscape:showpageshadow="2"
     inkscape:pageopacity="0.0"
     inkscape:pagecheckerboard="0"
     inkscape:deskcolor="#d1d1d1"
     inkscape:zoom="12.046875"
     inkscape:cx="31.958495"
     inkscape:cy="35.237354"
     inkscape:window-width="1920"
     inkscape:window-height="991"
     inkscape:window-x="-9"
     inkscape:window-y="-9"
     inkscape:window-maximized="1"
     inkscape:current-layer="svg9" /><title
     id="title1">mage</title><path
     fill="#b386e2"
     d="M 39.850065,50.403729 V 44.021286 H 21.078599 v 6.382443 C 9.3464332,50.67341 7,52.561175 7,62 h 46.928664 c 0,-9.438825 -2.346433,-11.32659 -14.078599,-11.596271"
     id="path2"
     style="fill:#800080;stroke-width:0.918541" /><g
     id="g9"
     transform="matrix(0.67562668,0,0,0.70616783,8.5326381,6.6888317)"
     style="display:inline;opacity:1"><path
       fill="#ffb300"
       d="M 6,36 H 58 C 58,8 54,2 32,2 10,2 6,8 6,36 Z"
       id="path1-5"
       style="fill:#f9f9f9" /><path
       fill="#ffdd67"
       d="m 55.8,29.9 c -0.2,1.1 -0.4,2.1 -0.7,2.7 -0.6,1 -1.7,1.6 -1.7,1.6 0,0 0.3,-2.1 0.2,-5 C 52.4,11.8 51.4,16.6 32,16.6 c -19.4,0 -20.4,-4.8 -21.6,12.5 -0.1,2.9 0.2,5.1 0.2,5.1 0,0 -1.1,-0.6 -1.7,-1.6 C 8.6,32 8.4,31 8.2,29.9 6.4,29.4 4,29.8 4,35 c 0,3.2 1.2,5.9 5.3,6.2 1.3,10.2 7.3,15.4 17.2,19.9 2.7,1.2 8.3,1.2 11,0 10,-4.5 15.9,-9.7 17.2,-19.9 4.1,-0.3 5.3,-2.9 5.3,-6.2 0,-5.2 -2.4,-5.6 -4.2,-5.1"
       id="path2-5" /><path
       fill="#937237"
       d="m 41,48.9 c 0,3.4 -4.5,5.1 -9,5.1 -4.5,0 -9,-1.7 -9,-5.1 0,0 0,-0.9 0.9,-0.9 h 16.2 c 0.9,0 0.9,0.9 0.9,0.9"
       id="path3-5" /><path
       fill="#f5f5f5"
       d="m 20,28.6 c -5,0 -7,1.8 -7,3.6 0,1.8 0,4.4 6.6,4.4 6.4,0 7.4,-0.8 7.4,-3.5 0,-1.8 -2,-4.5 -7,-4.5"
       id="path4-9" /><circle
       cx="20.5"
       cy="31.6"
       r="4.5"
       fill="#664e27"
       id="circle4" /><path
       fill="#231f20"
       d="m 22,31.6 c 0,0.8 -0.7,1.5 -1.5,1.5 -0.8,0 -1.5,-0.7 -1.5,-1.5 0,-0.8 0.7,-1.5 1.5,-1.5 0.8,0 1.5,0.7 1.5,1.5"
       id="path5-6" /><path
       fill="#664e27"
       d="m 13,32.1 c 0,-7 14,-7 14,1 -2,-6 -12,-6 -14,-1"
       id="path6" /><path
       fill="#f5f5f5"
       d="m 44,28.6 c 5,0 7,1.8 7,3.6 0,1.8 0,4.4 -6.6,4.4 -6.4,0 -7.4,-0.8 -7.4,-3.5 0,-1.8 2,-4.5 7,-4.5"
       id="path7" /><circle
       cx="43.5"
       cy="31.6"
       r="4.5"
       fill="#664e27"
       id="circle7-0" /><path
       fill="#231f20"
       d="m 42,31.6 c 0,0.8 0.7,1.5 1.5,1.5 0.8,0 1.5,-0.7 1.5,-1.5 0,-0.8 -0.7,-1.5 -1.5,-1.5 -0.8,0 -1.5,0.7 -1.5,1.5"
       id="path8-1" /><path
       fill="#664e27"
       d="m 51,32.1 c 0,-7 -14,-7 -14,1 2,-6 12,-6 14,-1"
       id="path9-8" /><path
       fill="#eba352"
       d="m 32,45 c -4.2,0 -6.3,-3 -4.2,-3 h 8.4 c 2.1,0 0,3 -4.2,3"
       id="path10" /></g><path
     style="opacity:1;fill:#f9f9f9;fill-rule:evenodd;stroke-width:2.9577"
     d="m 25.12749,49.993203 c -1.802484,-0.65646 -3.528645,-1.529279 -5.142067,-2.537073 -0.551808,-0.344677 -1.241765,-0.690327 -1.636112,-1.193918 -0.0661,-0.08442 -0.184455,-0.129472 -0.23373,-0.223859 -0.02846,-0.05452 0.01263,-0.16338 0,-0.223859 -0.04066,-0.194721 -0.123261,-0.409855 -0.15582,-0.596959 -0.136208,-0.782732 0.28974,-1.811851 -0.389552,-2.462454 -0.04106,-0.03933 -0.109363,-0.04125 -0.15582,-0.07462 -0.365884,-0.262824 -0.65339,-0.578646 -1.090741,-0.746198 -0.57628,-0.220778 -0.865955,-0.315612 -1.168651,-0.895438 -0.202285,-0.387484 -0.232212,-1.724196 -0.31164,-2.089355 -0.136843,-0.629108 -0.423249,-1.216123 -0.623282,-1.790876 -0.06729,-0.19337 0.03508,-0.470019 0,-0.671579 -0.01838,-0.105609 -0.209213,-0.302654 -0.23373,-0.373098 -0.07571,-0.217553 -0.08011,-0.454027 -0.15582,-0.671579 -0.0082,-0.0236 -0.05954,0.01759 -0.07791,0 -0.03673,-0.03518 0.02323,-0.104745 0,-0.14924 -0.06362,-0.121853 -0.105563,-0.228695 -0.155821,-0.373099 -0.08212,-0.235968 0,-0.497465 0,-0.746198 0,-0.336041 -0.07558,-0.793526 0,-1.119298 0.13941,-0.60085 0.279515,-0.833713 0.389551,-1.492396 0.03745,-0.224193 0.06673,-1.023275 0.23373,-1.343157 0.03484,-0.06675 -0.01889,-0.151467 0,-0.22386 0.05328,-0.204126 0.109553,-0.120078 0.233731,-0.298479 0.02881,-0.04139 -0.02323,-0.104744 0,-0.149239 0.09457,-0.181147 0.378484,-0.66098 0.545371,-0.820818 0.05194,-0.02487 0.10388,-0.04975 0.15582,-0.07462 0,-0.02487 -0.01837,-0.05703 0,-0.07462 0.05509,-0.05277 0.15582,0 0.23373,0 0.324884,0 0.772737,-0.06091 1.090741,0 0.06869,0.01316 0.280343,1.074011 0.311641,1.193917 0.0894,0.342494 0.03671,0.614897 0.07791,0.970058 0.03181,0.274149 0.162588,0.392546 0.23373,0.596959 0.04995,0.143534 0.0308,0.303307 0.07791,0.447719 0.0718,0.220047 0.41388,1.062154 0.701191,1.268536 0.04155,0.02985 0.10808,-0.0196 0.155821,0 0.245758,0.100878 0.46204,0.258575 0.701191,0.3731 0.41552,0.198986 -0.07791,-0.07462 0.23373,0.223859 0.03673,0.03518 0.139395,-0.04719 0.15582,0 0.02464,0.07079 -0.02797,0.154214 0,0.223859 0.612332,1.524828 0.180297,-0.05794 0.779101,1.567017 0.07127,0.193417 -0.02237,0.483184 0.15582,0.596959 0.04321,0.0276 0.114269,-0.02985 0.15582,0 0.07491,0.05381 0.08961,0.160445 0.15582,0.223859 0.04333,0.0415 0.984119,0.461067 1.090742,0.522339 0.06299,0.0362 0.09205,0.114335 0.155821,0.14924 0.334464,0.183051 1.057195,0.23422 1.246561,0.596958 0.03134,0.06002 -0.05635,0.291597 -0.07791,0.298479 -0.07391,0.0236 -0.159818,-0.0236 -0.233731,0 -0.02464,0.0078 0.01837,0.05703 0,0.07462 -0.01,0.0095 -0.38955,0.05383 -0.38955,0.223859 0,0.180224 0.971816,0.645389 1.246561,0.820818 0.04832,0.03085 0.10073,0.05703 0.15582,0.07462 0.02464,0.0078 0.06629,-0.02225 0.07791,0 0.174292,0.333863 -0.52148,0.786495 -0.701191,1.044677 -0.02881,0.04139 0.01642,0.102046 0,0.14924 -0.188112,0.540502 0.02246,-0.117647 -0.15582,0.223859 -0.13906,0.266374 -0.140541,0.774743 -0.07791,1.044677 0.06814,0.293694 0.396927,1.275603 0.62328,1.492397 0.03703,0.03546 0.274614,0.113776 0.311641,0.14924 0.177397,0.169905 0.288004,0.477062 0.389551,0.671579 0.06728,0.128878 0.438671,0.445694 0.545371,0.522338 0.223281,0.160389 0.684867,0.295315 0.93492,0.447719 0.140292,0.08551 0.246959,0.216538 0.389551,0.298479 0.169597,0.09746 0.353494,0.177917 0.54537,0.22386 0.05039,0.01206 0.107596,-0.01847 0.155821,0 0.291871,0.111818 0.567543,0.3289 0.857011,0.447719 0.09842,0.0404 0.213221,0.03422 0.311641,0.07462 1.369522,0.56215 2.560838,1.846317 4.129235,0.970057 0.265324,-0.148236 0.72526,-0.65447 0.934921,-0.895438 0.04565,-0.05247 0.140812,-0.239149 0.23373,-0.298479 0.191625,-0.122355 0.272189,-0.232829 0.467462,-0.373099 0.138455,-0.09946 0.472944,-0.190489 0.62328,-0.298479 0.979624,-0.703691 -0.525462,0.161401 0.779101,-0.671579 0.222472,-0.142051 0.474455,-0.237374 0.701191,-0.373099 0.746944,-0.447125 0.348733,-0.364467 1.246562,-0.671578 0.329302,-0.112642 0.66708,-0.11657 0.934921,-0.373099 0.260996,-0.249974 0.458134,-0.554771 0.701191,-0.820818 0.713351,-0.780829 1.455915,-1.575714 2.025663,-2.462455 0.04304,-0.06699 0.05029,-0.149785 0.07791,-0.223859 0.102237,-0.274174 0.215516,-0.544624 0.31164,-0.820818 0.07484,-0.215033 -0.414559,-1.361581 -0.46746,-1.716257 -0.153273,-1.027596 0.12944,-2.126223 0.857011,-2.910173 0.417365,-0.449706 1.072203,-0.155158 1.558201,0 0.385816,0.123174 0.780487,0.02151 1.168652,0.07462 0.307568,0.04208 0.595771,0.247996 0.857011,0.3731 0.06969,0.03337 0.159819,-0.0236 0.23373,0 0.06969,0.02225 0.09012,0.117776 0.155821,0.149239 0.04646,0.02225 0.109364,-0.02225 0.15582,0 0.0657,0.03146 0.0947,0.110215 0.15582,0.14924 0.380019,0.242647 0.738024,0.180452 0.934922,0.746198 0.05857,0.168281 -0.160568,0.03503 -0.23373,0 -0.291051,-0.139379 -0.570504,-0.29996 -0.857012,-0.447719 -0.246742,-0.12725 -1.392948,-0.513303 -1.480292,-0.596958 -0.03673,-0.03518 -0.01492,-0.101592 0,-0.14924 0.309077,-0.986746 0.496362,-1.991866 0.779101,-2.984794 0.04321,-0.151769 0.126438,-0.292943 0.15582,-0.447718 0.02323,-0.122361 0,-0.248733 0,-0.373099 0.02597,-0.14924 0.04569,-0.299602 0.07791,-0.447719 0.09767,-0.449001 0.221209,-0.892769 0.311641,-1.343157 0.08722,-0.434396 0.08877,-0.852013 0.23373,-1.268538 0.05115,-0.146968 0.05573,-1.13001 0.15582,-1.193916 0.23273,-0.148601 0.524467,0.187624 0.779102,0.298479 0.689711,0.300266 0.72937,0.316735 1.090741,1.268537 0.08037,0.211676 0.07033,0.446458 0.07791,0.671578 0.02673,0.793722 0.02365,1.859501 -0.07791,2.686314 -0.07314,0.595437 -0.367569,1.184946 -0.467461,1.790876 -0.181253,1.099455 -0.415365,2.18803 -0.62328,3.283272 -0.04738,0.249568 -0.133827,0.493416 -0.155821,0.746198 -0.01509,0.173512 0.02989,0.350595 0,0.522339 -0.04867,0.279741 -0.167148,0.544482 -0.233731,0.820818 -0.15527,0.644422 -0.255841,1.323889 -0.54537,1.940116 -0.10054,0.213986 -0.266796,0.393883 -0.389551,0.596959 -0.163038,0.269719 -0.293697,0.557311 -0.46746,0.820817 -0.585318,0.887615 -1.446101,1.697468 -2.103573,2.537074 -0.06969,0.08899 -0.0914,0.205925 -0.15582,0.298479 -0.144056,0.206959 -0.335787,0.382569 -0.467461,0.596959 -0.129683,0.211151 -0.180045,0.461516 -0.31164,0.671579 -0.656127,1.047362 -3.072415,2.634167 -4.129235,3.208652 -1.925152,1.046509 -4.037644,1.610928 -6.154899,2.163975 -1.265122,0.330462 -1.39787,0.497946 -2.571033,0.3731 -0.07743,-0.0083 -0.160781,0.0262 -0.23373,0 -0.141789,-0.05092 -0.252059,-0.163082 -0.389551,-0.22386 -0.759268,-0.335632 -1.40079,-0.529951 -1.947753,-1.119298 -0.125619,-0.135354 -1.048731,-1.084914 -1.090741,-1.044677 -0.03673,0.03518 0,0.09949 0,0.149239 0,0.273607 0,0.547213 -1e-6,0.820818 z"
     id="path9" /><path
     style="opacity:1;fill:#f9f9f9;fill-rule:evenodd;stroke-width:2.9577"
     d="m 21.387805,45.441395 c -0.12985,-0.04975 -0.282113,-0.06349 -0.38955,-0.149241 -0.194048,-0.154876 -0.233731,-1.708057 -0.233731,-2.014735 0,-0.352742 -0.05223,-0.769131 0,-1.119297 0.161341,-1.081691 0.776132,-2.15971 1.402382,-3.059413 0.08657,-0.124366 0.288556,-0.248732 0.38955,-0.373099 0.137157,-0.168896 0.242439,-0.361311 0.389551,-0.522339 0.236493,-0.258863 0.07206,0.0028 0.23373,-0.07462 0.390328,-0.186922 0.775925,-0.408888 1.168652,-0.596959 0.494069,-0.236602 2.190057,-0.04906 2.804763,0 0.841544,0.06717 2.152249,0.04301 2.960584,0 0.515669,-0.02744 1.190417,-0.0378 1.714023,-0.14924 0.160337,-0.03412 0.304863,-0.126992 0.46746,-0.149239 0.583937,-0.0799 1.204611,0.05626 1.791933,0 0.08172,-0.0078 0.15224,-0.06487 0.23373,-0.07462 0.750042,-0.08979 1.577026,0 2.337303,0 0.715176,0 1.565262,-0.09497 2.259393,0 0.372452,0.05096 0.736691,0.260066 1.090742,0.373099 0.149863,0.04784 0.320789,0.01843 0.467461,0.07462 0.08694,0.0333 0.149979,0.109132 0.23373,0.149239 0.834607,0.39968 -0.639839,-0.436018 0.623281,0.22386 0.659811,0.344698 1.051302,0.912934 1.324471,1.567016 0.269347,0.644929 0.636071,1.362653 0.467461,2.089356 -0.192127,0.82806 -1.136233,2.235812 -2.181483,1.790875 -0.169269,-0.07205 -0.676859,-0.235064 -0.857011,-0.373099 -0.08604,-0.06593 -0.144072,-0.162522 -0.23373,-0.223859 -0.236271,-0.161638 -0.5283,-0.232977 -0.779102,-0.3731 -0.161762,-0.09038 -0.306876,-0.206197 -0.46746,-0.298479 -0.111608,-0.06414 -0.432677,-0.190546 -0.545371,-0.298479 -0.01837,-0.01759 0.01837,-0.05703 0,-0.07462 -0.01837,-0.01759 -0.05468,0.01112 -0.07791,0 -0.147227,-0.0705 -0.428962,-0.261606 -0.54537,-0.373099 -0.01837,-0.01759 0.01837,-0.05703 0,-0.07462 -0.104765,-0.100339 -0.315594,-0.15681 -0.389551,-0.298479 -0.0894,-0.17125 -0.311334,-0.447426 -0.46746,-0.596959 -0.03673,-0.03517 -0.119094,0.03518 -0.155821,0 -0.04106,-0.03933 -0.0457,-0.102962 -0.07791,-0.149239 -0.117816,-0.169262 -0.379459,-0.341784 -0.54537,-0.447719 -0.02161,-0.0138 -0.05713,0.01492 -0.07791,0 -0.08814,-0.06332 -0.145585,-0.160543 -0.23373,-0.22386 -0.0033,-0.0023 -0.462702,-0.22272 -0.467461,-0.223859 -0.05039,-0.01206 -0.109363,0.02225 -0.15582,0 -0.116142,-0.05562 -0.192289,-0.174869 -0.31164,-0.22386 -0.168788,-0.06928 -0.371159,-0.019 -0.545371,-0.07462 -0.37106,-0.118463 -0.781565,-0.31131 -1.168652,-0.3731 -0.193686,-0.03091 -0.489472,0.04055 -0.701191,0 -0.539378,-0.103319 -1.113049,-0.173236 -1.636111,-0.298479 -0.403551,-0.09663 -0.970256,0 -1.402383,0 -0.188121,0 -0.436837,-0.03571 -0.623281,0 -0.734716,0.140737 0.120811,-0.0137 -0.62328,0.223859 -0.04927,0.01573 -0.107595,-0.01847 -0.15582,0 -0.08694,0.03331 -0.15582,0.09949 -0.233731,0.14924 -0.10388,0.04975 -0.202894,0.110182 -0.31164,0.14924 -0.273982,0.0984 -0.533195,0.121838 -0.779102,0.298479 -0.02077,0.01492 0.02464,0.06676 0,0.07462 -0.07391,0.0236 -0.164044,-0.03337 -0.23373,0 -0.148734,0.07122 -0.254235,0.205907 -0.38955,0.298479 -0.54903,0.375602 -1.114144,0.710268 -1.636112,1.119298 -0.248868,0.195019 -1.317768,0.957216 -1.480292,1.268537 -0.04789,0.09173 -0.0485,0.19987 -0.07791,0.298479 -0.272302,0.912811 0.181791,-0.671578 -0.23373,0.522339 -0.01643,0.04719 0,0.09949 0,0.149239 -0.07791,0.198986 -0.146324,0.401625 -0.23373,0.596959 0.169586,0.308929 -0.294447,0.414786 -0.38955,0.596958 -0.10437,0.199925 0.09512,0.541212 0,0.746199 -0.380979,0.821001 -0.360345,0.195808 -0.233731,1.044677"
     id="path11" /><path
     style="opacity:1;fill:#800080;fill-rule:evenodd;stroke-width:3.22"
     d="M 3.8184176,15.854734 21.914397,10.376135 C 25.181317,3.4525573 34.982461,2.0177275 43.496757,-0.49805447 41.494951,1.5068042 40.470307,3.4228299 40.901256,5.2065291 l 0.105229,5.6676599 16.103761,5.4786 z"
     id="path12"
     sodipodi:nodetypes="ccccccc" /><path
     fill="#ffce31"
     d="m 28.301971,5.9844358 c 0.357769,0.5432945 0.570195,1.1997753 0.570195,1.9015306 0.01118,1.8902118 -1.520519,3.4182276 -3.409987,3.4182276 -0.637276,0 -1.241012,-0.181098 -1.755305,-0.486701 0.581375,1.165819 1.777665,1.958123 3.164021,1.958123 1.95655,0 3.54415,-1.584608 3.54415,-3.5427322 0,-1.4487851 -0.872062,-2.6938349 -2.113074,-3.248448 z"
     id="path1"
     style="stroke-width:0.112492" /><path
     sodipodi:type="star"
     style="opacity:1;fill:#ffce31;fill-opacity:1;fill-rule:evenodd;stroke-width:3.22"
     id="path13"
     inkscape:flatsided="false"
     sodipodi:sides="5"
     sodipodi:cx="33.535667"
     sodipodi:cy="4.3164721"
     sodipodi:r1="4.7482352"
     sodipodi:r2="2.2603643"
     sodipodi:arg1="0.93428811"
     sodipodi:arg2="1.5626066"
     inkscape:rounded="0"
     inkscape:randomized="0"
     d="M 36.357976,8.1348895 33.554179,6.5767605 30.776278,8.1806029 31.391726,5.0325451 29.007962,2.8862188 32.192127,2.4987411 33.496781,-0.43160394 34.849255,2.4769794 38.03934,2.812253 35.69105,4.9973341 Z"
     inkscape:transform-center-x="0.010580512"
     inkscape:transform-center-y="-0.382333"
     transform="matrix(0.88051457,0,0,0.86506047,6.4543558,2.3490229)" /><path
     style="opacity:1;fill:#aa4400;fill-opacity:1;fill-rule:evenodd;stroke-width:3.22"
     d="m 45.322957,59.932555 3.154345,-16.850843 -1.328145,-2.7393 2.324254,-4.814526 2.324254,1.245136 5.063554,-5.229572 4.399481,3.56939 -3.56939,3.818418 -1.909209,1.660182 3.735409,-0.830091 1.74319,4.48249 -4.316472,0.9131 -5.644617,17.016861 -6.640726,-0.415045 z"
     id="path14" /><metadata
     id="metadata14"><rdf:RDF><cc:Work
         rdf:about=""><dc:title>mage</dc:title></cc:Work></rdf:RDF></metadata></svg>
