<?xml version="1.0" encoding="UTF-8" standalone="no"?>
<svg
   viewBox="0 0 64 64"
   version="1.1"
   id="svg10"
   sodipodi:docname="1f9d4-1f3ff.svg"
   inkscape:version="1.3.2 (091e20e, 2023-11-25, custom)"
   xml:space="preserve"
   xmlns:inkscape="http://www.inkscape.org/namespaces/inkscape"
   xmlns:sodipodi="http://sodipodi.sourceforge.net/DTD/sodipodi-0.dtd"
   xmlns="http://www.w3.org/2000/svg"
   xmlns:svg="http://www.w3.org/2000/svg"
   xmlns:rdf="http://www.w3.org/1999/02/22-rdf-syntax-ns#"
   xmlns:cc="http://creativecommons.org/ns#"
   xmlns:dc="http://purl.org/dc/elements/1.1/"><defs
     id="defs10" /><sodipodi:namedview
     id="namedview10"
     pagecolor="#ffffff"
     bordercolor="#000000"
     borderopacity="0.25"
     inkscape:showpageshadow="2"
     inkscape:pageopacity="0.0"
     inkscape:pagecheckerboard="0"
     inkscape:deskcolor="#d1d1d1"
     showguides="true"
     inkscape:zoom="12.046875"
     inkscape:cx="29.841764"
     inkscape:cy="31.169909"
     inkscape:window-width="1920"
     inkscape:window-height="991"
     inkscape:window-x="-9"
     inkscape:window-y="-9"
     inkscape:window-maximized="1"
     inkscape:current-layer="svg10" /><title
     id="title1">person: dark skin tone, beard</title><path
     fill="#ffb300"
     d="M 6,36 H 58 C 58,8 54,2 32,2 10,2 6,8 6,36 Z"
     id="path1"
     style="display:inline;fill:#231f20;fill-opacity:1" /><path
     fill="#ffdd67"
     d="m 55.8,29.9 c -0.2,1.1 -0.4,2.1 -0.7,2.7 -0.6,1 -1.7,1.6 -1.7,1.6 0,0 0.3,-2.1 0.2,-5 C 52.4,11.8 51.4,16.6 32,16.6 c -19.4,0 -20.4,-4.8 -21.6,12.5 -0.1,2.9 0.2,5.1 0.2,5.1 0,0 -1.1,-0.6 -1.7,-1.6 C 8.6,32 8.4,31 8.2,29.9 6.4,29.4 4,29.8 4,35 c 0,3.2 1.2,5.9 5.3,6.2 1.3,10.2 7.3,15.4 17.2,19.9 2.7,1.2 8.3,1.2 11,0 10,-4.5 15.9,-9.7 17.2,-19.9 4.1,-0.3 5.3,-2.9 5.3,-6.2 0,-5.2 -2.4,-5.6 -4.2,-5.1"
     id="path2"
     style="display:inline;fill:#8a6859;fill-opacity:1" /><path
     fill="#937237"
     d="m 41,48.9 c 0,3.4 -4.5,5.1 -9,5.1 -4.5,0 -9,-1.7 -9,-5.1 0,0 0,-0.9 0.9,-0.9 h 16.2 c 0.9,0 0.9,0.9 0.9,0.9"
     id="path3"
     style="display:inline;fill:#574137;fill-opacity:1" /><path
     fill="#f5f5f5"
     d="m 20,28.6 c -5,0 -7,1.8 -7,3.6 0,1.8 0,4.4 6.6,4.4 6.4,0 7.4,-0.8 7.4,-3.5 0,-1.8 -2,-4.5 -7,-4.5"
     id="path4"
     style="display:inline" /><circle
     cx="20.5"
     cy="31.6"
     r="4.5"
     fill="#664e27"
     id="circle4"
     style="display:inline" /><path
     fill="#231f20"
     d="m 22,31.6 c 0,0.8 -0.7,1.5 -1.5,1.5 -0.8,0 -1.5,-0.7 -1.5,-1.5 0,-0.8 0.7,-1.5 1.5,-1.5 0.8,0 1.5,0.7 1.5,1.5"
     id="path5"
     style="display:inline" /><path
     fill="#664e27"
     d="m 13,32.1 c 0,-7 14,-7 14,1 -2,-6 -12,-6 -14,-1"
     id="path6"
     style="display:inline" /><path
     fill="#f5f5f5"
     d="m 44,28.6 c 5,0 7,1.8 7,3.6 0,1.8 0,4.4 -6.6,4.4 -6.4,0 -7.4,-0.8 -7.4,-3.5 0,-1.8 2,-4.5 7,-4.5"
     id="path7"
     style="display:inline" /><circle
     cx="43.5"
     cy="31.6"
     r="4.5"
     fill="#664e27"
     id="circle7"
     style="display:inline" /><path
     fill="#231f20"
     d="m 42,31.6 c 0,0.8 0.7,1.5 1.5,1.5 0.8,0 1.5,-0.7 1.5,-1.5 0,-0.8 -0.7,-1.5 -1.5,-1.5 -0.8,0 -1.5,0.7 -1.5,1.5"
     id="path8"
     style="display:inline" /><path
     fill="#664e27"
     d="m 51,32.1 c 0,-7 -14,-7 -14,1 2,-6 12,-6 14,-1"
     id="path9"
     style="display:inline" /><path
     fill="#eba352"
     d="m 32,45 c -4.2,0 -6.3,-3 -4.2,-3 h 8.4 c 2.1,0 0,3 -4.2,3"
     id="path10"
     style="display:inline;fill:#705041;fill-opacity:1" /><path
     id="path11"
     style="display:inline;fill:#231f20;fill-opacity:1;fill-rule:evenodd;stroke:none;stroke-width:3.22"
     d="M 10.130859 29.355469 C 9.8870069 29.335794 9.2665183 29.626358 9.1308594 29.716797 C 9.0006241 29.803617 8.9553514 30.048828 8.7988281 30.048828 C 8.6498224 30.048828 8.523114 29.938152 8.3847656 29.882812 C 8.4867263 31.674968 8.272795 33.487767 8.3847656 35.279297 C 8.3952646 35.447277 8.4538879 35.609532 8.4667969 35.777344 C 8.5007748 36.219052 8.4881943 36.667362 8.5507812 37.105469 C 8.5631552 37.192089 8.6231495 37.266552 8.6328125 37.353516 C 8.6801915 37.779922 8.6328125 38.251507 8.6328125 38.681641 C 8.6328125 39.543547 8.6718621 40.408293 8.5507812 41.255859 C 8.4453566 41.993834 8.5507812 42.837074 8.5507812 43.580078 C 8.5507812 44.171212 8.7387848 44.779724 8.9648438 45.322266 C 9.0268977 45.471195 9.1472327 45.59179 9.2148438 45.738281 C 9.6411783 46.662005 9.8901234 47.799767 10.210938 48.726562 C 10.291887 48.960433 10.451055 49.160841 10.542969 49.390625 C 10.758069 49.928375 10.886244 50.524554 11.123047 51.050781 C 11.52987 51.954834 11.561433 51.831407 12.037109 52.544922 C 12.181906 52.762117 12.324402 52.980799 12.451172 53.208984 C 12.464612 53.233174 12.434572 53.268876 12.451172 53.291016 C 12.521602 53.384926 12.630737 53.447102 12.701172 53.541016 C 12.717772 53.563156 12.701172 53.595377 12.701172 53.623047 C 12.728842 53.678387 12.746083 53.739566 12.783203 53.789062 C 12.887423 53.928022 13.058533 54.117009 13.115234 54.287109 C 13.132734 54.339609 13.090484 54.403628 13.115234 54.453125 C 13.127604 54.477875 13.179649 54.433555 13.199219 54.453125 C 13.322272 54.576178 13.408197 54.828119 13.53125 54.951172 C 13.55082 54.970742 13.593711 54.931602 13.613281 54.951172 C 13.683821 55.021712 13.708749 55.130627 13.779297 55.201172 C 13.798867 55.220742 13.850901 55.176422 13.863281 55.201172 C 13.888031 55.250672 13.838531 55.317691 13.863281 55.367188 C 13.875651 55.391937 13.920563 55.354818 13.945312 55.367188 C 14.120691 55.345568 13.977817 55.498883 14.029297 55.533203 C 14.102097 55.581743 14.199082 55.576104 14.277344 55.615234 C 14.401086 55.677104 14.489255 55.796594 14.609375 55.865234 C 14.90969 56.036843 15.226958 56.185393 15.523438 56.363281 C 15.805659 56.532614 16.071294 56.774027 16.353516 56.943359 C 16.512677 57.038859 16.694968 57.093707 16.851562 57.193359 C 17.001036 57.288479 17.111797 57.437489 17.265625 57.525391 C 17.502235 57.660595 17.77489 57.726092 18.013672 57.857422 C 18.329783 58.031283 18.606202 58.270101 18.925781 58.4375 C 19.678058 58.83155 20.535039 59.001263 21.333984 59.267578 C 21.801906 59.423552 22.272924 59.608553 22.744141 59.765625 C 22.852371 59.801705 22.97192 59.803279 23.076172 59.849609 C 23.223607 59.915139 23.343259 60.035602 23.492188 60.097656 C 23.678131 60.175136 23.888883 60.180314 24.072266 60.263672 C 24.198213 60.320922 24.274758 60.465094 24.404297 60.513672 C 24.507929 60.552532 24.626761 60.498022 24.736328 60.513672 C 25.011207 60.552942 25.309231 60.76855 25.566406 60.845703 C 25.803201 60.916743 26.011351 60.902161 26.230469 61.011719 C 26.265469 61.029219 26.276493 61.08426 26.314453 61.09375 C 26.594797 61.16384 26.953386 61.068464 27.226562 61.177734 C 27.556287 61.309624 27.804887 61.479884 28.140625 61.591797 C 28.385818 61.673527 28.742879 61.727885 28.970703 61.841797 C 29.040703 61.876797 29.066721 61.972813 29.136719 62.007812 C 29.277938 62.078422 29.305209 61.926304 29.46875 62.089844 C 29.48832 62.109414 29.44918 62.154258 29.46875 62.173828 C 29.51522 62.220298 29.722091 62.236189 29.800781 62.255859 L 30.048828 62.339844 C 30.048828 62.367514 30.024078 62.409495 30.048828 62.421875 C 30.079228 62.437075 30.345939 62.386955 30.380859 62.421875 C 30.400429 62.441445 30.361289 62.486289 30.380859 62.505859 C 30.393539 62.518539 30.684505 62.666197 30.712891 62.671875 C 30.821421 62.693585 30.935355 62.656225 31.044922 62.671875 C 31.498991 62.736745 31.911032 63.034603 32.373047 63.085938 C 32.510549 63.101217 32.650715 63.085937 32.789062 63.085938 C 32.899741 63.085938 33.023929 63.138937 33.121094 63.085938 C 33.754764 62.740299 33.759006 62.35239 34.53125 62.255859 C 35.169573 62.176069 35.880251 62.255859 36.523438 62.255859 C 36.693769 62.255859 36.945647 62.309139 37.105469 62.255859 C 37.142589 62.243489 37.15983 62.201498 37.1875 62.173828 C 37.27051 62.146158 37.352613 62.111064 37.4375 62.089844 C 37.661411 62.033864 38.340452 62.011416 38.515625 61.923828 C 38.921509 61.720886 39.368754 61.595422 39.84375 61.425781 C 40.087351 61.338781 40.199294 61.169246 40.425781 61.09375 C 41.016525 60.896835 41.624232 60.589915 42.167969 60.263672 C 42.263539 60.206332 42.31853 60.065345 42.417969 60.015625 C 42.442719 60.003255 42.47233 60.015625 42.5 60.015625 C 42.610678 59.960285 42.725922 59.913274 42.832031 59.849609 C 43.217449 59.618359 43.639876 59.148736 43.994141 58.853516 C 44.714793 58.252972 45.459979 57.54491 46.236328 57.027344 C 46.42703 56.900209 46.200736 56.978961 46.402344 56.777344 C 46.580347 56.599341 46.811854 56.670353 46.900391 56.611328 C 47.221704 56.397119 46.892309 56.460232 47.314453 56.279297 C 47.419314 56.234357 47.541624 56.242206 47.646484 56.197266 C 48.034694 56.03089 48.375139 55.767486 48.726562 55.533203 C 49.093785 55.288388 49.387976 54.911987 49.722656 54.619141 C 51.253887 53.279315 51.610104 52.383064 52.626953 50.552734 C 52.829807 50.187598 53.144429 49.642016 53.375 49.306641 C 53.566346 49.028319 53.873162 48.804229 53.955078 48.476562 C 53.968498 48.422873 53.937578 48.363047 53.955078 48.310547 C 53.999168 48.178285 54.166406 48.051171 54.205078 47.896484 C 54.338714 47.36194 54.363631 46.773291 54.453125 46.236328 C 54.492525 45.999949 54.385735 44.975598 54.453125 44.908203 C 54.472695 44.888633 54.524739 44.932953 54.537109 44.908203 C 54.561859 44.858703 54.528009 44.796773 54.537109 44.742188 C 54.555859 44.629655 54.596761 44.522026 54.619141 44.410156 C 54.639931 44.30623 54.585911 44.177831 54.619141 44.078125 C 54.710311 43.804614 54.666465 43.623367 54.703125 43.330078 C 54.741945 43.01954 54.800223 43.025664 54.869141 42.75 C 55.018253 42.153551 54.781791 41.451332 54.869141 40.839844 C 54.943681 40.318038 54.95962 40.479213 55.117188 39.927734 C 55.175667 39.723058 55.065528 39.470319 55.117188 39.263672 C 55.126687 39.225712 55.183672 39.214687 55.201172 39.179688 C 55.332562 38.916907 55.515492 38.566805 55.615234 38.267578 C 55.632734 38.215078 55.576104 38.140693 55.615234 38.101562 C 55.634804 38.081993 55.679649 38.121132 55.699219 38.101562 C 55.746329 38.054463 55.721439 37.504147 55.699219 37.4375 C 55.651869 37.295453 55.533203 37.244212 55.533203 37.105469 C 55.533203 36.615769 55.517425 36.228056 55.367188 35.777344 C 55.319438 35.634101 55.433887 35.412691 55.367188 35.279297 C 55.349688 35.244297 55.290883 35.233682 55.283203 35.195312 C 55.18211 34.68985 55.340343 34.133392 55.283203 33.619141 L 55.201172 33.121094 C 55.173502 33.065754 55.132197 33.015102 55.117188 32.955078 C 55.037698 32.637127 55.114666 32.27697 55.035156 31.958984 C 54.964106 31.674792 54.940189 31.413099 54.869141 31.128906 C 54.829201 30.969143 54.973013 30.484731 54.869141 30.380859 C 54.849571 30.361289 54.797536 30.405609 54.785156 30.380859 C 54.774676 30.359899 54.814076 29.981255 54.785156 29.966797 C 54.638564 29.893497 54.205998 29.966797 54.039062 29.966797 C 53.961083 29.966797 53.436627 29.905167 53.375 29.966797 C 53.3597 29.982097 53.306316 30.199548 53.291016 30.214844 C 53.271446 30.234414 53.228554 30.195274 53.208984 30.214844 C 53.167474 30.256344 53.250484 30.423339 53.208984 30.464844 C 53.189414 30.484414 53.14457 30.445274 53.125 30.464844 C 53.08587 30.503974 53.16413 30.591728 53.125 30.630859 C 53.10543 30.650429 53.051719 30.604609 53.042969 30.630859 C 53.016719 30.709609 53.059249 30.797509 53.042969 30.878906 C 53.030839 30.939576 52.978554 30.986225 52.958984 31.044922 C 52.880754 31.279615 52.958984 31.714803 52.958984 31.958984 L 52.958984 34.947266 C 52.958984 35.365399 53.046454 35.941953 52.958984 36.357422 C 52.834489 36.948773 52.731195 37.561047 52.460938 38.101562 C 52.425938 38.171562 52.329922 38.19758 52.294922 38.267578 C 52.051985 38.753453 52.341534 38.446688 52.128906 38.765625 C 51.707056 39.3984 51.360477 40.101678 50.966797 40.757812 C 50.707699 41.189642 51.0336 40.607024 50.800781 40.839844 C 50.781211 40.859414 50.800781 40.896158 50.800781 40.923828 C 50.773111 40.951498 50.75006 40.982379 50.71875 41.005859 C 50.63894 41.065719 50.557982 41.127259 50.46875 41.171875 C 50.444 41.184245 50.406289 41.152305 50.386719 41.171875 C 50.316179 41.242415 50.305301 41.369 50.220703 41.421875 C 50.072304 41.514625 49.882572 41.516822 49.722656 41.587891 C 49.516221 41.679641 49.325705 41.878566 49.140625 42.001953 C 49.015403 42.085433 48.523842 42.310344 48.476562 42.333984 C 48.343288 42.400624 48.203859 42.45288 48.0625 42.5 C 48.03625 42.5087 47.998086 42.48043 47.978516 42.5 C 47.907976 42.57054 47.889138 42.686132 47.8125 42.75 C 47.71744 42.82922 47.579463 42.841768 47.480469 42.916016 C 46.410649 43.718381 47.964952 42.759693 46.734375 43.580078 C 46.546179 43.705541 46.332477 43.738058 46.152344 43.828125 C 46.117344 43.845625 46.107792 43.900859 46.070312 43.912109 C 45.150377 44.18809 44.176366 44.306524 43.248047 44.492188 C 43.219177 44.497987 42.872487 44.617747 42.832031 44.658203 C 42.812461 44.677773 42.851601 44.722618 42.832031 44.742188 C 42.792901 44.781317 42.719703 44.728768 42.666016 44.742188 C 42.470592 44.791047 42.27188 44.830725 42.085938 44.908203 C 41.937008 44.970253 41.817357 45.090723 41.669922 45.15625 C 41.484163 45.23881 40.815067 45.350433 40.591797 45.40625 C 40.382656 45.45853 40.054028 45.40625 39.84375 45.40625 C 39.649079 45.40625 39.882882 45.385701 39.677734 45.488281 C 39.500246 45.577021 39.116781 45.451251 38.931641 45.488281 C 38.870971 45.500411 38.824321 45.552696 38.765625 45.572266 C 38.580805 45.633876 36.671894 45.609386 36.523438 45.572266 C 36.485478 45.562766 36.479776 45.495961 36.441406 45.488281 C 36.278612 45.455721 36.104421 45.528551 35.943359 45.488281 C 35.676797 45.421641 35.392126 45.27509 35.113281 45.240234 C 34.699336 45.188494 34.200811 45.240234 33.785156 45.240234 L 32.789062 45.240234 C 32.676461 45.240234 32.473815 45.206644 32.373047 45.240234 C 32.335927 45.252604 32.326016 45.304766 32.291016 45.322266 C 31.966002 45.484772 31.554016 45.35724 31.210938 45.40625 C 30.929859 45.4464 30.661001 45.525576 30.380859 45.572266 C 30.160815 45.608946 29.938513 45.629657 29.716797 45.654297 C 29.654537 45.661197 29.510255 45.640457 29.46875 45.654297 C 29.43163 45.666667 29.421886 45.725901 29.384766 45.738281 C 29.161885 45.812571 28.788396 45.738281 28.554688 45.738281 C 27.953124 45.738281 27.243053 45.638851 26.646484 45.738281 C 26.42142 45.775791 26.208299 45.872029 25.982422 45.904297 C 25.712474 45.942857 25.50367 45.918998 25.234375 45.986328 C 24.821832 46.089464 23.853424 45.986328 23.408203 45.986328 L 19.921875 45.986328 C 19.870525 45.986328 18.515223 45.989828 18.511719 45.986328 C 18.492149 45.966758 18.531289 45.923867 18.511719 45.904297 C 18.478379 45.870957 18.308667 45.919947 18.261719 45.904297 C 18.167079 45.872747 18.108317 45.769829 18.013672 45.738281 C 17.827557 45.676241 17.624555 45.692877 17.431641 45.654297 C 16.732731 45.514515 17.429046 45.653 17.099609 45.488281 C 16.943087 45.410021 16.771335 45.36471 16.601562 45.322266 C 16.557293 45.311196 16.383952 45.352706 16.353516 45.322266 C 16.333946 45.302696 16.378266 45.252604 16.353516 45.240234 C 16.242982 45.184964 16.060367 45.18697 15.9375 45.15625 C 15.757428 45.11123 15.615542 44.966899 15.439453 44.908203 C 15.360703 44.881953 15.265652 44.945323 15.191406 44.908203 C 15.071559 44.848283 14.979223 44.80211 14.859375 44.742188 C 14.809875 44.717438 14.742856 44.766937 14.693359 44.742188 C 14.572297 44.681658 14.56057 44.609399 14.527344 44.576172 C 14.522144 44.342441 14.339215 44.554057 14.277344 44.492188 C 14.257774 44.472618 14.296914 44.429726 14.277344 44.410156 C 14.216444 44.349256 14.006309 44.362772 13.945312 44.326172 C 13.84465 44.265772 13.79118 44.148561 13.697266 44.078125 C 13.630636 44.028155 13.264597 43.893504 13.199219 43.828125 C 12.675475 43.304382 12.620124 41.851621 12.535156 41.171875 C 12.498186 40.876127 12.343566 40.633848 12.285156 40.341797 C 12.257486 40.203449 12.340496 40.287437 12.285156 40.09375 C 12.204026 39.809788 12.045948 39.54214 11.953125 39.263672 C 11.935625 39.211172 11.977875 39.147153 11.953125 39.097656 C 11.918125 39.027656 11.811858 39.005889 11.787109 38.931641 C 11.769609 38.879141 11.804609 38.818124 11.787109 38.765625 C 11.723649 38.575247 11.609654 38.645369 11.539062 38.433594 C 11.512813 38.354844 11.565312 38.262344 11.539062 38.183594 C 11.514313 38.109354 11.408047 38.087576 11.373047 38.017578 C 11.359767 37.991008 11.139509 37.269811 11.123047 37.1875 C 11.101337 37.078971 11.184437 36.947559 11.123047 36.855469 C 11.088727 36.803989 10.984701 36.828777 10.957031 36.773438 C 10.916781 36.692928 10.90645 36.235156 10.875 36.109375 C 10.83105 35.933591 10.668946 35.787112 10.625 35.611328 C 10.54679 35.298503 10.450843 34.992827 10.376953 34.697266 C 10.346943 34.577218 10.240949 34.485282 10.210938 34.365234 C 10.165648 34.184062 10.247517 33.968042 10.210938 33.785156 C 10.198808 33.724486 10.139083 33.679811 10.126953 33.619141 C 10.035813 33.163422 10.126953 32.592886 10.126953 32.125 C 10.126953 31.414125 10.038973 30.67066 10.126953 29.966797 C 10.151223 29.772653 10.349284 29.523113 10.210938 29.384766 C 10.193995 29.367823 10.165695 29.358279 10.130859 29.355469 z M 40.876953 46.027344 C 41.012181 46.029232 41.140781 46.041543 41.255859 46.070312 C 41.293819 46.079812 41.305331 46.130634 41.337891 46.152344 C 41.724561 46.410123 41.927344 46.561328 42.167969 46.982422 C 42.664665 47.85164 43.018587 48.955213 42.5 49.888672 C 42.342789 50.171651 41.955618 50.382626 41.753906 50.634766 C 41.319915 51.177254 40.948982 51.749415 40.341797 52.128906 C 40.021995 52.328782 39.689156 52.416127 39.345703 52.544922 C 39.096986 52.638192 38.612183 52.960542 38.433594 53.042969 C 37.980683 53.252004 37.477314 53.338425 37.021484 53.541016 C 36.383534 53.824549 35.771064 54.206456 35.113281 54.453125 C 34.899639 54.533245 34.664096 54.542403 34.449219 54.619141 C 34.274418 54.681571 34.120789 54.793756 33.951172 54.869141 C 33.685918 54.987032 33.390601 55.009384 33.121094 55.117188 C 32.677357 55.294681 32.260283 55.416374 31.792969 55.533203 C 31.648412 55.569343 31.523065 55.669997 31.376953 55.699219 C 31.241291 55.726349 31.097107 55.665669 30.962891 55.699219 C 30.722156 55.759399 30.396311 55.914329 30.132812 55.947266 C 29.975944 55.966876 29.304846 56.031326 29.136719 55.947266 C 29.125489 55.941666 29.136719 55.257771 29.136719 55.117188 C 28.036056 55.037578 26.916681 55.201827 25.816406 55.117188 C 25.126039 55.064078 24.361245 54.763631 23.740234 54.453125 C 23.406951 54.286483 23.13622 53.994459 22.828125 53.789062 C 22.755325 53.740523 22.639996 53.768901 22.578125 53.707031 C 22.534375 53.663281 22.539844 53.584766 22.496094 53.541016 C 22.318478 53.363399 22.08562 53.257416 21.914062 53.042969 C 21.836763 52.946339 21.816685 52.813897 21.748047 52.710938 C 21.726337 52.678378 21.673696 52.665323 21.666016 52.626953 C 21.644306 52.518424 21.695136 52.401701 21.666016 52.294922 C 21.610566 52.091621 21.477988 51.916252 21.416016 51.714844 C 21.284766 51.288282 21.244968 49.746693 21.333984 49.390625 C 21.452174 48.917867 21.650964 48.399472 21.914062 47.978516 C 21.955542 47.912146 22.047693 47.883748 22.080078 47.8125 C 22.1887 47.57353 22.223468 47.306279 22.330078 47.066406 C 22.375028 46.965266 22.55143 47.066406 22.662109 47.066406 L 25.400391 47.066406 C 26.671811 47.066406 27.960161 47.122262 29.21875 46.982422 C 30.063173 46.888592 30.952315 47.102515 31.792969 46.982422 C 32.43609 46.890542 33.065566 46.777512 33.701172 46.650391 C 33.831782 46.624271 33.988341 46.671861 34.117188 46.650391 C 34.203497 46.636011 34.282225 46.596029 34.365234 46.568359 C 34.531252 46.540689 34.695808 46.501125 34.863281 46.484375 C 35.301613 46.440545 35.753076 46.528205 36.191406 46.484375 C 36.41338 46.462175 36.635424 46.439024 36.855469 46.402344 C 36.916499 46.392174 36.95992 46.324519 37.021484 46.318359 C 37.241743 46.296329 37.465288 46.340389 37.685547 46.318359 C 37.747107 46.312159 37.791539 46.251338 37.851562 46.236328 C 37.98578 46.202778 38.13062 46.255898 38.267578 46.236328 C 38.380517 46.220198 38.48667 46.168474 38.599609 46.152344 C 38.952255 46.101964 39.324127 46.196544 39.677734 46.152344 C 40.006139 46.111296 40.471269 46.02168 40.876953 46.027344 z " /><metadata
     id="metadata12"><rdf:RDF><cc:Work
         rdf:about=""><dc:title>person: dark skin tone, beard</dc:title></cc:Work></rdf:RDF></metadata></svg>
