<?xml version="1.0" encoding="UTF-8" standalone="no"?>
<svg
   viewBox="0 0 64 64"
   version="1.1"
   id="svg21"
   sodipodi:docname="1f9de-200d-2640.svg"
   xml:space="preserve"
   inkscape:version="1.3.2 (091e20e, 2023-11-25, custom)"
   xmlns:inkscape="http://www.inkscape.org/namespaces/inkscape"
   xmlns:sodipodi="http://sodipodi.sourceforge.net/DTD/sodipodi-0.dtd"
   xmlns="http://www.w3.org/2000/svg"
   xmlns:svg="http://www.w3.org/2000/svg"
   xmlns:rdf="http://www.w3.org/1999/02/22-rdf-syntax-ns#"
   xmlns:cc="http://creativecommons.org/ns#"
   xmlns:dc="http://purl.org/dc/elements/1.1/"><defs
     id="defs21" /><sodipodi:namedview
     id="namedview21"
     pagecolor="#ffffff"
     bordercolor="#000000"
     borderopacity="0.25"
     inkscape:showpageshadow="2"
     inkscape:pageopacity="0.0"
     inkscape:pagecheckerboard="0"
     inkscape:deskcolor="#d1d1d1"
     inkscape:zoom="12.046875"
     inkscape:cx="33.784695"
     inkscape:cy="31.335927"
     inkscape:window-width="1920"
     inkscape:window-height="991"
     inkscape:window-x="-9"
     inkscape:window-y="-9"
     inkscape:window-maximized="1"
     inkscape:current-layer="svg21" /><title
     id="title1">woman genie</title><path
     fill="#ffb300"
     d="M 6.8962386,13.229381 V 32.141018 H 33.960305 V 13.229381 c 0.102514,-17.6443627 -27.0640664,-17.6443627 -27.0640664,0"
     id="path8"
     style="stroke-width:0.999674;fill:#000000" /><path
     fill="#ffdd67"
     d="m 17.416472,25.835927 h 5.8 v 4.4 h -5.8 z"
     id="path1"
     style="fill:#428bc1;fill-opacity:1" /><path
     fill="#231f20"
     d="m 13.184436,42.3869 c 1.943707,7.655039 13.876218,14.793521 21.998575,15.245371 L 35.31738,57.245655 C 33.37839,52.590562 33.69582,50.01567 30.73116,48.355008 28.445477,47.074678 27.921229,45.205588 26.684435,42.3869 H 13.184436"
     id="path2"
     style="fill:#428bc1;fill-opacity:1"
     sodipodi:nodetypes="cccscc" /><g
     fill="#428bc1"
     id="g4"
     transform="translate(4.3164721,-0.66407263)"
     style="fill:#c28fef;fill-opacity:1"><path
       d="m 23.3,28.8 h -4.5 c 0,0.9 -1.3,1.7 -2.9,1.7 -1.6,0 -2.9,-0.7 -2.9,-1.7 H 8.6 l 0.7,14.5 h 13.5 l 0.5,-14.5"
       id="path3"
       sodipodi:nodetypes="ccsccccc"
       style="fill:#c28fef;fill-opacity:1" /><path
       d="m 10.916809,37.124887 12.378693,-8.05096 c 1.965497,-1.255716 3.238071,1.309544 1.372534,2.562451 l -12.378693,8.050959 -1.372534,-2.56245"
       id="path4"
       style="fill:#376b93;fill-opacity:1;stroke:none;stroke-opacity:1" /><path
       d="m 11.401034,37.224206 12.403294,-8.013008 c 1.969334,-1.24969 3.234045,1.319456 1.36468,2.566642 l -12.403295,8.013008 -1.364679,-2.566642"
       id="path4-3"
       style="fill:#428bc1;fill-opacity:1;stroke:none;stroke-opacity:1" /></g><path
     fill="#ffdd67"
     d="m 15.839896,36.331508 c -2.422576,1.463258 -2.231741,2.066236 -1.942441,2.770725 0.289296,0.704492 0.781622,1.212051 3.202675,-0.151218 L 15.839893,36.33151"
     id="path5"
     style="fill:#376b93;fill-opacity:1" /><path
     fill="#428bc1"
     d="M 20.774582,42.355868 12.631429,30.413546 c -1.27455,-1.83726 1.198632,-3.607393 2.402539,-1.699355 l 8.143153,11.942322 -2.402539,1.699355"
     id="path6"
     style="fill:#376b93;fill-opacity:1" /><g
     fill="#ffdd67"
     id="g7"
     style="fill:#428bc1;fill-opacity:1"
     transform="rotate(-58.546236,10.100354,29.18787)"><path
       d="m 4.3,44.4 c -0.5,2.7 0.1,2.9 0.9,3.1 0.8,0.1 1.5,0.1 2,-2.6 L 4.3,44.4"
       id="path7"
       sodipodi:nodetypes="cccc"
       style="fill:#428bc1;fill-opacity:1" /></g><path
     fill="#ffdd67"
     d="m 31.316472,14.035927 c -0.1,0.5 -0.2,1 -0.3,1.3 -0.3,0.5 -0.8,0.8 -0.8,0.8 0,0 0.1,-1 0.1,-2.4 -0.6,-8.1999996 -1,-4.1999996 -10,-4.1999996 -9,0 -9.4,-3.9 -10,4.1999996 -0.1,1.4 0.1,2.4 0.1,2.4 0,0 -0.5999999,-0.3 -0.7999999,-0.8 -0.1,-0.3 -0.2,-0.8 -0.3,-1.3 -0.8,-0.2 -1.9,0 -1.9,2.4 0,1.5 0.6,2.8 2.4,2.9 0.6999999,5.1 7.4999999,8.5 10.4999999,8.5 3.1,0 9.9,-3.4 10.5,-8.5 1.9,-0.1 2.4,-1.4 2.4,-2.9 0,-2.4 -1.1,-2.6 -1.9,-2.4"
     id="path16"
     style="fill:#428bc1;fill-opacity:1" /><g
     fill="#937237"
     id="g17"
     style="fill:#376b93;fill-opacity:1"
     transform="translate(4.3164721,-0.66407263)"><circle
       cx="11.4"
       cy="17.4"
       r="1.9"
       id="circle16"
       style="fill:#376b93;fill-opacity:1" /><circle
       cx="20.6"
       cy="17.4"
       r="1.9"
       id="circle17"
       style="fill:#376b93;fill-opacity:1" /><path
       d="m 19,23.1 c -1.9,1.5 -4.1,1.5 -6,0 -0.2,-0.2 -0.4,0.1 -0.3,0.4 0.6,1.1 1.8,2 3.3,2 1.5,0 2.7,-1 3.3,-2 0.1,-0.3 -0.1,-0.6 -0.3,-0.4"
       id="path17"
       style="fill:#376b93;fill-opacity:1" /></g><path
     fill="#ffdd67"
     d="m 16.489972,36.246204 c -2.590867,1.139037 -2.479287,1.761572 -2.283136,2.497456 0.19615,0.735883 0.618998,1.302629 3.195475,0.262551 l -0.912339,-2.760007"
     id="path5-8"
     style="display:inline;fill:#428bc1;fill-opacity:1" /><path
     fill="#428bc1"
     d="M 21.137876,42.534837 12.994723,30.592515 c -1.27455,-1.83726 1.198632,-3.607393 2.402539,-1.699355 l 8.143153,11.942322 -2.402539,1.699355"
     id="path6-9" /><path
     style="fill:#ffce31;fill-opacity:1;fill-rule:evenodd;stroke:none;stroke-width:4.96234;stroke-opacity:1"
     d="m 50.218113,57.335813 c 0.09823,2.18219 -0.669862,4.035717 -3.876952,4.963962 -2.938714,0.352581 -4.759842,-1.757206 -5.123116,-3.841161 -1.412656,-0.352973 -2.6586,-0.670978 -3.078822,-1.002376 -0.25823,-0.203649 -0.381536,-0.251925 0.07292,-0.64326 0.507803,-0.437269 1.890163,0.199414 3.487922,-0.647637 1.466347,-0.777381 2.073453,-3.026832 3.712276,-2.72247 2.271069,0.421783 4.63997,2.257052 4.805767,3.892942 z"
     id="path22"
     sodipodi:nodetypes="cccssssc" /><path
     id="path23"
     style="fill:#ffce31;fill-opacity:1;fill-rule:evenodd;stroke:none;stroke-width:4.44782;stroke-opacity:1"
     d="m 53.911496,54.575017 c -0.917467,-1.021215 -2.448694,-0.836308 -3.42071,0.413074 -0.972302,1.249065 -2.135008,3.173788 -1.218818,4.196643 0.917116,1.023365 3.566992,0.755715 4.539758,-0.494632 0.973048,-1.25003 1.017722,-3.092809 0.09976,-4.115085 z m -0.909815,1.038674 c 0.496382,0.552979 0.448252,1.580385 -0.107495,2.294622 -0.555831,0.714143 -2.456084,1.178787 -2.952165,0.625422 -0.496383,-0.552978 0.599156,-1.914674 1.154902,-2.628911 0.555831,-0.714145 1.408679,-0.844499 1.90476,-0.291133 z"
     sodipodi:nodetypes="scccssscccss" /><metadata
     id="metadata24"><rdf:RDF><cc:Work
         rdf:about=""><dc:title>woman genie</dc:title></cc:Work></rdf:RDF></metadata></svg>
