<?xml version="1.0" encoding="UTF-8" standalone="no"?>
<svg
   viewBox="0 0 64 64"
   version="1.1"
   id="svg9"
   sodipodi:docname="1f9dd-1f3fe-200d-2640.svg"
   xml:space="preserve"
   inkscape:version="1.3.2 (091e20e, 2023-11-25, custom)"
   xmlns:inkscape="http://www.inkscape.org/namespaces/inkscape"
   xmlns:sodipodi="http://sodipodi.sourceforge.net/DTD/sodipodi-0.dtd"
   xmlns="http://www.w3.org/2000/svg"
   xmlns:svg="http://www.w3.org/2000/svg"
   xmlns:rdf="http://www.w3.org/1999/02/22-rdf-syntax-ns#"
   xmlns:cc="http://creativecommons.org/ns#"
   xmlns:dc="http://purl.org/dc/elements/1.1/"><defs
     id="defs9" /><sodipodi:namedview
     id="namedview9"
     pagecolor="#ffffff"
     bordercolor="#000000"
     borderopacity="0.25"
     inkscape:showpageshadow="2"
     inkscape:pageopacity="0.0"
     inkscape:pagecheckerboard="0"
     inkscape:deskcolor="#d1d1d1"
     inkscape:zoom="12.046875"
     inkscape:cx="32.622568"
     inkscape:cy="32"
     inkscape:window-width="1920"
     inkscape:window-height="991"
     inkscape:window-x="-9"
     inkscape:window-y="-9"
     inkscape:window-maximized="1"
     inkscape:current-layer="svg9" /><title
     id="title1">woman elf: medium-dark skin tone</title><path
     fill="#ffb300"
     d="m 32.124513,3.4941645 c -14.129201,0 -21.857327,8.7661215 -21.857327,20.3773875 V 49.631646 H 53.98184 V 23.871552 c 0,-17.2246596 -11.865406,-16.9170764 -11.865406,-16.9170764 0,0 -0.858681,-3.4603111 -9.991921,-3.4603111 z"
     id="path1"
     style="display:inline;opacity:1;stroke-width:0.774767;fill:#231f20;fill-opacity:1" /><path
     fill="#b386e2"
     d="M42 49.1V42H22v7.1C9.5 49.4 7 51.5 7 62h50c0-10.5-2.5-12.6-15-12.9"
     id="path2"
     style="fill:#b47d56;fill-opacity:1" /><path
     fill="#b386e2"
     d="m 42,49.1 c -3.819918,2.49364 -5.947632,6.76183 -8.544747,10.414916 L 22,49.1 C 9.5,49.4 7,51.5 7,62 H 56.77821 C 57.46763,48.44539 49.24635,49.429288 41.809339,49.133593"
     id="path2-6"
     style="fill:#008000"
     sodipodi:nodetypes="cccccc" /><g
     id="g1"
     transform="matrix(0.78061883,0,0,0.76895802,7.3107287,1.3751849)"
     style="display:inline;opacity:1"><path
       fill="#ffdd67"
       d="M 10.4,40.7 C 10.4,40.7 6,39.6 6,33.2 6,28.1 9.3,27.3 9.3,27.3 21.1,27.2 43,12 43,12 c 0,0 4.6,13.4 11.6,15.2 0,0 3.4,0.6 3.4,5.9 0,6.4 -4.5,7.5 -4.5,7.5 C 53.4,50.3 40.1,62 32,62 23.9,62 10.4,50.3 10.4,40.7 Z"
       id="path2-5"
       style="fill:#b47d56;fill-opacity:1" /><path
       fill="#eba352"
       d="m 32,47 c -4.2,0 -6.3,-3 -4.2,-3 h 8.4 c 2.1,0 0,3 -4.2,3"
       id="path3"
       style="fill:#935e3e;fill-opacity:1" /><path
       fill="#f5f5f5"
       d="M 38.3,38.2 C 36.8,38.2 37,36.4 37,36.4 39.2,24.9 52,31 52,31 c 1,2 -2.3,6.9 -3.2,7.2 -4.2,1 -10.5,0 -10.5,0"
       id="path4" /><path
       fill="#664e27"
       d="m 48.5,33.5 c 0,2.5 -2,4.5 -4.5,4.5 -2.5,0 -4.5,-2 -4.5,-4.5 0,-2.5 2,-4.5 4.5,-4.5 2.5,0 4.5,2 4.5,4.5"
       id="path5" /><circle
       cx="44"
       cy="33.5"
       r="1.5"
       fill="#2b2925"
       id="circle5" /><path
       fill="#3b3226"
       d="M 37,36.3 C 39.2,22.6 50.5,31.7 55,29.8 50.5,34.1 41.5,24.9 37,36.3"
       id="path6-9" /><path
       fill="#f5f5f5"
       d="M 25.7,38.2 C 27.2,38.2 27,36.4 27,36.4 24.8,24.9 12,31 12,31 c -1,2 2.3,6.9 3.2,7.2 4.2,1 10.5,0 10.5,0"
       id="path7-2" /><path
       fill="#664e27"
       d="m 15.5,33.5 c 0,2.5 2,4.5 4.5,4.5 2.5,0 4.5,-2 4.5,-4.5 0,-2.5 -2,-4.5 -4.5,-4.5 -2.5,0 -4.5,2 -4.5,4.5"
       id="path8" /><path
       fill="#3b3226"
       d="M 27,36.3 C 24.8,22.6 13.5,31.7 9,29.8 c 4.5,4.3 13.5,-4.9 18,6.5"
       id="path9" /><path
       fill="#f09985"
       d="M 32,52 22,50.5 c 6,8.5 14,8.5 20,0 z"
       id="path10-8" /><path
       fill="#d47f6c"
       d="M 35.9,50.1 C 33,49 32,50.8 32,50.8 32,50.8 31,49 28.1,50.1 25.8,51 22,50.5 22,50.5 c 4,0.9 4.5,2.5 10,2.5 5.5,0 6,-1.7 10,-2.5 0,0 -3.8,0.5 -6.1,-0.4"
       id="path11" /><circle
       cx="20"
       cy="33.5"
       r="1.5"
       fill="#2b2925"
       id="circle11" /></g><metadata
     id="metadata9"><rdf:RDF><cc:Work
         rdf:about=""><dc:title>woman elf: medium-dark skin tone</dc:title></cc:Work></rdf:RDF></metadata><rect
     style="opacity:1;fill:#231f20;fill-opacity:1;fill-rule:evenodd;stroke-width:3.22"
     id="rect1"
     width="6.8067446"
     height="12.368353"
     x="10.293126"
     y="47.647213" /><rect
     style="opacity:1;fill:#231f20;fill-opacity:1;fill-rule:evenodd;stroke-width:3.22"
     id="rect2"
     width="5.8106356"
     height="14.111544"
     x="48.228275"
     y="46.153049" /></svg>
