<?xml version="1.0" encoding="UTF-8" standalone="no"?>
<svg
   viewBox="0 0 64 64"
   version="1.1"
   id="svg29"
   sodipodi:docname="1f9da-1f3fc-200d-2642.svg"
   xml:space="preserve"
   inkscape:version="1.3.2 (091e20e, 2023-11-25, custom)"
   xmlns:inkscape="http://www.inkscape.org/namespaces/inkscape"
   xmlns:sodipodi="http://sodipodi.sourceforge.net/DTD/sodipodi-0.dtd"
   xmlns="http://www.w3.org/2000/svg"
   xmlns:svg="http://www.w3.org/2000/svg"
   xmlns:rdf="http://www.w3.org/1999/02/22-rdf-syntax-ns#"
   xmlns:cc="http://creativecommons.org/ns#"
   xmlns:dc="http://purl.org/dc/elements/1.1/"><defs
     id="defs29" /><sodipodi:namedview
     id="namedview29"
     pagecolor="#ffffff"
     bordercolor="#000000"
     borderopacity="0.25"
     inkscape:showpageshadow="2"
     inkscape:pageopacity="0.0"
     inkscape:pagecheckerboard="0"
     inkscape:deskcolor="#d1d1d1"
     inkscape:zoom="11.313709"
     inkscape:cx="38.006988"
     inkscape:cy="32.129163"
     inkscape:window-width="1920"
     inkscape:window-height="991"
     inkscape:window-x="-9"
     inkscape:window-y="-9"
     inkscape:window-maximized="1"
     inkscape:current-layer="svg29"
     showguides="true" /><title
     id="title1">man fairy: medium-light skin tone</title><path
     fill="#e84d88"
     d="M33.6 40.8s1.5-4.2 14.2 3.1c12.7 7.3 4 9.2.9 14-3.2 5-16.7 9.2-16.7-11.7v-5.5h1.6z"
     id="path1"
     style="fill:#4fd1d9;fill-opacity:1;opacity:0.66802444" /><g
     fill="#9450e0"
     id="g2"
     style="fill:#4fd1d9;fill-opacity:1;opacity:0.66802444"><path
       d="M56.6 10.3c9.5 0 4.3 10.8 1 18-3.4 7.2 1.6 12.8-1.5 15.5-4.4 3.9-15-6.2-22.2-3.6V23.9s9.8-13.6 22.7-13.6M7.4 10.3c-9.5 0-4.3 10.8-1 18 3.4 7.2-1.6 12.8 1.5 15.5 4.4 3.9 15-6.2 22.2-3.6V23.9S20.3 10.3 7.4 10.3"
       id="path2"
       style="fill:#4fd1d9;fill-opacity:1" /></g><path
     fill="#e84d88"
     d="M30.4 40.8s-1.5-4.2-14.2 3.1c-12.7 7.3-4 9.2-.9 14 3.2 5 16.7 9.2 16.7-11.7v-5.5h-1.6z"
     id="path3"
     style="fill:#4fd1d9;fill-opacity:1;opacity:0.66802444" /><metadata
     id="metadata30"><rdf:RDF><cc:Work
         rdf:about=""><dc:title>man fairy: medium-light skin tone</dc:title></cc:Work></rdf:RDF></metadata><g
     id="g1"
     transform="translate(16.46166,0.65120272)"><path
       fill="#ffdd67"
       d="m 13.1,26.5 h 5.8 v 4.4 h -5.8 z"
       id="path1-8"
       style="fill:#fed0ac;fill-opacity:1" /><path
       fill="#231f20"
       d="m 9.2,43.3 -0.088388,18.602602 5.3000003,0.08839 C 14.411612,50.49099 15.4,47.4 15.4,47.4 h 1.1 c 0,0 0.988388,2.914213 0.988388,14.414213 L 22.346447,62.079379 22.7,43.3 H 9.2"
       id="path2-6"
       style="fill:#fed0ac;fill-opacity:1"
       sodipodi:nodetypes="ccccccccc" /><path
       fill="#231f20"
       d="m 9.20034,43.299797 v 9.347172 l 5.481926,0.0851 c 0.262952,-4.573737 0.718074,-5.332274 0.718074,-5.332274 h 1.1 c 0,0 0.49026,0.817101 0.747097,5.868699 l 5.452903,-0.444751 0,-9.523948 h -13.5"
       id="path2-6-5"
       style="fill:#85e845;fill-opacity:1"
       sodipodi:nodetypes="ccccccccc" /><g
       fill="#428bc1"
       id="g4"
       style="fill:#ffe1bd;fill-opacity:1"><path
         d="m 8.60084,28.799969 0.6992188,14.5 H 22.800059 l 0.5,-14.5 h -4.5 c 0,0.899999 -1.300392,1.699219 -2.900391,1.699219 -1.599998,0 -2.900391,-0.69922 -2.90039,-1.699219 z"
         style="opacity:1;fill:#85e845;fill-opacity:1"
         id="path18" /><path
         d="M 29.7,43.7 22,31.1 c -1.2,-2 1.4,-3.2 2.6,-1.3 l 7.7,12.6 -2.6,1.3"
         id="path4"
         style="fill:#fed0ac;fill-opacity:1" /></g><path
       fill="#ffdd67"
       d="m 29.7,43.7 c 1.5,2.4 2.1,2.2 2.8,1.9 0.7,-0.3 1.2,-0.8 -0.2,-3.2 l -2.6,1.3"
       id="path5"
       style="opacity:1;fill:#fed0ac;fill-opacity:1" /><path
       fill="#428bc1"
       d="M 4.3,44.4 7,30.2 C 7.4,28 10.4,28.5 9.9,30.7 L 7.2,44.9 4.3,44.4"
       id="path6"
       style="fill:#fed0ac;fill-opacity:1" /><g
       fill="#ffdd67"
       id="g7"
       style="fill:#fed0ac;fill-opacity:1"><path
         d="m 4.3000588,44.399579 c -0.4999995,2.699997 0.1003914,2.899609 0.9003906,3.099609 0.7999992,0.1 1.5000005,0.100388 2,-2.599609 z"
         style="fill:#fed0ac;fill-opacity:1"
         id="path12" /></g><path
       fill="#ffb300"
       d="M 3.7,14.9 5,17.2 h 22 l 1,-2.5 C 28,5.8 25.9,2.1 16.2,2 6.2,1.9 3.7,5.8 3.7,14.9"
       id="path15-4"
       style="fill:#dbb471;fill-opacity:1" /><path
       fill="#ffdd67"
       d="m 27,14.7 c -0.1,0.5 -0.2,1 -0.3,1.3 -0.3,0.5 -0.8,0.8 -0.8,0.8 0,0 0.1,-1 0.1,-2.4 C 25.4,6.2 25,10.2 16,10.2 7,10.2 6.6,6.3 6,14.4 5.9,15.8 6.1,16.8 6.1,16.8 6.1,16.8 5.5,16.5 5.3,16 5.2,15.7 5.1,15.2 5,14.7 c -0.8,-0.2 -1.9,0 -1.9,2.4 0,1.5 0.6,2.8 2.4,2.9 0.7,5.1 7.5,8.5 10.5,8.5 3.1,0 9.9,-3.4 10.5,-8.5 1.9,-0.1 2.4,-1.4 2.4,-2.9 0,-2.4 -1.1,-2.6 -1.9,-2.4"
       id="path16-7"
       style="fill:#fed0ac;fill-opacity:1" /><g
       fill="#937237"
       id="g17"
       style="fill:#664e27;fill-opacity:1"><circle
         cx="11.4"
         cy="17.4"
         r="1.9"
         id="circle16"
         style="fill:#664e27;fill-opacity:1" /><circle
         cx="20.6"
         cy="17.4"
         r="1.9"
         id="circle17"
         style="fill:#664e27;fill-opacity:1" /><path
         d="m 19,23.1 c -1.9,1.5 -4.1,1.5 -6,0 -0.2,-0.2 -0.4,0.1 -0.3,0.4 0.6,1.1 1.8,2 3.3,2 1.5,0 2.7,-1 3.3,-2 0.1,-0.3 -0.1,-0.6 -0.3,-0.4"
         id="path17"
         style="fill:#664e27;fill-opacity:1" /></g></g><rect
     style="opacity:1;fill:#ffffff;fill-opacity:1;fill-rule:evenodd;stroke-width:3.21998"
     id="rect29"
     width="1.4673856"
     height="12.296871"
     x="47.895283"
     y="34.747833" /><path
     sodipodi:type="star"
     style="opacity:1;fill:#ffce31;fill-opacity:1;fill-rule:evenodd;stroke-width:3.22"
     id="path29"
     inkscape:flatsided="false"
     sodipodi:sides="5"
     sodipodi:cx="46.927677"
     sodipodi:cy="32.077518"
     sodipodi:r1="3.6862013"
     sodipodi:r2="1.7547904"
     sodipodi:arg1="0.92092588"
     sodipodi:arg2="1.5492444"
     inkscape:rounded="0"
     inkscape:randomized="0"
     d="m 49.158136,35.012333 -2.192643,-1.180432 -2.13974,1.273817 0.445093,-2.4501 -1.872688,-1.641383 2.467725,-0.333814 0.982356,-2.288248 1.080045,2.243792 2.479817,0.227169 -1.800221,1.720553 z"
     inkscape:transform-center-x="0.024547433"
     inkscape:transform-center-y="-0.32857275"
     transform="matrix(0.99998541,0,0,1,1.6726346,0.93877341)" /></svg>
