<?xml version="1.0" encoding="UTF-8" standalone="no"?>
<svg
   viewBox="0 0 64 64"
   version="1.1"
   id="svg29"
   sodipodi:docname="1f9da-1f3fc.svg"
   xml:space="preserve"
   inkscape:version="1.3.2 (091e20e, 2023-11-25, custom)"
   xmlns:inkscape="http://www.inkscape.org/namespaces/inkscape"
   xmlns:sodipodi="http://sodipodi.sourceforge.net/DTD/sodipodi-0.dtd"
   xmlns="http://www.w3.org/2000/svg"
   xmlns:svg="http://www.w3.org/2000/svg"
   xmlns:rdf="http://www.w3.org/1999/02/22-rdf-syntax-ns#"
   xmlns:cc="http://creativecommons.org/ns#"
   xmlns:dc="http://purl.org/dc/elements/1.1/"><defs
     id="defs29" /><sodipodi:namedview
     id="namedview29"
     pagecolor="#ffffff"
     bordercolor="#000000"
     borderopacity="0.25"
     inkscape:showpageshadow="2"
     inkscape:pageopacity="0.0"
     inkscape:pagecheckerboard="0"
     inkscape:deskcolor="#d1d1d1"
     inkscape:zoom="11.313709"
     inkscape:cx="32.350135"
     inkscape:cy="33.278213"
     inkscape:window-width="1920"
     inkscape:window-height="991"
     inkscape:window-x="-9"
     inkscape:window-y="-9"
     inkscape:window-maximized="1"
     inkscape:current-layer="svg29" /><title
     id="title1">fairy: medium-light skin tone</title><path
     fill="#e84d88"
     d="M33.6 40.8s1.5-4.2 14.2 3.1c12.7 7.3 4 9.2.9 14-3.2 5-16.7 9.2-16.7-11.7v-5.5h1.6z"
     id="path1"
     style="fill:#4fd1d9;fill-opacity:1;opacity:0.66802444" /><g
     fill="#9450e0"
     id="g2"
     style="fill:#4fd1d9;fill-opacity:1;opacity:0.66802444"><path
       d="M56.6 10.3c9.5 0 4.3 10.8 1 18-3.4 7.2 1.6 12.8-1.5 15.5-4.4 3.9-15-6.2-22.2-3.6V23.9s9.8-13.6 22.7-13.6M7.4 10.3c-9.5 0-4.3 10.8-1 18 3.4 7.2-1.6 12.8 1.5 15.5 4.4 3.9 15-6.2 22.2-3.6V23.9S20.3 10.3 7.4 10.3"
       id="path2"
       style="fill:#4fd1d9;fill-opacity:1" /></g><path
     fill="#e84d88"
     d="M30.4 40.8s-1.5-4.2-14.2 3.1c-12.7 7.3-4 9.2-.9 14 3.2 5 16.7 9.2 16.7-11.7v-5.5h-1.6z"
     id="path3"
     style="fill:#4fd1d9;fill-opacity:1;opacity:0.66802444" /><g
     id="g29"
     transform="translate(16.48313,0.09436711)"><path
       fill="#ffb300"
       d="M 2.8,15.6 V 35 H 29.2 V 15.6 C 29.3,-2.5 2.8,-2.5 2.8,15.6"
       id="path8"
       style="fill:#dbb471;fill-opacity:1" /><g
       fill="#ffdd67"
       id="g11"
       style="fill:#fed0ac;fill-opacity:1"><path
         d="m 3.6,19.4 c 0,-3.7 2.8,-1.8 2.8,-1.8 4.5,-2.8 4.5,-7.8 4.5,-7.8 0.5,4.5 14.8,7.8 14.8,7.8 0,0 2.8,-1.9 2.8,1.8 0,1.4 -0.5,2.6 -2.3,2.7 C 25.4,27.8 21.6,29 16,29 10.4,29 6.6,27.8 5.9,22.1 4.1,22 3.6,20.8 3.6,19.4 m 2,25 7.4,-12.6 c 1.2,-2 -1.6,-3.1 -2.7,-1.1 l -7.4,12.6 2.7,1.1"
         id="path9"
         style="fill:#fed0ac;fill-opacity:1" /><path
         d="M 5.6,44.4 C 4.2,46.8 3.5,46.7 2.8,46.3 2,46 1.5,45.6 2.9,43.2 l 2.7,1.2 M 29.6,42 18.7,32.2 C 17,30.7 19.2,28.8 21,30.3 l 10.9,9.8 -2.3,1.9"
         id="path10"
         style="fill:#fed0ac;fill-opacity:1" /><path
         d="m 29.6,42 c 2.1,1.9 2.7,1.5 3.3,1 0.6,-0.5 1,-1.1 -1.1,-2.9 L 29.6,42"
         id="path11"
         style="fill:#fed0ac;fill-opacity:1" /></g><g
       fill="#ffdd67"
       id="g13"
       style="fill:#fed0ac;fill-opacity:1"><path
         d="M 31.804021,40.505837 C 29.704021,42.405837 31.2,43.5 30.6,43 30,42.5 29.6,41.9 31.7,40.1 l 1.202163,1.841304 M 13.1,27.4 H 19 v 4.4 H 13.1 Z M 14,62 V 46.9 c 0,-2.4 -3.1,-2.4 -3.1,0 V 62 H 14"
         id="path13"
         sodipodi:nodetypes="csccccccccsscc"
         style="fill:#fed0ac;fill-opacity:1" /></g><path
       fill="#c28fef"
       d="m 15.2,60 c -1,-1.1 -4.5,-1.1 -5.5,0 v 2 h 5.5 v -2"
       id="path14"
       style="fill:#85e845;fill-opacity:1" /><path
       fill="#ffdd67"
       d="M 21.1,62 V 46.9 c 0,-2.4 -3.1,-2.4 -3.1,0 V 62 h 3.1"
       id="path15"
       style="fill:#fed0ac;fill-opacity:1" /><g
       fill="#c28fef"
       id="g16"
       style="fill:#85e845;fill-opacity:1"><path
         d="m 16.9,60 c 1,-1.1 4.5,-1.1 5.5,0 v 2 H 16.9 V 60 M 12.1,29.7 h 1 c 0,0.9 1.3,1.6 3,1.6 1.6,0 3,-0.7 3,-1.6 h 1 c 1.4,1.1 2.9,19 2.9,19 H 9.2 c 0,0 1.5,-18 2.9,-19"
         id="path16"
         style="fill:#85e845;fill-opacity:1" /></g><g
       fill="#937237"
       id="g19"
       style="fill:#664e27;fill-opacity:1"><circle
         cx="11.3"
         cy="18.700001"
         r="1.9"
         id="circle18"
         style="fill:#664e27;fill-opacity:1" /><circle
         cx="20.5"
         cy="18.700001"
         r="1.9"
         id="circle19"
         style="fill:#664e27;fill-opacity:1" /><path
         d="m 18.9,24.4 c -1.9,1.5 -4.1,1.5 -6,0 -0.2,-0.2 -0.4,0.1 -0.3,0.4 0.6,1.1 1.8,2 3.3,2 1.5,0 2.7,-1 3.3,-2 0.1,-0.2 -0.1,-0.5 -0.3,-0.4"
         id="path19"
         style="fill:#664e27;fill-opacity:1" /></g></g><rect
     style="opacity:1;fill:#ffffff;fill-opacity:1;fill-rule:evenodd;stroke-width:3.22"
     id="rect29"
     width="1.4674071"
     height="12.296871"
     x="47.896168"
     y="34.748199" /><path
     sodipodi:type="star"
     style="opacity:1;fill:#ffce31;fill-opacity:1;fill-rule:evenodd;stroke-width:3.22"
     id="path29"
     inkscape:flatsided="false"
     sodipodi:sides="5"
     sodipodi:cx="46.927677"
     sodipodi:cy="32.077518"
     sodipodi:r1="3.6862013"
     sodipodi:r2="1.7547904"
     sodipodi:arg1="0.92092588"
     sodipodi:arg2="1.5492444"
     inkscape:rounded="0"
     inkscape:randomized="0"
     d="m 49.158136,35.012333 -2.192643,-1.180432 -2.13974,1.273817 0.445093,-2.4501 -1.872688,-1.641383 2.467725,-0.333814 0.982356,-2.288248 1.080045,2.243792 2.479817,0.227169 -1.800221,1.720553 z"
     inkscape:transform-center-x="0.024547865"
     inkscape:transform-center-y="-0.32857275"
     transform="translate(1.6728441,0.93914052)" /><metadata
     id="metadata30"><rdf:RDF><cc:Work
         rdf:about=""><dc:title>fairy: medium-light skin tone</dc:title></cc:Work></rdf:RDF></metadata></svg>
