<svg xmlns="http://www.w3.org/2000/svg" viewBox="0 0 64 64">
	<desc>Zombie</desc>
	<path fill="#42ade2" d="M53 60.1c0 1.1-6.1 1.9-13.7 1.9-7.5 0-13.7-.9-13.7-1.9 0-1.1 6.1-1.9 13.7-1.9S53 59 53 60.1"/>
	<circle cx="32" cy="32" r="30" fill="#c7e755"/>
	<g id="eyes">
		<circle cx="19.5" cy="24.8" r="10" fill="#fff"/>
		<circle cx="44.5" cy="24.8" r="10" fill="#fff"/>
	</g>
	<g fill="#F46767">
		<!--r=4.5-->
		<circle cx="19.5" cy="24.8" r="3.5"/>
		<circle cx="44.5" cy="24.8" r="3.5"/>
	</g>
	<path fill="#42ade2" d="M44.2 61.5H39c1.3-2.8 1.3-6.1 0-8.9h5.2c1.3 2.8 1.3 6.1 0 8.9"/>
	<g id="mouth" transform="translate(0,4)">
		<path fill="#425e21" d="M45.7 44c-1.5-3.6-5.1-6-13.7-6s-12.2 2.4-13.7 6c-.8 1.9.3 4 .3 4 .4 1.2 2.2 2 13.4 2 11.1 0 12.9-.8 13.4-2 0 0 1.1-2.1.3-4"/>
		<path fill="#fff" d="M42 43c.1-.3 0-.6-.2-.8 0 0-2.2-2.2-9.8-2.2-7.5 0-9.8 2.2-9.8 2.2-.2.1-.2.5-.2.8l.2.6c.1.3.3.5.6.5h18.4c.2 0 .5-.2.6-.5l.2-.6"/>
	</g>
	<!--path fill="#664e27" d="M44.5 52.1c-.2 1.7-1.8 4-4.1 3.8-1.9-.2-3.8-2.2-6.2-2.5-2.5-.3-4.8 1.1-6.7.8-2.6-.3-3.2-2.9-3-4.6.4-3 5.2-4.9 10.7-4.2 5.5.6 9.7 3.6 9.3 6.7"/-->
</svg>
