<?xml version="1.0" encoding="UTF-8" standalone="no"?>
<svg
   viewBox="0 0 36 36"
   version="1.1"
   id="svg9"
   sodipodi:docname="1f9e6.svg"
   inkscape:version="1.3.2 (091e20e, 2023-11-25, custom)"
   xmlns:inkscape="http://www.inkscape.org/namespaces/inkscape"
   xmlns:sodipodi="http://sodipodi.sourceforge.net/DTD/sodipodi-0.dtd"
   xmlns="http://www.w3.org/2000/svg"
   xmlns:svg="http://www.w3.org/2000/svg"
   xmlns:rdf="http://www.w3.org/1999/02/22-rdf-syntax-ns#"
   xmlns:cc="http://creativecommons.org/ns#"
   xmlns:dc="http://purl.org/dc/elements/1.1/">
  <title
     id="title9">socks</title>
  <defs
     id="defs9" />
  <sodipodi:namedview
     id="namedview9"
     pagecolor="#ffffff"
     bordercolor="#000000"
     borderopacity="0.25"
     inkscape:showpageshadow="2"
     inkscape:pageopacity="0.0"
     inkscape:pagecheckerboard="0"
     inkscape:deskcolor="#d1d1d1"
     inkscape:zoom="21.416667"
     inkscape:cx="17.976654"
     inkscape:cy="18"
     inkscape:window-width="1920"
     inkscape:window-height="991"
     inkscape:window-x="-9"
     inkscape:window-y="-9"
     inkscape:window-maximized="1"
     inkscape:current-layer="svg9" />
  <path
     fill="#55ACEE"
     d="M27 19.276c-.983 0-1.893.294-2.667.784v4.549h-2.3c.175 2.603 2.319 4.667 4.966 4.667 2.761 0 5-2.239 5-5v-5H27z"
     id="path1" />
  <path
     fill="#1C6399"
     d="M22.995 22.999l.005-16 9 .003-.005 16z"
     id="path2" />
  <path
     fill="#1C6399"
     d="M24.202 21.451l6.354 6.354-6.878 6.878-6.354-6.354z"
     id="path3" />
  <path
     fill="#55ACEE"
     d="M30 4h-5c-1.1 0-2 .9-2 2v2h9V6c0-1.1-.9-2-2-2zM15 15.276c-.983 0-1.893.294-2.667.784v4.549h-2.3c.175 2.603 2.319 4.667 4.966 4.667 2.761 0 5-2.239 5-5v-5H15z"
     id="path4" />
  <path
     fill="#1C6399"
     d="M10.994 18.999l.006-16 9 .003-.006 16z"
     id="path5" />
  <path
     fill="#55ACEE"
     d="M23.676 34.682c-1.757 1.757-4.607 1.757-6.364 0s-1.757-4.607 0-6.364c0 0 1.149.133 3.69 2.674s2.674 3.69 2.674 3.69zM18 0h-5c-1.1 0-2 .9-2 2v2h9V2c0-1.1-.9-2-2-2z"
     id="path6" />
  <path
     fill="#1C6399"
     d="M12.202 17.451l6.354 6.354-6.878 6.878-6.354-6.354z"
     id="path7" />
  <path
     fill="#55ACEE"
     d="M11.676 30.682c-1.757 1.757-4.607 1.757-6.364 0s-1.757-4.607 0-6.364c0 0 1.149.133 3.69 2.674s2.674 3.69 2.674 3.69z"
     id="path8" />
  <path
     fill="#FFCC4D"
     d="M22.994 10.067h9v2h-9zm0 4h9v2h-9zm-12-8h9v2h-9zm0 4h9v2h-9z"
     id="path9" />
  <metadata
     id="metadata9">
    <rdf:RDF>
      <cc:Work
         rdf:about="">
        <dc:title>socks</dc:title>
      </cc:Work>
    </rdf:RDF>
  </metadata>
</svg>
