<?xml version="1.0" encoding="UTF-8" standalone="no"?>
<svg
   viewBox="0 0 64 64"
   version="1.1"
   id="svg2"
   sodipodi:docname="1f9e5.svg"
   inkscape:version="1.3.2 (091e20e, 2023-11-25, custom)"
   xmlns:inkscape="http://www.inkscape.org/namespaces/inkscape"
   xmlns:sodipodi="http://sodipodi.sourceforge.net/DTD/sodipodi-0.dtd"
   xmlns="http://www.w3.org/2000/svg"
   xmlns:svg="http://www.w3.org/2000/svg"
   xmlns:rdf="http://www.w3.org/1999/02/22-rdf-syntax-ns#"
   xmlns:cc="http://creativecommons.org/ns#"
   xmlns:dc="http://purl.org/dc/elements/1.1/">
  <defs
     id="defs2" />
  <sodipodi:namedview
     id="namedview2"
     pagecolor="#ffffff"
     bordercolor="#000000"
     borderopacity="0.25"
     inkscape:showpageshadow="2"
     inkscape:pageopacity="0.0"
     inkscape:pagecheckerboard="0"
     inkscape:deskcolor="#d1d1d1"
     inkscape:zoom="12.046875"
     inkscape:cx="31.958495"
     inkscape:cy="32"
     inkscape:window-width="1920"
     inkscape:window-height="991"
     inkscape:window-x="-9"
     inkscape:window-y="-9"
     inkscape:window-maximized="1"
     inkscape:current-layer="svg2" />
  <title
     id="title1">coat</title>
  <path
     fill="#42ade2"
     d="M 54.499374,5.0600375 C 53.039948,4.219519 44.92189,4.4063009 41.911824,3.1922182 c 0,0 -3.988806,-1.9919414 -9.552867,-1.9919414 -5.564062,0 -9.054814,1.9919414 -9.054814,1.9919414 C 20.202863,4.4063009 12.17602,4.219519 10.716594,5.0600375 9.2571682,5.9005563 2.5242543,46.271269 2.5242543,46.271269 5.6255345,53.462376 13.9105,47.418377 13.9105,47.418377 L 16.919155,21.21668 15.550943,57.358996 c 7.023487,4.202595 12.131479,4.482768 17.057041,4.482768 4.925562,0 9.94234,-0.280173 16.965826,-4.389377 l -1.368211,-36.142316 4.176097,26.110844 c 0,-0.09339 7.478146,5.680588 10.488213,-1.60391"
     id="path1"
     style="fill:#22648c;fill-opacity:1;stroke-width:0.922961"
     sodipodi:nodetypes="ccscsccccscccc" />
  <path
     id="path2"
     style="fill:#184662;fill-rule:evenodd;stroke-width:0.131"
     d="m 39.844357,7.3878083 c 0,3.9884847 -5.989505,13.5001897 -7.429313,13.4474707 -0.960379,-0.03516 -7.59533,-9.292968 -7.59533,-13.2814526 0,-3.9884841 3.566563,-5.4785987 7.761348,-5.4785991 4.194785,-2e-7 7.263295,1.3240965 7.263295,5.312581 z"
     sodipodi:nodetypes="sssss" />
  <path
     style="fill:#184662;fill-opacity:1;fill-rule:evenodd;stroke-width:0.131"
     d="m 19.756161,5.5616083 -1.992218,8.8819717 6.557717,1.8262 -0.664072,5.146562 6.391699,1.909209 0.581063,1.8262 -9.214008,-2.988327 0.996109,-5.146563 -6.391699,-1.660181 2.573282,-10.0440989 z"
     id="path3" />
  <path
     style="fill:#184662;fill-opacity:1;fill-rule:evenodd;stroke-width:0.131"
     d="m 42.998703,5.229572 2.324254,9.04799 -7.470817,2.490272 1.245136,5.976654 -15.190661,5.727626 -0.332037,27.97406 2.324255,0.415045 -0.415046,-27.143969 14.609598,-5.644617 -1.079118,-6.723735 7.802854,-2.7393 -2.573282,-9.6290533 z"
     id="path4" />
  <ellipse
     style="fill:#184662;fill-opacity:1;fill-rule:evenodd;stroke-width:0.131"
     id="path5"
     cx="30.962387"
     cy="32.747082"
     rx="2.158236"
     ry="2.2827497" />
  <ellipse
     style="fill:#184662;fill-opacity:1;fill-rule:evenodd;stroke-width:0.131"
     id="path6"
     cx="30.837873"
     cy="41.712063"
     rx="2.2827497"
     ry="2.1997406" />
  <ellipse
     style="fill:#184662;fill-opacity:1;fill-rule:evenodd;stroke-width:0.131"
     id="path7"
     cx="31.128405"
     cy="52.75227"
     rx="2.4072633"
     ry="2.6147859" />
  <metadata
     id="metadata7">
    <rdf:RDF>
      <cc:Work
         rdf:about="">
        <dc:title>coat</dc:title>
      </cc:Work>
    </rdf:RDF>
  </metadata>
</svg>
