<?xml version="1.0" encoding="UTF-8" standalone="no"?>
<svg
   viewBox="0 0 64 64"
   version="1.1"
   id="svg4"
   sodipodi:docname="1f9e2.svg"
   xml:space="preserve"
   inkscape:version="1.3.2 (091e20e, 2023-11-25, custom)"
   xmlns:inkscape="http://www.inkscape.org/namespaces/inkscape"
   xmlns:sodipodi="http://sodipodi.sourceforge.net/DTD/sodipodi-0.dtd"
   xmlns="http://www.w3.org/2000/svg"
   xmlns:svg="http://www.w3.org/2000/svg"
   xmlns:rdf="http://www.w3.org/1999/02/22-rdf-syntax-ns#"
   xmlns:cc="http://creativecommons.org/ns#"
   xmlns:dc="http://purl.org/dc/elements/1.1/"><title
     id="title5">billed cap</title><defs
     id="defs4" /><sodipodi:namedview
     id="namedview4"
     pagecolor="#ffffff"
     bordercolor="#000000"
     borderopacity="0.25"
     inkscape:showpageshadow="2"
     inkscape:pageopacity="0.0"
     inkscape:pagecheckerboard="0"
     inkscape:deskcolor="#d1d1d1"
     inkscape:zoom="7.5719349"
     inkscape:cx="45.298858"
     inkscape:cy="26.083161"
     inkscape:window-width="1920"
     inkscape:window-height="991"
     inkscape:window-x="-9"
     inkscape:window-y="-9"
     inkscape:window-maximized="1"
     inkscape:current-layer="svg4" /><ellipse
     transform="matrix(0.04382663,-0.99903915,0.99904964,0.04358683,0,0)"
     fill="#2b7bb9"
     cx="-7.6518903"
     cy="38.170612"
     rx="1.6662806"
     ry="2.7699993"
     id="ellipse1"
     style="stroke-width:1.76755" /><path
     fill="#292f33"
     d="m 52.98723,49.413533 c 0,0 6.235628,2.444689 9.17733,0.155331 0.221247,-2.065189 -5.860393,-3.592016 -5.860393,-3.592016 z M 13.50967,45.546159 c 0,0 -9.3029975,13.813816 -11.9597326,11.441497 0,0 -0.75224004,-2.46587 2.1770714,-7.445269 2.9310814,-4.981165 9.7826612,-3.996228 9.7826612,-3.996228 z"
     id="path1"
     style="stroke-width:1.76755" /><path
     fill="#1c6399"
     d="m 35.172415,8.9570191 c 0,0 -15.110291,0.759001 -24.31063,28.8561559 13.264205,0 29.709059,0.979641 29.709059,0.979641 0,0 13.804048,7.028701 15.733323,7.888314 1.927504,0.859612 5.860393,2.889499 5.860393,2.889499 0,0 1.927504,-9.76287 0.539842,-17.103998 C 61.31674,25.125504 54.684638,9.2694451 35.172415,8.9570191 Z"
     id="path2"
     style="stroke-width:1.76755" /><path
     fill="#1c6399"
     d="M 6.1235572,44.871883 C 2.87919,50.241373 0.43131218,55.146638 1.5499374,56.987656 c 0,0 -0.3593052,-1.343255 1.371732,-2.882438 1.5788192,-1.403269 4.9647846,-2.68651 11.4358196,-2.68651 9.79505,0 23.020317,7.939502 28.530254,9.817588 4.203695,1.433276 5.088683,0.331842 7.412662,-2.206398 2.477968,-2.707692 6.577234,-12.186377 6.577234,-12.186377 0,0 -13.221726,-7.249342 -21.011394,-10.107069 -7.789667,-2.857726 -9.483535,-2.518824 -11.950882,-2.47293 -5.409049,0.100615 -9.405656,1.184394 -13.053578,3.549653 0,0 -2.6443453,3.593781 -4.7382278,7.058708 z"
     id="path3"
     style="stroke-width:1.76755" /><path
     fill="#50a5e6"
     d="M 54.327103,20.463826 C 53.247416,14.386524 47.227726,11.504085 47.227726,11.504085 43.87362,9.9454855 39.868163,8.9481936 35.078606,8.8722934 c 0,0 -21.579555,-0.1853374 -24.215051,28.9391156 0,0 4.49751,-1.968107 14.018215,-1.399738 12.91906,0.773122 25.512444,7.266992 28.294847,8.49375 1.469082,-4.905265 2.419559,-17.29463 1.150486,-24.441595 z"
     id="path4"
     style="stroke-width:1.76755" /><ellipse
     style="fill:#ffffff;fill-rule:evenodd;stroke:none;stroke-width:0.242113;stroke-dasharray:none;stroke-opacity:1"
     id="path5"
     cx="28.410261"
     cy="23.546787"
     rx="8.181838"
     ry="7.9327312" /><g
     id="g4"
     transform="matrix(0.2355029,0.02372919,-0.02121335,0.22626315,21.457587,15.574277)"
     style="stroke:none;stroke-opacity:1"><circle
       cx="32"
       cy="32"
       r="30"
       fill="#ffdd67"
       id="circle1"
       style="stroke:none;stroke-width:0.998379;stroke-dasharray:none;stroke-opacity:1" /><g
       fill="#664e27"
       id="g3"
       style="stroke:none;stroke-opacity:1"><circle
         cx="20.5"
         cy="24.5"
         r="5"
         id="circle2"
         style="stroke:none;stroke-opacity:1" /><circle
         cx="43.5"
         cy="24.5"
         r="5"
         id="circle3"
         style="stroke:none;stroke-opacity:1" /><path
         d="m 49,38 c 0,-0.8 -0.5,-1.8 -1.8,-2.1 -3.5,-0.7 -8.6,-1.3 -15.2,-1.3 -6.6,0 -11.7,0.7 -15.2,1.3 -1.3,0.3 -1.8,1.3 -1.8,2.1 0,7.3 5.6,14.6 17,14.6 11.4,0 17,-7.3 17,-14.6"
         id="path3-8"
         style="stroke:none;stroke-opacity:1" /></g><path
       fill="#ffffff"
       d="m 44.7,38.3 c -2.2,-0.4 -6.8,-1 -12.7,-1 -5.9,0 -10.5,0.6 -12.7,1 -1.3,0.2 -1.4,0.7 -1.3,1.5 0.1,0.4 0.1,1 0.3,1.6 0.1,0.6 0.3,0.9 1.3,0.8 1.9,-0.2 23,-0.2 24.9,0 1,0.1 1.1,-0.2 1.3,-0.8 0.1,-0.6 0.2,-1.1 0.3,-1.6 0,-0.8 -0.1,-1.3 -1.4,-1.5"
       id="path4-6"
       style="stroke:none;stroke-opacity:1" /></g><metadata
     id="metadata5"><rdf:RDF><cc:Work
         rdf:about=""><dc:title>billed cap</dc:title></cc:Work></rdf:RDF></metadata></svg>
