<svg xmlns="http://www.w3.org/2000/svg" viewBox="0 0 64 64">
    <title>White Sun With Rays</title>
  <path fill="#42ade2" d="M 0,-2e-6 H 64 V 64.000002 H 0 Z"/>
  <g transform="translate(0.54237288,1.0847458)">
    <path d="m 34.76926,36.40523 4.057627,-4.17356 C 37.377735,31.94184 36.044514,31.362179 34.827226,30.550653 L 34.76926,36.40523 M 48.101463,4.2920092 44.043836,8.4655685 c 1.449153,0.2898305 2.782373,0.8694916 3.999661,1.6810165 l 0.05797,-5.8545758 M 25.378755,27.014721 31.233332,26.956751 C 30.421806,25.739463 29.842145,24.406243 29.552315,22.95709 l -4.17356,4.057627 M 57.491976,13.682514 51.6374,13.740484 c 0.753559,1.217288 1.33322,2.550508 1.681017,3.999661 l 4.173559,-4.057627 m -32.113221,0 4.17356,4.057627 c 0.28983,-1.449153 0.869491,-2.782373 1.681017,-3.999661 l -5.854577,-0.05797 M 57.491976,27.014717 53.318417,22.95709 c -0.289831,1.449153 -0.869492,2.782373 -1.681017,3.999661 l 5.854576,0.05797 M 34.76926,4.2920092 34.827226,10.146585 C 36.044514,9.3930262 37.377735,8.8133651 38.826887,8.4655685 L 34.76926,4.2920092 M 48.101463,36.40523 48.043497,30.550653 c -1.217288,0.811526 -2.550508,1.391187 -3.999661,1.681017 l 4.057627,4.17356" fill="#fffdea"/>
    <g transform="matrix(0.57966102,0,0,0.57966102,22.886209,1.7994668)" fill="#ffce31">
      <path d="m 14.8,44 -4,9.3 9.3,-4 C 18,47.8 16.2,46 14.8,44 m 34.4,-24 4,-9.3 -9.2,4 c 2,1.5 3.8,3.3 5.2,5.3 M 11.4,28.3 2,32 11.4,35.7 C 11.1,34.5 11,33.3 11,32 c 0,-1.3 0.1,-2.5 0.4,-3.7 M 52.6,35.7 62,32 52.6,28.3 c 0.2,1.2 0.4,2.5 0.4,3.7 0,1.3 -0.1,2.5 -0.4,3.7 M 20,14.8 l -9.3,-4 4,9.3 C 16.2,18 18,16.2 20,14.8 m 24,34.4 9.3,4 -4,-9.3 C 47.8,46 46,47.8 44,49.2 M 35.7,11.4 32,2 28.3,11.4 C 29.5,11.2 30.8,11 32,11 c 1.2,0 2.5,0.1 3.7,0.4 M 28.3,52.6 32,62 35.7,52.6 C 34.5,52.9 33.3,53 32,53 30.7,53 29.5,52.9 28.3,52.6" fill="#d0d0d0"/>
      <circle r="19" cy="32" cx="32" style="#ffffff"/>
    </g>
  </g>
  <g transform="matrix(-1,0,0,1,136.91657,-10.305085)">
    <g transform="matrix(1,0,0,0.55932203,72.916575,38.508475)" fill="#83bf4f">
      <path d="m 0,32 c 0.1,0 0,0 0,0 m 50.2,2.5 C 47,33.1 43.6,32 40,32 36.4,32 33.2,33.7 30.4,34.4 14,38.7 0,32 0,32 V 64 H 64 V 36.3 c -4.4,0.5 -9.2,-0.1 -13.8,-1.8"/>
    </g>
  </g>
</svg>