<svg xmlns="http://www.w3.org/2000/svg" viewBox="0 0 64 64">
  <circle cx="32" cy="32" r="30" fill="#4fd1d9" />
  <path fill="#ffffff" d="M 31.984375 10.507812 C 29.725111 10.507812 27.531481 11.121483 25.447266 12.318359 A 0.83739232 0.83739232 0 0 0 25.443359 12.320312 C 23.35114 13.5338 21.723187 15.304222 20.603516 17.5625 C 20.603516 17.5625 20.603516 17.564453 20.603516 17.564453 C 20.603516 17.564453 20.601562 17.566406 20.601562 17.566406 C 19.489466 19.792142 18.931641 22.224643 18.931641 24.822266 C 18.931641 27.236238 19.493973 29.578762 20.601562 31.814453 A 0.83739232 0.83739232 0 0 0 20.603516 31.818359 C 21.72349 34.058307 23.360139 35.816807 25.46875 37.029297 C 25.46875 37.029297 25.470703 37.029297 25.470703 37.029297 C 26.364937 37.552183 27.30281 37.883293 28.248047 38.175781 L 28.248047 41.5625 L 22.699219 41.5625 A 0.83739232 0.83739232 0 0 0 21.861328 42.400391 L 21.861328 45.330078 A 0.83739232 0.83739232 0 0 0 22.699219 46.167969 L 28.248047 46.167969 L 28.248047 47.673828 L 28.248047 53.492188 L 35.783203 53.492188 L 35.783203 47.673828 L 35.783203 46.167969 L 41.300781 46.167969 A 0.83739232 0.83739232 0 0 0 42.138672 45.330078 L 42.138672 42.400391 A 0.83739232 0.83739232 0 0 0 41.300781 41.5625 L 35.783203 41.5625 L 35.783203 38.175781 C 36.717186 37.883294 37.64573 37.55389 38.552734 37.033203 A 0.83739232 0.83739232 0 0 0 38.556641 37.03125 C 40.648295 35.81809 42.276151 34.059025 43.396484 31.818359 A 0.83739232 0.83739232 0 0 0 43.398438 31.814453 C 44.506027 29.578762 45.068359 27.236238 45.068359 24.822266 C 45.068359 22.224643 44.510534 19.792142 43.398438 17.566406 L 43.396484 17.564453 C 42.276054 15.303984 40.638015 13.531549 38.525391 12.318359 C 36.458976 11.120671 34.260364 10.507812 31.984375 10.507812 z M 31.984375 15.113281 C 32.877312 15.113281 33.730107 15.447066 34.630859 16.226562 A 0.83739232 0.83739232 0 0 0 34.638672 16.232422 C 35.53061 16.989727 36.24418 18.11075 36.755859 19.664062 A 0.83739232 0.83739232 0 0 0 36.755859 19.667969 C 37.270898 21.213084 37.533203 22.926984 37.533203 24.822266 C 37.533203 26.512414 37.274145 28.138217 36.755859 29.712891 C 36.24473 31.24628 35.532943 32.359854 34.638672 33.119141 A 0.83739232 0.83739232 0 0 0 34.630859 33.125 C 33.730107 33.904497 32.877312 34.238281 31.984375 34.238281 C 31.11756 34.238281 30.263191 33.904929 29.341797 33.125 L 29.339844 33.123047 C 28.463829 32.364208 27.755645 31.247404 27.244141 29.712891 C 26.725855 28.138217 26.466797 26.512414 26.466797 24.822266 C 26.466797 22.926984 26.729102 21.213084 27.244141 19.667969 A 0.83739232 0.83739232 0 0 0 27.244141 19.664062 C 27.75618 18.109656 28.466141 16.985364 29.339844 16.228516 C 29.339844 16.228516 29.341797 16.226562 29.341797 16.226562 C 30.263191 15.446634 31.11756 15.113281 31.984375 15.113281 z " />
</svg>
