<svg xmlns="http://www.w3.org/2000/svg" viewBox="0 0 64 64">
  <circle cx="32" cy="32" r="30" fill="#4fd1d9" id="circle2" />
  <path fill="#ffffff" d="m 51.798828,10.615234 a 0.73026526,0.73026526 0 0 0 -0.349609,0.07617 c -5.397063,2.688996 -12.18641,4.054688 -20.386719,4.054688 a 0.73026526,0.73026526 0 0 0 -0.523438,0.220703 l -1.02539,1.054687 a 0.73026526,0.73026526 0 0 0 0.324219,1.212891 c 4.191477,1.187869 7.789527,1.766616 11.003906,1.933594 l -8.71875,8.71875 C 31.743725,27.599978 31.371202,27.301856 30.962891,27.0625 a 0.73026526,0.73026526 0 0 0 -0.0059,-0.002 c -2.071026,-1.189302 -4.257205,-1.796875 -6.515625,-1.796875 -2.240088,0 -4.416204,0.608092 -6.486328,1.796875 a 0.73026526,0.73026526 0 0 0 -0.0039,0.002 c -2.075508,1.203795 -3.687418,2.955815 -4.798828,5.199219 -1.101096,2.203024 -1.658203,4.519355 -1.658203,6.916015 0,2.583961 0.553437,5.008292 1.658203,7.238282 a 0.73026526,0.73026526 0 0 0 0.002,0.002 c 1.111934,2.22387 2.722942,3.965088 4.796875,5.167969 a 0.73026526,0.73026526 0 0 0 0.0039,0.002 c 2.070124,1.188784 4.24624,1.796875 6.486328,1.796875 2.25699,0 4.434743,-0.607786 6.486328,-1.796875 2.093651,-1.202294 3.717337,-2.94444 4.830078,-5.169922 a 0.73026526,0.73026526 0 0 0 0.002,-0.002 c 1.104765,-2.22999 1.658203,-4.654321 1.658203,-7.238282 0,-2.397493 -0.557382,-4.723282 -1.658203,-6.945312 a 0.73026526,0.73026526 0 0 0 -0.002,-0.002 c -0.194549,-0.389098 -0.424814,-0.74515 -0.648437,-1.107422 l 8.84375,-8.84375 c 0.166978,3.21438 0.745725,6.812429 1.933594,11.003906 a 0.73026526,0.73026526 0 0 0 1.21289,0.324219 l 1.054688,-1.025391 A 0.73026526,0.73026526 0 0 0 48.375,32.058594 c 0,-8.200309 1.365691,-14.989657 4.054688,-20.386719 a 0.73026526,0.73026526 0 0 0 -0.63086,-1.056641 z M 24.441406,29.654297 c 0.921127,0 1.799047,0.348108 2.714844,1.140625 a 0.73026526,0.73026526 0 0 0 0.0059,0.0039 c 0.910606,0.773156 1.636325,1.913979 2.152344,3.480469 a 0.73026526,0.73026526 0 0 0 0,0.002 c 0.521861,1.56558 0.783203,3.194033 0.783203,4.896484 0,1.904473 -0.263601,3.640693 -0.783203,5.21875 -0.515536,1.546613 -1.239704,2.678243 -2.152344,3.453125 a 0.73026526,0.73026526 0 0 0 -0.0059,0.0039 c -0.915797,0.792516 -1.793717,1.140625 -2.714844,1.140625 -0.89622,0 -1.778674,-0.347503 -2.714844,-1.140625 -0.894305,-0.773918 -1.612589,-1.906943 -2.128906,-3.455078 v -0.002 c -0.519601,-1.578057 -0.783203,-3.314278 -0.783203,-5.21875 0,-1.702451 0.261343,-3.330904 0.783203,-4.896484 a 0.73026526,0.73026526 0 0 0 0,-0.002 c 0.516829,-1.568944 1.236267,-2.711899 2.128906,-3.484375 0.936169,-0.793124 1.818624,-1.140625 2.714844,-1.140625 z" transform="translate(-0.91315313,0.91282103)" />
</svg>
