<svg xmlns="http://www.w3.org/2000/svg" viewBox="0 0 64 64">
    <path fill="#89664c" d="M5.3 10.4c-.9.9-.9 2.3 0 3.1l43 43c.9.9 2.3.9 3.1 0l3.1-3.1c.9-.9.9-2.3 0-3.1l-43-43c-.9-.9-2.3-.9-3.1 0l-3.1 3.1"/>
    <path fill="#3e4347" d="M27.4 11.4c.9.9.9 2.3 0 3.2L12.6 29.4c-.9.9-2.3.9-3.2 0l-6.7-6.7c-.9-.9-.9-2.3 0-3.2L17.5 4.7c.9-.9 2.3-.9 3.2 0l6.7 6.7M41.4 31L36 25.8l5.4-5.2 5.4 5.2z"/>
    <path fill="#94989b" d="M57.2 19.7l-9.5-9.2c-.3-.3-.9-.3-1.3 0l-3.5 3.4-3.5 3.4c-.3.3-.3.9 0 1.2l9.5 9.2c.3.3.9.3 1.3 0l7.1-6.9c.3-.3.3-.8-.1-1.1M41.3 4.3c-.3-.3-.9-.3-1.3 0l-7 6.9c-.3.3-.3.9 0 1.2l2 1.9 8.4-8.1c-.1 0-2.1-1.9-2.1-1.9"/>
    <path fill="#3e4347" d="M42.9 13.9l3.5-3.4s-2 1.1-2.3-1.8c-.1-1.2-.4-1.9-.8-2.4l-8.3 8c.4.3 1.2.6 2.4.7 3.1.3 1.9 2.3 1.9 2.3l3.6-3.4M58 41.1c9.7-9.4-1.1-19.8-1.1-19.8l-6.3 6.1s7.9 5.9 5.7 13.3c-.3.9-.7 1.6-.5 1.9.3.3 1.5-.8 2.2-1.5"/>
    <path fill="#f2b200" d="M38.7 28.4L35.3 25s-2.8 1.7-5.9 4.7c-3.4 3.3-5.3 7.7-9.8 12-6.8 6.6-10.1 8.1-12.8 10-1 .7-.9.9 0 1.8l2.9 2.8 29-27.9"/>
    <path fill="#ffce31" d="M38.7 28.4l3.5 3.4s-1.8 2.7-4.9 5.7c-3.4 3.3-7.9 5.2-12.4 9.5-6.8 6.6-8.4 9.6-10.5 12.3-.8 1-.9.9-1.8 0l-2.9-2.8 29-28.1"/>
</svg>
