<?xml version="1.0" encoding="UTF-8" standalone="no"?>
<svg
   xmlns:dc="http://purl.org/dc/elements/1.1/"
   xmlns:cc="http://creativecommons.org/ns#"
   xmlns:rdf="http://www.w3.org/1999/02/22-rdf-syntax-ns#"
   xmlns:svg="http://www.w3.org/2000/svg"
   xmlns="http://www.w3.org/2000/svg"
   xmlns:sodipodi="http://sodipodi.sourceforge.net/DTD/sodipodi-0.dtd"
   xmlns:inkscape="http://www.inkscape.org/namespaces/inkscape"
   viewBox="0 0 64 64"
   version="1.1"
   id="svg20"
   sodipodi:docname="2710.svg"
   inkscape:version="0.92.3 (2405546, 2018-03-11)">
  <metadata
     id="metadata26">
    <rdf:RDF>
      <cc:Work
         rdf:about="">
        <dc:format>image/svg+xml</dc:format>
        <dc:type
           rdf:resource="http://purl.org/dc/dcmitype/StillImage" />
      </cc:Work>
    </rdf:RDF>
  </metadata>
  <defs
     id="defs24" />
  <sodipodi:namedview
     pagecolor="#ffffff"
     bordercolor="#666666"
     borderopacity="1"
     objecttolerance="10"
     gridtolerance="10"
     guidetolerance="10"
     inkscape:pageopacity="0"
     inkscape:pageshadow="2"
     inkscape:window-width="1301"
     inkscape:window-height="744"
     id="namedview22"
     showgrid="false"
     inkscape:zoom="3.6875"
     inkscape:cx="0.40677966"
     inkscape:cy="32"
     inkscape:window-x="65"
     inkscape:window-y="24"
     inkscape:window-maximized="1"
     inkscape:current-layer="svg20" />
  <g
     transform="matrix(0,1,1,0,-0.00671053,-0.00671053)"
     id="g18">
    <path
       d="M 7.934,41.132 39.828,9.246 54.746,24.168 22.851,56.054 Z"
       id="path2"
       inkscape:connector-curvature="0"
       style="fill:#ffce31" />
    <path
       d="M 61.3,4.6 59.4,2.7 C 55.8,-0.9 50,-0.9 46.3,2.7 l -6.5,6.5 15,15 6.5,-6.5 c 3.6,-3.6 3.6,-9.5 0,-13.1"
       id="path4"
       inkscape:connector-curvature="0"
       style="fill:#ed4c5c" />
    <path
       d="m 35.782,13.31 4.1,-4.102 14.92,14.92 -4.1,4.101 z"
       id="path6"
       inkscape:connector-curvature="0"
       style="fill:#93a2aa" />
    <path
       d="m 37.338,14.865 4.1,-4.101 11.739,11.738 -4.102,4.1 z"
       id="path8"
       inkscape:connector-curvature="0"
       style="fill:#c7d3d8" />
    <path
       d="m 7.9,41.1 -6.5,17 4.5,4.5 17,-6.5 z"
       id="path10"
       inkscape:connector-curvature="0"
       style="fill:#fed0ac" />
    <path
       d="m 0.3,61.1 c -0.9,2.4 0.3,3.5 2.7,2.6 l 8.2,-3.1 -7.7,-7.7 -3.2,8.2"
       id="path12"
       inkscape:connector-curvature="0"
       style="fill:#333333" />
    <path
       d="m 7.89,41.175 27.86,-27.86 4.95,4.95 -27.86,27.86 z"
       id="path14"
       inkscape:connector-curvature="0"
       style="fill:#ffdf85" />
    <path
       d="m 17.904,51.142 27.86,-27.86 4.95,4.95 -27.86,27.86 z"
       id="path16"
       inkscape:connector-curvature="0"
       style="fill:#ff8736" />
  </g>
</svg>
