<svg xmlns="http://www.w3.org/2000/svg" viewBox="0 0 64 64">
    <path fill="#75d6ff" d="M60.5 30.5h-6.9l4.2-4.2c.6-.6.6-1.5 0-2.1s-1.5-.6-2.1 0l-6.3 6.3h-4.7l2.5-2.5c.6-.6.6-1.5 0-2.1s-1.5-.6-2.1 0l-4.6 4.6h-4.8l9-9h8.9c.8 0 1.5-.7 1.5-1.5s-.7-1.5-1.5-1.5h-5.9l5.5-5.5c.6-.6.6-1.5 0-2.1s-1.5-.6-2.1 0l-5.5 5.5v-5.9C45.5 9.6 44.9 9 44 9s-1.5.7-1.5 1.5v8.9l-9 9v-4.8l4.6-4.6c.6-.6.6-1.5 0-2.1s-1.5-.6-2.1 0l-2.5 2.5v-4.7l6.3-6.3c.6-.6.6-1.5 0-2.1s-1.5-.6-2.1 0l-4.2 4.2v-7c0-.8-.7-1.5-1.5-1.5s-1.5.7-1.5 1.5v6.9l-4.2-4.2c-.6-.6-1.5-.6-2.1 0s-.6 1.5 0 2.1l6.3 6.3v4.7L28 16.8c-.6-.6-1.5-.6-2.1 0s-.6 1.5 0 2.1l4.6 4.6v4.8l-9-9v-8.9c0-.8-.7-1.4-1.5-1.4s-1.5.7-1.5 1.5v5.9L13 10.9c-.6-.6-1.5-.6-2.1 0s-.6 1.5 0 2.1l5.5 5.5h-5.9c-.9 0-1.5.6-1.5 1.5s.7 1.5 1.5 1.5h8.9l9 9h-4.8L19 25.9c-.6-.6-1.5-.6-2.1 0s-.6 1.5 0 2.1l2.5 2.5h-4.7l-6.3-6.3c-.6-.6-1.5-.6-2.1 0s-.6 1.5 0 2.1l4.2 4.2h-7c-.8 0-1.5.7-1.5 1.5s.7 1.5 1.5 1.5h6.9l-4.2 4.2c-.6.6-.6 1.5 0 2.1.3.3.7.4 1.1.4s.8-.1 1.1-.4l6.3-6.3h4.7L16.8 36c-.6.6-.6 1.5 0 2.1.3.3.7.4 1.1.4s.8-.1 1.1-.4l4.6-4.6h4.8l-9 9h-8.9c-.9 0-1.5.7-1.5 1.5s.7 1.5 1.5 1.5h5.9L10.9 51c-.6.6-.6 1.5 0 2.1.3.3.7.4 1.1.4s.8-.1 1.1-.4l5.5-5.5v5.9c0 .8.7 1.5 1.5 1.5s1.5-.7 1.5-1.5v-8.9l9-9v4.8L25.9 45c-.6.6-.6 1.5 0 2.1.3.3.7.4 1.1.4s.8-.1 1.1-.4l2.5-2.5v4.7l-6.3 6.3c-.6.6-.6 1.5 0 2.1.3.3.7.4 1.1.4s.8-.1 1.1-.4l4.2-4.2v6.9c0 .8.7 1.5 1.5 1.5s1.5-.7 1.5-1.5v-6.9l4.2 4.2c.3.3.7.4 1.1.4s.8-.1 1.1-.4c.6-.6.6-1.5 0-2.1l-6.3-6.3v-4.7l2.5 2.5c.3.3.7.4 1.1.4s.8-.1 1.1-.4c.6-.6.6-1.5 0-2.1l-4.6-4.6v-4.8l9 9v8.9c0 .8.7 1.5 1.5 1.5s1.5-.7 1.5-1.5v-5.9l5.5 5.5c.3.3.7.4 1.1.4s.8-.1 1.1-.4c.6-.6.6-1.5 0-2.1l-5.5-5.5H54c.8 0 1.5-.7 1.5-1.5s-.7-1.5-1.5-1.5h-8.9l-9-9h4.8l4.6 4.6c.3.3.7.4 1.1.4s.8-.1 1.1-.4c.6-.6.6-1.5 0-2.1l-2.5-2.5h4.7l6.3 6.3c.3.3.7.4 1.1.4s.8-.1 1.1-.4c.6-.6.6-1.5 0-2.1l-4.2-4.2h6.9c.8 0 1.5-.7 1.5-1.5s-1.3-1.5-2.1-1.5"/>
</svg>
