<?xml version="1.0" encoding="UTF-8" standalone="no"?>
<svg
   xmlns:dc="http://purl.org/dc/elements/1.1/"
   xmlns:cc="http://creativecommons.org/ns#"
   xmlns:rdf="http://www.w3.org/1999/02/22-rdf-syntax-ns#"
   xmlns:svg="http://www.w3.org/2000/svg"
   xmlns="http://www.w3.org/2000/svg"
   xmlns:sodipodi="http://sodipodi.sourceforge.net/DTD/sodipodi-0.dtd"
   xmlns:inkscape="http://www.inkscape.org/namespaces/inkscape"
   viewBox="0 0 64 64"
   version="1.1"
   id="svg12"
   sodipodi:docname="fe83c.svg"
   inkscape:version="0.92.3 (2405546, 2018-03-11)">
  <metadata
     id="metadata18">
    <rdf:RDF>
      <cc:Work
         rdf:about="">
        <dc:format>image/svg+xml</dc:format>
        <dc:type
           rdf:resource="http://purl.org/dc/dcmitype/StillImage" />
        <dc:title></dc:title>
      </cc:Work>
    </rdf:RDF>
  </metadata>
  <defs
     id="defs16" />
  <sodipodi:namedview
     pagecolor="#ffffff"
     bordercolor="#666666"
     borderopacity="1"
     objecttolerance="10"
     gridtolerance="10"
     guidetolerance="10"
     inkscape:pageopacity="0"
     inkscape:pageshadow="2"
     inkscape:window-width="1301"
     inkscape:window-height="744"
     id="namedview14"
     showgrid="false"
     inkscape:snap-page="true"
     inkscape:snap-bbox="true"
     inkscape:snap-bbox-midpoints="true"
     inkscape:zoom="3.6875"
     inkscape:cx="25.094605"
     inkscape:cy="44.369456"
     inkscape:window-x="65"
     inkscape:window-y="24"
     inkscape:window-maximized="1"
     inkscape:current-layer="svg12" />
  <g
     id="g923"
     transform="translate(-4.6983049,-14.390678)">
    <g
       style="fill:#3e4347"
       transform="translate(-7.5932203,14.644068)"
       id="g10">
      <circle
         id="circle6"
         r="5"
         cy="32"
         cx="32" />
    </g>
    <g
       transform="matrix(1,0,0,-1,-10.01017,78.340678)"
       id="g891">
      <g
         style="fill:#42ade2"
         id="g870">
        <path
           inkscape:connector-curvature="0"
           d="M 51.4,7.4 48.8,10 c 7,4.8 11.5,12.9 11.5,22 0,9.1 -4.6,17.1 -11.5,21.9 l 2.6,2.6 C 59.1,51 64,42.1 64,32 64,21.9 59,12.9 51.4,7.4 Z"
           id="path864" />
        <path
           inkscape:connector-curvature="0"
           d="m 52.5,32 c 0,6.9 -3.7,13 -9.3,16.3 L 45.9,51 C 52.1,47 56.2,40 56.2,32 56.2,24 52.1,17 45.8,13 l -2.7,2.7 c 5.6,3.3 9.4,9.4 9.4,16.3"
           id="path866" />
        <path
           inkscape:connector-curvature="0"
           d="m 44.8,32 c 0,4.8 -3.1,9 -7.4,10.5 l 2.8,2.8 c 4.9,-2.4 8.3,-7.5 8.3,-13.3 0,-5.9 -3.4,-10.9 -8.3,-13.4 l -2.8,2.8 c 4.3,1.6 7.4,5.7 7.4,10.6"
           id="path868" />
      </g>
    </g>
  </g>
</svg>
