<?xml version="1.0" encoding="UTF-8" standalone="no"?>
<svg xmlns="http://www.w3.org/2000/svg" viewBox="0 0 64 64">
  <circle cx="32" cy="32" r="30" fill="#4fd1d9" />
  <g aria-label="†" fill="#ffffff">
    <path d="M 33.171875,35.906252 V 46.062501 H 30.860677 V 35.906252 q 0,-4.231771 -0.683594,-5.989584 l 0.651042,-2.799479 q -1.269531,0 -3.483073,0.260417 -2.18099,0.260417 -2.766927,0.260417 v -3.515625 q 0.585937,0 2.766927,0.260417 2.213542,0.260416 3.515625,0.260416 0,-1.269531 -0.292969,-3.710937 -0.260417,-2.408854 -0.260417,-2.994792 h 3.417969 q 0,0.585938 -0.260417,2.96224 -0.260416,2.376302 -0.292968,3.743489 1.302083,0 3.483072,-0.260416 2.18099,-0.260417 2.766927,-0.260417 v 3.515625 q -0.585937,0 -2.734374,-0.260417 -2.18099,-0.260417 -3.483073,-0.260417 l 0.618489,2.799479 q -0.651041,1.757813 -0.651041,5.989584 z" />
  </g>
</svg>
