<?xml version="1.0" encoding="UTF-8" standalone="no"?>
<svg
   xmlns:dc="http://purl.org/dc/elements/1.1/"
   xmlns:cc="http://creativecommons.org/ns#"
   xmlns:rdf="http://www.w3.org/1999/02/22-rdf-syntax-ns#"
   xmlns:svg="http://www.w3.org/2000/svg"
   xmlns="http://www.w3.org/2000/svg"
   xmlns:sodipodi="http://sodipodi.sourceforge.net/DTD/sodipodi-0.dtd"
   xmlns:inkscape="http://www.inkscape.org/namespaces/inkscape"
   viewBox="0 0 64 64"
   version="1.1"
   id="svg14"
   sodipodi:docname="fee32.svg"
   inkscape:version="0.92.3 (2405546, 2018-03-11)">
  <metadata
     id="metadata20">
    <rdf:RDF>
      <cc:Work
         rdf:about="">
        <dc:format>image/svg+xml</dc:format>
        <dc:type
           rdf:resource="http://purl.org/dc/dcmitype/StillImage" />
        <dc:title></dc:title>
      </cc:Work>
    </rdf:RDF>
  </metadata>
  <defs
     id="defs18" />
  <sodipodi:namedview
     pagecolor="#ffffff"
     bordercolor="#666666"
     borderopacity="1"
     objecttolerance="10"
     gridtolerance="10"
     guidetolerance="10"
     inkscape:pageopacity="0"
     inkscape:pageshadow="2"
     inkscape:window-width="1301"
     inkscape:window-height="744"
     id="namedview16"
     showgrid="false"
     inkscape:snap-bbox="false"
     inkscape:snap-bbox-midpoints="true"
     inkscape:snap-nodes="false"
     inkscape:zoom="1.4142136"
     inkscape:cx="24.887848"
     inkscape:cy="-22.048448"
     inkscape:window-x="65"
     inkscape:window-y="24"
     inkscape:window-maximized="1"
     inkscape:current-layer="svg14" />
  <g
     id="g848"
     transform="matrix(0.73016075,0,0,0.73016075,8.6400911,8.6373007)">
    <path
       id="path2"
       d="m 62.5,22.3 c 1.7,1.7 2,4.2 0.8,5.7 L 33.7,62.4 c -1.8,2.1 -4.9,2.1 -7,0.1 L 1.5,37.3 c -2,-2 -2,-5.2 0.1,-7 L 35.9,0.8 c 1.5,-1.3 4,-0.9 5.7,0.8 l 20.9,20.7"
       inkscape:connector-curvature="0"
       style="fill:#afcddb" />
    <path
       id="path4"
       d="M 50.8,10.7 12.6,48.4 3.7,39.5 43.5,3.4 Z"
       inkscape:connector-curvature="0"
       style="fill:#333333" />
    <path
       id="path6"
       d="M 49.4,18.3 22.6,45.8 29.8,53 55.7,24.6 Z"
       inkscape:connector-curvature="0"
       style="fill:#ffffff" />
    <g
       id="g12"
       style="fill:#4f5b60">
      <path
         id="path8"
         d="m 34.1,43.3 c -1.5,-1.4 -0.6,-4 -0.1,-5.4 0.9,-2.2 1.8,2 1.8,2.7 0.2,2.1 -0.1,4.3 -0.6,6.4 -0.3,1.2 -0.7,2.3 -1.3,3.4 -0.3,0.7 -0.8,1.3 -1.4,1.7 -1.5,0.9 -2.4,0 -2.7,-2.5 0.2,-0.8 0.5,-1.5 1.1,-2.1 1.9,-2.4 4.9,-3.5 7.1,-5.4 0.2,-0.2 -0.1,-0.5 -0.3,-0.3 -2.6,2.2 -8,4 -8.3,8.3 -0.2,2.8 2.7,3.5 4.2,1.9 2,-2.1 2.5,-5.8 2.7,-8.6 0.1,-1.6 0.5,-6.2 -1.9,-6.7 -0.1,0 -0.2,0 -0.2,0.1 -1,1.7 -2.3,5.2 -0.3,7 0.1,0.1 0.4,-0.3 0.2,-0.5"
         inkscape:connector-curvature="0" />
      <path
         id="path10"
         d="m 37.4,41.7 c 2.1,1.2 2.7,-3.5 2.4,-4.8 0,-0.2 -0.3,-0.2 -0.4,-0.1 -1.1,0.9 -1.3,3.3 -0.4,4.7 0.1,0.2 0.3,0.2 0.4,0 0.7,-1.3 1.1,-2.6 1.6,-4 0.2,-0.6 0.7,-0.4 1.1,-0.8 l 2.4,-2.4 c 1,-1 1.3,-2.4 2.2,-3.4 1.2,-1.3 2.3,-1.9 2.9,-3.7 0.1,-0.4 0.1,-1.4 -0.6,-1.4 -1.4,-0.1 -2.6,2.8 -0.7,2.5 2.2,-0.3 4.2,-2.9 5.6,-4.3 0.2,-0.2 -0.1,-0.5 -0.3,-0.3 -0.7,0.7 -1.5,1.4 -2.2,2 -0.6,0.5 -1.2,1 -1.9,1.5 -0.3,0.2 -2.9,1.4 -1.3,-0.5 0.3,0.2 0.6,0.4 0.9,0.7 -0.1,0.2 -0.2,0.5 -0.3,0.7 -0.2,0.4 -0.5,0.8 -0.8,1.2 -0.5,0.7 -1.4,1.1 -2,1.8 -0.8,0.9 -1.1,2.1 -1.9,3 -0.4,0.4 -2.3,2.9 -3,2.6 -0.1,0 -0.2,0 -0.2,0.1 -0.2,0.7 -0.4,1.3 -0.7,2 -0.1,0.2 -1,2.1 -1,2.2 -0.4,-1 -0.3,-2.2 0.1,-3.1 0.3,0.5 0.3,1.1 0.1,1.6 -0.2,1.2 -0.8,1.9 -1.8,2.1 -0.3,-0.5 -0.5,-0.1 -0.2,0.1"
         inkscape:connector-curvature="0" />
    </g>
  </g>
  <path
     style="fill:#ff5a79;stroke-width:1.06601131"
     d="M 31.21875,2.0390625 C 13.512672,1.9380832 -1.1960476,19.954927 2.5019531,37.302734 5.0440075,54.862086 25.093553,66.608818 41.673828,60.410156 58.802043,55.189779 67.440372,33.218592 58.400391,17.726562 53.203392,7.9250404 42.314516,1.6168563 31.21875,2.0390625 Z m 0.794922,4.5175781 C 47.473549,6.0241006 60.465328,21.865862 57,36.917969 56.234853,41.161153 54.148368,45.024894 51.625,48.472656 39.601683,36.449749 27.578004,24.427204 15.554688,12.404297 20.289676,8.8125209 26.008229,6.4755481 32.013672,6.5566406 Z m -17.875,10.7128904 c 11.447934,11.44855 22.895729,22.89724 34.34375,34.345703 C 37.379094,61.123606 18.741695,58.619307 10.904297,46.179688 4.5051164,37.0676 5.4235407,24.075891 12.414062,15.544922 c 0.57487,0.57487 1.14974,1.149739 1.72461,1.724609 z"
     id="path827"
     inkscape:connector-curvature="0" />
</svg>
