<svg xmlns="http://www.w3.org/2000/svg" viewBox="0 0 64 64">
  <path fill="#ff5a79" d="m 62.047496,51.95 c 0,5.5 -4.5,10 -10,10 h -40 c -5.4999997,0 -9.9999997,-4.5 -9.9999997,-10 v -40 c 0,-5.5 4.5,-10 9.9999997,-10 h 40 c 5.5,0 10,4.5 10,10 z" />
  <g transform="translate(0,-0.76703108)" fill="#ffffff">
    <path d="m 14.924111,20.361631 c 0.45,1.2 0.65,2.7 0.65,4.4 0,1.8 -0.2,3.2 -0.65,4.3 -0.25,0.6 -0.6,1.2 -1.1,1.7 0.75,0.5 1.3,1.4 1.7,2.6 0.4,1.2 0.549999,2.6 0.549999,4.3 0,1.7 -0.199999,3.3 -0.649999,4.6 -0.25,0.9 -0.6,1.7 -1.05,2.3 -0.45,0.7 -1,1.2 -1.65,1.5 -0.65,0.3 -1.3,0.4 -2.05,0.4 H 4.1741115 v -29 h 6.9999995 c 1.8,-0.2 3.05,0.9 3.75,2.9 m -7.8499995,1.9 v 6.4 h 3.5499995 c 0.65,0 1.15,-0.2 1.55,-0.7 0.4,-0.5 0.6,-1.3 0.6,-2.5 0,-1.4 -0.25,-2.2 -0.8,-2.7 -0.45,-0.3 -1,-0.5 -1.7,-0.5 H 7.0741115 m 0,11.2 v 7.7 h 3.4999995 c 0.65,0 1.1,-0.2 1.45,-0.5 0.65,-0.6 0.95,-1.8 0.95,-3.6 0,-1.5 -0.3,-2.5 -0.9,-3.1 -0.35,-0.3 -0.85,-0.5 -1.45,-0.5 H 7.0741115" />
    <g transform="matrix(1,0,0,0.86206897,0,6.4534245)">
      <path d="m 26.346145,18.25 c 0.55,0.5 1,1.1 1.35,2 0.3,0.7 0.55,1.5 0.75,2.4 0.2,0.9 0.25,1.9 0.25,3.1 0,1.4 -0.15,2.7 -0.5,4.1 -0.35,1.4 -0.9,2.3 -1.7,2.8 0.65,0.5 1.15,1.3 1.4,2.3 0.3,1 0.4,2.5 0.4,4.5 v 1.9 c 0,1.3 0.05,2.2 0.1,2.7 0.1,0.7 0.25,1.3 0.55,1.7 v 0.7 h -3.35 c -0.1,-0.6 -0.15,-1.2 -0.2,-1.6 -0.1,-0.8 -0.1,-1.6 -0.15,-2.5 v -2.7 c 0,-1.8 -0.15,-3.1 -0.5,-3.7 -0.3,-0.6 -0.9,-0.9 -1.75,-0.9 h -2.95 v 11.4 h -2.95 v -29 h 6.95 c 1,0.1 1.8,0.4 2.3,0.8 m -6.25,4.3 v 7.8 h 3.25 c 0.65,0 1.15,-0.2 1.45,-0.5 0.55,-0.6 0.85,-1.6 0.85,-3.3 0,-1.8 -0.3,-2.9 -0.85,-3.5 -0.3,-0.3 -0.8,-0.5 -1.4,-0.5 h -3.3" />
      <path d="m 40.758009,22.55 h -7.7 v 6.2 h 7.05 v 5 h -7.05 v 7.5 h 8.05 v 5.2 h -11 v -29 h 10.65 z" />
      <path d="m 45.29784,17.45 1.9,16.6 0.4,4.6 0.4,-4.5 1.65,-16.7 h 3.2 l 1.7,16.6 0.45,4.6 0.45,-4.4 1.95,-16.8 h 3.1 l -4.1,29 h -2.9 l -1.75,-17 -0.5,-5.6 -0.5,5.6 -1.75,17 h -2.8 l -4.1,-29 h 3.2" />
    </g>
  </g>
</svg>
