<svg xmlns="http://www.w3.org/2000/svg" viewBox="0 0 64 64">
  <path fill="#ff5a79" d="m 62.047496,51.95 c 0,5.5 -4.5,10 -10,10 h -40 c -5.4999997,0 -9.9999997,-4.5 -9.9999997,-10 v -40 c 0,-5.5 4.5,-10 9.9999997,-10 h 40 c 5.5,0 10,4.5 10,10 z" />
  <g transform="translate(0,-1.0847458)" fill="#ffffff">
    <path d="m 6.5816908,35.15 v 0.7 c 0,2.2 0.139791,3.8 0.3261783,4.7 0.1863878,0.9 0.6057593,1.4 1.2581149,1.4 0.6057588,0 1.0251303,-0.5 1.2581145,-1.5 0.1397905,-0.6 0.1863873,-1.6 0.1863873,-3 v -20.4 h 2.8424072 v 20.2 c 0,2.5 -0.186388,4.4 -0.605759,5.9 -0.652356,2.4 -1.8638735,3.7 -3.5413595,3.7 -1.6774869,0 -2.8890061,-1 -3.4481687,-3 -0.6057588,-2 -0.8853398,-4.7 -0.8853398,-8.1 v -0.7 h 2.6094248 z" />
    <g transform="matrix(1,0,0,0.86206897,0,4.5085918)" >
      <path d="m 33.316397,17.45 h 2.9356 l -4.613086,29 h -2.656019 l -4.56649,-29 h 3.028794 l 2.935601,22 2.9356,-22" />
      <path d="m 48.022012,17.45 h 2.982198 l 5.358635,20.2 v -20.2 h 2.609423 v 29 h -2.842407 l -5.451829,-20.6 v 20.6 h -2.609423 l -0.0466,-29" />
      <path d="m 39.287626,17.45 h 3.215181 l 4.799474,29 H 44.22689 l -0.88534,-6 h -4.985861 l -0.931936,6 h -2.935601 l 4.799474,-29 m -0.186387,18 h 3.448165 l -1.677486,-11.4 -1.770679,11.4" />
      <path d="m 18.327063,17.45 h 3.215181 l 4.799475,29 h -3.075391 l -0.885341,-6 h -4.985861 l -0.931937,6 h -2.9356 l 4.799474,-29 m -0.186388,18 h 3.448166 l -1.677486,-11.4 -1.77068,11.4" />
    </g>
  </g>
</svg>
