<svg xmlns="http://www.w3.org/2000/svg" viewBox="0 0 64 64">
  <path fill="#ff5a79" d="m 62.047496,51.95 c 0,5.5 -4.5,10 -10,10 h -40 c -5.4999997,0 -9.9999997,-4.5 -9.9999997,-10 v -40 c 0,-5.5 4.5,-10 9.9999997,-10 h 40 c 5.5,0 10,4.5 10,10 z" />
  <g transform="matrix(0.69742491,0,0,1,3.7670244,0)">
    <path d="m 8.7098398,17.45 3.8000002,16.6 0.8,4.6 0.8,-4.5 3.3,-16.7 h 6.4 l 3.4,16.6 0.9,4.6 0.9,-4.4 3.9,-16.8 h 6.2 l -8.2,29 h -5.8 l -3.5,-17 -1,-5.6 -1,5.6 -3.5,17 h -5.6 l -8.2000004,-29 h 6.4000002" fill="#ffffff" />
    <path d="m 49.40538,46.45 h -6 v -29 h 6 v 29" fill="#ffffff" />
    <path d="m 54.739947,17.45 h 6.4 l 11.5,20.2 v -20.2 h 5.6 v 29 h -6.1 l -11.7,-20.6 v 20.6 h -5.6 l -0.1,-29" fill="#ffffff" />
  </g>
</svg>
