<?xml version="1.0" encoding="UTF-8" standalone="no"?>
<svg
   xmlns:dc="http://purl.org/dc/elements/1.1/"
   xmlns:cc="http://creativecommons.org/ns#"
   xmlns:rdf="http://www.w3.org/1999/02/22-rdf-syntax-ns#"
   xmlns:svg="http://www.w3.org/2000/svg"
   xmlns="http://www.w3.org/2000/svg"
   xmlns:sodipodi="http://sodipodi.sourceforge.net/DTD/sodipodi-0.dtd"
   xmlns:inkscape="http://www.inkscape.org/namespaces/inkscape"
   viewBox="0 0 64 64"
   version="1.1"
   id="svg6"
   sodipodi:docname="fee49.svg"
   inkscape:version="0.92.3 (2405546, 2018-03-11)">
  <metadata
     id="metadata12">
    <rdf:RDF>
      <cc:Work
         rdf:about="">
        <dc:format>image/svg+xml</dc:format>
        <dc:type
           rdf:resource="http://purl.org/dc/dcmitype/StillImage" />
        <dc:title></dc:title>
      </cc:Work>
    </rdf:RDF>
  </metadata>
  <defs
     id="defs10" />
  <sodipodi:namedview
     pagecolor="#ffffff"
     bordercolor="#666666"
     borderopacity="1"
     objecttolerance="10"
     gridtolerance="10"
     guidetolerance="10"
     inkscape:pageopacity="0"
     inkscape:pageshadow="2"
     inkscape:window-width="1301"
     inkscape:window-height="744"
     id="namedview8"
     showgrid="false"
     inkscape:snap-nodes="false"
     inkscape:snap-bbox="true"
     inkscape:snap-bbox-midpoints="true"
     inkscape:zoom="0.921875"
     inkscape:cx="-126.63845"
     inkscape:cy="76.36708"
     inkscape:window-x="65"
     inkscape:window-y="24"
     inkscape:window-maximized="1"
     inkscape:current-layer="svg6"
     showguides="true"
     inkscape:guide-bbox="true" />
  <path
     style="fill:#ff5a79"
     inkscape:connector-curvature="0"
     d="m 62.047496,51.95 c 0,5.5 -4.5,10 -10,10 h -40 c -5.4999997,0 -9.9999997,-4.5 -9.9999997,-10 v -40 c 0,-5.5 4.5,-10 9.9999997,-10 h 40 c 5.5,0 10,4.5 10,10 z"
     id="path822" />
  <g
     id="g876"
     transform="matrix(0.69742491,0,0,1,3.7670244,0)">
    <path
       id="path821"
       d="m 8.7098398,17.45 3.8000002,16.6 0.8,4.6 0.8,-4.5 3.3,-16.7 h 6.4 l 3.4,16.6 0.9,4.6 0.9,-4.4 3.9,-16.8 h 6.2 l -8.2,29 h -5.8 l -3.5,-17 -1,-5.6 -1,5.6 -3.5,17 h -5.6 l -8.2000004,-29 h 6.4000002"
       inkscape:connector-curvature="0"
       style="fill:#ffffff" />
    <path
       id="path839"
       d="m 49.40538,46.45 h -6 v -29 h 6 v 29"
       inkscape:connector-curvature="0"
       style="fill:#ffffff" />
    <path
       id="path857"
       d="m 54.739947,17.45 h 6.4 l 11.5,20.2 v -20.2 h 5.6 v 29 h -6.1 l -11.7,-20.6 v 20.6 h -5.6 l -0.1,-29"
       inkscape:connector-curvature="0"
       style="fill:#ffffff" />
  </g>
</svg>
