<?xml version="1.0" encoding="UTF-8" standalone="no"?>
<svg
   xmlns:dc="http://purl.org/dc/elements/1.1/"
   xmlns:cc="http://creativecommons.org/ns#"
   xmlns:rdf="http://www.w3.org/1999/02/22-rdf-syntax-ns#"
   xmlns:svg="http://www.w3.org/2000/svg"
   xmlns="http://www.w3.org/2000/svg"
   xmlns:sodipodi="http://sodipodi.sourceforge.net/DTD/sodipodi-0.dtd"
   xmlns:inkscape="http://www.inkscape.org/namespaces/inkscape"
   viewBox="0 0 64 64"
   version="1.1"
   id="svg6"
   sodipodi:docname="feea0.svg"
   inkscape:version="0.92.3 (2405546, 2018-03-11)">
  <metadata
     id="metadata12">
    <rdf:RDF>
      <cc:Work
         rdf:about="">
        <dc:format>image/svg+xml</dc:format>
        <dc:type
           rdf:resource="http://purl.org/dc/dcmitype/StillImage" />
        <dc:title></dc:title>
      </cc:Work>
    </rdf:RDF>
  </metadata>
  <defs
     id="defs10" />
  <sodipodi:namedview
     pagecolor="#ffffff"
     bordercolor="#666666"
     borderopacity="1"
     objecttolerance="10"
     gridtolerance="10"
     guidetolerance="10"
     inkscape:pageopacity="0"
     inkscape:pageshadow="2"
     inkscape:window-width="1301"
     inkscape:window-height="744"
     id="namedview8"
     showgrid="false"
     inkscape:snap-nodes="false"
     inkscape:snap-bbox="true"
     inkscape:snap-bbox-midpoints="true"
     inkscape:zoom="3.6875"
     inkscape:cx="12.516297"
     inkscape:cy="32"
     inkscape:window-x="65"
     inkscape:window-y="24"
     inkscape:window-maximized="1"
     inkscape:current-layer="svg6" />
  <path
     style="fill:#ff5a79"
     inkscape:connector-curvature="0"
     d="m 62.047496,51.95 c 0,5.5 -4.5,10 -10,10 h -40 c -5.4999997,0 -9.9999997,-4.5 -9.9999997,-10 v -40 c 0,-5.5 4.5,-10 9.9999997,-10 h 40 c 5.5,0 10,4.5 10,10 z"
     id="path822" />
  <path
     style="fill:#ffffff"
     inkscape:connector-curvature="0"
     d="m 39.447496,26.45 c -0.5,-2 -1.6,-3.4 -3.4,-4.2 -1,-0.4 -2.1,-0.6 -3.3,-0.6 -2.3,0 -4.3,0.9 -5.8,2.6 -1.5,1.8 -2.3,4.4 -2.3,7.9 0,3.6 0.8,6.1 2.4,7.6 1.6,1.5 3.5,2.2 5.6,2.2 2,0 3.7,-0.6 5,-1.8 1.3,-1.2 2.1,-2.7 2.4,-4.6 h -6.7 v -4.8 h 12.1 v 15.6 h -4 l -0.6,-3.6 c -1.2,1.4 -2.2,2.3 -3.2,2.9 -1.6,1 -3.6,1.5 -5.9,1.5 -3.8,0 -7,-1.3 -9.4,-4 -2.6,-2.7 -3.8,-6.3 -3.8,-11 0,-4.7 1.3,-8.5 3.9,-11.3 2.6,-2.8 6,-4.2 10.3,-4.2 3.7,0 6.7,0.9 8.9,2.8 2.2,1.9 3.5,4.2 3.8,7 h -6"
     id="path971" />
</svg>
