<svg xmlns="http://www.w3.org/2000/svg" viewBox="0 0 64 64">
    <path fill="#ffe62e" d="M61.7 28h-1.4v-6c-1-2.9-2.5-5.6-4.3-8h-6V8c-5-3.8-11.2-6-18-6C15.4 2 2 15.4 2 32c0 1.4.1 2.7.3 4h1.4v6c1 2.9 2.5 5.6 4.3 8h6v6c5 3.8 11.2 6 18 6 6.8 0 13-2.2 18-6v-6h6c1.8-2.4 3.3-5.1 4.3-8v-6h1.4c.2-1.3.3-2.6.3-4s-.1-2.7-.3-4"/>
    <path fill="#f42f4c" d="
		M  3.7,42
		h 56.6    c  0.7,-1.9  1.2,-3.9  1.4,-6
		H  2.3    c  0.2, 2.1  0.7, 4.1  1.4, 6
		M  8  ,50 c  1.7, 2.3  3.7, 4.3  6  , 6
		h 36      c  2.3,-1.7  4.3,-3.7  6  ,-6
		H 8 z
		M 32  ,14
		h 8,16    c -1.7,-2.3 -3.7,-4.3 -6  ,-6
		h -40,-16    c 1.7,-2.3 3.7,-4.3 6  ,-6
		H 32 v 6
		M 32  ,28
		h 29.7    c -0.3,-2.1 -0.8,-4.1 -1.4,-6
		H 32 v 6"/>
</svg>
