<svg xmlns="http://www.w3.org/2000/svg" viewBox="0 0 64 64" enable-background="new 0 0 64 64">
	<g fill="#65b1ef" id="tear_pool">
		<ellipse cx="17.5" cy="59.9" rx="12.5" ry="1.5"/>
		<ellipse cx="44" cy="60.2" rx="18" ry="1.8"/>
	</g>
	<path d="m32 2c-16.5 0-30 13.4-30 30 0 4.9 15.8 22.9 23 27.6 2 1.3 4.7 2.4 7 2.4 2.3 0 5-1.2 7-2.4 7.3-4.7 23-22.7 23-27.6 0-16.6-13.4-30-30-30" fill="#ffdd67" id="face"/>
	<!--g fill="#fff" id="eyes">
		<path d="m30.5 24.7c0 5.5-4.5 10-10 10-5.5 0-10-4.5-10-10 0-5.5 4.4-10 10-10 5.5 0 10 4.5 10 10" fill="#fff" id="eye_1"/>
		<path d="m53.5 24.7c0 5.5-4.5 10-10 10-5.5 0-10-4.5-10-10 0-5.5 4.5-10 10-10 5.5 0 10 4.5 10 10" fill="#fff"/>
	</g-->
	<!--g fill="#664e27" id="pupils">
		<path d="m24 24.7c0 1.9-1.5 3.5-3.5 3.5-1.9 0-3.5-1.6-3.5-3.5s1.6-3.5 3.5-3.5c2 0 3.5 1.6 3.5 3.5" id="pupil_1"/>
		<path d="m47 24.7c0 1.9-1.6 3.5-3.5 3.5-2 0-3.5-1.6-3.5-3.5s1.6-3.5 3.5-3.5c1.9 0 3.5 1.6 3.5 3.5" id="pupil_2"/>
	</g-->
	<path d="m40.4 46.1c0 6.6-3.7 12-8.4 12-4.6 0-8.3-5.4-8.3-12 0-6.6 3.8-12 8.3-12 4.6-.1 8.4 5.3 8.4 12" fill="#664e27" id="mouth"/>
	<path d="m34 41.4c-.6 0-1.6.6-1.2 2.3.2.8 1.3 1.8 1.3 3.2 0 2.7-4 2.7-4 0 0-1.3 1.1-2.3 1.3-3.2.4-1.6-.6-2.3-1.2-2.3-1.7 0-4.5 2-4.5 5.3 0 3.7 2.9 6.7 6.4 6.7 3.6 0 6.4-3 6.4-6.7-.1-3.3-2.8-5.3-4.5-5.3" fill="#4c3526" id="throat"/>
	<path d="m32 51.9c-3.9 0-4.9 1.1-4.9 1.1 1 2.1 2.8 3.6 4.9 3.6 2.2 0 4-1.4 5-3.6 0 0-1.1-1.1-5-1.1" fill="#ff717f" id="tongue"/>
	<!--g fill="#917524">
		<path d="m22.7 7.7c-2.4 3.5-6.2 5.7-10.5 6.1-.6 0-.5 2.2.2 2.2 4.9-.4 9.3-3 12.1-7 .4-.6-1.5-1.8-1.8-1.3" id="eyebrow_1"/>
		<path d="m51.8 13.6c-4.2-.4-8-2.6-10.5-6.1-.3-.5-2.2.7-1.8 1.3 2.8 4 7.2 6.6 12.1 7 .7 0 .8-2.2.2-2.2" id="eyebrow_2"/>
	</g--><!--g fill="#65b1ef" id="tears">
		<path d="m59.4 36.9c7.3 7.7-2.6 18.1-9.9 10.4-5.3-5.6-5.6-16.3-5.6-16.3s10.2.3 15.5 5.9"/>
		<path d="m14.5 47.3c-7.3 7.7-17.2-2.7-9.9-10.4 5.3-5.6 15.5-5.9 15.5-5.9s-.3 10.7-5.6 16.3"/>
	</g--><g fill="#65b1ef" id="tear_streams" transform="translate(0, -3)">
		<path d="m19.5 60.5c-2.3 0-4.6 0-6.8 0-8.2-9.9 1.5-20-.9-29.8 2.3 0 4.6 2.5 6.8 2.5 3.2 9.5-7.3 17.4.9 27.3" transform="translate(2)"/>
		<path d="m44.5 60.5c2.3 0 4.6 0 6.8 0 8.2-9.9-1.5-20 .9-29.8-2.3 0-4.6 2.5-6.8 2.5-3.2 9.5 7.3 17.4-.9 27.3" transform="translate(-2)"/>
	</g><g fill="#d8a941">
		<path d="m48.3 45.7c4-2.9 4.7-9 10-10.9 6.4-2.4 2.7 1.2 2 6.8-1 7.7-6.9 12.2-7.8 18.5-.1.5 0 1.9 0 1.9h-13.7c0 0 .2-2.7 0-3.6-.4-2.8 1.7-7.1 9.5-12.7" id="hand_1"/>
		<path d="m15.7 45.7c-4-2.9-4.7-9-10-10.9-6.4-2.4-2.7 1.2-2 6.8 1 7.7 6.9 12.2 7.8 18.5.1.5 0 1.9 0 1.9h13.6c0 0-.1-2.7 0-3.6.6-2.8-1.5-7.1-9.4-12.7" id="hand_2"/>
	</g>
	<g fill="#f46767" id="heart_eyes" transform="translate(0, 1)">
		<path d="m61.8 13.2c-.5-2.7-2-4.9-4.5-5.6-2.7-.7-5.1.3-7.4 2.7-1.3-3.6-3.3-6.3-6.5-7.7-3.2-1.4-6.4-.4-8.4 2.1-2.1 2.6-2.9 6.7-.7 12 2.1 5 11.4 15 11.7 15.3.4-.2 10.8-6.7 13.3-9.9 2.5-3.1 3-6.2 2.5-8.9"/>
		<path d="m29 4.7c-2-2.5-5.2-3.5-8.4-2.1-3.2 1.4-5.2 4.1-6.5 7.7-2.4-2.3-4.8-3.4-7.5-2.6-2.4.7-4 2.9-4.5 5.6-.5 2.6.1 5.8 2.5 8.9 2.6 3.1 13 9.6 13.4 9.8.3-.3 9.6-10.3 11.7-15.3 2.2-5.3 1.4-9.3-.7-12"/>
	</g>
</svg>