<svg xmlns="http://www.w3.org/2000/svg" viewBox="0 0 64 64">
	<g transform="scale(0.75) translate(10.667,0)">
		<circle cx="32" cy="32" r="30" fill="#ffdd67"/>
		<g fill="#664e27">
			<path d="M28.5 27.9c-1.9-5.1-4.7-7.7-7.5-7.7s-5.6 2.6-7.5 7.7c-.2.5.8 1.4 1.3.9 1.8-1.9 4-2.7 6.2-2.7s4.4.8 6.2 2.7c.6.6 1.5-.4 1.3-.9M50.4 27.9c-1.9-5.1-4.7-7.7-7.5-7.7s-5.6 2.6-7.5 7.7c-.2.5.8 1.4 1.3.9 1.8-1.9 4-2.7 6.2-2.7s4.4.8 6.2 2.7c.5.6 1.5-.4 1.3-.9M54 37.4c0-.8-.6-1.8-2.4-2.1C47.2 34.7 40.5 34 32 34c-8.5 0-15.2.7-19.6 1.3-1.7.3-2.4 1.3-2.4 2.1C10 47 13.5 50 27.8 50h8.4C50.5 50 54 47 54 37.4"/>
		</g>
		<g fill="#fff">
			<path d="M48 40c.1-.5-.2-1.2-.6-1.5 0 0-3.9-2.5-15.4-2.5s-15.4 2.5-15.4 2.5c-.4.3-.7.9-.6 1.5l.2 1c.1.5.6 1 1.1 1h29.3c.5 0 1-.4 1.1-1l.3-1M32 48c6.3 0 15.2 0 15-2.1 0-.4-.1-.8-.3-1.3-.2-.5-.3-.7-1.4-.7H18.6c-1.1 0-1.2.1-1.4.7-.1.5-.2.9-.3 1.3C16.8 48 25.7 48 32 48"/>
		</g>
	</g>
	<g transform="translate(0,36)">
		<path fill="#ff5760" d="M30.7 14c0 5.1-5.7 10-12.6 11l-5.5.8c-6.9 1-11.6-1.3-10.4-5 1.2-3.7 1.2-9.8 0-13.5-1.2-3.7 3.4-6 10.4-5l5.5.7c6.9.9 12.6 5.9 12.6 11"/>
		<path fill="#c94747" d="M3.9 21.3c-.5.5.1 1.1.3 1.3.6.7 2.3 1.5 5.3 1.5.9 0 1.8-.1 2.8-.2l5.5-.8c3.9-.5 7.4-2.5 9.3-5 0 .1-16.8-3-23.2 3.2"/>
		<path fill="#ff5760" d="M33.3 14c0 5.1 5.7 10 12.6 11l5.5.8c6.9 1 11.6-1.3 10.4-5-1.2-3.7-1.2-9.8 0-13.5s-3.4-6-10.4-5l-5.5.7c-6.9.9-12.6 5.9-12.6 11"/>
		<g fill="#c94747">
			<path d="M60.1 21.3c.5.5-.1 1.1-.3 1.3-.6.7-2.3 1.5-5.3 1.5-.9 0-1.8-.1-2.8-.2l-5.5-.8c-3.9-.5-7.4-2.5-9.3-5 0 .1 16.8-3 23.2 3.2M31.2 12.5s-1.7 1.4-5.8-2c-4.7-3.9-11.5 1.3-2.4 3.6 4.9 1.3 8.2-1.6 8.2-1.6M32.8 12.5s1.7 1.4 5.8-2c4.7-3.9 11.5 1.3 2.4 3.6-4.9 1.3-8.2-1.6-8.2-1.6"/>
			<path d="M32 20.9c-3.7 0-4.7 2.8-4.7-6.8s.9-6.8 4.7-6.8 4.7-2.8 4.7 6.8-1 6.8-4.7 6.8"/>
		</g>
		<path fill="#ff5760" d="M32 21.1c-3 0-3.8 2.8-3.8-7 0-9.9.7-7 3.8-7s3.8-2.8 3.8 7-.8 7-3.8 7"/>
	</g>
</svg>
