<svg xmlns="http://www.w3.org/2000/svg" viewBox="0 0 64 64">
    <circle cx="32" cy="32" r="30" fill="#ffdd67"/>
    <g fill="#664e27">
        <path d="M28.5 27.9c-1.9-5.1-4.7-7.7-7.5-7.7s-5.6 2.6-7.5 7.7c-.2.5.8 1.4 1.3.9 1.8-1.9 4-2.7 6.2-2.7s4.4.8 6.2 2.7c.6.6 1.5-.4 1.3-.9M50.4 27.9c-1.9-5.1-4.7-7.7-7.5-7.7s-5.6 2.6-7.5 7.7c-.2.5.8 1.4 1.3.9 1.8-1.9 4-2.7 6.2-2.7s4.4.8 6.2 2.7c.5.6 1.5-.4 1.3-.9M54 37.4c0-.8-.6-1.8-2.4-2.1C47.2 34.7 40.5 34 32 34c-8.5 0-15.2.7-19.6 1.3-1.7.3-2.4 1.3-2.4 2.1C10 47 13.5 50 27.8 50h8.4C50.5 50 54 47 54 37.4"/>
    </g>
    <g fill="#fff">
        <path d="M48 40c.1-.5-.2-1.2-.6-1.5 0 0-3.9-2.5-15.4-2.5s-15.4 2.5-15.4 2.5c-.4.3-.7.9-.6 1.5l.2 1c.1.5.6 1 1.1 1h29.3c.5 0 1-.4 1.1-1l.3-1M32 48c6.3 0 15.2 0 15-2.1 0-.4-.1-.8-.3-1.3-.2-.5-.3-.7-1.4-.7H18.6c-1.1 0-1.2.1-1.4.7-.1.5-.2.9-.3 1.3C16.8 48 25.7 48 32 48"/>
    </g>
</svg>
