<svg xmlns="http://www.w3.org/2000/svg" viewBox="0 0 64 64" enable-background="new 0 0 64 64">
  <title>thought balloon</title>
  <path d="m18.723 47.868c-3.265-1.06-6.593.309-7.438 3.056-.846 2.748 1.117 5.836 4.382 6.896s6.594-.31 7.439-3.058c.842-2.747-1.119-5.834-4.383-6.894"/>
  <path d="m6.681 56.822c-1.112.873-1.23 2.631-.266 3.927.963 1.298 2.644 1.641 3.755.769 1.11-.873 1.23-2.632.268-3.928-.963-1.298-2.646-1.641-3.757-.768"/>
  <path d="M 30.382812 2 C 25.776812 2 21.8765 5.1113438 20.5625 9.4023438 C 19.0165 8.3033437 17.140094 7.6582031 15.121094 7.6582031 C 9.8350938 7.6582031 5.5527344 12.063094 5.5527344 17.496094 C 5.5527344 19.100094 5.9268906 20.614172 6.5878906 21.951172 C 3.8108906 23.975172 2 27.303359 2 31.068359 C 2 37.235359 6.860375 42.234375 12.859375 42.234375 C 15.065375 42.234375 17.116078 41.557484 18.830078 40.396484 C 19.757078 45.121484 23.8175 48.681641 28.6875 48.681641 C 32.3115 48.681641 35.485906 46.710859 37.253906 43.755859 C 38.473906 45.002859 40.153719 45.773438 42.011719 45.773438 C 45.537719 45.773438 48.431469 42.989359 48.730469 39.443359 C 49.555469 39.750359 50.446953 39.919922 51.376953 39.919922 C 55.681953 39.919922 59.171875 36.33125 59.171875 31.90625 C 59.171875 30.97825 59.015422 30.086812 58.732422 29.257812 C 60.712422 27.770813 62 25.367297 62 22.654297 C 62 19.969297 60.740875 17.588656 58.796875 16.097656 C 58.811875 15.906656 58.818359 15.714531 58.818359 15.519531 C 58.818359 11.292531 55.487953 7.8652344 51.376953 7.8652344 C 51.116953 7.8652344 50.859422 7.88025 50.607422 7.90625 C 49.045422 5.17925 46.160375 3.3476562 42.859375 3.3476562 C 40.909375 3.3476562 39.105813 3.9863125 37.632812 5.0703125 C 35.772813 3.1733125 33.211813 2 30.382812 2 z M 15.962891 22.201172 A 4.1999998 4.1999998 0 0 1 20.162109 26.402344 A 4.1999998 4.1999998 0 0 1 15.962891 30.601562 A 4.1999998 4.1999998 0 0 1 11.761719 26.402344 A 4.1999998 4.1999998 0 0 1 15.962891 22.201172 z M 31.962891 22.201172 A 4.1999998 4.1999998 0 0 1 36.162109 26.402344 A 4.1999998 4.1999998 0 0 1 31.962891 30.601562 A 4.1999998 4.1999998 0 0 1 27.761719 26.402344 A 4.1999998 4.1999998 0 0 1 31.962891 22.201172 z M 47.962891 22.201172 A 4.1999998 4.1999998 0 0 1 52.162109 26.402344 A 4.1999998 4.1999998 0 0 1 47.962891 30.601562 A 4.1999998 4.1999998 0 0 1 43.761719 26.402344 A 4.1999998 4.1999998 0 0 1 47.962891 22.201172 z "/>
</svg>