<svg xmlns="http://www.w3.org/2000/svg" viewBox="0 0 64 64" enable-background="new 0 0 64 64">
  <title>megaphone</title>
  <path d="m11.119 52.861c-.893-.897-1.597-1.567-2.153-1.952-.552-.383-.906-.459-1.088-.217-.178.236-.118.681.195 1.311.311.622.859 1.371 1.694 2.211.837.84 1.585 1.391 2.206 1.703.628.313 1.072.374 1.308.196.24-.183.166-.536-.214-1.089-.381-.556-1.05-1.263-1.948-2.163"/>
  <path d="M 32.013672 2 C 30.739672 2 29.700422 2.3405469 28.982422 3.0605469 C 28.809422 3.2335469 28.670016 3.4365312 28.541016 3.6445312 L 28.529297 3.6328125 C 28.529297 3.6328125 28.511281 3.6668438 28.488281 3.7148438 C 28.467281 3.7518437 28.448734 3.790125 28.427734 3.828125 C 26.728734 7.111125 3.2878594 52.439391 3.2558594 52.525391 C 2.6658594 52.984391 0.1886875 55.329312 4.4296875 59.570312 C 8.6586875 63.802312 11.002703 61.343094 11.470703 60.746094 C 11.560703 60.711094 20.023437 56.4375 20.023438 56.4375 L 20.609375 57.697266 C 21.289375 59.153266 22.495859 60.258641 24.005859 60.806641 C 25.514859 61.356641 27.147516 61.283516 28.603516 60.603516 L 36.003906 57.154297 C 36.642906 56.855297 37.218844 56.453031 37.714844 55.957031 C 39.494844 54.177031 39.976109 51.445109 38.912109 49.162109 L 38.068359 47.351562 L 59.878906 35.699219 C 60.087906 35.610219 60.28675 35.509719 60.46875 35.386719 L 60.550781 35.341797 L 60.537109 35.330078 C 60.676109 35.230078 60.818453 35.136625 60.939453 35.015625 C 64.199453 31.755625 59.687281 21.959719 50.863281 13.136719 C 43.984281 6.2577187 36.516672 2 32.013672 2 z M 32.013672 3.875 C 35.355672 3.875 42.263109 7.1888906 49.537109 14.462891 C 53.652109 18.577891 56.916516 23.009313 58.728516 26.945312 C 60.505516 30.800313 60.314281 32.9875 59.613281 33.6875 C 59.273281 34.0275 58.69925 34.199219 57.90625 34.199219 C 57.46125 34.199219 56.947812 34.136625 56.382812 34.015625 C 55.044812 29.593625 51.23925 23.765641 45.78125 18.306641 C 40.29125 12.817641 34.427141 9.0015937 29.994141 7.6835938 C 29.623141 5.9315938 29.853594 4.8417188 30.308594 4.3867188 C 30.647594 4.0477187 31.220672 3.875 32.013672 3.875 z M 27.941406 6.0742188 C 27.921406 10.574219 32.163594 18.045453 39.058594 24.939453 C 45.924594 31.804453 53.376812 36.058266 57.882812 36.072266 C 54.014812 37.987266 45.456297 33.89375 37.779297 26.21875 C 30.076297 18.51475 25.980406 9.9262187 27.941406 6.0742188 z M 33.582031 49.613281 L 34.042969 50.599609 C 34.438969 51.447609 34.057359 52.524781 33.193359 52.925781 L 27.167969 55.738281 C 26.742969 55.936281 26.267172 55.958875 25.826172 55.796875 C 25.386172 55.638875 25.034891 55.316625 24.837891 54.890625 L 24.507812 54.181641 L 33.582031 49.613281 z "/>
  <path d="m22.621 44.405c.449-.4.899-.798 1.351-1.199-1.994-1.386-3.831-2.912-5.496-4.559 1.244 2.071 2.632 3.996 4.145 5.758"/>
</svg>