<svg xmlns="http://www.w3.org/2000/svg" viewBox="0 0 64 64" enable-background="new 0 0 64 64">
  <title>candle</title>
  <path d="M 32.564453 2 C 32.564453 3.075 31.941141 3.9180312 29.994141 7.7070312 C 29.799141 8.0860313 29.650391 8.4308594 29.525391 8.7558594 C 23.859391 9.1308594 19.589844 10.75775 19.589844 12.71875 L 19.589844 20.949219 L 19.589844 49.001953 L 19.589844 51.5625 L 19.589844 53.626953 L 19.589844 54.855469 C 19.589844 56.712469 25.147 58.216797 32 58.216797 C 38.855 58.216797 44.408203 56.712469 44.408203 54.855469 L 44.408203 53.625 L 44.408203 51.5625 L 44.408203 49.001953 L 44.408203 20.949219 L 44.408203 12.71875 C 44.408203 10.80175 40.329562 9.1992969 34.851562 8.7792969 C 34.638562 5.7592969 32.564453 2 32.564453 2 z M 32.361328 5.7695312 C 32.361328 5.7695312 35.654906 11.746969 32.378906 12.417969 C 32.273906 11.884969 32.1985 11.345406 32.0625 10.816406 C 31.8425 10.778406 31.677531 12.252516 31.644531 12.478516 C 30.512531 12.445516 29.50175 11.782922 30.71875 9.4199219 C 31.96175 6.9979219 32.361328 6.4585314 32.361328 5.7695312 z M 34.623047 10.773438 C 38.813047 11.086436 41.405703 12.08475 42.220703 12.71875 C 41.245703 13.47675 37.76 14.769531 32 14.769531 C 26.24 14.769531 22.753344 13.47675 21.777344 12.71875 C 22.577344 12.09575 25.095391 11.122016 29.150391 10.791016 C 29.293391 12.083016 30.408172 12.5 31.576172 12.5 C 31.598172 12.5 31.616672 12.496094 31.638672 12.496094 C 31.587672 12.854094 31.482656 13.142766 31.597656 13.509766 C 31.634656 13.624766 31.806797 14.127344 31.966797 14.152344 C 32.175797 14.185344 32.335672 13.775813 32.388672 13.632812 C 32.523672 13.310816 32.503734 13.021359 32.427734 12.693359 C 32.407734 12.608359 32.397859 12.5225 32.380859 12.4375 C 33.606859 12.2515 34.295047 11.631436 34.623047 10.773438 z M 21.589844 14.917969 C 23.802844 16.029969 27.634 16.769531 32 16.769531 C 36.366 16.769531 40.197203 16.030969 42.408203 14.917969 L 42.408203 20.949219 L 42.408203 49.001953 L 42.408203 54.455078 C 41.470203 55.124078 37.774 56.216799 32 56.216797 C 26.225 56.216797 22.527844 55.124078 21.589844 54.455078 L 21.589844 49.001953 L 21.589844 20.949219 L 21.589844 14.917969 z "/>
</svg>