<svg xmlns="http://www.w3.org/2000/svg" viewBox="0 0 64 64" enable-background="new 0 0 64 64">
  <title>clamp</title>
  <path d="M 18.951172 2.1074219 C 17.151172 2.1074219 15.650391 3.6905048 15.650391 5.671875 C 15.650391 7.6532451 17.151172 9.2382813 18.951172 9.2382812 L 35.150391 9.2382812 C 37.150391 11.417788 39.150781 13.498227 41.050781 15.677734 C 41.150781 15.875871 41.351172 15.975691 41.451172 16.173828 C 41.618437 16.339535 41.814092 16.428178 41.994141 16.558594 C 42.225232 16.717916 42.43225 16.929765 42.689453 17.027344 L 42.689453 17.251953 L 42.6875 17.251953 L 42.6875 37.5625 L 42.6875 37.775391 C 42.4895 37.844391 42.292703 37.933594 42.095703 38.058594 C 42.057309 38.083169 42.031674 38.131537 41.994141 38.158203 C 41.489925 38.554041 41.097004 39.061773 40.648438 39.513672 C 39.248438 41.125554 37.747656 42.636165 36.347656 44.248047 C 35.947656 44.75176 35.448828 45.154491 35.048828 45.658203 L 18.847656 45.658203 C 17.047656 45.658203 15.548828 47.270304 15.548828 49.285156 C 15.548828 51.300009 17.047656 52.912109 18.847656 52.912109 L 35.748047 52.912109 C 36.848047 52.912109 37.848047 52.812113 38.748047 51.804688 C 39.813202 50.629426 40.90363 49.41497 41.994141 48.226562 C 43.045639 47.082158 44.097064 45.938468 45.148438 44.794922 L 46.511719 44.794922 L 46.511719 53.757812 L 45.099609 53.757812 C 44.366609 53.757812 43.773437 54.404125 43.773438 55.203125 L 43.773438 56.849609 L 41.699219 56.849609 C 41.315219 55.743609 40.341406 54.951172 39.191406 54.951172 C 37.706406 54.951172 36.501953 56.263906 36.501953 57.878906 C 36.501953 59.494906 37.706406 60.806641 39.191406 60.806641 C 40.340406 60.806641 41.314219 60.016156 41.699219 58.910156 L 43.773438 58.910156 L 43.773438 60.554688 C 43.773438 61.352688 44.366609 62.001953 45.099609 62.001953 L 53.400391 62.001953 C 54.134391 62.001953 54.728516 61.352686 54.728516 60.554688 L 54.728516 58.910156 L 56.802734 58.910156 C 57.185734 60.016156 58.158594 60.806641 59.308594 60.806641 C 60.795594 60.806641 61.998047 59.494906 61.998047 57.878906 C 61.999047 56.263906 60.797547 54.951172 59.310547 54.951172 C 58.161547 54.951172 57.187688 55.743609 56.804688 56.849609 L 54.730469 56.849609 L 54.730469 55.203125 C 54.730469 54.404125 54.134391 53.757814 53.400391 53.757812 L 51.992188 53.757812 L 51.992188 44.794922 L 53.65625 44.794922 L 54.730469 44.794922 C 56.540469 44.794922 58.048828 43.148688 58.048828 41.179688 C 58.048828 39.623688 57.102453 38.285156 55.814453 37.785156 L 55.814453 37.560547 L 55.814453 17.251953 L 55.814453 17.03125 C 57.102453 16.53125 58.048828 15.194672 58.048828 13.638672 C 58.048828 11.668672 56.539469 10.023436 54.730469 10.023438 L 45.150391 10.023438 C 44.097863 8.877882 43.046254 7.7327654 41.994141 6.5878906 C 41.077219 5.5970977 40.133717 4.6055167 39.25 3.5917969 C 39.15 3.3936599 38.949609 3.2957933 38.849609 3.0976562 C 38.149609 2.5032452 37.351172 2.1074219 36.451172 2.1074219 L 18.951172 2.1074219 z M 44.5625 17.251953 L 45.435547 17.251953 L 51.630859 17.251953 L 53.9375 17.251953 L 53.9375 17.494141 L 44.5625 20.394531 L 44.5625 17.251953 z M 53.9375 20.882812 L 53.9375 24.269531 L 44.5625 27.167969 L 44.5625 23.779297 L 53.9375 20.882812 z M 53.9375 27.654297 L 53.9375 31.037109 L 44.5625 33.9375 L 44.5625 30.552734 L 53.9375 27.654297 z M 53.9375 34.425781 L 53.9375 37.564453 L 44.5625 37.564453 L 44.5625 37.5625 L 44.5625 37.322266 L 53.9375 34.425781 z M 46.513672 54.703125 L 49.251953 54.703125 L 49.251953 61.056641 L 46.513672 61.056641 L 46.513672 54.703125 z M 50.621094 54.703125 L 51.990234 54.703125 L 51.990234 61.056641 L 50.621094 61.056641 L 50.621094 54.703125 z M 40.021484 55.945312 C 40.478484 55.945312 40.851563 56.349609 40.851562 56.849609 C 40.852562 57.347609 40.478484 57.751953 40.021484 57.751953 C 39.561484 57.751953 39.191406 57.347609 39.191406 56.849609 C 39.191406 56.349609 39.561484 55.945314 40.021484 55.945312 z M 60.304688 55.945312 C 60.764688 55.945312 61.134766 56.349609 61.134766 56.849609 C 61.134766 57.347609 60.764686 57.751953 60.304688 57.751953 C 59.845686 57.751953 59.476562 57.347609 59.476562 56.849609 C 59.476562 56.349609 59.845688 55.945315 60.304688 55.945312 z "/>
</svg>