<svg xmlns="http://www.w3.org/2000/svg" viewBox="0 0 64 64" enable-background="new 0 0 64 64">
  <title>ballot box with ballot</title>
  <path d="M 44.226562 2 L 10.435547 2.6035156 L 10.699219 3.7167969 C 11.985219 9.1427969 11.744469 13.994375 11.355469 16.984375 L 2 17.224609 L 4.4238281 48.525391 L 11.691406 62 L 59.462891 53.451172 L 62 19.8125 L 44.966797 16.826172 C 45.422797 14.050172 45.824531 9.001375 44.394531 2.734375 L 44.226562 2 z M 42.724609 3.8730469 C 44.172609 10.856047 43.128609 17.584516 42.724609 19.353516 L 12.777344 20.710938 C 13.262344 18.298938 14.166518 11.229203 12.769531 4.4082031 L 42.724609 3.8730469 z M 20.832031 6.8203125 C 20.738406 6.8471875 20.657281 6.9001094 20.613281 6.9746094 C 20.126281 7.8086094 19.610312 8.6435156 19.070312 9.4785156 C 18.974312 9.6295156 18.771094 9.660875 18.621094 9.546875 C 18.200094 9.227875 17.775656 8.9058906 17.347656 8.5878906 C 17.196656 8.4758906 16.947922 8.4805625 16.794922 8.6015625 C 16.700922 8.6725625 16.610578 8.7444063 16.517578 8.8164062 C 16.367578 8.9354062 16.364672 9.1272812 16.513672 9.2382812 C 17.320672 9.8452812 18.115438 10.4525 18.898438 11.0625 C 19.044438 11.1755 19.248609 11.145094 19.349609 10.996094 C 20.176609 9.7770938 20.960641 8.5617031 21.681641 7.3457031 C 21.771641 7.1967031 21.681328 7.0162187 21.486328 6.9492188 C 21.367328 6.9082187 21.247859 6.8661719 21.130859 6.8261719 C 21.032359 6.7921719 20.925656 6.7934375 20.832031 6.8203125 z M 40.253906 7.9121094 C 34.848906 8.0171094 29.442156 8.1245156 24.035156 8.2285156 C 24.040156 8.6665156 24.037391 9.1040156 24.025391 9.5410156 C 29.436391 9.4350156 34.845859 9.3257031 40.255859 9.2207031 C 40.262859 8.7837031 40.262906 8.3481094 40.253906 7.9121094 z M 21.390625 14.466797 C 19.605625 14.504797 17.821109 14.540125 16.037109 14.578125 C 15.881109 16.015125 15.693859 17.451672 15.505859 18.888672 C 17.292859 18.849672 19.080188 18.809531 20.867188 18.769531 C 21.054188 17.336531 21.238625 15.901797 21.390625 14.466797 z M 39.806641 15.568359 C 34.381641 15.683359 28.952391 15.796109 23.525391 15.912109 C 23.472391 16.350109 23.418281 16.789563 23.363281 17.226562 C 28.792281 17.109562 34.220391 16.994906 39.650391 16.878906 C 39.702391 16.441906 39.756641 16.005359 39.806641 15.568359 z M 59.679688 22.042969 L 57.361328 51.798828 L 13.578125 59.400391 L 11.382812 24.410156 L 59.679688 22.042969 z "/>
</svg>