<svg xmlns="http://www.w3.org/2000/svg" viewBox="0 0 64 64" enable-background="new 0 0 64 64">
    <title>face with medical mask</title><path d="M 32,2 C 15.432,2 2,15.432 2,32 2,48.568 15.432,62 32,62 48.568,62 62,48.568 62,32 62,15.432 48.568,2 32,2 m -27.246,33.687 8.567,2.132 c -0.037,0.404 -0.073,0.809 -0.073,1.252 0,3.426 0.881,6.639 2.408,9.431 l -4.314,1.622 C 7.855,46.152 5.494,41.174 4.754,35.687 M 32,59.5 c -6.852,0 -13.121,-2.524 -17.942,-6.686 l 3.576,-1.365 c 3.442,4.225 8.602,6.918 14.366,6.918 5.764,0 10.924,-2.693 14.367,-6.918 l 3.576,1.365 C 45.123,56.975 38.854,59.5 32,59.5 M 15.749,39.07 c 0,-5.791 3.736,-6.954 9.763,-6.954 1.105,0 2.225,0.038 3.322,0.075 2.174,0.074 4.158,0.074 6.332,0 1.1,-0.037 2.219,-0.075 3.322,-0.075 6.029,0 9.764,1.163 9.764,6.954 0,9.262 -7.291,16.797 -16.252,16.797 -8.961,0 -16.251,-7.535 -16.251,-16.797 m 36.909,11.053 -4.314,-1.622 c 1.527,-2.792 2.408,-6.005 2.408,-9.431 0,-0.443 -0.035,-0.848 -0.072,-1.252 l 8.566,-2.132 c -0.738,5.488 -3.1,10.466 -6.588,14.437 M 49.797,34.432 c -2.332,-4.8 -8.381,-4.815 -11.309,-4.815 -1.131,0 -2.279,0.038 -3.406,0.077 -2.117,0.072 -4.049,0.072 -6.162,0 -1.127,-0.039 -2.275,-0.077 -3.408,-0.077 -2.928,0 -8.976,0.016 -11.308,4.815 L 4.502,32.034 C 4.501,32.022 4.5,32.012 4.5,32 4.5,26.091 6.38,20.615 9.564,16.127 l 1.955,-2.453 C 16.559,8.048 23.871,4.5 32,4.5 c 8.275,0 15.703,3.679 20.748,9.481 l 1.743,2.224 C 57.643,20.678 59.5,26.125 59.5,32 v 0.033 l -9.703,2.399"/><circle cx="20.5" cy="23" r="5"/>
<circle cx="43.5" cy="23" r="5"/></svg>
