<svg xmlns="http://www.w3.org/2000/svg" viewBox="0 0 64 64" enable-background="new 0 0 64 64">
  <title>stop sign</title>
  <path d="M 22.472656 9 L 9 22.474609 L 9 41.525391 L 22.472656 55 L 41.525391 55 L 55 41.525391 L 55 22.474609 L 41.525391 9 L 22.472656 9 z M 16.28125 22.572266 C 19.058419 22.572266 21.330078 24.927566 21.330078 27.873047 L 18.804688 27.873047 C 18.804688 26.526542 17.711913 25.349609 16.28125 25.349609 C 14.850588 25.349609 13.755859 26.442385 13.755859 27.873047 C 13.755859 29.30371 14.850588 30.398437 16.28125 30.398438 C 19.058419 30.398438 21.330078 32.753738 21.330078 35.699219 C 21.330078 38.728857 19.058419 41.085938 16.28125 41.085938 C 13.504082 41.085938 11.230469 38.730637 11.230469 35.785156 L 13.755859 35.785156 C 13.755859 37.131662 14.850588 38.308594 16.28125 38.308594 C 17.711913 38.308594 18.804688 37.215818 18.804688 35.785156 C 18.804688 34.354493 17.711913 33.259766 16.28125 33.259766 C 13.504082 33.259766 11.230469 30.902512 11.230469 27.957031 C 11.230469 24.927393 13.504082 22.572266 16.28125 22.572266 z M 21.330078 22.572266 L 31.427734 22.572266 L 31.427734 25.095703 L 27.640625 25.095703 L 27.640625 41.085938 L 25.117188 41.085938 L 25.117188 25.095703 L 21.330078 25.095703 L 21.330078 22.572266 z M 43.210938 22.572266 L 48.259766 22.572266 C 51.036934 22.572266 53.308594 24.927393 53.308594 27.957031 C 53.308594 30.902512 51.036934 33.259766 48.259766 33.259766 L 45.734375 33.259766 L 45.734375 41.085938 L 43.210938 41.085938 L 43.210938 22.572266 z M 36.478516 22.65625 C 39.255684 22.65625 41.527344 25.01155 41.527344 27.957031 L 41.527344 35.785156 C 41.527344 38.730637 39.255684 41.085938 36.478516 41.085938 C 33.701348 41.085938 31.427734 38.730637 31.427734 35.785156 L 31.427734 27.957031 C 31.427734 25.01155 33.701348 22.65625 36.478516 22.65625 z M 36.478516 25.433594 C 35.047853 25.433594 33.953125 26.526369 33.953125 27.957031 L 33.953125 35.785156 C 33.953125 37.131662 35.047853 38.308594 36.478516 38.308594 C 37.909178 38.308594 39.001953 37.215818 39.001953 35.785156 L 39.001953 27.957031 C 39.001953 26.526369 37.909178 25.433594 36.478516 25.433594 z M 45.734375 25.433594 L 45.734375 30.398438 L 48.259766 30.398438 C 49.690429 30.398438 50.785156 29.387693 50.785156 27.957031 C 50.785156 26.526369 49.690429 25.433594 48.259766 25.433594 L 45.734375 25.433594 z "/>
  <path d="M44.426,2H19.574L2,19.574v24.852L19.574,62h24.852L62,44.426V19.574L44.426,2z M60,43.598L43.598,60H20.402L4,43.598   V20.402L20.402,4h23.195L60,20.402V43.598z"/>
</svg>