<svg xmlns="http://www.w3.org/2000/svg" viewBox="0 0 64 64" enable-background="new 0 0 64 64">
  <title>hammer and pick</title>
  <path d="M 32.728516 5.328125 C 30.787848 5.3707994 29.03148 5.8102593 27.568359 6.671875 C 32.32544 6.671875 38.67254 9.5057907 44.792969 14.478516 C 44.683616 14.951961 44.813996 15.462434 45.191406 15.839844 L 45.34375 15.992188 L 10.611328 50.724609 C 8.4673437 52.868593 14.340391 58.741641 16.484375 56.597656 L 51.216797 21.865234 L 51.433594 22.082031 C 51.807819 22.456256 52.315063 22.588731 52.785156 22.484375 C 57.723376 28.581687 60.537109 34.889527 60.537109 39.576172 C 60.537109 39.576172 60.539062 39.574219 60.539062 39.574219 C 60.537816 39.595918 60.538462 39.61898 60.537109 39.640625 C 63.385377 34.803945 61.603329 26.771192 56.167969 19.429688 L 56.636719 18.960938 C 57.221968 18.37569 57.221968 17.466107 56.636719 16.880859 L 56.417969 16.664062 L 60.203125 12.878906 C 62.34711 10.734921 56.474063 4.8618749 54.330078 7.0058594 L 50.544922 10.791016 L 50.392578 10.638672 C 49.807329 10.053424 48.897748 10.053424 48.3125 10.638672 L 47.853516 11.097656 C 42.711336 7.2707641 37.224869 5.2292523 32.728516 5.328125 z " fill="#000000"/>
  <path d="m 39.737271,35.415271 -6.265,6.265 L 48.313,56.5 c 0.865,0.859 2.275,0.857 3.135,0 l 3.135,-3.13 c 0.865,-0.862 0.863,-2.271 0,-3.13"/>
  <path d="m 12.581,29.379 4.285,-4.278 8.758814,8.731814 6.265,-6.265 L 23.134,18.842 27.417,14.566 c 0.875,-0.869 0.877,-2.297 0,-3.168 L 20.665,4.656 C 19.792,3.783 18.364,3.783 17.488,4.654 L 13.207,8.93 11.552,7.278 C 10.692,6.418 9.281,6.418 8.418,7.276 l -3.134,3.132 c -0.862,0.86 -0.861,2.268 0,3.128 l 1.655,1.652 -4.285,4.278 c -0.872,0.871 -0.871,2.297 0,3.17 l 6.757,6.743 c 0.871,0.871 2.297,0.87 3.17,0"/>
</svg>