<svg xmlns="http://www.w3.org/2000/svg" viewBox="0 0 64 64" enable-background="new 0 0 64 64">
  <title>funeral urn</title>
  <path d="M 32 2 C 27.927 2 23.722656 2.5078125 23.722656 2.5078125 L 23.722656 3.0683594 C 21.591656 3.6423594 19.455078 5.3671875 19.455078 5.3671875 L 19.455078 10.496094 C 19.455078 10.496094 21.291969 11.386672 21.292969 11.388672 L 21.291016 14.253906 C 20.925016 14.577906 17.867188 15.826172 17.867188 15.826172 L 17.867188 16.697266 C 15.641188 17.518266 11.641453 19.522922 11.189453 23.419922 C 9.7334531 36.002922 17.052266 47.178047 19.697266 50.748047 C 18.962266 51.226047 18.319391 51.770906 17.775391 52.378906 C 16.375391 53.953906 15.952719 55.580328 16.636719 56.736328 C 17.212719 57.707328 18.033125 58.552813 19.078125 59.257812 C 21.807125 61.102812 26.033 62 32 62 C 37.967 62 42.192828 61.103813 44.923828 59.257812 C 45.965828 58.554812 46.786328 57.708188 47.361328 56.742188 C 48.048328 55.581187 47.624516 53.951813 46.228516 52.382812 C 45.682516 51.771813 45.036781 51.227047 44.300781 50.748047 C 46.946781 47.178047 54.266547 36.002922 52.810547 23.419922 C 52.359547 19.522922 48.359812 17.518266 46.132812 16.697266 L 46.132812 15.826172 C 46.132812 15.826172 43.073984 14.577859 42.708984 14.255859 L 42.708984 11.410156 C 42.707984 11.385156 44.544922 10.496094 44.544922 10.496094 L 44.544922 5.3671875 C 44.544922 5.3671875 42.410297 3.6423594 40.279297 3.0683594 L 40.279297 2.5078125 C 40.279297 2.5078125 36.074 2 32 2 z M 32 3.8789062 C 36.588 3.8789062 38.349609 4.1171875 38.349609 4.1171875 L 38.349609 4.5488281 L 25.650391 4.5488281 L 25.650391 4.1171875 C 25.650391 4.1171875 27.412 3.8789063 32 3.8789062 z M 21.427734 6.203125 C 21.635734 6.239125 22.038922 6.3057656 22.669922 6.3847656 C 24.331922 6.5977656 27.451 6.8925781 32 6.8925781 C 36.549 6.8925781 39.669078 6.5977656 41.330078 6.3847656 C 41.960078 6.3057656 42.365266 6.239125 42.572266 6.203125 C 42.590266 6.217125 42.615234 6.2363281 42.615234 6.2363281 L 42.615234 9.2148438 C 42.420234 9.2438437 41.989078 9.3058594 41.330078 9.3808594 C 39.615078 9.5798594 36.398 9.859375 32 9.859375 C 27.602 9.859375 24.384922 9.5788594 22.669922 9.3808594 C 22.010922 9.3058594 21.580766 9.2428906 21.384766 9.2128906 L 21.384766 6.2363281 C 21.384766 6.2363281 21.410734 6.216125 21.427734 6.203125 z M 19.796875 17.173828 C 20.002875 17.259828 20.450766 17.423422 21.259766 17.607422 C 22.946766 17.992422 26.178047 18.462891 31.998047 18.462891 C 37.818047 18.462891 41.052281 17.992422 42.738281 17.607422 C 43.548281 17.423422 43.995172 17.259828 44.201172 17.173828 L 44.201172 18.0625 C 44.201172 18.0625 44.227141 18.067266 44.244141 18.072266 C 44.059141 18.149266 43.601281 18.318813 42.738281 18.507812 C 41.053281 18.874813 37.82 19.324219 32 19.324219 C 26.18 19.324219 22.946719 18.875812 21.261719 18.507812 C 20.397719 18.319813 19.940859 18.150266 19.755859 18.072266 C 19.771859 18.068266 19.796875 18.0625 19.796875 18.0625 L 19.796875 17.173828 z M 22.103516 50.851562 C 22.290516 50.974562 22.716969 51.233156 23.417969 51.535156 L 23.419922 51.535156 C 24.937922 52.187156 27.713 53.023438 32 53.023438 C 35.93 53.023438 38.591688 52.321172 40.179688 51.701172 C 41.112687 51.337172 41.671484 51.001516 41.896484 50.853516 L 41.896484 51.589844 C 41.896484 51.589844 41.611688 52.325984 40.179688 52.958984 C 38.747687 53.587984 36.265 54.210938 32 54.210938 C 27.301 54.210938 24.766922 53.457625 23.419922 52.765625 C 22.325922 52.202625 22.103516 51.589844 22.103516 51.589844 L 22.103516 50.851562 z M 19.113281 53.757812 C 19.207281 54.023812 19.57325 54.827734 20.78125 55.677734 C 22.44125 56.843734 25.687 58.085938 32 58.085938 C 38.313 58.085938 41.55875 56.843734 43.21875 55.677734 C 44.42675 54.827734 44.792719 54.022813 44.886719 53.757812 C 45.645719 54.665813 45.881406 55.479781 45.691406 55.800781 C 45.236406 56.565781 44.592219 57.194891 43.824219 57.712891 C 40.539219 59.933891 34.963 60.119141 32 60.119141 C 29.037 60.119141 23.460781 59.932891 20.175781 57.712891 C 19.406781 57.193891 18.762594 56.565781 18.308594 55.800781 C 18.118594 55.480781 18.355281 54.665812 19.113281 53.757812 z "/>
</svg>