<svg xmlns="http://www.w3.org/2000/svg" viewBox="0 0 64 64" enable-background="new 0 0 64 64">
  <title>fuel pump</title>
  <g>
    <path d="m30.967 47.875h-6.804c-.204 0-.378.143-.378.312v6.876c0 .169.174.313.378.313h6.804c.205 0 .379-.144.379-.313v-6.876c0-.169-.174-.312-.379-.312"/>
    <path d="m25.203 36.625h-.945c-.261 0-.473.21-.473.469v2.813c0 .258.212.469.473.469h.945c.26 0 .472-.211.472-.469v-2.813c0-.259-.212-.469-.472-.469"/>
    <path d="m28.037 36.625h-.945c-.26 0-.472.21-.472.469v2.813c0 .258.212.469.472.469h.945c.261 0 .473-.211.473-.469v-2.813c0-.259-.212-.469-.473-.469"/>
    <path d="m30.873 36.625h-.945c-.261 0-.473.21-.473.469v2.813c0 .258.212.469.473.469h.945c.26 0 .473-.211.473-.469v-2.813c0-.259-.213-.469-.473-.469"/>
    <path d="M 27.564453 2 C 22.866453 2 19.060547 5.7765 19.060547 10.4375 C 19.060547 14.4525 21.887828 17.805203 25.673828 18.658203 L 25.673828 21.753906 C 22.028828 22.003906 18.708047 22.9725 15.998047 24.4375 L 13.390625 24.4375 C 12.318625 24.4375 11.445314 25.307953 11.445312 26.376953 L 11.445312 29.189453 L 11.445312 30.189453 L 12.445312 30.189453 L 14.335938 30.189453 L 14.335938 56.25 L 13.390625 56.25 C 12.318625 56.25 11.445314 57.1185 11.445312 58.1875 L 11.445312 58.402344 C 10.879312 58.741344 10.501953 59.3575 10.501953 60.0625 L 10.501953 61 L 10.501953 62 L 11.501953 62 L 43.632812 62 L 44.632812 62 L 44.632812 61 L 44.632812 60.0625 C 44.632812 59.3575 44.2525 58.739391 43.6875 58.400391 L 43.6875 58.1875 C 43.6875 57.1195 42.815188 56.248047 41.742188 56.248047 L 40.796875 56.248047 L 40.796875 48.65625 C 41.719875 49.10725 42.361328 50.041906 42.361328 51.128906 C 42.361328 54.175906 44.860641 56.654297 47.931641 56.654297 C 51.002641 56.654297 53.501953 54.175906 53.501953 51.128906 L 53.501953 31.408203 L 53.501953 23.119141 C 53.500953 20.072141 51.000687 17.59375 47.929688 17.59375 L 47.929688 20.357422 C 49.449688 20.357422 50.689844 21.571266 50.714844 23.072266 L 46.537109 25.835938 L 46.537109 26.574219 C 46.537109 29.006219 48.354844 31.022375 50.714844 31.359375 L 50.714844 31.408203 L 50.714844 51.130859 C 50.714844 52.653859 49.464688 53.892578 47.929688 53.892578 C 46.393687 53.892578 45.144531 52.654859 45.144531 51.130859 C 45.144531 48.500859 43.280922 46.297188 40.794922 45.742188 L 40.794922 30.1875 L 42.685547 30.1875 L 43.685547 30.1875 L 43.685547 29.1875 L 43.685547 26.375 C 43.685547 25.307 42.813234 24.4375 41.740234 24.4375 L 39.132812 24.4375 C 36.422812 22.9735 33.101078 22.001953 29.455078 21.751953 L 29.455078 18.658203 C 33.241078 17.804203 36.070313 14.4515 36.070312 10.4375 C 36.069313 5.7775 32.262453 2 27.564453 2 z M 27.564453 2.9375 C 31.740453 2.9375 35.126953 6.2945 35.126953 10.4375 C 35.126953 14.5795 31.740453 17.9375 27.564453 17.9375 C 23.389453 17.9375 20.005859 14.5785 20.005859 10.4375 C 20.005859 6.2945 23.389453 2.9375 27.564453 2.9375 z M 13.388672 25.4375 L 14.333984 25.4375 L 40.794922 25.4375 L 41.738281 25.4375 C 42.258281 25.4375 42.683594 25.859 42.683594 26.375 L 42.683594 29.1875 L 40.792969 29.1875 L 14.332031 29.1875 L 12.445312 29.1875 L 12.445312 26.375 C 12.445312 25.859 12.869672 25.4375 13.388672 25.4375 z M 50.714844 26.390625 L 50.714844 28.525391 C 50.112844 28.314391 49.638594 27.837281 49.433594 27.238281 L 50.714844 26.390625 z M 23.785156 30.59375 L 31.347656 30.59375 C 32.386656 30.59375 33.236328 31.43775 33.236328 32.46875 L 33.236328 37.09375 C 33.236328 37.78175 32.852969 38.381031 32.292969 38.707031 L 32.292969 40.375 C 32.290969 40.891 31.864703 41.3125 31.345703 41.3125 L 23.785156 41.3125 C 23.265156 41.3125 22.839844 40.891 22.839844 40.375 L 22.839844 38.707031 C 22.277844 38.380031 21.894531 37.78075 21.894531 37.09375 L 21.894531 32.46875 C 21.894531 31.43775 22.746156 30.59375 23.785156 30.59375 z M 23.785156 42.25 L 31.345703 42.25 C 31.864703 42.25 32.289062 42.6715 32.289062 43.1875 L 32.289062 45.0625 C 32.289062 45.5785 31.864703 46.001953 31.345703 46.001953 L 23.785156 46.001953 C 23.265156 46.001953 22.839844 45.5785 22.839844 45.0625 L 22.839844 43.1875 C 22.839844 42.6715 23.266156 42.25 23.785156 42.25 z M 24.162109 46.9375 L 30.966797 46.9375 C 31.696797 46.9375 32.289062 47.496547 32.289062 48.185547 L 32.289062 55.0625 C 32.289062 55.6425 31.862922 56.109 31.294922 56.25 L 23.837891 56.25 C 23.269891 56.109 22.839844 55.6435 22.839844 55.0625 L 22.839844 48.185547 C 22.839844 47.496547 23.433109 46.9375 24.162109 46.9375 z M 13.388672 57.248047 L 14.333984 57.248047 L 40.794922 57.248047 L 41.740234 57.248047 L 41.740234 57.25 C 42.260234 57.25 42.685547 57.6715 42.685547 58.1875 L 42.685547 59.126953 C 43.205547 59.126953 43.630859 59.548453 43.630859 60.064453 L 43.630859 61 L 11.5 61 L 11.5 60.0625 C 11.5 59.5465 11.926313 59.123047 12.445312 59.123047 L 12.445312 58.185547 C 12.445312 57.669547 12.869672 57.248047 13.388672 57.248047 z "/>
    <path d="M 27.564453 4.34375 C 24.189453 4.34375 21.470703 7.0625002 21.470703 10.4375 C 21.470703 13.8125 24.189453 16.53125 27.564453 16.53125 C 30.939453 16.53125 33.658203 13.8125 33.658203 10.4375 C 33.658203 7.0625002 30.939453 4.34375 27.564453 4.34375 z M 27.564453 5.28125 C 30.376953 5.28125 32.720703 7.6250002 32.720703 10.4375 C 32.720703 13.25 30.376953 15.59375 27.564453 15.59375 C 24.751953 15.59375 22.408203 13.25 22.408203 10.4375 C 22.408203 7.6250002 24.751953 5.28125 27.564453 5.28125 z "/>
  </g>
</svg>