<svg xmlns="http://www.w3.org/2000/svg" viewBox="0 0 64 64" enable-background="new 0 0 64 64">
  <title>pencil</title>
  <path d="m 57.683,59.466 1.784,-1.783 c 3.377,-3.381 3.376,-8.853 0,-12.234 L 23.435,9.419 4.763,2.278 C 2.553,1.44 1.44,2.559 2.282,4.762 l 7.134,18.675 36.033,36.029 c 3.376,3.381 8.853,3.377 12.234,0 M 48.197,36.837 45.69,39.345 20.924,14.581 23.433,12.073 48.197,36.837 m -3.834,3.834 -3.696,3.695 -24.765,-24.763 3.695,-3.695 24.766,24.763 M 6.68,11.026 11.026,6.684 21.967,10.885 10.89,21.964 6.68,11.026 m 5.387,12.411 2.509,-2.506 24.765,24.762 -2.509,2.508 -24.765,-24.764 m 26.21,26.209 11.363,-11.365 2.828,2.827 -11.363,11.365 -2.828,-2.827"/>
</svg>