<?xml version="1.0" encoding="UTF-8" standalone="no"?>
<svg
   viewBox="0 0 64 64"
   enable-background="new 0 0 64 64"
   version="1.1"
   id="svg2"
   sodipodi:docname="activity.svg"
   inkscape:version="1.3.2 (091e20e, 2023-11-25, custom)"
   xmlns:inkscape="http://www.inkscape.org/namespaces/inkscape"
   xmlns:sodipodi="http://sodipodi.sourceforge.net/DTD/sodipodi-0.dtd"
   xmlns="http://www.w3.org/2000/svg"
   xmlns:svg="http://www.w3.org/2000/svg">
  <defs
     id="defs2" />
  <sodipodi:namedview
     id="namedview2"
     pagecolor="#ffffff"
     bordercolor="#000000"
     borderopacity="0.25"
     inkscape:showpageshadow="2"
     inkscape:pageopacity="0.0"
     inkscape:pagecheckerboard="0"
     inkscape:deskcolor="#d1d1d1"
     inkscape:zoom="11.313709"
     inkscape:cx="18.649941"
     inkscape:cy="31.333669"
     inkscape:window-width="1920"
     inkscape:window-height="991"
     inkscape:window-x="-9"
     inkscape:window-y="-9"
     inkscape:window-maximized="1"
     inkscape:current-layer="svg2" />
  <title
     id="title1">basketball</title>
  <path
     d="M 54.387978,50.700361 C 59.448202,46.489228 62.57487,36.542725 61.93744,30.974792 61.838516,21.540526 57.16211,13.198433 49.984126,7.9132528 49.774287,7.7390322 49.571942,7.5604195 49.339621,7.4110875 c 0.03148,0.030745 0.05846,0.065882 0.09143,0.096627 C 44.511831,4.0555105 38.496953,2 31.975465,2 c -2.918258,0 -5.730097,0.4274993 -8.398047,1.1873355 -0.01199,-0.00293 -0.02548,-0.00732 -0.03747,-0.010248 0.009,0.00293 0.01799,0.00878 0.02848,0.013176 -4.961187,1.4142615 -9.393281,4.036355 -12.927565,7.5354075 0,-0.0029 0,-0.0059 -0.003,-0.0088 0,0.0029 0.0015,0.0073 0.003,0.01025 -5.1740242,5.122672 -8.4070397,12.100281 -8.6033888,19.818694 -0.00899,-0.01757 -0.017986,-0.03367 -0.026979,-0.05124 0.00749,0.02928 0.016487,0.05856 0.023982,0.08931 C 2.0314758,30.815212 2,31.043602 2,31.280776 c 0,10.00817 5.1500423,18.83486 12.992016,24.117112 -0.006,-0.0015 -0.01499,-0.0015 -0.02098,-0.0015 0.0075,0.0015 0.01649,0.0015 0.02398,0.0044 4.829289,3.247238 10.674796,5.160737 16.980451,5.160737 1.632063,0 3.229024,-0.136141 4.788312,-0.38414 0.319515,-0.05082 3.709193,0.60202 13.332292,-4.957653 m 4.156776,-4.392601 c -0.003,0.0015 0.038,0.0044 0.0365,0.0073 m -7.184504,2.253156 C 45.459103,52.45517 43.916788,51.61774 42.467402,50.645618 l -0.009,-0.0088 c 0.269793,-0.161044 0.548578,-0.305984 0.812376,-0.477277 1.10615,-0.730555 2.138856,-1.567985 3.114606,-2.462513 0.29977,0.200573 0.613029,0.383578 0.947272,0.54023 1.558802,0.696883 3.209034,0.777405 4.779827,0.519734 -1.48386,1.630939 -3.153577,3.097906 -5.007652,4.330627 M 58.954732,31.280776 c 0,6.475444 -2.413146,12.404801 -6.397084,16.997491 -1.698195,0.117123 -3.372408,-0.08199 -4.728866,-0.942841 -0.212836,-0.128835 -0.410684,-0.272311 -0.604036,-0.420179 1.074674,-1.076068 2.057919,-2.237051 2.921255,-3.481484 3.636206,-5.33203 5.097583,-11.786977 4.877252,-18.01207 -0.10342,-3.124259 -0.622022,-6.229485 -1.593275,-9.195628 -0.199347,-0.584151 -0.43017,-1.15659 -0.666988,-1.726102 3.864031,4.561945 6.191742,10.410781 6.191742,16.780813 M 31.975465,4.9280776 c 7.600659,0 14.463885,3.0979062 19.372612,8.0536774 0.448156,1.149271 0.788395,2.342462 1.076173,3.51955 0.696965,2.929541 0.968256,5.945461 0.926289,8.933564 -0.122906,5.958638 -1.615759,11.956806 -4.992664,16.829127 -0.758417,1.131702 -1.629248,2.175561 -2.57652,3.149147 -0.804881,-1.092173 -1.390931,-2.384919 -1.863068,-3.687914 -0.779401,-2.250227 -1.327979,-4.617578 -1.798618,-7.011281 L 40.665787,27.48306 C 39.589614,22.6693 38.299105,17.745738 35.679119,13.343373 34.379617,11.153171 32.711399,9.1371893 30.675963,7.5633475 29.514356,6.6937085 28.247829,5.9748654 26.925845,5.4068183 c 1.638241,-0.303056 3.322947,-0.4787407 5.04962,-0.4787407 m -5.779559,0.6251446 c 3.54028,1.9940209 6.254694,5.0714308 8.008346,8.5734118 2.170332,4.283777 3.334937,9.024335 4.358651,13.792709 1.09266,4.759591 1.827095,9.678761 3.795083,14.395894 0.598041,1.392301 1.380439,2.831451 2.461109,4.017323 -1.253037,1.14927 -2.625982,2.174097 -4.094853,3.065697 C 39.354294,48.399782 38.018821,47.354459 36.743301,46.243253 33.135573,43.053113 29.803634,39.55406 26.69802,35.877858 23.565428,32.219225 20.66066,28.371731 17.977722,24.38369 16.649742,22.380884 15.369726,20.345871 14.229102,18.233262 13.392745,16.732623 12.641822,15.186598 12.054274,13.571763 15.750433,9.6086098 20.64717,6.7420218 26.195906,5.5532222 M 4.9976964,31.280776 c 0,-6.67016 2.5705246,-12.750314 6.7672996,-17.397173 0.35073,1.628011 0.917295,3.220886 1.50934,4.780087 0.933782,2.26194 2.041431,4.450678 3.268988,6.567678 2.44612,4.245713 5.334401,8.227898 8.498469,11.98755 3.198542,3.727443 6.680366,7.252848 10.619339,10.279017 1.21107,0.936984 2.476098,1.811016 3.786091,2.620629 -1.732669,0.928201 -3.56576,1.701213 -5.469297,2.275116 -0.03148,0.01025 -0.06445,0.0161 -0.09443,0.02489 C 32.679923,51.647021 31.392413,51.02334 30.101905,50.480182 26.39975,48.932693 22.628648,47.833199 19.133334,46.227149 15.617036,44.682588 12.379524,42.640254 9.6875923,39.969847 7.9369376,38.237889 6.462071,36.238012 5.1580731,34.101979 5.0561514,33.172315 4.9976964,32.233866 4.9976964,31.280776 m 0.6340127,5.62923 c 0.7943896,1.462575 1.708687,2.872444 2.8163358,4.156406 2.6139911,3.094978 6.1093051,5.412552 9.7844811,7.068379 3.697658,1.6529 7.569183,2.68212 11.262345,3.873847 0.848348,0.286952 1.689202,0.585616 2.509072,0.923809 -4.180288,1.038003 -8.553927,1.434758 -12.951547,1.471359 C 12.309078,50.793486 7.3194122,44.448342 5.6317091,36.910006 M 31.975465,57.633475 c -4.231249,0 -8.222681,-0.983834 -11.791439,-2.687975 4.65842,0.402611 9.40827,0.222534 14.033716,-0.928201 0.169369,0.09955 0.347732,0.188861 0.515603,0.295736 1.124137,0.692491 2.078903,1.63094 2.813338,2.748001 -1.798617,0.371866 -3.661686,0.572439 -5.571218,0.572439 m 3.568757,-3.986577 c 2.03094,-0.585616 4.00792,-1.379125 5.872487,-2.396632 0.173867,0.09223 0.343237,0.191789 0.515604,0.279631 1.527327,0.737876 3.126598,1.392301 4.775331,1.799304 -2.646966,1.692429 -5.611688,2.938326 -8.790745,3.639601 -0.502114,-1.248825 -1.326481,-2.403952 -2.372677,-3.321904"
     id="path1"
     style="display:inline;stroke-width:1.48134"
     sodipodi:nodetypes="cccccscccccccccscccsscccccccccccccccccccccccccccccccccccccccccccccccccccccccccccccccccccccccccccccc" />
  <path
     d="m38.052 33.895c-.002.002-.004.006-.006.008.012-.005.025-.01.039-.015-.012.003-.022.004-.033.007"
     id="path2" />
</svg>
