<svg xmlns="http://www.w3.org/2000/svg" viewBox="0 0 64 64" enable-background="new 0 0 64 64">
<g transform="scale(1.45)">
	<circle cx="22" cy="22" r="20" fill="#ff8736"/>
	<g fill="#231f20">
		<path d="m7.8 8c.4 1.7 1.1 3.2 1.9 4.7.8 1.5 1.7 3 2.6 4.4 1.9 2.8 3.9 5.6 6.1 8.2 2.2 2.6 4.5 5.1 7 7.4 1.3 1.1 2.6 2.2 4 3.1 1.4 1 2.9 1.7 4.6 2.2-1.7-.1-3.4-.8-5-1.6-1.6-.8-3-1.8-4.4-2.9-2.7-2.2-5.2-4.7-7.4-7.3-2.2-2.7-4.2-5.5-5.9-8.6-.8-1.4-1.6-3-2.3-4.6-.6-1.6-1.1-3.3-1.2-5"/>
		<path d="m2 21.5c1.2 2.5 2.7 4.8 4.5 6.7 1.9 1.9 4.1 3.4 6.6 4.5 2.4 1.1 5.1 1.9 7.6 3 1.3.6 2.6 1.2 3.7 2.2 1.1.9 1.9 2.3 2.1 3.6-.5-1.3-1.4-2.3-2.5-3-1.1-.7-2.4-1.2-3.7-1.6-2.6-.9-5.3-1.6-7.9-2.8-2.6-1.2-5-2.8-6.8-5-1.8-2.3-3-4.9-3.6-7.6"/>
		<path d="m38.1 33.9c-1.6.7-3.5 1-5.3.2-1.8-.8-2.8-2.6-3.5-4.2-1.4-3.4-1.9-6.9-2.6-10.3-.7-3.4-1.5-6.8-3-9.8-1.5-3-4-5.7-7.3-6.9 1.7.4 3.4 1.2 4.8 2.3 1.4 1.1 2.6 2.6 3.5 4.1 1.8 3.1 2.7 6.7 3.5 10.1l1 5.2c.3 1.7.7 3.4 1.3 5 .6 1.6 1.3 3.1 2.7 4 1.3.8 3.2.7 4.9.3"/>
		<path d="m33.6 5.7c.9.6 1.6 1.5 2.1 2.5.5 1 1 2 1.3 3.1.7 2.1 1 4.3 1.1 6.6.2 4.4-.9 9.1-3.4 12.9-1.3 1.9-2.9 3.5-4.8 4.8-1.9 1.3-4 2.2-6.2 2.7-4.3 1.1-8.9 1-13.2.3 4.4.1 8.8-.1 12.8-1.4 4.1-1.3 7.7-3.7 10-7.2 2.4-3.5 3.4-7.8 3.5-12 0-2.1-.2-4.3-.6-6.4-.4-2.2-1-4.4-2.6-5.9"/>
	</g>
</g>
</svg>