<svg xmlns="http://www.w3.org/2000/svg" viewBox="0 0 64 64">
	<path fill="#42ade2" transform="scale(1.4) translate(-16,-17)" d="
			M 35.3 44.2
			c 2.9 8.7 -10.5 12.2 -4.1 16.4 6.4 4.2 11 -1.6 16 -9.3
			s 3.9 -17.3 -2.5 -21.5c -6.3 -4.2 -13.3 2.9 -9.4 14.4
			M 42.4 23.3c.4 -2.3 -0.9 -3.7 -2.8 -4 -1.9 -0.3 -3.7.5 -4.1 2.8 -0.6 3.3.7 5.2 2.6 5.5 1.8.3 3.7 -1 4.3 -4.3
			M 48 25.5c.5 -1.6 -0.3 -2.7 -1.6 -3.2s -2.7 -0.1 -3.2 1.5c -0.8 2.3 -0.1 3.7 1.2 4.2
			s 2.8 -0.2 3.6 -2.5
			M 51.7 29.1c.7 -1.3.1 -2.4 -1 -2.9s -2.3 -0.3 -3 1c -0.9 1.9 -0.5 3.2.6 3.8 1.1.5 2.5 0 3.4 -1.9
			M 53.3 33.5c.6 -0.9.3 -1.8 -0.5 -2.4 -0.8 -0.5 -1.7 -0.5 -2.4.4 -0.9 1.3 -0.7 2.4.1 3 .8.6 1.8.3 2.8 -1
			M 54 37.2c.5 -0.8.3 -1.5 -0.4 -1.9s -1.4 -0.4 -1.9.4c -0.7 1.1 -0.6 1.9 0 2.4.7.3 1.6.1 2.3 -0.9"/>
</svg>
