<svg xmlns="http://www.w3.org/2000/svg" viewBox="0 0 64 64">
	<path fill="#42ade2" transform="scale(1.4)" d="
			M 27 27.2
			c -4.5 8 8.1 13.9 1 16.9 -7.1 3 -10.5 -3.6 -14 -12.1 -3.6 -8.4 -0.7 -17.7 6.4 -20.7 7 -2.9 12.5 5.4 6.6 15.9
			M 23.8 5.4
			c 0 -2.3 1.6 -3.5 3.5 -3.4 1.9 0 3.5 1.2 3.5 3.5 0 3.3 -1.6 5 -3.5 4.9 -1.9 0 -3.5 -1.6 -3.5 -5
			M 17.9 6.6c -0.2 -1.7.8 -2.6 2.1 -2.8 1.4 -0.2 2.6.4 2.9 2.1.4 2.4 -0.6 3.7 -2 3.9 -1.3.1 -2.6 -0.9 -3 -3.2
			M 13.6 9.4c -0.4 -1.4.4 -2.3 1.5 -2.7 1.2 -0.3 2.3.1 2.7 1.5.6 2 -0.1 3.3 -1.3 3.6s -2.3 -0.3 -2.9 -2.4
			M 11.3 13.4c -0.5 -1 0 -1.9.9 -2.2
			s 1.8 -0.2 2.2.9c.6 1.5.3 2.5 -0.6 2.9 -0.9.4 -1.9 -0.1 -2.5 -1.6
			M 9.8 16.9c -0.4 -0.8 0 -1.5.7 -1.8
			s 1.4 -0.1 1.8.7c.5 1.2.2 2 -0.5 2.3 -0.6.3 -1.4 0 -2 -1.2
			"/>
</svg>
