<svg xmlns="http://www.w3.org/2000/svg" viewBox="0 0 64 64">
	<g fill="#42ade2">
		<path d="
			M 27 27.2
			c -4.5 8 8.1 13.9 1 16.9 -7.1 3 -10.5 -3.6 -14 -12.1 -3.6 -8.4 -0.7 -17.7 6.4 -20.7 7 -2.9 12.5 5.4 6.6 15.9
			M 23.8 5.4
			c 0 -2.3 1.6 -3.5 3.5 -3.4 1.9 0 3.5 1.2 3.5 3.5 0 3.3 -1.6 5 -3.5 4.9 -1.9 0 -3.5 -1.6 -3.5 -5
			M 17.9 6.6c -0.2 -1.7.8 -2.6 2.1 -2.8 1.4 -0.2 2.6.4 2.9 2.1.4 2.4 -0.6 3.7 -2 3.9 -1.3.1 -2.6 -0.9 -3 -3.2
			M 13.6 9.4c -0.4 -1.4.4 -2.3 1.5 -2.7 1.2 -0.3 2.3.1 2.7 1.5.6 2 -0.1 3.3 -1.3 3.6s -2.3 -0.3 -2.9 -2.4
			M 11.3 13.4c -0.5 -1 0 -1.9.9 -2.2
			s 1.8 -0.2 2.2.9c.6 1.5.3 2.5 -0.6 2.9 -0.9.4 -1.9 -0.1 -2.5 -1.6
			M 9.8 16.9c -0.4 -0.8 0 -1.5.7 -1.8
			s 1.4 -0.1 1.8.7c.5 1.2.2 2 -0.5 2.3 -0.6.3 -1.4 0 -2 -1.2
			"/>
		<path d="
			M 35.3 44.2
			c 2.9 8.7 -10.5 12.2 -4.1 16.4 6.4 4.2 11 -1.6 16 -9.3
			s 3.9 -17.3 -2.5 -21.5c -6.3 -4.2 -13.3 2.9 -9.4 14.4
			M 42.4 23.3c.4 -2.3 -0.9 -3.7 -2.8 -4 -1.9 -0.3 -3.7.5 -4.1 2.8 -0.6 3.3.7 5.2 2.6 5.5 1.8.3 3.7 -1 4.3 -4.3
			M 48 25.5c.5 -1.6 -0.3 -2.7 -1.6 -3.2s -2.7 -0.1 -3.2 1.5c -0.8 2.3 -0.1 3.7 1.2 4.2
			s 2.8 -0.2 3.6 -2.5
			M 51.7 29.1c.7 -1.3.1 -2.4 -1 -2.9s -2.3 -0.3 -3 1c -0.9 1.9 -0.5 3.2.6 3.8 1.1.5 2.5 0 3.4 -1.9
			M 53.3 33.5c.6 -0.9.3 -1.8 -0.5 -2.4 -0.8 -0.5 -1.7 -0.5 -2.4.4 -0.9 1.3 -0.7 2.4.1 3 .8.6 1.8.3 2.8 -1
			M 54 37.2c.5 -0.8.3 -1.5 -0.4 -1.9s -1.4 -0.4 -1.9.4c -0.7 1.1 -0.6 1.9 0 2.4.7.3 1.6.1 2.3 -0.9"/>
	</g>
</svg>
