<svg xmlns="http://www.w3.org/2000/svg" viewBox="0 0 64 64">
<rect width="64" height="64" fill="#eee"/>
    <path fill="#ffb300" d="M32 5.8c-13.7 0-21.2 8.5-21.2 19.6v28.5h42.4V25.4c0-16.6-11.5-16.3-11.5-16.3s-.8-3.3-9.7-3.3"/>
    <path fill="#b386e2" d="M41.6 49.9v-6.7H22.4v6.7C10.3 50.2 7.8 52.1 7.8 62h48.3c.1-9.9-2.4-11.8-14.5-12.1"/>
    <path fill="#ffdd67" d="M16.9 34.7s-3-.8-3-5.2c0-3.5 2.3-4.1 2.3-4.1 8.2 0 21.7-10.5 21.7-10.5s5.1 9.3 10 10.5c0 0 2.4.4 2.4 4.1 0 4.4-3.2 5.2-3.2 5.2 0 6.7-9.3 14.7-15 14.7-5.8 0-15.2-8-15.2-14.7"/>
    <path fill="#eba352" d="M49.5 18.5l.1-.4s1.2-1.5 1.6-2.9l.1 1.7c-.3.5-.6.9-.6.9l-.1.4c-.2.8-.8 2.5-3 2.8 1.3-.6 1.7-1.8 1.9-2.5"/>
    <path fill="#f09985" d="M32 42.8l-7-1.1c4.2 6 9.8 6 14 0l-7 1.1"/>
    <path fill="#d47f6c" d="M34.8 41.5c-2.1-.8-2.8.5-2.8.5s-.7-1.2-2.8-.5c-1.6.6-4.2.2-4.2.3 2.8.6 3.1 1.8 7 1.8 3.8 0 4.2-1.2 7-1.8 0 0-2.6.3-4.2-.3"/>
    <path fill="#eba352" d="M32 39.6c-2.9 0-4.4-2.1-2.9-2.1H35c1.4 0-.1 2.1-3 2.1"/>
    <g fill="#937237">
        <path d="M19.4 30.2c2.5 4.7 7.5 4.7 9.9 0 .1-.2-.2-.3-.6-.6-2.5 2-6.5 1.8-8.8 0-.3.3-.6.4-.5.6M34.7 30.2c2.5 4.7 7.5 4.7 9.9 0 .1-.2-.2-.3-.6-.6-2.5 2-6.5 1.8-8.8 0-.3.3-.6.4-.5.6"/>
    </g>
    <g transform="rotate(90) translate(4,-56.5) scale(0.9)">
		<path fill="#fff" d="M32.6 44c-4.2 1-14.9 2.3-16.8.3-.9-.9-.7-2.2-.4-4.5.3-2.3-1.9-4.7-3.5-4.9-1.9-.2-3 1.2-2.3 3.2C11 42.6 8.2 44 8 47.3c-.1 1.9-.7 5.1 2.2 9.2 3.3 4.6 9 4.7 11 4.6 2.3-.1 3.3-.2 3.8-1.2.6-1.2.3-1.5.6-1.9.5-.9.8-.8 1.1-1.9.3-1.1-.5-1.8-.3-2.3.4-1.2 1.4-1 .4-3.8 3.4-.5 5.6-1 7.6-2.2 3.7-2 .5-4.3-1.8-3.8"/>
		<path fill="#cccfd4" d="M17.5 61.7c-3.4-.6-6.2-2.3-8-4.8-2.8-3.9-2.6-7-2.4-9.1v-.7c.1-1.4.5-2.5 1-3.6.7-1.6 1.3-2.9.5-5.3-.4-1.2-.3-2.4.5-3.2.7-.7 1.7-1.1 2.9-.9h.1c2.1.4 4.5 3.2 4.2 5.9-.3 2.2-.4 3.2.2 3.8.1.1.4.4 1.5.5 3.8.7 11.3-.4 14.4-1.1.5-.1 1.1-.1 1.7 0 1.5.3 2.6 1.2 2.9 2.3.1.7.1 2-2 3.2-2 1.1-4.1 1.7-7 2.1.8 2-1.1 2.7-.7 3.5.5 1.1.4 2-.7 3.1-.8.7.2 1.6-.6 3-.9 1.5-2.4 1.6-4.6 1.7-1.5-.1-2.7-.1-3.9-.4M9.9 37.2c.7 3.3.9 4.5-.3 7.2-1.8 3.6-2.5 13.8 8.2 15.7 6.5 1.2 7.5-.4 7.2-2.1-.2-1.1.7-1.5 1-1.9.7-1.2-.3-1.8-.3-2.3 0-.9.9-.9 1.1-1.8.3-1.6-1.7-2.2 0-2.3 3.3-.2 5.5-.8 7.4-2.1 1.8-1.2.5-3.7-1.9-3.2-5.6 1.2-14 2.6-16.8 0-1.3-1.2-.3-2.6-.4-5.3-.2-3.6-5.9-5-5.2-1.9"/>
    </g>
    <g transform="rotate(90) translate(4,-56) scale(0.9,-0.9) translate(0,-54)">
		<path fill="#fff" d="M32.6 44c-4.2 1-14.9 2.3-16.8.3-.9-.9-.7-2.2-.4-4.5.3-2.3-1.9-4.7-3.5-4.9-1.9-.2-3 1.2-2.3 3.2C11 42.6 8.2 44 8 47.3c-.1 1.9-.7 5.1 2.2 9.2 3.3 4.6 9 4.7 11 4.6 2.3-.1 3.3-.2 3.8-1.2.6-1.2.3-1.5.6-1.9.5-.9.8-.8 1.1-1.9.3-1.1-.5-1.8-.3-2.3.4-1.2 1.4-1 .4-3.8 3.4-.5 5.6-1 7.6-2.2 3.7-2 .5-4.3-1.8-3.8"/>
		<path fill="#cccfd4" d="M17.5 61.7c-3.4-.6-6.2-2.3-8-4.8-2.8-3.9-2.6-7-2.4-9.1v-.7c.1-1.4.5-2.5 1-3.6.7-1.6 1.3-2.9.5-5.3-.4-1.2-.3-2.4.5-3.2.7-.7 1.7-1.1 2.9-.9h.1c2.1.4 4.5 3.2 4.2 5.9-.3 2.2-.4 3.2.2 3.8.1.1.4.4 1.5.5 3.8.7 11.3-.4 14.4-1.1.5-.1 1.1-.1 1.7 0 1.5.3 2.6 1.2 2.9 2.3.1.7.1 2-2 3.2-2 1.1-4.1 1.7-7 2.1.8 2-1.1 2.7-.7 3.5.5 1.1.4 2-.7 3.1-.8.7.2 1.6-.6 3-.9 1.5-2.4 1.6-4.6 1.7-1.5-.1-2.7-.1-3.9-.4M9.9 37.2c.7 3.3.9 4.5-.3 7.2-1.8 3.6-2.5 13.8 8.2 15.7 6.5 1.2 7.5-.4 7.2-2.1-.2-1.1.7-1.5 1-1.9.7-1.2-.3-1.8-.3-2.3 0-.9.9-.9 1.1-1.8.3-1.6-1.7-2.2 0-2.3 3.3-.2 5.5-.8 7.4-2.1 1.8-1.2.5-3.7-1.9-3.2-5.6 1.2-14 2.6-16.8 0-1.3-1.2-.3-2.6-.4-5.3-.2-3.6-5.9-5-5.2-1.9"/>
    </g>
</svg>
