<svg xmlns="http://www.w3.org/2000/svg" viewBox="0 0 64 64" enable-background="new 0 0 64 64">
	<g transform="scale(2) translate(-16,-32)">
		<path d="m47 43.8c0 8.3-6.7 12.2-15 12.2-8.3 0-15-3.9-15-12.2 0-8.4 6.8-4.8 15-4.8 8.3 0 15-3.6 15 4.8" fill="#61c2ff"/>
		<ellipse cx="32" cy="47" rx="6" ry="5" fill="#6235a8"/>
		<path d="m32 46c-6.1 0-11-.7-11 5.2 0 6 4.9 10.8 11 10.8s11-4.8 11-10.7c0-6-4.9-5.3-11-5.3m0 12.4c-4.3 0-8.3-2.9-8.3-7.1s4-3.2 8.3-3.2c4.3 0 8.3-1 8.3 3.2s-4 7.1-8.3 7.1" fill="#fbbf67"/>
		<path d="m36 48.8c0 .6-.5 1.2-1.1 1.2h-5.8c-.6 0-1.1-.5-1.1-1.2v-2.7c0-.6.5-1.2 1.1-1.2h5.8c.6 0 1.1.5 1.1 1.2v2.7" fill="#42ade2"/>
	</g>
</svg>