<svg xmlns="http://www.w3.org/2000/svg" viewBox="0 0 64 64">
<g transform="rotate(90 32,32) scale(1,-1) translate(-40,-64) scale(1.5)">
    <path fill="#a9b5ae" d="M50.4 24.7c.5 1.6 2.7 1.7 5 1.3-1-2.6-2.8-5.8-4.2-9.4-.6-1.5-1.8-2.2-3.4-1.1 0 0-1.5-.7-3.4-6.7 0 0-.3-.8-.5-1-1.4-2.4-4.6-3.1-7.1-1.6s-3.4 4.7-1.9 7.1c1.4 2.4 4.6 3.1 7.1 1.6.7-.4 1.3-1 1.7-1.6.6.4 1.4 3.6 1.4 3.6l5.2 8.6.1-.8m-9.7-11.9c-1.3.8-3 .4-3.7-.8-.7-1.2-.3-2.9 1-3.7 1.3-.8 3-.4 3.7.8.7 1.2.3 2.9-1 3.7"/>
    <path fill="#cedbd5" d="M61.8 8.7c.8-2.8-.9-5.5-3.7-6.1s-5.7 1.1-6.4 3.9c-.1.3-.2 1.1-.2 1.1-.3 6.4-1.5 7.6-1.5 7.6-1.8-.5-2.8.6-3 2.2-1.1 8.7-3.7 16.2 1 16.3l5-18.2s-.1-3.3.4-3.9c.6.5 1.3.8 2.1 1 2.7.6 5.6-1.2 6.3-3.9m-2.4-.6c-.4 1.4-1.9 2.3-3.3 2-1.4-.3-2.3-1.7-1.9-3.2.4-1.4 1.9-2.3 3.3-2 1.4.4 2.3 1.8 1.9 3.2"/>
    <path fill="#231f20" d="M50.6 18.6c.2-.7-.2-1.5-1-1.6-.7-.2-1.5.3-1.7 1-.2.7.2 1.5 1 1.6.8.2 1.5-.3 1.7-1"/>
</g>
</svg>
