<svg xmlns="http://www.w3.org/2000/svg" viewBox="0 0 64 64" enable-background="new 0 0 64 64">
<g transform="scale(0.75,0.75) translate(22)">
	<path fill="#ffdd67" d="m 21 38.8 c  0 0   0.8   -0.1 2.9   -4.4 8.6   -17.3 38.8   -11.8 37   6.8 -0.4   4.1 4 10.9 -12.3   16 -12.9   4 -28.7   -3.7 -27.7   -1.7 Z"/>
	<g fill="#eba352" id="shadow">
		<path d="
			m 61.8 42.9
			c 0.4 -4.4  -0.9 -8   -3.3 -10.6   1.4 2.4   2.1 5.3   1.8 8.7   -0.4 4.1   4 10.9   -12.3 16   -12.9 4 
			-27 -3.7   -27 -3.7 
			0 0   0 0   -0 -0   0 0   0 0 
			0 2.3 
			0 0 15.8 7.7 28.7 3.7 16.2 -5.1 
			11.9 -11.9 12.3 -16 Z"/>
		<path d="m29.2 48.5c8.3 3.1 20.8-0.1 27.9-3.4-3.1 7.5-19.6 11.5-27.9 3.4"/>
		<circle cx="44" cy="43" r="3" fill="#eba352"/>
		<circle cx="44" cy="43" r="2" fill="#89664C"/>
	</g>
</g>
<g transform="scale(-0.75,0.75) translate(-64)">
	<path fill="#ffdd67" d="m 21 38.8 c  0 0   0.8   -0.1 2.9   -4.4 8.6   -17.3 38.8   -11.8 37   6.8 -0.4   4.1 4 10.9 -12.3   16 -12.9   4 -28.7   -3.7 -27.7   -1.7 Z"/>
	<g fill="#eba352" id="shadow">
		<path d="
			m 61.8 42.9
			c 0.4 -4.4  -0.9 -8   -3.3 -10.6   1.4 2.4   2.1 5.3   1.8 8.7   -0.4 4.1   4 10.9   -12.3 16   -12.9 4 
			-27 -3.7   -27 -3.7 
			0 0   0 0   -0 -0   0 0   0 0 
			0 2.3 
			0 0 15.8 7.7 28.7 3.7 16.2 -5.1 
			11.9 -11.9 12.3 -16 Z"/>
		<path d="m29.2 48.5c8.3 3.1 20.8-0.1 27.9-3.4-3.1 7.5-19.6 11.5-27.9 3.4"/>
		<circle cx="44" cy="43" r="3" fill="#eba352"/>
		<circle cx="44" cy="43" r="2" fill="#89664C"/>
	</g>
</g>
</svg>