<svg xmlns="http://www.w3.org/2000/svg" viewBox="0 0 64 64" enable-background="new 0 0 64 64">
	<path fill="#FFDD67" d="m4.4 32.7c0-16.2 13.2-26.1 27.2-18.5 14.4-7.3 30.4 2.3 30.4 18.5 0 14.5-8 22.7-18 26.4-3.6 1.3-10.4 3-14.2 2.9-2.8-.1-2.7-1.5-5.4-2.3-10.9-3.2-20-11.6-20-27"/>
	<path fill="#EBA352" d="m40.5 33.9c.4 3.6.3 7.1-.7 10.5-1 3.4-2.8 6.5-5.8 9.2 4.2-1.6 7.3-4.7 8.9-8.2 1.7-3.5 2.2-7.5 1.7-11.4-.5-3.9-1.9-7.9-4.3-11.5-2.3-3.6-5.8-7.1-10.3-9.1 3.5 3 5.7 6.4 7.4 9.9 1.6 3.4 2.6 7 3.1 10.6"/>
</svg>